G04 #@! TF.GenerationSoftware,KiCad,Pcbnew,(5.1.5)-3*
G04 #@! TF.CreationDate,2020-05-09T17:48:56+02:00*
G04 #@! TF.ProjectId,splitflap,73706c69-7466-46c6-9170-2e6b69636164,rev?*
G04 #@! TF.SameCoordinates,Original*
G04 #@! TF.FileFunction,Soldermask,Bot*
G04 #@! TF.FilePolarity,Negative*
%FSLAX46Y46*%
G04 Gerber Fmt 4.6, Leading zero omitted, Abs format (unit mm)*
G04 Created by KiCad (PCBNEW (5.1.5)-3) date 2020-05-09 17:48:56*
%MOMM*%
%LPD*%
G04 APERTURE LIST*
%ADD10C,0.100000*%
G04 APERTURE END LIST*
D10*
G36*
X236522585Y-112143802D02*
G01*
X236672410Y-112173604D01*
X236954674Y-112290521D01*
X237208705Y-112460259D01*
X237424741Y-112676295D01*
X237594479Y-112930326D01*
X237711396Y-113212590D01*
X237771000Y-113512240D01*
X237771000Y-113817760D01*
X237711396Y-114117410D01*
X237594479Y-114399674D01*
X237424741Y-114653705D01*
X237208705Y-114869741D01*
X236954674Y-115039479D01*
X236672410Y-115156396D01*
X236522585Y-115186198D01*
X236372761Y-115216000D01*
X236067239Y-115216000D01*
X235917415Y-115186198D01*
X235767590Y-115156396D01*
X235485326Y-115039479D01*
X235231295Y-114869741D01*
X235015259Y-114653705D01*
X234845521Y-114399674D01*
X234728604Y-114117410D01*
X234669000Y-113817760D01*
X234669000Y-113512240D01*
X234728604Y-113212590D01*
X234845521Y-112930326D01*
X235015259Y-112676295D01*
X235231295Y-112460259D01*
X235485326Y-112290521D01*
X235767590Y-112173604D01*
X235917415Y-112143802D01*
X236067239Y-112114000D01*
X236372761Y-112114000D01*
X236522585Y-112143802D01*
G37*
G36*
X209566000Y-114951000D02*
G01*
X208264000Y-114951000D01*
X208264000Y-113649000D01*
X209566000Y-113649000D01*
X209566000Y-114951000D01*
G37*
G36*
X211104890Y-113674017D02*
G01*
X211223364Y-113723091D01*
X211329988Y-113794335D01*
X211420665Y-113885012D01*
X211491909Y-113991636D01*
X211540983Y-114110110D01*
X211566000Y-114235882D01*
X211566000Y-114364118D01*
X211540983Y-114489890D01*
X211491909Y-114608364D01*
X211420665Y-114714988D01*
X211329988Y-114805665D01*
X211223364Y-114876909D01*
X211223363Y-114876910D01*
X211223362Y-114876910D01*
X211104890Y-114925983D01*
X210979119Y-114951000D01*
X210850881Y-114951000D01*
X210725110Y-114925983D01*
X210606638Y-114876910D01*
X210606637Y-114876910D01*
X210606636Y-114876909D01*
X210500012Y-114805665D01*
X210409335Y-114714988D01*
X210338091Y-114608364D01*
X210289017Y-114489890D01*
X210264000Y-114364118D01*
X210264000Y-114235882D01*
X210289017Y-114110110D01*
X210338091Y-113991636D01*
X210409335Y-113885012D01*
X210500012Y-113794335D01*
X210606636Y-113723091D01*
X210725110Y-113674017D01*
X210850881Y-113649000D01*
X210979119Y-113649000D01*
X211104890Y-113674017D01*
G37*
G36*
X228848228Y-110941703D02*
G01*
X229003100Y-111005853D01*
X229142481Y-111098985D01*
X229261015Y-111217519D01*
X229354147Y-111356900D01*
X229418297Y-111511772D01*
X229451000Y-111676184D01*
X229451000Y-111843816D01*
X229418297Y-112008228D01*
X229354147Y-112163100D01*
X229261015Y-112302481D01*
X229142481Y-112421015D01*
X229003100Y-112514147D01*
X228848228Y-112578297D01*
X228683816Y-112611000D01*
X228516184Y-112611000D01*
X228351772Y-112578297D01*
X228196900Y-112514147D01*
X228057519Y-112421015D01*
X227938985Y-112302481D01*
X227845853Y-112163100D01*
X227781703Y-112008228D01*
X227749000Y-111843816D01*
X227749000Y-111676184D01*
X227781703Y-111511772D01*
X227845853Y-111356900D01*
X227938985Y-111217519D01*
X228057519Y-111098985D01*
X228196900Y-111005853D01*
X228351772Y-110941703D01*
X228516184Y-110909000D01*
X228683816Y-110909000D01*
X228848228Y-110941703D01*
G37*
G36*
X221228228Y-110941703D02*
G01*
X221383100Y-111005853D01*
X221522481Y-111098985D01*
X221641015Y-111217519D01*
X221734147Y-111356900D01*
X221798297Y-111511772D01*
X221831000Y-111676184D01*
X221831000Y-111843816D01*
X221798297Y-112008228D01*
X221734147Y-112163100D01*
X221641015Y-112302481D01*
X221522481Y-112421015D01*
X221383100Y-112514147D01*
X221228228Y-112578297D01*
X221063816Y-112611000D01*
X220896184Y-112611000D01*
X220731772Y-112578297D01*
X220576900Y-112514147D01*
X220437519Y-112421015D01*
X220318985Y-112302481D01*
X220225853Y-112163100D01*
X220161703Y-112008228D01*
X220129000Y-111843816D01*
X220129000Y-111676184D01*
X220161703Y-111511772D01*
X220225853Y-111356900D01*
X220318985Y-111217519D01*
X220437519Y-111098985D01*
X220576900Y-111005853D01*
X220731772Y-110941703D01*
X220896184Y-110909000D01*
X221063816Y-110909000D01*
X221228228Y-110941703D01*
G37*
G36*
X236522585Y-107063802D02*
G01*
X236672410Y-107093604D01*
X236954674Y-107210521D01*
X237208705Y-107380259D01*
X237424741Y-107596295D01*
X237594479Y-107850326D01*
X237711396Y-108132590D01*
X237771000Y-108432240D01*
X237771000Y-108737760D01*
X237711396Y-109037410D01*
X237594479Y-109319674D01*
X237424741Y-109573705D01*
X237208705Y-109789741D01*
X236954674Y-109959479D01*
X236672410Y-110076396D01*
X236522585Y-110106198D01*
X236372761Y-110136000D01*
X236067239Y-110136000D01*
X235917415Y-110106198D01*
X235767590Y-110076396D01*
X235485326Y-109959479D01*
X235231295Y-109789741D01*
X235015259Y-109573705D01*
X234845521Y-109319674D01*
X234728604Y-109037410D01*
X234669000Y-108737760D01*
X234669000Y-108432240D01*
X234728604Y-108132590D01*
X234845521Y-107850326D01*
X235015259Y-107596295D01*
X235231295Y-107380259D01*
X235485326Y-107210521D01*
X235767590Y-107093604D01*
X235917415Y-107063802D01*
X236067239Y-107034000D01*
X236372761Y-107034000D01*
X236522585Y-107063802D01*
G37*
G36*
X213526823Y-106711313D02*
G01*
X213687242Y-106759976D01*
X213819906Y-106830886D01*
X213835078Y-106838996D01*
X213964659Y-106945341D01*
X214071004Y-107074922D01*
X214071005Y-107074924D01*
X214150024Y-107222758D01*
X214198687Y-107383178D01*
X214211000Y-107508197D01*
X214211000Y-108391804D01*
X214198687Y-108516823D01*
X214150024Y-108677242D01*
X214117676Y-108737760D01*
X214071004Y-108825078D01*
X213964659Y-108954659D01*
X213835077Y-109061005D01*
X213687241Y-109140024D01*
X213526822Y-109188687D01*
X213360000Y-109205117D01*
X213193177Y-109188687D01*
X213032758Y-109140024D01*
X212884924Y-109061005D01*
X212884922Y-109061004D01*
X212755341Y-108954659D01*
X212648995Y-108825077D01*
X212569976Y-108677241D01*
X212521313Y-108516822D01*
X212509000Y-108391803D01*
X212509000Y-107508197D01*
X212521314Y-107383177D01*
X212569977Y-107222758D01*
X212648996Y-107074924D01*
X212648997Y-107074922D01*
X212755342Y-106945341D01*
X212884923Y-106838996D01*
X212900095Y-106830886D01*
X213032759Y-106759976D01*
X213193178Y-106711313D01*
X213360000Y-106694883D01*
X213526823Y-106711313D01*
G37*
G36*
X180506822Y-106711313D02*
G01*
X180667241Y-106759976D01*
X180815077Y-106838995D01*
X180923807Y-106928228D01*
X180944659Y-106945341D01*
X181051004Y-107074922D01*
X181051005Y-107074924D01*
X181130024Y-107222758D01*
X181178687Y-107383177D01*
X181191000Y-107508196D01*
X181191000Y-108391803D01*
X181178687Y-108516822D01*
X181130024Y-108677242D01*
X181097676Y-108737760D01*
X181051004Y-108825078D01*
X180944659Y-108954659D01*
X180815078Y-109061004D01*
X180815076Y-109061005D01*
X180667242Y-109140024D01*
X180506823Y-109188687D01*
X180340000Y-109205117D01*
X180173178Y-109188687D01*
X180012759Y-109140024D01*
X179864925Y-109061005D01*
X179864923Y-109061004D01*
X179735342Y-108954659D01*
X179628997Y-108825078D01*
X179582325Y-108737760D01*
X179549977Y-108677242D01*
X179501314Y-108516823D01*
X179489000Y-108391803D01*
X179489000Y-107508197D01*
X179501313Y-107383178D01*
X179549976Y-107222759D01*
X179628995Y-107074923D01*
X179735341Y-106945341D01*
X179756193Y-106928228D01*
X179864922Y-106838996D01*
X179880094Y-106830886D01*
X180012758Y-106759976D01*
X180173177Y-106711313D01*
X180340000Y-106694883D01*
X180506822Y-106711313D01*
G37*
G36*
X172886822Y-106711313D02*
G01*
X173047241Y-106759976D01*
X173195077Y-106838995D01*
X173303807Y-106928228D01*
X173324659Y-106945341D01*
X173431004Y-107074922D01*
X173431005Y-107074924D01*
X173510024Y-107222758D01*
X173558687Y-107383177D01*
X173571000Y-107508196D01*
X173571000Y-108391803D01*
X173558687Y-108516822D01*
X173510024Y-108677242D01*
X173477676Y-108737760D01*
X173431004Y-108825078D01*
X173324659Y-108954659D01*
X173195078Y-109061004D01*
X173195076Y-109061005D01*
X173047242Y-109140024D01*
X172886823Y-109188687D01*
X172720000Y-109205117D01*
X172553178Y-109188687D01*
X172392759Y-109140024D01*
X172244925Y-109061005D01*
X172244923Y-109061004D01*
X172115342Y-108954659D01*
X172008997Y-108825078D01*
X171962325Y-108737760D01*
X171929977Y-108677242D01*
X171881314Y-108516823D01*
X171869000Y-108391803D01*
X171869000Y-107508197D01*
X171881313Y-107383178D01*
X171929976Y-107222759D01*
X172008995Y-107074923D01*
X172115341Y-106945341D01*
X172136193Y-106928228D01*
X172244922Y-106838996D01*
X172260094Y-106830886D01*
X172392758Y-106759976D01*
X172553177Y-106711313D01*
X172720000Y-106694883D01*
X172886822Y-106711313D01*
G37*
G36*
X210986823Y-106711313D02*
G01*
X211147242Y-106759976D01*
X211279906Y-106830886D01*
X211295078Y-106838996D01*
X211424659Y-106945341D01*
X211531004Y-107074922D01*
X211531005Y-107074924D01*
X211610024Y-107222758D01*
X211658687Y-107383178D01*
X211671000Y-107508197D01*
X211671000Y-108391804D01*
X211658687Y-108516823D01*
X211610024Y-108677242D01*
X211577676Y-108737760D01*
X211531004Y-108825078D01*
X211424659Y-108954659D01*
X211295077Y-109061005D01*
X211147241Y-109140024D01*
X210986822Y-109188687D01*
X210820000Y-109205117D01*
X210653177Y-109188687D01*
X210492758Y-109140024D01*
X210344924Y-109061005D01*
X210344922Y-109061004D01*
X210215341Y-108954659D01*
X210108995Y-108825077D01*
X210029976Y-108677241D01*
X209981313Y-108516822D01*
X209969000Y-108391803D01*
X209969000Y-107508197D01*
X209981314Y-107383177D01*
X210029977Y-107222758D01*
X210108996Y-107074924D01*
X210108997Y-107074922D01*
X210215342Y-106945341D01*
X210344923Y-106838996D01*
X210360095Y-106830886D01*
X210492759Y-106759976D01*
X210653178Y-106711313D01*
X210820000Y-106694883D01*
X210986823Y-106711313D01*
G37*
G36*
X208446823Y-106711313D02*
G01*
X208607242Y-106759976D01*
X208739906Y-106830886D01*
X208755078Y-106838996D01*
X208884659Y-106945341D01*
X208991004Y-107074922D01*
X208991005Y-107074924D01*
X209070024Y-107222758D01*
X209118687Y-107383178D01*
X209131000Y-107508197D01*
X209131000Y-108391804D01*
X209118687Y-108516823D01*
X209070024Y-108677242D01*
X209037676Y-108737760D01*
X208991004Y-108825078D01*
X208884659Y-108954659D01*
X208755077Y-109061005D01*
X208607241Y-109140024D01*
X208446822Y-109188687D01*
X208280000Y-109205117D01*
X208113177Y-109188687D01*
X207952758Y-109140024D01*
X207804924Y-109061005D01*
X207804922Y-109061004D01*
X207675341Y-108954659D01*
X207568995Y-108825077D01*
X207489976Y-108677241D01*
X207441313Y-108516822D01*
X207429000Y-108391803D01*
X207429000Y-107508197D01*
X207441314Y-107383177D01*
X207489977Y-107222758D01*
X207568996Y-107074924D01*
X207568997Y-107074922D01*
X207675342Y-106945341D01*
X207804923Y-106838996D01*
X207820095Y-106830886D01*
X207952759Y-106759976D01*
X208113178Y-106711313D01*
X208280000Y-106694883D01*
X208446823Y-106711313D01*
G37*
G36*
X205906823Y-106711313D02*
G01*
X206067242Y-106759976D01*
X206199906Y-106830886D01*
X206215078Y-106838996D01*
X206344659Y-106945341D01*
X206451004Y-107074922D01*
X206451005Y-107074924D01*
X206530024Y-107222758D01*
X206578687Y-107383178D01*
X206591000Y-107508197D01*
X206591000Y-108391804D01*
X206578687Y-108516823D01*
X206530024Y-108677242D01*
X206497676Y-108737760D01*
X206451004Y-108825078D01*
X206344659Y-108954659D01*
X206215077Y-109061005D01*
X206067241Y-109140024D01*
X205906822Y-109188687D01*
X205740000Y-109205117D01*
X205573177Y-109188687D01*
X205412758Y-109140024D01*
X205264924Y-109061005D01*
X205264922Y-109061004D01*
X205135341Y-108954659D01*
X205028995Y-108825077D01*
X204949976Y-108677241D01*
X204901313Y-108516822D01*
X204889000Y-108391803D01*
X204889000Y-107508197D01*
X204901314Y-107383177D01*
X204949977Y-107222758D01*
X205028996Y-107074924D01*
X205028997Y-107074922D01*
X205135342Y-106945341D01*
X205264923Y-106838996D01*
X205280095Y-106830886D01*
X205412759Y-106759976D01*
X205573178Y-106711313D01*
X205740000Y-106694883D01*
X205906823Y-106711313D01*
G37*
G36*
X203366823Y-106711313D02*
G01*
X203527242Y-106759976D01*
X203659906Y-106830886D01*
X203675078Y-106838996D01*
X203804659Y-106945341D01*
X203911004Y-107074922D01*
X203911005Y-107074924D01*
X203990024Y-107222758D01*
X204038687Y-107383178D01*
X204051000Y-107508197D01*
X204051000Y-108391804D01*
X204038687Y-108516823D01*
X203990024Y-108677242D01*
X203957676Y-108737760D01*
X203911004Y-108825078D01*
X203804659Y-108954659D01*
X203675077Y-109061005D01*
X203527241Y-109140024D01*
X203366822Y-109188687D01*
X203200000Y-109205117D01*
X203033177Y-109188687D01*
X202872758Y-109140024D01*
X202724924Y-109061005D01*
X202724922Y-109061004D01*
X202595341Y-108954659D01*
X202488995Y-108825077D01*
X202409976Y-108677241D01*
X202361313Y-108516822D01*
X202349000Y-108391803D01*
X202349000Y-107508197D01*
X202361314Y-107383177D01*
X202409977Y-107222758D01*
X202488996Y-107074924D01*
X202488997Y-107074922D01*
X202595342Y-106945341D01*
X202724923Y-106838996D01*
X202740095Y-106830886D01*
X202872759Y-106759976D01*
X203033178Y-106711313D01*
X203200000Y-106694883D01*
X203366823Y-106711313D01*
G37*
G36*
X198286823Y-106711313D02*
G01*
X198447242Y-106759976D01*
X198579906Y-106830886D01*
X198595078Y-106838996D01*
X198724659Y-106945341D01*
X198831004Y-107074922D01*
X198831005Y-107074924D01*
X198910024Y-107222758D01*
X198958687Y-107383178D01*
X198971000Y-107508197D01*
X198971000Y-108391804D01*
X198958687Y-108516823D01*
X198910024Y-108677242D01*
X198877676Y-108737760D01*
X198831004Y-108825078D01*
X198724659Y-108954659D01*
X198595077Y-109061005D01*
X198447241Y-109140024D01*
X198286822Y-109188687D01*
X198120000Y-109205117D01*
X197953177Y-109188687D01*
X197792758Y-109140024D01*
X197644924Y-109061005D01*
X197644922Y-109061004D01*
X197515341Y-108954659D01*
X197408995Y-108825077D01*
X197329976Y-108677241D01*
X197281313Y-108516822D01*
X197269000Y-108391803D01*
X197269000Y-107508197D01*
X197281314Y-107383177D01*
X197329977Y-107222758D01*
X197408996Y-107074924D01*
X197408997Y-107074922D01*
X197515342Y-106945341D01*
X197644923Y-106838996D01*
X197660095Y-106830886D01*
X197792759Y-106759976D01*
X197953178Y-106711313D01*
X198120000Y-106694883D01*
X198286823Y-106711313D01*
G37*
G36*
X195746823Y-106711313D02*
G01*
X195907242Y-106759976D01*
X196039906Y-106830886D01*
X196055078Y-106838996D01*
X196184659Y-106945341D01*
X196291004Y-107074922D01*
X196291005Y-107074924D01*
X196370024Y-107222758D01*
X196418687Y-107383178D01*
X196431000Y-107508197D01*
X196431000Y-108391804D01*
X196418687Y-108516823D01*
X196370024Y-108677242D01*
X196337676Y-108737760D01*
X196291004Y-108825078D01*
X196184659Y-108954659D01*
X196055077Y-109061005D01*
X195907241Y-109140024D01*
X195746822Y-109188687D01*
X195580000Y-109205117D01*
X195413177Y-109188687D01*
X195252758Y-109140024D01*
X195104924Y-109061005D01*
X195104922Y-109061004D01*
X194975341Y-108954659D01*
X194868995Y-108825077D01*
X194789976Y-108677241D01*
X194741313Y-108516822D01*
X194729000Y-108391803D01*
X194729000Y-107508197D01*
X194741314Y-107383177D01*
X194789977Y-107222758D01*
X194868996Y-107074924D01*
X194868997Y-107074922D01*
X194975342Y-106945341D01*
X195104923Y-106838996D01*
X195120095Y-106830886D01*
X195252759Y-106759976D01*
X195413178Y-106711313D01*
X195580000Y-106694883D01*
X195746823Y-106711313D01*
G37*
G36*
X175426822Y-106711313D02*
G01*
X175587241Y-106759976D01*
X175735077Y-106838995D01*
X175843807Y-106928228D01*
X175864659Y-106945341D01*
X175971004Y-107074922D01*
X175971005Y-107074924D01*
X176050024Y-107222758D01*
X176098687Y-107383177D01*
X176111000Y-107508196D01*
X176111000Y-108391803D01*
X176098687Y-108516822D01*
X176050024Y-108677242D01*
X176017676Y-108737760D01*
X175971004Y-108825078D01*
X175864659Y-108954659D01*
X175735078Y-109061004D01*
X175735076Y-109061005D01*
X175587242Y-109140024D01*
X175426823Y-109188687D01*
X175260000Y-109205117D01*
X175093178Y-109188687D01*
X174932759Y-109140024D01*
X174784925Y-109061005D01*
X174784923Y-109061004D01*
X174655342Y-108954659D01*
X174548997Y-108825078D01*
X174502325Y-108737760D01*
X174469977Y-108677242D01*
X174421314Y-108516823D01*
X174409000Y-108391803D01*
X174409000Y-107508197D01*
X174421313Y-107383178D01*
X174469976Y-107222759D01*
X174548995Y-107074923D01*
X174655341Y-106945341D01*
X174676193Y-106928228D01*
X174784922Y-106838996D01*
X174800094Y-106830886D01*
X174932758Y-106759976D01*
X175093177Y-106711313D01*
X175260000Y-106694883D01*
X175426822Y-106711313D01*
G37*
G36*
X177966822Y-106711313D02*
G01*
X178127241Y-106759976D01*
X178275077Y-106838995D01*
X178383807Y-106928228D01*
X178404659Y-106945341D01*
X178511004Y-107074922D01*
X178511005Y-107074924D01*
X178590024Y-107222758D01*
X178638687Y-107383177D01*
X178651000Y-107508196D01*
X178651000Y-108391803D01*
X178638687Y-108516822D01*
X178590024Y-108677242D01*
X178557676Y-108737760D01*
X178511004Y-108825078D01*
X178404659Y-108954659D01*
X178275078Y-109061004D01*
X178275076Y-109061005D01*
X178127242Y-109140024D01*
X177966823Y-109188687D01*
X177800000Y-109205117D01*
X177633178Y-109188687D01*
X177472759Y-109140024D01*
X177324925Y-109061005D01*
X177324923Y-109061004D01*
X177195342Y-108954659D01*
X177088997Y-108825078D01*
X177042325Y-108737760D01*
X177009977Y-108677242D01*
X176961314Y-108516823D01*
X176949000Y-108391803D01*
X176949000Y-107508197D01*
X176961313Y-107383178D01*
X177009976Y-107222759D01*
X177088995Y-107074923D01*
X177195341Y-106945341D01*
X177216193Y-106928228D01*
X177324922Y-106838996D01*
X177340094Y-106830886D01*
X177472758Y-106759976D01*
X177633177Y-106711313D01*
X177800000Y-106694883D01*
X177966822Y-106711313D01*
G37*
G36*
X185586822Y-106711313D02*
G01*
X185747241Y-106759976D01*
X185895077Y-106838995D01*
X186003807Y-106928228D01*
X186024659Y-106945341D01*
X186131004Y-107074922D01*
X186131005Y-107074924D01*
X186210024Y-107222758D01*
X186258687Y-107383177D01*
X186271000Y-107508196D01*
X186271000Y-108391803D01*
X186258687Y-108516822D01*
X186210024Y-108677242D01*
X186177676Y-108737760D01*
X186131004Y-108825078D01*
X186024659Y-108954659D01*
X185895078Y-109061004D01*
X185895076Y-109061005D01*
X185747242Y-109140024D01*
X185586823Y-109188687D01*
X185420000Y-109205117D01*
X185253178Y-109188687D01*
X185092759Y-109140024D01*
X184944925Y-109061005D01*
X184944923Y-109061004D01*
X184815342Y-108954659D01*
X184708997Y-108825078D01*
X184662325Y-108737760D01*
X184629977Y-108677242D01*
X184581314Y-108516823D01*
X184569000Y-108391803D01*
X184569000Y-107508197D01*
X184581313Y-107383178D01*
X184629976Y-107222759D01*
X184708995Y-107074923D01*
X184815341Y-106945341D01*
X184836193Y-106928228D01*
X184944922Y-106838996D01*
X184960094Y-106830886D01*
X185092758Y-106759976D01*
X185253177Y-106711313D01*
X185420000Y-106694883D01*
X185586822Y-106711313D01*
G37*
G36*
X188126822Y-106711313D02*
G01*
X188287241Y-106759976D01*
X188435077Y-106838995D01*
X188543807Y-106928228D01*
X188564659Y-106945341D01*
X188671004Y-107074922D01*
X188671005Y-107074924D01*
X188750024Y-107222758D01*
X188798687Y-107383177D01*
X188811000Y-107508196D01*
X188811000Y-108391803D01*
X188798687Y-108516822D01*
X188750024Y-108677242D01*
X188717676Y-108737760D01*
X188671004Y-108825078D01*
X188564659Y-108954659D01*
X188435078Y-109061004D01*
X188435076Y-109061005D01*
X188287242Y-109140024D01*
X188126823Y-109188687D01*
X187960000Y-109205117D01*
X187793178Y-109188687D01*
X187632759Y-109140024D01*
X187484925Y-109061005D01*
X187484923Y-109061004D01*
X187355342Y-108954659D01*
X187248997Y-108825078D01*
X187202325Y-108737760D01*
X187169977Y-108677242D01*
X187121314Y-108516823D01*
X187109000Y-108391803D01*
X187109000Y-107508197D01*
X187121313Y-107383178D01*
X187169976Y-107222759D01*
X187248995Y-107074923D01*
X187355341Y-106945341D01*
X187376193Y-106928228D01*
X187484922Y-106838996D01*
X187500094Y-106830886D01*
X187632758Y-106759976D01*
X187793177Y-106711313D01*
X187960000Y-106694883D01*
X188126822Y-106711313D01*
G37*
G36*
X183046822Y-106711313D02*
G01*
X183207241Y-106759976D01*
X183355077Y-106838995D01*
X183463807Y-106928228D01*
X183484659Y-106945341D01*
X183591004Y-107074922D01*
X183591005Y-107074924D01*
X183670024Y-107222758D01*
X183718687Y-107383177D01*
X183731000Y-107508196D01*
X183731000Y-108391803D01*
X183718687Y-108516822D01*
X183670024Y-108677242D01*
X183637676Y-108737760D01*
X183591004Y-108825078D01*
X183484659Y-108954659D01*
X183355078Y-109061004D01*
X183355076Y-109061005D01*
X183207242Y-109140024D01*
X183046823Y-109188687D01*
X182880000Y-109205117D01*
X182713178Y-109188687D01*
X182552759Y-109140024D01*
X182404925Y-109061005D01*
X182404923Y-109061004D01*
X182275342Y-108954659D01*
X182168997Y-108825078D01*
X182122325Y-108737760D01*
X182089977Y-108677242D01*
X182041314Y-108516823D01*
X182029000Y-108391803D01*
X182029000Y-107508197D01*
X182041313Y-107383178D01*
X182089976Y-107222759D01*
X182168995Y-107074923D01*
X182275341Y-106945341D01*
X182296193Y-106928228D01*
X182404922Y-106838996D01*
X182420094Y-106830886D01*
X182552758Y-106759976D01*
X182713177Y-106711313D01*
X182880000Y-106694883D01*
X183046822Y-106711313D01*
G37*
G36*
X200826823Y-106711313D02*
G01*
X200987242Y-106759976D01*
X201119906Y-106830886D01*
X201135078Y-106838996D01*
X201264659Y-106945341D01*
X201371004Y-107074922D01*
X201371005Y-107074924D01*
X201450024Y-107222758D01*
X201498687Y-107383178D01*
X201511000Y-107508197D01*
X201511000Y-108391804D01*
X201498687Y-108516823D01*
X201450024Y-108677242D01*
X201417676Y-108737760D01*
X201371004Y-108825078D01*
X201264659Y-108954659D01*
X201135077Y-109061005D01*
X200987241Y-109140024D01*
X200826822Y-109188687D01*
X200660000Y-109205117D01*
X200493177Y-109188687D01*
X200332758Y-109140024D01*
X200184924Y-109061005D01*
X200184922Y-109061004D01*
X200055341Y-108954659D01*
X199948995Y-108825077D01*
X199869976Y-108677241D01*
X199821313Y-108516822D01*
X199809000Y-108391803D01*
X199809000Y-107508197D01*
X199821314Y-107383177D01*
X199869977Y-107222758D01*
X199948996Y-107074924D01*
X199948997Y-107074922D01*
X200055342Y-106945341D01*
X200184923Y-106838996D01*
X200200095Y-106830886D01*
X200332759Y-106759976D01*
X200493178Y-106711313D01*
X200660000Y-106694883D01*
X200826823Y-106711313D01*
G37*
G36*
X171031000Y-109201000D02*
G01*
X169329000Y-109201000D01*
X169329000Y-106699000D01*
X171031000Y-106699000D01*
X171031000Y-109201000D01*
G37*
G36*
X228848228Y-105861703D02*
G01*
X229003100Y-105925853D01*
X229142481Y-106018985D01*
X229261015Y-106137519D01*
X229354147Y-106276900D01*
X229418297Y-106431772D01*
X229451000Y-106596184D01*
X229451000Y-106763816D01*
X229418297Y-106928228D01*
X229354147Y-107083100D01*
X229261015Y-107222481D01*
X229142481Y-107341015D01*
X229003100Y-107434147D01*
X228848228Y-107498297D01*
X228683816Y-107531000D01*
X228516184Y-107531000D01*
X228351772Y-107498297D01*
X228196900Y-107434147D01*
X228057519Y-107341015D01*
X227938985Y-107222481D01*
X227845853Y-107083100D01*
X227781703Y-106928228D01*
X227749000Y-106763816D01*
X227749000Y-106596184D01*
X227781703Y-106431772D01*
X227845853Y-106276900D01*
X227938985Y-106137519D01*
X228057519Y-106018985D01*
X228196900Y-105925853D01*
X228351772Y-105861703D01*
X228516184Y-105829000D01*
X228683816Y-105829000D01*
X228848228Y-105861703D01*
G37*
G36*
X221831000Y-107531000D02*
G01*
X220129000Y-107531000D01*
X220129000Y-105829000D01*
X221831000Y-105829000D01*
X221831000Y-107531000D01*
G37*
G36*
X236522585Y-101983802D02*
G01*
X236672410Y-102013604D01*
X236954674Y-102130521D01*
X237208705Y-102300259D01*
X237424741Y-102516295D01*
X237594479Y-102770326D01*
X237711396Y-103052590D01*
X237771000Y-103352240D01*
X237771000Y-103657760D01*
X237711396Y-103957410D01*
X237594479Y-104239674D01*
X237424741Y-104493705D01*
X237208705Y-104709741D01*
X236954674Y-104879479D01*
X236672410Y-104996396D01*
X236522585Y-105026198D01*
X236372761Y-105056000D01*
X236067239Y-105056000D01*
X235917415Y-105026198D01*
X235767590Y-104996396D01*
X235485326Y-104879479D01*
X235231295Y-104709741D01*
X235015259Y-104493705D01*
X234845521Y-104239674D01*
X234728604Y-103957410D01*
X234669000Y-103657760D01*
X234669000Y-103352240D01*
X234728604Y-103052590D01*
X234845521Y-102770326D01*
X235015259Y-102516295D01*
X235231295Y-102300259D01*
X235485326Y-102130521D01*
X235767590Y-102013604D01*
X235917415Y-101983802D01*
X236067239Y-101954000D01*
X236372761Y-101954000D01*
X236522585Y-101983802D01*
G37*
G36*
X221228228Y-100781703D02*
G01*
X221383100Y-100845853D01*
X221522481Y-100938985D01*
X221641015Y-101057519D01*
X221734147Y-101196900D01*
X221798297Y-101351772D01*
X221831000Y-101516184D01*
X221831000Y-101683816D01*
X221798297Y-101848228D01*
X221734147Y-102003100D01*
X221641015Y-102142481D01*
X221522481Y-102261015D01*
X221383100Y-102354147D01*
X221228228Y-102418297D01*
X221063816Y-102451000D01*
X220896184Y-102451000D01*
X220731772Y-102418297D01*
X220576900Y-102354147D01*
X220437519Y-102261015D01*
X220318985Y-102142481D01*
X220225853Y-102003100D01*
X220161703Y-101848228D01*
X220129000Y-101683816D01*
X220129000Y-101516184D01*
X220161703Y-101351772D01*
X220225853Y-101196900D01*
X220318985Y-101057519D01*
X220437519Y-100938985D01*
X220576900Y-100845853D01*
X220731772Y-100781703D01*
X220896184Y-100749000D01*
X221063816Y-100749000D01*
X221228228Y-100781703D01*
G37*
G36*
X228848228Y-100781703D02*
G01*
X229003100Y-100845853D01*
X229142481Y-100938985D01*
X229261015Y-101057519D01*
X229354147Y-101196900D01*
X229418297Y-101351772D01*
X229451000Y-101516184D01*
X229451000Y-101683816D01*
X229418297Y-101848228D01*
X229354147Y-102003100D01*
X229261015Y-102142481D01*
X229142481Y-102261015D01*
X229003100Y-102354147D01*
X228848228Y-102418297D01*
X228683816Y-102451000D01*
X228516184Y-102451000D01*
X228351772Y-102418297D01*
X228196900Y-102354147D01*
X228057519Y-102261015D01*
X227938985Y-102142481D01*
X227845853Y-102003100D01*
X227781703Y-101848228D01*
X227749000Y-101683816D01*
X227749000Y-101516184D01*
X227781703Y-101351772D01*
X227845853Y-101196900D01*
X227938985Y-101057519D01*
X228057519Y-100938985D01*
X228196900Y-100845853D01*
X228351772Y-100781703D01*
X228516184Y-100749000D01*
X228683816Y-100749000D01*
X228848228Y-100781703D01*
G37*
G36*
X195746823Y-99091313D02*
G01*
X195907242Y-99139976D01*
X196039906Y-99210886D01*
X196055078Y-99218996D01*
X196184659Y-99325341D01*
X196291004Y-99454922D01*
X196291005Y-99454924D01*
X196370024Y-99602758D01*
X196418687Y-99763178D01*
X196431000Y-99888197D01*
X196431000Y-100771804D01*
X196418687Y-100896823D01*
X196370024Y-101057242D01*
X196369875Y-101057520D01*
X196291004Y-101205078D01*
X196184659Y-101334659D01*
X196055077Y-101441005D01*
X195907241Y-101520024D01*
X195746822Y-101568687D01*
X195580000Y-101585117D01*
X195413177Y-101568687D01*
X195252758Y-101520024D01*
X195104924Y-101441005D01*
X195104922Y-101441004D01*
X194975341Y-101334659D01*
X194868995Y-101205077D01*
X194789976Y-101057241D01*
X194741313Y-100896822D01*
X194729000Y-100771803D01*
X194729000Y-99888197D01*
X194741314Y-99763177D01*
X194789977Y-99602758D01*
X194868996Y-99454924D01*
X194868997Y-99454922D01*
X194975342Y-99325341D01*
X195104923Y-99218996D01*
X195120095Y-99210886D01*
X195252759Y-99139976D01*
X195413178Y-99091313D01*
X195580000Y-99074883D01*
X195746823Y-99091313D01*
G37*
G36*
X172886822Y-99091313D02*
G01*
X173047241Y-99139976D01*
X173195077Y-99218995D01*
X173324659Y-99325341D01*
X173431004Y-99454922D01*
X173431005Y-99454924D01*
X173510024Y-99602758D01*
X173558687Y-99763177D01*
X173571000Y-99888196D01*
X173571000Y-100771803D01*
X173558687Y-100896822D01*
X173510024Y-101057242D01*
X173509875Y-101057520D01*
X173431004Y-101205078D01*
X173324659Y-101334659D01*
X173195078Y-101441004D01*
X173195076Y-101441005D01*
X173047242Y-101520024D01*
X172886823Y-101568687D01*
X172720000Y-101585117D01*
X172553178Y-101568687D01*
X172392759Y-101520024D01*
X172244925Y-101441005D01*
X172244923Y-101441004D01*
X172115342Y-101334659D01*
X172008997Y-101205078D01*
X171930126Y-101057520D01*
X171929977Y-101057242D01*
X171881314Y-100896823D01*
X171869000Y-100771803D01*
X171869000Y-99888197D01*
X171881313Y-99763178D01*
X171929976Y-99602759D01*
X172008995Y-99454923D01*
X172115341Y-99325341D01*
X172244922Y-99218996D01*
X172260094Y-99210886D01*
X172392758Y-99139976D01*
X172553177Y-99091313D01*
X172720000Y-99074883D01*
X172886822Y-99091313D01*
G37*
G36*
X170346822Y-99091313D02*
G01*
X170507241Y-99139976D01*
X170655077Y-99218995D01*
X170784659Y-99325341D01*
X170891004Y-99454922D01*
X170891005Y-99454924D01*
X170970024Y-99602758D01*
X171018687Y-99763177D01*
X171031000Y-99888196D01*
X171031000Y-100771803D01*
X171018687Y-100896822D01*
X170970024Y-101057242D01*
X170969875Y-101057520D01*
X170891004Y-101205078D01*
X170784659Y-101334659D01*
X170655078Y-101441004D01*
X170655076Y-101441005D01*
X170507242Y-101520024D01*
X170346823Y-101568687D01*
X170180000Y-101585117D01*
X170013178Y-101568687D01*
X169852759Y-101520024D01*
X169704925Y-101441005D01*
X169704923Y-101441004D01*
X169575342Y-101334659D01*
X169468997Y-101205078D01*
X169390126Y-101057520D01*
X169389977Y-101057242D01*
X169341314Y-100896823D01*
X169329000Y-100771803D01*
X169329000Y-99888197D01*
X169341313Y-99763178D01*
X169389976Y-99602759D01*
X169468995Y-99454923D01*
X169575341Y-99325341D01*
X169704922Y-99218996D01*
X169720094Y-99210886D01*
X169852758Y-99139976D01*
X170013177Y-99091313D01*
X170180000Y-99074883D01*
X170346822Y-99091313D01*
G37*
G36*
X175426822Y-99091313D02*
G01*
X175587241Y-99139976D01*
X175735077Y-99218995D01*
X175864659Y-99325341D01*
X175971004Y-99454922D01*
X175971005Y-99454924D01*
X176050024Y-99602758D01*
X176098687Y-99763177D01*
X176111000Y-99888196D01*
X176111000Y-100771803D01*
X176098687Y-100896822D01*
X176050024Y-101057242D01*
X176049875Y-101057520D01*
X175971004Y-101205078D01*
X175864659Y-101334659D01*
X175735078Y-101441004D01*
X175735076Y-101441005D01*
X175587242Y-101520024D01*
X175426823Y-101568687D01*
X175260000Y-101585117D01*
X175093178Y-101568687D01*
X174932759Y-101520024D01*
X174784925Y-101441005D01*
X174784923Y-101441004D01*
X174655342Y-101334659D01*
X174548997Y-101205078D01*
X174470126Y-101057520D01*
X174469977Y-101057242D01*
X174421314Y-100896823D01*
X174409000Y-100771803D01*
X174409000Y-99888197D01*
X174421313Y-99763178D01*
X174469976Y-99602759D01*
X174548995Y-99454923D01*
X174655341Y-99325341D01*
X174784922Y-99218996D01*
X174800094Y-99210886D01*
X174932758Y-99139976D01*
X175093177Y-99091313D01*
X175260000Y-99074883D01*
X175426822Y-99091313D01*
G37*
G36*
X177966822Y-99091313D02*
G01*
X178127241Y-99139976D01*
X178275077Y-99218995D01*
X178404659Y-99325341D01*
X178511004Y-99454922D01*
X178511005Y-99454924D01*
X178590024Y-99602758D01*
X178638687Y-99763177D01*
X178651000Y-99888196D01*
X178651000Y-100771803D01*
X178638687Y-100896822D01*
X178590024Y-101057242D01*
X178589875Y-101057520D01*
X178511004Y-101205078D01*
X178404659Y-101334659D01*
X178275078Y-101441004D01*
X178275076Y-101441005D01*
X178127242Y-101520024D01*
X177966823Y-101568687D01*
X177800000Y-101585117D01*
X177633178Y-101568687D01*
X177472759Y-101520024D01*
X177324925Y-101441005D01*
X177324923Y-101441004D01*
X177195342Y-101334659D01*
X177088997Y-101205078D01*
X177010126Y-101057520D01*
X177009977Y-101057242D01*
X176961314Y-100896823D01*
X176949000Y-100771803D01*
X176949000Y-99888197D01*
X176961313Y-99763178D01*
X177009976Y-99602759D01*
X177088995Y-99454923D01*
X177195341Y-99325341D01*
X177324922Y-99218996D01*
X177340094Y-99210886D01*
X177472758Y-99139976D01*
X177633177Y-99091313D01*
X177800000Y-99074883D01*
X177966822Y-99091313D01*
G37*
G36*
X180506822Y-99091313D02*
G01*
X180667241Y-99139976D01*
X180815077Y-99218995D01*
X180944659Y-99325341D01*
X181051004Y-99454922D01*
X181051005Y-99454924D01*
X181130024Y-99602758D01*
X181178687Y-99763177D01*
X181191000Y-99888196D01*
X181191000Y-100771803D01*
X181178687Y-100896822D01*
X181130024Y-101057242D01*
X181129875Y-101057520D01*
X181051004Y-101205078D01*
X180944659Y-101334659D01*
X180815078Y-101441004D01*
X180815076Y-101441005D01*
X180667242Y-101520024D01*
X180506823Y-101568687D01*
X180340000Y-101585117D01*
X180173178Y-101568687D01*
X180012759Y-101520024D01*
X179864925Y-101441005D01*
X179864923Y-101441004D01*
X179735342Y-101334659D01*
X179628997Y-101205078D01*
X179550126Y-101057520D01*
X179549977Y-101057242D01*
X179501314Y-100896823D01*
X179489000Y-100771803D01*
X179489000Y-99888197D01*
X179501313Y-99763178D01*
X179549976Y-99602759D01*
X179628995Y-99454923D01*
X179735341Y-99325341D01*
X179864922Y-99218996D01*
X179880094Y-99210886D01*
X180012758Y-99139976D01*
X180173177Y-99091313D01*
X180340000Y-99074883D01*
X180506822Y-99091313D01*
G37*
G36*
X183046822Y-99091313D02*
G01*
X183207241Y-99139976D01*
X183355077Y-99218995D01*
X183484659Y-99325341D01*
X183591004Y-99454922D01*
X183591005Y-99454924D01*
X183670024Y-99602758D01*
X183718687Y-99763177D01*
X183731000Y-99888196D01*
X183731000Y-100771803D01*
X183718687Y-100896822D01*
X183670024Y-101057242D01*
X183669875Y-101057520D01*
X183591004Y-101205078D01*
X183484659Y-101334659D01*
X183355078Y-101441004D01*
X183355076Y-101441005D01*
X183207242Y-101520024D01*
X183046823Y-101568687D01*
X182880000Y-101585117D01*
X182713178Y-101568687D01*
X182552759Y-101520024D01*
X182404925Y-101441005D01*
X182404923Y-101441004D01*
X182275342Y-101334659D01*
X182168997Y-101205078D01*
X182090126Y-101057520D01*
X182089977Y-101057242D01*
X182041314Y-100896823D01*
X182029000Y-100771803D01*
X182029000Y-99888197D01*
X182041313Y-99763178D01*
X182089976Y-99602759D01*
X182168995Y-99454923D01*
X182275341Y-99325341D01*
X182404922Y-99218996D01*
X182420094Y-99210886D01*
X182552758Y-99139976D01*
X182713177Y-99091313D01*
X182880000Y-99074883D01*
X183046822Y-99091313D01*
G37*
G36*
X198286823Y-99091313D02*
G01*
X198447242Y-99139976D01*
X198579906Y-99210886D01*
X198595078Y-99218996D01*
X198724659Y-99325341D01*
X198831004Y-99454922D01*
X198831005Y-99454924D01*
X198910024Y-99602758D01*
X198958687Y-99763178D01*
X198971000Y-99888197D01*
X198971000Y-100771804D01*
X198958687Y-100896823D01*
X198910024Y-101057242D01*
X198909875Y-101057520D01*
X198831004Y-101205078D01*
X198724659Y-101334659D01*
X198595077Y-101441005D01*
X198447241Y-101520024D01*
X198286822Y-101568687D01*
X198120000Y-101585117D01*
X197953177Y-101568687D01*
X197792758Y-101520024D01*
X197644924Y-101441005D01*
X197644922Y-101441004D01*
X197515341Y-101334659D01*
X197408995Y-101205077D01*
X197329976Y-101057241D01*
X197281313Y-100896822D01*
X197269000Y-100771803D01*
X197269000Y-99888197D01*
X197281314Y-99763177D01*
X197329977Y-99602758D01*
X197408996Y-99454924D01*
X197408997Y-99454922D01*
X197515342Y-99325341D01*
X197644923Y-99218996D01*
X197660095Y-99210886D01*
X197792759Y-99139976D01*
X197953178Y-99091313D01*
X198120000Y-99074883D01*
X198286823Y-99091313D01*
G37*
G36*
X200826823Y-99091313D02*
G01*
X200987242Y-99139976D01*
X201119906Y-99210886D01*
X201135078Y-99218996D01*
X201264659Y-99325341D01*
X201371004Y-99454922D01*
X201371005Y-99454924D01*
X201450024Y-99602758D01*
X201498687Y-99763178D01*
X201511000Y-99888197D01*
X201511000Y-100771804D01*
X201498687Y-100896823D01*
X201450024Y-101057242D01*
X201449875Y-101057520D01*
X201371004Y-101205078D01*
X201264659Y-101334659D01*
X201135077Y-101441005D01*
X200987241Y-101520024D01*
X200826822Y-101568687D01*
X200660000Y-101585117D01*
X200493177Y-101568687D01*
X200332758Y-101520024D01*
X200184924Y-101441005D01*
X200184922Y-101441004D01*
X200055341Y-101334659D01*
X199948995Y-101205077D01*
X199869976Y-101057241D01*
X199821313Y-100896822D01*
X199809000Y-100771803D01*
X199809000Y-99888197D01*
X199821314Y-99763177D01*
X199869977Y-99602758D01*
X199948996Y-99454924D01*
X199948997Y-99454922D01*
X200055342Y-99325341D01*
X200184923Y-99218996D01*
X200200095Y-99210886D01*
X200332759Y-99139976D01*
X200493178Y-99091313D01*
X200660000Y-99074883D01*
X200826823Y-99091313D01*
G37*
G36*
X208446823Y-99091313D02*
G01*
X208607242Y-99139976D01*
X208739906Y-99210886D01*
X208755078Y-99218996D01*
X208884659Y-99325341D01*
X208991004Y-99454922D01*
X208991005Y-99454924D01*
X209070024Y-99602758D01*
X209118687Y-99763178D01*
X209131000Y-99888197D01*
X209131000Y-100771804D01*
X209118687Y-100896823D01*
X209070024Y-101057242D01*
X209069875Y-101057520D01*
X208991004Y-101205078D01*
X208884659Y-101334659D01*
X208755077Y-101441005D01*
X208607241Y-101520024D01*
X208446822Y-101568687D01*
X208280000Y-101585117D01*
X208113177Y-101568687D01*
X207952758Y-101520024D01*
X207804924Y-101441005D01*
X207804922Y-101441004D01*
X207675341Y-101334659D01*
X207568995Y-101205077D01*
X207489976Y-101057241D01*
X207441313Y-100896822D01*
X207429000Y-100771803D01*
X207429000Y-99888197D01*
X207441314Y-99763177D01*
X207489977Y-99602758D01*
X207568996Y-99454924D01*
X207568997Y-99454922D01*
X207675342Y-99325341D01*
X207804923Y-99218996D01*
X207820095Y-99210886D01*
X207952759Y-99139976D01*
X208113178Y-99091313D01*
X208280000Y-99074883D01*
X208446823Y-99091313D01*
G37*
G36*
X210986823Y-99091313D02*
G01*
X211147242Y-99139976D01*
X211279906Y-99210886D01*
X211295078Y-99218996D01*
X211424659Y-99325341D01*
X211531004Y-99454922D01*
X211531005Y-99454924D01*
X211610024Y-99602758D01*
X211658687Y-99763178D01*
X211671000Y-99888197D01*
X211671000Y-100771804D01*
X211658687Y-100896823D01*
X211610024Y-101057242D01*
X211609875Y-101057520D01*
X211531004Y-101205078D01*
X211424659Y-101334659D01*
X211295077Y-101441005D01*
X211147241Y-101520024D01*
X210986822Y-101568687D01*
X210820000Y-101585117D01*
X210653177Y-101568687D01*
X210492758Y-101520024D01*
X210344924Y-101441005D01*
X210344922Y-101441004D01*
X210215341Y-101334659D01*
X210108995Y-101205077D01*
X210029976Y-101057241D01*
X209981313Y-100896822D01*
X209969000Y-100771803D01*
X209969000Y-99888197D01*
X209981314Y-99763177D01*
X210029977Y-99602758D01*
X210108996Y-99454924D01*
X210108997Y-99454922D01*
X210215342Y-99325341D01*
X210344923Y-99218996D01*
X210360095Y-99210886D01*
X210492759Y-99139976D01*
X210653178Y-99091313D01*
X210820000Y-99074883D01*
X210986823Y-99091313D01*
G37*
G36*
X185586822Y-99091313D02*
G01*
X185747241Y-99139976D01*
X185895077Y-99218995D01*
X186024659Y-99325341D01*
X186131004Y-99454922D01*
X186131005Y-99454924D01*
X186210024Y-99602758D01*
X186258687Y-99763177D01*
X186271000Y-99888196D01*
X186271000Y-100771803D01*
X186258687Y-100896822D01*
X186210024Y-101057242D01*
X186209875Y-101057520D01*
X186131004Y-101205078D01*
X186024659Y-101334659D01*
X185895078Y-101441004D01*
X185895076Y-101441005D01*
X185747242Y-101520024D01*
X185586823Y-101568687D01*
X185420000Y-101585117D01*
X185253178Y-101568687D01*
X185092759Y-101520024D01*
X184944925Y-101441005D01*
X184944923Y-101441004D01*
X184815342Y-101334659D01*
X184708997Y-101205078D01*
X184630126Y-101057520D01*
X184629977Y-101057242D01*
X184581314Y-100896823D01*
X184569000Y-100771803D01*
X184569000Y-99888197D01*
X184581313Y-99763178D01*
X184629976Y-99602759D01*
X184708995Y-99454923D01*
X184815341Y-99325341D01*
X184944922Y-99218996D01*
X184960094Y-99210886D01*
X185092758Y-99139976D01*
X185253177Y-99091313D01*
X185420000Y-99074883D01*
X185586822Y-99091313D01*
G37*
G36*
X203366823Y-99091313D02*
G01*
X203527242Y-99139976D01*
X203659906Y-99210886D01*
X203675078Y-99218996D01*
X203804659Y-99325341D01*
X203911004Y-99454922D01*
X203911005Y-99454924D01*
X203990024Y-99602758D01*
X204038687Y-99763178D01*
X204051000Y-99888197D01*
X204051000Y-100771804D01*
X204038687Y-100896823D01*
X203990024Y-101057242D01*
X203989875Y-101057520D01*
X203911004Y-101205078D01*
X203804659Y-101334659D01*
X203675077Y-101441005D01*
X203527241Y-101520024D01*
X203366822Y-101568687D01*
X203200000Y-101585117D01*
X203033177Y-101568687D01*
X202872758Y-101520024D01*
X202724924Y-101441005D01*
X202724922Y-101441004D01*
X202595341Y-101334659D01*
X202488995Y-101205077D01*
X202409976Y-101057241D01*
X202361313Y-100896822D01*
X202349000Y-100771803D01*
X202349000Y-99888197D01*
X202361314Y-99763177D01*
X202409977Y-99602758D01*
X202488996Y-99454924D01*
X202488997Y-99454922D01*
X202595342Y-99325341D01*
X202724923Y-99218996D01*
X202740095Y-99210886D01*
X202872759Y-99139976D01*
X203033178Y-99091313D01*
X203200000Y-99074883D01*
X203366823Y-99091313D01*
G37*
G36*
X188126822Y-99091313D02*
G01*
X188287241Y-99139976D01*
X188435077Y-99218995D01*
X188564659Y-99325341D01*
X188671004Y-99454922D01*
X188671005Y-99454924D01*
X188750024Y-99602758D01*
X188798687Y-99763177D01*
X188811000Y-99888196D01*
X188811000Y-100771803D01*
X188798687Y-100896822D01*
X188750024Y-101057242D01*
X188749875Y-101057520D01*
X188671004Y-101205078D01*
X188564659Y-101334659D01*
X188435078Y-101441004D01*
X188435076Y-101441005D01*
X188287242Y-101520024D01*
X188126823Y-101568687D01*
X187960000Y-101585117D01*
X187793178Y-101568687D01*
X187632759Y-101520024D01*
X187484925Y-101441005D01*
X187484923Y-101441004D01*
X187355342Y-101334659D01*
X187248997Y-101205078D01*
X187170126Y-101057520D01*
X187169977Y-101057242D01*
X187121314Y-100896823D01*
X187109000Y-100771803D01*
X187109000Y-99888197D01*
X187121313Y-99763178D01*
X187169976Y-99602759D01*
X187248995Y-99454923D01*
X187355341Y-99325341D01*
X187484922Y-99218996D01*
X187500094Y-99210886D01*
X187632758Y-99139976D01*
X187793177Y-99091313D01*
X187960000Y-99074883D01*
X188126822Y-99091313D01*
G37*
G36*
X205906823Y-99091313D02*
G01*
X206067242Y-99139976D01*
X206199906Y-99210886D01*
X206215078Y-99218996D01*
X206344659Y-99325341D01*
X206451004Y-99454922D01*
X206451005Y-99454924D01*
X206530024Y-99602758D01*
X206578687Y-99763178D01*
X206591000Y-99888197D01*
X206591000Y-100771804D01*
X206578687Y-100896823D01*
X206530024Y-101057242D01*
X206529875Y-101057520D01*
X206451004Y-101205078D01*
X206344659Y-101334659D01*
X206215077Y-101441005D01*
X206067241Y-101520024D01*
X205906822Y-101568687D01*
X205740000Y-101585117D01*
X205573177Y-101568687D01*
X205412758Y-101520024D01*
X205264924Y-101441005D01*
X205264922Y-101441004D01*
X205135341Y-101334659D01*
X205028995Y-101205077D01*
X204949976Y-101057241D01*
X204901313Y-100896822D01*
X204889000Y-100771803D01*
X204889000Y-99888197D01*
X204901314Y-99763177D01*
X204949977Y-99602758D01*
X205028996Y-99454924D01*
X205028997Y-99454922D01*
X205135342Y-99325341D01*
X205264923Y-99218996D01*
X205280095Y-99210886D01*
X205412759Y-99139976D01*
X205573178Y-99091313D01*
X205740000Y-99074883D01*
X205906823Y-99091313D01*
G37*
G36*
X214211000Y-101581000D02*
G01*
X212509000Y-101581000D01*
X212509000Y-99079000D01*
X214211000Y-99079000D01*
X214211000Y-101581000D01*
G37*
G36*
X237771000Y-99976000D02*
G01*
X234669000Y-99976000D01*
X234669000Y-96874000D01*
X237771000Y-96874000D01*
X237771000Y-99976000D01*
G37*
G36*
X162206000Y-99976000D02*
G01*
X159104000Y-99976000D01*
X159104000Y-96874000D01*
X162206000Y-96874000D01*
X162206000Y-99976000D01*
G37*
G36*
X228848228Y-95701703D02*
G01*
X229003100Y-95765853D01*
X229142481Y-95858985D01*
X229261015Y-95977519D01*
X229354147Y-96116900D01*
X229418297Y-96271772D01*
X229451000Y-96436184D01*
X229451000Y-96603816D01*
X229418297Y-96768228D01*
X229354147Y-96923100D01*
X229261015Y-97062481D01*
X229142481Y-97181015D01*
X229003100Y-97274147D01*
X228848228Y-97338297D01*
X228683816Y-97371000D01*
X228516184Y-97371000D01*
X228351772Y-97338297D01*
X228196900Y-97274147D01*
X228057519Y-97181015D01*
X227938985Y-97062481D01*
X227845853Y-96923100D01*
X227781703Y-96768228D01*
X227749000Y-96603816D01*
X227749000Y-96436184D01*
X227781703Y-96271772D01*
X227845853Y-96116900D01*
X227938985Y-95977519D01*
X228057519Y-95858985D01*
X228196900Y-95765853D01*
X228351772Y-95701703D01*
X228516184Y-95669000D01*
X228683816Y-95669000D01*
X228848228Y-95701703D01*
G37*
G36*
X221831000Y-97371000D02*
G01*
X220129000Y-97371000D01*
X220129000Y-95669000D01*
X221831000Y-95669000D01*
X221831000Y-97371000D01*
G37*
G36*
X177086000Y-96536000D02*
G01*
X175784000Y-96536000D01*
X175784000Y-95234000D01*
X177086000Y-95234000D01*
X177086000Y-96536000D01*
G37*
G36*
X178624890Y-95259017D02*
G01*
X178665927Y-95276015D01*
X178743364Y-95308091D01*
X178834741Y-95369147D01*
X178849988Y-95379335D01*
X178940665Y-95470012D01*
X179011910Y-95576638D01*
X179060983Y-95695110D01*
X179086000Y-95820881D01*
X179086000Y-95949119D01*
X179060983Y-96074890D01*
X179043581Y-96116903D01*
X179011909Y-96193364D01*
X178940665Y-96299988D01*
X178849988Y-96390665D01*
X178743364Y-96461909D01*
X178743363Y-96461910D01*
X178743362Y-96461910D01*
X178624890Y-96510983D01*
X178499119Y-96536000D01*
X178370881Y-96536000D01*
X178245110Y-96510983D01*
X178126638Y-96461910D01*
X178126637Y-96461910D01*
X178126636Y-96461909D01*
X178020012Y-96390665D01*
X177929335Y-96299988D01*
X177858091Y-96193364D01*
X177826420Y-96116903D01*
X177809017Y-96074890D01*
X177784000Y-95949119D01*
X177784000Y-95820881D01*
X177809017Y-95695110D01*
X177858090Y-95576638D01*
X177929335Y-95470012D01*
X178020012Y-95379335D01*
X178035259Y-95369147D01*
X178126636Y-95308091D01*
X178204074Y-95276015D01*
X178245110Y-95259017D01*
X178370881Y-95234000D01*
X178499119Y-95234000D01*
X178624890Y-95259017D01*
G37*
G36*
X202773228Y-93796703D02*
G01*
X202928100Y-93860853D01*
X203067481Y-93953985D01*
X203186015Y-94072519D01*
X203279147Y-94211900D01*
X203343297Y-94366772D01*
X203376000Y-94531184D01*
X203376000Y-94698816D01*
X203343297Y-94863228D01*
X203279147Y-95018100D01*
X203186015Y-95157481D01*
X203067481Y-95276015D01*
X202928100Y-95369147D01*
X202773228Y-95433297D01*
X202608816Y-95466000D01*
X202441184Y-95466000D01*
X202276772Y-95433297D01*
X202121900Y-95369147D01*
X201982519Y-95276015D01*
X201863985Y-95157481D01*
X201770853Y-95018100D01*
X201706703Y-94863228D01*
X201674000Y-94698816D01*
X201674000Y-94531184D01*
X201706703Y-94366772D01*
X201770853Y-94211900D01*
X201863985Y-94072519D01*
X201982519Y-93953985D01*
X202121900Y-93860853D01*
X202276772Y-93796703D01*
X202441184Y-93764000D01*
X202608816Y-93764000D01*
X202773228Y-93796703D01*
G37*
G36*
X200876000Y-95466000D02*
G01*
X199174000Y-95466000D01*
X199174000Y-93764000D01*
X200876000Y-93764000D01*
X200876000Y-95466000D01*
G37*
G36*
X160957585Y-91823802D02*
G01*
X161107410Y-91853604D01*
X161389674Y-91970521D01*
X161643705Y-92140259D01*
X161859741Y-92356295D01*
X162029479Y-92610326D01*
X162112050Y-92809672D01*
X162146396Y-92892591D01*
X162206000Y-93192239D01*
X162206000Y-93497761D01*
X162180492Y-93626000D01*
X162146396Y-93797410D01*
X162029479Y-94079674D01*
X161859741Y-94333705D01*
X161643705Y-94549741D01*
X161389674Y-94719479D01*
X161107410Y-94836396D01*
X160972516Y-94863228D01*
X160807761Y-94896000D01*
X160502239Y-94896000D01*
X160337484Y-94863228D01*
X160202590Y-94836396D01*
X159920326Y-94719479D01*
X159666295Y-94549741D01*
X159450259Y-94333705D01*
X159280521Y-94079674D01*
X159163604Y-93797410D01*
X159129508Y-93626000D01*
X159104000Y-93497761D01*
X159104000Y-93192239D01*
X159163604Y-92892591D01*
X159197950Y-92809672D01*
X159280521Y-92610326D01*
X159450259Y-92356295D01*
X159666295Y-92140259D01*
X159920326Y-91970521D01*
X160202590Y-91853604D01*
X160352415Y-91823802D01*
X160502239Y-91794000D01*
X160807761Y-91794000D01*
X160957585Y-91823802D01*
G37*
G36*
X209566000Y-94631000D02*
G01*
X208264000Y-94631000D01*
X208264000Y-93329000D01*
X209566000Y-93329000D01*
X209566000Y-94631000D01*
G37*
G36*
X211104890Y-93354017D02*
G01*
X211223364Y-93403091D01*
X211292788Y-93449479D01*
X211329988Y-93474335D01*
X211420665Y-93565012D01*
X211491910Y-93671638D01*
X211540983Y-93790110D01*
X211566000Y-93915881D01*
X211566000Y-94044119D01*
X211540983Y-94169890D01*
X211523581Y-94211903D01*
X211491909Y-94288364D01*
X211420665Y-94394988D01*
X211329988Y-94485665D01*
X211223364Y-94556909D01*
X211223363Y-94556910D01*
X211223362Y-94556910D01*
X211104890Y-94605983D01*
X210979119Y-94631000D01*
X210850881Y-94631000D01*
X210725110Y-94605983D01*
X210606638Y-94556910D01*
X210606637Y-94556910D01*
X210606636Y-94556909D01*
X210500012Y-94485665D01*
X210409335Y-94394988D01*
X210338091Y-94288364D01*
X210306420Y-94211903D01*
X210289017Y-94169890D01*
X210264000Y-94044119D01*
X210264000Y-93915881D01*
X210289017Y-93790110D01*
X210338090Y-93671638D01*
X210409335Y-93565012D01*
X210500012Y-93474335D01*
X210537212Y-93449479D01*
X210606636Y-93403091D01*
X210725110Y-93354017D01*
X210850881Y-93329000D01*
X210979119Y-93329000D01*
X211104890Y-93354017D01*
G37*
G36*
X236522585Y-90553802D02*
G01*
X236672410Y-90583604D01*
X236954674Y-90700521D01*
X237208705Y-90870259D01*
X237424741Y-91086295D01*
X237594479Y-91340326D01*
X237711396Y-91622590D01*
X237711396Y-91622591D01*
X237757348Y-91853604D01*
X237771000Y-91922240D01*
X237771000Y-92227760D01*
X237711396Y-92527410D01*
X237594479Y-92809674D01*
X237424741Y-93063705D01*
X237208705Y-93279741D01*
X236954674Y-93449479D01*
X236672410Y-93566396D01*
X236522585Y-93596198D01*
X236372761Y-93626000D01*
X236067239Y-93626000D01*
X235917415Y-93596198D01*
X235767590Y-93566396D01*
X235485326Y-93449479D01*
X235231295Y-93279741D01*
X235015259Y-93063705D01*
X234845521Y-92809674D01*
X234728604Y-92527410D01*
X234669000Y-92227760D01*
X234669000Y-91922240D01*
X234682653Y-91853604D01*
X234728604Y-91622591D01*
X234728604Y-91622590D01*
X234845521Y-91340326D01*
X235015259Y-91086295D01*
X235231295Y-90870259D01*
X235485326Y-90700521D01*
X235767590Y-90583604D01*
X235917415Y-90553802D01*
X236067239Y-90524000D01*
X236372761Y-90524000D01*
X236522585Y-90553802D01*
G37*
G36*
X221228228Y-90621703D02*
G01*
X221383100Y-90685853D01*
X221522481Y-90778985D01*
X221641015Y-90897519D01*
X221734147Y-91036900D01*
X221798297Y-91191772D01*
X221831000Y-91356184D01*
X221831000Y-91523816D01*
X221798297Y-91688228D01*
X221734147Y-91843100D01*
X221641015Y-91982481D01*
X221522481Y-92101015D01*
X221383100Y-92194147D01*
X221228228Y-92258297D01*
X221063816Y-92291000D01*
X220896184Y-92291000D01*
X220731772Y-92258297D01*
X220576900Y-92194147D01*
X220437519Y-92101015D01*
X220318985Y-91982481D01*
X220225853Y-91843100D01*
X220161703Y-91688228D01*
X220129000Y-91523816D01*
X220129000Y-91356184D01*
X220161703Y-91191772D01*
X220225853Y-91036900D01*
X220318985Y-90897519D01*
X220437519Y-90778985D01*
X220576900Y-90685853D01*
X220731772Y-90621703D01*
X220896184Y-90589000D01*
X221063816Y-90589000D01*
X221228228Y-90621703D01*
G37*
G36*
X228848228Y-90621703D02*
G01*
X229003100Y-90685853D01*
X229142481Y-90778985D01*
X229261015Y-90897519D01*
X229354147Y-91036900D01*
X229418297Y-91191772D01*
X229451000Y-91356184D01*
X229451000Y-91523816D01*
X229418297Y-91688228D01*
X229354147Y-91843100D01*
X229261015Y-91982481D01*
X229142481Y-92101015D01*
X229003100Y-92194147D01*
X228848228Y-92258297D01*
X228683816Y-92291000D01*
X228516184Y-92291000D01*
X228351772Y-92258297D01*
X228196900Y-92194147D01*
X228057519Y-92101015D01*
X227938985Y-91982481D01*
X227845853Y-91843100D01*
X227781703Y-91688228D01*
X227749000Y-91523816D01*
X227749000Y-91356184D01*
X227781703Y-91191772D01*
X227845853Y-91036900D01*
X227938985Y-90897519D01*
X228057519Y-90778985D01*
X228196900Y-90685853D01*
X228351772Y-90621703D01*
X228516184Y-90589000D01*
X228683816Y-90589000D01*
X228848228Y-90621703D01*
G37*
G36*
X183046822Y-86391313D02*
G01*
X183207241Y-86439976D01*
X183355077Y-86518995D01*
X183463807Y-86608228D01*
X183484659Y-86625341D01*
X183591004Y-86754922D01*
X183591005Y-86754924D01*
X183670024Y-86902758D01*
X183718687Y-87063177D01*
X183731000Y-87188196D01*
X183731000Y-88071803D01*
X183718687Y-88196822D01*
X183670024Y-88357242D01*
X183663483Y-88369479D01*
X183591004Y-88505078D01*
X183484659Y-88634659D01*
X183355078Y-88741004D01*
X183355076Y-88741005D01*
X183207242Y-88820024D01*
X183046823Y-88868687D01*
X182880000Y-88885117D01*
X182713178Y-88868687D01*
X182552759Y-88820024D01*
X182404925Y-88741005D01*
X182404923Y-88741004D01*
X182275342Y-88634659D01*
X182168997Y-88505078D01*
X182096518Y-88369479D01*
X182089977Y-88357242D01*
X182041314Y-88196823D01*
X182029000Y-88071803D01*
X182029000Y-87188197D01*
X182041313Y-87063178D01*
X182089976Y-86902759D01*
X182168995Y-86754923D01*
X182275341Y-86625341D01*
X182376173Y-86542590D01*
X182404922Y-86518996D01*
X182420094Y-86510886D01*
X182552758Y-86439976D01*
X182713177Y-86391313D01*
X182880000Y-86374883D01*
X183046822Y-86391313D01*
G37*
G36*
X175426822Y-86391313D02*
G01*
X175587241Y-86439976D01*
X175735077Y-86518995D01*
X175843807Y-86608228D01*
X175864659Y-86625341D01*
X175971004Y-86754922D01*
X175971005Y-86754924D01*
X176050024Y-86902758D01*
X176098687Y-87063177D01*
X176111000Y-87188196D01*
X176111000Y-88071803D01*
X176098687Y-88196822D01*
X176050024Y-88357242D01*
X176043483Y-88369479D01*
X175971004Y-88505078D01*
X175864659Y-88634659D01*
X175735078Y-88741004D01*
X175735076Y-88741005D01*
X175587242Y-88820024D01*
X175426823Y-88868687D01*
X175260000Y-88885117D01*
X175093178Y-88868687D01*
X174932759Y-88820024D01*
X174784925Y-88741005D01*
X174784923Y-88741004D01*
X174655342Y-88634659D01*
X174548997Y-88505078D01*
X174476518Y-88369479D01*
X174469977Y-88357242D01*
X174421314Y-88196823D01*
X174409000Y-88071803D01*
X174409000Y-87188197D01*
X174421313Y-87063178D01*
X174469976Y-86902759D01*
X174548995Y-86754923D01*
X174655341Y-86625341D01*
X174756173Y-86542590D01*
X174784922Y-86518996D01*
X174800094Y-86510886D01*
X174932758Y-86439976D01*
X175093177Y-86391313D01*
X175260000Y-86374883D01*
X175426822Y-86391313D01*
G37*
G36*
X177966822Y-86391313D02*
G01*
X178127241Y-86439976D01*
X178275077Y-86518995D01*
X178383807Y-86608228D01*
X178404659Y-86625341D01*
X178511004Y-86754922D01*
X178511005Y-86754924D01*
X178590024Y-86902758D01*
X178638687Y-87063177D01*
X178651000Y-87188196D01*
X178651000Y-88071803D01*
X178638687Y-88196822D01*
X178590024Y-88357242D01*
X178583483Y-88369479D01*
X178511004Y-88505078D01*
X178404659Y-88634659D01*
X178275078Y-88741004D01*
X178275076Y-88741005D01*
X178127242Y-88820024D01*
X177966823Y-88868687D01*
X177800000Y-88885117D01*
X177633178Y-88868687D01*
X177472759Y-88820024D01*
X177324925Y-88741005D01*
X177324923Y-88741004D01*
X177195342Y-88634659D01*
X177088997Y-88505078D01*
X177016518Y-88369479D01*
X177009977Y-88357242D01*
X176961314Y-88196823D01*
X176949000Y-88071803D01*
X176949000Y-87188197D01*
X176961313Y-87063178D01*
X177009976Y-86902759D01*
X177088995Y-86754923D01*
X177195341Y-86625341D01*
X177296173Y-86542590D01*
X177324922Y-86518996D01*
X177340094Y-86510886D01*
X177472758Y-86439976D01*
X177633177Y-86391313D01*
X177800000Y-86374883D01*
X177966822Y-86391313D01*
G37*
G36*
X180506822Y-86391313D02*
G01*
X180667241Y-86439976D01*
X180815077Y-86518995D01*
X180923807Y-86608228D01*
X180944659Y-86625341D01*
X181051004Y-86754922D01*
X181051005Y-86754924D01*
X181130024Y-86902758D01*
X181178687Y-87063177D01*
X181191000Y-87188196D01*
X181191000Y-88071803D01*
X181178687Y-88196822D01*
X181130024Y-88357242D01*
X181123483Y-88369479D01*
X181051004Y-88505078D01*
X180944659Y-88634659D01*
X180815078Y-88741004D01*
X180815076Y-88741005D01*
X180667242Y-88820024D01*
X180506823Y-88868687D01*
X180340000Y-88885117D01*
X180173178Y-88868687D01*
X180012759Y-88820024D01*
X179864925Y-88741005D01*
X179864923Y-88741004D01*
X179735342Y-88634659D01*
X179628997Y-88505078D01*
X179556518Y-88369479D01*
X179549977Y-88357242D01*
X179501314Y-88196823D01*
X179489000Y-88071803D01*
X179489000Y-87188197D01*
X179501313Y-87063178D01*
X179549976Y-86902759D01*
X179628995Y-86754923D01*
X179735341Y-86625341D01*
X179836173Y-86542590D01*
X179864922Y-86518996D01*
X179880094Y-86510886D01*
X180012758Y-86439976D01*
X180173177Y-86391313D01*
X180340000Y-86374883D01*
X180506822Y-86391313D01*
G37*
G36*
X172886822Y-86391313D02*
G01*
X173047241Y-86439976D01*
X173195077Y-86518995D01*
X173303807Y-86608228D01*
X173324659Y-86625341D01*
X173431004Y-86754922D01*
X173431005Y-86754924D01*
X173510024Y-86902758D01*
X173558687Y-87063177D01*
X173571000Y-87188196D01*
X173571000Y-88071803D01*
X173558687Y-88196822D01*
X173510024Y-88357242D01*
X173503483Y-88369479D01*
X173431004Y-88505078D01*
X173324659Y-88634659D01*
X173195078Y-88741004D01*
X173195076Y-88741005D01*
X173047242Y-88820024D01*
X172886823Y-88868687D01*
X172720000Y-88885117D01*
X172553178Y-88868687D01*
X172392759Y-88820024D01*
X172244925Y-88741005D01*
X172244923Y-88741004D01*
X172115342Y-88634659D01*
X172008997Y-88505078D01*
X171936518Y-88369479D01*
X171929977Y-88357242D01*
X171881314Y-88196823D01*
X171869000Y-88071803D01*
X171869000Y-87188197D01*
X171881313Y-87063178D01*
X171929976Y-86902759D01*
X172008995Y-86754923D01*
X172115341Y-86625341D01*
X172216173Y-86542590D01*
X172244922Y-86518996D01*
X172260094Y-86510886D01*
X172392758Y-86439976D01*
X172553177Y-86391313D01*
X172720000Y-86374883D01*
X172886822Y-86391313D01*
G37*
G36*
X185586822Y-86391313D02*
G01*
X185747241Y-86439976D01*
X185895077Y-86518995D01*
X186003807Y-86608228D01*
X186024659Y-86625341D01*
X186131004Y-86754922D01*
X186131005Y-86754924D01*
X186210024Y-86902758D01*
X186258687Y-87063177D01*
X186271000Y-87188196D01*
X186271000Y-88071803D01*
X186258687Y-88196822D01*
X186210024Y-88357242D01*
X186203483Y-88369479D01*
X186131004Y-88505078D01*
X186024659Y-88634659D01*
X185895078Y-88741004D01*
X185895076Y-88741005D01*
X185747242Y-88820024D01*
X185586823Y-88868687D01*
X185420000Y-88885117D01*
X185253178Y-88868687D01*
X185092759Y-88820024D01*
X184944925Y-88741005D01*
X184944923Y-88741004D01*
X184815342Y-88634659D01*
X184708997Y-88505078D01*
X184636518Y-88369479D01*
X184629977Y-88357242D01*
X184581314Y-88196823D01*
X184569000Y-88071803D01*
X184569000Y-87188197D01*
X184581313Y-87063178D01*
X184629976Y-86902759D01*
X184708995Y-86754923D01*
X184815341Y-86625341D01*
X184916173Y-86542590D01*
X184944922Y-86518996D01*
X184960094Y-86510886D01*
X185092758Y-86439976D01*
X185253177Y-86391313D01*
X185420000Y-86374883D01*
X185586822Y-86391313D01*
G37*
G36*
X188126822Y-86391313D02*
G01*
X188287241Y-86439976D01*
X188435077Y-86518995D01*
X188543807Y-86608228D01*
X188564659Y-86625341D01*
X188671004Y-86754922D01*
X188671005Y-86754924D01*
X188750024Y-86902758D01*
X188798687Y-87063177D01*
X188811000Y-87188196D01*
X188811000Y-88071803D01*
X188798687Y-88196822D01*
X188750024Y-88357242D01*
X188743483Y-88369479D01*
X188671004Y-88505078D01*
X188564659Y-88634659D01*
X188435078Y-88741004D01*
X188435076Y-88741005D01*
X188287242Y-88820024D01*
X188126823Y-88868687D01*
X187960000Y-88885117D01*
X187793178Y-88868687D01*
X187632759Y-88820024D01*
X187484925Y-88741005D01*
X187484923Y-88741004D01*
X187355342Y-88634659D01*
X187248997Y-88505078D01*
X187176518Y-88369479D01*
X187169977Y-88357242D01*
X187121314Y-88196823D01*
X187109000Y-88071803D01*
X187109000Y-87188197D01*
X187121313Y-87063178D01*
X187169976Y-86902759D01*
X187248995Y-86754923D01*
X187355341Y-86625341D01*
X187456173Y-86542590D01*
X187484922Y-86518996D01*
X187500094Y-86510886D01*
X187632758Y-86439976D01*
X187793177Y-86391313D01*
X187960000Y-86374883D01*
X188126822Y-86391313D01*
G37*
G36*
X208446823Y-86391313D02*
G01*
X208607242Y-86439976D01*
X208739906Y-86510886D01*
X208755078Y-86518996D01*
X208884659Y-86625341D01*
X208991004Y-86754922D01*
X208991005Y-86754924D01*
X209070024Y-86902758D01*
X209118687Y-87063178D01*
X209131000Y-87188197D01*
X209131000Y-88071804D01*
X209118687Y-88196823D01*
X209070024Y-88357242D01*
X209063483Y-88369479D01*
X208991004Y-88505078D01*
X208957420Y-88546000D01*
X208884659Y-88634659D01*
X208755077Y-88741005D01*
X208607241Y-88820024D01*
X208446822Y-88868687D01*
X208280000Y-88885117D01*
X208113177Y-88868687D01*
X207952758Y-88820024D01*
X207804924Y-88741005D01*
X207804922Y-88741004D01*
X207675341Y-88634659D01*
X207568995Y-88505077D01*
X207489976Y-88357241D01*
X207441313Y-88196822D01*
X207429000Y-88071803D01*
X207429000Y-87188197D01*
X207441314Y-87063177D01*
X207489977Y-86902758D01*
X207568996Y-86754924D01*
X207568997Y-86754922D01*
X207675342Y-86625341D01*
X207804923Y-86518996D01*
X207820095Y-86510886D01*
X207952759Y-86439976D01*
X208113178Y-86391313D01*
X208280000Y-86374883D01*
X208446823Y-86391313D01*
G37*
G36*
X203366823Y-86391313D02*
G01*
X203527242Y-86439976D01*
X203659906Y-86510886D01*
X203675078Y-86518996D01*
X203804659Y-86625341D01*
X203911004Y-86754922D01*
X203911005Y-86754924D01*
X203990024Y-86902758D01*
X204038687Y-87063178D01*
X204051000Y-87188197D01*
X204051000Y-88071804D01*
X204038687Y-88196823D01*
X203990024Y-88357242D01*
X203983483Y-88369479D01*
X203911004Y-88505078D01*
X203877420Y-88546000D01*
X203804659Y-88634659D01*
X203675077Y-88741005D01*
X203527241Y-88820024D01*
X203366822Y-88868687D01*
X203200000Y-88885117D01*
X203033177Y-88868687D01*
X202872758Y-88820024D01*
X202724924Y-88741005D01*
X202724922Y-88741004D01*
X202595341Y-88634659D01*
X202488995Y-88505077D01*
X202409976Y-88357241D01*
X202361313Y-88196822D01*
X202349000Y-88071803D01*
X202349000Y-87188197D01*
X202361314Y-87063177D01*
X202409977Y-86902758D01*
X202488996Y-86754924D01*
X202488997Y-86754922D01*
X202595342Y-86625341D01*
X202724923Y-86518996D01*
X202740095Y-86510886D01*
X202872759Y-86439976D01*
X203033178Y-86391313D01*
X203200000Y-86374883D01*
X203366823Y-86391313D01*
G37*
G36*
X205906823Y-86391313D02*
G01*
X206067242Y-86439976D01*
X206199906Y-86510886D01*
X206215078Y-86518996D01*
X206344659Y-86625341D01*
X206451004Y-86754922D01*
X206451005Y-86754924D01*
X206530024Y-86902758D01*
X206578687Y-87063178D01*
X206591000Y-87188197D01*
X206591000Y-88071804D01*
X206578687Y-88196823D01*
X206530024Y-88357242D01*
X206523483Y-88369479D01*
X206451004Y-88505078D01*
X206417420Y-88546000D01*
X206344659Y-88634659D01*
X206215077Y-88741005D01*
X206067241Y-88820024D01*
X205906822Y-88868687D01*
X205740000Y-88885117D01*
X205573177Y-88868687D01*
X205412758Y-88820024D01*
X205264924Y-88741005D01*
X205264922Y-88741004D01*
X205135341Y-88634659D01*
X205028995Y-88505077D01*
X204949976Y-88357241D01*
X204901313Y-88196822D01*
X204889000Y-88071803D01*
X204889000Y-87188197D01*
X204901314Y-87063177D01*
X204949977Y-86902758D01*
X205028996Y-86754924D01*
X205028997Y-86754922D01*
X205135342Y-86625341D01*
X205264923Y-86518996D01*
X205280095Y-86510886D01*
X205412759Y-86439976D01*
X205573178Y-86391313D01*
X205740000Y-86374883D01*
X205906823Y-86391313D01*
G37*
G36*
X200826823Y-86391313D02*
G01*
X200987242Y-86439976D01*
X201119906Y-86510886D01*
X201135078Y-86518996D01*
X201264659Y-86625341D01*
X201371004Y-86754922D01*
X201371005Y-86754924D01*
X201450024Y-86902758D01*
X201498687Y-87063178D01*
X201511000Y-87188197D01*
X201511000Y-88071804D01*
X201498687Y-88196823D01*
X201450024Y-88357242D01*
X201443483Y-88369479D01*
X201371004Y-88505078D01*
X201337420Y-88546000D01*
X201264659Y-88634659D01*
X201135077Y-88741005D01*
X200987241Y-88820024D01*
X200826822Y-88868687D01*
X200660000Y-88885117D01*
X200493177Y-88868687D01*
X200332758Y-88820024D01*
X200184924Y-88741005D01*
X200184922Y-88741004D01*
X200055341Y-88634659D01*
X199948995Y-88505077D01*
X199869976Y-88357241D01*
X199821313Y-88196822D01*
X199809000Y-88071803D01*
X199809000Y-87188197D01*
X199821314Y-87063177D01*
X199869977Y-86902758D01*
X199948996Y-86754924D01*
X199948997Y-86754922D01*
X200055342Y-86625341D01*
X200184923Y-86518996D01*
X200200095Y-86510886D01*
X200332759Y-86439976D01*
X200493178Y-86391313D01*
X200660000Y-86374883D01*
X200826823Y-86391313D01*
G37*
G36*
X210986823Y-86391313D02*
G01*
X211147242Y-86439976D01*
X211279906Y-86510886D01*
X211295078Y-86518996D01*
X211424659Y-86625341D01*
X211531004Y-86754922D01*
X211531005Y-86754924D01*
X211610024Y-86902758D01*
X211658687Y-87063178D01*
X211671000Y-87188197D01*
X211671000Y-88071804D01*
X211658687Y-88196823D01*
X211610024Y-88357242D01*
X211603483Y-88369479D01*
X211531004Y-88505078D01*
X211497420Y-88546000D01*
X211424659Y-88634659D01*
X211295077Y-88741005D01*
X211147241Y-88820024D01*
X210986822Y-88868687D01*
X210820000Y-88885117D01*
X210653177Y-88868687D01*
X210492758Y-88820024D01*
X210344924Y-88741005D01*
X210344922Y-88741004D01*
X210215341Y-88634659D01*
X210108995Y-88505077D01*
X210029976Y-88357241D01*
X209981313Y-88196822D01*
X209969000Y-88071803D01*
X209969000Y-87188197D01*
X209981314Y-87063177D01*
X210029977Y-86902758D01*
X210108996Y-86754924D01*
X210108997Y-86754922D01*
X210215342Y-86625341D01*
X210344923Y-86518996D01*
X210360095Y-86510886D01*
X210492759Y-86439976D01*
X210653178Y-86391313D01*
X210820000Y-86374883D01*
X210986823Y-86391313D01*
G37*
G36*
X195746823Y-86391313D02*
G01*
X195907242Y-86439976D01*
X196039906Y-86510886D01*
X196055078Y-86518996D01*
X196184659Y-86625341D01*
X196291004Y-86754922D01*
X196291005Y-86754924D01*
X196370024Y-86902758D01*
X196418687Y-87063178D01*
X196431000Y-87188197D01*
X196431000Y-88071804D01*
X196418687Y-88196823D01*
X196370024Y-88357242D01*
X196363483Y-88369479D01*
X196291004Y-88505078D01*
X196257420Y-88546000D01*
X196184659Y-88634659D01*
X196055077Y-88741005D01*
X195907241Y-88820024D01*
X195746822Y-88868687D01*
X195580000Y-88885117D01*
X195413177Y-88868687D01*
X195252758Y-88820024D01*
X195104924Y-88741005D01*
X195104922Y-88741004D01*
X194975341Y-88634659D01*
X194868995Y-88505077D01*
X194789976Y-88357241D01*
X194741313Y-88196822D01*
X194729000Y-88071803D01*
X194729000Y-87188197D01*
X194741314Y-87063177D01*
X194789977Y-86902758D01*
X194868996Y-86754924D01*
X194868997Y-86754922D01*
X194975342Y-86625341D01*
X195104923Y-86518996D01*
X195120095Y-86510886D01*
X195252759Y-86439976D01*
X195413178Y-86391313D01*
X195580000Y-86374883D01*
X195746823Y-86391313D01*
G37*
G36*
X198286823Y-86391313D02*
G01*
X198447242Y-86439976D01*
X198579906Y-86510886D01*
X198595078Y-86518996D01*
X198724659Y-86625341D01*
X198831004Y-86754922D01*
X198831005Y-86754924D01*
X198910024Y-86902758D01*
X198958687Y-87063178D01*
X198971000Y-87188197D01*
X198971000Y-88071804D01*
X198958687Y-88196823D01*
X198910024Y-88357242D01*
X198903483Y-88369479D01*
X198831004Y-88505078D01*
X198797420Y-88546000D01*
X198724659Y-88634659D01*
X198595077Y-88741005D01*
X198447241Y-88820024D01*
X198286822Y-88868687D01*
X198120000Y-88885117D01*
X197953177Y-88868687D01*
X197792758Y-88820024D01*
X197644924Y-88741005D01*
X197644922Y-88741004D01*
X197515341Y-88634659D01*
X197408995Y-88505077D01*
X197329976Y-88357241D01*
X197281313Y-88196822D01*
X197269000Y-88071803D01*
X197269000Y-87188197D01*
X197281314Y-87063177D01*
X197329977Y-86902758D01*
X197408996Y-86754924D01*
X197408997Y-86754922D01*
X197515342Y-86625341D01*
X197644923Y-86518996D01*
X197660095Y-86510886D01*
X197792759Y-86439976D01*
X197953178Y-86391313D01*
X198120000Y-86374883D01*
X198286823Y-86391313D01*
G37*
G36*
X213526823Y-86391313D02*
G01*
X213687242Y-86439976D01*
X213819906Y-86510886D01*
X213835078Y-86518996D01*
X213964659Y-86625341D01*
X214071004Y-86754922D01*
X214071005Y-86754924D01*
X214150024Y-86902758D01*
X214198687Y-87063178D01*
X214211000Y-87188197D01*
X214211000Y-88071804D01*
X214198687Y-88196823D01*
X214150024Y-88357242D01*
X214143483Y-88369479D01*
X214071004Y-88505078D01*
X214037420Y-88546000D01*
X213964659Y-88634659D01*
X213835077Y-88741005D01*
X213687241Y-88820024D01*
X213526822Y-88868687D01*
X213360000Y-88885117D01*
X213193177Y-88868687D01*
X213032758Y-88820024D01*
X212884924Y-88741005D01*
X212884922Y-88741004D01*
X212755341Y-88634659D01*
X212648995Y-88505077D01*
X212569976Y-88357241D01*
X212521313Y-88196822D01*
X212509000Y-88071803D01*
X212509000Y-87188197D01*
X212521314Y-87063177D01*
X212569977Y-86902758D01*
X212648996Y-86754924D01*
X212648997Y-86754922D01*
X212755342Y-86625341D01*
X212884923Y-86518996D01*
X212900095Y-86510886D01*
X213032759Y-86439976D01*
X213193178Y-86391313D01*
X213360000Y-86374883D01*
X213526823Y-86391313D01*
G37*
G36*
X171031000Y-88881000D02*
G01*
X169329000Y-88881000D01*
X169329000Y-86379000D01*
X171031000Y-86379000D01*
X171031000Y-88881000D01*
G37*
G36*
X236522585Y-85473802D02*
G01*
X236672410Y-85503604D01*
X236954674Y-85620521D01*
X237208705Y-85790259D01*
X237424741Y-86006295D01*
X237594479Y-86260326D01*
X237711396Y-86542590D01*
X237771000Y-86842240D01*
X237771000Y-87147760D01*
X237711396Y-87447410D01*
X237594479Y-87729674D01*
X237424741Y-87983705D01*
X237208705Y-88199741D01*
X236954674Y-88369479D01*
X236672410Y-88486396D01*
X236578499Y-88505076D01*
X236372761Y-88546000D01*
X236067239Y-88546000D01*
X235861501Y-88505076D01*
X235767590Y-88486396D01*
X235485326Y-88369479D01*
X235231295Y-88199741D01*
X235015259Y-87983705D01*
X234845521Y-87729674D01*
X234728604Y-87447410D01*
X234669000Y-87147760D01*
X234669000Y-86842240D01*
X234728604Y-86542590D01*
X234845521Y-86260326D01*
X235015259Y-86006295D01*
X235231295Y-85790259D01*
X235485326Y-85620521D01*
X235767590Y-85503604D01*
X235917415Y-85473802D01*
X236067239Y-85444000D01*
X236372761Y-85444000D01*
X236522585Y-85473802D01*
G37*
G36*
X228848228Y-85541703D02*
G01*
X229003100Y-85605853D01*
X229142481Y-85698985D01*
X229261015Y-85817519D01*
X229354147Y-85956900D01*
X229418297Y-86111772D01*
X229451000Y-86276184D01*
X229451000Y-86443816D01*
X229418297Y-86608228D01*
X229354147Y-86763100D01*
X229261015Y-86902481D01*
X229142481Y-87021015D01*
X229003100Y-87114147D01*
X228848228Y-87178297D01*
X228683816Y-87211000D01*
X228516184Y-87211000D01*
X228351772Y-87178297D01*
X228196900Y-87114147D01*
X228057519Y-87021015D01*
X227938985Y-86902481D01*
X227845853Y-86763100D01*
X227781703Y-86608228D01*
X227749000Y-86443816D01*
X227749000Y-86276184D01*
X227781703Y-86111772D01*
X227845853Y-85956900D01*
X227938985Y-85817519D01*
X228057519Y-85698985D01*
X228196900Y-85605853D01*
X228351772Y-85541703D01*
X228516184Y-85509000D01*
X228683816Y-85509000D01*
X228848228Y-85541703D01*
G37*
G36*
X221831000Y-87211000D02*
G01*
X220129000Y-87211000D01*
X220129000Y-85509000D01*
X221831000Y-85509000D01*
X221831000Y-87211000D01*
G37*
G36*
X236522585Y-80393802D02*
G01*
X236672410Y-80423604D01*
X236954674Y-80540521D01*
X237208705Y-80710259D01*
X237424741Y-80926295D01*
X237594479Y-81180326D01*
X237711396Y-81462590D01*
X237771000Y-81762240D01*
X237771000Y-82067760D01*
X237711396Y-82367410D01*
X237594479Y-82649674D01*
X237424741Y-82903705D01*
X237208705Y-83119741D01*
X236954674Y-83289479D01*
X236672410Y-83406396D01*
X236522585Y-83436198D01*
X236372761Y-83466000D01*
X236067239Y-83466000D01*
X235917415Y-83436198D01*
X235767590Y-83406396D01*
X235485326Y-83289479D01*
X235231295Y-83119741D01*
X235015259Y-82903705D01*
X234845521Y-82649674D01*
X234728604Y-82367410D01*
X234669000Y-82067760D01*
X234669000Y-81762240D01*
X234728604Y-81462590D01*
X234845521Y-81180326D01*
X235015259Y-80926295D01*
X235231295Y-80710259D01*
X235485326Y-80540521D01*
X235767590Y-80423604D01*
X235917415Y-80393802D01*
X236067239Y-80364000D01*
X236372761Y-80364000D01*
X236522585Y-80393802D01*
G37*
G36*
X159016778Y-80400547D02*
G01*
X159183224Y-80469491D01*
X159333022Y-80569583D01*
X159460417Y-80696978D01*
X159560509Y-80846776D01*
X159629453Y-81013222D01*
X159664600Y-81189918D01*
X159664600Y-81370082D01*
X159629453Y-81546778D01*
X159560509Y-81713224D01*
X159460417Y-81863022D01*
X159333022Y-81990417D01*
X159183224Y-82090509D01*
X159016778Y-82159453D01*
X158840082Y-82194600D01*
X158659918Y-82194600D01*
X158483222Y-82159453D01*
X158316776Y-82090509D01*
X158166978Y-81990417D01*
X158039583Y-81863022D01*
X157939491Y-81713224D01*
X157870547Y-81546778D01*
X157835400Y-81370082D01*
X157835400Y-81189918D01*
X157870547Y-81013222D01*
X157939491Y-80846776D01*
X158039583Y-80696978D01*
X158166978Y-80569583D01*
X158316776Y-80469491D01*
X158483222Y-80400547D01*
X158659918Y-80365400D01*
X158840082Y-80365400D01*
X159016778Y-80400547D01*
G37*
G36*
X156476778Y-80400547D02*
G01*
X156643224Y-80469491D01*
X156793022Y-80569583D01*
X156920417Y-80696978D01*
X157020509Y-80846776D01*
X157089453Y-81013222D01*
X157124600Y-81189918D01*
X157124600Y-81370082D01*
X157089453Y-81546778D01*
X157020509Y-81713224D01*
X156920417Y-81863022D01*
X156793022Y-81990417D01*
X156643224Y-82090509D01*
X156476778Y-82159453D01*
X156300082Y-82194600D01*
X156119918Y-82194600D01*
X155943222Y-82159453D01*
X155776776Y-82090509D01*
X155626978Y-81990417D01*
X155499583Y-81863022D01*
X155399491Y-81713224D01*
X155330547Y-81546778D01*
X155295400Y-81370082D01*
X155295400Y-81189918D01*
X155330547Y-81013222D01*
X155399491Y-80846776D01*
X155499583Y-80696978D01*
X155626978Y-80569583D01*
X155776776Y-80469491D01*
X155943222Y-80400547D01*
X156119918Y-80365400D01*
X156300082Y-80365400D01*
X156476778Y-80400547D01*
G37*
G36*
X228848228Y-80461703D02*
G01*
X229003100Y-80525853D01*
X229142481Y-80618985D01*
X229261015Y-80737519D01*
X229354147Y-80876900D01*
X229418297Y-81031772D01*
X229451000Y-81196184D01*
X229451000Y-81363816D01*
X229418297Y-81528228D01*
X229354147Y-81683100D01*
X229261015Y-81822481D01*
X229142481Y-81941015D01*
X229003100Y-82034147D01*
X228848228Y-82098297D01*
X228683816Y-82131000D01*
X228516184Y-82131000D01*
X228351772Y-82098297D01*
X228196900Y-82034147D01*
X228057519Y-81941015D01*
X227938985Y-81822481D01*
X227845853Y-81683100D01*
X227781703Y-81528228D01*
X227749000Y-81363816D01*
X227749000Y-81196184D01*
X227781703Y-81031772D01*
X227845853Y-80876900D01*
X227938985Y-80737519D01*
X228057519Y-80618985D01*
X228196900Y-80525853D01*
X228351772Y-80461703D01*
X228516184Y-80429000D01*
X228683816Y-80429000D01*
X228848228Y-80461703D01*
G37*
G36*
X221228228Y-80461703D02*
G01*
X221383100Y-80525853D01*
X221522481Y-80618985D01*
X221641015Y-80737519D01*
X221734147Y-80876900D01*
X221798297Y-81031772D01*
X221831000Y-81196184D01*
X221831000Y-81363816D01*
X221798297Y-81528228D01*
X221734147Y-81683100D01*
X221641015Y-81822481D01*
X221522481Y-81941015D01*
X221383100Y-82034147D01*
X221228228Y-82098297D01*
X221063816Y-82131000D01*
X220896184Y-82131000D01*
X220731772Y-82098297D01*
X220576900Y-82034147D01*
X220437519Y-81941015D01*
X220318985Y-81822481D01*
X220225853Y-81683100D01*
X220161703Y-81528228D01*
X220129000Y-81363816D01*
X220129000Y-81196184D01*
X220161703Y-81031772D01*
X220225853Y-80876900D01*
X220318985Y-80737519D01*
X220437519Y-80618985D01*
X220576900Y-80525853D01*
X220731772Y-80461703D01*
X220896184Y-80429000D01*
X221063816Y-80429000D01*
X221228228Y-80461703D01*
G37*
G36*
X170346822Y-78771313D02*
G01*
X170507241Y-78819976D01*
X170655077Y-78898995D01*
X170784659Y-79005341D01*
X170891004Y-79134922D01*
X170891005Y-79134924D01*
X170970024Y-79282758D01*
X171018687Y-79443177D01*
X171031000Y-79568196D01*
X171031000Y-80451803D01*
X171018687Y-80576822D01*
X170970024Y-80737242D01*
X170969875Y-80737520D01*
X170891004Y-80885078D01*
X170784659Y-81014659D01*
X170655078Y-81121004D01*
X170655076Y-81121005D01*
X170507242Y-81200024D01*
X170346823Y-81248687D01*
X170180000Y-81265117D01*
X170013178Y-81248687D01*
X169852759Y-81200024D01*
X169704925Y-81121005D01*
X169704923Y-81121004D01*
X169575342Y-81014659D01*
X169468997Y-80885078D01*
X169390126Y-80737520D01*
X169389977Y-80737242D01*
X169341314Y-80576823D01*
X169329000Y-80451803D01*
X169329000Y-79568197D01*
X169341313Y-79443178D01*
X169389976Y-79282759D01*
X169468995Y-79134923D01*
X169575341Y-79005341D01*
X169704922Y-78898996D01*
X169720094Y-78890886D01*
X169852758Y-78819976D01*
X170013177Y-78771313D01*
X170180000Y-78754883D01*
X170346822Y-78771313D01*
G37*
G36*
X172886822Y-78771313D02*
G01*
X173047241Y-78819976D01*
X173195077Y-78898995D01*
X173324659Y-79005341D01*
X173431004Y-79134922D01*
X173431005Y-79134924D01*
X173510024Y-79282758D01*
X173558687Y-79443177D01*
X173571000Y-79568196D01*
X173571000Y-80451803D01*
X173558687Y-80576822D01*
X173510024Y-80737242D01*
X173509875Y-80737520D01*
X173431004Y-80885078D01*
X173324659Y-81014659D01*
X173195078Y-81121004D01*
X173195076Y-81121005D01*
X173047242Y-81200024D01*
X172886823Y-81248687D01*
X172720000Y-81265117D01*
X172553178Y-81248687D01*
X172392759Y-81200024D01*
X172244925Y-81121005D01*
X172244923Y-81121004D01*
X172115342Y-81014659D01*
X172008997Y-80885078D01*
X171930126Y-80737520D01*
X171929977Y-80737242D01*
X171881314Y-80576823D01*
X171869000Y-80451803D01*
X171869000Y-79568197D01*
X171881313Y-79443178D01*
X171929976Y-79282759D01*
X172008995Y-79134923D01*
X172115341Y-79005341D01*
X172244922Y-78898996D01*
X172260094Y-78890886D01*
X172392758Y-78819976D01*
X172553177Y-78771313D01*
X172720000Y-78754883D01*
X172886822Y-78771313D01*
G37*
G36*
X175426822Y-78771313D02*
G01*
X175587241Y-78819976D01*
X175735077Y-78898995D01*
X175864659Y-79005341D01*
X175971004Y-79134922D01*
X175971005Y-79134924D01*
X176050024Y-79282758D01*
X176098687Y-79443177D01*
X176111000Y-79568196D01*
X176111000Y-80451803D01*
X176098687Y-80576822D01*
X176050024Y-80737242D01*
X176049875Y-80737520D01*
X175971004Y-80885078D01*
X175864659Y-81014659D01*
X175735078Y-81121004D01*
X175735076Y-81121005D01*
X175587242Y-81200024D01*
X175426823Y-81248687D01*
X175260000Y-81265117D01*
X175093178Y-81248687D01*
X174932759Y-81200024D01*
X174784925Y-81121005D01*
X174784923Y-81121004D01*
X174655342Y-81014659D01*
X174548997Y-80885078D01*
X174470126Y-80737520D01*
X174469977Y-80737242D01*
X174421314Y-80576823D01*
X174409000Y-80451803D01*
X174409000Y-79568197D01*
X174421313Y-79443178D01*
X174469976Y-79282759D01*
X174548995Y-79134923D01*
X174655341Y-79005341D01*
X174784922Y-78898996D01*
X174800094Y-78890886D01*
X174932758Y-78819976D01*
X175093177Y-78771313D01*
X175260000Y-78754883D01*
X175426822Y-78771313D01*
G37*
G36*
X177966822Y-78771313D02*
G01*
X178127241Y-78819976D01*
X178275077Y-78898995D01*
X178404659Y-79005341D01*
X178511004Y-79134922D01*
X178511005Y-79134924D01*
X178590024Y-79282758D01*
X178638687Y-79443177D01*
X178651000Y-79568196D01*
X178651000Y-80451803D01*
X178638687Y-80576822D01*
X178590024Y-80737242D01*
X178589875Y-80737520D01*
X178511004Y-80885078D01*
X178404659Y-81014659D01*
X178275078Y-81121004D01*
X178275076Y-81121005D01*
X178127242Y-81200024D01*
X177966823Y-81248687D01*
X177800000Y-81265117D01*
X177633178Y-81248687D01*
X177472759Y-81200024D01*
X177324925Y-81121005D01*
X177324923Y-81121004D01*
X177195342Y-81014659D01*
X177088997Y-80885078D01*
X177010126Y-80737520D01*
X177009977Y-80737242D01*
X176961314Y-80576823D01*
X176949000Y-80451803D01*
X176949000Y-79568197D01*
X176961313Y-79443178D01*
X177009976Y-79282759D01*
X177088995Y-79134923D01*
X177195341Y-79005341D01*
X177324922Y-78898996D01*
X177340094Y-78890886D01*
X177472758Y-78819976D01*
X177633177Y-78771313D01*
X177800000Y-78754883D01*
X177966822Y-78771313D01*
G37*
G36*
X180506822Y-78771313D02*
G01*
X180667241Y-78819976D01*
X180815077Y-78898995D01*
X180944659Y-79005341D01*
X181051004Y-79134922D01*
X181051005Y-79134924D01*
X181130024Y-79282758D01*
X181178687Y-79443177D01*
X181191000Y-79568196D01*
X181191000Y-80451803D01*
X181178687Y-80576822D01*
X181130024Y-80737242D01*
X181129875Y-80737520D01*
X181051004Y-80885078D01*
X180944659Y-81014659D01*
X180815078Y-81121004D01*
X180815076Y-81121005D01*
X180667242Y-81200024D01*
X180506823Y-81248687D01*
X180340000Y-81265117D01*
X180173178Y-81248687D01*
X180012759Y-81200024D01*
X179864925Y-81121005D01*
X179864923Y-81121004D01*
X179735342Y-81014659D01*
X179628997Y-80885078D01*
X179550126Y-80737520D01*
X179549977Y-80737242D01*
X179501314Y-80576823D01*
X179489000Y-80451803D01*
X179489000Y-79568197D01*
X179501313Y-79443178D01*
X179549976Y-79282759D01*
X179628995Y-79134923D01*
X179735341Y-79005341D01*
X179864922Y-78898996D01*
X179880094Y-78890886D01*
X180012758Y-78819976D01*
X180173177Y-78771313D01*
X180340000Y-78754883D01*
X180506822Y-78771313D01*
G37*
G36*
X183046822Y-78771313D02*
G01*
X183207241Y-78819976D01*
X183355077Y-78898995D01*
X183484659Y-79005341D01*
X183591004Y-79134922D01*
X183591005Y-79134924D01*
X183670024Y-79282758D01*
X183718687Y-79443177D01*
X183731000Y-79568196D01*
X183731000Y-80451803D01*
X183718687Y-80576822D01*
X183670024Y-80737242D01*
X183669875Y-80737520D01*
X183591004Y-80885078D01*
X183484659Y-81014659D01*
X183355078Y-81121004D01*
X183355076Y-81121005D01*
X183207242Y-81200024D01*
X183046823Y-81248687D01*
X182880000Y-81265117D01*
X182713178Y-81248687D01*
X182552759Y-81200024D01*
X182404925Y-81121005D01*
X182404923Y-81121004D01*
X182275342Y-81014659D01*
X182168997Y-80885078D01*
X182090126Y-80737520D01*
X182089977Y-80737242D01*
X182041314Y-80576823D01*
X182029000Y-80451803D01*
X182029000Y-79568197D01*
X182041313Y-79443178D01*
X182089976Y-79282759D01*
X182168995Y-79134923D01*
X182275341Y-79005341D01*
X182404922Y-78898996D01*
X182420094Y-78890886D01*
X182552758Y-78819976D01*
X182713177Y-78771313D01*
X182880000Y-78754883D01*
X183046822Y-78771313D01*
G37*
G36*
X208446823Y-78771313D02*
G01*
X208607242Y-78819976D01*
X208739906Y-78890886D01*
X208755078Y-78898996D01*
X208884659Y-79005341D01*
X208991004Y-79134922D01*
X208991005Y-79134924D01*
X209070024Y-79282758D01*
X209118687Y-79443178D01*
X209131000Y-79568197D01*
X209131000Y-80451804D01*
X209118687Y-80576823D01*
X209070024Y-80737242D01*
X209069875Y-80737520D01*
X208991004Y-80885078D01*
X208957177Y-80926296D01*
X208884659Y-81014659D01*
X208755077Y-81121005D01*
X208607241Y-81200024D01*
X208446822Y-81248687D01*
X208280000Y-81265117D01*
X208113177Y-81248687D01*
X207952758Y-81200024D01*
X207804924Y-81121005D01*
X207804922Y-81121004D01*
X207675341Y-81014659D01*
X207602823Y-80926296D01*
X207568995Y-80885077D01*
X207489976Y-80737241D01*
X207441313Y-80576822D01*
X207429000Y-80451803D01*
X207429000Y-79568197D01*
X207441314Y-79443177D01*
X207489977Y-79282758D01*
X207568996Y-79134924D01*
X207568997Y-79134922D01*
X207675342Y-79005341D01*
X207804923Y-78898996D01*
X207820095Y-78890886D01*
X207952759Y-78819976D01*
X208113178Y-78771313D01*
X208280000Y-78754883D01*
X208446823Y-78771313D01*
G37*
G36*
X203366823Y-78771313D02*
G01*
X203527242Y-78819976D01*
X203659906Y-78890886D01*
X203675078Y-78898996D01*
X203804659Y-79005341D01*
X203911004Y-79134922D01*
X203911005Y-79134924D01*
X203990024Y-79282758D01*
X204038687Y-79443178D01*
X204051000Y-79568197D01*
X204051000Y-80451804D01*
X204038687Y-80576823D01*
X203990024Y-80737242D01*
X203989875Y-80737520D01*
X203911004Y-80885078D01*
X203877177Y-80926296D01*
X203804659Y-81014659D01*
X203675077Y-81121005D01*
X203527241Y-81200024D01*
X203366822Y-81248687D01*
X203200000Y-81265117D01*
X203033177Y-81248687D01*
X202872758Y-81200024D01*
X202724924Y-81121005D01*
X202724922Y-81121004D01*
X202595341Y-81014659D01*
X202522823Y-80926296D01*
X202488995Y-80885077D01*
X202409976Y-80737241D01*
X202361313Y-80576822D01*
X202349000Y-80451803D01*
X202349000Y-79568197D01*
X202361314Y-79443177D01*
X202409977Y-79282758D01*
X202488996Y-79134924D01*
X202488997Y-79134922D01*
X202595342Y-79005341D01*
X202724923Y-78898996D01*
X202740095Y-78890886D01*
X202872759Y-78819976D01*
X203033178Y-78771313D01*
X203200000Y-78754883D01*
X203366823Y-78771313D01*
G37*
G36*
X200826823Y-78771313D02*
G01*
X200987242Y-78819976D01*
X201119906Y-78890886D01*
X201135078Y-78898996D01*
X201264659Y-79005341D01*
X201371004Y-79134922D01*
X201371005Y-79134924D01*
X201450024Y-79282758D01*
X201498687Y-79443178D01*
X201511000Y-79568197D01*
X201511000Y-80451804D01*
X201498687Y-80576823D01*
X201450024Y-80737242D01*
X201449875Y-80737520D01*
X201371004Y-80885078D01*
X201337177Y-80926296D01*
X201264659Y-81014659D01*
X201135077Y-81121005D01*
X200987241Y-81200024D01*
X200826822Y-81248687D01*
X200660000Y-81265117D01*
X200493177Y-81248687D01*
X200332758Y-81200024D01*
X200184924Y-81121005D01*
X200184922Y-81121004D01*
X200055341Y-81014659D01*
X199982823Y-80926296D01*
X199948995Y-80885077D01*
X199869976Y-80737241D01*
X199821313Y-80576822D01*
X199809000Y-80451803D01*
X199809000Y-79568197D01*
X199821314Y-79443177D01*
X199869977Y-79282758D01*
X199948996Y-79134924D01*
X199948997Y-79134922D01*
X200055342Y-79005341D01*
X200184923Y-78898996D01*
X200200095Y-78890886D01*
X200332759Y-78819976D01*
X200493178Y-78771313D01*
X200660000Y-78754883D01*
X200826823Y-78771313D01*
G37*
G36*
X198286823Y-78771313D02*
G01*
X198447242Y-78819976D01*
X198579906Y-78890886D01*
X198595078Y-78898996D01*
X198724659Y-79005341D01*
X198831004Y-79134922D01*
X198831005Y-79134924D01*
X198910024Y-79282758D01*
X198958687Y-79443178D01*
X198971000Y-79568197D01*
X198971000Y-80451804D01*
X198958687Y-80576823D01*
X198910024Y-80737242D01*
X198909875Y-80737520D01*
X198831004Y-80885078D01*
X198797177Y-80926296D01*
X198724659Y-81014659D01*
X198595077Y-81121005D01*
X198447241Y-81200024D01*
X198286822Y-81248687D01*
X198120000Y-81265117D01*
X197953177Y-81248687D01*
X197792758Y-81200024D01*
X197644924Y-81121005D01*
X197644922Y-81121004D01*
X197515341Y-81014659D01*
X197442823Y-80926296D01*
X197408995Y-80885077D01*
X197329976Y-80737241D01*
X197281313Y-80576822D01*
X197269000Y-80451803D01*
X197269000Y-79568197D01*
X197281314Y-79443177D01*
X197329977Y-79282758D01*
X197408996Y-79134924D01*
X197408997Y-79134922D01*
X197515342Y-79005341D01*
X197644923Y-78898996D01*
X197660095Y-78890886D01*
X197792759Y-78819976D01*
X197953178Y-78771313D01*
X198120000Y-78754883D01*
X198286823Y-78771313D01*
G37*
G36*
X195746823Y-78771313D02*
G01*
X195907242Y-78819976D01*
X196039906Y-78890886D01*
X196055078Y-78898996D01*
X196184659Y-79005341D01*
X196291004Y-79134922D01*
X196291005Y-79134924D01*
X196370024Y-79282758D01*
X196418687Y-79443178D01*
X196431000Y-79568197D01*
X196431000Y-80451804D01*
X196418687Y-80576823D01*
X196370024Y-80737242D01*
X196369875Y-80737520D01*
X196291004Y-80885078D01*
X196257177Y-80926296D01*
X196184659Y-81014659D01*
X196055077Y-81121005D01*
X195907241Y-81200024D01*
X195746822Y-81248687D01*
X195580000Y-81265117D01*
X195413177Y-81248687D01*
X195252758Y-81200024D01*
X195104924Y-81121005D01*
X195104922Y-81121004D01*
X194975341Y-81014659D01*
X194902823Y-80926296D01*
X194868995Y-80885077D01*
X194789976Y-80737241D01*
X194741313Y-80576822D01*
X194729000Y-80451803D01*
X194729000Y-79568197D01*
X194741314Y-79443177D01*
X194789977Y-79282758D01*
X194868996Y-79134924D01*
X194868997Y-79134922D01*
X194975342Y-79005341D01*
X195104923Y-78898996D01*
X195120095Y-78890886D01*
X195252759Y-78819976D01*
X195413178Y-78771313D01*
X195580000Y-78754883D01*
X195746823Y-78771313D01*
G37*
G36*
X210986823Y-78771313D02*
G01*
X211147242Y-78819976D01*
X211279906Y-78890886D01*
X211295078Y-78898996D01*
X211424659Y-79005341D01*
X211531004Y-79134922D01*
X211531005Y-79134924D01*
X211610024Y-79282758D01*
X211658687Y-79443178D01*
X211671000Y-79568197D01*
X211671000Y-80451804D01*
X211658687Y-80576823D01*
X211610024Y-80737242D01*
X211609875Y-80737520D01*
X211531004Y-80885078D01*
X211497177Y-80926296D01*
X211424659Y-81014659D01*
X211295077Y-81121005D01*
X211147241Y-81200024D01*
X210986822Y-81248687D01*
X210820000Y-81265117D01*
X210653177Y-81248687D01*
X210492758Y-81200024D01*
X210344924Y-81121005D01*
X210344922Y-81121004D01*
X210215341Y-81014659D01*
X210142823Y-80926296D01*
X210108995Y-80885077D01*
X210029976Y-80737241D01*
X209981313Y-80576822D01*
X209969000Y-80451803D01*
X209969000Y-79568197D01*
X209981314Y-79443177D01*
X210029977Y-79282758D01*
X210108996Y-79134924D01*
X210108997Y-79134922D01*
X210215342Y-79005341D01*
X210344923Y-78898996D01*
X210360095Y-78890886D01*
X210492759Y-78819976D01*
X210653178Y-78771313D01*
X210820000Y-78754883D01*
X210986823Y-78771313D01*
G37*
G36*
X188126822Y-78771313D02*
G01*
X188287241Y-78819976D01*
X188435077Y-78898995D01*
X188564659Y-79005341D01*
X188671004Y-79134922D01*
X188671005Y-79134924D01*
X188750024Y-79282758D01*
X188798687Y-79443177D01*
X188811000Y-79568196D01*
X188811000Y-80451803D01*
X188798687Y-80576822D01*
X188750024Y-80737242D01*
X188749875Y-80737520D01*
X188671004Y-80885078D01*
X188564659Y-81014659D01*
X188435078Y-81121004D01*
X188435076Y-81121005D01*
X188287242Y-81200024D01*
X188126823Y-81248687D01*
X187960000Y-81265117D01*
X187793178Y-81248687D01*
X187632759Y-81200024D01*
X187484925Y-81121005D01*
X187484923Y-81121004D01*
X187355342Y-81014659D01*
X187248997Y-80885078D01*
X187170126Y-80737520D01*
X187169977Y-80737242D01*
X187121314Y-80576823D01*
X187109000Y-80451803D01*
X187109000Y-79568197D01*
X187121313Y-79443178D01*
X187169976Y-79282759D01*
X187248995Y-79134923D01*
X187355341Y-79005341D01*
X187484922Y-78898996D01*
X187500094Y-78890886D01*
X187632758Y-78819976D01*
X187793177Y-78771313D01*
X187960000Y-78754883D01*
X188126822Y-78771313D01*
G37*
G36*
X185586822Y-78771313D02*
G01*
X185747241Y-78819976D01*
X185895077Y-78898995D01*
X186024659Y-79005341D01*
X186131004Y-79134922D01*
X186131005Y-79134924D01*
X186210024Y-79282758D01*
X186258687Y-79443177D01*
X186271000Y-79568196D01*
X186271000Y-80451803D01*
X186258687Y-80576822D01*
X186210024Y-80737242D01*
X186209875Y-80737520D01*
X186131004Y-80885078D01*
X186024659Y-81014659D01*
X185895078Y-81121004D01*
X185895076Y-81121005D01*
X185747242Y-81200024D01*
X185586823Y-81248687D01*
X185420000Y-81265117D01*
X185253178Y-81248687D01*
X185092759Y-81200024D01*
X184944925Y-81121005D01*
X184944923Y-81121004D01*
X184815342Y-81014659D01*
X184708997Y-80885078D01*
X184630126Y-80737520D01*
X184629977Y-80737242D01*
X184581314Y-80576823D01*
X184569000Y-80451803D01*
X184569000Y-79568197D01*
X184581313Y-79443178D01*
X184629976Y-79282759D01*
X184708995Y-79134923D01*
X184815341Y-79005341D01*
X184944922Y-78898996D01*
X184960094Y-78890886D01*
X185092758Y-78819976D01*
X185253177Y-78771313D01*
X185420000Y-78754883D01*
X185586822Y-78771313D01*
G37*
G36*
X205906823Y-78771313D02*
G01*
X206067242Y-78819976D01*
X206199906Y-78890886D01*
X206215078Y-78898996D01*
X206344659Y-79005341D01*
X206451004Y-79134922D01*
X206451005Y-79134924D01*
X206530024Y-79282758D01*
X206578687Y-79443178D01*
X206591000Y-79568197D01*
X206591000Y-80451804D01*
X206578687Y-80576823D01*
X206530024Y-80737242D01*
X206529875Y-80737520D01*
X206451004Y-80885078D01*
X206417177Y-80926296D01*
X206344659Y-81014659D01*
X206215077Y-81121005D01*
X206067241Y-81200024D01*
X205906822Y-81248687D01*
X205740000Y-81265117D01*
X205573177Y-81248687D01*
X205412758Y-81200024D01*
X205264924Y-81121005D01*
X205264922Y-81121004D01*
X205135341Y-81014659D01*
X205062823Y-80926296D01*
X205028995Y-80885077D01*
X204949976Y-80737241D01*
X204901313Y-80576822D01*
X204889000Y-80451803D01*
X204889000Y-79568197D01*
X204901314Y-79443177D01*
X204949977Y-79282758D01*
X205028996Y-79134924D01*
X205028997Y-79134922D01*
X205135342Y-79005341D01*
X205264923Y-78898996D01*
X205280095Y-78890886D01*
X205412759Y-78819976D01*
X205573178Y-78771313D01*
X205740000Y-78754883D01*
X205906823Y-78771313D01*
G37*
G36*
X214211000Y-81261000D02*
G01*
X212509000Y-81261000D01*
X212509000Y-78759000D01*
X214211000Y-78759000D01*
X214211000Y-81261000D01*
G37*
G36*
X159016778Y-77860547D02*
G01*
X159183224Y-77929491D01*
X159333022Y-78029583D01*
X159460417Y-78156978D01*
X159560509Y-78306776D01*
X159629453Y-78473222D01*
X159664600Y-78649918D01*
X159664600Y-78830082D01*
X159629453Y-79006778D01*
X159560509Y-79173224D01*
X159460417Y-79323022D01*
X159333022Y-79450417D01*
X159183224Y-79550509D01*
X159016778Y-79619453D01*
X158840082Y-79654600D01*
X158659918Y-79654600D01*
X158483222Y-79619453D01*
X158316776Y-79550509D01*
X158166978Y-79450417D01*
X158039583Y-79323022D01*
X157939491Y-79173224D01*
X157870547Y-79006778D01*
X157835400Y-78830082D01*
X157835400Y-78649918D01*
X157870547Y-78473222D01*
X157939491Y-78306776D01*
X158039583Y-78156978D01*
X158166978Y-78029583D01*
X158316776Y-77929491D01*
X158483222Y-77860547D01*
X158659918Y-77825400D01*
X158840082Y-77825400D01*
X159016778Y-77860547D01*
G37*
G36*
X156476778Y-77860547D02*
G01*
X156643224Y-77929491D01*
X156793022Y-78029583D01*
X156920417Y-78156978D01*
X157020509Y-78306776D01*
X157089453Y-78473222D01*
X157124600Y-78649918D01*
X157124600Y-78830082D01*
X157089453Y-79006778D01*
X157020509Y-79173224D01*
X156920417Y-79323022D01*
X156793022Y-79450417D01*
X156643224Y-79550509D01*
X156476778Y-79619453D01*
X156300082Y-79654600D01*
X156119918Y-79654600D01*
X155943222Y-79619453D01*
X155776776Y-79550509D01*
X155626978Y-79450417D01*
X155499583Y-79323022D01*
X155399491Y-79173224D01*
X155330547Y-79006778D01*
X155295400Y-78830082D01*
X155295400Y-78649918D01*
X155330547Y-78473222D01*
X155399491Y-78306776D01*
X155499583Y-78156978D01*
X155626978Y-78029583D01*
X155776776Y-77929491D01*
X155943222Y-77860547D01*
X156119918Y-77825400D01*
X156300082Y-77825400D01*
X156476778Y-77860547D01*
G37*
G36*
X237771000Y-78386000D02*
G01*
X234669000Y-78386000D01*
X234669000Y-75284000D01*
X237771000Y-75284000D01*
X237771000Y-78386000D01*
G37*
G36*
X156476778Y-75320547D02*
G01*
X156643224Y-75389491D01*
X156793022Y-75489583D01*
X156920417Y-75616978D01*
X157020509Y-75766776D01*
X157089453Y-75933222D01*
X157124600Y-76109918D01*
X157124600Y-76290082D01*
X157089453Y-76466778D01*
X157020509Y-76633224D01*
X156920417Y-76783022D01*
X156793022Y-76910417D01*
X156643224Y-77010509D01*
X156476778Y-77079453D01*
X156300082Y-77114600D01*
X156119918Y-77114600D01*
X155943222Y-77079453D01*
X155776776Y-77010509D01*
X155626978Y-76910417D01*
X155499583Y-76783022D01*
X155399491Y-76633224D01*
X155330547Y-76466778D01*
X155295400Y-76290082D01*
X155295400Y-76109918D01*
X155330547Y-75933222D01*
X155399491Y-75766776D01*
X155499583Y-75616978D01*
X155626978Y-75489583D01*
X155776776Y-75389491D01*
X155943222Y-75320547D01*
X156119918Y-75285400D01*
X156300082Y-75285400D01*
X156476778Y-75320547D01*
G37*
G36*
X159016778Y-75320547D02*
G01*
X159183224Y-75389491D01*
X159333022Y-75489583D01*
X159460417Y-75616978D01*
X159560509Y-75766776D01*
X159629453Y-75933222D01*
X159664600Y-76109918D01*
X159664600Y-76290082D01*
X159629453Y-76466778D01*
X159560509Y-76633224D01*
X159460417Y-76783022D01*
X159333022Y-76910417D01*
X159183224Y-77010509D01*
X159016778Y-77079453D01*
X158840082Y-77114600D01*
X158659918Y-77114600D01*
X158483222Y-77079453D01*
X158316776Y-77010509D01*
X158166978Y-76910417D01*
X158039583Y-76783022D01*
X157939491Y-76633224D01*
X157870547Y-76466778D01*
X157835400Y-76290082D01*
X157835400Y-76109918D01*
X157870547Y-75933222D01*
X157939491Y-75766776D01*
X158039583Y-75616978D01*
X158166978Y-75489583D01*
X158316776Y-75389491D01*
X158483222Y-75320547D01*
X158659918Y-75285400D01*
X158840082Y-75285400D01*
X159016778Y-75320547D01*
G37*
G36*
X228848228Y-75381703D02*
G01*
X229003100Y-75445853D01*
X229142481Y-75538985D01*
X229261015Y-75657519D01*
X229354147Y-75796900D01*
X229418297Y-75951772D01*
X229451000Y-76116184D01*
X229451000Y-76283816D01*
X229418297Y-76448228D01*
X229354147Y-76603100D01*
X229261015Y-76742481D01*
X229142481Y-76861015D01*
X229003100Y-76954147D01*
X228848228Y-77018297D01*
X228683816Y-77051000D01*
X228516184Y-77051000D01*
X228351772Y-77018297D01*
X228196900Y-76954147D01*
X228057519Y-76861015D01*
X227938985Y-76742481D01*
X227845853Y-76603100D01*
X227781703Y-76448228D01*
X227749000Y-76283816D01*
X227749000Y-76116184D01*
X227781703Y-75951772D01*
X227845853Y-75796900D01*
X227938985Y-75657519D01*
X228057519Y-75538985D01*
X228196900Y-75445853D01*
X228351772Y-75381703D01*
X228516184Y-75349000D01*
X228683816Y-75349000D01*
X228848228Y-75381703D01*
G37*
G36*
X221831000Y-77051000D02*
G01*
X220129000Y-77051000D01*
X220129000Y-75349000D01*
X221831000Y-75349000D01*
X221831000Y-77051000D01*
G37*
G36*
X178624890Y-74939017D02*
G01*
X178665927Y-74956015D01*
X178743364Y-74988091D01*
X178834741Y-75049147D01*
X178849988Y-75059335D01*
X178940665Y-75150012D01*
X179011910Y-75256638D01*
X179060983Y-75375110D01*
X179086000Y-75500881D01*
X179086000Y-75629119D01*
X179060983Y-75754890D01*
X179043581Y-75796903D01*
X179011909Y-75873364D01*
X178940665Y-75979988D01*
X178849988Y-76070665D01*
X178743364Y-76141909D01*
X178743363Y-76141910D01*
X178743362Y-76141910D01*
X178624890Y-76190983D01*
X178499119Y-76216000D01*
X178370881Y-76216000D01*
X178245110Y-76190983D01*
X178126638Y-76141910D01*
X178126637Y-76141910D01*
X178126636Y-76141909D01*
X178020012Y-76070665D01*
X177929335Y-75979988D01*
X177858091Y-75873364D01*
X177826420Y-75796903D01*
X177809017Y-75754890D01*
X177784000Y-75629119D01*
X177784000Y-75500881D01*
X177809017Y-75375110D01*
X177858090Y-75256638D01*
X177929335Y-75150012D01*
X178020012Y-75059335D01*
X178035259Y-75049147D01*
X178126636Y-74988091D01*
X178204074Y-74956015D01*
X178245110Y-74939017D01*
X178370881Y-74914000D01*
X178499119Y-74914000D01*
X178624890Y-74939017D01*
G37*
G36*
X177086000Y-76216000D02*
G01*
X175784000Y-76216000D01*
X175784000Y-74914000D01*
X177086000Y-74914000D01*
X177086000Y-76216000D01*
G37*
G36*
X200876000Y-75146000D02*
G01*
X199174000Y-75146000D01*
X199174000Y-73444000D01*
X200876000Y-73444000D01*
X200876000Y-75146000D01*
G37*
G36*
X202773228Y-73476703D02*
G01*
X202928100Y-73540853D01*
X203067481Y-73633985D01*
X203186015Y-73752519D01*
X203279147Y-73891900D01*
X203343297Y-74046772D01*
X203376000Y-74211184D01*
X203376000Y-74378816D01*
X203343297Y-74543228D01*
X203279147Y-74698100D01*
X203186015Y-74837481D01*
X203067481Y-74956015D01*
X202928100Y-75049147D01*
X202773228Y-75113297D01*
X202608816Y-75146000D01*
X202441184Y-75146000D01*
X202276772Y-75113297D01*
X202121900Y-75049147D01*
X201982519Y-74956015D01*
X201863985Y-74837481D01*
X201770853Y-74698100D01*
X201706703Y-74543228D01*
X201674000Y-74378816D01*
X201674000Y-74211184D01*
X201706703Y-74046772D01*
X201770853Y-73891900D01*
X201863985Y-73752519D01*
X201982519Y-73633985D01*
X202121900Y-73540853D01*
X202276772Y-73476703D01*
X202441184Y-73444000D01*
X202608816Y-73444000D01*
X202773228Y-73476703D01*
G37*
G36*
X159016778Y-72780547D02*
G01*
X159183224Y-72849491D01*
X159333022Y-72949583D01*
X159460417Y-73076978D01*
X159560509Y-73226776D01*
X159629453Y-73393222D01*
X159664600Y-73569918D01*
X159664600Y-73750082D01*
X159629453Y-73926778D01*
X159560509Y-74093224D01*
X159460417Y-74243022D01*
X159333022Y-74370417D01*
X159183224Y-74470509D01*
X159016778Y-74539453D01*
X158840082Y-74574600D01*
X158659918Y-74574600D01*
X158483222Y-74539453D01*
X158316776Y-74470509D01*
X158166978Y-74370417D01*
X158039583Y-74243022D01*
X157939491Y-74093224D01*
X157870547Y-73926778D01*
X157835400Y-73750082D01*
X157835400Y-73569918D01*
X157870547Y-73393222D01*
X157939491Y-73226776D01*
X158039583Y-73076978D01*
X158166978Y-72949583D01*
X158316776Y-72849491D01*
X158483222Y-72780547D01*
X158659918Y-72745400D01*
X158840082Y-72745400D01*
X159016778Y-72780547D01*
G37*
G36*
X156476778Y-72780547D02*
G01*
X156643224Y-72849491D01*
X156793022Y-72949583D01*
X156920417Y-73076978D01*
X157020509Y-73226776D01*
X157089453Y-73393222D01*
X157124600Y-73569918D01*
X157124600Y-73750082D01*
X157089453Y-73926778D01*
X157020509Y-74093224D01*
X156920417Y-74243022D01*
X156793022Y-74370417D01*
X156643224Y-74470509D01*
X156476778Y-74539453D01*
X156300082Y-74574600D01*
X156119918Y-74574600D01*
X155943222Y-74539453D01*
X155776776Y-74470509D01*
X155626978Y-74370417D01*
X155499583Y-74243022D01*
X155399491Y-74093224D01*
X155330547Y-73926778D01*
X155295400Y-73750082D01*
X155295400Y-73569918D01*
X155330547Y-73393222D01*
X155399491Y-73226776D01*
X155499583Y-73076978D01*
X155626978Y-72949583D01*
X155776776Y-72849491D01*
X155943222Y-72780547D01*
X156119918Y-72745400D01*
X156300082Y-72745400D01*
X156476778Y-72780547D01*
G37*
G36*
X211104890Y-73034017D02*
G01*
X211223364Y-73083091D01*
X211329988Y-73154335D01*
X211420665Y-73245012D01*
X211491910Y-73351638D01*
X211540983Y-73470110D01*
X211566000Y-73595881D01*
X211566000Y-73724119D01*
X211540983Y-73849890D01*
X211523581Y-73891903D01*
X211491909Y-73968364D01*
X211420665Y-74074988D01*
X211329988Y-74165665D01*
X211223364Y-74236909D01*
X211223363Y-74236910D01*
X211223362Y-74236910D01*
X211104890Y-74285983D01*
X210979119Y-74311000D01*
X210850881Y-74311000D01*
X210725110Y-74285983D01*
X210606638Y-74236910D01*
X210606637Y-74236910D01*
X210606636Y-74236909D01*
X210500012Y-74165665D01*
X210409335Y-74074988D01*
X210338091Y-73968364D01*
X210306420Y-73891903D01*
X210289017Y-73849890D01*
X210264000Y-73724119D01*
X210264000Y-73595881D01*
X210289017Y-73470110D01*
X210338090Y-73351638D01*
X210409335Y-73245012D01*
X210500012Y-73154335D01*
X210606636Y-73083091D01*
X210725110Y-73034017D01*
X210850881Y-73009000D01*
X210979119Y-73009000D01*
X211104890Y-73034017D01*
G37*
G36*
X209566000Y-74311000D02*
G01*
X208264000Y-74311000D01*
X208264000Y-73009000D01*
X209566000Y-73009000D01*
X209566000Y-74311000D01*
G37*
G36*
X236522585Y-68963802D02*
G01*
X236672410Y-68993604D01*
X236954674Y-69110521D01*
X237208705Y-69280259D01*
X237424741Y-69496295D01*
X237594479Y-69750326D01*
X237711396Y-70032590D01*
X237771000Y-70332240D01*
X237771000Y-70637760D01*
X237711396Y-70937410D01*
X237594479Y-71219674D01*
X237424741Y-71473705D01*
X237208705Y-71689741D01*
X236954674Y-71859479D01*
X236672410Y-71976396D01*
X236556499Y-71999452D01*
X236372761Y-72036000D01*
X236067239Y-72036000D01*
X235883501Y-71999452D01*
X235767590Y-71976396D01*
X235485326Y-71859479D01*
X235231295Y-71689741D01*
X235015259Y-71473705D01*
X234845521Y-71219674D01*
X234728604Y-70937410D01*
X234669000Y-70637760D01*
X234669000Y-70332240D01*
X234728604Y-70032590D01*
X234845521Y-69750326D01*
X235015259Y-69496295D01*
X235231295Y-69280259D01*
X235485326Y-69110521D01*
X235767590Y-68993604D01*
X235917415Y-68963802D01*
X236067239Y-68934000D01*
X236372761Y-68934000D01*
X236522585Y-68963802D01*
G37*
G36*
X159016778Y-70240547D02*
G01*
X159183224Y-70309491D01*
X159333022Y-70409583D01*
X159460417Y-70536978D01*
X159560509Y-70686776D01*
X159629453Y-70853222D01*
X159664600Y-71029918D01*
X159664600Y-71210082D01*
X159629453Y-71386778D01*
X159560509Y-71553224D01*
X159460417Y-71703022D01*
X159333022Y-71830417D01*
X159183224Y-71930509D01*
X159016778Y-71999453D01*
X158840082Y-72034600D01*
X158659918Y-72034600D01*
X158483222Y-71999453D01*
X158316776Y-71930509D01*
X158166978Y-71830417D01*
X158039583Y-71703022D01*
X157939491Y-71553224D01*
X157870547Y-71386778D01*
X157835400Y-71210082D01*
X157835400Y-71029918D01*
X157870547Y-70853222D01*
X157939491Y-70686776D01*
X158039583Y-70536978D01*
X158166978Y-70409583D01*
X158316776Y-70309491D01*
X158483222Y-70240547D01*
X158659918Y-70205400D01*
X158840082Y-70205400D01*
X159016778Y-70240547D01*
G37*
G36*
X156476778Y-70240547D02*
G01*
X156643224Y-70309491D01*
X156793022Y-70409583D01*
X156920417Y-70536978D01*
X157020509Y-70686776D01*
X157089453Y-70853222D01*
X157124600Y-71029918D01*
X157124600Y-71210082D01*
X157089453Y-71386778D01*
X157020509Y-71553224D01*
X156920417Y-71703022D01*
X156793022Y-71830417D01*
X156643224Y-71930509D01*
X156476778Y-71999453D01*
X156300082Y-72034600D01*
X156119918Y-72034600D01*
X155943222Y-71999453D01*
X155776776Y-71930509D01*
X155626978Y-71830417D01*
X155499583Y-71703022D01*
X155399491Y-71553224D01*
X155330547Y-71386778D01*
X155295400Y-71210082D01*
X155295400Y-71029918D01*
X155330547Y-70853222D01*
X155399491Y-70686776D01*
X155499583Y-70536978D01*
X155626978Y-70409583D01*
X155776776Y-70309491D01*
X155943222Y-70240547D01*
X156119918Y-70205400D01*
X156300082Y-70205400D01*
X156476778Y-70240547D01*
G37*
G36*
X221228228Y-70301703D02*
G01*
X221383100Y-70365853D01*
X221522481Y-70458985D01*
X221641015Y-70577519D01*
X221734147Y-70716900D01*
X221798297Y-70871772D01*
X221831000Y-71036184D01*
X221831000Y-71203816D01*
X221798297Y-71368228D01*
X221734147Y-71523100D01*
X221641015Y-71662481D01*
X221522481Y-71781015D01*
X221383100Y-71874147D01*
X221228228Y-71938297D01*
X221063816Y-71971000D01*
X220896184Y-71971000D01*
X220731772Y-71938297D01*
X220576900Y-71874147D01*
X220437519Y-71781015D01*
X220318985Y-71662481D01*
X220225853Y-71523100D01*
X220161703Y-71368228D01*
X220129000Y-71203816D01*
X220129000Y-71036184D01*
X220161703Y-70871772D01*
X220225853Y-70716900D01*
X220318985Y-70577519D01*
X220437519Y-70458985D01*
X220576900Y-70365853D01*
X220731772Y-70301703D01*
X220896184Y-70269000D01*
X221063816Y-70269000D01*
X221228228Y-70301703D01*
G37*
G36*
X228848228Y-70301703D02*
G01*
X229003100Y-70365853D01*
X229142481Y-70458985D01*
X229261015Y-70577519D01*
X229354147Y-70716900D01*
X229418297Y-70871772D01*
X229451000Y-71036184D01*
X229451000Y-71203816D01*
X229418297Y-71368228D01*
X229354147Y-71523100D01*
X229261015Y-71662481D01*
X229142481Y-71781015D01*
X229003100Y-71874147D01*
X228848228Y-71938297D01*
X228683816Y-71971000D01*
X228516184Y-71971000D01*
X228351772Y-71938297D01*
X228196900Y-71874147D01*
X228057519Y-71781015D01*
X227938985Y-71662481D01*
X227845853Y-71523100D01*
X227781703Y-71368228D01*
X227749000Y-71203816D01*
X227749000Y-71036184D01*
X227781703Y-70871772D01*
X227845853Y-70716900D01*
X227938985Y-70577519D01*
X228057519Y-70458985D01*
X228196900Y-70365853D01*
X228351772Y-70301703D01*
X228516184Y-70269000D01*
X228683816Y-70269000D01*
X228848228Y-70301703D01*
G37*
G36*
X159016778Y-67700547D02*
G01*
X159183224Y-67769491D01*
X159333022Y-67869583D01*
X159460417Y-67996978D01*
X159560509Y-68146776D01*
X159629453Y-68313222D01*
X159664600Y-68489918D01*
X159664600Y-68670082D01*
X159629453Y-68846778D01*
X159560509Y-69013224D01*
X159460417Y-69163022D01*
X159333022Y-69290417D01*
X159183224Y-69390509D01*
X159016778Y-69459453D01*
X158840082Y-69494600D01*
X158659918Y-69494600D01*
X158483222Y-69459453D01*
X158316776Y-69390509D01*
X158166978Y-69290417D01*
X158039583Y-69163022D01*
X157939491Y-69013224D01*
X157870547Y-68846778D01*
X157835400Y-68670082D01*
X157835400Y-68489918D01*
X157870547Y-68313222D01*
X157939491Y-68146776D01*
X158039583Y-67996978D01*
X158166978Y-67869583D01*
X158316776Y-67769491D01*
X158483222Y-67700547D01*
X158659918Y-67665400D01*
X158840082Y-67665400D01*
X159016778Y-67700547D01*
G37*
G36*
X157124600Y-69494600D02*
G01*
X155295400Y-69494600D01*
X155295400Y-67665400D01*
X157124600Y-67665400D01*
X157124600Y-69494600D01*
G37*
G36*
X188126822Y-66071313D02*
G01*
X188287241Y-66119976D01*
X188435077Y-66198995D01*
X188543807Y-66288228D01*
X188564659Y-66305341D01*
X188671004Y-66434922D01*
X188671005Y-66434924D01*
X188750024Y-66582758D01*
X188798687Y-66743177D01*
X188811000Y-66868196D01*
X188811000Y-67751803D01*
X188798687Y-67876822D01*
X188750024Y-68037242D01*
X188691477Y-68146775D01*
X188671004Y-68185078D01*
X188564659Y-68314659D01*
X188435078Y-68421004D01*
X188435076Y-68421005D01*
X188287242Y-68500024D01*
X188126823Y-68548687D01*
X187960000Y-68565117D01*
X187793178Y-68548687D01*
X187632759Y-68500024D01*
X187484925Y-68421005D01*
X187484923Y-68421004D01*
X187355342Y-68314659D01*
X187248997Y-68185078D01*
X187228524Y-68146775D01*
X187169977Y-68037242D01*
X187121314Y-67876823D01*
X187109000Y-67751803D01*
X187109000Y-66868197D01*
X187121313Y-66743178D01*
X187169976Y-66582759D01*
X187248995Y-66434923D01*
X187355341Y-66305341D01*
X187376193Y-66288228D01*
X187484922Y-66198996D01*
X187595906Y-66139674D01*
X187632758Y-66119976D01*
X187793177Y-66071313D01*
X187960000Y-66054883D01*
X188126822Y-66071313D01*
G37*
G36*
X172886822Y-66071313D02*
G01*
X173047241Y-66119976D01*
X173195077Y-66198995D01*
X173303807Y-66288228D01*
X173324659Y-66305341D01*
X173431004Y-66434922D01*
X173431005Y-66434924D01*
X173510024Y-66582758D01*
X173558687Y-66743177D01*
X173571000Y-66868196D01*
X173571000Y-67751803D01*
X173558687Y-67876822D01*
X173510024Y-68037242D01*
X173451477Y-68146775D01*
X173431004Y-68185078D01*
X173324659Y-68314659D01*
X173195078Y-68421004D01*
X173195076Y-68421005D01*
X173047242Y-68500024D01*
X172886823Y-68548687D01*
X172720000Y-68565117D01*
X172553178Y-68548687D01*
X172392759Y-68500024D01*
X172244925Y-68421005D01*
X172244923Y-68421004D01*
X172115342Y-68314659D01*
X172008997Y-68185078D01*
X171988524Y-68146775D01*
X171929977Y-68037242D01*
X171881314Y-67876823D01*
X171869000Y-67751803D01*
X171869000Y-66868197D01*
X171881313Y-66743178D01*
X171929976Y-66582759D01*
X172008995Y-66434923D01*
X172115341Y-66305341D01*
X172136193Y-66288228D01*
X172244922Y-66198996D01*
X172355906Y-66139674D01*
X172392758Y-66119976D01*
X172553177Y-66071313D01*
X172720000Y-66054883D01*
X172886822Y-66071313D01*
G37*
G36*
X175426822Y-66071313D02*
G01*
X175587241Y-66119976D01*
X175735077Y-66198995D01*
X175843807Y-66288228D01*
X175864659Y-66305341D01*
X175971004Y-66434922D01*
X175971005Y-66434924D01*
X176050024Y-66582758D01*
X176098687Y-66743177D01*
X176111000Y-66868196D01*
X176111000Y-67751803D01*
X176098687Y-67876822D01*
X176050024Y-68037242D01*
X175991477Y-68146775D01*
X175971004Y-68185078D01*
X175864659Y-68314659D01*
X175735078Y-68421004D01*
X175735076Y-68421005D01*
X175587242Y-68500024D01*
X175426823Y-68548687D01*
X175260000Y-68565117D01*
X175093178Y-68548687D01*
X174932759Y-68500024D01*
X174784925Y-68421005D01*
X174784923Y-68421004D01*
X174655342Y-68314659D01*
X174548997Y-68185078D01*
X174528524Y-68146775D01*
X174469977Y-68037242D01*
X174421314Y-67876823D01*
X174409000Y-67751803D01*
X174409000Y-66868197D01*
X174421313Y-66743178D01*
X174469976Y-66582759D01*
X174548995Y-66434923D01*
X174655341Y-66305341D01*
X174676193Y-66288228D01*
X174784922Y-66198996D01*
X174895906Y-66139674D01*
X174932758Y-66119976D01*
X175093177Y-66071313D01*
X175260000Y-66054883D01*
X175426822Y-66071313D01*
G37*
G36*
X183046822Y-66071313D02*
G01*
X183207241Y-66119976D01*
X183355077Y-66198995D01*
X183463807Y-66288228D01*
X183484659Y-66305341D01*
X183591004Y-66434922D01*
X183591005Y-66434924D01*
X183670024Y-66582758D01*
X183718687Y-66743177D01*
X183731000Y-66868196D01*
X183731000Y-67751803D01*
X183718687Y-67876822D01*
X183670024Y-68037242D01*
X183611477Y-68146775D01*
X183591004Y-68185078D01*
X183484659Y-68314659D01*
X183355078Y-68421004D01*
X183355076Y-68421005D01*
X183207242Y-68500024D01*
X183046823Y-68548687D01*
X182880000Y-68565117D01*
X182713178Y-68548687D01*
X182552759Y-68500024D01*
X182404925Y-68421005D01*
X182404923Y-68421004D01*
X182275342Y-68314659D01*
X182168997Y-68185078D01*
X182148524Y-68146775D01*
X182089977Y-68037242D01*
X182041314Y-67876823D01*
X182029000Y-67751803D01*
X182029000Y-66868197D01*
X182041313Y-66743178D01*
X182089976Y-66582759D01*
X182168995Y-66434923D01*
X182275341Y-66305341D01*
X182296193Y-66288228D01*
X182404922Y-66198996D01*
X182515906Y-66139674D01*
X182552758Y-66119976D01*
X182713177Y-66071313D01*
X182880000Y-66054883D01*
X183046822Y-66071313D01*
G37*
G36*
X180506822Y-66071313D02*
G01*
X180667241Y-66119976D01*
X180815077Y-66198995D01*
X180923807Y-66288228D01*
X180944659Y-66305341D01*
X181051004Y-66434922D01*
X181051005Y-66434924D01*
X181130024Y-66582758D01*
X181178687Y-66743177D01*
X181191000Y-66868196D01*
X181191000Y-67751803D01*
X181178687Y-67876822D01*
X181130024Y-68037242D01*
X181071477Y-68146775D01*
X181051004Y-68185078D01*
X180944659Y-68314659D01*
X180815078Y-68421004D01*
X180815076Y-68421005D01*
X180667242Y-68500024D01*
X180506823Y-68548687D01*
X180340000Y-68565117D01*
X180173178Y-68548687D01*
X180012759Y-68500024D01*
X179864925Y-68421005D01*
X179864923Y-68421004D01*
X179735342Y-68314659D01*
X179628997Y-68185078D01*
X179608524Y-68146775D01*
X179549977Y-68037242D01*
X179501314Y-67876823D01*
X179489000Y-67751803D01*
X179489000Y-66868197D01*
X179501313Y-66743178D01*
X179549976Y-66582759D01*
X179628995Y-66434923D01*
X179735341Y-66305341D01*
X179756193Y-66288228D01*
X179864922Y-66198996D01*
X179975906Y-66139674D01*
X180012758Y-66119976D01*
X180173177Y-66071313D01*
X180340000Y-66054883D01*
X180506822Y-66071313D01*
G37*
G36*
X177966822Y-66071313D02*
G01*
X178127241Y-66119976D01*
X178275077Y-66198995D01*
X178383807Y-66288228D01*
X178404659Y-66305341D01*
X178511004Y-66434922D01*
X178511005Y-66434924D01*
X178590024Y-66582758D01*
X178638687Y-66743177D01*
X178651000Y-66868196D01*
X178651000Y-67751803D01*
X178638687Y-67876822D01*
X178590024Y-68037242D01*
X178531477Y-68146775D01*
X178511004Y-68185078D01*
X178404659Y-68314659D01*
X178275078Y-68421004D01*
X178275076Y-68421005D01*
X178127242Y-68500024D01*
X177966823Y-68548687D01*
X177800000Y-68565117D01*
X177633178Y-68548687D01*
X177472759Y-68500024D01*
X177324925Y-68421005D01*
X177324923Y-68421004D01*
X177195342Y-68314659D01*
X177088997Y-68185078D01*
X177068524Y-68146775D01*
X177009977Y-68037242D01*
X176961314Y-67876823D01*
X176949000Y-67751803D01*
X176949000Y-66868197D01*
X176961313Y-66743178D01*
X177009976Y-66582759D01*
X177088995Y-66434923D01*
X177195341Y-66305341D01*
X177216193Y-66288228D01*
X177324922Y-66198996D01*
X177435906Y-66139674D01*
X177472758Y-66119976D01*
X177633177Y-66071313D01*
X177800000Y-66054883D01*
X177966822Y-66071313D01*
G37*
G36*
X185586822Y-66071313D02*
G01*
X185747241Y-66119976D01*
X185895077Y-66198995D01*
X186003807Y-66288228D01*
X186024659Y-66305341D01*
X186131004Y-66434922D01*
X186131005Y-66434924D01*
X186210024Y-66582758D01*
X186258687Y-66743177D01*
X186271000Y-66868196D01*
X186271000Y-67751803D01*
X186258687Y-67876822D01*
X186210024Y-68037242D01*
X186151477Y-68146775D01*
X186131004Y-68185078D01*
X186024659Y-68314659D01*
X185895078Y-68421004D01*
X185895076Y-68421005D01*
X185747242Y-68500024D01*
X185586823Y-68548687D01*
X185420000Y-68565117D01*
X185253178Y-68548687D01*
X185092759Y-68500024D01*
X184944925Y-68421005D01*
X184944923Y-68421004D01*
X184815342Y-68314659D01*
X184708997Y-68185078D01*
X184688524Y-68146775D01*
X184629977Y-68037242D01*
X184581314Y-67876823D01*
X184569000Y-67751803D01*
X184569000Y-66868197D01*
X184581313Y-66743178D01*
X184629976Y-66582759D01*
X184708995Y-66434923D01*
X184815341Y-66305341D01*
X184836193Y-66288228D01*
X184944922Y-66198996D01*
X185055906Y-66139674D01*
X185092758Y-66119976D01*
X185253177Y-66071313D01*
X185420000Y-66054883D01*
X185586822Y-66071313D01*
G37*
G36*
X203366823Y-66071313D02*
G01*
X203527242Y-66119976D01*
X203564094Y-66139674D01*
X203675078Y-66198996D01*
X203804659Y-66305341D01*
X203911004Y-66434922D01*
X203911005Y-66434924D01*
X203990024Y-66582758D01*
X204038687Y-66743178D01*
X204051000Y-66868197D01*
X204051000Y-67751804D01*
X204038687Y-67876823D01*
X203990024Y-68037242D01*
X203931477Y-68146775D01*
X203911004Y-68185078D01*
X203805839Y-68313221D01*
X203804659Y-68314659D01*
X203675077Y-68421005D01*
X203527241Y-68500024D01*
X203366822Y-68548687D01*
X203200000Y-68565117D01*
X203033177Y-68548687D01*
X202872758Y-68500024D01*
X202724924Y-68421005D01*
X202724922Y-68421004D01*
X202595341Y-68314659D01*
X202594161Y-68313221D01*
X202488995Y-68185077D01*
X202409976Y-68037241D01*
X202361313Y-67876822D01*
X202349000Y-67751803D01*
X202349000Y-66868197D01*
X202361314Y-66743177D01*
X202409977Y-66582758D01*
X202488996Y-66434924D01*
X202488997Y-66434922D01*
X202595342Y-66305341D01*
X202724923Y-66198996D01*
X202835907Y-66139674D01*
X202872759Y-66119976D01*
X203033178Y-66071313D01*
X203200000Y-66054883D01*
X203366823Y-66071313D01*
G37*
G36*
X205906823Y-66071313D02*
G01*
X206067242Y-66119976D01*
X206104094Y-66139674D01*
X206215078Y-66198996D01*
X206344659Y-66305341D01*
X206451004Y-66434922D01*
X206451005Y-66434924D01*
X206530024Y-66582758D01*
X206578687Y-66743178D01*
X206591000Y-66868197D01*
X206591000Y-67751804D01*
X206578687Y-67876823D01*
X206530024Y-68037242D01*
X206471477Y-68146775D01*
X206451004Y-68185078D01*
X206345839Y-68313221D01*
X206344659Y-68314659D01*
X206215077Y-68421005D01*
X206067241Y-68500024D01*
X205906822Y-68548687D01*
X205740000Y-68565117D01*
X205573177Y-68548687D01*
X205412758Y-68500024D01*
X205264924Y-68421005D01*
X205264922Y-68421004D01*
X205135341Y-68314659D01*
X205134161Y-68313221D01*
X205028995Y-68185077D01*
X204949976Y-68037241D01*
X204901313Y-67876822D01*
X204889000Y-67751803D01*
X204889000Y-66868197D01*
X204901314Y-66743177D01*
X204949977Y-66582758D01*
X205028996Y-66434924D01*
X205028997Y-66434922D01*
X205135342Y-66305341D01*
X205264923Y-66198996D01*
X205375907Y-66139674D01*
X205412759Y-66119976D01*
X205573178Y-66071313D01*
X205740000Y-66054883D01*
X205906823Y-66071313D01*
G37*
G36*
X208446823Y-66071313D02*
G01*
X208607242Y-66119976D01*
X208644094Y-66139674D01*
X208755078Y-66198996D01*
X208884659Y-66305341D01*
X208991004Y-66434922D01*
X208991005Y-66434924D01*
X209070024Y-66582758D01*
X209118687Y-66743178D01*
X209131000Y-66868197D01*
X209131000Y-67751804D01*
X209118687Y-67876823D01*
X209070024Y-68037242D01*
X209011477Y-68146775D01*
X208991004Y-68185078D01*
X208885839Y-68313221D01*
X208884659Y-68314659D01*
X208755077Y-68421005D01*
X208607241Y-68500024D01*
X208446822Y-68548687D01*
X208280000Y-68565117D01*
X208113177Y-68548687D01*
X207952758Y-68500024D01*
X207804924Y-68421005D01*
X207804922Y-68421004D01*
X207675341Y-68314659D01*
X207674161Y-68313221D01*
X207568995Y-68185077D01*
X207489976Y-68037241D01*
X207441313Y-67876822D01*
X207429000Y-67751803D01*
X207429000Y-66868197D01*
X207441314Y-66743177D01*
X207489977Y-66582758D01*
X207568996Y-66434924D01*
X207568997Y-66434922D01*
X207675342Y-66305341D01*
X207804923Y-66198996D01*
X207915907Y-66139674D01*
X207952759Y-66119976D01*
X208113178Y-66071313D01*
X208280000Y-66054883D01*
X208446823Y-66071313D01*
G37*
G36*
X200826823Y-66071313D02*
G01*
X200987242Y-66119976D01*
X201024094Y-66139674D01*
X201135078Y-66198996D01*
X201264659Y-66305341D01*
X201371004Y-66434922D01*
X201371005Y-66434924D01*
X201450024Y-66582758D01*
X201498687Y-66743178D01*
X201511000Y-66868197D01*
X201511000Y-67751804D01*
X201498687Y-67876823D01*
X201450024Y-68037242D01*
X201391477Y-68146775D01*
X201371004Y-68185078D01*
X201265839Y-68313221D01*
X201264659Y-68314659D01*
X201135077Y-68421005D01*
X200987241Y-68500024D01*
X200826822Y-68548687D01*
X200660000Y-68565117D01*
X200493177Y-68548687D01*
X200332758Y-68500024D01*
X200184924Y-68421005D01*
X200184922Y-68421004D01*
X200055341Y-68314659D01*
X200054161Y-68313221D01*
X199948995Y-68185077D01*
X199869976Y-68037241D01*
X199821313Y-67876822D01*
X199809000Y-67751803D01*
X199809000Y-66868197D01*
X199821314Y-66743177D01*
X199869977Y-66582758D01*
X199948996Y-66434924D01*
X199948997Y-66434922D01*
X200055342Y-66305341D01*
X200184923Y-66198996D01*
X200295907Y-66139674D01*
X200332759Y-66119976D01*
X200493178Y-66071313D01*
X200660000Y-66054883D01*
X200826823Y-66071313D01*
G37*
G36*
X198286823Y-66071313D02*
G01*
X198447242Y-66119976D01*
X198484094Y-66139674D01*
X198595078Y-66198996D01*
X198724659Y-66305341D01*
X198831004Y-66434922D01*
X198831005Y-66434924D01*
X198910024Y-66582758D01*
X198958687Y-66743178D01*
X198971000Y-66868197D01*
X198971000Y-67751804D01*
X198958687Y-67876823D01*
X198910024Y-68037242D01*
X198851477Y-68146775D01*
X198831004Y-68185078D01*
X198725839Y-68313221D01*
X198724659Y-68314659D01*
X198595077Y-68421005D01*
X198447241Y-68500024D01*
X198286822Y-68548687D01*
X198120000Y-68565117D01*
X197953177Y-68548687D01*
X197792758Y-68500024D01*
X197644924Y-68421005D01*
X197644922Y-68421004D01*
X197515341Y-68314659D01*
X197514161Y-68313221D01*
X197408995Y-68185077D01*
X197329976Y-68037241D01*
X197281313Y-67876822D01*
X197269000Y-67751803D01*
X197269000Y-66868197D01*
X197281314Y-66743177D01*
X197329977Y-66582758D01*
X197408996Y-66434924D01*
X197408997Y-66434922D01*
X197515342Y-66305341D01*
X197644923Y-66198996D01*
X197755907Y-66139674D01*
X197792759Y-66119976D01*
X197953178Y-66071313D01*
X198120000Y-66054883D01*
X198286823Y-66071313D01*
G37*
G36*
X210986823Y-66071313D02*
G01*
X211147242Y-66119976D01*
X211184094Y-66139674D01*
X211295078Y-66198996D01*
X211424659Y-66305341D01*
X211531004Y-66434922D01*
X211531005Y-66434924D01*
X211610024Y-66582758D01*
X211658687Y-66743178D01*
X211671000Y-66868197D01*
X211671000Y-67751804D01*
X211658687Y-67876823D01*
X211610024Y-68037242D01*
X211551477Y-68146775D01*
X211531004Y-68185078D01*
X211425839Y-68313221D01*
X211424659Y-68314659D01*
X211295077Y-68421005D01*
X211147241Y-68500024D01*
X210986822Y-68548687D01*
X210820000Y-68565117D01*
X210653177Y-68548687D01*
X210492758Y-68500024D01*
X210344924Y-68421005D01*
X210344922Y-68421004D01*
X210215341Y-68314659D01*
X210214161Y-68313221D01*
X210108995Y-68185077D01*
X210029976Y-68037241D01*
X209981313Y-67876822D01*
X209969000Y-67751803D01*
X209969000Y-66868197D01*
X209981314Y-66743177D01*
X210029977Y-66582758D01*
X210108996Y-66434924D01*
X210108997Y-66434922D01*
X210215342Y-66305341D01*
X210344923Y-66198996D01*
X210455907Y-66139674D01*
X210492759Y-66119976D01*
X210653178Y-66071313D01*
X210820000Y-66054883D01*
X210986823Y-66071313D01*
G37*
G36*
X195746823Y-66071313D02*
G01*
X195907242Y-66119976D01*
X195944094Y-66139674D01*
X196055078Y-66198996D01*
X196184659Y-66305341D01*
X196291004Y-66434922D01*
X196291005Y-66434924D01*
X196370024Y-66582758D01*
X196418687Y-66743178D01*
X196431000Y-66868197D01*
X196431000Y-67751804D01*
X196418687Y-67876823D01*
X196370024Y-68037242D01*
X196311477Y-68146775D01*
X196291004Y-68185078D01*
X196185839Y-68313221D01*
X196184659Y-68314659D01*
X196055077Y-68421005D01*
X195907241Y-68500024D01*
X195746822Y-68548687D01*
X195580000Y-68565117D01*
X195413177Y-68548687D01*
X195252758Y-68500024D01*
X195104924Y-68421005D01*
X195104922Y-68421004D01*
X194975341Y-68314659D01*
X194974161Y-68313221D01*
X194868995Y-68185077D01*
X194789976Y-68037241D01*
X194741313Y-67876822D01*
X194729000Y-67751803D01*
X194729000Y-66868197D01*
X194741314Y-66743177D01*
X194789977Y-66582758D01*
X194868996Y-66434924D01*
X194868997Y-66434922D01*
X194975342Y-66305341D01*
X195104923Y-66198996D01*
X195215907Y-66139674D01*
X195252759Y-66119976D01*
X195413178Y-66071313D01*
X195580000Y-66054883D01*
X195746823Y-66071313D01*
G37*
G36*
X213526823Y-66071313D02*
G01*
X213687242Y-66119976D01*
X213724094Y-66139674D01*
X213835078Y-66198996D01*
X213964659Y-66305341D01*
X214071004Y-66434922D01*
X214071005Y-66434924D01*
X214150024Y-66582758D01*
X214198687Y-66743178D01*
X214211000Y-66868197D01*
X214211000Y-67751804D01*
X214198687Y-67876823D01*
X214150024Y-68037242D01*
X214091477Y-68146775D01*
X214071004Y-68185078D01*
X213965839Y-68313221D01*
X213964659Y-68314659D01*
X213835077Y-68421005D01*
X213687241Y-68500024D01*
X213526822Y-68548687D01*
X213360000Y-68565117D01*
X213193177Y-68548687D01*
X213032758Y-68500024D01*
X212884924Y-68421005D01*
X212884922Y-68421004D01*
X212755341Y-68314659D01*
X212754161Y-68313221D01*
X212648995Y-68185077D01*
X212569976Y-68037241D01*
X212521313Y-67876822D01*
X212509000Y-67751803D01*
X212509000Y-66868197D01*
X212521314Y-66743177D01*
X212569977Y-66582758D01*
X212648996Y-66434924D01*
X212648997Y-66434922D01*
X212755342Y-66305341D01*
X212884923Y-66198996D01*
X212995907Y-66139674D01*
X213032759Y-66119976D01*
X213193178Y-66071313D01*
X213360000Y-66054883D01*
X213526823Y-66071313D01*
G37*
G36*
X171031000Y-68561000D02*
G01*
X169329000Y-68561000D01*
X169329000Y-66059000D01*
X171031000Y-66059000D01*
X171031000Y-68561000D01*
G37*
G36*
X236522585Y-63883802D02*
G01*
X236672410Y-63913604D01*
X236954674Y-64030521D01*
X237208705Y-64200259D01*
X237424741Y-64416295D01*
X237594479Y-64670326D01*
X237711396Y-64952590D01*
X237771000Y-65252240D01*
X237771000Y-65557760D01*
X237711396Y-65857410D01*
X237594479Y-66139674D01*
X237424741Y-66393705D01*
X237208705Y-66609741D01*
X236954674Y-66779479D01*
X236672410Y-66896396D01*
X236522585Y-66926198D01*
X236372761Y-66956000D01*
X236067239Y-66956000D01*
X235917415Y-66926198D01*
X235767590Y-66896396D01*
X235485326Y-66779479D01*
X235231295Y-66609741D01*
X235015259Y-66393705D01*
X234845521Y-66139674D01*
X234728604Y-65857410D01*
X234669000Y-65557760D01*
X234669000Y-65252240D01*
X234728604Y-64952590D01*
X234845521Y-64670326D01*
X235015259Y-64416295D01*
X235231295Y-64200259D01*
X235485326Y-64030521D01*
X235767590Y-63913604D01*
X235917415Y-63883802D01*
X236067239Y-63854000D01*
X236372761Y-63854000D01*
X236522585Y-63883802D01*
G37*
G36*
X221831000Y-66891000D02*
G01*
X220129000Y-66891000D01*
X220129000Y-65189000D01*
X221831000Y-65189000D01*
X221831000Y-66891000D01*
G37*
G36*
X228848228Y-65221703D02*
G01*
X229003100Y-65285853D01*
X229142481Y-65378985D01*
X229261015Y-65497519D01*
X229354147Y-65636900D01*
X229418297Y-65791772D01*
X229451000Y-65956184D01*
X229451000Y-66123816D01*
X229418297Y-66288228D01*
X229354147Y-66443100D01*
X229261015Y-66582481D01*
X229142481Y-66701015D01*
X229003100Y-66794147D01*
X228848228Y-66858297D01*
X228683816Y-66891000D01*
X228516184Y-66891000D01*
X228351772Y-66858297D01*
X228196900Y-66794147D01*
X228057519Y-66701015D01*
X227938985Y-66582481D01*
X227845853Y-66443100D01*
X227781703Y-66288228D01*
X227749000Y-66123816D01*
X227749000Y-65956184D01*
X227781703Y-65791772D01*
X227845853Y-65636900D01*
X227938985Y-65497519D01*
X228057519Y-65378985D01*
X228196900Y-65285853D01*
X228351772Y-65221703D01*
X228516184Y-65189000D01*
X228683816Y-65189000D01*
X228848228Y-65221703D01*
G37*
G36*
X236522585Y-58803802D02*
G01*
X236672410Y-58833604D01*
X236954674Y-58950521D01*
X237208705Y-59120259D01*
X237424741Y-59336295D01*
X237594479Y-59590326D01*
X237711396Y-59872590D01*
X237771000Y-60172240D01*
X237771000Y-60477760D01*
X237711396Y-60777410D01*
X237594479Y-61059674D01*
X237424741Y-61313705D01*
X237208705Y-61529741D01*
X236954674Y-61699479D01*
X236672410Y-61816396D01*
X236522585Y-61846198D01*
X236372761Y-61876000D01*
X236067239Y-61876000D01*
X235917415Y-61846198D01*
X235767590Y-61816396D01*
X235485326Y-61699479D01*
X235231295Y-61529741D01*
X235015259Y-61313705D01*
X234845521Y-61059674D01*
X234728604Y-60777410D01*
X234669000Y-60477760D01*
X234669000Y-60172240D01*
X234728604Y-59872590D01*
X234845521Y-59590326D01*
X235015259Y-59336295D01*
X235231295Y-59120259D01*
X235485326Y-58950521D01*
X235767590Y-58833604D01*
X235917415Y-58803802D01*
X236067239Y-58774000D01*
X236372761Y-58774000D01*
X236522585Y-58803802D01*
G37*
G36*
X221228228Y-60141703D02*
G01*
X221383100Y-60205853D01*
X221522481Y-60298985D01*
X221641015Y-60417519D01*
X221734147Y-60556900D01*
X221798297Y-60711772D01*
X221831000Y-60876184D01*
X221831000Y-61043816D01*
X221798297Y-61208228D01*
X221734147Y-61363100D01*
X221641015Y-61502481D01*
X221522481Y-61621015D01*
X221383100Y-61714147D01*
X221228228Y-61778297D01*
X221063816Y-61811000D01*
X220896184Y-61811000D01*
X220731772Y-61778297D01*
X220576900Y-61714147D01*
X220437519Y-61621015D01*
X220318985Y-61502481D01*
X220225853Y-61363100D01*
X220161703Y-61208228D01*
X220129000Y-61043816D01*
X220129000Y-60876184D01*
X220161703Y-60711772D01*
X220225853Y-60556900D01*
X220318985Y-60417519D01*
X220437519Y-60298985D01*
X220576900Y-60205853D01*
X220731772Y-60141703D01*
X220896184Y-60109000D01*
X221063816Y-60109000D01*
X221228228Y-60141703D01*
G37*
G36*
X228848228Y-60141703D02*
G01*
X229003100Y-60205853D01*
X229142481Y-60298985D01*
X229261015Y-60417519D01*
X229354147Y-60556900D01*
X229418297Y-60711772D01*
X229451000Y-60876184D01*
X229451000Y-61043816D01*
X229418297Y-61208228D01*
X229354147Y-61363100D01*
X229261015Y-61502481D01*
X229142481Y-61621015D01*
X229003100Y-61714147D01*
X228848228Y-61778297D01*
X228683816Y-61811000D01*
X228516184Y-61811000D01*
X228351772Y-61778297D01*
X228196900Y-61714147D01*
X228057519Y-61621015D01*
X227938985Y-61502481D01*
X227845853Y-61363100D01*
X227781703Y-61208228D01*
X227749000Y-61043816D01*
X227749000Y-60876184D01*
X227781703Y-60711772D01*
X227845853Y-60556900D01*
X227938985Y-60417519D01*
X228057519Y-60298985D01*
X228196900Y-60205853D01*
X228351772Y-60141703D01*
X228516184Y-60109000D01*
X228683816Y-60109000D01*
X228848228Y-60141703D01*
G37*
G36*
X195746823Y-58451313D02*
G01*
X195907242Y-58499976D01*
X196039906Y-58570886D01*
X196055078Y-58578996D01*
X196184659Y-58685341D01*
X196291004Y-58814922D01*
X196291005Y-58814924D01*
X196370024Y-58962758D01*
X196418687Y-59123178D01*
X196431000Y-59248197D01*
X196431000Y-60131804D01*
X196418687Y-60256823D01*
X196370024Y-60417242D01*
X196369875Y-60417520D01*
X196291004Y-60565078D01*
X196184659Y-60694659D01*
X196055077Y-60801005D01*
X195907241Y-60880024D01*
X195746822Y-60928687D01*
X195580000Y-60945117D01*
X195413177Y-60928687D01*
X195252758Y-60880024D01*
X195104924Y-60801005D01*
X195104922Y-60801004D01*
X194975341Y-60694659D01*
X194868995Y-60565077D01*
X194789976Y-60417241D01*
X194741313Y-60256822D01*
X194729000Y-60131803D01*
X194729000Y-59248197D01*
X194741314Y-59123177D01*
X194789977Y-58962758D01*
X194868996Y-58814924D01*
X194868997Y-58814922D01*
X194975342Y-58685341D01*
X195104923Y-58578996D01*
X195120095Y-58570886D01*
X195252759Y-58499976D01*
X195413178Y-58451313D01*
X195580000Y-58434883D01*
X195746823Y-58451313D01*
G37*
G36*
X198286823Y-58451313D02*
G01*
X198447242Y-58499976D01*
X198579906Y-58570886D01*
X198595078Y-58578996D01*
X198724659Y-58685341D01*
X198831004Y-58814922D01*
X198831005Y-58814924D01*
X198910024Y-58962758D01*
X198958687Y-59123178D01*
X198971000Y-59248197D01*
X198971000Y-60131804D01*
X198958687Y-60256823D01*
X198910024Y-60417242D01*
X198909875Y-60417520D01*
X198831004Y-60565078D01*
X198724659Y-60694659D01*
X198595077Y-60801005D01*
X198447241Y-60880024D01*
X198286822Y-60928687D01*
X198120000Y-60945117D01*
X197953177Y-60928687D01*
X197792758Y-60880024D01*
X197644924Y-60801005D01*
X197644922Y-60801004D01*
X197515341Y-60694659D01*
X197408995Y-60565077D01*
X197329976Y-60417241D01*
X197281313Y-60256822D01*
X197269000Y-60131803D01*
X197269000Y-59248197D01*
X197281314Y-59123177D01*
X197329977Y-58962758D01*
X197408996Y-58814924D01*
X197408997Y-58814922D01*
X197515342Y-58685341D01*
X197644923Y-58578996D01*
X197660095Y-58570886D01*
X197792759Y-58499976D01*
X197953178Y-58451313D01*
X198120000Y-58434883D01*
X198286823Y-58451313D01*
G37*
G36*
X185586822Y-58451313D02*
G01*
X185747241Y-58499976D01*
X185895077Y-58578995D01*
X186024659Y-58685341D01*
X186131004Y-58814922D01*
X186131005Y-58814924D01*
X186210024Y-58962758D01*
X186258687Y-59123177D01*
X186271000Y-59248196D01*
X186271000Y-60131803D01*
X186258687Y-60256822D01*
X186210024Y-60417242D01*
X186209875Y-60417520D01*
X186131004Y-60565078D01*
X186024659Y-60694659D01*
X185895078Y-60801004D01*
X185895076Y-60801005D01*
X185747242Y-60880024D01*
X185586823Y-60928687D01*
X185420000Y-60945117D01*
X185253178Y-60928687D01*
X185092759Y-60880024D01*
X184944925Y-60801005D01*
X184944923Y-60801004D01*
X184815342Y-60694659D01*
X184708997Y-60565078D01*
X184630126Y-60417520D01*
X184629977Y-60417242D01*
X184581314Y-60256823D01*
X184569000Y-60131803D01*
X184569000Y-59248197D01*
X184581313Y-59123178D01*
X184629976Y-58962759D01*
X184708995Y-58814923D01*
X184815341Y-58685341D01*
X184944922Y-58578996D01*
X184960094Y-58570886D01*
X185092758Y-58499976D01*
X185253177Y-58451313D01*
X185420000Y-58434883D01*
X185586822Y-58451313D01*
G37*
G36*
X200826823Y-58451313D02*
G01*
X200987242Y-58499976D01*
X201119906Y-58570886D01*
X201135078Y-58578996D01*
X201264659Y-58685341D01*
X201371004Y-58814922D01*
X201371005Y-58814924D01*
X201450024Y-58962758D01*
X201498687Y-59123178D01*
X201511000Y-59248197D01*
X201511000Y-60131804D01*
X201498687Y-60256823D01*
X201450024Y-60417242D01*
X201449875Y-60417520D01*
X201371004Y-60565078D01*
X201264659Y-60694659D01*
X201135077Y-60801005D01*
X200987241Y-60880024D01*
X200826822Y-60928687D01*
X200660000Y-60945117D01*
X200493177Y-60928687D01*
X200332758Y-60880024D01*
X200184924Y-60801005D01*
X200184922Y-60801004D01*
X200055341Y-60694659D01*
X199948995Y-60565077D01*
X199869976Y-60417241D01*
X199821313Y-60256822D01*
X199809000Y-60131803D01*
X199809000Y-59248197D01*
X199821314Y-59123177D01*
X199869977Y-58962758D01*
X199948996Y-58814924D01*
X199948997Y-58814922D01*
X200055342Y-58685341D01*
X200184923Y-58578996D01*
X200200095Y-58570886D01*
X200332759Y-58499976D01*
X200493178Y-58451313D01*
X200660000Y-58434883D01*
X200826823Y-58451313D01*
G37*
G36*
X203366823Y-58451313D02*
G01*
X203527242Y-58499976D01*
X203659906Y-58570886D01*
X203675078Y-58578996D01*
X203804659Y-58685341D01*
X203911004Y-58814922D01*
X203911005Y-58814924D01*
X203990024Y-58962758D01*
X204038687Y-59123178D01*
X204051000Y-59248197D01*
X204051000Y-60131804D01*
X204038687Y-60256823D01*
X203990024Y-60417242D01*
X203989875Y-60417520D01*
X203911004Y-60565078D01*
X203804659Y-60694659D01*
X203675077Y-60801005D01*
X203527241Y-60880024D01*
X203366822Y-60928687D01*
X203200000Y-60945117D01*
X203033177Y-60928687D01*
X202872758Y-60880024D01*
X202724924Y-60801005D01*
X202724922Y-60801004D01*
X202595341Y-60694659D01*
X202488995Y-60565077D01*
X202409976Y-60417241D01*
X202361313Y-60256822D01*
X202349000Y-60131803D01*
X202349000Y-59248197D01*
X202361314Y-59123177D01*
X202409977Y-58962758D01*
X202488996Y-58814924D01*
X202488997Y-58814922D01*
X202595342Y-58685341D01*
X202724923Y-58578996D01*
X202740095Y-58570886D01*
X202872759Y-58499976D01*
X203033178Y-58451313D01*
X203200000Y-58434883D01*
X203366823Y-58451313D01*
G37*
G36*
X205906823Y-58451313D02*
G01*
X206067242Y-58499976D01*
X206199906Y-58570886D01*
X206215078Y-58578996D01*
X206344659Y-58685341D01*
X206451004Y-58814922D01*
X206451005Y-58814924D01*
X206530024Y-58962758D01*
X206578687Y-59123178D01*
X206591000Y-59248197D01*
X206591000Y-60131804D01*
X206578687Y-60256823D01*
X206530024Y-60417242D01*
X206529875Y-60417520D01*
X206451004Y-60565078D01*
X206344659Y-60694659D01*
X206215077Y-60801005D01*
X206067241Y-60880024D01*
X205906822Y-60928687D01*
X205740000Y-60945117D01*
X205573177Y-60928687D01*
X205412758Y-60880024D01*
X205264924Y-60801005D01*
X205264922Y-60801004D01*
X205135341Y-60694659D01*
X205028995Y-60565077D01*
X204949976Y-60417241D01*
X204901313Y-60256822D01*
X204889000Y-60131803D01*
X204889000Y-59248197D01*
X204901314Y-59123177D01*
X204949977Y-58962758D01*
X205028996Y-58814924D01*
X205028997Y-58814922D01*
X205135342Y-58685341D01*
X205264923Y-58578996D01*
X205280095Y-58570886D01*
X205412759Y-58499976D01*
X205573178Y-58451313D01*
X205740000Y-58434883D01*
X205906823Y-58451313D01*
G37*
G36*
X208446823Y-58451313D02*
G01*
X208607242Y-58499976D01*
X208739906Y-58570886D01*
X208755078Y-58578996D01*
X208884659Y-58685341D01*
X208991004Y-58814922D01*
X208991005Y-58814924D01*
X209070024Y-58962758D01*
X209118687Y-59123178D01*
X209131000Y-59248197D01*
X209131000Y-60131804D01*
X209118687Y-60256823D01*
X209070024Y-60417242D01*
X209069875Y-60417520D01*
X208991004Y-60565078D01*
X208884659Y-60694659D01*
X208755077Y-60801005D01*
X208607241Y-60880024D01*
X208446822Y-60928687D01*
X208280000Y-60945117D01*
X208113177Y-60928687D01*
X207952758Y-60880024D01*
X207804924Y-60801005D01*
X207804922Y-60801004D01*
X207675341Y-60694659D01*
X207568995Y-60565077D01*
X207489976Y-60417241D01*
X207441313Y-60256822D01*
X207429000Y-60131803D01*
X207429000Y-59248197D01*
X207441314Y-59123177D01*
X207489977Y-58962758D01*
X207568996Y-58814924D01*
X207568997Y-58814922D01*
X207675342Y-58685341D01*
X207804923Y-58578996D01*
X207820095Y-58570886D01*
X207952759Y-58499976D01*
X208113178Y-58451313D01*
X208280000Y-58434883D01*
X208446823Y-58451313D01*
G37*
G36*
X210986823Y-58451313D02*
G01*
X211147242Y-58499976D01*
X211279906Y-58570886D01*
X211295078Y-58578996D01*
X211424659Y-58685341D01*
X211531004Y-58814922D01*
X211531005Y-58814924D01*
X211610024Y-58962758D01*
X211658687Y-59123178D01*
X211671000Y-59248197D01*
X211671000Y-60131804D01*
X211658687Y-60256823D01*
X211610024Y-60417242D01*
X211609875Y-60417520D01*
X211531004Y-60565078D01*
X211424659Y-60694659D01*
X211295077Y-60801005D01*
X211147241Y-60880024D01*
X210986822Y-60928687D01*
X210820000Y-60945117D01*
X210653177Y-60928687D01*
X210492758Y-60880024D01*
X210344924Y-60801005D01*
X210344922Y-60801004D01*
X210215341Y-60694659D01*
X210108995Y-60565077D01*
X210029976Y-60417241D01*
X209981313Y-60256822D01*
X209969000Y-60131803D01*
X209969000Y-59248197D01*
X209981314Y-59123177D01*
X210029977Y-58962758D01*
X210108996Y-58814924D01*
X210108997Y-58814922D01*
X210215342Y-58685341D01*
X210344923Y-58578996D01*
X210360095Y-58570886D01*
X210492759Y-58499976D01*
X210653178Y-58451313D01*
X210820000Y-58434883D01*
X210986823Y-58451313D01*
G37*
G36*
X172886822Y-58451313D02*
G01*
X173047241Y-58499976D01*
X173195077Y-58578995D01*
X173324659Y-58685341D01*
X173431004Y-58814922D01*
X173431005Y-58814924D01*
X173510024Y-58962758D01*
X173558687Y-59123177D01*
X173571000Y-59248196D01*
X173571000Y-60131803D01*
X173558687Y-60256822D01*
X173510024Y-60417242D01*
X173509875Y-60417520D01*
X173431004Y-60565078D01*
X173324659Y-60694659D01*
X173195078Y-60801004D01*
X173195076Y-60801005D01*
X173047242Y-60880024D01*
X172886823Y-60928687D01*
X172720000Y-60945117D01*
X172553178Y-60928687D01*
X172392759Y-60880024D01*
X172244925Y-60801005D01*
X172244923Y-60801004D01*
X172115342Y-60694659D01*
X172008997Y-60565078D01*
X171930126Y-60417520D01*
X171929977Y-60417242D01*
X171881314Y-60256823D01*
X171869000Y-60131803D01*
X171869000Y-59248197D01*
X171881313Y-59123178D01*
X171929976Y-58962759D01*
X172008995Y-58814923D01*
X172115341Y-58685341D01*
X172244922Y-58578996D01*
X172260094Y-58570886D01*
X172392758Y-58499976D01*
X172553177Y-58451313D01*
X172720000Y-58434883D01*
X172886822Y-58451313D01*
G37*
G36*
X175426822Y-58451313D02*
G01*
X175587241Y-58499976D01*
X175735077Y-58578995D01*
X175864659Y-58685341D01*
X175971004Y-58814922D01*
X175971005Y-58814924D01*
X176050024Y-58962758D01*
X176098687Y-59123177D01*
X176111000Y-59248196D01*
X176111000Y-60131803D01*
X176098687Y-60256822D01*
X176050024Y-60417242D01*
X176049875Y-60417520D01*
X175971004Y-60565078D01*
X175864659Y-60694659D01*
X175735078Y-60801004D01*
X175735076Y-60801005D01*
X175587242Y-60880024D01*
X175426823Y-60928687D01*
X175260000Y-60945117D01*
X175093178Y-60928687D01*
X174932759Y-60880024D01*
X174784925Y-60801005D01*
X174784923Y-60801004D01*
X174655342Y-60694659D01*
X174548997Y-60565078D01*
X174470126Y-60417520D01*
X174469977Y-60417242D01*
X174421314Y-60256823D01*
X174409000Y-60131803D01*
X174409000Y-59248197D01*
X174421313Y-59123178D01*
X174469976Y-58962759D01*
X174548995Y-58814923D01*
X174655341Y-58685341D01*
X174784922Y-58578996D01*
X174800094Y-58570886D01*
X174932758Y-58499976D01*
X175093177Y-58451313D01*
X175260000Y-58434883D01*
X175426822Y-58451313D01*
G37*
G36*
X177966822Y-58451313D02*
G01*
X178127241Y-58499976D01*
X178275077Y-58578995D01*
X178404659Y-58685341D01*
X178511004Y-58814922D01*
X178511005Y-58814924D01*
X178590024Y-58962758D01*
X178638687Y-59123177D01*
X178651000Y-59248196D01*
X178651000Y-60131803D01*
X178638687Y-60256822D01*
X178590024Y-60417242D01*
X178589875Y-60417520D01*
X178511004Y-60565078D01*
X178404659Y-60694659D01*
X178275078Y-60801004D01*
X178275076Y-60801005D01*
X178127242Y-60880024D01*
X177966823Y-60928687D01*
X177800000Y-60945117D01*
X177633178Y-60928687D01*
X177472759Y-60880024D01*
X177324925Y-60801005D01*
X177324923Y-60801004D01*
X177195342Y-60694659D01*
X177088997Y-60565078D01*
X177010126Y-60417520D01*
X177009977Y-60417242D01*
X176961314Y-60256823D01*
X176949000Y-60131803D01*
X176949000Y-59248197D01*
X176961313Y-59123178D01*
X177009976Y-58962759D01*
X177088995Y-58814923D01*
X177195341Y-58685341D01*
X177324922Y-58578996D01*
X177340094Y-58570886D01*
X177472758Y-58499976D01*
X177633177Y-58451313D01*
X177800000Y-58434883D01*
X177966822Y-58451313D01*
G37*
G36*
X188126822Y-58451313D02*
G01*
X188287241Y-58499976D01*
X188435077Y-58578995D01*
X188564659Y-58685341D01*
X188671004Y-58814922D01*
X188671005Y-58814924D01*
X188750024Y-58962758D01*
X188798687Y-59123177D01*
X188811000Y-59248196D01*
X188811000Y-60131803D01*
X188798687Y-60256822D01*
X188750024Y-60417242D01*
X188749875Y-60417520D01*
X188671004Y-60565078D01*
X188564659Y-60694659D01*
X188435078Y-60801004D01*
X188435076Y-60801005D01*
X188287242Y-60880024D01*
X188126823Y-60928687D01*
X187960000Y-60945117D01*
X187793178Y-60928687D01*
X187632759Y-60880024D01*
X187484925Y-60801005D01*
X187484923Y-60801004D01*
X187355342Y-60694659D01*
X187248997Y-60565078D01*
X187170126Y-60417520D01*
X187169977Y-60417242D01*
X187121314Y-60256823D01*
X187109000Y-60131803D01*
X187109000Y-59248197D01*
X187121313Y-59123178D01*
X187169976Y-58962759D01*
X187248995Y-58814923D01*
X187355341Y-58685341D01*
X187484922Y-58578996D01*
X187500094Y-58570886D01*
X187632758Y-58499976D01*
X187793177Y-58451313D01*
X187960000Y-58434883D01*
X188126822Y-58451313D01*
G37*
G36*
X183046822Y-58451313D02*
G01*
X183207241Y-58499976D01*
X183355077Y-58578995D01*
X183484659Y-58685341D01*
X183591004Y-58814922D01*
X183591005Y-58814924D01*
X183670024Y-58962758D01*
X183718687Y-59123177D01*
X183731000Y-59248196D01*
X183731000Y-60131803D01*
X183718687Y-60256822D01*
X183670024Y-60417242D01*
X183669875Y-60417520D01*
X183591004Y-60565078D01*
X183484659Y-60694659D01*
X183355078Y-60801004D01*
X183355076Y-60801005D01*
X183207242Y-60880024D01*
X183046823Y-60928687D01*
X182880000Y-60945117D01*
X182713178Y-60928687D01*
X182552759Y-60880024D01*
X182404925Y-60801005D01*
X182404923Y-60801004D01*
X182275342Y-60694659D01*
X182168997Y-60565078D01*
X182090126Y-60417520D01*
X182089977Y-60417242D01*
X182041314Y-60256823D01*
X182029000Y-60131803D01*
X182029000Y-59248197D01*
X182041313Y-59123178D01*
X182089976Y-58962759D01*
X182168995Y-58814923D01*
X182275341Y-58685341D01*
X182404922Y-58578996D01*
X182420094Y-58570886D01*
X182552758Y-58499976D01*
X182713177Y-58451313D01*
X182880000Y-58434883D01*
X183046822Y-58451313D01*
G37*
G36*
X180506822Y-58451313D02*
G01*
X180667241Y-58499976D01*
X180815077Y-58578995D01*
X180944659Y-58685341D01*
X181051004Y-58814922D01*
X181051005Y-58814924D01*
X181130024Y-58962758D01*
X181178687Y-59123177D01*
X181191000Y-59248196D01*
X181191000Y-60131803D01*
X181178687Y-60256822D01*
X181130024Y-60417242D01*
X181129875Y-60417520D01*
X181051004Y-60565078D01*
X180944659Y-60694659D01*
X180815078Y-60801004D01*
X180815076Y-60801005D01*
X180667242Y-60880024D01*
X180506823Y-60928687D01*
X180340000Y-60945117D01*
X180173178Y-60928687D01*
X180012759Y-60880024D01*
X179864925Y-60801005D01*
X179864923Y-60801004D01*
X179735342Y-60694659D01*
X179628997Y-60565078D01*
X179550126Y-60417520D01*
X179549977Y-60417242D01*
X179501314Y-60256823D01*
X179489000Y-60131803D01*
X179489000Y-59248197D01*
X179501313Y-59123178D01*
X179549976Y-58962759D01*
X179628995Y-58814923D01*
X179735341Y-58685341D01*
X179864922Y-58578996D01*
X179880094Y-58570886D01*
X180012758Y-58499976D01*
X180173177Y-58451313D01*
X180340000Y-58434883D01*
X180506822Y-58451313D01*
G37*
G36*
X170346822Y-58451313D02*
G01*
X170507241Y-58499976D01*
X170655077Y-58578995D01*
X170784659Y-58685341D01*
X170891004Y-58814922D01*
X170891005Y-58814924D01*
X170970024Y-58962758D01*
X171018687Y-59123177D01*
X171031000Y-59248196D01*
X171031000Y-60131803D01*
X171018687Y-60256822D01*
X170970024Y-60417242D01*
X170969875Y-60417520D01*
X170891004Y-60565078D01*
X170784659Y-60694659D01*
X170655078Y-60801004D01*
X170655076Y-60801005D01*
X170507242Y-60880024D01*
X170346823Y-60928687D01*
X170180000Y-60945117D01*
X170013178Y-60928687D01*
X169852759Y-60880024D01*
X169704925Y-60801005D01*
X169704923Y-60801004D01*
X169575342Y-60694659D01*
X169468997Y-60565078D01*
X169390126Y-60417520D01*
X169389977Y-60417242D01*
X169341314Y-60256823D01*
X169329000Y-60131803D01*
X169329000Y-59248197D01*
X169341313Y-59123178D01*
X169389976Y-58962759D01*
X169468995Y-58814923D01*
X169575341Y-58685341D01*
X169704922Y-58578996D01*
X169720094Y-58570886D01*
X169852758Y-58499976D01*
X170013177Y-58451313D01*
X170180000Y-58434883D01*
X170346822Y-58451313D01*
G37*
G36*
X214211000Y-60941000D02*
G01*
X212509000Y-60941000D01*
X212509000Y-58439000D01*
X214211000Y-58439000D01*
X214211000Y-60941000D01*
G37*
G36*
X237771000Y-56796000D02*
G01*
X234669000Y-56796000D01*
X234669000Y-53694000D01*
X237771000Y-53694000D01*
X237771000Y-56796000D01*
G37*
G36*
X159016778Y-55000547D02*
G01*
X159183224Y-55069491D01*
X159333022Y-55169583D01*
X159460417Y-55296978D01*
X159560509Y-55446776D01*
X159629453Y-55613222D01*
X159664600Y-55789918D01*
X159664600Y-55970082D01*
X159629453Y-56146778D01*
X159560509Y-56313224D01*
X159460417Y-56463022D01*
X159333022Y-56590417D01*
X159183224Y-56690509D01*
X159016778Y-56759453D01*
X158840082Y-56794600D01*
X158659918Y-56794600D01*
X158483222Y-56759453D01*
X158316776Y-56690509D01*
X158166978Y-56590417D01*
X158039583Y-56463022D01*
X157939491Y-56313224D01*
X157870547Y-56146778D01*
X157835400Y-55970082D01*
X157835400Y-55789918D01*
X157870547Y-55613222D01*
X157939491Y-55446776D01*
X158039583Y-55296978D01*
X158166978Y-55169583D01*
X158316776Y-55069491D01*
X158483222Y-55000547D01*
X158659918Y-54965400D01*
X158840082Y-54965400D01*
X159016778Y-55000547D01*
G37*
G36*
X156476778Y-55000547D02*
G01*
X156643224Y-55069491D01*
X156793022Y-55169583D01*
X156920417Y-55296978D01*
X157020509Y-55446776D01*
X157089453Y-55613222D01*
X157124600Y-55789918D01*
X157124600Y-55970082D01*
X157089453Y-56146778D01*
X157020509Y-56313224D01*
X156920417Y-56463022D01*
X156793022Y-56590417D01*
X156643224Y-56690509D01*
X156476778Y-56759453D01*
X156300082Y-56794600D01*
X156119918Y-56794600D01*
X155943222Y-56759453D01*
X155776776Y-56690509D01*
X155626978Y-56590417D01*
X155499583Y-56463022D01*
X155399491Y-56313224D01*
X155330547Y-56146778D01*
X155295400Y-55970082D01*
X155295400Y-55789918D01*
X155330547Y-55613222D01*
X155399491Y-55446776D01*
X155499583Y-55296978D01*
X155626978Y-55169583D01*
X155776776Y-55069491D01*
X155943222Y-55000547D01*
X156119918Y-54965400D01*
X156300082Y-54965400D01*
X156476778Y-55000547D01*
G37*
G36*
X228848228Y-55061703D02*
G01*
X229003100Y-55125853D01*
X229142481Y-55218985D01*
X229261015Y-55337519D01*
X229354147Y-55476900D01*
X229418297Y-55631772D01*
X229451000Y-55796184D01*
X229451000Y-55963816D01*
X229418297Y-56128228D01*
X229354147Y-56283100D01*
X229261015Y-56422481D01*
X229142481Y-56541015D01*
X229003100Y-56634147D01*
X228848228Y-56698297D01*
X228683816Y-56731000D01*
X228516184Y-56731000D01*
X228351772Y-56698297D01*
X228196900Y-56634147D01*
X228057519Y-56541015D01*
X227938985Y-56422481D01*
X227845853Y-56283100D01*
X227781703Y-56128228D01*
X227749000Y-55963816D01*
X227749000Y-55796184D01*
X227781703Y-55631772D01*
X227845853Y-55476900D01*
X227938985Y-55337519D01*
X228057519Y-55218985D01*
X228196900Y-55125853D01*
X228351772Y-55061703D01*
X228516184Y-55029000D01*
X228683816Y-55029000D01*
X228848228Y-55061703D01*
G37*
G36*
X221831000Y-56731000D02*
G01*
X220129000Y-56731000D01*
X220129000Y-55029000D01*
X221831000Y-55029000D01*
X221831000Y-56731000D01*
G37*
G36*
X177086000Y-55896000D02*
G01*
X175784000Y-55896000D01*
X175784000Y-54594000D01*
X177086000Y-54594000D01*
X177086000Y-55896000D01*
G37*
G36*
X178624890Y-54619017D02*
G01*
X178665927Y-54636015D01*
X178743364Y-54668091D01*
X178834741Y-54729147D01*
X178849988Y-54739335D01*
X178940665Y-54830012D01*
X179011910Y-54936638D01*
X179060983Y-55055110D01*
X179086000Y-55180881D01*
X179086000Y-55309119D01*
X179060983Y-55434890D01*
X179043581Y-55476903D01*
X179011909Y-55553364D01*
X178940665Y-55659988D01*
X178849988Y-55750665D01*
X178743364Y-55821909D01*
X178743363Y-55821910D01*
X178743362Y-55821910D01*
X178624890Y-55870983D01*
X178499119Y-55896000D01*
X178370881Y-55896000D01*
X178245110Y-55870983D01*
X178126638Y-55821910D01*
X178126637Y-55821910D01*
X178126636Y-55821909D01*
X178020012Y-55750665D01*
X177929335Y-55659988D01*
X177858091Y-55553364D01*
X177826420Y-55476903D01*
X177809017Y-55434890D01*
X177784000Y-55309119D01*
X177784000Y-55180881D01*
X177809017Y-55055110D01*
X177858090Y-54936638D01*
X177929335Y-54830012D01*
X178020012Y-54739335D01*
X178035259Y-54729147D01*
X178126636Y-54668091D01*
X178204074Y-54636015D01*
X178245110Y-54619017D01*
X178370881Y-54594000D01*
X178499119Y-54594000D01*
X178624890Y-54619017D01*
G37*
G36*
X202773228Y-53156703D02*
G01*
X202928100Y-53220853D01*
X203067481Y-53313985D01*
X203186015Y-53432519D01*
X203279147Y-53571900D01*
X203343297Y-53726772D01*
X203376000Y-53891184D01*
X203376000Y-54058816D01*
X203343297Y-54223228D01*
X203279147Y-54378100D01*
X203186015Y-54517481D01*
X203067481Y-54636015D01*
X202928100Y-54729147D01*
X202773228Y-54793297D01*
X202608816Y-54826000D01*
X202441184Y-54826000D01*
X202276772Y-54793297D01*
X202121900Y-54729147D01*
X201982519Y-54636015D01*
X201863985Y-54517481D01*
X201770853Y-54378100D01*
X201706703Y-54223228D01*
X201674000Y-54058816D01*
X201674000Y-53891184D01*
X201706703Y-53726772D01*
X201770853Y-53571900D01*
X201863985Y-53432519D01*
X201982519Y-53313985D01*
X202121900Y-53220853D01*
X202276772Y-53156703D01*
X202441184Y-53124000D01*
X202608816Y-53124000D01*
X202773228Y-53156703D01*
G37*
G36*
X200876000Y-54826000D02*
G01*
X199174000Y-54826000D01*
X199174000Y-53124000D01*
X200876000Y-53124000D01*
X200876000Y-54826000D01*
G37*
G36*
X156476778Y-52460547D02*
G01*
X156643224Y-52529491D01*
X156793022Y-52629583D01*
X156920417Y-52756978D01*
X157020509Y-52906776D01*
X157089453Y-53073222D01*
X157124600Y-53249918D01*
X157124600Y-53430082D01*
X157089453Y-53606778D01*
X157020509Y-53773224D01*
X156920417Y-53923022D01*
X156793022Y-54050417D01*
X156643224Y-54150509D01*
X156476778Y-54219453D01*
X156300082Y-54254600D01*
X156119918Y-54254600D01*
X155943222Y-54219453D01*
X155776776Y-54150509D01*
X155626978Y-54050417D01*
X155499583Y-53923022D01*
X155399491Y-53773224D01*
X155330547Y-53606778D01*
X155295400Y-53430082D01*
X155295400Y-53249918D01*
X155330547Y-53073222D01*
X155399491Y-52906776D01*
X155499583Y-52756978D01*
X155626978Y-52629583D01*
X155776776Y-52529491D01*
X155943222Y-52460547D01*
X156119918Y-52425400D01*
X156300082Y-52425400D01*
X156476778Y-52460547D01*
G37*
G36*
X159016778Y-52460547D02*
G01*
X159183224Y-52529491D01*
X159333022Y-52629583D01*
X159460417Y-52756978D01*
X159560509Y-52906776D01*
X159629453Y-53073222D01*
X159664600Y-53249918D01*
X159664600Y-53430082D01*
X159629453Y-53606778D01*
X159560509Y-53773224D01*
X159460417Y-53923022D01*
X159333022Y-54050417D01*
X159183224Y-54150509D01*
X159016778Y-54219453D01*
X158840082Y-54254600D01*
X158659918Y-54254600D01*
X158483222Y-54219453D01*
X158316776Y-54150509D01*
X158166978Y-54050417D01*
X158039583Y-53923022D01*
X157939491Y-53773224D01*
X157870547Y-53606778D01*
X157835400Y-53430082D01*
X157835400Y-53249918D01*
X157870547Y-53073222D01*
X157939491Y-52906776D01*
X158039583Y-52756978D01*
X158166978Y-52629583D01*
X158316776Y-52529491D01*
X158483222Y-52460547D01*
X158659918Y-52425400D01*
X158840082Y-52425400D01*
X159016778Y-52460547D01*
G37*
G36*
X209566000Y-53991000D02*
G01*
X208264000Y-53991000D01*
X208264000Y-52689000D01*
X209566000Y-52689000D01*
X209566000Y-53991000D01*
G37*
G36*
X211104890Y-52714017D02*
G01*
X211223364Y-52763091D01*
X211329988Y-52834335D01*
X211420665Y-52925012D01*
X211491910Y-53031638D01*
X211540983Y-53150110D01*
X211566000Y-53275881D01*
X211566000Y-53404119D01*
X211540983Y-53529890D01*
X211523581Y-53571903D01*
X211491909Y-53648364D01*
X211420665Y-53754988D01*
X211329988Y-53845665D01*
X211223364Y-53916909D01*
X211223363Y-53916910D01*
X211223362Y-53916910D01*
X211104890Y-53965983D01*
X210979119Y-53991000D01*
X210850881Y-53991000D01*
X210725110Y-53965983D01*
X210606638Y-53916910D01*
X210606637Y-53916910D01*
X210606636Y-53916909D01*
X210500012Y-53845665D01*
X210409335Y-53754988D01*
X210338091Y-53648364D01*
X210306420Y-53571903D01*
X210289017Y-53529890D01*
X210264000Y-53404119D01*
X210264000Y-53275881D01*
X210289017Y-53150110D01*
X210338090Y-53031638D01*
X210409335Y-52925012D01*
X210500012Y-52834335D01*
X210606636Y-52763091D01*
X210725110Y-52714017D01*
X210850881Y-52689000D01*
X210979119Y-52689000D01*
X211104890Y-52714017D01*
G37*
G36*
X156476778Y-49920547D02*
G01*
X156643224Y-49989491D01*
X156793022Y-50089583D01*
X156920417Y-50216978D01*
X157020509Y-50366776D01*
X157089453Y-50533222D01*
X157124600Y-50709918D01*
X157124600Y-50890082D01*
X157089453Y-51066778D01*
X157020509Y-51233224D01*
X156920417Y-51383022D01*
X156793022Y-51510417D01*
X156643224Y-51610509D01*
X156476778Y-51679453D01*
X156300082Y-51714600D01*
X156119918Y-51714600D01*
X155943222Y-51679453D01*
X155776776Y-51610509D01*
X155626978Y-51510417D01*
X155499583Y-51383022D01*
X155399491Y-51233224D01*
X155330547Y-51066778D01*
X155295400Y-50890082D01*
X155295400Y-50709918D01*
X155330547Y-50533222D01*
X155399491Y-50366776D01*
X155499583Y-50216978D01*
X155626978Y-50089583D01*
X155776776Y-49989491D01*
X155943222Y-49920547D01*
X156119918Y-49885400D01*
X156300082Y-49885400D01*
X156476778Y-49920547D01*
G37*
G36*
X159016778Y-49920547D02*
G01*
X159183224Y-49989491D01*
X159333022Y-50089583D01*
X159460417Y-50216978D01*
X159560509Y-50366776D01*
X159629453Y-50533222D01*
X159664600Y-50709918D01*
X159664600Y-50890082D01*
X159629453Y-51066778D01*
X159560509Y-51233224D01*
X159460417Y-51383022D01*
X159333022Y-51510417D01*
X159183224Y-51610509D01*
X159016778Y-51679453D01*
X158840082Y-51714600D01*
X158659918Y-51714600D01*
X158483222Y-51679453D01*
X158316776Y-51610509D01*
X158166978Y-51510417D01*
X158039583Y-51383022D01*
X157939491Y-51233224D01*
X157870547Y-51066778D01*
X157835400Y-50890082D01*
X157835400Y-50709918D01*
X157870547Y-50533222D01*
X157939491Y-50366776D01*
X158039583Y-50216978D01*
X158166978Y-50089583D01*
X158316776Y-49989491D01*
X158483222Y-49920547D01*
X158659918Y-49885400D01*
X158840082Y-49885400D01*
X159016778Y-49920547D01*
G37*
G36*
X228848228Y-49981703D02*
G01*
X229003100Y-50045853D01*
X229142481Y-50138985D01*
X229261015Y-50257519D01*
X229354147Y-50396900D01*
X229418297Y-50551772D01*
X229451000Y-50716184D01*
X229451000Y-50883816D01*
X229418297Y-51048228D01*
X229354147Y-51203100D01*
X229261015Y-51342481D01*
X229142481Y-51461015D01*
X229003100Y-51554147D01*
X228848228Y-51618297D01*
X228683816Y-51651000D01*
X228516184Y-51651000D01*
X228351772Y-51618297D01*
X228196900Y-51554147D01*
X228057519Y-51461015D01*
X227938985Y-51342481D01*
X227845853Y-51203100D01*
X227781703Y-51048228D01*
X227749000Y-50883816D01*
X227749000Y-50716184D01*
X227781703Y-50551772D01*
X227845853Y-50396900D01*
X227938985Y-50257519D01*
X228057519Y-50138985D01*
X228196900Y-50045853D01*
X228351772Y-49981703D01*
X228516184Y-49949000D01*
X228683816Y-49949000D01*
X228848228Y-49981703D01*
G37*
G36*
X221228228Y-49981703D02*
G01*
X221383100Y-50045853D01*
X221522481Y-50138985D01*
X221641015Y-50257519D01*
X221734147Y-50396900D01*
X221798297Y-50551772D01*
X221831000Y-50716184D01*
X221831000Y-50883816D01*
X221798297Y-51048228D01*
X221734147Y-51203100D01*
X221641015Y-51342481D01*
X221522481Y-51461015D01*
X221383100Y-51554147D01*
X221228228Y-51618297D01*
X221063816Y-51651000D01*
X220896184Y-51651000D01*
X220731772Y-51618297D01*
X220576900Y-51554147D01*
X220437519Y-51461015D01*
X220318985Y-51342481D01*
X220225853Y-51203100D01*
X220161703Y-51048228D01*
X220129000Y-50883816D01*
X220129000Y-50716184D01*
X220161703Y-50551772D01*
X220225853Y-50396900D01*
X220318985Y-50257519D01*
X220437519Y-50138985D01*
X220576900Y-50045853D01*
X220731772Y-49981703D01*
X220896184Y-49949000D01*
X221063816Y-49949000D01*
X221228228Y-49981703D01*
G37*
G36*
X236522585Y-47373802D02*
G01*
X236672410Y-47403604D01*
X236954674Y-47520521D01*
X237208705Y-47690259D01*
X237424741Y-47906295D01*
X237594479Y-48160326D01*
X237711396Y-48442590D01*
X237771000Y-48742240D01*
X237771000Y-49047760D01*
X237711396Y-49347410D01*
X237594479Y-49629674D01*
X237424741Y-49883705D01*
X237208705Y-50099741D01*
X236954674Y-50269479D01*
X236672410Y-50386396D01*
X236522585Y-50416198D01*
X236372761Y-50446000D01*
X236067239Y-50446000D01*
X235917415Y-50416198D01*
X235767590Y-50386396D01*
X235485326Y-50269479D01*
X235231295Y-50099741D01*
X235015259Y-49883705D01*
X234845521Y-49629674D01*
X234728604Y-49347410D01*
X234669000Y-49047760D01*
X234669000Y-48742240D01*
X234728604Y-48442590D01*
X234845521Y-48160326D01*
X235015259Y-47906295D01*
X235231295Y-47690259D01*
X235485326Y-47520521D01*
X235767590Y-47403604D01*
X235917415Y-47373802D01*
X236067239Y-47344000D01*
X236372761Y-47344000D01*
X236522585Y-47373802D01*
G37*
G36*
X156476778Y-47380547D02*
G01*
X156643224Y-47449491D01*
X156793022Y-47549583D01*
X156920417Y-47676978D01*
X157020509Y-47826776D01*
X157089453Y-47993222D01*
X157124600Y-48169918D01*
X157124600Y-48350082D01*
X157089453Y-48526778D01*
X157020509Y-48693224D01*
X156920417Y-48843022D01*
X156793022Y-48970417D01*
X156643224Y-49070509D01*
X156476778Y-49139453D01*
X156300082Y-49174600D01*
X156119918Y-49174600D01*
X155943222Y-49139453D01*
X155776776Y-49070509D01*
X155626978Y-48970417D01*
X155499583Y-48843022D01*
X155399491Y-48693224D01*
X155330547Y-48526778D01*
X155295400Y-48350082D01*
X155295400Y-48169918D01*
X155330547Y-47993222D01*
X155399491Y-47826776D01*
X155499583Y-47676978D01*
X155626978Y-47549583D01*
X155776776Y-47449491D01*
X155943222Y-47380547D01*
X156119918Y-47345400D01*
X156300082Y-47345400D01*
X156476778Y-47380547D01*
G37*
G36*
X159016778Y-47380547D02*
G01*
X159183224Y-47449491D01*
X159333022Y-47549583D01*
X159460417Y-47676978D01*
X159560509Y-47826776D01*
X159629453Y-47993222D01*
X159664600Y-48169918D01*
X159664600Y-48350082D01*
X159629453Y-48526778D01*
X159560509Y-48693224D01*
X159460417Y-48843022D01*
X159333022Y-48970417D01*
X159183224Y-49070509D01*
X159016778Y-49139453D01*
X158840082Y-49174600D01*
X158659918Y-49174600D01*
X158483222Y-49139453D01*
X158316776Y-49070509D01*
X158166978Y-48970417D01*
X158039583Y-48843022D01*
X157939491Y-48693224D01*
X157870547Y-48526778D01*
X157835400Y-48350082D01*
X157835400Y-48169918D01*
X157870547Y-47993222D01*
X157939491Y-47826776D01*
X158039583Y-47676978D01*
X158166978Y-47549583D01*
X158316776Y-47449491D01*
X158483222Y-47380547D01*
X158659918Y-47345400D01*
X158840082Y-47345400D01*
X159016778Y-47380547D01*
G37*
G36*
X203366823Y-45751313D02*
G01*
X203527242Y-45799976D01*
X203659906Y-45870886D01*
X203675078Y-45878996D01*
X203804659Y-45985341D01*
X203911004Y-46114922D01*
X203911005Y-46114924D01*
X203990024Y-46262758D01*
X204038687Y-46423178D01*
X204051000Y-46548197D01*
X204051000Y-47431804D01*
X204038687Y-47556823D01*
X203990024Y-47717242D01*
X203931477Y-47826775D01*
X203911004Y-47865078D01*
X203877177Y-47906296D01*
X203804659Y-47994659D01*
X203675077Y-48101005D01*
X203527241Y-48180024D01*
X203366822Y-48228687D01*
X203200000Y-48245117D01*
X203033177Y-48228687D01*
X202872758Y-48180024D01*
X202724924Y-48101005D01*
X202724922Y-48101004D01*
X202595341Y-47994659D01*
X202522823Y-47906296D01*
X202488995Y-47865077D01*
X202409976Y-47717241D01*
X202361313Y-47556822D01*
X202349000Y-47431803D01*
X202349000Y-46548197D01*
X202361314Y-46423177D01*
X202409977Y-46262758D01*
X202488996Y-46114924D01*
X202488997Y-46114922D01*
X202595342Y-45985341D01*
X202724923Y-45878996D01*
X202740095Y-45870886D01*
X202872759Y-45799976D01*
X203033178Y-45751313D01*
X203200000Y-45734883D01*
X203366823Y-45751313D01*
G37*
G36*
X188126822Y-45751313D02*
G01*
X188287241Y-45799976D01*
X188435077Y-45878995D01*
X188543807Y-45968228D01*
X188564659Y-45985341D01*
X188671004Y-46114922D01*
X188671005Y-46114924D01*
X188750024Y-46262758D01*
X188798687Y-46423177D01*
X188811000Y-46548196D01*
X188811000Y-47431803D01*
X188798687Y-47556822D01*
X188750024Y-47717242D01*
X188691477Y-47826775D01*
X188671004Y-47865078D01*
X188564659Y-47994659D01*
X188435078Y-48101004D01*
X188435076Y-48101005D01*
X188287242Y-48180024D01*
X188126823Y-48228687D01*
X187960000Y-48245117D01*
X187793178Y-48228687D01*
X187632759Y-48180024D01*
X187484925Y-48101005D01*
X187484923Y-48101004D01*
X187355342Y-47994659D01*
X187248997Y-47865078D01*
X187228524Y-47826775D01*
X187169977Y-47717242D01*
X187121314Y-47556823D01*
X187109000Y-47431803D01*
X187109000Y-46548197D01*
X187121313Y-46423178D01*
X187169976Y-46262759D01*
X187248995Y-46114923D01*
X187355341Y-45985341D01*
X187376193Y-45968228D01*
X187484922Y-45878996D01*
X187500094Y-45870886D01*
X187632758Y-45799976D01*
X187793177Y-45751313D01*
X187960000Y-45734883D01*
X188126822Y-45751313D01*
G37*
G36*
X172886822Y-45751313D02*
G01*
X173047241Y-45799976D01*
X173195077Y-45878995D01*
X173303807Y-45968228D01*
X173324659Y-45985341D01*
X173431004Y-46114922D01*
X173431005Y-46114924D01*
X173510024Y-46262758D01*
X173558687Y-46423177D01*
X173571000Y-46548196D01*
X173571000Y-47431803D01*
X173558687Y-47556822D01*
X173510024Y-47717242D01*
X173451477Y-47826775D01*
X173431004Y-47865078D01*
X173324659Y-47994659D01*
X173195078Y-48101004D01*
X173195076Y-48101005D01*
X173047242Y-48180024D01*
X172886823Y-48228687D01*
X172720000Y-48245117D01*
X172553178Y-48228687D01*
X172392759Y-48180024D01*
X172244925Y-48101005D01*
X172244923Y-48101004D01*
X172115342Y-47994659D01*
X172008997Y-47865078D01*
X171988524Y-47826775D01*
X171929977Y-47717242D01*
X171881314Y-47556823D01*
X171869000Y-47431803D01*
X171869000Y-46548197D01*
X171881313Y-46423178D01*
X171929976Y-46262759D01*
X172008995Y-46114923D01*
X172115341Y-45985341D01*
X172136193Y-45968228D01*
X172244922Y-45878996D01*
X172260094Y-45870886D01*
X172392758Y-45799976D01*
X172553177Y-45751313D01*
X172720000Y-45734883D01*
X172886822Y-45751313D01*
G37*
G36*
X210986823Y-45751313D02*
G01*
X211147242Y-45799976D01*
X211279906Y-45870886D01*
X211295078Y-45878996D01*
X211424659Y-45985341D01*
X211531004Y-46114922D01*
X211531005Y-46114924D01*
X211610024Y-46262758D01*
X211658687Y-46423178D01*
X211671000Y-46548197D01*
X211671000Y-47431804D01*
X211658687Y-47556823D01*
X211610024Y-47717242D01*
X211551477Y-47826775D01*
X211531004Y-47865078D01*
X211497177Y-47906296D01*
X211424659Y-47994659D01*
X211295077Y-48101005D01*
X211147241Y-48180024D01*
X210986822Y-48228687D01*
X210820000Y-48245117D01*
X210653177Y-48228687D01*
X210492758Y-48180024D01*
X210344924Y-48101005D01*
X210344922Y-48101004D01*
X210215341Y-47994659D01*
X210142823Y-47906296D01*
X210108995Y-47865077D01*
X210029976Y-47717241D01*
X209981313Y-47556822D01*
X209969000Y-47431803D01*
X209969000Y-46548197D01*
X209981314Y-46423177D01*
X210029977Y-46262758D01*
X210108996Y-46114924D01*
X210108997Y-46114922D01*
X210215342Y-45985341D01*
X210344923Y-45878996D01*
X210360095Y-45870886D01*
X210492759Y-45799976D01*
X210653178Y-45751313D01*
X210820000Y-45734883D01*
X210986823Y-45751313D01*
G37*
G36*
X208446823Y-45751313D02*
G01*
X208607242Y-45799976D01*
X208739906Y-45870886D01*
X208755078Y-45878996D01*
X208884659Y-45985341D01*
X208991004Y-46114922D01*
X208991005Y-46114924D01*
X209070024Y-46262758D01*
X209118687Y-46423178D01*
X209131000Y-46548197D01*
X209131000Y-47431804D01*
X209118687Y-47556823D01*
X209070024Y-47717242D01*
X209011477Y-47826775D01*
X208991004Y-47865078D01*
X208957177Y-47906296D01*
X208884659Y-47994659D01*
X208755077Y-48101005D01*
X208607241Y-48180024D01*
X208446822Y-48228687D01*
X208280000Y-48245117D01*
X208113177Y-48228687D01*
X207952758Y-48180024D01*
X207804924Y-48101005D01*
X207804922Y-48101004D01*
X207675341Y-47994659D01*
X207602823Y-47906296D01*
X207568995Y-47865077D01*
X207489976Y-47717241D01*
X207441313Y-47556822D01*
X207429000Y-47431803D01*
X207429000Y-46548197D01*
X207441314Y-46423177D01*
X207489977Y-46262758D01*
X207568996Y-46114924D01*
X207568997Y-46114922D01*
X207675342Y-45985341D01*
X207804923Y-45878996D01*
X207820095Y-45870886D01*
X207952759Y-45799976D01*
X208113178Y-45751313D01*
X208280000Y-45734883D01*
X208446823Y-45751313D01*
G37*
G36*
X205906823Y-45751313D02*
G01*
X206067242Y-45799976D01*
X206199906Y-45870886D01*
X206215078Y-45878996D01*
X206344659Y-45985341D01*
X206451004Y-46114922D01*
X206451005Y-46114924D01*
X206530024Y-46262758D01*
X206578687Y-46423178D01*
X206591000Y-46548197D01*
X206591000Y-47431804D01*
X206578687Y-47556823D01*
X206530024Y-47717242D01*
X206471477Y-47826775D01*
X206451004Y-47865078D01*
X206417177Y-47906296D01*
X206344659Y-47994659D01*
X206215077Y-48101005D01*
X206067241Y-48180024D01*
X205906822Y-48228687D01*
X205740000Y-48245117D01*
X205573177Y-48228687D01*
X205412758Y-48180024D01*
X205264924Y-48101005D01*
X205264922Y-48101004D01*
X205135341Y-47994659D01*
X205062823Y-47906296D01*
X205028995Y-47865077D01*
X204949976Y-47717241D01*
X204901313Y-47556822D01*
X204889000Y-47431803D01*
X204889000Y-46548197D01*
X204901314Y-46423177D01*
X204949977Y-46262758D01*
X205028996Y-46114924D01*
X205028997Y-46114922D01*
X205135342Y-45985341D01*
X205264923Y-45878996D01*
X205280095Y-45870886D01*
X205412759Y-45799976D01*
X205573178Y-45751313D01*
X205740000Y-45734883D01*
X205906823Y-45751313D01*
G37*
G36*
X200826823Y-45751313D02*
G01*
X200987242Y-45799976D01*
X201119906Y-45870886D01*
X201135078Y-45878996D01*
X201264659Y-45985341D01*
X201371004Y-46114922D01*
X201371005Y-46114924D01*
X201450024Y-46262758D01*
X201498687Y-46423178D01*
X201511000Y-46548197D01*
X201511000Y-47431804D01*
X201498687Y-47556823D01*
X201450024Y-47717242D01*
X201391477Y-47826775D01*
X201371004Y-47865078D01*
X201337177Y-47906296D01*
X201264659Y-47994659D01*
X201135077Y-48101005D01*
X200987241Y-48180024D01*
X200826822Y-48228687D01*
X200660000Y-48245117D01*
X200493177Y-48228687D01*
X200332758Y-48180024D01*
X200184924Y-48101005D01*
X200184922Y-48101004D01*
X200055341Y-47994659D01*
X199982823Y-47906296D01*
X199948995Y-47865077D01*
X199869976Y-47717241D01*
X199821313Y-47556822D01*
X199809000Y-47431803D01*
X199809000Y-46548197D01*
X199821314Y-46423177D01*
X199869977Y-46262758D01*
X199948996Y-46114924D01*
X199948997Y-46114922D01*
X200055342Y-45985341D01*
X200184923Y-45878996D01*
X200200095Y-45870886D01*
X200332759Y-45799976D01*
X200493178Y-45751313D01*
X200660000Y-45734883D01*
X200826823Y-45751313D01*
G37*
G36*
X198286823Y-45751313D02*
G01*
X198447242Y-45799976D01*
X198579906Y-45870886D01*
X198595078Y-45878996D01*
X198724659Y-45985341D01*
X198831004Y-46114922D01*
X198831005Y-46114924D01*
X198910024Y-46262758D01*
X198958687Y-46423178D01*
X198971000Y-46548197D01*
X198971000Y-47431804D01*
X198958687Y-47556823D01*
X198910024Y-47717242D01*
X198851477Y-47826775D01*
X198831004Y-47865078D01*
X198797177Y-47906296D01*
X198724659Y-47994659D01*
X198595077Y-48101005D01*
X198447241Y-48180024D01*
X198286822Y-48228687D01*
X198120000Y-48245117D01*
X197953177Y-48228687D01*
X197792758Y-48180024D01*
X197644924Y-48101005D01*
X197644922Y-48101004D01*
X197515341Y-47994659D01*
X197442823Y-47906296D01*
X197408995Y-47865077D01*
X197329976Y-47717241D01*
X197281313Y-47556822D01*
X197269000Y-47431803D01*
X197269000Y-46548197D01*
X197281314Y-46423177D01*
X197329977Y-46262758D01*
X197408996Y-46114924D01*
X197408997Y-46114922D01*
X197515342Y-45985341D01*
X197644923Y-45878996D01*
X197660095Y-45870886D01*
X197792759Y-45799976D01*
X197953178Y-45751313D01*
X198120000Y-45734883D01*
X198286823Y-45751313D01*
G37*
G36*
X195746823Y-45751313D02*
G01*
X195907242Y-45799976D01*
X196039906Y-45870886D01*
X196055078Y-45878996D01*
X196184659Y-45985341D01*
X196291004Y-46114922D01*
X196291005Y-46114924D01*
X196370024Y-46262758D01*
X196418687Y-46423178D01*
X196431000Y-46548197D01*
X196431000Y-47431804D01*
X196418687Y-47556823D01*
X196370024Y-47717242D01*
X196311477Y-47826775D01*
X196291004Y-47865078D01*
X196257177Y-47906296D01*
X196184659Y-47994659D01*
X196055077Y-48101005D01*
X195907241Y-48180024D01*
X195746822Y-48228687D01*
X195580000Y-48245117D01*
X195413177Y-48228687D01*
X195252758Y-48180024D01*
X195104924Y-48101005D01*
X195104922Y-48101004D01*
X194975341Y-47994659D01*
X194902823Y-47906296D01*
X194868995Y-47865077D01*
X194789976Y-47717241D01*
X194741313Y-47556822D01*
X194729000Y-47431803D01*
X194729000Y-46548197D01*
X194741314Y-46423177D01*
X194789977Y-46262758D01*
X194868996Y-46114924D01*
X194868997Y-46114922D01*
X194975342Y-45985341D01*
X195104923Y-45878996D01*
X195120095Y-45870886D01*
X195252759Y-45799976D01*
X195413178Y-45751313D01*
X195580000Y-45734883D01*
X195746823Y-45751313D01*
G37*
G36*
X185586822Y-45751313D02*
G01*
X185747241Y-45799976D01*
X185895077Y-45878995D01*
X186003807Y-45968228D01*
X186024659Y-45985341D01*
X186131004Y-46114922D01*
X186131005Y-46114924D01*
X186210024Y-46262758D01*
X186258687Y-46423177D01*
X186271000Y-46548196D01*
X186271000Y-47431803D01*
X186258687Y-47556822D01*
X186210024Y-47717242D01*
X186151477Y-47826775D01*
X186131004Y-47865078D01*
X186024659Y-47994659D01*
X185895078Y-48101004D01*
X185895076Y-48101005D01*
X185747242Y-48180024D01*
X185586823Y-48228687D01*
X185420000Y-48245117D01*
X185253178Y-48228687D01*
X185092759Y-48180024D01*
X184944925Y-48101005D01*
X184944923Y-48101004D01*
X184815342Y-47994659D01*
X184708997Y-47865078D01*
X184688524Y-47826775D01*
X184629977Y-47717242D01*
X184581314Y-47556823D01*
X184569000Y-47431803D01*
X184569000Y-46548197D01*
X184581313Y-46423178D01*
X184629976Y-46262759D01*
X184708995Y-46114923D01*
X184815341Y-45985341D01*
X184836193Y-45968228D01*
X184944922Y-45878996D01*
X184960094Y-45870886D01*
X185092758Y-45799976D01*
X185253177Y-45751313D01*
X185420000Y-45734883D01*
X185586822Y-45751313D01*
G37*
G36*
X183046822Y-45751313D02*
G01*
X183207241Y-45799976D01*
X183355077Y-45878995D01*
X183463807Y-45968228D01*
X183484659Y-45985341D01*
X183591004Y-46114922D01*
X183591005Y-46114924D01*
X183670024Y-46262758D01*
X183718687Y-46423177D01*
X183731000Y-46548196D01*
X183731000Y-47431803D01*
X183718687Y-47556822D01*
X183670024Y-47717242D01*
X183611477Y-47826775D01*
X183591004Y-47865078D01*
X183484659Y-47994659D01*
X183355078Y-48101004D01*
X183355076Y-48101005D01*
X183207242Y-48180024D01*
X183046823Y-48228687D01*
X182880000Y-48245117D01*
X182713178Y-48228687D01*
X182552759Y-48180024D01*
X182404925Y-48101005D01*
X182404923Y-48101004D01*
X182275342Y-47994659D01*
X182168997Y-47865078D01*
X182148524Y-47826775D01*
X182089977Y-47717242D01*
X182041314Y-47556823D01*
X182029000Y-47431803D01*
X182029000Y-46548197D01*
X182041313Y-46423178D01*
X182089976Y-46262759D01*
X182168995Y-46114923D01*
X182275341Y-45985341D01*
X182296193Y-45968228D01*
X182404922Y-45878996D01*
X182420094Y-45870886D01*
X182552758Y-45799976D01*
X182713177Y-45751313D01*
X182880000Y-45734883D01*
X183046822Y-45751313D01*
G37*
G36*
X180506822Y-45751313D02*
G01*
X180667241Y-45799976D01*
X180815077Y-45878995D01*
X180923807Y-45968228D01*
X180944659Y-45985341D01*
X181051004Y-46114922D01*
X181051005Y-46114924D01*
X181130024Y-46262758D01*
X181178687Y-46423177D01*
X181191000Y-46548196D01*
X181191000Y-47431803D01*
X181178687Y-47556822D01*
X181130024Y-47717242D01*
X181071477Y-47826775D01*
X181051004Y-47865078D01*
X180944659Y-47994659D01*
X180815078Y-48101004D01*
X180815076Y-48101005D01*
X180667242Y-48180024D01*
X180506823Y-48228687D01*
X180340000Y-48245117D01*
X180173178Y-48228687D01*
X180012759Y-48180024D01*
X179864925Y-48101005D01*
X179864923Y-48101004D01*
X179735342Y-47994659D01*
X179628997Y-47865078D01*
X179608524Y-47826775D01*
X179549977Y-47717242D01*
X179501314Y-47556823D01*
X179489000Y-47431803D01*
X179489000Y-46548197D01*
X179501313Y-46423178D01*
X179549976Y-46262759D01*
X179628995Y-46114923D01*
X179735341Y-45985341D01*
X179756193Y-45968228D01*
X179864922Y-45878996D01*
X179880094Y-45870886D01*
X180012758Y-45799976D01*
X180173177Y-45751313D01*
X180340000Y-45734883D01*
X180506822Y-45751313D01*
G37*
G36*
X177966822Y-45751313D02*
G01*
X178127241Y-45799976D01*
X178275077Y-45878995D01*
X178383807Y-45968228D01*
X178404659Y-45985341D01*
X178511004Y-46114922D01*
X178511005Y-46114924D01*
X178590024Y-46262758D01*
X178638687Y-46423177D01*
X178651000Y-46548196D01*
X178651000Y-47431803D01*
X178638687Y-47556822D01*
X178590024Y-47717242D01*
X178531477Y-47826775D01*
X178511004Y-47865078D01*
X178404659Y-47994659D01*
X178275078Y-48101004D01*
X178275076Y-48101005D01*
X178127242Y-48180024D01*
X177966823Y-48228687D01*
X177800000Y-48245117D01*
X177633178Y-48228687D01*
X177472759Y-48180024D01*
X177324925Y-48101005D01*
X177324923Y-48101004D01*
X177195342Y-47994659D01*
X177088997Y-47865078D01*
X177068524Y-47826775D01*
X177009977Y-47717242D01*
X176961314Y-47556823D01*
X176949000Y-47431803D01*
X176949000Y-46548197D01*
X176961313Y-46423178D01*
X177009976Y-46262759D01*
X177088995Y-46114923D01*
X177195341Y-45985341D01*
X177216193Y-45968228D01*
X177324922Y-45878996D01*
X177340094Y-45870886D01*
X177472758Y-45799976D01*
X177633177Y-45751313D01*
X177800000Y-45734883D01*
X177966822Y-45751313D01*
G37*
G36*
X213526823Y-45751313D02*
G01*
X213687242Y-45799976D01*
X213819906Y-45870886D01*
X213835078Y-45878996D01*
X213964659Y-45985341D01*
X214071004Y-46114922D01*
X214071005Y-46114924D01*
X214150024Y-46262758D01*
X214198687Y-46423178D01*
X214211000Y-46548197D01*
X214211000Y-47431804D01*
X214198687Y-47556823D01*
X214150024Y-47717242D01*
X214091477Y-47826775D01*
X214071004Y-47865078D01*
X214037177Y-47906296D01*
X213964659Y-47994659D01*
X213835077Y-48101005D01*
X213687241Y-48180024D01*
X213526822Y-48228687D01*
X213360000Y-48245117D01*
X213193177Y-48228687D01*
X213032758Y-48180024D01*
X212884924Y-48101005D01*
X212884922Y-48101004D01*
X212755341Y-47994659D01*
X212682823Y-47906296D01*
X212648995Y-47865077D01*
X212569976Y-47717241D01*
X212521313Y-47556822D01*
X212509000Y-47431803D01*
X212509000Y-46548197D01*
X212521314Y-46423177D01*
X212569977Y-46262758D01*
X212648996Y-46114924D01*
X212648997Y-46114922D01*
X212755342Y-45985341D01*
X212884923Y-45878996D01*
X212900095Y-45870886D01*
X213032759Y-45799976D01*
X213193178Y-45751313D01*
X213360000Y-45734883D01*
X213526823Y-45751313D01*
G37*
G36*
X175426822Y-45751313D02*
G01*
X175587241Y-45799976D01*
X175735077Y-45878995D01*
X175843807Y-45968228D01*
X175864659Y-45985341D01*
X175971004Y-46114922D01*
X175971005Y-46114924D01*
X176050024Y-46262758D01*
X176098687Y-46423177D01*
X176111000Y-46548196D01*
X176111000Y-47431803D01*
X176098687Y-47556822D01*
X176050024Y-47717242D01*
X175991477Y-47826775D01*
X175971004Y-47865078D01*
X175864659Y-47994659D01*
X175735078Y-48101004D01*
X175735076Y-48101005D01*
X175587242Y-48180024D01*
X175426823Y-48228687D01*
X175260000Y-48245117D01*
X175093178Y-48228687D01*
X174932759Y-48180024D01*
X174784925Y-48101005D01*
X174784923Y-48101004D01*
X174655342Y-47994659D01*
X174548997Y-47865078D01*
X174528524Y-47826775D01*
X174469977Y-47717242D01*
X174421314Y-47556823D01*
X174409000Y-47431803D01*
X174409000Y-46548197D01*
X174421313Y-46423178D01*
X174469976Y-46262759D01*
X174548995Y-46114923D01*
X174655341Y-45985341D01*
X174676193Y-45968228D01*
X174784922Y-45878996D01*
X174800094Y-45870886D01*
X174932758Y-45799976D01*
X175093177Y-45751313D01*
X175260000Y-45734883D01*
X175426822Y-45751313D01*
G37*
G36*
X171031000Y-48241000D02*
G01*
X169329000Y-48241000D01*
X169329000Y-45739000D01*
X171031000Y-45739000D01*
X171031000Y-48241000D01*
G37*
G36*
X159016778Y-44840547D02*
G01*
X159183224Y-44909491D01*
X159333022Y-45009583D01*
X159460417Y-45136978D01*
X159560509Y-45286776D01*
X159629453Y-45453222D01*
X159664600Y-45629918D01*
X159664600Y-45810082D01*
X159629453Y-45986778D01*
X159560509Y-46153224D01*
X159460417Y-46303022D01*
X159333022Y-46430417D01*
X159183224Y-46530509D01*
X159016778Y-46599453D01*
X158840082Y-46634600D01*
X158659918Y-46634600D01*
X158483222Y-46599453D01*
X158316776Y-46530509D01*
X158166978Y-46430417D01*
X158039583Y-46303022D01*
X157939491Y-46153224D01*
X157870547Y-45986778D01*
X157835400Y-45810082D01*
X157835400Y-45629918D01*
X157870547Y-45453222D01*
X157939491Y-45286776D01*
X158039583Y-45136978D01*
X158166978Y-45009583D01*
X158316776Y-44909491D01*
X158483222Y-44840547D01*
X158659918Y-44805400D01*
X158840082Y-44805400D01*
X159016778Y-44840547D01*
G37*
G36*
X156476778Y-44840547D02*
G01*
X156643224Y-44909491D01*
X156793022Y-45009583D01*
X156920417Y-45136978D01*
X157020509Y-45286776D01*
X157089453Y-45453222D01*
X157124600Y-45629918D01*
X157124600Y-45810082D01*
X157089453Y-45986778D01*
X157020509Y-46153224D01*
X156920417Y-46303022D01*
X156793022Y-46430417D01*
X156643224Y-46530509D01*
X156476778Y-46599453D01*
X156300082Y-46634600D01*
X156119918Y-46634600D01*
X155943222Y-46599453D01*
X155776776Y-46530509D01*
X155626978Y-46430417D01*
X155499583Y-46303022D01*
X155399491Y-46153224D01*
X155330547Y-45986778D01*
X155295400Y-45810082D01*
X155295400Y-45629918D01*
X155330547Y-45453222D01*
X155399491Y-45286776D01*
X155499583Y-45136978D01*
X155626978Y-45009583D01*
X155776776Y-44909491D01*
X155943222Y-44840547D01*
X156119918Y-44805400D01*
X156300082Y-44805400D01*
X156476778Y-44840547D01*
G37*
G36*
X228848228Y-44901703D02*
G01*
X229003100Y-44965853D01*
X229142481Y-45058985D01*
X229261015Y-45177519D01*
X229354147Y-45316900D01*
X229418297Y-45471772D01*
X229451000Y-45636184D01*
X229451000Y-45803816D01*
X229418297Y-45968228D01*
X229354147Y-46123100D01*
X229261015Y-46262481D01*
X229142481Y-46381015D01*
X229003100Y-46474147D01*
X228848228Y-46538297D01*
X228683816Y-46571000D01*
X228516184Y-46571000D01*
X228351772Y-46538297D01*
X228196900Y-46474147D01*
X228057519Y-46381015D01*
X227938985Y-46262481D01*
X227845853Y-46123100D01*
X227781703Y-45968228D01*
X227749000Y-45803816D01*
X227749000Y-45636184D01*
X227781703Y-45471772D01*
X227845853Y-45316900D01*
X227938985Y-45177519D01*
X228057519Y-45058985D01*
X228196900Y-44965853D01*
X228351772Y-44901703D01*
X228516184Y-44869000D01*
X228683816Y-44869000D01*
X228848228Y-44901703D01*
G37*
G36*
X221831000Y-46571000D02*
G01*
X220129000Y-46571000D01*
X220129000Y-44869000D01*
X221831000Y-44869000D01*
X221831000Y-46571000D01*
G37*
G36*
X236522585Y-42293802D02*
G01*
X236672410Y-42323604D01*
X236954674Y-42440521D01*
X237208705Y-42610259D01*
X237424741Y-42826295D01*
X237594479Y-43080326D01*
X237711396Y-43362590D01*
X237771000Y-43662240D01*
X237771000Y-43967760D01*
X237711396Y-44267410D01*
X237594479Y-44549674D01*
X237424741Y-44803705D01*
X237208705Y-45019741D01*
X236954674Y-45189479D01*
X236672410Y-45306396D01*
X236522585Y-45336198D01*
X236372761Y-45366000D01*
X236067239Y-45366000D01*
X235917415Y-45336198D01*
X235767590Y-45306396D01*
X235485326Y-45189479D01*
X235231295Y-45019741D01*
X235015259Y-44803705D01*
X234845521Y-44549674D01*
X234728604Y-44267410D01*
X234669000Y-43967760D01*
X234669000Y-43662240D01*
X234728604Y-43362590D01*
X234845521Y-43080326D01*
X235015259Y-42826295D01*
X235231295Y-42610259D01*
X235485326Y-42440521D01*
X235767590Y-42323604D01*
X235917415Y-42293802D01*
X236067239Y-42264000D01*
X236372761Y-42264000D01*
X236522585Y-42293802D01*
G37*
G36*
X157124600Y-44094600D02*
G01*
X155295400Y-44094600D01*
X155295400Y-42265400D01*
X157124600Y-42265400D01*
X157124600Y-44094600D01*
G37*
G36*
X159016778Y-42300547D02*
G01*
X159183224Y-42369491D01*
X159333022Y-42469583D01*
X159460417Y-42596978D01*
X159560509Y-42746776D01*
X159629453Y-42913222D01*
X159664600Y-43089918D01*
X159664600Y-43270082D01*
X159629453Y-43446778D01*
X159560509Y-43613224D01*
X159460417Y-43763022D01*
X159333022Y-43890417D01*
X159183224Y-43990509D01*
X159016778Y-44059453D01*
X158840082Y-44094600D01*
X158659918Y-44094600D01*
X158483222Y-44059453D01*
X158316776Y-43990509D01*
X158166978Y-43890417D01*
X158039583Y-43763022D01*
X157939491Y-43613224D01*
X157870547Y-43446778D01*
X157835400Y-43270082D01*
X157835400Y-43089918D01*
X157870547Y-42913222D01*
X157939491Y-42746776D01*
X158039583Y-42596978D01*
X158166978Y-42469583D01*
X158316776Y-42369491D01*
X158483222Y-42300547D01*
X158659918Y-42265400D01*
X158840082Y-42265400D01*
X159016778Y-42300547D01*
G37*
G36*
X228848228Y-39821703D02*
G01*
X229003100Y-39885853D01*
X229142481Y-39978985D01*
X229261015Y-40097519D01*
X229354147Y-40236900D01*
X229418297Y-40391772D01*
X229451000Y-40556184D01*
X229451000Y-40723816D01*
X229418297Y-40888228D01*
X229354147Y-41043100D01*
X229261015Y-41182481D01*
X229142481Y-41301015D01*
X229003100Y-41394147D01*
X228848228Y-41458297D01*
X228683816Y-41491000D01*
X228516184Y-41491000D01*
X228351772Y-41458297D01*
X228196900Y-41394147D01*
X228057519Y-41301015D01*
X227938985Y-41182481D01*
X227845853Y-41043100D01*
X227781703Y-40888228D01*
X227749000Y-40723816D01*
X227749000Y-40556184D01*
X227781703Y-40391772D01*
X227845853Y-40236900D01*
X227938985Y-40097519D01*
X228057519Y-39978985D01*
X228196900Y-39885853D01*
X228351772Y-39821703D01*
X228516184Y-39789000D01*
X228683816Y-39789000D01*
X228848228Y-39821703D01*
G37*
G36*
X221228228Y-39821703D02*
G01*
X221383100Y-39885853D01*
X221522481Y-39978985D01*
X221641015Y-40097519D01*
X221734147Y-40236900D01*
X221798297Y-40391772D01*
X221831000Y-40556184D01*
X221831000Y-40723816D01*
X221798297Y-40888228D01*
X221734147Y-41043100D01*
X221641015Y-41182481D01*
X221522481Y-41301015D01*
X221383100Y-41394147D01*
X221228228Y-41458297D01*
X221063816Y-41491000D01*
X220896184Y-41491000D01*
X220731772Y-41458297D01*
X220576900Y-41394147D01*
X220437519Y-41301015D01*
X220318985Y-41182481D01*
X220225853Y-41043100D01*
X220161703Y-40888228D01*
X220129000Y-40723816D01*
X220129000Y-40556184D01*
X220161703Y-40391772D01*
X220225853Y-40236900D01*
X220318985Y-40097519D01*
X220437519Y-39978985D01*
X220576900Y-39885853D01*
X220731772Y-39821703D01*
X220896184Y-39789000D01*
X221063816Y-39789000D01*
X221228228Y-39821703D01*
G37*
G36*
X172886822Y-38131313D02*
G01*
X173047241Y-38179976D01*
X173195077Y-38258995D01*
X173324659Y-38365341D01*
X173431004Y-38494922D01*
X173431005Y-38494924D01*
X173510024Y-38642758D01*
X173558687Y-38803177D01*
X173571000Y-38928196D01*
X173571000Y-39811803D01*
X173558687Y-39936822D01*
X173510024Y-40097242D01*
X173509875Y-40097520D01*
X173431004Y-40245078D01*
X173324659Y-40374659D01*
X173195078Y-40481004D01*
X173195076Y-40481005D01*
X173047242Y-40560024D01*
X172886823Y-40608687D01*
X172720000Y-40625117D01*
X172553178Y-40608687D01*
X172392759Y-40560024D01*
X172244925Y-40481005D01*
X172244923Y-40481004D01*
X172115342Y-40374659D01*
X172008997Y-40245078D01*
X171930126Y-40097520D01*
X171929977Y-40097242D01*
X171881314Y-39936823D01*
X171869000Y-39811803D01*
X171869000Y-38928197D01*
X171881313Y-38803178D01*
X171929976Y-38642759D01*
X172008995Y-38494923D01*
X172115341Y-38365341D01*
X172216173Y-38282590D01*
X172244922Y-38258996D01*
X172260094Y-38250886D01*
X172392758Y-38179976D01*
X172553177Y-38131313D01*
X172720000Y-38114883D01*
X172886822Y-38131313D01*
G37*
G36*
X205906823Y-38131313D02*
G01*
X206067242Y-38179976D01*
X206199906Y-38250886D01*
X206215078Y-38258996D01*
X206344659Y-38365341D01*
X206451004Y-38494922D01*
X206451005Y-38494924D01*
X206530024Y-38642758D01*
X206578687Y-38803178D01*
X206591000Y-38928197D01*
X206591000Y-39811804D01*
X206578687Y-39936823D01*
X206530024Y-40097242D01*
X206529875Y-40097520D01*
X206451004Y-40245078D01*
X206417420Y-40286000D01*
X206344659Y-40374659D01*
X206215077Y-40481005D01*
X206067241Y-40560024D01*
X205906822Y-40608687D01*
X205740000Y-40625117D01*
X205573177Y-40608687D01*
X205412758Y-40560024D01*
X205264924Y-40481005D01*
X205264922Y-40481004D01*
X205135341Y-40374659D01*
X205028995Y-40245077D01*
X204949976Y-40097241D01*
X204901313Y-39936822D01*
X204889000Y-39811803D01*
X204889000Y-38928197D01*
X204901314Y-38803177D01*
X204949977Y-38642758D01*
X205028996Y-38494924D01*
X205028997Y-38494922D01*
X205135342Y-38365341D01*
X205264923Y-38258996D01*
X205280095Y-38250886D01*
X205412759Y-38179976D01*
X205573178Y-38131313D01*
X205740000Y-38114883D01*
X205906823Y-38131313D01*
G37*
G36*
X170346822Y-38131313D02*
G01*
X170507241Y-38179976D01*
X170655077Y-38258995D01*
X170784659Y-38365341D01*
X170891004Y-38494922D01*
X170891005Y-38494924D01*
X170970024Y-38642758D01*
X171018687Y-38803177D01*
X171031000Y-38928196D01*
X171031000Y-39811803D01*
X171018687Y-39936822D01*
X170970024Y-40097242D01*
X170969875Y-40097520D01*
X170891004Y-40245078D01*
X170784659Y-40374659D01*
X170655078Y-40481004D01*
X170655076Y-40481005D01*
X170507242Y-40560024D01*
X170346823Y-40608687D01*
X170180000Y-40625117D01*
X170013178Y-40608687D01*
X169852759Y-40560024D01*
X169704925Y-40481005D01*
X169704923Y-40481004D01*
X169575342Y-40374659D01*
X169468997Y-40245078D01*
X169390126Y-40097520D01*
X169389977Y-40097242D01*
X169341314Y-39936823D01*
X169329000Y-39811803D01*
X169329000Y-38928197D01*
X169341313Y-38803178D01*
X169389976Y-38642759D01*
X169468995Y-38494923D01*
X169575341Y-38365341D01*
X169676173Y-38282590D01*
X169704922Y-38258996D01*
X169720094Y-38250886D01*
X169852758Y-38179976D01*
X170013177Y-38131313D01*
X170180000Y-38114883D01*
X170346822Y-38131313D01*
G37*
G36*
X195746823Y-38131313D02*
G01*
X195907242Y-38179976D01*
X196039906Y-38250886D01*
X196055078Y-38258996D01*
X196184659Y-38365341D01*
X196291004Y-38494922D01*
X196291005Y-38494924D01*
X196370024Y-38642758D01*
X196418687Y-38803178D01*
X196431000Y-38928197D01*
X196431000Y-39811804D01*
X196418687Y-39936823D01*
X196370024Y-40097242D01*
X196369875Y-40097520D01*
X196291004Y-40245078D01*
X196257420Y-40286000D01*
X196184659Y-40374659D01*
X196055077Y-40481005D01*
X195907241Y-40560024D01*
X195746822Y-40608687D01*
X195580000Y-40625117D01*
X195413177Y-40608687D01*
X195252758Y-40560024D01*
X195104924Y-40481005D01*
X195104922Y-40481004D01*
X194975341Y-40374659D01*
X194868995Y-40245077D01*
X194789976Y-40097241D01*
X194741313Y-39936822D01*
X194729000Y-39811803D01*
X194729000Y-38928197D01*
X194741314Y-38803177D01*
X194789977Y-38642758D01*
X194868996Y-38494924D01*
X194868997Y-38494922D01*
X194975342Y-38365341D01*
X195104923Y-38258996D01*
X195120095Y-38250886D01*
X195252759Y-38179976D01*
X195413178Y-38131313D01*
X195580000Y-38114883D01*
X195746823Y-38131313D01*
G37*
G36*
X198286823Y-38131313D02*
G01*
X198447242Y-38179976D01*
X198579906Y-38250886D01*
X198595078Y-38258996D01*
X198724659Y-38365341D01*
X198831004Y-38494922D01*
X198831005Y-38494924D01*
X198910024Y-38642758D01*
X198958687Y-38803178D01*
X198971000Y-38928197D01*
X198971000Y-39811804D01*
X198958687Y-39936823D01*
X198910024Y-40097242D01*
X198909875Y-40097520D01*
X198831004Y-40245078D01*
X198797420Y-40286000D01*
X198724659Y-40374659D01*
X198595077Y-40481005D01*
X198447241Y-40560024D01*
X198286822Y-40608687D01*
X198120000Y-40625117D01*
X197953177Y-40608687D01*
X197792758Y-40560024D01*
X197644924Y-40481005D01*
X197644922Y-40481004D01*
X197515341Y-40374659D01*
X197408995Y-40245077D01*
X197329976Y-40097241D01*
X197281313Y-39936822D01*
X197269000Y-39811803D01*
X197269000Y-38928197D01*
X197281314Y-38803177D01*
X197329977Y-38642758D01*
X197408996Y-38494924D01*
X197408997Y-38494922D01*
X197515342Y-38365341D01*
X197644923Y-38258996D01*
X197660095Y-38250886D01*
X197792759Y-38179976D01*
X197953178Y-38131313D01*
X198120000Y-38114883D01*
X198286823Y-38131313D01*
G37*
G36*
X210986823Y-38131313D02*
G01*
X211147242Y-38179976D01*
X211279906Y-38250886D01*
X211295078Y-38258996D01*
X211424659Y-38365341D01*
X211531004Y-38494922D01*
X211531005Y-38494924D01*
X211610024Y-38642758D01*
X211658687Y-38803178D01*
X211671000Y-38928197D01*
X211671000Y-39811804D01*
X211658687Y-39936823D01*
X211610024Y-40097242D01*
X211609875Y-40097520D01*
X211531004Y-40245078D01*
X211497420Y-40286000D01*
X211424659Y-40374659D01*
X211295077Y-40481005D01*
X211147241Y-40560024D01*
X210986822Y-40608687D01*
X210820000Y-40625117D01*
X210653177Y-40608687D01*
X210492758Y-40560024D01*
X210344924Y-40481005D01*
X210344922Y-40481004D01*
X210215341Y-40374659D01*
X210108995Y-40245077D01*
X210029976Y-40097241D01*
X209981313Y-39936822D01*
X209969000Y-39811803D01*
X209969000Y-38928197D01*
X209981314Y-38803177D01*
X210029977Y-38642758D01*
X210108996Y-38494924D01*
X210108997Y-38494922D01*
X210215342Y-38365341D01*
X210344923Y-38258996D01*
X210360095Y-38250886D01*
X210492759Y-38179976D01*
X210653178Y-38131313D01*
X210820000Y-38114883D01*
X210986823Y-38131313D01*
G37*
G36*
X175426822Y-38131313D02*
G01*
X175587241Y-38179976D01*
X175735077Y-38258995D01*
X175864659Y-38365341D01*
X175971004Y-38494922D01*
X175971005Y-38494924D01*
X176050024Y-38642758D01*
X176098687Y-38803177D01*
X176111000Y-38928196D01*
X176111000Y-39811803D01*
X176098687Y-39936822D01*
X176050024Y-40097242D01*
X176049875Y-40097520D01*
X175971004Y-40245078D01*
X175864659Y-40374659D01*
X175735078Y-40481004D01*
X175735076Y-40481005D01*
X175587242Y-40560024D01*
X175426823Y-40608687D01*
X175260000Y-40625117D01*
X175093178Y-40608687D01*
X174932759Y-40560024D01*
X174784925Y-40481005D01*
X174784923Y-40481004D01*
X174655342Y-40374659D01*
X174548997Y-40245078D01*
X174470126Y-40097520D01*
X174469977Y-40097242D01*
X174421314Y-39936823D01*
X174409000Y-39811803D01*
X174409000Y-38928197D01*
X174421313Y-38803178D01*
X174469976Y-38642759D01*
X174548995Y-38494923D01*
X174655341Y-38365341D01*
X174756173Y-38282590D01*
X174784922Y-38258996D01*
X174800094Y-38250886D01*
X174932758Y-38179976D01*
X175093177Y-38131313D01*
X175260000Y-38114883D01*
X175426822Y-38131313D01*
G37*
G36*
X200826823Y-38131313D02*
G01*
X200987242Y-38179976D01*
X201119906Y-38250886D01*
X201135078Y-38258996D01*
X201264659Y-38365341D01*
X201371004Y-38494922D01*
X201371005Y-38494924D01*
X201450024Y-38642758D01*
X201498687Y-38803178D01*
X201511000Y-38928197D01*
X201511000Y-39811804D01*
X201498687Y-39936823D01*
X201450024Y-40097242D01*
X201449875Y-40097520D01*
X201371004Y-40245078D01*
X201337420Y-40286000D01*
X201264659Y-40374659D01*
X201135077Y-40481005D01*
X200987241Y-40560024D01*
X200826822Y-40608687D01*
X200660000Y-40625117D01*
X200493177Y-40608687D01*
X200332758Y-40560024D01*
X200184924Y-40481005D01*
X200184922Y-40481004D01*
X200055341Y-40374659D01*
X199948995Y-40245077D01*
X199869976Y-40097241D01*
X199821313Y-39936822D01*
X199809000Y-39811803D01*
X199809000Y-38928197D01*
X199821314Y-38803177D01*
X199869977Y-38642758D01*
X199948996Y-38494924D01*
X199948997Y-38494922D01*
X200055342Y-38365341D01*
X200184923Y-38258996D01*
X200200095Y-38250886D01*
X200332759Y-38179976D01*
X200493178Y-38131313D01*
X200660000Y-38114883D01*
X200826823Y-38131313D01*
G37*
G36*
X208446823Y-38131313D02*
G01*
X208607242Y-38179976D01*
X208739906Y-38250886D01*
X208755078Y-38258996D01*
X208884659Y-38365341D01*
X208991004Y-38494922D01*
X208991005Y-38494924D01*
X209070024Y-38642758D01*
X209118687Y-38803178D01*
X209131000Y-38928197D01*
X209131000Y-39811804D01*
X209118687Y-39936823D01*
X209070024Y-40097242D01*
X209069875Y-40097520D01*
X208991004Y-40245078D01*
X208957420Y-40286000D01*
X208884659Y-40374659D01*
X208755077Y-40481005D01*
X208607241Y-40560024D01*
X208446822Y-40608687D01*
X208280000Y-40625117D01*
X208113177Y-40608687D01*
X207952758Y-40560024D01*
X207804924Y-40481005D01*
X207804922Y-40481004D01*
X207675341Y-40374659D01*
X207568995Y-40245077D01*
X207489976Y-40097241D01*
X207441313Y-39936822D01*
X207429000Y-39811803D01*
X207429000Y-38928197D01*
X207441314Y-38803177D01*
X207489977Y-38642758D01*
X207568996Y-38494924D01*
X207568997Y-38494922D01*
X207675342Y-38365341D01*
X207804923Y-38258996D01*
X207820095Y-38250886D01*
X207952759Y-38179976D01*
X208113178Y-38131313D01*
X208280000Y-38114883D01*
X208446823Y-38131313D01*
G37*
G36*
X203366823Y-38131313D02*
G01*
X203527242Y-38179976D01*
X203659906Y-38250886D01*
X203675078Y-38258996D01*
X203804659Y-38365341D01*
X203911004Y-38494922D01*
X203911005Y-38494924D01*
X203990024Y-38642758D01*
X204038687Y-38803178D01*
X204051000Y-38928197D01*
X204051000Y-39811804D01*
X204038687Y-39936823D01*
X203990024Y-40097242D01*
X203989875Y-40097520D01*
X203911004Y-40245078D01*
X203877420Y-40286000D01*
X203804659Y-40374659D01*
X203675077Y-40481005D01*
X203527241Y-40560024D01*
X203366822Y-40608687D01*
X203200000Y-40625117D01*
X203033177Y-40608687D01*
X202872758Y-40560024D01*
X202724924Y-40481005D01*
X202724922Y-40481004D01*
X202595341Y-40374659D01*
X202488995Y-40245077D01*
X202409976Y-40097241D01*
X202361313Y-39936822D01*
X202349000Y-39811803D01*
X202349000Y-38928197D01*
X202361314Y-38803177D01*
X202409977Y-38642758D01*
X202488996Y-38494924D01*
X202488997Y-38494922D01*
X202595342Y-38365341D01*
X202724923Y-38258996D01*
X202740095Y-38250886D01*
X202872759Y-38179976D01*
X203033178Y-38131313D01*
X203200000Y-38114883D01*
X203366823Y-38131313D01*
G37*
G36*
X188126822Y-38131313D02*
G01*
X188287241Y-38179976D01*
X188435077Y-38258995D01*
X188564659Y-38365341D01*
X188671004Y-38494922D01*
X188671005Y-38494924D01*
X188750024Y-38642758D01*
X188798687Y-38803177D01*
X188811000Y-38928196D01*
X188811000Y-39811803D01*
X188798687Y-39936822D01*
X188750024Y-40097242D01*
X188749875Y-40097520D01*
X188671004Y-40245078D01*
X188564659Y-40374659D01*
X188435078Y-40481004D01*
X188435076Y-40481005D01*
X188287242Y-40560024D01*
X188126823Y-40608687D01*
X187960000Y-40625117D01*
X187793178Y-40608687D01*
X187632759Y-40560024D01*
X187484925Y-40481005D01*
X187484923Y-40481004D01*
X187355342Y-40374659D01*
X187248997Y-40245078D01*
X187170126Y-40097520D01*
X187169977Y-40097242D01*
X187121314Y-39936823D01*
X187109000Y-39811803D01*
X187109000Y-38928197D01*
X187121313Y-38803178D01*
X187169976Y-38642759D01*
X187248995Y-38494923D01*
X187355341Y-38365341D01*
X187456173Y-38282590D01*
X187484922Y-38258996D01*
X187500094Y-38250886D01*
X187632758Y-38179976D01*
X187793177Y-38131313D01*
X187960000Y-38114883D01*
X188126822Y-38131313D01*
G37*
G36*
X185586822Y-38131313D02*
G01*
X185747241Y-38179976D01*
X185895077Y-38258995D01*
X186024659Y-38365341D01*
X186131004Y-38494922D01*
X186131005Y-38494924D01*
X186210024Y-38642758D01*
X186258687Y-38803177D01*
X186271000Y-38928196D01*
X186271000Y-39811803D01*
X186258687Y-39936822D01*
X186210024Y-40097242D01*
X186209875Y-40097520D01*
X186131004Y-40245078D01*
X186024659Y-40374659D01*
X185895078Y-40481004D01*
X185895076Y-40481005D01*
X185747242Y-40560024D01*
X185586823Y-40608687D01*
X185420000Y-40625117D01*
X185253178Y-40608687D01*
X185092759Y-40560024D01*
X184944925Y-40481005D01*
X184944923Y-40481004D01*
X184815342Y-40374659D01*
X184708997Y-40245078D01*
X184630126Y-40097520D01*
X184629977Y-40097242D01*
X184581314Y-39936823D01*
X184569000Y-39811803D01*
X184569000Y-38928197D01*
X184581313Y-38803178D01*
X184629976Y-38642759D01*
X184708995Y-38494923D01*
X184815341Y-38365341D01*
X184916173Y-38282590D01*
X184944922Y-38258996D01*
X184960094Y-38250886D01*
X185092758Y-38179976D01*
X185253177Y-38131313D01*
X185420000Y-38114883D01*
X185586822Y-38131313D01*
G37*
G36*
X183046822Y-38131313D02*
G01*
X183207241Y-38179976D01*
X183355077Y-38258995D01*
X183484659Y-38365341D01*
X183591004Y-38494922D01*
X183591005Y-38494924D01*
X183670024Y-38642758D01*
X183718687Y-38803177D01*
X183731000Y-38928196D01*
X183731000Y-39811803D01*
X183718687Y-39936822D01*
X183670024Y-40097242D01*
X183669875Y-40097520D01*
X183591004Y-40245078D01*
X183484659Y-40374659D01*
X183355078Y-40481004D01*
X183355076Y-40481005D01*
X183207242Y-40560024D01*
X183046823Y-40608687D01*
X182880000Y-40625117D01*
X182713178Y-40608687D01*
X182552759Y-40560024D01*
X182404925Y-40481005D01*
X182404923Y-40481004D01*
X182275342Y-40374659D01*
X182168997Y-40245078D01*
X182090126Y-40097520D01*
X182089977Y-40097242D01*
X182041314Y-39936823D01*
X182029000Y-39811803D01*
X182029000Y-38928197D01*
X182041313Y-38803178D01*
X182089976Y-38642759D01*
X182168995Y-38494923D01*
X182275341Y-38365341D01*
X182376173Y-38282590D01*
X182404922Y-38258996D01*
X182420094Y-38250886D01*
X182552758Y-38179976D01*
X182713177Y-38131313D01*
X182880000Y-38114883D01*
X183046822Y-38131313D01*
G37*
G36*
X177966822Y-38131313D02*
G01*
X178127241Y-38179976D01*
X178275077Y-38258995D01*
X178404659Y-38365341D01*
X178511004Y-38494922D01*
X178511005Y-38494924D01*
X178590024Y-38642758D01*
X178638687Y-38803177D01*
X178651000Y-38928196D01*
X178651000Y-39811803D01*
X178638687Y-39936822D01*
X178590024Y-40097242D01*
X178589875Y-40097520D01*
X178511004Y-40245078D01*
X178404659Y-40374659D01*
X178275078Y-40481004D01*
X178275076Y-40481005D01*
X178127242Y-40560024D01*
X177966823Y-40608687D01*
X177800000Y-40625117D01*
X177633178Y-40608687D01*
X177472759Y-40560024D01*
X177324925Y-40481005D01*
X177324923Y-40481004D01*
X177195342Y-40374659D01*
X177088997Y-40245078D01*
X177010126Y-40097520D01*
X177009977Y-40097242D01*
X176961314Y-39936823D01*
X176949000Y-39811803D01*
X176949000Y-38928197D01*
X176961313Y-38803178D01*
X177009976Y-38642759D01*
X177088995Y-38494923D01*
X177195341Y-38365341D01*
X177296173Y-38282590D01*
X177324922Y-38258996D01*
X177340094Y-38250886D01*
X177472758Y-38179976D01*
X177633177Y-38131313D01*
X177800000Y-38114883D01*
X177966822Y-38131313D01*
G37*
G36*
X180506822Y-38131313D02*
G01*
X180667241Y-38179976D01*
X180815077Y-38258995D01*
X180944659Y-38365341D01*
X181051004Y-38494922D01*
X181051005Y-38494924D01*
X181130024Y-38642758D01*
X181178687Y-38803177D01*
X181191000Y-38928196D01*
X181191000Y-39811803D01*
X181178687Y-39936822D01*
X181130024Y-40097242D01*
X181129875Y-40097520D01*
X181051004Y-40245078D01*
X180944659Y-40374659D01*
X180815078Y-40481004D01*
X180815076Y-40481005D01*
X180667242Y-40560024D01*
X180506823Y-40608687D01*
X180340000Y-40625117D01*
X180173178Y-40608687D01*
X180012759Y-40560024D01*
X179864925Y-40481005D01*
X179864923Y-40481004D01*
X179735342Y-40374659D01*
X179628997Y-40245078D01*
X179550126Y-40097520D01*
X179549977Y-40097242D01*
X179501314Y-39936823D01*
X179489000Y-39811803D01*
X179489000Y-38928197D01*
X179501313Y-38803178D01*
X179549976Y-38642759D01*
X179628995Y-38494923D01*
X179735341Y-38365341D01*
X179836173Y-38282590D01*
X179864922Y-38258996D01*
X179880094Y-38250886D01*
X180012758Y-38179976D01*
X180173177Y-38131313D01*
X180340000Y-38114883D01*
X180506822Y-38131313D01*
G37*
G36*
X214211000Y-40621000D02*
G01*
X212509000Y-40621000D01*
X212509000Y-38119000D01*
X214211000Y-38119000D01*
X214211000Y-40621000D01*
G37*
G36*
X236522585Y-37213802D02*
G01*
X236672410Y-37243604D01*
X236954674Y-37360521D01*
X237208705Y-37530259D01*
X237424741Y-37746295D01*
X237594479Y-38000326D01*
X237711396Y-38282590D01*
X237771000Y-38582240D01*
X237771000Y-38887760D01*
X237711396Y-39187410D01*
X237594479Y-39469674D01*
X237424741Y-39723705D01*
X237208705Y-39939741D01*
X236954674Y-40109479D01*
X236672410Y-40226396D01*
X236578499Y-40245076D01*
X236372761Y-40286000D01*
X236067239Y-40286000D01*
X235861501Y-40245076D01*
X235767590Y-40226396D01*
X235485326Y-40109479D01*
X235231295Y-39939741D01*
X235015259Y-39723705D01*
X234845521Y-39469674D01*
X234728604Y-39187410D01*
X234669000Y-38887760D01*
X234669000Y-38582240D01*
X234728604Y-38282590D01*
X234845521Y-38000326D01*
X235015259Y-37746295D01*
X235231295Y-37530259D01*
X235485326Y-37360521D01*
X235767590Y-37243604D01*
X235917415Y-37213802D01*
X236067239Y-37184000D01*
X236372761Y-37184000D01*
X236522585Y-37213802D01*
G37*
G36*
X228848228Y-34741703D02*
G01*
X229003100Y-34805853D01*
X229142481Y-34898985D01*
X229261015Y-35017519D01*
X229354147Y-35156900D01*
X229418297Y-35311772D01*
X229451000Y-35476184D01*
X229451000Y-35643816D01*
X229418297Y-35808228D01*
X229354147Y-35963100D01*
X229261015Y-36102481D01*
X229142481Y-36221015D01*
X229003100Y-36314147D01*
X228848228Y-36378297D01*
X228683816Y-36411000D01*
X228516184Y-36411000D01*
X228351772Y-36378297D01*
X228196900Y-36314147D01*
X228057519Y-36221015D01*
X227938985Y-36102481D01*
X227845853Y-35963100D01*
X227781703Y-35808228D01*
X227749000Y-35643816D01*
X227749000Y-35476184D01*
X227781703Y-35311772D01*
X227845853Y-35156900D01*
X227938985Y-35017519D01*
X228057519Y-34898985D01*
X228196900Y-34805853D01*
X228351772Y-34741703D01*
X228516184Y-34709000D01*
X228683816Y-34709000D01*
X228848228Y-34741703D01*
G37*
G36*
X221831000Y-36411000D02*
G01*
X220129000Y-36411000D01*
X220129000Y-34709000D01*
X221831000Y-34709000D01*
X221831000Y-36411000D01*
G37*
G36*
X178719890Y-34299017D02*
G01*
X178760927Y-34316015D01*
X178838364Y-34348091D01*
X178929741Y-34409147D01*
X178944988Y-34419335D01*
X179035665Y-34510012D01*
X179106910Y-34616638D01*
X179155983Y-34735110D01*
X179181000Y-34860881D01*
X179181000Y-34989119D01*
X179155983Y-35114890D01*
X179138581Y-35156903D01*
X179106909Y-35233364D01*
X179035665Y-35339988D01*
X178944988Y-35430665D01*
X178838364Y-35501909D01*
X178838363Y-35501910D01*
X178838362Y-35501910D01*
X178719890Y-35550983D01*
X178594119Y-35576000D01*
X178465881Y-35576000D01*
X178340110Y-35550983D01*
X178221638Y-35501910D01*
X178221637Y-35501910D01*
X178221636Y-35501909D01*
X178115012Y-35430665D01*
X178024335Y-35339988D01*
X177953091Y-35233364D01*
X177921420Y-35156903D01*
X177904017Y-35114890D01*
X177879000Y-34989119D01*
X177879000Y-34860881D01*
X177904017Y-34735110D01*
X177953090Y-34616638D01*
X178024335Y-34510012D01*
X178115012Y-34419335D01*
X178130259Y-34409147D01*
X178221636Y-34348091D01*
X178299074Y-34316015D01*
X178340110Y-34299017D01*
X178465881Y-34274000D01*
X178594119Y-34274000D01*
X178719890Y-34299017D01*
G37*
G36*
X177181000Y-35576000D02*
G01*
X175879000Y-35576000D01*
X175879000Y-34274000D01*
X177181000Y-34274000D01*
X177181000Y-35576000D01*
G37*
G36*
X237771000Y-35206000D02*
G01*
X234669000Y-35206000D01*
X234669000Y-32104000D01*
X237771000Y-32104000D01*
X237771000Y-35206000D01*
G37*
G36*
X245315256Y-31411298D02*
G01*
X245421579Y-31432447D01*
X245722042Y-31556903D01*
X245992451Y-31737585D01*
X246222415Y-31967549D01*
X246222416Y-31967551D01*
X246403098Y-32237960D01*
X246527553Y-32538422D01*
X246586886Y-32836705D01*
X246591000Y-32857391D01*
X246591000Y-33182609D01*
X246527553Y-33501579D01*
X246403097Y-33802042D01*
X246222415Y-34072451D01*
X245992451Y-34302415D01*
X245722042Y-34483097D01*
X245421579Y-34607553D01*
X245315256Y-34628702D01*
X245102611Y-34671000D01*
X244777389Y-34671000D01*
X244564744Y-34628702D01*
X244458421Y-34607553D01*
X244157958Y-34483097D01*
X243887549Y-34302415D01*
X243657585Y-34072451D01*
X243476903Y-33802042D01*
X243352447Y-33501579D01*
X243289000Y-33182609D01*
X243289000Y-32857391D01*
X243293115Y-32836705D01*
X243352447Y-32538422D01*
X243476902Y-32237960D01*
X243657584Y-31967551D01*
X243657585Y-31967549D01*
X243887549Y-31737585D01*
X244157958Y-31556903D01*
X244458421Y-31432447D01*
X244564744Y-31411298D01*
X244777389Y-31369000D01*
X245102611Y-31369000D01*
X245315256Y-31411298D01*
G37*
G36*
X155315256Y-31411298D02*
G01*
X155421579Y-31432447D01*
X155722042Y-31556903D01*
X155992451Y-31737585D01*
X156222415Y-31967549D01*
X156222416Y-31967551D01*
X156403098Y-32237960D01*
X156527553Y-32538422D01*
X156586886Y-32836705D01*
X156591000Y-32857391D01*
X156591000Y-33182609D01*
X156527553Y-33501579D01*
X156403097Y-33802042D01*
X156222415Y-34072451D01*
X155992451Y-34302415D01*
X155722042Y-34483097D01*
X155421579Y-34607553D01*
X155315256Y-34628702D01*
X155102611Y-34671000D01*
X154777389Y-34671000D01*
X154564744Y-34628702D01*
X154458421Y-34607553D01*
X154157958Y-34483097D01*
X153887549Y-34302415D01*
X153657585Y-34072451D01*
X153476903Y-33802042D01*
X153352447Y-33501579D01*
X153289000Y-33182609D01*
X153289000Y-32857391D01*
X153293115Y-32836705D01*
X153352447Y-32538422D01*
X153476902Y-32237960D01*
X153657584Y-31967551D01*
X153657585Y-31967549D01*
X153887549Y-31737585D01*
X154157958Y-31556903D01*
X154458421Y-31432447D01*
X154564744Y-31411298D01*
X154777389Y-31369000D01*
X155102611Y-31369000D01*
X155315256Y-31411298D01*
G37*
G36*
X202773228Y-32836703D02*
G01*
X202928100Y-32900853D01*
X203067481Y-32993985D01*
X203186015Y-33112519D01*
X203279147Y-33251900D01*
X203343297Y-33406772D01*
X203376000Y-33571184D01*
X203376000Y-33738816D01*
X203343297Y-33903228D01*
X203279147Y-34058100D01*
X203186015Y-34197481D01*
X203067481Y-34316015D01*
X202928100Y-34409147D01*
X202773228Y-34473297D01*
X202608816Y-34506000D01*
X202441184Y-34506000D01*
X202276772Y-34473297D01*
X202121900Y-34409147D01*
X201982519Y-34316015D01*
X201863985Y-34197481D01*
X201770853Y-34058100D01*
X201706703Y-33903228D01*
X201674000Y-33738816D01*
X201674000Y-33571184D01*
X201706703Y-33406772D01*
X201770853Y-33251900D01*
X201863985Y-33112519D01*
X201982519Y-32993985D01*
X202121900Y-32900853D01*
X202276772Y-32836703D01*
X202441184Y-32804000D01*
X202608816Y-32804000D01*
X202773228Y-32836703D01*
G37*
G36*
X200876000Y-34506000D02*
G01*
X199174000Y-34506000D01*
X199174000Y-32804000D01*
X200876000Y-32804000D01*
X200876000Y-34506000D01*
G37*
M02*
