G04 #@! TF.GenerationSoftware,KiCad,Pcbnew,(5.1.0)-1*
G04 #@! TF.CreationDate,2020-01-23T16:35:24+01:00*
G04 #@! TF.ProjectId,splitflap,73706c69-7466-46c6-9170-2e6b69636164,rev?*
G04 #@! TF.SameCoordinates,Original*
G04 #@! TF.FileFunction,Soldermask,Bot*
G04 #@! TF.FilePolarity,Negative*
%FSLAX46Y46*%
G04 Gerber Fmt 4.6, Leading zero omitted, Abs format (unit mm)*
G04 Created by KiCad (PCBNEW (5.1.0)-1) date 2020-01-23 16:35:24*
%MOMM*%
%LPD*%
G04 APERTURE LIST*
%ADD10C,0.100000*%
G04 APERTURE END LIST*
D10*
G36*
X233846823Y-110921313D02*
G01*
X234007242Y-110969976D01*
X234139906Y-111040886D01*
X234155078Y-111048996D01*
X234284659Y-111155341D01*
X234391004Y-111284922D01*
X234391005Y-111284924D01*
X234470024Y-111432758D01*
X234518687Y-111593177D01*
X234535117Y-111760000D01*
X234518687Y-111926823D01*
X234470024Y-112087242D01*
X234399114Y-112219906D01*
X234391004Y-112235078D01*
X234284659Y-112364659D01*
X234155078Y-112471004D01*
X234155076Y-112471005D01*
X234007242Y-112550024D01*
X233846823Y-112598687D01*
X233721804Y-112611000D01*
X233638196Y-112611000D01*
X233513177Y-112598687D01*
X233352758Y-112550024D01*
X233204924Y-112471005D01*
X233204922Y-112471004D01*
X233075341Y-112364659D01*
X232968996Y-112235078D01*
X232960886Y-112219906D01*
X232889976Y-112087242D01*
X232841313Y-111926823D01*
X232824883Y-111760000D01*
X232841313Y-111593177D01*
X232889976Y-111432758D01*
X232968995Y-111284924D01*
X232968996Y-111284922D01*
X233075341Y-111155341D01*
X233204922Y-111048996D01*
X233220094Y-111040886D01*
X233352758Y-110969976D01*
X233513177Y-110921313D01*
X233638196Y-110909000D01*
X233721804Y-110909000D01*
X233846823Y-110921313D01*
X233846823Y-110921313D01*
G37*
G36*
X226226823Y-110921313D02*
G01*
X226387242Y-110969976D01*
X226519906Y-111040886D01*
X226535078Y-111048996D01*
X226664659Y-111155341D01*
X226771004Y-111284922D01*
X226771005Y-111284924D01*
X226850024Y-111432758D01*
X226898687Y-111593177D01*
X226915117Y-111760000D01*
X226898687Y-111926823D01*
X226850024Y-112087242D01*
X226779114Y-112219906D01*
X226771004Y-112235078D01*
X226664659Y-112364659D01*
X226535078Y-112471004D01*
X226535076Y-112471005D01*
X226387242Y-112550024D01*
X226226823Y-112598687D01*
X226101804Y-112611000D01*
X226018196Y-112611000D01*
X225893177Y-112598687D01*
X225732758Y-112550024D01*
X225584924Y-112471005D01*
X225584922Y-112471004D01*
X225455341Y-112364659D01*
X225348996Y-112235078D01*
X225340886Y-112219906D01*
X225269976Y-112087242D01*
X225221313Y-111926823D01*
X225204883Y-111760000D01*
X225221313Y-111593177D01*
X225269976Y-111432758D01*
X225348995Y-111284924D01*
X225348996Y-111284922D01*
X225455341Y-111155341D01*
X225584922Y-111048996D01*
X225600094Y-111040886D01*
X225732758Y-110969976D01*
X225893177Y-110921313D01*
X226018196Y-110909000D01*
X226101804Y-110909000D01*
X226226823Y-110921313D01*
X226226823Y-110921313D01*
G37*
G36*
X183046822Y-106711313D02*
G01*
X183207241Y-106759976D01*
X183355077Y-106838995D01*
X183484659Y-106945341D01*
X183591004Y-107074922D01*
X183591005Y-107074924D01*
X183670024Y-107222758D01*
X183718687Y-107383177D01*
X183731000Y-107508196D01*
X183731000Y-108391803D01*
X183718687Y-108516822D01*
X183670024Y-108677242D01*
X183637549Y-108737998D01*
X183591004Y-108825078D01*
X183484659Y-108954659D01*
X183355078Y-109061004D01*
X183355076Y-109061005D01*
X183207242Y-109140024D01*
X183046823Y-109188687D01*
X182880000Y-109205117D01*
X182713178Y-109188687D01*
X182552759Y-109140024D01*
X182404925Y-109061005D01*
X182404923Y-109061004D01*
X182275342Y-108954659D01*
X182168997Y-108825078D01*
X182122452Y-108737998D01*
X182089977Y-108677242D01*
X182041314Y-108516823D01*
X182029000Y-108391803D01*
X182029000Y-107508197D01*
X182041313Y-107383178D01*
X182089976Y-107222759D01*
X182168995Y-107074923D01*
X182275341Y-106945341D01*
X182404922Y-106838996D01*
X182420094Y-106830886D01*
X182552758Y-106759976D01*
X182713177Y-106711313D01*
X182880000Y-106694883D01*
X183046822Y-106711313D01*
X183046822Y-106711313D01*
G37*
G36*
X185586822Y-106711313D02*
G01*
X185747241Y-106759976D01*
X185895077Y-106838995D01*
X186024659Y-106945341D01*
X186131004Y-107074922D01*
X186131005Y-107074924D01*
X186210024Y-107222758D01*
X186258687Y-107383177D01*
X186271000Y-107508196D01*
X186271000Y-108391803D01*
X186258687Y-108516822D01*
X186210024Y-108677242D01*
X186177549Y-108737998D01*
X186131004Y-108825078D01*
X186024659Y-108954659D01*
X185895078Y-109061004D01*
X185895076Y-109061005D01*
X185747242Y-109140024D01*
X185586823Y-109188687D01*
X185420000Y-109205117D01*
X185253178Y-109188687D01*
X185092759Y-109140024D01*
X184944925Y-109061005D01*
X184944923Y-109061004D01*
X184815342Y-108954659D01*
X184708997Y-108825078D01*
X184662452Y-108737998D01*
X184629977Y-108677242D01*
X184581314Y-108516823D01*
X184569000Y-108391803D01*
X184569000Y-107508197D01*
X184581313Y-107383178D01*
X184629976Y-107222759D01*
X184708995Y-107074923D01*
X184815341Y-106945341D01*
X184944922Y-106838996D01*
X184960094Y-106830886D01*
X185092758Y-106759976D01*
X185253177Y-106711313D01*
X185420000Y-106694883D01*
X185586822Y-106711313D01*
X185586822Y-106711313D01*
G37*
G36*
X193206822Y-106711313D02*
G01*
X193367241Y-106759976D01*
X193515077Y-106838995D01*
X193644659Y-106945341D01*
X193751004Y-107074922D01*
X193751005Y-107074924D01*
X193830024Y-107222758D01*
X193878687Y-107383177D01*
X193891000Y-107508196D01*
X193891000Y-108391803D01*
X193878687Y-108516822D01*
X193830024Y-108677242D01*
X193797549Y-108737998D01*
X193751004Y-108825078D01*
X193644659Y-108954659D01*
X193515078Y-109061004D01*
X193515076Y-109061005D01*
X193367242Y-109140024D01*
X193206823Y-109188687D01*
X193040000Y-109205117D01*
X192873178Y-109188687D01*
X192712759Y-109140024D01*
X192564925Y-109061005D01*
X192564923Y-109061004D01*
X192435342Y-108954659D01*
X192328997Y-108825078D01*
X192282452Y-108737998D01*
X192249977Y-108677242D01*
X192201314Y-108516823D01*
X192189000Y-108391803D01*
X192189000Y-107508197D01*
X192201313Y-107383178D01*
X192249976Y-107222759D01*
X192328995Y-107074923D01*
X192435341Y-106945341D01*
X192564922Y-106838996D01*
X192580094Y-106830886D01*
X192712758Y-106759976D01*
X192873177Y-106711313D01*
X193040000Y-106694883D01*
X193206822Y-106711313D01*
X193206822Y-106711313D01*
G37*
G36*
X190666822Y-106711313D02*
G01*
X190827241Y-106759976D01*
X190975077Y-106838995D01*
X191104659Y-106945341D01*
X191211004Y-107074922D01*
X191211005Y-107074924D01*
X191290024Y-107222758D01*
X191338687Y-107383177D01*
X191351000Y-107508196D01*
X191351000Y-108391803D01*
X191338687Y-108516822D01*
X191290024Y-108677242D01*
X191257549Y-108737998D01*
X191211004Y-108825078D01*
X191104659Y-108954659D01*
X190975078Y-109061004D01*
X190975076Y-109061005D01*
X190827242Y-109140024D01*
X190666823Y-109188687D01*
X190500000Y-109205117D01*
X190333178Y-109188687D01*
X190172759Y-109140024D01*
X190024925Y-109061005D01*
X190024923Y-109061004D01*
X189895342Y-108954659D01*
X189788997Y-108825078D01*
X189742452Y-108737998D01*
X189709977Y-108677242D01*
X189661314Y-108516823D01*
X189649000Y-108391803D01*
X189649000Y-107508197D01*
X189661313Y-107383178D01*
X189709976Y-107222759D01*
X189788995Y-107074923D01*
X189895341Y-106945341D01*
X190024922Y-106838996D01*
X190040094Y-106830886D01*
X190172758Y-106759976D01*
X190333177Y-106711313D01*
X190500000Y-106694883D01*
X190666822Y-106711313D01*
X190666822Y-106711313D01*
G37*
G36*
X180506822Y-106711313D02*
G01*
X180667241Y-106759976D01*
X180815077Y-106838995D01*
X180944659Y-106945341D01*
X181051004Y-107074922D01*
X181051005Y-107074924D01*
X181130024Y-107222758D01*
X181178687Y-107383177D01*
X181191000Y-107508196D01*
X181191000Y-108391803D01*
X181178687Y-108516822D01*
X181130024Y-108677242D01*
X181097549Y-108737998D01*
X181051004Y-108825078D01*
X180944659Y-108954659D01*
X180815078Y-109061004D01*
X180815076Y-109061005D01*
X180667242Y-109140024D01*
X180506823Y-109188687D01*
X180340000Y-109205117D01*
X180173178Y-109188687D01*
X180012759Y-109140024D01*
X179864925Y-109061005D01*
X179864923Y-109061004D01*
X179735342Y-108954659D01*
X179628997Y-108825078D01*
X179582452Y-108737998D01*
X179549977Y-108677242D01*
X179501314Y-108516823D01*
X179489000Y-108391803D01*
X179489000Y-107508197D01*
X179501313Y-107383178D01*
X179549976Y-107222759D01*
X179628995Y-107074923D01*
X179735341Y-106945341D01*
X179864922Y-106838996D01*
X179880094Y-106830886D01*
X180012758Y-106759976D01*
X180173177Y-106711313D01*
X180340000Y-106694883D01*
X180506822Y-106711313D01*
X180506822Y-106711313D01*
G37*
G36*
X177966822Y-106711313D02*
G01*
X178127241Y-106759976D01*
X178275077Y-106838995D01*
X178404659Y-106945341D01*
X178511004Y-107074922D01*
X178511005Y-107074924D01*
X178590024Y-107222758D01*
X178638687Y-107383177D01*
X178651000Y-107508196D01*
X178651000Y-108391803D01*
X178638687Y-108516822D01*
X178590024Y-108677242D01*
X178557549Y-108737998D01*
X178511004Y-108825078D01*
X178404659Y-108954659D01*
X178275078Y-109061004D01*
X178275076Y-109061005D01*
X178127242Y-109140024D01*
X177966823Y-109188687D01*
X177800000Y-109205117D01*
X177633178Y-109188687D01*
X177472759Y-109140024D01*
X177324925Y-109061005D01*
X177324923Y-109061004D01*
X177195342Y-108954659D01*
X177088997Y-108825078D01*
X177042452Y-108737998D01*
X177009977Y-108677242D01*
X176961314Y-108516823D01*
X176949000Y-108391803D01*
X176949000Y-107508197D01*
X176961313Y-107383178D01*
X177009976Y-107222759D01*
X177088995Y-107074923D01*
X177195341Y-106945341D01*
X177324922Y-106838996D01*
X177340094Y-106830886D01*
X177472758Y-106759976D01*
X177633177Y-106711313D01*
X177800000Y-106694883D01*
X177966822Y-106711313D01*
X177966822Y-106711313D01*
G37*
G36*
X188126822Y-106711313D02*
G01*
X188287241Y-106759976D01*
X188435077Y-106838995D01*
X188564659Y-106945341D01*
X188671004Y-107074922D01*
X188671005Y-107074924D01*
X188750024Y-107222758D01*
X188798687Y-107383177D01*
X188811000Y-107508196D01*
X188811000Y-108391803D01*
X188798687Y-108516822D01*
X188750024Y-108677242D01*
X188717549Y-108737998D01*
X188671004Y-108825078D01*
X188564659Y-108954659D01*
X188435078Y-109061004D01*
X188435076Y-109061005D01*
X188287242Y-109140024D01*
X188126823Y-109188687D01*
X187960000Y-109205117D01*
X187793178Y-109188687D01*
X187632759Y-109140024D01*
X187484925Y-109061005D01*
X187484923Y-109061004D01*
X187355342Y-108954659D01*
X187248997Y-108825078D01*
X187202452Y-108737998D01*
X187169977Y-108677242D01*
X187121314Y-108516823D01*
X187109000Y-108391803D01*
X187109000Y-107508197D01*
X187121313Y-107383178D01*
X187169976Y-107222759D01*
X187248995Y-107074923D01*
X187355341Y-106945341D01*
X187484922Y-106838996D01*
X187500094Y-106830886D01*
X187632758Y-106759976D01*
X187793177Y-106711313D01*
X187960000Y-106694883D01*
X188126822Y-106711313D01*
X188126822Y-106711313D01*
G37*
G36*
X176111000Y-109201000D02*
G01*
X174409000Y-109201000D01*
X174409000Y-106699000D01*
X176111000Y-106699000D01*
X176111000Y-109201000D01*
X176111000Y-109201000D01*
G37*
G36*
X203459369Y-107094971D02*
G01*
X203621195Y-107162002D01*
X203766829Y-107259311D01*
X203890689Y-107383171D01*
X203987998Y-107528805D01*
X204055029Y-107690631D01*
X204089200Y-107862420D01*
X204089200Y-108037580D01*
X204055029Y-108209369D01*
X203987998Y-108371195D01*
X203890689Y-108516829D01*
X203766829Y-108640689D01*
X203621195Y-108737998D01*
X203459369Y-108805029D01*
X203287580Y-108839200D01*
X203112420Y-108839200D01*
X202940631Y-108805029D01*
X202778805Y-108737998D01*
X202633171Y-108640689D01*
X202509311Y-108516829D01*
X202412002Y-108371195D01*
X202344971Y-108209369D01*
X202310800Y-108037580D01*
X202310800Y-107862420D01*
X202344971Y-107690631D01*
X202412002Y-107528805D01*
X202509311Y-107383171D01*
X202633171Y-107259311D01*
X202778805Y-107162002D01*
X202940631Y-107094971D01*
X203112420Y-107060800D01*
X203287580Y-107060800D01*
X203459369Y-107094971D01*
X203459369Y-107094971D01*
G37*
G36*
X200919369Y-107094971D02*
G01*
X201081195Y-107162002D01*
X201226829Y-107259311D01*
X201350689Y-107383171D01*
X201447998Y-107528805D01*
X201515029Y-107690631D01*
X201549200Y-107862420D01*
X201549200Y-108037580D01*
X201515029Y-108209369D01*
X201447998Y-108371195D01*
X201350689Y-108516829D01*
X201226829Y-108640689D01*
X201081195Y-108737998D01*
X200919369Y-108805029D01*
X200747580Y-108839200D01*
X200572420Y-108839200D01*
X200400631Y-108805029D01*
X200238805Y-108737998D01*
X200093171Y-108640689D01*
X199969311Y-108516829D01*
X199872002Y-108371195D01*
X199804971Y-108209369D01*
X199770800Y-108037580D01*
X199770800Y-107862420D01*
X199804971Y-107690631D01*
X199872002Y-107528805D01*
X199969311Y-107383171D01*
X200093171Y-107259311D01*
X200238805Y-107162002D01*
X200400631Y-107094971D01*
X200572420Y-107060800D01*
X200747580Y-107060800D01*
X200919369Y-107094971D01*
X200919369Y-107094971D01*
G37*
G36*
X205999369Y-107094971D02*
G01*
X206161195Y-107162002D01*
X206306829Y-107259311D01*
X206430689Y-107383171D01*
X206527998Y-107528805D01*
X206595029Y-107690631D01*
X206629200Y-107862420D01*
X206629200Y-108037580D01*
X206595029Y-108209369D01*
X206527998Y-108371195D01*
X206430689Y-108516829D01*
X206306829Y-108640689D01*
X206161195Y-108737998D01*
X205999369Y-108805029D01*
X205827580Y-108839200D01*
X205652420Y-108839200D01*
X205480631Y-108805029D01*
X205318805Y-108737998D01*
X205173171Y-108640689D01*
X205049311Y-108516829D01*
X204952002Y-108371195D01*
X204884971Y-108209369D01*
X204850800Y-108037580D01*
X204850800Y-107862420D01*
X204884971Y-107690631D01*
X204952002Y-107528805D01*
X205049311Y-107383171D01*
X205173171Y-107259311D01*
X205318805Y-107162002D01*
X205480631Y-107094971D01*
X205652420Y-107060800D01*
X205827580Y-107060800D01*
X205999369Y-107094971D01*
X205999369Y-107094971D01*
G37*
G36*
X211079369Y-107094971D02*
G01*
X211241195Y-107162002D01*
X211386829Y-107259311D01*
X211510689Y-107383171D01*
X211607998Y-107528805D01*
X211675029Y-107690631D01*
X211709200Y-107862420D01*
X211709200Y-108037580D01*
X211675029Y-108209369D01*
X211607998Y-108371195D01*
X211510689Y-108516829D01*
X211386829Y-108640689D01*
X211241195Y-108737998D01*
X211079369Y-108805029D01*
X210907580Y-108839200D01*
X210732420Y-108839200D01*
X210560631Y-108805029D01*
X210398805Y-108737998D01*
X210253171Y-108640689D01*
X210129311Y-108516829D01*
X210032002Y-108371195D01*
X209964971Y-108209369D01*
X209930800Y-108037580D01*
X209930800Y-107862420D01*
X209964971Y-107690631D01*
X210032002Y-107528805D01*
X210129311Y-107383171D01*
X210253171Y-107259311D01*
X210398805Y-107162002D01*
X210560631Y-107094971D01*
X210732420Y-107060800D01*
X210907580Y-107060800D01*
X211079369Y-107094971D01*
X211079369Y-107094971D01*
G37*
G36*
X213619369Y-107094971D02*
G01*
X213781195Y-107162002D01*
X213926829Y-107259311D01*
X214050689Y-107383171D01*
X214147998Y-107528805D01*
X214215029Y-107690631D01*
X214249200Y-107862420D01*
X214249200Y-108037580D01*
X214215029Y-108209369D01*
X214147998Y-108371195D01*
X214050689Y-108516829D01*
X213926829Y-108640689D01*
X213781195Y-108737998D01*
X213619369Y-108805029D01*
X213447580Y-108839200D01*
X213272420Y-108839200D01*
X213100631Y-108805029D01*
X212938805Y-108737998D01*
X212793171Y-108640689D01*
X212669311Y-108516829D01*
X212572002Y-108371195D01*
X212504971Y-108209369D01*
X212470800Y-108037580D01*
X212470800Y-107862420D01*
X212504971Y-107690631D01*
X212572002Y-107528805D01*
X212669311Y-107383171D01*
X212793171Y-107259311D01*
X212938805Y-107162002D01*
X213100631Y-107094971D01*
X213272420Y-107060800D01*
X213447580Y-107060800D01*
X213619369Y-107094971D01*
X213619369Y-107094971D01*
G37*
G36*
X216159369Y-107094971D02*
G01*
X216321195Y-107162002D01*
X216466829Y-107259311D01*
X216590689Y-107383171D01*
X216687998Y-107528805D01*
X216755029Y-107690631D01*
X216789200Y-107862420D01*
X216789200Y-108037580D01*
X216755029Y-108209369D01*
X216687998Y-108371195D01*
X216590689Y-108516829D01*
X216466829Y-108640689D01*
X216321195Y-108737998D01*
X216159369Y-108805029D01*
X215987580Y-108839200D01*
X215812420Y-108839200D01*
X215640631Y-108805029D01*
X215478805Y-108737998D01*
X215333171Y-108640689D01*
X215209311Y-108516829D01*
X215112002Y-108371195D01*
X215044971Y-108209369D01*
X215010800Y-108037580D01*
X215010800Y-107862420D01*
X215044971Y-107690631D01*
X215112002Y-107528805D01*
X215209311Y-107383171D01*
X215333171Y-107259311D01*
X215478805Y-107162002D01*
X215640631Y-107094971D01*
X215812420Y-107060800D01*
X215987580Y-107060800D01*
X216159369Y-107094971D01*
X216159369Y-107094971D01*
G37*
G36*
X208539369Y-107094971D02*
G01*
X208701195Y-107162002D01*
X208846829Y-107259311D01*
X208970689Y-107383171D01*
X209067998Y-107528805D01*
X209135029Y-107690631D01*
X209169200Y-107862420D01*
X209169200Y-108037580D01*
X209135029Y-108209369D01*
X209067998Y-108371195D01*
X208970689Y-108516829D01*
X208846829Y-108640689D01*
X208701195Y-108737998D01*
X208539369Y-108805029D01*
X208367580Y-108839200D01*
X208192420Y-108839200D01*
X208020631Y-108805029D01*
X207858805Y-108737998D01*
X207713171Y-108640689D01*
X207589311Y-108516829D01*
X207492002Y-108371195D01*
X207424971Y-108209369D01*
X207390800Y-108037580D01*
X207390800Y-107862420D01*
X207424971Y-107690631D01*
X207492002Y-107528805D01*
X207589311Y-107383171D01*
X207713171Y-107259311D01*
X207858805Y-107162002D01*
X208020631Y-107094971D01*
X208192420Y-107060800D01*
X208367580Y-107060800D01*
X208539369Y-107094971D01*
X208539369Y-107094971D01*
G37*
G36*
X218699369Y-107094971D02*
G01*
X218861195Y-107162002D01*
X219006829Y-107259311D01*
X219130689Y-107383171D01*
X219227998Y-107528805D01*
X219295029Y-107690631D01*
X219329200Y-107862420D01*
X219329200Y-108037580D01*
X219295029Y-108209369D01*
X219227998Y-108371195D01*
X219130689Y-108516829D01*
X219006829Y-108640689D01*
X218861195Y-108737998D01*
X218699369Y-108805029D01*
X218527580Y-108839200D01*
X218352420Y-108839200D01*
X218180631Y-108805029D01*
X218018805Y-108737998D01*
X217873171Y-108640689D01*
X217749311Y-108516829D01*
X217652002Y-108371195D01*
X217584971Y-108209369D01*
X217550800Y-108037580D01*
X217550800Y-107862420D01*
X217584971Y-107690631D01*
X217652002Y-107528805D01*
X217749311Y-107383171D01*
X217873171Y-107259311D01*
X218018805Y-107162002D01*
X218180631Y-107094971D01*
X218352420Y-107060800D01*
X218527580Y-107060800D01*
X218699369Y-107094971D01*
X218699369Y-107094971D01*
G37*
G36*
X233846823Y-105841313D02*
G01*
X234007242Y-105889976D01*
X234139906Y-105960886D01*
X234155078Y-105968996D01*
X234284659Y-106075341D01*
X234391004Y-106204922D01*
X234391005Y-106204924D01*
X234470024Y-106352758D01*
X234518687Y-106513177D01*
X234535117Y-106680000D01*
X234518687Y-106846823D01*
X234470024Y-107007242D01*
X234433847Y-107074924D01*
X234391004Y-107155078D01*
X234284659Y-107284659D01*
X234155078Y-107391004D01*
X234155076Y-107391005D01*
X234007242Y-107470024D01*
X233846823Y-107518687D01*
X233721804Y-107531000D01*
X233638196Y-107531000D01*
X233513177Y-107518687D01*
X233352758Y-107470024D01*
X233204924Y-107391005D01*
X233204922Y-107391004D01*
X233075341Y-107284659D01*
X232968996Y-107155078D01*
X232926153Y-107074924D01*
X232889976Y-107007242D01*
X232841313Y-106846823D01*
X232824883Y-106680000D01*
X232841313Y-106513177D01*
X232889976Y-106352758D01*
X232968995Y-106204924D01*
X232968996Y-106204922D01*
X233075341Y-106075341D01*
X233204922Y-105968996D01*
X233220094Y-105960886D01*
X233352758Y-105889976D01*
X233513177Y-105841313D01*
X233638196Y-105829000D01*
X233721804Y-105829000D01*
X233846823Y-105841313D01*
X233846823Y-105841313D01*
G37*
G36*
X226911000Y-107531000D02*
G01*
X225209000Y-107531000D01*
X225209000Y-105829000D01*
X226911000Y-105829000D01*
X226911000Y-107531000D01*
X226911000Y-107531000D01*
G37*
G36*
X226226823Y-100761313D02*
G01*
X226387242Y-100809976D01*
X226519906Y-100880886D01*
X226535078Y-100888996D01*
X226664659Y-100995341D01*
X226771004Y-101124922D01*
X226771005Y-101124924D01*
X226850024Y-101272758D01*
X226898687Y-101433177D01*
X226915117Y-101600000D01*
X226898687Y-101766823D01*
X226850024Y-101927242D01*
X226779114Y-102059906D01*
X226771004Y-102075078D01*
X226664659Y-102204659D01*
X226535078Y-102311004D01*
X226535076Y-102311005D01*
X226387242Y-102390024D01*
X226226823Y-102438687D01*
X226101804Y-102451000D01*
X226018196Y-102451000D01*
X225893177Y-102438687D01*
X225732758Y-102390024D01*
X225584924Y-102311005D01*
X225584922Y-102311004D01*
X225455341Y-102204659D01*
X225348996Y-102075078D01*
X225340886Y-102059906D01*
X225269976Y-101927242D01*
X225221313Y-101766823D01*
X225204883Y-101600000D01*
X225221313Y-101433177D01*
X225269976Y-101272758D01*
X225348995Y-101124924D01*
X225348996Y-101124922D01*
X225455341Y-100995341D01*
X225584922Y-100888996D01*
X225600094Y-100880886D01*
X225732758Y-100809976D01*
X225893177Y-100761313D01*
X226018196Y-100749000D01*
X226101804Y-100749000D01*
X226226823Y-100761313D01*
X226226823Y-100761313D01*
G37*
G36*
X233846823Y-100761313D02*
G01*
X234007242Y-100809976D01*
X234139906Y-100880886D01*
X234155078Y-100888996D01*
X234284659Y-100995341D01*
X234391004Y-101124922D01*
X234391005Y-101124924D01*
X234470024Y-101272758D01*
X234518687Y-101433177D01*
X234535117Y-101600000D01*
X234518687Y-101766823D01*
X234470024Y-101927242D01*
X234399114Y-102059906D01*
X234391004Y-102075078D01*
X234284659Y-102204659D01*
X234155078Y-102311004D01*
X234155076Y-102311005D01*
X234007242Y-102390024D01*
X233846823Y-102438687D01*
X233721804Y-102451000D01*
X233638196Y-102451000D01*
X233513177Y-102438687D01*
X233352758Y-102390024D01*
X233204924Y-102311005D01*
X233204922Y-102311004D01*
X233075341Y-102204659D01*
X232968996Y-102075078D01*
X232960886Y-102059906D01*
X232889976Y-101927242D01*
X232841313Y-101766823D01*
X232824883Y-101600000D01*
X232841313Y-101433177D01*
X232889976Y-101272758D01*
X232968995Y-101124924D01*
X232968996Y-101124922D01*
X233075341Y-100995341D01*
X233204922Y-100888996D01*
X233220094Y-100880886D01*
X233352758Y-100809976D01*
X233513177Y-100761313D01*
X233638196Y-100749000D01*
X233721804Y-100749000D01*
X233846823Y-100761313D01*
X233846823Y-100761313D01*
G37*
G36*
X185586822Y-99091313D02*
G01*
X185747241Y-99139976D01*
X185895077Y-99218995D01*
X186024659Y-99325341D01*
X186131004Y-99454922D01*
X186131005Y-99454924D01*
X186210024Y-99602758D01*
X186258687Y-99763177D01*
X186271000Y-99888196D01*
X186271000Y-100771803D01*
X186258687Y-100896822D01*
X186210024Y-101057242D01*
X186177549Y-101117998D01*
X186131004Y-101205078D01*
X186024659Y-101334659D01*
X185895078Y-101441004D01*
X185895076Y-101441005D01*
X185747242Y-101520024D01*
X185586823Y-101568687D01*
X185420000Y-101585117D01*
X185253178Y-101568687D01*
X185092759Y-101520024D01*
X184944925Y-101441005D01*
X184944923Y-101441004D01*
X184815342Y-101334659D01*
X184708997Y-101205078D01*
X184662452Y-101117998D01*
X184629977Y-101057242D01*
X184581314Y-100896823D01*
X184569000Y-100771803D01*
X184569000Y-99888197D01*
X184581313Y-99763178D01*
X184629976Y-99602759D01*
X184708995Y-99454923D01*
X184815341Y-99325341D01*
X184944922Y-99218996D01*
X184960094Y-99210886D01*
X185092758Y-99139976D01*
X185253177Y-99091313D01*
X185420000Y-99074883D01*
X185586822Y-99091313D01*
X185586822Y-99091313D01*
G37*
G36*
X188126822Y-99091313D02*
G01*
X188287241Y-99139976D01*
X188435077Y-99218995D01*
X188564659Y-99325341D01*
X188671004Y-99454922D01*
X188671005Y-99454924D01*
X188750024Y-99602758D01*
X188798687Y-99763177D01*
X188811000Y-99888196D01*
X188811000Y-100771803D01*
X188798687Y-100896822D01*
X188750024Y-101057242D01*
X188717549Y-101117998D01*
X188671004Y-101205078D01*
X188564659Y-101334659D01*
X188435078Y-101441004D01*
X188435076Y-101441005D01*
X188287242Y-101520024D01*
X188126823Y-101568687D01*
X187960000Y-101585117D01*
X187793178Y-101568687D01*
X187632759Y-101520024D01*
X187484925Y-101441005D01*
X187484923Y-101441004D01*
X187355342Y-101334659D01*
X187248997Y-101205078D01*
X187202452Y-101117998D01*
X187169977Y-101057242D01*
X187121314Y-100896823D01*
X187109000Y-100771803D01*
X187109000Y-99888197D01*
X187121313Y-99763178D01*
X187169976Y-99602759D01*
X187248995Y-99454923D01*
X187355341Y-99325341D01*
X187484922Y-99218996D01*
X187500094Y-99210886D01*
X187632758Y-99139976D01*
X187793177Y-99091313D01*
X187960000Y-99074883D01*
X188126822Y-99091313D01*
X188126822Y-99091313D01*
G37*
G36*
X193206822Y-99091313D02*
G01*
X193367241Y-99139976D01*
X193515077Y-99218995D01*
X193644659Y-99325341D01*
X193751004Y-99454922D01*
X193751005Y-99454924D01*
X193830024Y-99602758D01*
X193878687Y-99763177D01*
X193891000Y-99888196D01*
X193891000Y-100771803D01*
X193878687Y-100896822D01*
X193830024Y-101057242D01*
X193797549Y-101117998D01*
X193751004Y-101205078D01*
X193644659Y-101334659D01*
X193515078Y-101441004D01*
X193515076Y-101441005D01*
X193367242Y-101520024D01*
X193206823Y-101568687D01*
X193040000Y-101585117D01*
X192873178Y-101568687D01*
X192712759Y-101520024D01*
X192564925Y-101441005D01*
X192564923Y-101441004D01*
X192435342Y-101334659D01*
X192328997Y-101205078D01*
X192282452Y-101117998D01*
X192249977Y-101057242D01*
X192201314Y-100896823D01*
X192189000Y-100771803D01*
X192189000Y-99888197D01*
X192201313Y-99763178D01*
X192249976Y-99602759D01*
X192328995Y-99454923D01*
X192435341Y-99325341D01*
X192564922Y-99218996D01*
X192580094Y-99210886D01*
X192712758Y-99139976D01*
X192873177Y-99091313D01*
X193040000Y-99074883D01*
X193206822Y-99091313D01*
X193206822Y-99091313D01*
G37*
G36*
X175426822Y-99091313D02*
G01*
X175587241Y-99139976D01*
X175735077Y-99218995D01*
X175864659Y-99325341D01*
X175971004Y-99454922D01*
X175971005Y-99454924D01*
X176050024Y-99602758D01*
X176098687Y-99763177D01*
X176111000Y-99888196D01*
X176111000Y-100771803D01*
X176098687Y-100896822D01*
X176050024Y-101057242D01*
X176017549Y-101117998D01*
X175971004Y-101205078D01*
X175864659Y-101334659D01*
X175735078Y-101441004D01*
X175735076Y-101441005D01*
X175587242Y-101520024D01*
X175426823Y-101568687D01*
X175260000Y-101585117D01*
X175093178Y-101568687D01*
X174932759Y-101520024D01*
X174784925Y-101441005D01*
X174784923Y-101441004D01*
X174655342Y-101334659D01*
X174548997Y-101205078D01*
X174502452Y-101117998D01*
X174469977Y-101057242D01*
X174421314Y-100896823D01*
X174409000Y-100771803D01*
X174409000Y-99888197D01*
X174421313Y-99763178D01*
X174469976Y-99602759D01*
X174548995Y-99454923D01*
X174655341Y-99325341D01*
X174784922Y-99218996D01*
X174800094Y-99210886D01*
X174932758Y-99139976D01*
X175093177Y-99091313D01*
X175260000Y-99074883D01*
X175426822Y-99091313D01*
X175426822Y-99091313D01*
G37*
G36*
X180506822Y-99091313D02*
G01*
X180667241Y-99139976D01*
X180815077Y-99218995D01*
X180944659Y-99325341D01*
X181051004Y-99454922D01*
X181051005Y-99454924D01*
X181130024Y-99602758D01*
X181178687Y-99763177D01*
X181191000Y-99888196D01*
X181191000Y-100771803D01*
X181178687Y-100896822D01*
X181130024Y-101057242D01*
X181097549Y-101117998D01*
X181051004Y-101205078D01*
X180944659Y-101334659D01*
X180815078Y-101441004D01*
X180815076Y-101441005D01*
X180667242Y-101520024D01*
X180506823Y-101568687D01*
X180340000Y-101585117D01*
X180173178Y-101568687D01*
X180012759Y-101520024D01*
X179864925Y-101441005D01*
X179864923Y-101441004D01*
X179735342Y-101334659D01*
X179628997Y-101205078D01*
X179582452Y-101117998D01*
X179549977Y-101057242D01*
X179501314Y-100896823D01*
X179489000Y-100771803D01*
X179489000Y-99888197D01*
X179501313Y-99763178D01*
X179549976Y-99602759D01*
X179628995Y-99454923D01*
X179735341Y-99325341D01*
X179864922Y-99218996D01*
X179880094Y-99210886D01*
X180012758Y-99139976D01*
X180173177Y-99091313D01*
X180340000Y-99074883D01*
X180506822Y-99091313D01*
X180506822Y-99091313D01*
G37*
G36*
X183046822Y-99091313D02*
G01*
X183207241Y-99139976D01*
X183355077Y-99218995D01*
X183484659Y-99325341D01*
X183591004Y-99454922D01*
X183591005Y-99454924D01*
X183670024Y-99602758D01*
X183718687Y-99763177D01*
X183731000Y-99888196D01*
X183731000Y-100771803D01*
X183718687Y-100896822D01*
X183670024Y-101057242D01*
X183637549Y-101117998D01*
X183591004Y-101205078D01*
X183484659Y-101334659D01*
X183355078Y-101441004D01*
X183355076Y-101441005D01*
X183207242Y-101520024D01*
X183046823Y-101568687D01*
X182880000Y-101585117D01*
X182713178Y-101568687D01*
X182552759Y-101520024D01*
X182404925Y-101441005D01*
X182404923Y-101441004D01*
X182275342Y-101334659D01*
X182168997Y-101205078D01*
X182122452Y-101117998D01*
X182089977Y-101057242D01*
X182041314Y-100896823D01*
X182029000Y-100771803D01*
X182029000Y-99888197D01*
X182041313Y-99763178D01*
X182089976Y-99602759D01*
X182168995Y-99454923D01*
X182275341Y-99325341D01*
X182404922Y-99218996D01*
X182420094Y-99210886D01*
X182552758Y-99139976D01*
X182713177Y-99091313D01*
X182880000Y-99074883D01*
X183046822Y-99091313D01*
X183046822Y-99091313D01*
G37*
G36*
X190666822Y-99091313D02*
G01*
X190827241Y-99139976D01*
X190975077Y-99218995D01*
X191104659Y-99325341D01*
X191211004Y-99454922D01*
X191211005Y-99454924D01*
X191290024Y-99602758D01*
X191338687Y-99763177D01*
X191351000Y-99888196D01*
X191351000Y-100771803D01*
X191338687Y-100896822D01*
X191290024Y-101057242D01*
X191257549Y-101117998D01*
X191211004Y-101205078D01*
X191104659Y-101334659D01*
X190975078Y-101441004D01*
X190975076Y-101441005D01*
X190827242Y-101520024D01*
X190666823Y-101568687D01*
X190500000Y-101585117D01*
X190333178Y-101568687D01*
X190172759Y-101520024D01*
X190024925Y-101441005D01*
X190024923Y-101441004D01*
X189895342Y-101334659D01*
X189788997Y-101205078D01*
X189742452Y-101117998D01*
X189709977Y-101057242D01*
X189661314Y-100896823D01*
X189649000Y-100771803D01*
X189649000Y-99888197D01*
X189661313Y-99763178D01*
X189709976Y-99602759D01*
X189788995Y-99454923D01*
X189895341Y-99325341D01*
X190024922Y-99218996D01*
X190040094Y-99210886D01*
X190172758Y-99139976D01*
X190333177Y-99091313D01*
X190500000Y-99074883D01*
X190666822Y-99091313D01*
X190666822Y-99091313D01*
G37*
G36*
X177966822Y-99091313D02*
G01*
X178127241Y-99139976D01*
X178275077Y-99218995D01*
X178404659Y-99325341D01*
X178511004Y-99454922D01*
X178511005Y-99454924D01*
X178590024Y-99602758D01*
X178638687Y-99763177D01*
X178651000Y-99888196D01*
X178651000Y-100771803D01*
X178638687Y-100896822D01*
X178590024Y-101057242D01*
X178557549Y-101117998D01*
X178511004Y-101205078D01*
X178404659Y-101334659D01*
X178275078Y-101441004D01*
X178275076Y-101441005D01*
X178127242Y-101520024D01*
X177966823Y-101568687D01*
X177800000Y-101585117D01*
X177633178Y-101568687D01*
X177472759Y-101520024D01*
X177324925Y-101441005D01*
X177324923Y-101441004D01*
X177195342Y-101334659D01*
X177088997Y-101205078D01*
X177042452Y-101117998D01*
X177009977Y-101057242D01*
X176961314Y-100896823D01*
X176949000Y-100771803D01*
X176949000Y-99888197D01*
X176961313Y-99763178D01*
X177009976Y-99602759D01*
X177088995Y-99454923D01*
X177195341Y-99325341D01*
X177324922Y-99218996D01*
X177340094Y-99210886D01*
X177472758Y-99139976D01*
X177633177Y-99091313D01*
X177800000Y-99074883D01*
X177966822Y-99091313D01*
X177966822Y-99091313D01*
G37*
G36*
X203459369Y-99474971D02*
G01*
X203621195Y-99542002D01*
X203766829Y-99639311D01*
X203890689Y-99763171D01*
X203987998Y-99908805D01*
X204055029Y-100070631D01*
X204089200Y-100242420D01*
X204089200Y-100417580D01*
X204055029Y-100589369D01*
X203987998Y-100751195D01*
X203890689Y-100896829D01*
X203766829Y-101020689D01*
X203621195Y-101117998D01*
X203459369Y-101185029D01*
X203287580Y-101219200D01*
X203112420Y-101219200D01*
X202940631Y-101185029D01*
X202778805Y-101117998D01*
X202633171Y-101020689D01*
X202509311Y-100896829D01*
X202412002Y-100751195D01*
X202344971Y-100589369D01*
X202310800Y-100417580D01*
X202310800Y-100242420D01*
X202344971Y-100070631D01*
X202412002Y-99908805D01*
X202509311Y-99763171D01*
X202633171Y-99639311D01*
X202778805Y-99542002D01*
X202940631Y-99474971D01*
X203112420Y-99440800D01*
X203287580Y-99440800D01*
X203459369Y-99474971D01*
X203459369Y-99474971D01*
G37*
G36*
X205999369Y-99474971D02*
G01*
X206161195Y-99542002D01*
X206306829Y-99639311D01*
X206430689Y-99763171D01*
X206527998Y-99908805D01*
X206595029Y-100070631D01*
X206629200Y-100242420D01*
X206629200Y-100417580D01*
X206595029Y-100589369D01*
X206527998Y-100751195D01*
X206430689Y-100896829D01*
X206306829Y-101020689D01*
X206161195Y-101117998D01*
X205999369Y-101185029D01*
X205827580Y-101219200D01*
X205652420Y-101219200D01*
X205480631Y-101185029D01*
X205318805Y-101117998D01*
X205173171Y-101020689D01*
X205049311Y-100896829D01*
X204952002Y-100751195D01*
X204884971Y-100589369D01*
X204850800Y-100417580D01*
X204850800Y-100242420D01*
X204884971Y-100070631D01*
X204952002Y-99908805D01*
X205049311Y-99763171D01*
X205173171Y-99639311D01*
X205318805Y-99542002D01*
X205480631Y-99474971D01*
X205652420Y-99440800D01*
X205827580Y-99440800D01*
X205999369Y-99474971D01*
X205999369Y-99474971D01*
G37*
G36*
X208539369Y-99474971D02*
G01*
X208701195Y-99542002D01*
X208846829Y-99639311D01*
X208970689Y-99763171D01*
X209067998Y-99908805D01*
X209135029Y-100070631D01*
X209169200Y-100242420D01*
X209169200Y-100417580D01*
X209135029Y-100589369D01*
X209067998Y-100751195D01*
X208970689Y-100896829D01*
X208846829Y-101020689D01*
X208701195Y-101117998D01*
X208539369Y-101185029D01*
X208367580Y-101219200D01*
X208192420Y-101219200D01*
X208020631Y-101185029D01*
X207858805Y-101117998D01*
X207713171Y-101020689D01*
X207589311Y-100896829D01*
X207492002Y-100751195D01*
X207424971Y-100589369D01*
X207390800Y-100417580D01*
X207390800Y-100242420D01*
X207424971Y-100070631D01*
X207492002Y-99908805D01*
X207589311Y-99763171D01*
X207713171Y-99639311D01*
X207858805Y-99542002D01*
X208020631Y-99474971D01*
X208192420Y-99440800D01*
X208367580Y-99440800D01*
X208539369Y-99474971D01*
X208539369Y-99474971D01*
G37*
G36*
X211079369Y-99474971D02*
G01*
X211241195Y-99542002D01*
X211386829Y-99639311D01*
X211510689Y-99763171D01*
X211607998Y-99908805D01*
X211675029Y-100070631D01*
X211709200Y-100242420D01*
X211709200Y-100417580D01*
X211675029Y-100589369D01*
X211607998Y-100751195D01*
X211510689Y-100896829D01*
X211386829Y-101020689D01*
X211241195Y-101117998D01*
X211079369Y-101185029D01*
X210907580Y-101219200D01*
X210732420Y-101219200D01*
X210560631Y-101185029D01*
X210398805Y-101117998D01*
X210253171Y-101020689D01*
X210129311Y-100896829D01*
X210032002Y-100751195D01*
X209964971Y-100589369D01*
X209930800Y-100417580D01*
X209930800Y-100242420D01*
X209964971Y-100070631D01*
X210032002Y-99908805D01*
X210129311Y-99763171D01*
X210253171Y-99639311D01*
X210398805Y-99542002D01*
X210560631Y-99474971D01*
X210732420Y-99440800D01*
X210907580Y-99440800D01*
X211079369Y-99474971D01*
X211079369Y-99474971D01*
G37*
G36*
X213619369Y-99474971D02*
G01*
X213781195Y-99542002D01*
X213926829Y-99639311D01*
X214050689Y-99763171D01*
X214147998Y-99908805D01*
X214215029Y-100070631D01*
X214249200Y-100242420D01*
X214249200Y-100417580D01*
X214215029Y-100589369D01*
X214147998Y-100751195D01*
X214050689Y-100896829D01*
X213926829Y-101020689D01*
X213781195Y-101117998D01*
X213619369Y-101185029D01*
X213447580Y-101219200D01*
X213272420Y-101219200D01*
X213100631Y-101185029D01*
X212938805Y-101117998D01*
X212793171Y-101020689D01*
X212669311Y-100896829D01*
X212572002Y-100751195D01*
X212504971Y-100589369D01*
X212470800Y-100417580D01*
X212470800Y-100242420D01*
X212504971Y-100070631D01*
X212572002Y-99908805D01*
X212669311Y-99763171D01*
X212793171Y-99639311D01*
X212938805Y-99542002D01*
X213100631Y-99474971D01*
X213272420Y-99440800D01*
X213447580Y-99440800D01*
X213619369Y-99474971D01*
X213619369Y-99474971D01*
G37*
G36*
X216159369Y-99474971D02*
G01*
X216321195Y-99542002D01*
X216466829Y-99639311D01*
X216590689Y-99763171D01*
X216687998Y-99908805D01*
X216755029Y-100070631D01*
X216789200Y-100242420D01*
X216789200Y-100417580D01*
X216755029Y-100589369D01*
X216687998Y-100751195D01*
X216590689Y-100896829D01*
X216466829Y-101020689D01*
X216321195Y-101117998D01*
X216159369Y-101185029D01*
X215987580Y-101219200D01*
X215812420Y-101219200D01*
X215640631Y-101185029D01*
X215478805Y-101117998D01*
X215333171Y-101020689D01*
X215209311Y-100896829D01*
X215112002Y-100751195D01*
X215044971Y-100589369D01*
X215010800Y-100417580D01*
X215010800Y-100242420D01*
X215044971Y-100070631D01*
X215112002Y-99908805D01*
X215209311Y-99763171D01*
X215333171Y-99639311D01*
X215478805Y-99542002D01*
X215640631Y-99474971D01*
X215812420Y-99440800D01*
X215987580Y-99440800D01*
X216159369Y-99474971D01*
X216159369Y-99474971D01*
G37*
G36*
X219329200Y-101219200D02*
G01*
X217550800Y-101219200D01*
X217550800Y-99440800D01*
X219329200Y-99440800D01*
X219329200Y-101219200D01*
X219329200Y-101219200D01*
G37*
G36*
X200919369Y-99474971D02*
G01*
X201081195Y-99542002D01*
X201226829Y-99639311D01*
X201350689Y-99763171D01*
X201447998Y-99908805D01*
X201515029Y-100070631D01*
X201549200Y-100242420D01*
X201549200Y-100417580D01*
X201515029Y-100589369D01*
X201447998Y-100751195D01*
X201350689Y-100896829D01*
X201226829Y-101020689D01*
X201081195Y-101117998D01*
X200919369Y-101185029D01*
X200747580Y-101219200D01*
X200572420Y-101219200D01*
X200400631Y-101185029D01*
X200238805Y-101117998D01*
X200093171Y-101020689D01*
X199969311Y-100896829D01*
X199872002Y-100751195D01*
X199804971Y-100589369D01*
X199770800Y-100417580D01*
X199770800Y-100242420D01*
X199804971Y-100070631D01*
X199872002Y-99908805D01*
X199969311Y-99763171D01*
X200093171Y-99639311D01*
X200238805Y-99542002D01*
X200400631Y-99474971D01*
X200572420Y-99440800D01*
X200747580Y-99440800D01*
X200919369Y-99474971D01*
X200919369Y-99474971D01*
G37*
G36*
X233846823Y-95681313D02*
G01*
X234007242Y-95729976D01*
X234139906Y-95800886D01*
X234155078Y-95808996D01*
X234284659Y-95915341D01*
X234391004Y-96044922D01*
X234391005Y-96044924D01*
X234470024Y-96192758D01*
X234518687Y-96353177D01*
X234535117Y-96520000D01*
X234518687Y-96686823D01*
X234470024Y-96847242D01*
X234399114Y-96979906D01*
X234391004Y-96995078D01*
X234284659Y-97124659D01*
X234155078Y-97231004D01*
X234155076Y-97231005D01*
X234007242Y-97310024D01*
X233846823Y-97358687D01*
X233721804Y-97371000D01*
X233638196Y-97371000D01*
X233513177Y-97358687D01*
X233352758Y-97310024D01*
X233204924Y-97231005D01*
X233204922Y-97231004D01*
X233075341Y-97124659D01*
X232968996Y-96995078D01*
X232960886Y-96979906D01*
X232889976Y-96847242D01*
X232841313Y-96686823D01*
X232824883Y-96520000D01*
X232841313Y-96353177D01*
X232889976Y-96192758D01*
X232968995Y-96044924D01*
X232968996Y-96044922D01*
X233075341Y-95915341D01*
X233204922Y-95808996D01*
X233220094Y-95800886D01*
X233352758Y-95729976D01*
X233513177Y-95681313D01*
X233638196Y-95669000D01*
X233721804Y-95669000D01*
X233846823Y-95681313D01*
X233846823Y-95681313D01*
G37*
G36*
X226911000Y-97371000D02*
G01*
X225209000Y-97371000D01*
X225209000Y-95669000D01*
X226911000Y-95669000D01*
X226911000Y-97371000D01*
X226911000Y-97371000D01*
G37*
G36*
X246490442Y-91815518D02*
G01*
X246556627Y-91822037D01*
X246726466Y-91873557D01*
X246882991Y-91957222D01*
X246918729Y-91986552D01*
X247020186Y-92069814D01*
X247103448Y-92171271D01*
X247132778Y-92207009D01*
X247216443Y-92363534D01*
X247267963Y-92533373D01*
X247285359Y-92710000D01*
X247267963Y-92886627D01*
X247216443Y-93056466D01*
X247132778Y-93212991D01*
X247103448Y-93248729D01*
X247020186Y-93350186D01*
X246918729Y-93433448D01*
X246882991Y-93462778D01*
X246726466Y-93546443D01*
X246556627Y-93597963D01*
X246490442Y-93604482D01*
X246424260Y-93611000D01*
X246335740Y-93611000D01*
X246269557Y-93604481D01*
X246203373Y-93597963D01*
X246033534Y-93546443D01*
X245877009Y-93462778D01*
X245841271Y-93433448D01*
X245739814Y-93350186D01*
X245656552Y-93248729D01*
X245627222Y-93212991D01*
X245543557Y-93056466D01*
X245492037Y-92886627D01*
X245474641Y-92710000D01*
X245492037Y-92533373D01*
X245543557Y-92363534D01*
X245627222Y-92207009D01*
X245656552Y-92171271D01*
X245739814Y-92069814D01*
X245841271Y-91986552D01*
X245877009Y-91957222D01*
X246033534Y-91873557D01*
X246203373Y-91822037D01*
X246269558Y-91815518D01*
X246335740Y-91809000D01*
X246424260Y-91809000D01*
X246490442Y-91815518D01*
X246490442Y-91815518D01*
G37*
G36*
X233846823Y-90601313D02*
G01*
X234007242Y-90649976D01*
X234139906Y-90720886D01*
X234155078Y-90728996D01*
X234284659Y-90835341D01*
X234391004Y-90964922D01*
X234391005Y-90964924D01*
X234470024Y-91112758D01*
X234518687Y-91273177D01*
X234535117Y-91440000D01*
X234518687Y-91606823D01*
X234470024Y-91767242D01*
X234440735Y-91822037D01*
X234391004Y-91915078D01*
X234284659Y-92044659D01*
X234155078Y-92151004D01*
X234155076Y-92151005D01*
X234007242Y-92230024D01*
X233846823Y-92278687D01*
X233721804Y-92291000D01*
X233638196Y-92291000D01*
X233513177Y-92278687D01*
X233352758Y-92230024D01*
X233204924Y-92151005D01*
X233204922Y-92151004D01*
X233075341Y-92044659D01*
X232968996Y-91915078D01*
X232919265Y-91822037D01*
X232889976Y-91767242D01*
X232841313Y-91606823D01*
X232824883Y-91440000D01*
X232841313Y-91273177D01*
X232889976Y-91112758D01*
X232968995Y-90964924D01*
X232968996Y-90964922D01*
X233075341Y-90835341D01*
X233204922Y-90728996D01*
X233220094Y-90720886D01*
X233352758Y-90649976D01*
X233513177Y-90601313D01*
X233638196Y-90589000D01*
X233721804Y-90589000D01*
X233846823Y-90601313D01*
X233846823Y-90601313D01*
G37*
G36*
X226226823Y-90601313D02*
G01*
X226387242Y-90649976D01*
X226519906Y-90720886D01*
X226535078Y-90728996D01*
X226664659Y-90835341D01*
X226771004Y-90964922D01*
X226771005Y-90964924D01*
X226850024Y-91112758D01*
X226898687Y-91273177D01*
X226915117Y-91440000D01*
X226898687Y-91606823D01*
X226850024Y-91767242D01*
X226820735Y-91822037D01*
X226771004Y-91915078D01*
X226664659Y-92044659D01*
X226535078Y-92151004D01*
X226535076Y-92151005D01*
X226387242Y-92230024D01*
X226226823Y-92278687D01*
X226101804Y-92291000D01*
X226018196Y-92291000D01*
X225893177Y-92278687D01*
X225732758Y-92230024D01*
X225584924Y-92151005D01*
X225584922Y-92151004D01*
X225455341Y-92044659D01*
X225348996Y-91915078D01*
X225299265Y-91822037D01*
X225269976Y-91767242D01*
X225221313Y-91606823D01*
X225204883Y-91440000D01*
X225221313Y-91273177D01*
X225269976Y-91112758D01*
X225348995Y-90964924D01*
X225348996Y-90964922D01*
X225455341Y-90835341D01*
X225584922Y-90728996D01*
X225600094Y-90720886D01*
X225732758Y-90649976D01*
X225893177Y-90601313D01*
X226018196Y-90589000D01*
X226101804Y-90589000D01*
X226226823Y-90601313D01*
X226226823Y-90601313D01*
G37*
G36*
X246490443Y-89275519D02*
G01*
X246556627Y-89282037D01*
X246726466Y-89333557D01*
X246882991Y-89417222D01*
X246918729Y-89446552D01*
X247020186Y-89529814D01*
X247103448Y-89631271D01*
X247132778Y-89667009D01*
X247216443Y-89823534D01*
X247267963Y-89993373D01*
X247285359Y-90170000D01*
X247267963Y-90346627D01*
X247216443Y-90516466D01*
X247132778Y-90672991D01*
X247103448Y-90708729D01*
X247020186Y-90810186D01*
X246918729Y-90893448D01*
X246882991Y-90922778D01*
X246726466Y-91006443D01*
X246556627Y-91057963D01*
X246490442Y-91064482D01*
X246424260Y-91071000D01*
X246335740Y-91071000D01*
X246269558Y-91064482D01*
X246203373Y-91057963D01*
X246033534Y-91006443D01*
X245877009Y-90922778D01*
X245841271Y-90893448D01*
X245739814Y-90810186D01*
X245656552Y-90708729D01*
X245627222Y-90672991D01*
X245543557Y-90516466D01*
X245492037Y-90346627D01*
X245474641Y-90170000D01*
X245492037Y-89993373D01*
X245543557Y-89823534D01*
X245627222Y-89667009D01*
X245656552Y-89631271D01*
X245739814Y-89529814D01*
X245841271Y-89446552D01*
X245877009Y-89417222D01*
X246033534Y-89333557D01*
X246203373Y-89282037D01*
X246269557Y-89275519D01*
X246335740Y-89269000D01*
X246424260Y-89269000D01*
X246490443Y-89275519D01*
X246490443Y-89275519D01*
G37*
G36*
X177966822Y-86391313D02*
G01*
X178127241Y-86439976D01*
X178275077Y-86518995D01*
X178404659Y-86625341D01*
X178511004Y-86754922D01*
X178511005Y-86754924D01*
X178590024Y-86902758D01*
X178638687Y-87063177D01*
X178651000Y-87188196D01*
X178651000Y-88071803D01*
X178638687Y-88196822D01*
X178590024Y-88357242D01*
X178576374Y-88382779D01*
X178511004Y-88505078D01*
X178404659Y-88634659D01*
X178275078Y-88741004D01*
X178275076Y-88741005D01*
X178127242Y-88820024D01*
X177966823Y-88868687D01*
X177800000Y-88885117D01*
X177633178Y-88868687D01*
X177472759Y-88820024D01*
X177324925Y-88741005D01*
X177324923Y-88741004D01*
X177195342Y-88634659D01*
X177088997Y-88505078D01*
X177023627Y-88382779D01*
X177009977Y-88357242D01*
X176961314Y-88196823D01*
X176949000Y-88071803D01*
X176949000Y-87188197D01*
X176961313Y-87063178D01*
X177009976Y-86902759D01*
X177088995Y-86754923D01*
X177195341Y-86625341D01*
X177324922Y-86518996D01*
X177340094Y-86510886D01*
X177472758Y-86439976D01*
X177633177Y-86391313D01*
X177800000Y-86374883D01*
X177966822Y-86391313D01*
X177966822Y-86391313D01*
G37*
G36*
X183046822Y-86391313D02*
G01*
X183207241Y-86439976D01*
X183355077Y-86518995D01*
X183484659Y-86625341D01*
X183591004Y-86754922D01*
X183591005Y-86754924D01*
X183670024Y-86902758D01*
X183718687Y-87063177D01*
X183731000Y-87188196D01*
X183731000Y-88071803D01*
X183718687Y-88196822D01*
X183670024Y-88357242D01*
X183656374Y-88382779D01*
X183591004Y-88505078D01*
X183484659Y-88634659D01*
X183355078Y-88741004D01*
X183355076Y-88741005D01*
X183207242Y-88820024D01*
X183046823Y-88868687D01*
X182880000Y-88885117D01*
X182713178Y-88868687D01*
X182552759Y-88820024D01*
X182404925Y-88741005D01*
X182404923Y-88741004D01*
X182275342Y-88634659D01*
X182168997Y-88505078D01*
X182103627Y-88382779D01*
X182089977Y-88357242D01*
X182041314Y-88196823D01*
X182029000Y-88071803D01*
X182029000Y-87188197D01*
X182041313Y-87063178D01*
X182089976Y-86902759D01*
X182168995Y-86754923D01*
X182275341Y-86625341D01*
X182404922Y-86518996D01*
X182420094Y-86510886D01*
X182552758Y-86439976D01*
X182713177Y-86391313D01*
X182880000Y-86374883D01*
X183046822Y-86391313D01*
X183046822Y-86391313D01*
G37*
G36*
X185586822Y-86391313D02*
G01*
X185747241Y-86439976D01*
X185895077Y-86518995D01*
X186024659Y-86625341D01*
X186131004Y-86754922D01*
X186131005Y-86754924D01*
X186210024Y-86902758D01*
X186258687Y-87063177D01*
X186271000Y-87188196D01*
X186271000Y-88071803D01*
X186258687Y-88196822D01*
X186210024Y-88357242D01*
X186196374Y-88382779D01*
X186131004Y-88505078D01*
X186024659Y-88634659D01*
X185895078Y-88741004D01*
X185895076Y-88741005D01*
X185747242Y-88820024D01*
X185586823Y-88868687D01*
X185420000Y-88885117D01*
X185253178Y-88868687D01*
X185092759Y-88820024D01*
X184944925Y-88741005D01*
X184944923Y-88741004D01*
X184815342Y-88634659D01*
X184708997Y-88505078D01*
X184643627Y-88382779D01*
X184629977Y-88357242D01*
X184581314Y-88196823D01*
X184569000Y-88071803D01*
X184569000Y-87188197D01*
X184581313Y-87063178D01*
X184629976Y-86902759D01*
X184708995Y-86754923D01*
X184815341Y-86625341D01*
X184944922Y-86518996D01*
X184960094Y-86510886D01*
X185092758Y-86439976D01*
X185253177Y-86391313D01*
X185420000Y-86374883D01*
X185586822Y-86391313D01*
X185586822Y-86391313D01*
G37*
G36*
X180506822Y-86391313D02*
G01*
X180667241Y-86439976D01*
X180815077Y-86518995D01*
X180944659Y-86625341D01*
X181051004Y-86754922D01*
X181051005Y-86754924D01*
X181130024Y-86902758D01*
X181178687Y-87063177D01*
X181191000Y-87188196D01*
X181191000Y-88071803D01*
X181178687Y-88196822D01*
X181130024Y-88357242D01*
X181116374Y-88382779D01*
X181051004Y-88505078D01*
X180944659Y-88634659D01*
X180815078Y-88741004D01*
X180815076Y-88741005D01*
X180667242Y-88820024D01*
X180506823Y-88868687D01*
X180340000Y-88885117D01*
X180173178Y-88868687D01*
X180012759Y-88820024D01*
X179864925Y-88741005D01*
X179864923Y-88741004D01*
X179735342Y-88634659D01*
X179628997Y-88505078D01*
X179563627Y-88382779D01*
X179549977Y-88357242D01*
X179501314Y-88196823D01*
X179489000Y-88071803D01*
X179489000Y-87188197D01*
X179501313Y-87063178D01*
X179549976Y-86902759D01*
X179628995Y-86754923D01*
X179735341Y-86625341D01*
X179864922Y-86518996D01*
X179880094Y-86510886D01*
X180012758Y-86439976D01*
X180173177Y-86391313D01*
X180340000Y-86374883D01*
X180506822Y-86391313D01*
X180506822Y-86391313D01*
G37*
G36*
X190666822Y-86391313D02*
G01*
X190827241Y-86439976D01*
X190975077Y-86518995D01*
X191104659Y-86625341D01*
X191211004Y-86754922D01*
X191211005Y-86754924D01*
X191290024Y-86902758D01*
X191338687Y-87063177D01*
X191351000Y-87188196D01*
X191351000Y-88071803D01*
X191338687Y-88196822D01*
X191290024Y-88357242D01*
X191276374Y-88382779D01*
X191211004Y-88505078D01*
X191104659Y-88634659D01*
X190975078Y-88741004D01*
X190975076Y-88741005D01*
X190827242Y-88820024D01*
X190666823Y-88868687D01*
X190500000Y-88885117D01*
X190333178Y-88868687D01*
X190172759Y-88820024D01*
X190024925Y-88741005D01*
X190024923Y-88741004D01*
X189895342Y-88634659D01*
X189788997Y-88505078D01*
X189723627Y-88382779D01*
X189709977Y-88357242D01*
X189661314Y-88196823D01*
X189649000Y-88071803D01*
X189649000Y-87188197D01*
X189661313Y-87063178D01*
X189709976Y-86902759D01*
X189788995Y-86754923D01*
X189895341Y-86625341D01*
X190024922Y-86518996D01*
X190040094Y-86510886D01*
X190172758Y-86439976D01*
X190333177Y-86391313D01*
X190500000Y-86374883D01*
X190666822Y-86391313D01*
X190666822Y-86391313D01*
G37*
G36*
X193206822Y-86391313D02*
G01*
X193367241Y-86439976D01*
X193515077Y-86518995D01*
X193644659Y-86625341D01*
X193751004Y-86754922D01*
X193751005Y-86754924D01*
X193830024Y-86902758D01*
X193878687Y-87063177D01*
X193891000Y-87188196D01*
X193891000Y-88071803D01*
X193878687Y-88196822D01*
X193830024Y-88357242D01*
X193816374Y-88382779D01*
X193751004Y-88505078D01*
X193644659Y-88634659D01*
X193515078Y-88741004D01*
X193515076Y-88741005D01*
X193367242Y-88820024D01*
X193206823Y-88868687D01*
X193040000Y-88885117D01*
X192873178Y-88868687D01*
X192712759Y-88820024D01*
X192564925Y-88741005D01*
X192564923Y-88741004D01*
X192435342Y-88634659D01*
X192328997Y-88505078D01*
X192263627Y-88382779D01*
X192249977Y-88357242D01*
X192201314Y-88196823D01*
X192189000Y-88071803D01*
X192189000Y-87188197D01*
X192201313Y-87063178D01*
X192249976Y-86902759D01*
X192328995Y-86754923D01*
X192435341Y-86625341D01*
X192564922Y-86518996D01*
X192580094Y-86510886D01*
X192712758Y-86439976D01*
X192873177Y-86391313D01*
X193040000Y-86374883D01*
X193206822Y-86391313D01*
X193206822Y-86391313D01*
G37*
G36*
X188126822Y-86391313D02*
G01*
X188287241Y-86439976D01*
X188435077Y-86518995D01*
X188564659Y-86625341D01*
X188671004Y-86754922D01*
X188671005Y-86754924D01*
X188750024Y-86902758D01*
X188798687Y-87063177D01*
X188811000Y-87188196D01*
X188811000Y-88071803D01*
X188798687Y-88196822D01*
X188750024Y-88357242D01*
X188736374Y-88382779D01*
X188671004Y-88505078D01*
X188564659Y-88634659D01*
X188435078Y-88741004D01*
X188435076Y-88741005D01*
X188287242Y-88820024D01*
X188126823Y-88868687D01*
X187960000Y-88885117D01*
X187793178Y-88868687D01*
X187632759Y-88820024D01*
X187484925Y-88741005D01*
X187484923Y-88741004D01*
X187355342Y-88634659D01*
X187248997Y-88505078D01*
X187183627Y-88382779D01*
X187169977Y-88357242D01*
X187121314Y-88196823D01*
X187109000Y-88071803D01*
X187109000Y-87188197D01*
X187121313Y-87063178D01*
X187169976Y-86902759D01*
X187248995Y-86754923D01*
X187355341Y-86625341D01*
X187484922Y-86518996D01*
X187500094Y-86510886D01*
X187632758Y-86439976D01*
X187793177Y-86391313D01*
X187960000Y-86374883D01*
X188126822Y-86391313D01*
X188126822Y-86391313D01*
G37*
G36*
X176111000Y-88881000D02*
G01*
X174409000Y-88881000D01*
X174409000Y-86379000D01*
X176111000Y-86379000D01*
X176111000Y-88881000D01*
X176111000Y-88881000D01*
G37*
G36*
X246490442Y-86735518D02*
G01*
X246556627Y-86742037D01*
X246726466Y-86793557D01*
X246882991Y-86877222D01*
X246914106Y-86902758D01*
X247020186Y-86989814D01*
X247103448Y-87091271D01*
X247132778Y-87127009D01*
X247216443Y-87283534D01*
X247267963Y-87453373D01*
X247285359Y-87630000D01*
X247267963Y-87806627D01*
X247216443Y-87976466D01*
X247132778Y-88132991D01*
X247103448Y-88168729D01*
X247020186Y-88270186D01*
X246918729Y-88353448D01*
X246882991Y-88382778D01*
X246726466Y-88466443D01*
X246556627Y-88517963D01*
X246490442Y-88524482D01*
X246424260Y-88531000D01*
X246335740Y-88531000D01*
X246269558Y-88524482D01*
X246203373Y-88517963D01*
X246033534Y-88466443D01*
X245877009Y-88382778D01*
X245841271Y-88353448D01*
X245739814Y-88270186D01*
X245656552Y-88168729D01*
X245627222Y-88132991D01*
X245543557Y-87976466D01*
X245492037Y-87806627D01*
X245474641Y-87630000D01*
X245492037Y-87453373D01*
X245543557Y-87283534D01*
X245627222Y-87127009D01*
X245656552Y-87091271D01*
X245739814Y-86989814D01*
X245845894Y-86902758D01*
X245877009Y-86877222D01*
X246033534Y-86793557D01*
X246203373Y-86742037D01*
X246269558Y-86735518D01*
X246335740Y-86729000D01*
X246424260Y-86729000D01*
X246490442Y-86735518D01*
X246490442Y-86735518D01*
G37*
G36*
X218699369Y-86774971D02*
G01*
X218861195Y-86842002D01*
X219006829Y-86939311D01*
X219130689Y-87063171D01*
X219227998Y-87208805D01*
X219295029Y-87370631D01*
X219329200Y-87542420D01*
X219329200Y-87717580D01*
X219295029Y-87889369D01*
X219227998Y-88051195D01*
X219130689Y-88196829D01*
X219006829Y-88320689D01*
X218861195Y-88417998D01*
X218699369Y-88485029D01*
X218527580Y-88519200D01*
X218352420Y-88519200D01*
X218180631Y-88485029D01*
X218018805Y-88417998D01*
X217873171Y-88320689D01*
X217749311Y-88196829D01*
X217652002Y-88051195D01*
X217584971Y-87889369D01*
X217550800Y-87717580D01*
X217550800Y-87542420D01*
X217584971Y-87370631D01*
X217652002Y-87208805D01*
X217749311Y-87063171D01*
X217873171Y-86939311D01*
X218018805Y-86842002D01*
X218180631Y-86774971D01*
X218352420Y-86740800D01*
X218527580Y-86740800D01*
X218699369Y-86774971D01*
X218699369Y-86774971D01*
G37*
G36*
X216159369Y-86774971D02*
G01*
X216321195Y-86842002D01*
X216466829Y-86939311D01*
X216590689Y-87063171D01*
X216687998Y-87208805D01*
X216755029Y-87370631D01*
X216789200Y-87542420D01*
X216789200Y-87717580D01*
X216755029Y-87889369D01*
X216687998Y-88051195D01*
X216590689Y-88196829D01*
X216466829Y-88320689D01*
X216321195Y-88417998D01*
X216159369Y-88485029D01*
X215987580Y-88519200D01*
X215812420Y-88519200D01*
X215640631Y-88485029D01*
X215478805Y-88417998D01*
X215333171Y-88320689D01*
X215209311Y-88196829D01*
X215112002Y-88051195D01*
X215044971Y-87889369D01*
X215010800Y-87717580D01*
X215010800Y-87542420D01*
X215044971Y-87370631D01*
X215112002Y-87208805D01*
X215209311Y-87063171D01*
X215333171Y-86939311D01*
X215478805Y-86842002D01*
X215640631Y-86774971D01*
X215812420Y-86740800D01*
X215987580Y-86740800D01*
X216159369Y-86774971D01*
X216159369Y-86774971D01*
G37*
G36*
X211079369Y-86774971D02*
G01*
X211241195Y-86842002D01*
X211386829Y-86939311D01*
X211510689Y-87063171D01*
X211607998Y-87208805D01*
X211675029Y-87370631D01*
X211709200Y-87542420D01*
X211709200Y-87717580D01*
X211675029Y-87889369D01*
X211607998Y-88051195D01*
X211510689Y-88196829D01*
X211386829Y-88320689D01*
X211241195Y-88417998D01*
X211079369Y-88485029D01*
X210907580Y-88519200D01*
X210732420Y-88519200D01*
X210560631Y-88485029D01*
X210398805Y-88417998D01*
X210253171Y-88320689D01*
X210129311Y-88196829D01*
X210032002Y-88051195D01*
X209964971Y-87889369D01*
X209930800Y-87717580D01*
X209930800Y-87542420D01*
X209964971Y-87370631D01*
X210032002Y-87208805D01*
X210129311Y-87063171D01*
X210253171Y-86939311D01*
X210398805Y-86842002D01*
X210560631Y-86774971D01*
X210732420Y-86740800D01*
X210907580Y-86740800D01*
X211079369Y-86774971D01*
X211079369Y-86774971D01*
G37*
G36*
X208539369Y-86774971D02*
G01*
X208701195Y-86842002D01*
X208846829Y-86939311D01*
X208970689Y-87063171D01*
X209067998Y-87208805D01*
X209135029Y-87370631D01*
X209169200Y-87542420D01*
X209169200Y-87717580D01*
X209135029Y-87889369D01*
X209067998Y-88051195D01*
X208970689Y-88196829D01*
X208846829Y-88320689D01*
X208701195Y-88417998D01*
X208539369Y-88485029D01*
X208367580Y-88519200D01*
X208192420Y-88519200D01*
X208020631Y-88485029D01*
X207858805Y-88417998D01*
X207713171Y-88320689D01*
X207589311Y-88196829D01*
X207492002Y-88051195D01*
X207424971Y-87889369D01*
X207390800Y-87717580D01*
X207390800Y-87542420D01*
X207424971Y-87370631D01*
X207492002Y-87208805D01*
X207589311Y-87063171D01*
X207713171Y-86939311D01*
X207858805Y-86842002D01*
X208020631Y-86774971D01*
X208192420Y-86740800D01*
X208367580Y-86740800D01*
X208539369Y-86774971D01*
X208539369Y-86774971D01*
G37*
G36*
X205999369Y-86774971D02*
G01*
X206161195Y-86842002D01*
X206306829Y-86939311D01*
X206430689Y-87063171D01*
X206527998Y-87208805D01*
X206595029Y-87370631D01*
X206629200Y-87542420D01*
X206629200Y-87717580D01*
X206595029Y-87889369D01*
X206527998Y-88051195D01*
X206430689Y-88196829D01*
X206306829Y-88320689D01*
X206161195Y-88417998D01*
X205999369Y-88485029D01*
X205827580Y-88519200D01*
X205652420Y-88519200D01*
X205480631Y-88485029D01*
X205318805Y-88417998D01*
X205173171Y-88320689D01*
X205049311Y-88196829D01*
X204952002Y-88051195D01*
X204884971Y-87889369D01*
X204850800Y-87717580D01*
X204850800Y-87542420D01*
X204884971Y-87370631D01*
X204952002Y-87208805D01*
X205049311Y-87063171D01*
X205173171Y-86939311D01*
X205318805Y-86842002D01*
X205480631Y-86774971D01*
X205652420Y-86740800D01*
X205827580Y-86740800D01*
X205999369Y-86774971D01*
X205999369Y-86774971D01*
G37*
G36*
X203459369Y-86774971D02*
G01*
X203621195Y-86842002D01*
X203766829Y-86939311D01*
X203890689Y-87063171D01*
X203987998Y-87208805D01*
X204055029Y-87370631D01*
X204089200Y-87542420D01*
X204089200Y-87717580D01*
X204055029Y-87889369D01*
X203987998Y-88051195D01*
X203890689Y-88196829D01*
X203766829Y-88320689D01*
X203621195Y-88417998D01*
X203459369Y-88485029D01*
X203287580Y-88519200D01*
X203112420Y-88519200D01*
X202940631Y-88485029D01*
X202778805Y-88417998D01*
X202633171Y-88320689D01*
X202509311Y-88196829D01*
X202412002Y-88051195D01*
X202344971Y-87889369D01*
X202310800Y-87717580D01*
X202310800Y-87542420D01*
X202344971Y-87370631D01*
X202412002Y-87208805D01*
X202509311Y-87063171D01*
X202633171Y-86939311D01*
X202778805Y-86842002D01*
X202940631Y-86774971D01*
X203112420Y-86740800D01*
X203287580Y-86740800D01*
X203459369Y-86774971D01*
X203459369Y-86774971D01*
G37*
G36*
X200919369Y-86774971D02*
G01*
X201081195Y-86842002D01*
X201226829Y-86939311D01*
X201350689Y-87063171D01*
X201447998Y-87208805D01*
X201515029Y-87370631D01*
X201549200Y-87542420D01*
X201549200Y-87717580D01*
X201515029Y-87889369D01*
X201447998Y-88051195D01*
X201350689Y-88196829D01*
X201226829Y-88320689D01*
X201081195Y-88417998D01*
X200919369Y-88485029D01*
X200747580Y-88519200D01*
X200572420Y-88519200D01*
X200400631Y-88485029D01*
X200238805Y-88417998D01*
X200093171Y-88320689D01*
X199969311Y-88196829D01*
X199872002Y-88051195D01*
X199804971Y-87889369D01*
X199770800Y-87717580D01*
X199770800Y-87542420D01*
X199804971Y-87370631D01*
X199872002Y-87208805D01*
X199969311Y-87063171D01*
X200093171Y-86939311D01*
X200238805Y-86842002D01*
X200400631Y-86774971D01*
X200572420Y-86740800D01*
X200747580Y-86740800D01*
X200919369Y-86774971D01*
X200919369Y-86774971D01*
G37*
G36*
X213619369Y-86774971D02*
G01*
X213781195Y-86842002D01*
X213926829Y-86939311D01*
X214050689Y-87063171D01*
X214147998Y-87208805D01*
X214215029Y-87370631D01*
X214249200Y-87542420D01*
X214249200Y-87717580D01*
X214215029Y-87889369D01*
X214147998Y-88051195D01*
X214050689Y-88196829D01*
X213926829Y-88320689D01*
X213781195Y-88417998D01*
X213619369Y-88485029D01*
X213447580Y-88519200D01*
X213272420Y-88519200D01*
X213100631Y-88485029D01*
X212938805Y-88417998D01*
X212793171Y-88320689D01*
X212669311Y-88196829D01*
X212572002Y-88051195D01*
X212504971Y-87889369D01*
X212470800Y-87717580D01*
X212470800Y-87542420D01*
X212504971Y-87370631D01*
X212572002Y-87208805D01*
X212669311Y-87063171D01*
X212793171Y-86939311D01*
X212938805Y-86842002D01*
X213100631Y-86774971D01*
X213272420Y-86740800D01*
X213447580Y-86740800D01*
X213619369Y-86774971D01*
X213619369Y-86774971D01*
G37*
G36*
X226911000Y-87211000D02*
G01*
X225209000Y-87211000D01*
X225209000Y-85509000D01*
X226911000Y-85509000D01*
X226911000Y-87211000D01*
X226911000Y-87211000D01*
G37*
G36*
X233846823Y-85521313D02*
G01*
X234007242Y-85569976D01*
X234139906Y-85640886D01*
X234155078Y-85648996D01*
X234284659Y-85755341D01*
X234391004Y-85884922D01*
X234391005Y-85884924D01*
X234470024Y-86032758D01*
X234518687Y-86193177D01*
X234535117Y-86360000D01*
X234518687Y-86526823D01*
X234470024Y-86687242D01*
X234433847Y-86754924D01*
X234391004Y-86835078D01*
X234284659Y-86964659D01*
X234155078Y-87071004D01*
X234155076Y-87071005D01*
X234007242Y-87150024D01*
X233846823Y-87198687D01*
X233721804Y-87211000D01*
X233638196Y-87211000D01*
X233513177Y-87198687D01*
X233352758Y-87150024D01*
X233204924Y-87071005D01*
X233204922Y-87071004D01*
X233075341Y-86964659D01*
X232968996Y-86835078D01*
X232926153Y-86754924D01*
X232889976Y-86687242D01*
X232841313Y-86526823D01*
X232824883Y-86360000D01*
X232841313Y-86193177D01*
X232889976Y-86032758D01*
X232968995Y-85884924D01*
X232968996Y-85884922D01*
X233075341Y-85755341D01*
X233204922Y-85648996D01*
X233220094Y-85640886D01*
X233352758Y-85569976D01*
X233513177Y-85521313D01*
X233638196Y-85509000D01*
X233721804Y-85509000D01*
X233846823Y-85521313D01*
X233846823Y-85521313D01*
G37*
G36*
X246490442Y-84195518D02*
G01*
X246556627Y-84202037D01*
X246726466Y-84253557D01*
X246882991Y-84337222D01*
X246918729Y-84366552D01*
X247020186Y-84449814D01*
X247103448Y-84551271D01*
X247132778Y-84587009D01*
X247216443Y-84743534D01*
X247267963Y-84913373D01*
X247285359Y-85090000D01*
X247267963Y-85266627D01*
X247216443Y-85436466D01*
X247132778Y-85592991D01*
X247103448Y-85628729D01*
X247020186Y-85730186D01*
X246918729Y-85813448D01*
X246882991Y-85842778D01*
X246726466Y-85926443D01*
X246556627Y-85977963D01*
X246490442Y-85984482D01*
X246424260Y-85991000D01*
X246335740Y-85991000D01*
X246269558Y-85984482D01*
X246203373Y-85977963D01*
X246033534Y-85926443D01*
X245877009Y-85842778D01*
X245841271Y-85813448D01*
X245739814Y-85730186D01*
X245656552Y-85628729D01*
X245627222Y-85592991D01*
X245543557Y-85436466D01*
X245492037Y-85266627D01*
X245474641Y-85090000D01*
X245492037Y-84913373D01*
X245543557Y-84743534D01*
X245627222Y-84587009D01*
X245656552Y-84551271D01*
X245739814Y-84449814D01*
X245841271Y-84366552D01*
X245877009Y-84337222D01*
X246033534Y-84253557D01*
X246203373Y-84202037D01*
X246269558Y-84195518D01*
X246335740Y-84189000D01*
X246424260Y-84189000D01*
X246490442Y-84195518D01*
X246490442Y-84195518D01*
G37*
G36*
X246490443Y-81655519D02*
G01*
X246556627Y-81662037D01*
X246726466Y-81713557D01*
X246882991Y-81797222D01*
X246918729Y-81826552D01*
X247020186Y-81909814D01*
X247103448Y-82011271D01*
X247132778Y-82047009D01*
X247216443Y-82203534D01*
X247267963Y-82373373D01*
X247285359Y-82550000D01*
X247267963Y-82726627D01*
X247216443Y-82896466D01*
X247132778Y-83052991D01*
X247103448Y-83088729D01*
X247020186Y-83190186D01*
X246918729Y-83273448D01*
X246882991Y-83302778D01*
X246726466Y-83386443D01*
X246556627Y-83437963D01*
X246490443Y-83444481D01*
X246424260Y-83451000D01*
X246335740Y-83451000D01*
X246269557Y-83444481D01*
X246203373Y-83437963D01*
X246033534Y-83386443D01*
X245877009Y-83302778D01*
X245841271Y-83273448D01*
X245739814Y-83190186D01*
X245656552Y-83088729D01*
X245627222Y-83052991D01*
X245543557Y-82896466D01*
X245492037Y-82726627D01*
X245474641Y-82550000D01*
X245492037Y-82373373D01*
X245543557Y-82203534D01*
X245627222Y-82047009D01*
X245656552Y-82011271D01*
X245739814Y-81909814D01*
X245841271Y-81826552D01*
X245877009Y-81797222D01*
X246033534Y-81713557D01*
X246203373Y-81662037D01*
X246269557Y-81655519D01*
X246335740Y-81649000D01*
X246424260Y-81649000D01*
X246490443Y-81655519D01*
X246490443Y-81655519D01*
G37*
G36*
X161475444Y-81655519D02*
G01*
X161541628Y-81662037D01*
X161711467Y-81713557D01*
X161867992Y-81797222D01*
X161903730Y-81826552D01*
X162005187Y-81909814D01*
X162088449Y-82011271D01*
X162117779Y-82047009D01*
X162201444Y-82203534D01*
X162252964Y-82373373D01*
X162270360Y-82550000D01*
X162252964Y-82726627D01*
X162201444Y-82896466D01*
X162117779Y-83052991D01*
X162088449Y-83088729D01*
X162005187Y-83190186D01*
X161903730Y-83273448D01*
X161867992Y-83302778D01*
X161711467Y-83386443D01*
X161541628Y-83437963D01*
X161475444Y-83444481D01*
X161409261Y-83451000D01*
X161320741Y-83451000D01*
X161254558Y-83444481D01*
X161188374Y-83437963D01*
X161018535Y-83386443D01*
X160862010Y-83302778D01*
X160826272Y-83273448D01*
X160724815Y-83190186D01*
X160641553Y-83088729D01*
X160612223Y-83052991D01*
X160528558Y-82896466D01*
X160477038Y-82726627D01*
X160459642Y-82550000D01*
X160477038Y-82373373D01*
X160528558Y-82203534D01*
X160612223Y-82047009D01*
X160641553Y-82011271D01*
X160724815Y-81909814D01*
X160826272Y-81826552D01*
X160862010Y-81797222D01*
X161018535Y-81713557D01*
X161188374Y-81662037D01*
X161254558Y-81655519D01*
X161320741Y-81649000D01*
X161409261Y-81649000D01*
X161475444Y-81655519D01*
X161475444Y-81655519D01*
G37*
G36*
X233846823Y-80441313D02*
G01*
X234007242Y-80489976D01*
X234139906Y-80560886D01*
X234155078Y-80568996D01*
X234284659Y-80675341D01*
X234391004Y-80804922D01*
X234391005Y-80804924D01*
X234470024Y-80952758D01*
X234518687Y-81113177D01*
X234535117Y-81280000D01*
X234518687Y-81446823D01*
X234470024Y-81607242D01*
X234440735Y-81662037D01*
X234391004Y-81755078D01*
X234284659Y-81884659D01*
X234155078Y-81991004D01*
X234155076Y-81991005D01*
X234007242Y-82070024D01*
X233846823Y-82118687D01*
X233721804Y-82131000D01*
X233638196Y-82131000D01*
X233513177Y-82118687D01*
X233352758Y-82070024D01*
X233204924Y-81991005D01*
X233204922Y-81991004D01*
X233075341Y-81884659D01*
X232968996Y-81755078D01*
X232919265Y-81662037D01*
X232889976Y-81607242D01*
X232841313Y-81446823D01*
X232824883Y-81280000D01*
X232841313Y-81113177D01*
X232889976Y-80952758D01*
X232968995Y-80804924D01*
X232968996Y-80804922D01*
X233075341Y-80675341D01*
X233204922Y-80568996D01*
X233220094Y-80560886D01*
X233352758Y-80489976D01*
X233513177Y-80441313D01*
X233638196Y-80429000D01*
X233721804Y-80429000D01*
X233846823Y-80441313D01*
X233846823Y-80441313D01*
G37*
G36*
X226226823Y-80441313D02*
G01*
X226387242Y-80489976D01*
X226519906Y-80560886D01*
X226535078Y-80568996D01*
X226664659Y-80675341D01*
X226771004Y-80804922D01*
X226771005Y-80804924D01*
X226850024Y-80952758D01*
X226898687Y-81113177D01*
X226915117Y-81280000D01*
X226898687Y-81446823D01*
X226850024Y-81607242D01*
X226820735Y-81662037D01*
X226771004Y-81755078D01*
X226664659Y-81884659D01*
X226535078Y-81991004D01*
X226535076Y-81991005D01*
X226387242Y-82070024D01*
X226226823Y-82118687D01*
X226101804Y-82131000D01*
X226018196Y-82131000D01*
X225893177Y-82118687D01*
X225732758Y-82070024D01*
X225584924Y-81991005D01*
X225584922Y-81991004D01*
X225455341Y-81884659D01*
X225348996Y-81755078D01*
X225299265Y-81662037D01*
X225269976Y-81607242D01*
X225221313Y-81446823D01*
X225204883Y-81280000D01*
X225221313Y-81113177D01*
X225269976Y-80952758D01*
X225348995Y-80804924D01*
X225348996Y-80804922D01*
X225455341Y-80675341D01*
X225584922Y-80568996D01*
X225600094Y-80560886D01*
X225732758Y-80489976D01*
X225893177Y-80441313D01*
X226018196Y-80429000D01*
X226101804Y-80429000D01*
X226226823Y-80441313D01*
X226226823Y-80441313D01*
G37*
G36*
X188126822Y-78771313D02*
G01*
X188287241Y-78819976D01*
X188435077Y-78898995D01*
X188564659Y-79005341D01*
X188671004Y-79134922D01*
X188671005Y-79134924D01*
X188750024Y-79282758D01*
X188798687Y-79443177D01*
X188811000Y-79568196D01*
X188811000Y-80451803D01*
X188798687Y-80576822D01*
X188750024Y-80737242D01*
X188736374Y-80762779D01*
X188671004Y-80885078D01*
X188564659Y-81014659D01*
X188435078Y-81121004D01*
X188435076Y-81121005D01*
X188287242Y-81200024D01*
X188126823Y-81248687D01*
X187960000Y-81265117D01*
X187793178Y-81248687D01*
X187632759Y-81200024D01*
X187484925Y-81121005D01*
X187484923Y-81121004D01*
X187355342Y-81014659D01*
X187248997Y-80885078D01*
X187183627Y-80762779D01*
X187169977Y-80737242D01*
X187121314Y-80576823D01*
X187109000Y-80451803D01*
X187109000Y-79568197D01*
X187121313Y-79443178D01*
X187169976Y-79282759D01*
X187248995Y-79134923D01*
X187355341Y-79005341D01*
X187484922Y-78898996D01*
X187500094Y-78890886D01*
X187632758Y-78819976D01*
X187793177Y-78771313D01*
X187960000Y-78754883D01*
X188126822Y-78771313D01*
X188126822Y-78771313D01*
G37*
G36*
X183046822Y-78771313D02*
G01*
X183207241Y-78819976D01*
X183355077Y-78898995D01*
X183484659Y-79005341D01*
X183591004Y-79134922D01*
X183591005Y-79134924D01*
X183670024Y-79282758D01*
X183718687Y-79443177D01*
X183731000Y-79568196D01*
X183731000Y-80451803D01*
X183718687Y-80576822D01*
X183670024Y-80737242D01*
X183656374Y-80762779D01*
X183591004Y-80885078D01*
X183484659Y-81014659D01*
X183355078Y-81121004D01*
X183355076Y-81121005D01*
X183207242Y-81200024D01*
X183046823Y-81248687D01*
X182880000Y-81265117D01*
X182713178Y-81248687D01*
X182552759Y-81200024D01*
X182404925Y-81121005D01*
X182404923Y-81121004D01*
X182275342Y-81014659D01*
X182168997Y-80885078D01*
X182103627Y-80762779D01*
X182089977Y-80737242D01*
X182041314Y-80576823D01*
X182029000Y-80451803D01*
X182029000Y-79568197D01*
X182041313Y-79443178D01*
X182089976Y-79282759D01*
X182168995Y-79134923D01*
X182275341Y-79005341D01*
X182404922Y-78898996D01*
X182420094Y-78890886D01*
X182552758Y-78819976D01*
X182713177Y-78771313D01*
X182880000Y-78754883D01*
X183046822Y-78771313D01*
X183046822Y-78771313D01*
G37*
G36*
X177966822Y-78771313D02*
G01*
X178127241Y-78819976D01*
X178275077Y-78898995D01*
X178404659Y-79005341D01*
X178511004Y-79134922D01*
X178511005Y-79134924D01*
X178590024Y-79282758D01*
X178638687Y-79443177D01*
X178651000Y-79568196D01*
X178651000Y-80451803D01*
X178638687Y-80576822D01*
X178590024Y-80737242D01*
X178576374Y-80762779D01*
X178511004Y-80885078D01*
X178404659Y-81014659D01*
X178275078Y-81121004D01*
X178275076Y-81121005D01*
X178127242Y-81200024D01*
X177966823Y-81248687D01*
X177800000Y-81265117D01*
X177633178Y-81248687D01*
X177472759Y-81200024D01*
X177324925Y-81121005D01*
X177324923Y-81121004D01*
X177195342Y-81014659D01*
X177088997Y-80885078D01*
X177023627Y-80762779D01*
X177009977Y-80737242D01*
X176961314Y-80576823D01*
X176949000Y-80451803D01*
X176949000Y-79568197D01*
X176961313Y-79443178D01*
X177009976Y-79282759D01*
X177088995Y-79134923D01*
X177195341Y-79005341D01*
X177324922Y-78898996D01*
X177340094Y-78890886D01*
X177472758Y-78819976D01*
X177633177Y-78771313D01*
X177800000Y-78754883D01*
X177966822Y-78771313D01*
X177966822Y-78771313D01*
G37*
G36*
X175426822Y-78771313D02*
G01*
X175587241Y-78819976D01*
X175735077Y-78898995D01*
X175864659Y-79005341D01*
X175971004Y-79134922D01*
X175971005Y-79134924D01*
X176050024Y-79282758D01*
X176098687Y-79443177D01*
X176111000Y-79568196D01*
X176111000Y-80451803D01*
X176098687Y-80576822D01*
X176050024Y-80737242D01*
X176036374Y-80762779D01*
X175971004Y-80885078D01*
X175864659Y-81014659D01*
X175735078Y-81121004D01*
X175735076Y-81121005D01*
X175587242Y-81200024D01*
X175426823Y-81248687D01*
X175260000Y-81265117D01*
X175093178Y-81248687D01*
X174932759Y-81200024D01*
X174784925Y-81121005D01*
X174784923Y-81121004D01*
X174655342Y-81014659D01*
X174548997Y-80885078D01*
X174483627Y-80762779D01*
X174469977Y-80737242D01*
X174421314Y-80576823D01*
X174409000Y-80451803D01*
X174409000Y-79568197D01*
X174421313Y-79443178D01*
X174469976Y-79282759D01*
X174548995Y-79134923D01*
X174655341Y-79005341D01*
X174784922Y-78898996D01*
X174800094Y-78890886D01*
X174932758Y-78819976D01*
X175093177Y-78771313D01*
X175260000Y-78754883D01*
X175426822Y-78771313D01*
X175426822Y-78771313D01*
G37*
G36*
X185586822Y-78771313D02*
G01*
X185747241Y-78819976D01*
X185895077Y-78898995D01*
X186024659Y-79005341D01*
X186131004Y-79134922D01*
X186131005Y-79134924D01*
X186210024Y-79282758D01*
X186258687Y-79443177D01*
X186271000Y-79568196D01*
X186271000Y-80451803D01*
X186258687Y-80576822D01*
X186210024Y-80737242D01*
X186196374Y-80762779D01*
X186131004Y-80885078D01*
X186024659Y-81014659D01*
X185895078Y-81121004D01*
X185895076Y-81121005D01*
X185747242Y-81200024D01*
X185586823Y-81248687D01*
X185420000Y-81265117D01*
X185253178Y-81248687D01*
X185092759Y-81200024D01*
X184944925Y-81121005D01*
X184944923Y-81121004D01*
X184815342Y-81014659D01*
X184708997Y-80885078D01*
X184643627Y-80762779D01*
X184629977Y-80737242D01*
X184581314Y-80576823D01*
X184569000Y-80451803D01*
X184569000Y-79568197D01*
X184581313Y-79443178D01*
X184629976Y-79282759D01*
X184708995Y-79134923D01*
X184815341Y-79005341D01*
X184944922Y-78898996D01*
X184960094Y-78890886D01*
X185092758Y-78819976D01*
X185253177Y-78771313D01*
X185420000Y-78754883D01*
X185586822Y-78771313D01*
X185586822Y-78771313D01*
G37*
G36*
X190666822Y-78771313D02*
G01*
X190827241Y-78819976D01*
X190975077Y-78898995D01*
X191104659Y-79005341D01*
X191211004Y-79134922D01*
X191211005Y-79134924D01*
X191290024Y-79282758D01*
X191338687Y-79443177D01*
X191351000Y-79568196D01*
X191351000Y-80451803D01*
X191338687Y-80576822D01*
X191290024Y-80737242D01*
X191276374Y-80762779D01*
X191211004Y-80885078D01*
X191104659Y-81014659D01*
X190975078Y-81121004D01*
X190975076Y-81121005D01*
X190827242Y-81200024D01*
X190666823Y-81248687D01*
X190500000Y-81265117D01*
X190333178Y-81248687D01*
X190172759Y-81200024D01*
X190024925Y-81121005D01*
X190024923Y-81121004D01*
X189895342Y-81014659D01*
X189788997Y-80885078D01*
X189723627Y-80762779D01*
X189709977Y-80737242D01*
X189661314Y-80576823D01*
X189649000Y-80451803D01*
X189649000Y-79568197D01*
X189661313Y-79443178D01*
X189709976Y-79282759D01*
X189788995Y-79134923D01*
X189895341Y-79005341D01*
X190024922Y-78898996D01*
X190040094Y-78890886D01*
X190172758Y-78819976D01*
X190333177Y-78771313D01*
X190500000Y-78754883D01*
X190666822Y-78771313D01*
X190666822Y-78771313D01*
G37*
G36*
X193206822Y-78771313D02*
G01*
X193367241Y-78819976D01*
X193515077Y-78898995D01*
X193644659Y-79005341D01*
X193751004Y-79134922D01*
X193751005Y-79134924D01*
X193830024Y-79282758D01*
X193878687Y-79443177D01*
X193891000Y-79568196D01*
X193891000Y-80451803D01*
X193878687Y-80576822D01*
X193830024Y-80737242D01*
X193816374Y-80762779D01*
X193751004Y-80885078D01*
X193644659Y-81014659D01*
X193515078Y-81121004D01*
X193515076Y-81121005D01*
X193367242Y-81200024D01*
X193206823Y-81248687D01*
X193040000Y-81265117D01*
X192873178Y-81248687D01*
X192712759Y-81200024D01*
X192564925Y-81121005D01*
X192564923Y-81121004D01*
X192435342Y-81014659D01*
X192328997Y-80885078D01*
X192263627Y-80762779D01*
X192249977Y-80737242D01*
X192201314Y-80576823D01*
X192189000Y-80451803D01*
X192189000Y-79568197D01*
X192201313Y-79443178D01*
X192249976Y-79282759D01*
X192328995Y-79134923D01*
X192435341Y-79005341D01*
X192564922Y-78898996D01*
X192580094Y-78890886D01*
X192712758Y-78819976D01*
X192873177Y-78771313D01*
X193040000Y-78754883D01*
X193206822Y-78771313D01*
X193206822Y-78771313D01*
G37*
G36*
X180506822Y-78771313D02*
G01*
X180667241Y-78819976D01*
X180815077Y-78898995D01*
X180944659Y-79005341D01*
X181051004Y-79134922D01*
X181051005Y-79134924D01*
X181130024Y-79282758D01*
X181178687Y-79443177D01*
X181191000Y-79568196D01*
X181191000Y-80451803D01*
X181178687Y-80576822D01*
X181130024Y-80737242D01*
X181116374Y-80762779D01*
X181051004Y-80885078D01*
X180944659Y-81014659D01*
X180815078Y-81121004D01*
X180815076Y-81121005D01*
X180667242Y-81200024D01*
X180506823Y-81248687D01*
X180340000Y-81265117D01*
X180173178Y-81248687D01*
X180012759Y-81200024D01*
X179864925Y-81121005D01*
X179864923Y-81121004D01*
X179735342Y-81014659D01*
X179628997Y-80885078D01*
X179563627Y-80762779D01*
X179549977Y-80737242D01*
X179501314Y-80576823D01*
X179489000Y-80451803D01*
X179489000Y-79568197D01*
X179501313Y-79443178D01*
X179549976Y-79282759D01*
X179628995Y-79134923D01*
X179735341Y-79005341D01*
X179864922Y-78898996D01*
X179880094Y-78890886D01*
X180012758Y-78819976D01*
X180173177Y-78771313D01*
X180340000Y-78754883D01*
X180506822Y-78771313D01*
X180506822Y-78771313D01*
G37*
G36*
X246490443Y-79115519D02*
G01*
X246556627Y-79122037D01*
X246726466Y-79173557D01*
X246882991Y-79257222D01*
X246914106Y-79282758D01*
X247020186Y-79369814D01*
X247080393Y-79443178D01*
X247132778Y-79507009D01*
X247216443Y-79663534D01*
X247267963Y-79833373D01*
X247285359Y-80010000D01*
X247267963Y-80186627D01*
X247216443Y-80356466D01*
X247132778Y-80512991D01*
X247103448Y-80548729D01*
X247020186Y-80650186D01*
X246918729Y-80733448D01*
X246882991Y-80762778D01*
X246726466Y-80846443D01*
X246556627Y-80897963D01*
X246490442Y-80904482D01*
X246424260Y-80911000D01*
X246335740Y-80911000D01*
X246269558Y-80904482D01*
X246203373Y-80897963D01*
X246033534Y-80846443D01*
X245877009Y-80762778D01*
X245841271Y-80733448D01*
X245739814Y-80650186D01*
X245656552Y-80548729D01*
X245627222Y-80512991D01*
X245543557Y-80356466D01*
X245492037Y-80186627D01*
X245474641Y-80010000D01*
X245492037Y-79833373D01*
X245543557Y-79663534D01*
X245627222Y-79507009D01*
X245679607Y-79443178D01*
X245739814Y-79369814D01*
X245845894Y-79282758D01*
X245877009Y-79257222D01*
X246033534Y-79173557D01*
X246203373Y-79122037D01*
X246269557Y-79115519D01*
X246335740Y-79109000D01*
X246424260Y-79109000D01*
X246490443Y-79115519D01*
X246490443Y-79115519D01*
G37*
G36*
X161475444Y-79115519D02*
G01*
X161541628Y-79122037D01*
X161711467Y-79173557D01*
X161867992Y-79257222D01*
X161899107Y-79282758D01*
X162005187Y-79369814D01*
X162065394Y-79443178D01*
X162117779Y-79507009D01*
X162201444Y-79663534D01*
X162252964Y-79833373D01*
X162270360Y-80010000D01*
X162252964Y-80186627D01*
X162201444Y-80356466D01*
X162117779Y-80512991D01*
X162088449Y-80548729D01*
X162005187Y-80650186D01*
X161903730Y-80733448D01*
X161867992Y-80762778D01*
X161711467Y-80846443D01*
X161541628Y-80897963D01*
X161475443Y-80904482D01*
X161409261Y-80911000D01*
X161320741Y-80911000D01*
X161254559Y-80904482D01*
X161188374Y-80897963D01*
X161018535Y-80846443D01*
X160862010Y-80762778D01*
X160826272Y-80733448D01*
X160724815Y-80650186D01*
X160641553Y-80548729D01*
X160612223Y-80512991D01*
X160528558Y-80356466D01*
X160477038Y-80186627D01*
X160459642Y-80010000D01*
X160477038Y-79833373D01*
X160528558Y-79663534D01*
X160612223Y-79507009D01*
X160664608Y-79443178D01*
X160724815Y-79369814D01*
X160830895Y-79282758D01*
X160862010Y-79257222D01*
X161018535Y-79173557D01*
X161188374Y-79122037D01*
X161254558Y-79115519D01*
X161320741Y-79109000D01*
X161409261Y-79109000D01*
X161475444Y-79115519D01*
X161475444Y-79115519D01*
G37*
G36*
X203459369Y-79154971D02*
G01*
X203621195Y-79222002D01*
X203766829Y-79319311D01*
X203890689Y-79443171D01*
X203987998Y-79588805D01*
X204055029Y-79750631D01*
X204089200Y-79922420D01*
X204089200Y-80097580D01*
X204055029Y-80269369D01*
X203987998Y-80431195D01*
X203890689Y-80576829D01*
X203766829Y-80700689D01*
X203621195Y-80797998D01*
X203459369Y-80865029D01*
X203287580Y-80899200D01*
X203112420Y-80899200D01*
X202940631Y-80865029D01*
X202778805Y-80797998D01*
X202633171Y-80700689D01*
X202509311Y-80576829D01*
X202412002Y-80431195D01*
X202344971Y-80269369D01*
X202310800Y-80097580D01*
X202310800Y-79922420D01*
X202344971Y-79750631D01*
X202412002Y-79588805D01*
X202509311Y-79443171D01*
X202633171Y-79319311D01*
X202778805Y-79222002D01*
X202940631Y-79154971D01*
X203112420Y-79120800D01*
X203287580Y-79120800D01*
X203459369Y-79154971D01*
X203459369Y-79154971D01*
G37*
G36*
X219329200Y-80899200D02*
G01*
X217550800Y-80899200D01*
X217550800Y-79120800D01*
X219329200Y-79120800D01*
X219329200Y-80899200D01*
X219329200Y-80899200D01*
G37*
G36*
X200919369Y-79154971D02*
G01*
X201081195Y-79222002D01*
X201226829Y-79319311D01*
X201350689Y-79443171D01*
X201447998Y-79588805D01*
X201515029Y-79750631D01*
X201549200Y-79922420D01*
X201549200Y-80097580D01*
X201515029Y-80269369D01*
X201447998Y-80431195D01*
X201350689Y-80576829D01*
X201226829Y-80700689D01*
X201081195Y-80797998D01*
X200919369Y-80865029D01*
X200747580Y-80899200D01*
X200572420Y-80899200D01*
X200400631Y-80865029D01*
X200238805Y-80797998D01*
X200093171Y-80700689D01*
X199969311Y-80576829D01*
X199872002Y-80431195D01*
X199804971Y-80269369D01*
X199770800Y-80097580D01*
X199770800Y-79922420D01*
X199804971Y-79750631D01*
X199872002Y-79588805D01*
X199969311Y-79443171D01*
X200093171Y-79319311D01*
X200238805Y-79222002D01*
X200400631Y-79154971D01*
X200572420Y-79120800D01*
X200747580Y-79120800D01*
X200919369Y-79154971D01*
X200919369Y-79154971D01*
G37*
G36*
X213619369Y-79154971D02*
G01*
X213781195Y-79222002D01*
X213926829Y-79319311D01*
X214050689Y-79443171D01*
X214147998Y-79588805D01*
X214215029Y-79750631D01*
X214249200Y-79922420D01*
X214249200Y-80097580D01*
X214215029Y-80269369D01*
X214147998Y-80431195D01*
X214050689Y-80576829D01*
X213926829Y-80700689D01*
X213781195Y-80797998D01*
X213619369Y-80865029D01*
X213447580Y-80899200D01*
X213272420Y-80899200D01*
X213100631Y-80865029D01*
X212938805Y-80797998D01*
X212793171Y-80700689D01*
X212669311Y-80576829D01*
X212572002Y-80431195D01*
X212504971Y-80269369D01*
X212470800Y-80097580D01*
X212470800Y-79922420D01*
X212504971Y-79750631D01*
X212572002Y-79588805D01*
X212669311Y-79443171D01*
X212793171Y-79319311D01*
X212938805Y-79222002D01*
X213100631Y-79154971D01*
X213272420Y-79120800D01*
X213447580Y-79120800D01*
X213619369Y-79154971D01*
X213619369Y-79154971D01*
G37*
G36*
X216159369Y-79154971D02*
G01*
X216321195Y-79222002D01*
X216466829Y-79319311D01*
X216590689Y-79443171D01*
X216687998Y-79588805D01*
X216755029Y-79750631D01*
X216789200Y-79922420D01*
X216789200Y-80097580D01*
X216755029Y-80269369D01*
X216687998Y-80431195D01*
X216590689Y-80576829D01*
X216466829Y-80700689D01*
X216321195Y-80797998D01*
X216159369Y-80865029D01*
X215987580Y-80899200D01*
X215812420Y-80899200D01*
X215640631Y-80865029D01*
X215478805Y-80797998D01*
X215333171Y-80700689D01*
X215209311Y-80576829D01*
X215112002Y-80431195D01*
X215044971Y-80269369D01*
X215010800Y-80097580D01*
X215010800Y-79922420D01*
X215044971Y-79750631D01*
X215112002Y-79588805D01*
X215209311Y-79443171D01*
X215333171Y-79319311D01*
X215478805Y-79222002D01*
X215640631Y-79154971D01*
X215812420Y-79120800D01*
X215987580Y-79120800D01*
X216159369Y-79154971D01*
X216159369Y-79154971D01*
G37*
G36*
X205999369Y-79154971D02*
G01*
X206161195Y-79222002D01*
X206306829Y-79319311D01*
X206430689Y-79443171D01*
X206527998Y-79588805D01*
X206595029Y-79750631D01*
X206629200Y-79922420D01*
X206629200Y-80097580D01*
X206595029Y-80269369D01*
X206527998Y-80431195D01*
X206430689Y-80576829D01*
X206306829Y-80700689D01*
X206161195Y-80797998D01*
X205999369Y-80865029D01*
X205827580Y-80899200D01*
X205652420Y-80899200D01*
X205480631Y-80865029D01*
X205318805Y-80797998D01*
X205173171Y-80700689D01*
X205049311Y-80576829D01*
X204952002Y-80431195D01*
X204884971Y-80269369D01*
X204850800Y-80097580D01*
X204850800Y-79922420D01*
X204884971Y-79750631D01*
X204952002Y-79588805D01*
X205049311Y-79443171D01*
X205173171Y-79319311D01*
X205318805Y-79222002D01*
X205480631Y-79154971D01*
X205652420Y-79120800D01*
X205827580Y-79120800D01*
X205999369Y-79154971D01*
X205999369Y-79154971D01*
G37*
G36*
X208539369Y-79154971D02*
G01*
X208701195Y-79222002D01*
X208846829Y-79319311D01*
X208970689Y-79443171D01*
X209067998Y-79588805D01*
X209135029Y-79750631D01*
X209169200Y-79922420D01*
X209169200Y-80097580D01*
X209135029Y-80269369D01*
X209067998Y-80431195D01*
X208970689Y-80576829D01*
X208846829Y-80700689D01*
X208701195Y-80797998D01*
X208539369Y-80865029D01*
X208367580Y-80899200D01*
X208192420Y-80899200D01*
X208020631Y-80865029D01*
X207858805Y-80797998D01*
X207713171Y-80700689D01*
X207589311Y-80576829D01*
X207492002Y-80431195D01*
X207424971Y-80269369D01*
X207390800Y-80097580D01*
X207390800Y-79922420D01*
X207424971Y-79750631D01*
X207492002Y-79588805D01*
X207589311Y-79443171D01*
X207713171Y-79319311D01*
X207858805Y-79222002D01*
X208020631Y-79154971D01*
X208192420Y-79120800D01*
X208367580Y-79120800D01*
X208539369Y-79154971D01*
X208539369Y-79154971D01*
G37*
G36*
X211079369Y-79154971D02*
G01*
X211241195Y-79222002D01*
X211386829Y-79319311D01*
X211510689Y-79443171D01*
X211607998Y-79588805D01*
X211675029Y-79750631D01*
X211709200Y-79922420D01*
X211709200Y-80097580D01*
X211675029Y-80269369D01*
X211607998Y-80431195D01*
X211510689Y-80576829D01*
X211386829Y-80700689D01*
X211241195Y-80797998D01*
X211079369Y-80865029D01*
X210907580Y-80899200D01*
X210732420Y-80899200D01*
X210560631Y-80865029D01*
X210398805Y-80797998D01*
X210253171Y-80700689D01*
X210129311Y-80576829D01*
X210032002Y-80431195D01*
X209964971Y-80269369D01*
X209930800Y-80097580D01*
X209930800Y-79922420D01*
X209964971Y-79750631D01*
X210032002Y-79588805D01*
X210129311Y-79443171D01*
X210253171Y-79319311D01*
X210398805Y-79222002D01*
X210560631Y-79154971D01*
X210732420Y-79120800D01*
X210907580Y-79120800D01*
X211079369Y-79154971D01*
X211079369Y-79154971D01*
G37*
G36*
X161475444Y-76575519D02*
G01*
X161541628Y-76582037D01*
X161711467Y-76633557D01*
X161867992Y-76717222D01*
X161903730Y-76746552D01*
X162005187Y-76829814D01*
X162088449Y-76931271D01*
X162117779Y-76967009D01*
X162201444Y-77123534D01*
X162252964Y-77293373D01*
X162270360Y-77470000D01*
X162252964Y-77646627D01*
X162201444Y-77816466D01*
X162117779Y-77972991D01*
X162088449Y-78008729D01*
X162005187Y-78110186D01*
X161903730Y-78193448D01*
X161867992Y-78222778D01*
X161711467Y-78306443D01*
X161541628Y-78357963D01*
X161475444Y-78364481D01*
X161409261Y-78371000D01*
X161320741Y-78371000D01*
X161254558Y-78364481D01*
X161188374Y-78357963D01*
X161018535Y-78306443D01*
X160862010Y-78222778D01*
X160826272Y-78193448D01*
X160724815Y-78110186D01*
X160641553Y-78008729D01*
X160612223Y-77972991D01*
X160528558Y-77816466D01*
X160477038Y-77646627D01*
X160459642Y-77470000D01*
X160477038Y-77293373D01*
X160528558Y-77123534D01*
X160612223Y-76967009D01*
X160641553Y-76931271D01*
X160724815Y-76829814D01*
X160826272Y-76746552D01*
X160862010Y-76717222D01*
X161018535Y-76633557D01*
X161188374Y-76582037D01*
X161254558Y-76575519D01*
X161320741Y-76569000D01*
X161409261Y-76569000D01*
X161475444Y-76575519D01*
X161475444Y-76575519D01*
G37*
G36*
X246490443Y-76575519D02*
G01*
X246556627Y-76582037D01*
X246726466Y-76633557D01*
X246882991Y-76717222D01*
X246918729Y-76746552D01*
X247020186Y-76829814D01*
X247103448Y-76931271D01*
X247132778Y-76967009D01*
X247216443Y-77123534D01*
X247267963Y-77293373D01*
X247285359Y-77470000D01*
X247267963Y-77646627D01*
X247216443Y-77816466D01*
X247132778Y-77972991D01*
X247103448Y-78008729D01*
X247020186Y-78110186D01*
X246918729Y-78193448D01*
X246882991Y-78222778D01*
X246726466Y-78306443D01*
X246556627Y-78357963D01*
X246490443Y-78364481D01*
X246424260Y-78371000D01*
X246335740Y-78371000D01*
X246269557Y-78364481D01*
X246203373Y-78357963D01*
X246033534Y-78306443D01*
X245877009Y-78222778D01*
X245841271Y-78193448D01*
X245739814Y-78110186D01*
X245656552Y-78008729D01*
X245627222Y-77972991D01*
X245543557Y-77816466D01*
X245492037Y-77646627D01*
X245474641Y-77470000D01*
X245492037Y-77293373D01*
X245543557Y-77123534D01*
X245627222Y-76967009D01*
X245656552Y-76931271D01*
X245739814Y-76829814D01*
X245841271Y-76746552D01*
X245877009Y-76717222D01*
X246033534Y-76633557D01*
X246203373Y-76582037D01*
X246269557Y-76575519D01*
X246335740Y-76569000D01*
X246424260Y-76569000D01*
X246490443Y-76575519D01*
X246490443Y-76575519D01*
G37*
G36*
X233846823Y-75361313D02*
G01*
X234007242Y-75409976D01*
X234139906Y-75480886D01*
X234155078Y-75488996D01*
X234284659Y-75595341D01*
X234391004Y-75724922D01*
X234391005Y-75724924D01*
X234470024Y-75872758D01*
X234518687Y-76033177D01*
X234535117Y-76200000D01*
X234518687Y-76366823D01*
X234470024Y-76527242D01*
X234440735Y-76582037D01*
X234391004Y-76675078D01*
X234284659Y-76804659D01*
X234155078Y-76911004D01*
X234155076Y-76911005D01*
X234007242Y-76990024D01*
X233846823Y-77038687D01*
X233721804Y-77051000D01*
X233638196Y-77051000D01*
X233513177Y-77038687D01*
X233352758Y-76990024D01*
X233204924Y-76911005D01*
X233204922Y-76911004D01*
X233075341Y-76804659D01*
X232968996Y-76675078D01*
X232919265Y-76582037D01*
X232889976Y-76527242D01*
X232841313Y-76366823D01*
X232824883Y-76200000D01*
X232841313Y-76033177D01*
X232889976Y-75872758D01*
X232968995Y-75724924D01*
X232968996Y-75724922D01*
X233075341Y-75595341D01*
X233204922Y-75488996D01*
X233220094Y-75480886D01*
X233352758Y-75409976D01*
X233513177Y-75361313D01*
X233638196Y-75349000D01*
X233721804Y-75349000D01*
X233846823Y-75361313D01*
X233846823Y-75361313D01*
G37*
G36*
X226911000Y-77051000D02*
G01*
X225209000Y-77051000D01*
X225209000Y-75349000D01*
X226911000Y-75349000D01*
X226911000Y-77051000D01*
X226911000Y-77051000D01*
G37*
G36*
X161475443Y-74035518D02*
G01*
X161541628Y-74042037D01*
X161711467Y-74093557D01*
X161867992Y-74177222D01*
X161903730Y-74206552D01*
X162005187Y-74289814D01*
X162088449Y-74391271D01*
X162117779Y-74427009D01*
X162201444Y-74583534D01*
X162252964Y-74753373D01*
X162270360Y-74930000D01*
X162252964Y-75106627D01*
X162201444Y-75276466D01*
X162117779Y-75432991D01*
X162088449Y-75468729D01*
X162005187Y-75570186D01*
X161903730Y-75653448D01*
X161867992Y-75682778D01*
X161711467Y-75766443D01*
X161541628Y-75817963D01*
X161475443Y-75824482D01*
X161409261Y-75831000D01*
X161320741Y-75831000D01*
X161254559Y-75824482D01*
X161188374Y-75817963D01*
X161018535Y-75766443D01*
X160862010Y-75682778D01*
X160826272Y-75653448D01*
X160724815Y-75570186D01*
X160641553Y-75468729D01*
X160612223Y-75432991D01*
X160528558Y-75276466D01*
X160477038Y-75106627D01*
X160459642Y-74930000D01*
X160477038Y-74753373D01*
X160528558Y-74583534D01*
X160612223Y-74427009D01*
X160641553Y-74391271D01*
X160724815Y-74289814D01*
X160826272Y-74206552D01*
X160862010Y-74177222D01*
X161018535Y-74093557D01*
X161188374Y-74042037D01*
X161254559Y-74035518D01*
X161320741Y-74029000D01*
X161409261Y-74029000D01*
X161475443Y-74035518D01*
X161475443Y-74035518D01*
G37*
G36*
X246490442Y-74035518D02*
G01*
X246556627Y-74042037D01*
X246726466Y-74093557D01*
X246882991Y-74177222D01*
X246918729Y-74206552D01*
X247020186Y-74289814D01*
X247103448Y-74391271D01*
X247132778Y-74427009D01*
X247216443Y-74583534D01*
X247267963Y-74753373D01*
X247285359Y-74930000D01*
X247267963Y-75106627D01*
X247216443Y-75276466D01*
X247132778Y-75432991D01*
X247103448Y-75468729D01*
X247020186Y-75570186D01*
X246918729Y-75653448D01*
X246882991Y-75682778D01*
X246726466Y-75766443D01*
X246556627Y-75817963D01*
X246490442Y-75824482D01*
X246424260Y-75831000D01*
X246335740Y-75831000D01*
X246269558Y-75824482D01*
X246203373Y-75817963D01*
X246033534Y-75766443D01*
X245877009Y-75682778D01*
X245841271Y-75653448D01*
X245739814Y-75570186D01*
X245656552Y-75468729D01*
X245627222Y-75432991D01*
X245543557Y-75276466D01*
X245492037Y-75106627D01*
X245474641Y-74930000D01*
X245492037Y-74753373D01*
X245543557Y-74583534D01*
X245627222Y-74427009D01*
X245656552Y-74391271D01*
X245739814Y-74289814D01*
X245841271Y-74206552D01*
X245877009Y-74177222D01*
X246033534Y-74093557D01*
X246203373Y-74042037D01*
X246269558Y-74035518D01*
X246335740Y-74029000D01*
X246424260Y-74029000D01*
X246490442Y-74035518D01*
X246490442Y-74035518D01*
G37*
G36*
X161475444Y-71495519D02*
G01*
X161541628Y-71502037D01*
X161711467Y-71553557D01*
X161867992Y-71637222D01*
X161903730Y-71666552D01*
X162005187Y-71749814D01*
X162088449Y-71851271D01*
X162117779Y-71887009D01*
X162201444Y-72043534D01*
X162252964Y-72213373D01*
X162270360Y-72390000D01*
X162252964Y-72566627D01*
X162201444Y-72736466D01*
X162117779Y-72892991D01*
X162088449Y-72928729D01*
X162005187Y-73030186D01*
X161903730Y-73113448D01*
X161867992Y-73142778D01*
X161711467Y-73226443D01*
X161541628Y-73277963D01*
X161475444Y-73284481D01*
X161409261Y-73291000D01*
X161320741Y-73291000D01*
X161254558Y-73284481D01*
X161188374Y-73277963D01*
X161018535Y-73226443D01*
X160862010Y-73142778D01*
X160826272Y-73113448D01*
X160724815Y-73030186D01*
X160641553Y-72928729D01*
X160612223Y-72892991D01*
X160528558Y-72736466D01*
X160477038Y-72566627D01*
X160459642Y-72390000D01*
X160477038Y-72213373D01*
X160528558Y-72043534D01*
X160612223Y-71887009D01*
X160641553Y-71851271D01*
X160724815Y-71749814D01*
X160826272Y-71666552D01*
X160862010Y-71637222D01*
X161018535Y-71553557D01*
X161188374Y-71502037D01*
X161254558Y-71495519D01*
X161320741Y-71489000D01*
X161409261Y-71489000D01*
X161475444Y-71495519D01*
X161475444Y-71495519D01*
G37*
G36*
X246490443Y-71495519D02*
G01*
X246556627Y-71502037D01*
X246726466Y-71553557D01*
X246882991Y-71637222D01*
X246918729Y-71666552D01*
X247020186Y-71749814D01*
X247103448Y-71851271D01*
X247132778Y-71887009D01*
X247216443Y-72043534D01*
X247267963Y-72213373D01*
X247285359Y-72390000D01*
X247267963Y-72566627D01*
X247216443Y-72736466D01*
X247132778Y-72892991D01*
X247103448Y-72928729D01*
X247020186Y-73030186D01*
X246918729Y-73113448D01*
X246882991Y-73142778D01*
X246726466Y-73226443D01*
X246556627Y-73277963D01*
X246490443Y-73284481D01*
X246424260Y-73291000D01*
X246335740Y-73291000D01*
X246269557Y-73284481D01*
X246203373Y-73277963D01*
X246033534Y-73226443D01*
X245877009Y-73142778D01*
X245841271Y-73113448D01*
X245739814Y-73030186D01*
X245656552Y-72928729D01*
X245627222Y-72892991D01*
X245543557Y-72736466D01*
X245492037Y-72566627D01*
X245474641Y-72390000D01*
X245492037Y-72213373D01*
X245543557Y-72043534D01*
X245627222Y-71887009D01*
X245656552Y-71851271D01*
X245739814Y-71749814D01*
X245841271Y-71666552D01*
X245877009Y-71637222D01*
X246033534Y-71553557D01*
X246203373Y-71502037D01*
X246269557Y-71495519D01*
X246335740Y-71489000D01*
X246424260Y-71489000D01*
X246490443Y-71495519D01*
X246490443Y-71495519D01*
G37*
G36*
X226226823Y-70281313D02*
G01*
X226387242Y-70329976D01*
X226519906Y-70400886D01*
X226535078Y-70408996D01*
X226664659Y-70515341D01*
X226771004Y-70644922D01*
X226771005Y-70644924D01*
X226850024Y-70792758D01*
X226898687Y-70953177D01*
X226915117Y-71120000D01*
X226898687Y-71286823D01*
X226850024Y-71447242D01*
X226820735Y-71502037D01*
X226771004Y-71595078D01*
X226664659Y-71724659D01*
X226535078Y-71831004D01*
X226535076Y-71831005D01*
X226387242Y-71910024D01*
X226226823Y-71958687D01*
X226101804Y-71971000D01*
X226018196Y-71971000D01*
X225893177Y-71958687D01*
X225732758Y-71910024D01*
X225584924Y-71831005D01*
X225584922Y-71831004D01*
X225455341Y-71724659D01*
X225348996Y-71595078D01*
X225299265Y-71502037D01*
X225269976Y-71447242D01*
X225221313Y-71286823D01*
X225204883Y-71120000D01*
X225221313Y-70953177D01*
X225269976Y-70792758D01*
X225348995Y-70644924D01*
X225348996Y-70644922D01*
X225455341Y-70515341D01*
X225584922Y-70408996D01*
X225600094Y-70400886D01*
X225732758Y-70329976D01*
X225893177Y-70281313D01*
X226018196Y-70269000D01*
X226101804Y-70269000D01*
X226226823Y-70281313D01*
X226226823Y-70281313D01*
G37*
G36*
X233846823Y-70281313D02*
G01*
X234007242Y-70329976D01*
X234139906Y-70400886D01*
X234155078Y-70408996D01*
X234284659Y-70515341D01*
X234391004Y-70644922D01*
X234391005Y-70644924D01*
X234470024Y-70792758D01*
X234518687Y-70953177D01*
X234535117Y-71120000D01*
X234518687Y-71286823D01*
X234470024Y-71447242D01*
X234440735Y-71502037D01*
X234391004Y-71595078D01*
X234284659Y-71724659D01*
X234155078Y-71831004D01*
X234155076Y-71831005D01*
X234007242Y-71910024D01*
X233846823Y-71958687D01*
X233721804Y-71971000D01*
X233638196Y-71971000D01*
X233513177Y-71958687D01*
X233352758Y-71910024D01*
X233204924Y-71831005D01*
X233204922Y-71831004D01*
X233075341Y-71724659D01*
X232968996Y-71595078D01*
X232919265Y-71502037D01*
X232889976Y-71447242D01*
X232841313Y-71286823D01*
X232824883Y-71120000D01*
X232841313Y-70953177D01*
X232889976Y-70792758D01*
X232968995Y-70644924D01*
X232968996Y-70644922D01*
X233075341Y-70515341D01*
X233204922Y-70408996D01*
X233220094Y-70400886D01*
X233352758Y-70329976D01*
X233513177Y-70281313D01*
X233638196Y-70269000D01*
X233721804Y-70269000D01*
X233846823Y-70281313D01*
X233846823Y-70281313D01*
G37*
G36*
X246490443Y-68955519D02*
G01*
X246556627Y-68962037D01*
X246726466Y-69013557D01*
X246882991Y-69097222D01*
X246918729Y-69126552D01*
X247020186Y-69209814D01*
X247103448Y-69311271D01*
X247132778Y-69347009D01*
X247216443Y-69503534D01*
X247267963Y-69673373D01*
X247285359Y-69850000D01*
X247267963Y-70026627D01*
X247216443Y-70196466D01*
X247132778Y-70352991D01*
X247103448Y-70388729D01*
X247020186Y-70490186D01*
X246918729Y-70573448D01*
X246882991Y-70602778D01*
X246726466Y-70686443D01*
X246556627Y-70737963D01*
X246490443Y-70744481D01*
X246424260Y-70751000D01*
X246335740Y-70751000D01*
X246269557Y-70744481D01*
X246203373Y-70737963D01*
X246033534Y-70686443D01*
X245877009Y-70602778D01*
X245841271Y-70573448D01*
X245739814Y-70490186D01*
X245656552Y-70388729D01*
X245627222Y-70352991D01*
X245543557Y-70196466D01*
X245492037Y-70026627D01*
X245474641Y-69850000D01*
X245492037Y-69673373D01*
X245543557Y-69503534D01*
X245627222Y-69347009D01*
X245656552Y-69311271D01*
X245739814Y-69209814D01*
X245841271Y-69126552D01*
X245877009Y-69097222D01*
X246033534Y-69013557D01*
X246203373Y-68962037D01*
X246269557Y-68955519D01*
X246335740Y-68949000D01*
X246424260Y-68949000D01*
X246490443Y-68955519D01*
X246490443Y-68955519D01*
G37*
G36*
X161475444Y-68955519D02*
G01*
X161541628Y-68962037D01*
X161711467Y-69013557D01*
X161867992Y-69097222D01*
X161903730Y-69126552D01*
X162005187Y-69209814D01*
X162088449Y-69311271D01*
X162117779Y-69347009D01*
X162201444Y-69503534D01*
X162252964Y-69673373D01*
X162270360Y-69850000D01*
X162252964Y-70026627D01*
X162201444Y-70196466D01*
X162117779Y-70352991D01*
X162088449Y-70388729D01*
X162005187Y-70490186D01*
X161903730Y-70573448D01*
X161867992Y-70602778D01*
X161711467Y-70686443D01*
X161541628Y-70737963D01*
X161475444Y-70744481D01*
X161409261Y-70751000D01*
X161320741Y-70751000D01*
X161254558Y-70744481D01*
X161188374Y-70737963D01*
X161018535Y-70686443D01*
X160862010Y-70602778D01*
X160826272Y-70573448D01*
X160724815Y-70490186D01*
X160641553Y-70388729D01*
X160612223Y-70352991D01*
X160528558Y-70196466D01*
X160477038Y-70026627D01*
X160459642Y-69850000D01*
X160477038Y-69673373D01*
X160528558Y-69503534D01*
X160612223Y-69347009D01*
X160641553Y-69311271D01*
X160724815Y-69209814D01*
X160826272Y-69126552D01*
X160862010Y-69097222D01*
X161018535Y-69013557D01*
X161188374Y-68962037D01*
X161254558Y-68955519D01*
X161320741Y-68949000D01*
X161409261Y-68949000D01*
X161475444Y-68955519D01*
X161475444Y-68955519D01*
G37*
G36*
X183046822Y-66071313D02*
G01*
X183207241Y-66119976D01*
X183355077Y-66198995D01*
X183484659Y-66305341D01*
X183591004Y-66434922D01*
X183591005Y-66434924D01*
X183670024Y-66582758D01*
X183718687Y-66743177D01*
X183731000Y-66868196D01*
X183731000Y-67751803D01*
X183718687Y-67876822D01*
X183670024Y-68037242D01*
X183656374Y-68062779D01*
X183591004Y-68185078D01*
X183484659Y-68314659D01*
X183355078Y-68421004D01*
X183355076Y-68421005D01*
X183207242Y-68500024D01*
X183046823Y-68548687D01*
X182880000Y-68565117D01*
X182713178Y-68548687D01*
X182552759Y-68500024D01*
X182404925Y-68421005D01*
X182404923Y-68421004D01*
X182275342Y-68314659D01*
X182168997Y-68185078D01*
X182103627Y-68062779D01*
X182089977Y-68037242D01*
X182041314Y-67876823D01*
X182029000Y-67751803D01*
X182029000Y-66868197D01*
X182041313Y-66743178D01*
X182089976Y-66582759D01*
X182168995Y-66434923D01*
X182275341Y-66305341D01*
X182404922Y-66198996D01*
X182420094Y-66190886D01*
X182552758Y-66119976D01*
X182713177Y-66071313D01*
X182880000Y-66054883D01*
X183046822Y-66071313D01*
X183046822Y-66071313D01*
G37*
G36*
X188126822Y-66071313D02*
G01*
X188287241Y-66119976D01*
X188435077Y-66198995D01*
X188564659Y-66305341D01*
X188671004Y-66434922D01*
X188671005Y-66434924D01*
X188750024Y-66582758D01*
X188798687Y-66743177D01*
X188811000Y-66868196D01*
X188811000Y-67751803D01*
X188798687Y-67876822D01*
X188750024Y-68037242D01*
X188736374Y-68062779D01*
X188671004Y-68185078D01*
X188564659Y-68314659D01*
X188435078Y-68421004D01*
X188435076Y-68421005D01*
X188287242Y-68500024D01*
X188126823Y-68548687D01*
X187960000Y-68565117D01*
X187793178Y-68548687D01*
X187632759Y-68500024D01*
X187484925Y-68421005D01*
X187484923Y-68421004D01*
X187355342Y-68314659D01*
X187248997Y-68185078D01*
X187183627Y-68062779D01*
X187169977Y-68037242D01*
X187121314Y-67876823D01*
X187109000Y-67751803D01*
X187109000Y-66868197D01*
X187121313Y-66743178D01*
X187169976Y-66582759D01*
X187248995Y-66434923D01*
X187355341Y-66305341D01*
X187484922Y-66198996D01*
X187500094Y-66190886D01*
X187632758Y-66119976D01*
X187793177Y-66071313D01*
X187960000Y-66054883D01*
X188126822Y-66071313D01*
X188126822Y-66071313D01*
G37*
G36*
X185586822Y-66071313D02*
G01*
X185747241Y-66119976D01*
X185895077Y-66198995D01*
X186024659Y-66305341D01*
X186131004Y-66434922D01*
X186131005Y-66434924D01*
X186210024Y-66582758D01*
X186258687Y-66743177D01*
X186271000Y-66868196D01*
X186271000Y-67751803D01*
X186258687Y-67876822D01*
X186210024Y-68037242D01*
X186196374Y-68062779D01*
X186131004Y-68185078D01*
X186024659Y-68314659D01*
X185895078Y-68421004D01*
X185895076Y-68421005D01*
X185747242Y-68500024D01*
X185586823Y-68548687D01*
X185420000Y-68565117D01*
X185253178Y-68548687D01*
X185092759Y-68500024D01*
X184944925Y-68421005D01*
X184944923Y-68421004D01*
X184815342Y-68314659D01*
X184708997Y-68185078D01*
X184643627Y-68062779D01*
X184629977Y-68037242D01*
X184581314Y-67876823D01*
X184569000Y-67751803D01*
X184569000Y-66868197D01*
X184581313Y-66743178D01*
X184629976Y-66582759D01*
X184708995Y-66434923D01*
X184815341Y-66305341D01*
X184944922Y-66198996D01*
X184960094Y-66190886D01*
X185092758Y-66119976D01*
X185253177Y-66071313D01*
X185420000Y-66054883D01*
X185586822Y-66071313D01*
X185586822Y-66071313D01*
G37*
G36*
X180506822Y-66071313D02*
G01*
X180667241Y-66119976D01*
X180815077Y-66198995D01*
X180944659Y-66305341D01*
X181051004Y-66434922D01*
X181051005Y-66434924D01*
X181130024Y-66582758D01*
X181178687Y-66743177D01*
X181191000Y-66868196D01*
X181191000Y-67751803D01*
X181178687Y-67876822D01*
X181130024Y-68037242D01*
X181116374Y-68062779D01*
X181051004Y-68185078D01*
X180944659Y-68314659D01*
X180815078Y-68421004D01*
X180815076Y-68421005D01*
X180667242Y-68500024D01*
X180506823Y-68548687D01*
X180340000Y-68565117D01*
X180173178Y-68548687D01*
X180012759Y-68500024D01*
X179864925Y-68421005D01*
X179864923Y-68421004D01*
X179735342Y-68314659D01*
X179628997Y-68185078D01*
X179563627Y-68062779D01*
X179549977Y-68037242D01*
X179501314Y-67876823D01*
X179489000Y-67751803D01*
X179489000Y-66868197D01*
X179501313Y-66743178D01*
X179549976Y-66582759D01*
X179628995Y-66434923D01*
X179735341Y-66305341D01*
X179864922Y-66198996D01*
X179880094Y-66190886D01*
X180012758Y-66119976D01*
X180173177Y-66071313D01*
X180340000Y-66054883D01*
X180506822Y-66071313D01*
X180506822Y-66071313D01*
G37*
G36*
X177966822Y-66071313D02*
G01*
X178127241Y-66119976D01*
X178275077Y-66198995D01*
X178404659Y-66305341D01*
X178511004Y-66434922D01*
X178511005Y-66434924D01*
X178590024Y-66582758D01*
X178638687Y-66743177D01*
X178651000Y-66868196D01*
X178651000Y-67751803D01*
X178638687Y-67876822D01*
X178590024Y-68037242D01*
X178576374Y-68062779D01*
X178511004Y-68185078D01*
X178404659Y-68314659D01*
X178275078Y-68421004D01*
X178275076Y-68421005D01*
X178127242Y-68500024D01*
X177966823Y-68548687D01*
X177800000Y-68565117D01*
X177633178Y-68548687D01*
X177472759Y-68500024D01*
X177324925Y-68421005D01*
X177324923Y-68421004D01*
X177195342Y-68314659D01*
X177088997Y-68185078D01*
X177023627Y-68062779D01*
X177009977Y-68037242D01*
X176961314Y-67876823D01*
X176949000Y-67751803D01*
X176949000Y-66868197D01*
X176961313Y-66743178D01*
X177009976Y-66582759D01*
X177088995Y-66434923D01*
X177195341Y-66305341D01*
X177324922Y-66198996D01*
X177340094Y-66190886D01*
X177472758Y-66119976D01*
X177633177Y-66071313D01*
X177800000Y-66054883D01*
X177966822Y-66071313D01*
X177966822Y-66071313D01*
G37*
G36*
X190666822Y-66071313D02*
G01*
X190827241Y-66119976D01*
X190975077Y-66198995D01*
X191104659Y-66305341D01*
X191211004Y-66434922D01*
X191211005Y-66434924D01*
X191290024Y-66582758D01*
X191338687Y-66743177D01*
X191351000Y-66868196D01*
X191351000Y-67751803D01*
X191338687Y-67876822D01*
X191290024Y-68037242D01*
X191276374Y-68062779D01*
X191211004Y-68185078D01*
X191104659Y-68314659D01*
X190975078Y-68421004D01*
X190975076Y-68421005D01*
X190827242Y-68500024D01*
X190666823Y-68548687D01*
X190500000Y-68565117D01*
X190333178Y-68548687D01*
X190172759Y-68500024D01*
X190024925Y-68421005D01*
X190024923Y-68421004D01*
X189895342Y-68314659D01*
X189788997Y-68185078D01*
X189723627Y-68062779D01*
X189709977Y-68037242D01*
X189661314Y-67876823D01*
X189649000Y-67751803D01*
X189649000Y-66868197D01*
X189661313Y-66743178D01*
X189709976Y-66582759D01*
X189788995Y-66434923D01*
X189895341Y-66305341D01*
X190024922Y-66198996D01*
X190040094Y-66190886D01*
X190172758Y-66119976D01*
X190333177Y-66071313D01*
X190500000Y-66054883D01*
X190666822Y-66071313D01*
X190666822Y-66071313D01*
G37*
G36*
X193206822Y-66071313D02*
G01*
X193367241Y-66119976D01*
X193515077Y-66198995D01*
X193644659Y-66305341D01*
X193751004Y-66434922D01*
X193751005Y-66434924D01*
X193830024Y-66582758D01*
X193878687Y-66743177D01*
X193891000Y-66868196D01*
X193891000Y-67751803D01*
X193878687Y-67876822D01*
X193830024Y-68037242D01*
X193816374Y-68062779D01*
X193751004Y-68185078D01*
X193644659Y-68314659D01*
X193515078Y-68421004D01*
X193515076Y-68421005D01*
X193367242Y-68500024D01*
X193206823Y-68548687D01*
X193040000Y-68565117D01*
X192873178Y-68548687D01*
X192712759Y-68500024D01*
X192564925Y-68421005D01*
X192564923Y-68421004D01*
X192435342Y-68314659D01*
X192328997Y-68185078D01*
X192263627Y-68062779D01*
X192249977Y-68037242D01*
X192201314Y-67876823D01*
X192189000Y-67751803D01*
X192189000Y-66868197D01*
X192201313Y-66743178D01*
X192249976Y-66582759D01*
X192328995Y-66434923D01*
X192435341Y-66305341D01*
X192564922Y-66198996D01*
X192580094Y-66190886D01*
X192712758Y-66119976D01*
X192873177Y-66071313D01*
X193040000Y-66054883D01*
X193206822Y-66071313D01*
X193206822Y-66071313D01*
G37*
G36*
X176111000Y-68561000D02*
G01*
X174409000Y-68561000D01*
X174409000Y-66059000D01*
X176111000Y-66059000D01*
X176111000Y-68561000D01*
X176111000Y-68561000D01*
G37*
G36*
X246490443Y-66415519D02*
G01*
X246556627Y-66422037D01*
X246726466Y-66473557D01*
X246882991Y-66557222D01*
X246914106Y-66582758D01*
X247020186Y-66669814D01*
X247103448Y-66771271D01*
X247132778Y-66807009D01*
X247216443Y-66963534D01*
X247267963Y-67133373D01*
X247285359Y-67310000D01*
X247267963Y-67486627D01*
X247216443Y-67656466D01*
X247132778Y-67812991D01*
X247103448Y-67848729D01*
X247020186Y-67950186D01*
X246918729Y-68033448D01*
X246882991Y-68062778D01*
X246726466Y-68146443D01*
X246556627Y-68197963D01*
X246490443Y-68204481D01*
X246424260Y-68211000D01*
X246335740Y-68211000D01*
X246269557Y-68204481D01*
X246203373Y-68197963D01*
X246033534Y-68146443D01*
X245877009Y-68062778D01*
X245841271Y-68033448D01*
X245739814Y-67950186D01*
X245656552Y-67848729D01*
X245627222Y-67812991D01*
X245543557Y-67656466D01*
X245492037Y-67486627D01*
X245474641Y-67310000D01*
X245492037Y-67133373D01*
X245543557Y-66963534D01*
X245627222Y-66807009D01*
X245656552Y-66771271D01*
X245739814Y-66669814D01*
X245845894Y-66582758D01*
X245877009Y-66557222D01*
X246033534Y-66473557D01*
X246203373Y-66422037D01*
X246269557Y-66415519D01*
X246335740Y-66409000D01*
X246424260Y-66409000D01*
X246490443Y-66415519D01*
X246490443Y-66415519D01*
G37*
G36*
X161475444Y-66415519D02*
G01*
X161541628Y-66422037D01*
X161711467Y-66473557D01*
X161867992Y-66557222D01*
X161899107Y-66582758D01*
X162005187Y-66669814D01*
X162088449Y-66771271D01*
X162117779Y-66807009D01*
X162201444Y-66963534D01*
X162252964Y-67133373D01*
X162270360Y-67310000D01*
X162252964Y-67486627D01*
X162201444Y-67656466D01*
X162117779Y-67812991D01*
X162088449Y-67848729D01*
X162005187Y-67950186D01*
X161903730Y-68033448D01*
X161867992Y-68062778D01*
X161711467Y-68146443D01*
X161541628Y-68197963D01*
X161475444Y-68204481D01*
X161409261Y-68211000D01*
X161320741Y-68211000D01*
X161254558Y-68204481D01*
X161188374Y-68197963D01*
X161018535Y-68146443D01*
X160862010Y-68062778D01*
X160826272Y-68033448D01*
X160724815Y-67950186D01*
X160641553Y-67848729D01*
X160612223Y-67812991D01*
X160528558Y-67656466D01*
X160477038Y-67486627D01*
X160459642Y-67310000D01*
X160477038Y-67133373D01*
X160528558Y-66963534D01*
X160612223Y-66807009D01*
X160641553Y-66771271D01*
X160724815Y-66669814D01*
X160830895Y-66582758D01*
X160862010Y-66557222D01*
X161018535Y-66473557D01*
X161188374Y-66422037D01*
X161254558Y-66415519D01*
X161320741Y-66409000D01*
X161409261Y-66409000D01*
X161475444Y-66415519D01*
X161475444Y-66415519D01*
G37*
G36*
X218699369Y-66454971D02*
G01*
X218861195Y-66522002D01*
X219006829Y-66619311D01*
X219130689Y-66743171D01*
X219227998Y-66888805D01*
X219295029Y-67050631D01*
X219329200Y-67222420D01*
X219329200Y-67397580D01*
X219295029Y-67569369D01*
X219227998Y-67731195D01*
X219130689Y-67876829D01*
X219006829Y-68000689D01*
X218861195Y-68097998D01*
X218699369Y-68165029D01*
X218527580Y-68199200D01*
X218352420Y-68199200D01*
X218180631Y-68165029D01*
X218018805Y-68097998D01*
X217873171Y-68000689D01*
X217749311Y-67876829D01*
X217652002Y-67731195D01*
X217584971Y-67569369D01*
X217550800Y-67397580D01*
X217550800Y-67222420D01*
X217584971Y-67050631D01*
X217652002Y-66888805D01*
X217749311Y-66743171D01*
X217873171Y-66619311D01*
X218018805Y-66522002D01*
X218180631Y-66454971D01*
X218352420Y-66420800D01*
X218527580Y-66420800D01*
X218699369Y-66454971D01*
X218699369Y-66454971D01*
G37*
G36*
X203459369Y-66454971D02*
G01*
X203621195Y-66522002D01*
X203766829Y-66619311D01*
X203890689Y-66743171D01*
X203987998Y-66888805D01*
X204055029Y-67050631D01*
X204089200Y-67222420D01*
X204089200Y-67397580D01*
X204055029Y-67569369D01*
X203987998Y-67731195D01*
X203890689Y-67876829D01*
X203766829Y-68000689D01*
X203621195Y-68097998D01*
X203459369Y-68165029D01*
X203287580Y-68199200D01*
X203112420Y-68199200D01*
X202940631Y-68165029D01*
X202778805Y-68097998D01*
X202633171Y-68000689D01*
X202509311Y-67876829D01*
X202412002Y-67731195D01*
X202344971Y-67569369D01*
X202310800Y-67397580D01*
X202310800Y-67222420D01*
X202344971Y-67050631D01*
X202412002Y-66888805D01*
X202509311Y-66743171D01*
X202633171Y-66619311D01*
X202778805Y-66522002D01*
X202940631Y-66454971D01*
X203112420Y-66420800D01*
X203287580Y-66420800D01*
X203459369Y-66454971D01*
X203459369Y-66454971D01*
G37*
G36*
X205999369Y-66454971D02*
G01*
X206161195Y-66522002D01*
X206306829Y-66619311D01*
X206430689Y-66743171D01*
X206527998Y-66888805D01*
X206595029Y-67050631D01*
X206629200Y-67222420D01*
X206629200Y-67397580D01*
X206595029Y-67569369D01*
X206527998Y-67731195D01*
X206430689Y-67876829D01*
X206306829Y-68000689D01*
X206161195Y-68097998D01*
X205999369Y-68165029D01*
X205827580Y-68199200D01*
X205652420Y-68199200D01*
X205480631Y-68165029D01*
X205318805Y-68097998D01*
X205173171Y-68000689D01*
X205049311Y-67876829D01*
X204952002Y-67731195D01*
X204884971Y-67569369D01*
X204850800Y-67397580D01*
X204850800Y-67222420D01*
X204884971Y-67050631D01*
X204952002Y-66888805D01*
X205049311Y-66743171D01*
X205173171Y-66619311D01*
X205318805Y-66522002D01*
X205480631Y-66454971D01*
X205652420Y-66420800D01*
X205827580Y-66420800D01*
X205999369Y-66454971D01*
X205999369Y-66454971D01*
G37*
G36*
X208539369Y-66454971D02*
G01*
X208701195Y-66522002D01*
X208846829Y-66619311D01*
X208970689Y-66743171D01*
X209067998Y-66888805D01*
X209135029Y-67050631D01*
X209169200Y-67222420D01*
X209169200Y-67397580D01*
X209135029Y-67569369D01*
X209067998Y-67731195D01*
X208970689Y-67876829D01*
X208846829Y-68000689D01*
X208701195Y-68097998D01*
X208539369Y-68165029D01*
X208367580Y-68199200D01*
X208192420Y-68199200D01*
X208020631Y-68165029D01*
X207858805Y-68097998D01*
X207713171Y-68000689D01*
X207589311Y-67876829D01*
X207492002Y-67731195D01*
X207424971Y-67569369D01*
X207390800Y-67397580D01*
X207390800Y-67222420D01*
X207424971Y-67050631D01*
X207492002Y-66888805D01*
X207589311Y-66743171D01*
X207713171Y-66619311D01*
X207858805Y-66522002D01*
X208020631Y-66454971D01*
X208192420Y-66420800D01*
X208367580Y-66420800D01*
X208539369Y-66454971D01*
X208539369Y-66454971D01*
G37*
G36*
X211079369Y-66454971D02*
G01*
X211241195Y-66522002D01*
X211386829Y-66619311D01*
X211510689Y-66743171D01*
X211607998Y-66888805D01*
X211675029Y-67050631D01*
X211709200Y-67222420D01*
X211709200Y-67397580D01*
X211675029Y-67569369D01*
X211607998Y-67731195D01*
X211510689Y-67876829D01*
X211386829Y-68000689D01*
X211241195Y-68097998D01*
X211079369Y-68165029D01*
X210907580Y-68199200D01*
X210732420Y-68199200D01*
X210560631Y-68165029D01*
X210398805Y-68097998D01*
X210253171Y-68000689D01*
X210129311Y-67876829D01*
X210032002Y-67731195D01*
X209964971Y-67569369D01*
X209930800Y-67397580D01*
X209930800Y-67222420D01*
X209964971Y-67050631D01*
X210032002Y-66888805D01*
X210129311Y-66743171D01*
X210253171Y-66619311D01*
X210398805Y-66522002D01*
X210560631Y-66454971D01*
X210732420Y-66420800D01*
X210907580Y-66420800D01*
X211079369Y-66454971D01*
X211079369Y-66454971D01*
G37*
G36*
X200919369Y-66454971D02*
G01*
X201081195Y-66522002D01*
X201226829Y-66619311D01*
X201350689Y-66743171D01*
X201447998Y-66888805D01*
X201515029Y-67050631D01*
X201549200Y-67222420D01*
X201549200Y-67397580D01*
X201515029Y-67569369D01*
X201447998Y-67731195D01*
X201350689Y-67876829D01*
X201226829Y-68000689D01*
X201081195Y-68097998D01*
X200919369Y-68165029D01*
X200747580Y-68199200D01*
X200572420Y-68199200D01*
X200400631Y-68165029D01*
X200238805Y-68097998D01*
X200093171Y-68000689D01*
X199969311Y-67876829D01*
X199872002Y-67731195D01*
X199804971Y-67569369D01*
X199770800Y-67397580D01*
X199770800Y-67222420D01*
X199804971Y-67050631D01*
X199872002Y-66888805D01*
X199969311Y-66743171D01*
X200093171Y-66619311D01*
X200238805Y-66522002D01*
X200400631Y-66454971D01*
X200572420Y-66420800D01*
X200747580Y-66420800D01*
X200919369Y-66454971D01*
X200919369Y-66454971D01*
G37*
G36*
X213619369Y-66454971D02*
G01*
X213781195Y-66522002D01*
X213926829Y-66619311D01*
X214050689Y-66743171D01*
X214147998Y-66888805D01*
X214215029Y-67050631D01*
X214249200Y-67222420D01*
X214249200Y-67397580D01*
X214215029Y-67569369D01*
X214147998Y-67731195D01*
X214050689Y-67876829D01*
X213926829Y-68000689D01*
X213781195Y-68097998D01*
X213619369Y-68165029D01*
X213447580Y-68199200D01*
X213272420Y-68199200D01*
X213100631Y-68165029D01*
X212938805Y-68097998D01*
X212793171Y-68000689D01*
X212669311Y-67876829D01*
X212572002Y-67731195D01*
X212504971Y-67569369D01*
X212470800Y-67397580D01*
X212470800Y-67222420D01*
X212504971Y-67050631D01*
X212572002Y-66888805D01*
X212669311Y-66743171D01*
X212793171Y-66619311D01*
X212938805Y-66522002D01*
X213100631Y-66454971D01*
X213272420Y-66420800D01*
X213447580Y-66420800D01*
X213619369Y-66454971D01*
X213619369Y-66454971D01*
G37*
G36*
X216159369Y-66454971D02*
G01*
X216321195Y-66522002D01*
X216466829Y-66619311D01*
X216590689Y-66743171D01*
X216687998Y-66888805D01*
X216755029Y-67050631D01*
X216789200Y-67222420D01*
X216789200Y-67397580D01*
X216755029Y-67569369D01*
X216687998Y-67731195D01*
X216590689Y-67876829D01*
X216466829Y-68000689D01*
X216321195Y-68097998D01*
X216159369Y-68165029D01*
X215987580Y-68199200D01*
X215812420Y-68199200D01*
X215640631Y-68165029D01*
X215478805Y-68097998D01*
X215333171Y-68000689D01*
X215209311Y-67876829D01*
X215112002Y-67731195D01*
X215044971Y-67569369D01*
X215010800Y-67397580D01*
X215010800Y-67222420D01*
X215044971Y-67050631D01*
X215112002Y-66888805D01*
X215209311Y-66743171D01*
X215333171Y-66619311D01*
X215478805Y-66522002D01*
X215640631Y-66454971D01*
X215812420Y-66420800D01*
X215987580Y-66420800D01*
X216159369Y-66454971D01*
X216159369Y-66454971D01*
G37*
G36*
X233846823Y-65201313D02*
G01*
X234007242Y-65249976D01*
X234139906Y-65320886D01*
X234155078Y-65328996D01*
X234284659Y-65435341D01*
X234391004Y-65564922D01*
X234391005Y-65564924D01*
X234470024Y-65712758D01*
X234518687Y-65873177D01*
X234535117Y-66040000D01*
X234518687Y-66206823D01*
X234470024Y-66367242D01*
X234433847Y-66434924D01*
X234391004Y-66515078D01*
X234284659Y-66644659D01*
X234155078Y-66751004D01*
X234155076Y-66751005D01*
X234007242Y-66830024D01*
X233846823Y-66878687D01*
X233721804Y-66891000D01*
X233638196Y-66891000D01*
X233513177Y-66878687D01*
X233352758Y-66830024D01*
X233204924Y-66751005D01*
X233204922Y-66751004D01*
X233075341Y-66644659D01*
X232968996Y-66515078D01*
X232926153Y-66434924D01*
X232889976Y-66367242D01*
X232841313Y-66206823D01*
X232824883Y-66040000D01*
X232841313Y-65873177D01*
X232889976Y-65712758D01*
X232968995Y-65564924D01*
X232968996Y-65564922D01*
X233075341Y-65435341D01*
X233204922Y-65328996D01*
X233220094Y-65320886D01*
X233352758Y-65249976D01*
X233513177Y-65201313D01*
X233638196Y-65189000D01*
X233721804Y-65189000D01*
X233846823Y-65201313D01*
X233846823Y-65201313D01*
G37*
G36*
X226911000Y-66891000D02*
G01*
X225209000Y-66891000D01*
X225209000Y-65189000D01*
X226911000Y-65189000D01*
X226911000Y-66891000D01*
X226911000Y-66891000D01*
G37*
G36*
X162266001Y-65671000D02*
G01*
X160464001Y-65671000D01*
X160464001Y-63869000D01*
X162266001Y-63869000D01*
X162266001Y-65671000D01*
X162266001Y-65671000D01*
G37*
G36*
X246490442Y-63875518D02*
G01*
X246556627Y-63882037D01*
X246726466Y-63933557D01*
X246882991Y-64017222D01*
X246918729Y-64046552D01*
X247020186Y-64129814D01*
X247103448Y-64231271D01*
X247132778Y-64267009D01*
X247216443Y-64423534D01*
X247267963Y-64593373D01*
X247285359Y-64770000D01*
X247267963Y-64946627D01*
X247216443Y-65116466D01*
X247132778Y-65272991D01*
X247103448Y-65308729D01*
X247020186Y-65410186D01*
X246918729Y-65493448D01*
X246882991Y-65522778D01*
X246726466Y-65606443D01*
X246556627Y-65657963D01*
X246490442Y-65664482D01*
X246424260Y-65671000D01*
X246335740Y-65671000D01*
X246269558Y-65664482D01*
X246203373Y-65657963D01*
X246033534Y-65606443D01*
X245877009Y-65522778D01*
X245841271Y-65493448D01*
X245739814Y-65410186D01*
X245656552Y-65308729D01*
X245627222Y-65272991D01*
X245543557Y-65116466D01*
X245492037Y-64946627D01*
X245474641Y-64770000D01*
X245492037Y-64593373D01*
X245543557Y-64423534D01*
X245627222Y-64267009D01*
X245656552Y-64231271D01*
X245739814Y-64129814D01*
X245841271Y-64046552D01*
X245877009Y-64017222D01*
X246033534Y-63933557D01*
X246203373Y-63882037D01*
X246269558Y-63875518D01*
X246335740Y-63869000D01*
X246424260Y-63869000D01*
X246490442Y-63875518D01*
X246490442Y-63875518D01*
G37*
G36*
X246490443Y-61335519D02*
G01*
X246556627Y-61342037D01*
X246726466Y-61393557D01*
X246882991Y-61477222D01*
X246918729Y-61506552D01*
X247020186Y-61589814D01*
X247103448Y-61691271D01*
X247132778Y-61727009D01*
X247216443Y-61883534D01*
X247267963Y-62053373D01*
X247285359Y-62230000D01*
X247267963Y-62406627D01*
X247216443Y-62576466D01*
X247132778Y-62732991D01*
X247103448Y-62768729D01*
X247020186Y-62870186D01*
X246918729Y-62953448D01*
X246882991Y-62982778D01*
X246726466Y-63066443D01*
X246556627Y-63117963D01*
X246490443Y-63124481D01*
X246424260Y-63131000D01*
X246335740Y-63131000D01*
X246269557Y-63124481D01*
X246203373Y-63117963D01*
X246033534Y-63066443D01*
X245877009Y-62982778D01*
X245841271Y-62953448D01*
X245739814Y-62870186D01*
X245656552Y-62768729D01*
X245627222Y-62732991D01*
X245543557Y-62576466D01*
X245492037Y-62406627D01*
X245474641Y-62230000D01*
X245492037Y-62053373D01*
X245543557Y-61883534D01*
X245627222Y-61727009D01*
X245656552Y-61691271D01*
X245739814Y-61589814D01*
X245841271Y-61506552D01*
X245877009Y-61477222D01*
X246033534Y-61393557D01*
X246203373Y-61342037D01*
X246269557Y-61335519D01*
X246335740Y-61329000D01*
X246424260Y-61329000D01*
X246490443Y-61335519D01*
X246490443Y-61335519D01*
G37*
G36*
X226226823Y-60121313D02*
G01*
X226387242Y-60169976D01*
X226519906Y-60240886D01*
X226535078Y-60248996D01*
X226664659Y-60355341D01*
X226771004Y-60484922D01*
X226771005Y-60484924D01*
X226850024Y-60632758D01*
X226898687Y-60793177D01*
X226915117Y-60960000D01*
X226898687Y-61126823D01*
X226850024Y-61287242D01*
X226820735Y-61342037D01*
X226771004Y-61435078D01*
X226664659Y-61564659D01*
X226535078Y-61671004D01*
X226535076Y-61671005D01*
X226387242Y-61750024D01*
X226226823Y-61798687D01*
X226101804Y-61811000D01*
X226018196Y-61811000D01*
X225893177Y-61798687D01*
X225732758Y-61750024D01*
X225584924Y-61671005D01*
X225584922Y-61671004D01*
X225455341Y-61564659D01*
X225348996Y-61435078D01*
X225299265Y-61342037D01*
X225269976Y-61287242D01*
X225221313Y-61126823D01*
X225204883Y-60960000D01*
X225221313Y-60793177D01*
X225269976Y-60632758D01*
X225348995Y-60484924D01*
X225348996Y-60484922D01*
X225455341Y-60355341D01*
X225584922Y-60248996D01*
X225600094Y-60240886D01*
X225732758Y-60169976D01*
X225893177Y-60121313D01*
X226018196Y-60109000D01*
X226101804Y-60109000D01*
X226226823Y-60121313D01*
X226226823Y-60121313D01*
G37*
G36*
X233846823Y-60121313D02*
G01*
X234007242Y-60169976D01*
X234139906Y-60240886D01*
X234155078Y-60248996D01*
X234284659Y-60355341D01*
X234391004Y-60484922D01*
X234391005Y-60484924D01*
X234470024Y-60632758D01*
X234518687Y-60793177D01*
X234535117Y-60960000D01*
X234518687Y-61126823D01*
X234470024Y-61287242D01*
X234440735Y-61342037D01*
X234391004Y-61435078D01*
X234284659Y-61564659D01*
X234155078Y-61671004D01*
X234155076Y-61671005D01*
X234007242Y-61750024D01*
X233846823Y-61798687D01*
X233721804Y-61811000D01*
X233638196Y-61811000D01*
X233513177Y-61798687D01*
X233352758Y-61750024D01*
X233204924Y-61671005D01*
X233204922Y-61671004D01*
X233075341Y-61564659D01*
X232968996Y-61435078D01*
X232919265Y-61342037D01*
X232889976Y-61287242D01*
X232841313Y-61126823D01*
X232824883Y-60960000D01*
X232841313Y-60793177D01*
X232889976Y-60632758D01*
X232968995Y-60484924D01*
X232968996Y-60484922D01*
X233075341Y-60355341D01*
X233204922Y-60248996D01*
X233220094Y-60240886D01*
X233352758Y-60169976D01*
X233513177Y-60121313D01*
X233638196Y-60109000D01*
X233721804Y-60109000D01*
X233846823Y-60121313D01*
X233846823Y-60121313D01*
G37*
G36*
X185586822Y-58451313D02*
G01*
X185747241Y-58499976D01*
X185895077Y-58578995D01*
X186024659Y-58685341D01*
X186131004Y-58814922D01*
X186131005Y-58814924D01*
X186210024Y-58962758D01*
X186258687Y-59123177D01*
X186271000Y-59248196D01*
X186271000Y-60131803D01*
X186258687Y-60256822D01*
X186210024Y-60417242D01*
X186196374Y-60442779D01*
X186131004Y-60565078D01*
X186024659Y-60694659D01*
X185895078Y-60801004D01*
X185895076Y-60801005D01*
X185747242Y-60880024D01*
X185586823Y-60928687D01*
X185420000Y-60945117D01*
X185253178Y-60928687D01*
X185092759Y-60880024D01*
X184944925Y-60801005D01*
X184944923Y-60801004D01*
X184815342Y-60694659D01*
X184708997Y-60565078D01*
X184643627Y-60442779D01*
X184629977Y-60417242D01*
X184581314Y-60256823D01*
X184569000Y-60131803D01*
X184569000Y-59248197D01*
X184581313Y-59123178D01*
X184629976Y-58962759D01*
X184708995Y-58814923D01*
X184815341Y-58685341D01*
X184944922Y-58578996D01*
X184960094Y-58570886D01*
X185092758Y-58499976D01*
X185253177Y-58451313D01*
X185420000Y-58434883D01*
X185586822Y-58451313D01*
X185586822Y-58451313D01*
G37*
G36*
X193206822Y-58451313D02*
G01*
X193367241Y-58499976D01*
X193515077Y-58578995D01*
X193644659Y-58685341D01*
X193751004Y-58814922D01*
X193751005Y-58814924D01*
X193830024Y-58962758D01*
X193878687Y-59123177D01*
X193891000Y-59248196D01*
X193891000Y-60131803D01*
X193878687Y-60256822D01*
X193830024Y-60417242D01*
X193816374Y-60442779D01*
X193751004Y-60565078D01*
X193644659Y-60694659D01*
X193515078Y-60801004D01*
X193515076Y-60801005D01*
X193367242Y-60880024D01*
X193206823Y-60928687D01*
X193040000Y-60945117D01*
X192873178Y-60928687D01*
X192712759Y-60880024D01*
X192564925Y-60801005D01*
X192564923Y-60801004D01*
X192435342Y-60694659D01*
X192328997Y-60565078D01*
X192263627Y-60442779D01*
X192249977Y-60417242D01*
X192201314Y-60256823D01*
X192189000Y-60131803D01*
X192189000Y-59248197D01*
X192201313Y-59123178D01*
X192249976Y-58962759D01*
X192328995Y-58814923D01*
X192435341Y-58685341D01*
X192564922Y-58578996D01*
X192580094Y-58570886D01*
X192712758Y-58499976D01*
X192873177Y-58451313D01*
X193040000Y-58434883D01*
X193206822Y-58451313D01*
X193206822Y-58451313D01*
G37*
G36*
X190666822Y-58451313D02*
G01*
X190827241Y-58499976D01*
X190975077Y-58578995D01*
X191104659Y-58685341D01*
X191211004Y-58814922D01*
X191211005Y-58814924D01*
X191290024Y-58962758D01*
X191338687Y-59123177D01*
X191351000Y-59248196D01*
X191351000Y-60131803D01*
X191338687Y-60256822D01*
X191290024Y-60417242D01*
X191276374Y-60442779D01*
X191211004Y-60565078D01*
X191104659Y-60694659D01*
X190975078Y-60801004D01*
X190975076Y-60801005D01*
X190827242Y-60880024D01*
X190666823Y-60928687D01*
X190500000Y-60945117D01*
X190333178Y-60928687D01*
X190172759Y-60880024D01*
X190024925Y-60801005D01*
X190024923Y-60801004D01*
X189895342Y-60694659D01*
X189788997Y-60565078D01*
X189723627Y-60442779D01*
X189709977Y-60417242D01*
X189661314Y-60256823D01*
X189649000Y-60131803D01*
X189649000Y-59248197D01*
X189661313Y-59123178D01*
X189709976Y-58962759D01*
X189788995Y-58814923D01*
X189895341Y-58685341D01*
X190024922Y-58578996D01*
X190040094Y-58570886D01*
X190172758Y-58499976D01*
X190333177Y-58451313D01*
X190500000Y-58434883D01*
X190666822Y-58451313D01*
X190666822Y-58451313D01*
G37*
G36*
X175426822Y-58451313D02*
G01*
X175587241Y-58499976D01*
X175735077Y-58578995D01*
X175864659Y-58685341D01*
X175971004Y-58814922D01*
X175971005Y-58814924D01*
X176050024Y-58962758D01*
X176098687Y-59123177D01*
X176111000Y-59248196D01*
X176111000Y-60131803D01*
X176098687Y-60256822D01*
X176050024Y-60417242D01*
X176036374Y-60442779D01*
X175971004Y-60565078D01*
X175864659Y-60694659D01*
X175735078Y-60801004D01*
X175735076Y-60801005D01*
X175587242Y-60880024D01*
X175426823Y-60928687D01*
X175260000Y-60945117D01*
X175093178Y-60928687D01*
X174932759Y-60880024D01*
X174784925Y-60801005D01*
X174784923Y-60801004D01*
X174655342Y-60694659D01*
X174548997Y-60565078D01*
X174483627Y-60442779D01*
X174469977Y-60417242D01*
X174421314Y-60256823D01*
X174409000Y-60131803D01*
X174409000Y-59248197D01*
X174421313Y-59123178D01*
X174469976Y-58962759D01*
X174548995Y-58814923D01*
X174655341Y-58685341D01*
X174784922Y-58578996D01*
X174800094Y-58570886D01*
X174932758Y-58499976D01*
X175093177Y-58451313D01*
X175260000Y-58434883D01*
X175426822Y-58451313D01*
X175426822Y-58451313D01*
G37*
G36*
X177966822Y-58451313D02*
G01*
X178127241Y-58499976D01*
X178275077Y-58578995D01*
X178404659Y-58685341D01*
X178511004Y-58814922D01*
X178511005Y-58814924D01*
X178590024Y-58962758D01*
X178638687Y-59123177D01*
X178651000Y-59248196D01*
X178651000Y-60131803D01*
X178638687Y-60256822D01*
X178590024Y-60417242D01*
X178576374Y-60442779D01*
X178511004Y-60565078D01*
X178404659Y-60694659D01*
X178275078Y-60801004D01*
X178275076Y-60801005D01*
X178127242Y-60880024D01*
X177966823Y-60928687D01*
X177800000Y-60945117D01*
X177633178Y-60928687D01*
X177472759Y-60880024D01*
X177324925Y-60801005D01*
X177324923Y-60801004D01*
X177195342Y-60694659D01*
X177088997Y-60565078D01*
X177023627Y-60442779D01*
X177009977Y-60417242D01*
X176961314Y-60256823D01*
X176949000Y-60131803D01*
X176949000Y-59248197D01*
X176961313Y-59123178D01*
X177009976Y-58962759D01*
X177088995Y-58814923D01*
X177195341Y-58685341D01*
X177324922Y-58578996D01*
X177340094Y-58570886D01*
X177472758Y-58499976D01*
X177633177Y-58451313D01*
X177800000Y-58434883D01*
X177966822Y-58451313D01*
X177966822Y-58451313D01*
G37*
G36*
X180506822Y-58451313D02*
G01*
X180667241Y-58499976D01*
X180815077Y-58578995D01*
X180944659Y-58685341D01*
X181051004Y-58814922D01*
X181051005Y-58814924D01*
X181130024Y-58962758D01*
X181178687Y-59123177D01*
X181191000Y-59248196D01*
X181191000Y-60131803D01*
X181178687Y-60256822D01*
X181130024Y-60417242D01*
X181116374Y-60442779D01*
X181051004Y-60565078D01*
X180944659Y-60694659D01*
X180815078Y-60801004D01*
X180815076Y-60801005D01*
X180667242Y-60880024D01*
X180506823Y-60928687D01*
X180340000Y-60945117D01*
X180173178Y-60928687D01*
X180012759Y-60880024D01*
X179864925Y-60801005D01*
X179864923Y-60801004D01*
X179735342Y-60694659D01*
X179628997Y-60565078D01*
X179563627Y-60442779D01*
X179549977Y-60417242D01*
X179501314Y-60256823D01*
X179489000Y-60131803D01*
X179489000Y-59248197D01*
X179501313Y-59123178D01*
X179549976Y-58962759D01*
X179628995Y-58814923D01*
X179735341Y-58685341D01*
X179864922Y-58578996D01*
X179880094Y-58570886D01*
X180012758Y-58499976D01*
X180173177Y-58451313D01*
X180340000Y-58434883D01*
X180506822Y-58451313D01*
X180506822Y-58451313D01*
G37*
G36*
X183046822Y-58451313D02*
G01*
X183207241Y-58499976D01*
X183355077Y-58578995D01*
X183484659Y-58685341D01*
X183591004Y-58814922D01*
X183591005Y-58814924D01*
X183670024Y-58962758D01*
X183718687Y-59123177D01*
X183731000Y-59248196D01*
X183731000Y-60131803D01*
X183718687Y-60256822D01*
X183670024Y-60417242D01*
X183656374Y-60442779D01*
X183591004Y-60565078D01*
X183484659Y-60694659D01*
X183355078Y-60801004D01*
X183355076Y-60801005D01*
X183207242Y-60880024D01*
X183046823Y-60928687D01*
X182880000Y-60945117D01*
X182713178Y-60928687D01*
X182552759Y-60880024D01*
X182404925Y-60801005D01*
X182404923Y-60801004D01*
X182275342Y-60694659D01*
X182168997Y-60565078D01*
X182103627Y-60442779D01*
X182089977Y-60417242D01*
X182041314Y-60256823D01*
X182029000Y-60131803D01*
X182029000Y-59248197D01*
X182041313Y-59123178D01*
X182089976Y-58962759D01*
X182168995Y-58814923D01*
X182275341Y-58685341D01*
X182404922Y-58578996D01*
X182420094Y-58570886D01*
X182552758Y-58499976D01*
X182713177Y-58451313D01*
X182880000Y-58434883D01*
X183046822Y-58451313D01*
X183046822Y-58451313D01*
G37*
G36*
X188126822Y-58451313D02*
G01*
X188287241Y-58499976D01*
X188435077Y-58578995D01*
X188564659Y-58685341D01*
X188671004Y-58814922D01*
X188671005Y-58814924D01*
X188750024Y-58962758D01*
X188798687Y-59123177D01*
X188811000Y-59248196D01*
X188811000Y-60131803D01*
X188798687Y-60256822D01*
X188750024Y-60417242D01*
X188736374Y-60442779D01*
X188671004Y-60565078D01*
X188564659Y-60694659D01*
X188435078Y-60801004D01*
X188435076Y-60801005D01*
X188287242Y-60880024D01*
X188126823Y-60928687D01*
X187960000Y-60945117D01*
X187793178Y-60928687D01*
X187632759Y-60880024D01*
X187484925Y-60801005D01*
X187484923Y-60801004D01*
X187355342Y-60694659D01*
X187248997Y-60565078D01*
X187183627Y-60442779D01*
X187169977Y-60417242D01*
X187121314Y-60256823D01*
X187109000Y-60131803D01*
X187109000Y-59248197D01*
X187121313Y-59123178D01*
X187169976Y-58962759D01*
X187248995Y-58814923D01*
X187355341Y-58685341D01*
X187484922Y-58578996D01*
X187500094Y-58570886D01*
X187632758Y-58499976D01*
X187793177Y-58451313D01*
X187960000Y-58434883D01*
X188126822Y-58451313D01*
X188126822Y-58451313D01*
G37*
G36*
X246490442Y-58795518D02*
G01*
X246556627Y-58802037D01*
X246726466Y-58853557D01*
X246882991Y-58937222D01*
X246914106Y-58962758D01*
X247020186Y-59049814D01*
X247080393Y-59123178D01*
X247132778Y-59187009D01*
X247216443Y-59343534D01*
X247267963Y-59513373D01*
X247285359Y-59690000D01*
X247267963Y-59866627D01*
X247216443Y-60036466D01*
X247132778Y-60192991D01*
X247103448Y-60228729D01*
X247020186Y-60330186D01*
X246918729Y-60413448D01*
X246882991Y-60442778D01*
X246726466Y-60526443D01*
X246556627Y-60577963D01*
X246490443Y-60584481D01*
X246424260Y-60591000D01*
X246335740Y-60591000D01*
X246269557Y-60584481D01*
X246203373Y-60577963D01*
X246033534Y-60526443D01*
X245877009Y-60442778D01*
X245841271Y-60413448D01*
X245739814Y-60330186D01*
X245656552Y-60228729D01*
X245627222Y-60192991D01*
X245543557Y-60036466D01*
X245492037Y-59866627D01*
X245474641Y-59690000D01*
X245492037Y-59513373D01*
X245543557Y-59343534D01*
X245627222Y-59187009D01*
X245679607Y-59123178D01*
X245739814Y-59049814D01*
X245845894Y-58962758D01*
X245877009Y-58937222D01*
X246033534Y-58853557D01*
X246203373Y-58802037D01*
X246269558Y-58795518D01*
X246335740Y-58789000D01*
X246424260Y-58789000D01*
X246490442Y-58795518D01*
X246490442Y-58795518D01*
G37*
G36*
X200919369Y-58834971D02*
G01*
X201081195Y-58902002D01*
X201226829Y-58999311D01*
X201350689Y-59123171D01*
X201447998Y-59268805D01*
X201515029Y-59430631D01*
X201549200Y-59602420D01*
X201549200Y-59777580D01*
X201515029Y-59949369D01*
X201447998Y-60111195D01*
X201350689Y-60256829D01*
X201226829Y-60380689D01*
X201081195Y-60477998D01*
X200919369Y-60545029D01*
X200747580Y-60579200D01*
X200572420Y-60579200D01*
X200400631Y-60545029D01*
X200238805Y-60477998D01*
X200093171Y-60380689D01*
X199969311Y-60256829D01*
X199872002Y-60111195D01*
X199804971Y-59949369D01*
X199770800Y-59777580D01*
X199770800Y-59602420D01*
X199804971Y-59430631D01*
X199872002Y-59268805D01*
X199969311Y-59123171D01*
X200093171Y-58999311D01*
X200238805Y-58902002D01*
X200400631Y-58834971D01*
X200572420Y-58800800D01*
X200747580Y-58800800D01*
X200919369Y-58834971D01*
X200919369Y-58834971D01*
G37*
G36*
X205999369Y-58834971D02*
G01*
X206161195Y-58902002D01*
X206306829Y-58999311D01*
X206430689Y-59123171D01*
X206527998Y-59268805D01*
X206595029Y-59430631D01*
X206629200Y-59602420D01*
X206629200Y-59777580D01*
X206595029Y-59949369D01*
X206527998Y-60111195D01*
X206430689Y-60256829D01*
X206306829Y-60380689D01*
X206161195Y-60477998D01*
X205999369Y-60545029D01*
X205827580Y-60579200D01*
X205652420Y-60579200D01*
X205480631Y-60545029D01*
X205318805Y-60477998D01*
X205173171Y-60380689D01*
X205049311Y-60256829D01*
X204952002Y-60111195D01*
X204884971Y-59949369D01*
X204850800Y-59777580D01*
X204850800Y-59602420D01*
X204884971Y-59430631D01*
X204952002Y-59268805D01*
X205049311Y-59123171D01*
X205173171Y-58999311D01*
X205318805Y-58902002D01*
X205480631Y-58834971D01*
X205652420Y-58800800D01*
X205827580Y-58800800D01*
X205999369Y-58834971D01*
X205999369Y-58834971D01*
G37*
G36*
X219329200Y-60579200D02*
G01*
X217550800Y-60579200D01*
X217550800Y-58800800D01*
X219329200Y-58800800D01*
X219329200Y-60579200D01*
X219329200Y-60579200D01*
G37*
G36*
X213619369Y-58834971D02*
G01*
X213781195Y-58902002D01*
X213926829Y-58999311D01*
X214050689Y-59123171D01*
X214147998Y-59268805D01*
X214215029Y-59430631D01*
X214249200Y-59602420D01*
X214249200Y-59777580D01*
X214215029Y-59949369D01*
X214147998Y-60111195D01*
X214050689Y-60256829D01*
X213926829Y-60380689D01*
X213781195Y-60477998D01*
X213619369Y-60545029D01*
X213447580Y-60579200D01*
X213272420Y-60579200D01*
X213100631Y-60545029D01*
X212938805Y-60477998D01*
X212793171Y-60380689D01*
X212669311Y-60256829D01*
X212572002Y-60111195D01*
X212504971Y-59949369D01*
X212470800Y-59777580D01*
X212470800Y-59602420D01*
X212504971Y-59430631D01*
X212572002Y-59268805D01*
X212669311Y-59123171D01*
X212793171Y-58999311D01*
X212938805Y-58902002D01*
X213100631Y-58834971D01*
X213272420Y-58800800D01*
X213447580Y-58800800D01*
X213619369Y-58834971D01*
X213619369Y-58834971D01*
G37*
G36*
X208539369Y-58834971D02*
G01*
X208701195Y-58902002D01*
X208846829Y-58999311D01*
X208970689Y-59123171D01*
X209067998Y-59268805D01*
X209135029Y-59430631D01*
X209169200Y-59602420D01*
X209169200Y-59777580D01*
X209135029Y-59949369D01*
X209067998Y-60111195D01*
X208970689Y-60256829D01*
X208846829Y-60380689D01*
X208701195Y-60477998D01*
X208539369Y-60545029D01*
X208367580Y-60579200D01*
X208192420Y-60579200D01*
X208020631Y-60545029D01*
X207858805Y-60477998D01*
X207713171Y-60380689D01*
X207589311Y-60256829D01*
X207492002Y-60111195D01*
X207424971Y-59949369D01*
X207390800Y-59777580D01*
X207390800Y-59602420D01*
X207424971Y-59430631D01*
X207492002Y-59268805D01*
X207589311Y-59123171D01*
X207713171Y-58999311D01*
X207858805Y-58902002D01*
X208020631Y-58834971D01*
X208192420Y-58800800D01*
X208367580Y-58800800D01*
X208539369Y-58834971D01*
X208539369Y-58834971D01*
G37*
G36*
X216159369Y-58834971D02*
G01*
X216321195Y-58902002D01*
X216466829Y-58999311D01*
X216590689Y-59123171D01*
X216687998Y-59268805D01*
X216755029Y-59430631D01*
X216789200Y-59602420D01*
X216789200Y-59777580D01*
X216755029Y-59949369D01*
X216687998Y-60111195D01*
X216590689Y-60256829D01*
X216466829Y-60380689D01*
X216321195Y-60477998D01*
X216159369Y-60545029D01*
X215987580Y-60579200D01*
X215812420Y-60579200D01*
X215640631Y-60545029D01*
X215478805Y-60477998D01*
X215333171Y-60380689D01*
X215209311Y-60256829D01*
X215112002Y-60111195D01*
X215044971Y-59949369D01*
X215010800Y-59777580D01*
X215010800Y-59602420D01*
X215044971Y-59430631D01*
X215112002Y-59268805D01*
X215209311Y-59123171D01*
X215333171Y-58999311D01*
X215478805Y-58902002D01*
X215640631Y-58834971D01*
X215812420Y-58800800D01*
X215987580Y-58800800D01*
X216159369Y-58834971D01*
X216159369Y-58834971D01*
G37*
G36*
X203459369Y-58834971D02*
G01*
X203621195Y-58902002D01*
X203766829Y-58999311D01*
X203890689Y-59123171D01*
X203987998Y-59268805D01*
X204055029Y-59430631D01*
X204089200Y-59602420D01*
X204089200Y-59777580D01*
X204055029Y-59949369D01*
X203987998Y-60111195D01*
X203890689Y-60256829D01*
X203766829Y-60380689D01*
X203621195Y-60477998D01*
X203459369Y-60545029D01*
X203287580Y-60579200D01*
X203112420Y-60579200D01*
X202940631Y-60545029D01*
X202778805Y-60477998D01*
X202633171Y-60380689D01*
X202509311Y-60256829D01*
X202412002Y-60111195D01*
X202344971Y-59949369D01*
X202310800Y-59777580D01*
X202310800Y-59602420D01*
X202344971Y-59430631D01*
X202412002Y-59268805D01*
X202509311Y-59123171D01*
X202633171Y-58999311D01*
X202778805Y-58902002D01*
X202940631Y-58834971D01*
X203112420Y-58800800D01*
X203287580Y-58800800D01*
X203459369Y-58834971D01*
X203459369Y-58834971D01*
G37*
G36*
X211079369Y-58834971D02*
G01*
X211241195Y-58902002D01*
X211386829Y-58999311D01*
X211510689Y-59123171D01*
X211607998Y-59268805D01*
X211675029Y-59430631D01*
X211709200Y-59602420D01*
X211709200Y-59777580D01*
X211675029Y-59949369D01*
X211607998Y-60111195D01*
X211510689Y-60256829D01*
X211386829Y-60380689D01*
X211241195Y-60477998D01*
X211079369Y-60545029D01*
X210907580Y-60579200D01*
X210732420Y-60579200D01*
X210560631Y-60545029D01*
X210398805Y-60477998D01*
X210253171Y-60380689D01*
X210129311Y-60256829D01*
X210032002Y-60111195D01*
X209964971Y-59949369D01*
X209930800Y-59777580D01*
X209930800Y-59602420D01*
X209964971Y-59430631D01*
X210032002Y-59268805D01*
X210129311Y-59123171D01*
X210253171Y-58999311D01*
X210398805Y-58902002D01*
X210560631Y-58834971D01*
X210732420Y-58800800D01*
X210907580Y-58800800D01*
X211079369Y-58834971D01*
X211079369Y-58834971D01*
G37*
G36*
X246490443Y-56255519D02*
G01*
X246556627Y-56262037D01*
X246726466Y-56313557D01*
X246882991Y-56397222D01*
X246918729Y-56426552D01*
X247020186Y-56509814D01*
X247103448Y-56611271D01*
X247132778Y-56647009D01*
X247216443Y-56803534D01*
X247267963Y-56973373D01*
X247285359Y-57150000D01*
X247267963Y-57326627D01*
X247216443Y-57496466D01*
X247132778Y-57652991D01*
X247103448Y-57688729D01*
X247020186Y-57790186D01*
X246918729Y-57873448D01*
X246882991Y-57902778D01*
X246726466Y-57986443D01*
X246556627Y-58037963D01*
X246490442Y-58044482D01*
X246424260Y-58051000D01*
X246335740Y-58051000D01*
X246269558Y-58044482D01*
X246203373Y-58037963D01*
X246033534Y-57986443D01*
X245877009Y-57902778D01*
X245841271Y-57873448D01*
X245739814Y-57790186D01*
X245656552Y-57688729D01*
X245627222Y-57652991D01*
X245543557Y-57496466D01*
X245492037Y-57326627D01*
X245474641Y-57150000D01*
X245492037Y-56973373D01*
X245543557Y-56803534D01*
X245627222Y-56647009D01*
X245656552Y-56611271D01*
X245739814Y-56509814D01*
X245841271Y-56426552D01*
X245877009Y-56397222D01*
X246033534Y-56313557D01*
X246203373Y-56262037D01*
X246269557Y-56255519D01*
X246335740Y-56249000D01*
X246424260Y-56249000D01*
X246490443Y-56255519D01*
X246490443Y-56255519D01*
G37*
G36*
X226911000Y-56731000D02*
G01*
X225209000Y-56731000D01*
X225209000Y-55029000D01*
X226911000Y-55029000D01*
X226911000Y-56731000D01*
X226911000Y-56731000D01*
G37*
G36*
X233846823Y-55041313D02*
G01*
X234007242Y-55089976D01*
X234139906Y-55160886D01*
X234155078Y-55168996D01*
X234284659Y-55275341D01*
X234391004Y-55404922D01*
X234391005Y-55404924D01*
X234470024Y-55552758D01*
X234518687Y-55713177D01*
X234535117Y-55880000D01*
X234518687Y-56046823D01*
X234470024Y-56207242D01*
X234440735Y-56262037D01*
X234391004Y-56355078D01*
X234284659Y-56484659D01*
X234155078Y-56591004D01*
X234155076Y-56591005D01*
X234007242Y-56670024D01*
X233846823Y-56718687D01*
X233721804Y-56731000D01*
X233638196Y-56731000D01*
X233513177Y-56718687D01*
X233352758Y-56670024D01*
X233204924Y-56591005D01*
X233204922Y-56591004D01*
X233075341Y-56484659D01*
X232968996Y-56355078D01*
X232919265Y-56262037D01*
X232889976Y-56207242D01*
X232841313Y-56046823D01*
X232824883Y-55880000D01*
X232841313Y-55713177D01*
X232889976Y-55552758D01*
X232968995Y-55404924D01*
X232968996Y-55404922D01*
X233075341Y-55275341D01*
X233204922Y-55168996D01*
X233220094Y-55160886D01*
X233352758Y-55089976D01*
X233513177Y-55041313D01*
X233638196Y-55029000D01*
X233721804Y-55029000D01*
X233846823Y-55041313D01*
X233846823Y-55041313D01*
G37*
G36*
X247281000Y-55511000D02*
G01*
X245479000Y-55511000D01*
X245479000Y-53709000D01*
X247281000Y-53709000D01*
X247281000Y-55511000D01*
X247281000Y-55511000D01*
G37*
G36*
X233846823Y-49961313D02*
G01*
X234007242Y-50009976D01*
X234139906Y-50080886D01*
X234155078Y-50088996D01*
X234284659Y-50195341D01*
X234391004Y-50324922D01*
X234391005Y-50324924D01*
X234470024Y-50472758D01*
X234518687Y-50633177D01*
X234535117Y-50800000D01*
X234518687Y-50966823D01*
X234470024Y-51127242D01*
X234399114Y-51259906D01*
X234391004Y-51275078D01*
X234284659Y-51404659D01*
X234155078Y-51511004D01*
X234155076Y-51511005D01*
X234007242Y-51590024D01*
X233846823Y-51638687D01*
X233721804Y-51651000D01*
X233638196Y-51651000D01*
X233513177Y-51638687D01*
X233352758Y-51590024D01*
X233204924Y-51511005D01*
X233204922Y-51511004D01*
X233075341Y-51404659D01*
X232968996Y-51275078D01*
X232960886Y-51259906D01*
X232889976Y-51127242D01*
X232841313Y-50966823D01*
X232824883Y-50800000D01*
X232841313Y-50633177D01*
X232889976Y-50472758D01*
X232968995Y-50324924D01*
X232968996Y-50324922D01*
X233075341Y-50195341D01*
X233204922Y-50088996D01*
X233220094Y-50080886D01*
X233352758Y-50009976D01*
X233513177Y-49961313D01*
X233638196Y-49949000D01*
X233721804Y-49949000D01*
X233846823Y-49961313D01*
X233846823Y-49961313D01*
G37*
G36*
X226226823Y-49961313D02*
G01*
X226387242Y-50009976D01*
X226519906Y-50080886D01*
X226535078Y-50088996D01*
X226664659Y-50195341D01*
X226771004Y-50324922D01*
X226771005Y-50324924D01*
X226850024Y-50472758D01*
X226898687Y-50633177D01*
X226915117Y-50800000D01*
X226898687Y-50966823D01*
X226850024Y-51127242D01*
X226779114Y-51259906D01*
X226771004Y-51275078D01*
X226664659Y-51404659D01*
X226535078Y-51511004D01*
X226535076Y-51511005D01*
X226387242Y-51590024D01*
X226226823Y-51638687D01*
X226101804Y-51651000D01*
X226018196Y-51651000D01*
X225893177Y-51638687D01*
X225732758Y-51590024D01*
X225584924Y-51511005D01*
X225584922Y-51511004D01*
X225455341Y-51404659D01*
X225348996Y-51275078D01*
X225340886Y-51259906D01*
X225269976Y-51127242D01*
X225221313Y-50966823D01*
X225204883Y-50800000D01*
X225221313Y-50633177D01*
X225269976Y-50472758D01*
X225348995Y-50324924D01*
X225348996Y-50324922D01*
X225455341Y-50195341D01*
X225584922Y-50088996D01*
X225600094Y-50080886D01*
X225732758Y-50009976D01*
X225893177Y-49961313D01*
X226018196Y-49949000D01*
X226101804Y-49949000D01*
X226226823Y-49961313D01*
X226226823Y-49961313D01*
G37*
G36*
X161400443Y-48635519D02*
G01*
X161466627Y-48642037D01*
X161636466Y-48693557D01*
X161792991Y-48777222D01*
X161828729Y-48806552D01*
X161930186Y-48889814D01*
X162013448Y-48991271D01*
X162042778Y-49027009D01*
X162126443Y-49183534D01*
X162177963Y-49353373D01*
X162195359Y-49530000D01*
X162177963Y-49706627D01*
X162126443Y-49876466D01*
X162042778Y-50032991D01*
X162013448Y-50068729D01*
X161930186Y-50170186D01*
X161828729Y-50253448D01*
X161792991Y-50282778D01*
X161636466Y-50366443D01*
X161466627Y-50417963D01*
X161400443Y-50424481D01*
X161334260Y-50431000D01*
X161245740Y-50431000D01*
X161179558Y-50424482D01*
X161113373Y-50417963D01*
X160943534Y-50366443D01*
X160787009Y-50282778D01*
X160751271Y-50253448D01*
X160649814Y-50170186D01*
X160566552Y-50068729D01*
X160537222Y-50032991D01*
X160453557Y-49876466D01*
X160402037Y-49706627D01*
X160384641Y-49530000D01*
X160402037Y-49353373D01*
X160453557Y-49183534D01*
X160537222Y-49027009D01*
X160566552Y-48991271D01*
X160649814Y-48889814D01*
X160751271Y-48806552D01*
X160787009Y-48777222D01*
X160943534Y-48693557D01*
X161113373Y-48642037D01*
X161179557Y-48635519D01*
X161245740Y-48629000D01*
X161334260Y-48629000D01*
X161400443Y-48635519D01*
X161400443Y-48635519D01*
G37*
G36*
X193206822Y-45751313D02*
G01*
X193367241Y-45799976D01*
X193515077Y-45878995D01*
X193644659Y-45985341D01*
X193751004Y-46114922D01*
X193751005Y-46114924D01*
X193830024Y-46262758D01*
X193878687Y-46423177D01*
X193891000Y-46548196D01*
X193891000Y-47431803D01*
X193878687Y-47556822D01*
X193830024Y-47717242D01*
X193797549Y-47777998D01*
X193751004Y-47865078D01*
X193644659Y-47994659D01*
X193515078Y-48101004D01*
X193515076Y-48101005D01*
X193367242Y-48180024D01*
X193206823Y-48228687D01*
X193040000Y-48245117D01*
X192873178Y-48228687D01*
X192712759Y-48180024D01*
X192564925Y-48101005D01*
X192564923Y-48101004D01*
X192435342Y-47994659D01*
X192328997Y-47865078D01*
X192282452Y-47777998D01*
X192249977Y-47717242D01*
X192201314Y-47556823D01*
X192189000Y-47431803D01*
X192189000Y-46548197D01*
X192201313Y-46423178D01*
X192249976Y-46262759D01*
X192328995Y-46114923D01*
X192435341Y-45985341D01*
X192564922Y-45878996D01*
X192580094Y-45870886D01*
X192712758Y-45799976D01*
X192873177Y-45751313D01*
X193040000Y-45734883D01*
X193206822Y-45751313D01*
X193206822Y-45751313D01*
G37*
G36*
X185586822Y-45751313D02*
G01*
X185747241Y-45799976D01*
X185895077Y-45878995D01*
X186024659Y-45985341D01*
X186131004Y-46114922D01*
X186131005Y-46114924D01*
X186210024Y-46262758D01*
X186258687Y-46423177D01*
X186271000Y-46548196D01*
X186271000Y-47431803D01*
X186258687Y-47556822D01*
X186210024Y-47717242D01*
X186177549Y-47777998D01*
X186131004Y-47865078D01*
X186024659Y-47994659D01*
X185895078Y-48101004D01*
X185895076Y-48101005D01*
X185747242Y-48180024D01*
X185586823Y-48228687D01*
X185420000Y-48245117D01*
X185253178Y-48228687D01*
X185092759Y-48180024D01*
X184944925Y-48101005D01*
X184944923Y-48101004D01*
X184815342Y-47994659D01*
X184708997Y-47865078D01*
X184662452Y-47777998D01*
X184629977Y-47717242D01*
X184581314Y-47556823D01*
X184569000Y-47431803D01*
X184569000Y-46548197D01*
X184581313Y-46423178D01*
X184629976Y-46262759D01*
X184708995Y-46114923D01*
X184815341Y-45985341D01*
X184944922Y-45878996D01*
X184960094Y-45870886D01*
X185092758Y-45799976D01*
X185253177Y-45751313D01*
X185420000Y-45734883D01*
X185586822Y-45751313D01*
X185586822Y-45751313D01*
G37*
G36*
X188126822Y-45751313D02*
G01*
X188287241Y-45799976D01*
X188435077Y-45878995D01*
X188564659Y-45985341D01*
X188671004Y-46114922D01*
X188671005Y-46114924D01*
X188750024Y-46262758D01*
X188798687Y-46423177D01*
X188811000Y-46548196D01*
X188811000Y-47431803D01*
X188798687Y-47556822D01*
X188750024Y-47717242D01*
X188717549Y-47777998D01*
X188671004Y-47865078D01*
X188564659Y-47994659D01*
X188435078Y-48101004D01*
X188435076Y-48101005D01*
X188287242Y-48180024D01*
X188126823Y-48228687D01*
X187960000Y-48245117D01*
X187793178Y-48228687D01*
X187632759Y-48180024D01*
X187484925Y-48101005D01*
X187484923Y-48101004D01*
X187355342Y-47994659D01*
X187248997Y-47865078D01*
X187202452Y-47777998D01*
X187169977Y-47717242D01*
X187121314Y-47556823D01*
X187109000Y-47431803D01*
X187109000Y-46548197D01*
X187121313Y-46423178D01*
X187169976Y-46262759D01*
X187248995Y-46114923D01*
X187355341Y-45985341D01*
X187484922Y-45878996D01*
X187500094Y-45870886D01*
X187632758Y-45799976D01*
X187793177Y-45751313D01*
X187960000Y-45734883D01*
X188126822Y-45751313D01*
X188126822Y-45751313D01*
G37*
G36*
X190666822Y-45751313D02*
G01*
X190827241Y-45799976D01*
X190975077Y-45878995D01*
X191104659Y-45985341D01*
X191211004Y-46114922D01*
X191211005Y-46114924D01*
X191290024Y-46262758D01*
X191338687Y-46423177D01*
X191351000Y-46548196D01*
X191351000Y-47431803D01*
X191338687Y-47556822D01*
X191290024Y-47717242D01*
X191257549Y-47777998D01*
X191211004Y-47865078D01*
X191104659Y-47994659D01*
X190975078Y-48101004D01*
X190975076Y-48101005D01*
X190827242Y-48180024D01*
X190666823Y-48228687D01*
X190500000Y-48245117D01*
X190333178Y-48228687D01*
X190172759Y-48180024D01*
X190024925Y-48101005D01*
X190024923Y-48101004D01*
X189895342Y-47994659D01*
X189788997Y-47865078D01*
X189742452Y-47777998D01*
X189709977Y-47717242D01*
X189661314Y-47556823D01*
X189649000Y-47431803D01*
X189649000Y-46548197D01*
X189661313Y-46423178D01*
X189709976Y-46262759D01*
X189788995Y-46114923D01*
X189895341Y-45985341D01*
X190024922Y-45878996D01*
X190040094Y-45870886D01*
X190172758Y-45799976D01*
X190333177Y-45751313D01*
X190500000Y-45734883D01*
X190666822Y-45751313D01*
X190666822Y-45751313D01*
G37*
G36*
X180506822Y-45751313D02*
G01*
X180667241Y-45799976D01*
X180815077Y-45878995D01*
X180944659Y-45985341D01*
X181051004Y-46114922D01*
X181051005Y-46114924D01*
X181130024Y-46262758D01*
X181178687Y-46423177D01*
X181191000Y-46548196D01*
X181191000Y-47431803D01*
X181178687Y-47556822D01*
X181130024Y-47717242D01*
X181097549Y-47777998D01*
X181051004Y-47865078D01*
X180944659Y-47994659D01*
X180815078Y-48101004D01*
X180815076Y-48101005D01*
X180667242Y-48180024D01*
X180506823Y-48228687D01*
X180340000Y-48245117D01*
X180173178Y-48228687D01*
X180012759Y-48180024D01*
X179864925Y-48101005D01*
X179864923Y-48101004D01*
X179735342Y-47994659D01*
X179628997Y-47865078D01*
X179582452Y-47777998D01*
X179549977Y-47717242D01*
X179501314Y-47556823D01*
X179489000Y-47431803D01*
X179489000Y-46548197D01*
X179501313Y-46423178D01*
X179549976Y-46262759D01*
X179628995Y-46114923D01*
X179735341Y-45985341D01*
X179864922Y-45878996D01*
X179880094Y-45870886D01*
X180012758Y-45799976D01*
X180173177Y-45751313D01*
X180340000Y-45734883D01*
X180506822Y-45751313D01*
X180506822Y-45751313D01*
G37*
G36*
X177966822Y-45751313D02*
G01*
X178127241Y-45799976D01*
X178275077Y-45878995D01*
X178404659Y-45985341D01*
X178511004Y-46114922D01*
X178511005Y-46114924D01*
X178590024Y-46262758D01*
X178638687Y-46423177D01*
X178651000Y-46548196D01*
X178651000Y-47431803D01*
X178638687Y-47556822D01*
X178590024Y-47717242D01*
X178557549Y-47777998D01*
X178511004Y-47865078D01*
X178404659Y-47994659D01*
X178275078Y-48101004D01*
X178275076Y-48101005D01*
X178127242Y-48180024D01*
X177966823Y-48228687D01*
X177800000Y-48245117D01*
X177633178Y-48228687D01*
X177472759Y-48180024D01*
X177324925Y-48101005D01*
X177324923Y-48101004D01*
X177195342Y-47994659D01*
X177088997Y-47865078D01*
X177042452Y-47777998D01*
X177009977Y-47717242D01*
X176961314Y-47556823D01*
X176949000Y-47431803D01*
X176949000Y-46548197D01*
X176961313Y-46423178D01*
X177009976Y-46262759D01*
X177088995Y-46114923D01*
X177195341Y-45985341D01*
X177324922Y-45878996D01*
X177340094Y-45870886D01*
X177472758Y-45799976D01*
X177633177Y-45751313D01*
X177800000Y-45734883D01*
X177966822Y-45751313D01*
X177966822Y-45751313D01*
G37*
G36*
X183046822Y-45751313D02*
G01*
X183207241Y-45799976D01*
X183355077Y-45878995D01*
X183484659Y-45985341D01*
X183591004Y-46114922D01*
X183591005Y-46114924D01*
X183670024Y-46262758D01*
X183718687Y-46423177D01*
X183731000Y-46548196D01*
X183731000Y-47431803D01*
X183718687Y-47556822D01*
X183670024Y-47717242D01*
X183637549Y-47777998D01*
X183591004Y-47865078D01*
X183484659Y-47994659D01*
X183355078Y-48101004D01*
X183355076Y-48101005D01*
X183207242Y-48180024D01*
X183046823Y-48228687D01*
X182880000Y-48245117D01*
X182713178Y-48228687D01*
X182552759Y-48180024D01*
X182404925Y-48101005D01*
X182404923Y-48101004D01*
X182275342Y-47994659D01*
X182168997Y-47865078D01*
X182122452Y-47777998D01*
X182089977Y-47717242D01*
X182041314Y-47556823D01*
X182029000Y-47431803D01*
X182029000Y-46548197D01*
X182041313Y-46423178D01*
X182089976Y-46262759D01*
X182168995Y-46114923D01*
X182275341Y-45985341D01*
X182404922Y-45878996D01*
X182420094Y-45870886D01*
X182552758Y-45799976D01*
X182713177Y-45751313D01*
X182880000Y-45734883D01*
X183046822Y-45751313D01*
X183046822Y-45751313D01*
G37*
G36*
X176111000Y-48241000D02*
G01*
X174409000Y-48241000D01*
X174409000Y-45739000D01*
X176111000Y-45739000D01*
X176111000Y-48241000D01*
X176111000Y-48241000D01*
G37*
G36*
X162191000Y-47891000D02*
G01*
X160389000Y-47891000D01*
X160389000Y-46089000D01*
X162191000Y-46089000D01*
X162191000Y-47891000D01*
X162191000Y-47891000D01*
G37*
G36*
X211079369Y-46134971D02*
G01*
X211241195Y-46202002D01*
X211386829Y-46299311D01*
X211510689Y-46423171D01*
X211607998Y-46568805D01*
X211675029Y-46730631D01*
X211709200Y-46902420D01*
X211709200Y-47077580D01*
X211675029Y-47249369D01*
X211607998Y-47411195D01*
X211510689Y-47556829D01*
X211386829Y-47680689D01*
X211241195Y-47777998D01*
X211079369Y-47845029D01*
X210907580Y-47879200D01*
X210732420Y-47879200D01*
X210560631Y-47845029D01*
X210398805Y-47777998D01*
X210253171Y-47680689D01*
X210129311Y-47556829D01*
X210032002Y-47411195D01*
X209964971Y-47249369D01*
X209930800Y-47077580D01*
X209930800Y-46902420D01*
X209964971Y-46730631D01*
X210032002Y-46568805D01*
X210129311Y-46423171D01*
X210253171Y-46299311D01*
X210398805Y-46202002D01*
X210560631Y-46134971D01*
X210732420Y-46100800D01*
X210907580Y-46100800D01*
X211079369Y-46134971D01*
X211079369Y-46134971D01*
G37*
G36*
X216159369Y-46134971D02*
G01*
X216321195Y-46202002D01*
X216466829Y-46299311D01*
X216590689Y-46423171D01*
X216687998Y-46568805D01*
X216755029Y-46730631D01*
X216789200Y-46902420D01*
X216789200Y-47077580D01*
X216755029Y-47249369D01*
X216687998Y-47411195D01*
X216590689Y-47556829D01*
X216466829Y-47680689D01*
X216321195Y-47777998D01*
X216159369Y-47845029D01*
X215987580Y-47879200D01*
X215812420Y-47879200D01*
X215640631Y-47845029D01*
X215478805Y-47777998D01*
X215333171Y-47680689D01*
X215209311Y-47556829D01*
X215112002Y-47411195D01*
X215044971Y-47249369D01*
X215010800Y-47077580D01*
X215010800Y-46902420D01*
X215044971Y-46730631D01*
X215112002Y-46568805D01*
X215209311Y-46423171D01*
X215333171Y-46299311D01*
X215478805Y-46202002D01*
X215640631Y-46134971D01*
X215812420Y-46100800D01*
X215987580Y-46100800D01*
X216159369Y-46134971D01*
X216159369Y-46134971D01*
G37*
G36*
X213619369Y-46134971D02*
G01*
X213781195Y-46202002D01*
X213926829Y-46299311D01*
X214050689Y-46423171D01*
X214147998Y-46568805D01*
X214215029Y-46730631D01*
X214249200Y-46902420D01*
X214249200Y-47077580D01*
X214215029Y-47249369D01*
X214147998Y-47411195D01*
X214050689Y-47556829D01*
X213926829Y-47680689D01*
X213781195Y-47777998D01*
X213619369Y-47845029D01*
X213447580Y-47879200D01*
X213272420Y-47879200D01*
X213100631Y-47845029D01*
X212938805Y-47777998D01*
X212793171Y-47680689D01*
X212669311Y-47556829D01*
X212572002Y-47411195D01*
X212504971Y-47249369D01*
X212470800Y-47077580D01*
X212470800Y-46902420D01*
X212504971Y-46730631D01*
X212572002Y-46568805D01*
X212669311Y-46423171D01*
X212793171Y-46299311D01*
X212938805Y-46202002D01*
X213100631Y-46134971D01*
X213272420Y-46100800D01*
X213447580Y-46100800D01*
X213619369Y-46134971D01*
X213619369Y-46134971D01*
G37*
G36*
X208539369Y-46134971D02*
G01*
X208701195Y-46202002D01*
X208846829Y-46299311D01*
X208970689Y-46423171D01*
X209067998Y-46568805D01*
X209135029Y-46730631D01*
X209169200Y-46902420D01*
X209169200Y-47077580D01*
X209135029Y-47249369D01*
X209067998Y-47411195D01*
X208970689Y-47556829D01*
X208846829Y-47680689D01*
X208701195Y-47777998D01*
X208539369Y-47845029D01*
X208367580Y-47879200D01*
X208192420Y-47879200D01*
X208020631Y-47845029D01*
X207858805Y-47777998D01*
X207713171Y-47680689D01*
X207589311Y-47556829D01*
X207492002Y-47411195D01*
X207424971Y-47249369D01*
X207390800Y-47077580D01*
X207390800Y-46902420D01*
X207424971Y-46730631D01*
X207492002Y-46568805D01*
X207589311Y-46423171D01*
X207713171Y-46299311D01*
X207858805Y-46202002D01*
X208020631Y-46134971D01*
X208192420Y-46100800D01*
X208367580Y-46100800D01*
X208539369Y-46134971D01*
X208539369Y-46134971D01*
G37*
G36*
X200919369Y-46134971D02*
G01*
X201081195Y-46202002D01*
X201226829Y-46299311D01*
X201350689Y-46423171D01*
X201447998Y-46568805D01*
X201515029Y-46730631D01*
X201549200Y-46902420D01*
X201549200Y-47077580D01*
X201515029Y-47249369D01*
X201447998Y-47411195D01*
X201350689Y-47556829D01*
X201226829Y-47680689D01*
X201081195Y-47777998D01*
X200919369Y-47845029D01*
X200747580Y-47879200D01*
X200572420Y-47879200D01*
X200400631Y-47845029D01*
X200238805Y-47777998D01*
X200093171Y-47680689D01*
X199969311Y-47556829D01*
X199872002Y-47411195D01*
X199804971Y-47249369D01*
X199770800Y-47077580D01*
X199770800Y-46902420D01*
X199804971Y-46730631D01*
X199872002Y-46568805D01*
X199969311Y-46423171D01*
X200093171Y-46299311D01*
X200238805Y-46202002D01*
X200400631Y-46134971D01*
X200572420Y-46100800D01*
X200747580Y-46100800D01*
X200919369Y-46134971D01*
X200919369Y-46134971D01*
G37*
G36*
X218699369Y-46134971D02*
G01*
X218861195Y-46202002D01*
X219006829Y-46299311D01*
X219130689Y-46423171D01*
X219227998Y-46568805D01*
X219295029Y-46730631D01*
X219329200Y-46902420D01*
X219329200Y-47077580D01*
X219295029Y-47249369D01*
X219227998Y-47411195D01*
X219130689Y-47556829D01*
X219006829Y-47680689D01*
X218861195Y-47777998D01*
X218699369Y-47845029D01*
X218527580Y-47879200D01*
X218352420Y-47879200D01*
X218180631Y-47845029D01*
X218018805Y-47777998D01*
X217873171Y-47680689D01*
X217749311Y-47556829D01*
X217652002Y-47411195D01*
X217584971Y-47249369D01*
X217550800Y-47077580D01*
X217550800Y-46902420D01*
X217584971Y-46730631D01*
X217652002Y-46568805D01*
X217749311Y-46423171D01*
X217873171Y-46299311D01*
X218018805Y-46202002D01*
X218180631Y-46134971D01*
X218352420Y-46100800D01*
X218527580Y-46100800D01*
X218699369Y-46134971D01*
X218699369Y-46134971D01*
G37*
G36*
X203459369Y-46134971D02*
G01*
X203621195Y-46202002D01*
X203766829Y-46299311D01*
X203890689Y-46423171D01*
X203987998Y-46568805D01*
X204055029Y-46730631D01*
X204089200Y-46902420D01*
X204089200Y-47077580D01*
X204055029Y-47249369D01*
X203987998Y-47411195D01*
X203890689Y-47556829D01*
X203766829Y-47680689D01*
X203621195Y-47777998D01*
X203459369Y-47845029D01*
X203287580Y-47879200D01*
X203112420Y-47879200D01*
X202940631Y-47845029D01*
X202778805Y-47777998D01*
X202633171Y-47680689D01*
X202509311Y-47556829D01*
X202412002Y-47411195D01*
X202344971Y-47249369D01*
X202310800Y-47077580D01*
X202310800Y-46902420D01*
X202344971Y-46730631D01*
X202412002Y-46568805D01*
X202509311Y-46423171D01*
X202633171Y-46299311D01*
X202778805Y-46202002D01*
X202940631Y-46134971D01*
X203112420Y-46100800D01*
X203287580Y-46100800D01*
X203459369Y-46134971D01*
X203459369Y-46134971D01*
G37*
G36*
X205999369Y-46134971D02*
G01*
X206161195Y-46202002D01*
X206306829Y-46299311D01*
X206430689Y-46423171D01*
X206527998Y-46568805D01*
X206595029Y-46730631D01*
X206629200Y-46902420D01*
X206629200Y-47077580D01*
X206595029Y-47249369D01*
X206527998Y-47411195D01*
X206430689Y-47556829D01*
X206306829Y-47680689D01*
X206161195Y-47777998D01*
X205999369Y-47845029D01*
X205827580Y-47879200D01*
X205652420Y-47879200D01*
X205480631Y-47845029D01*
X205318805Y-47777998D01*
X205173171Y-47680689D01*
X205049311Y-47556829D01*
X204952002Y-47411195D01*
X204884971Y-47249369D01*
X204850800Y-47077580D01*
X204850800Y-46902420D01*
X204884971Y-46730631D01*
X204952002Y-46568805D01*
X205049311Y-46423171D01*
X205173171Y-46299311D01*
X205318805Y-46202002D01*
X205480631Y-46134971D01*
X205652420Y-46100800D01*
X205827580Y-46100800D01*
X205999369Y-46134971D01*
X205999369Y-46134971D01*
G37*
G36*
X226911000Y-46571000D02*
G01*
X225209000Y-46571000D01*
X225209000Y-44869000D01*
X226911000Y-44869000D01*
X226911000Y-46571000D01*
X226911000Y-46571000D01*
G37*
G36*
X233846823Y-44881313D02*
G01*
X234007242Y-44929976D01*
X234139906Y-45000886D01*
X234155078Y-45008996D01*
X234284659Y-45115341D01*
X234391004Y-45244922D01*
X234391005Y-45244924D01*
X234470024Y-45392758D01*
X234518687Y-45553177D01*
X234535117Y-45720000D01*
X234518687Y-45886823D01*
X234470024Y-46047242D01*
X234433847Y-46114924D01*
X234391004Y-46195078D01*
X234284659Y-46324659D01*
X234155078Y-46431004D01*
X234155076Y-46431005D01*
X234007242Y-46510024D01*
X233846823Y-46558687D01*
X233721804Y-46571000D01*
X233638196Y-46571000D01*
X233513177Y-46558687D01*
X233352758Y-46510024D01*
X233204924Y-46431005D01*
X233204922Y-46431004D01*
X233075341Y-46324659D01*
X232968996Y-46195078D01*
X232926153Y-46114924D01*
X232889976Y-46047242D01*
X232841313Y-45886823D01*
X232824883Y-45720000D01*
X232841313Y-45553177D01*
X232889976Y-45392758D01*
X232968995Y-45244924D01*
X232968996Y-45244922D01*
X233075341Y-45115341D01*
X233204922Y-45008996D01*
X233220094Y-45000886D01*
X233352758Y-44929976D01*
X233513177Y-44881313D01*
X233638196Y-44869000D01*
X233721804Y-44869000D01*
X233846823Y-44881313D01*
X233846823Y-44881313D01*
G37*
G36*
X233846823Y-39801313D02*
G01*
X234007242Y-39849976D01*
X234139906Y-39920886D01*
X234155078Y-39928996D01*
X234284659Y-40035341D01*
X234391004Y-40164922D01*
X234391005Y-40164924D01*
X234470024Y-40312758D01*
X234518687Y-40473177D01*
X234535117Y-40640000D01*
X234518687Y-40806823D01*
X234470024Y-40967242D01*
X234399114Y-41099906D01*
X234391004Y-41115078D01*
X234284659Y-41244659D01*
X234155078Y-41351004D01*
X234155076Y-41351005D01*
X234007242Y-41430024D01*
X233846823Y-41478687D01*
X233721804Y-41491000D01*
X233638196Y-41491000D01*
X233513177Y-41478687D01*
X233352758Y-41430024D01*
X233204924Y-41351005D01*
X233204922Y-41351004D01*
X233075341Y-41244659D01*
X232968996Y-41115078D01*
X232960886Y-41099906D01*
X232889976Y-40967242D01*
X232841313Y-40806823D01*
X232824883Y-40640000D01*
X232841313Y-40473177D01*
X232889976Y-40312758D01*
X232968995Y-40164924D01*
X232968996Y-40164922D01*
X233075341Y-40035341D01*
X233204922Y-39928996D01*
X233220094Y-39920886D01*
X233352758Y-39849976D01*
X233513177Y-39801313D01*
X233638196Y-39789000D01*
X233721804Y-39789000D01*
X233846823Y-39801313D01*
X233846823Y-39801313D01*
G37*
G36*
X226226823Y-39801313D02*
G01*
X226387242Y-39849976D01*
X226519906Y-39920886D01*
X226535078Y-39928996D01*
X226664659Y-40035341D01*
X226771004Y-40164922D01*
X226771005Y-40164924D01*
X226850024Y-40312758D01*
X226898687Y-40473177D01*
X226915117Y-40640000D01*
X226898687Y-40806823D01*
X226850024Y-40967242D01*
X226779114Y-41099906D01*
X226771004Y-41115078D01*
X226664659Y-41244659D01*
X226535078Y-41351004D01*
X226535076Y-41351005D01*
X226387242Y-41430024D01*
X226226823Y-41478687D01*
X226101804Y-41491000D01*
X226018196Y-41491000D01*
X225893177Y-41478687D01*
X225732758Y-41430024D01*
X225584924Y-41351005D01*
X225584922Y-41351004D01*
X225455341Y-41244659D01*
X225348996Y-41115078D01*
X225340886Y-41099906D01*
X225269976Y-40967242D01*
X225221313Y-40806823D01*
X225204883Y-40640000D01*
X225221313Y-40473177D01*
X225269976Y-40312758D01*
X225348995Y-40164924D01*
X225348996Y-40164922D01*
X225455341Y-40035341D01*
X225584922Y-39928996D01*
X225600094Y-39920886D01*
X225732758Y-39849976D01*
X225893177Y-39801313D01*
X226018196Y-39789000D01*
X226101804Y-39789000D01*
X226226823Y-39801313D01*
X226226823Y-39801313D01*
G37*
G36*
X175426822Y-38131313D02*
G01*
X175587241Y-38179976D01*
X175735077Y-38258995D01*
X175864659Y-38365341D01*
X175971004Y-38494922D01*
X175971005Y-38494924D01*
X176050024Y-38642758D01*
X176098687Y-38803177D01*
X176111000Y-38928196D01*
X176111000Y-39811803D01*
X176098687Y-39936822D01*
X176050024Y-40097242D01*
X176017549Y-40157998D01*
X175971004Y-40245078D01*
X175864659Y-40374659D01*
X175735078Y-40481004D01*
X175735076Y-40481005D01*
X175587242Y-40560024D01*
X175426823Y-40608687D01*
X175260000Y-40625117D01*
X175093178Y-40608687D01*
X174932759Y-40560024D01*
X174784925Y-40481005D01*
X174784923Y-40481004D01*
X174655342Y-40374659D01*
X174548997Y-40245078D01*
X174502452Y-40157998D01*
X174469977Y-40097242D01*
X174421314Y-39936823D01*
X174409000Y-39811803D01*
X174409000Y-38928197D01*
X174421313Y-38803178D01*
X174469976Y-38642759D01*
X174548995Y-38494923D01*
X174655341Y-38365341D01*
X174784922Y-38258996D01*
X174800094Y-38250886D01*
X174932758Y-38179976D01*
X175093177Y-38131313D01*
X175260000Y-38114883D01*
X175426822Y-38131313D01*
X175426822Y-38131313D01*
G37*
G36*
X190666822Y-38131313D02*
G01*
X190827241Y-38179976D01*
X190975077Y-38258995D01*
X191104659Y-38365341D01*
X191211004Y-38494922D01*
X191211005Y-38494924D01*
X191290024Y-38642758D01*
X191338687Y-38803177D01*
X191351000Y-38928196D01*
X191351000Y-39811803D01*
X191338687Y-39936822D01*
X191290024Y-40097242D01*
X191257549Y-40157998D01*
X191211004Y-40245078D01*
X191104659Y-40374659D01*
X190975078Y-40481004D01*
X190975076Y-40481005D01*
X190827242Y-40560024D01*
X190666823Y-40608687D01*
X190500000Y-40625117D01*
X190333178Y-40608687D01*
X190172759Y-40560024D01*
X190024925Y-40481005D01*
X190024923Y-40481004D01*
X189895342Y-40374659D01*
X189788997Y-40245078D01*
X189742452Y-40157998D01*
X189709977Y-40097242D01*
X189661314Y-39936823D01*
X189649000Y-39811803D01*
X189649000Y-38928197D01*
X189661313Y-38803178D01*
X189709976Y-38642759D01*
X189788995Y-38494923D01*
X189895341Y-38365341D01*
X190024922Y-38258996D01*
X190040094Y-38250886D01*
X190172758Y-38179976D01*
X190333177Y-38131313D01*
X190500000Y-38114883D01*
X190666822Y-38131313D01*
X190666822Y-38131313D01*
G37*
G36*
X188126822Y-38131313D02*
G01*
X188287241Y-38179976D01*
X188435077Y-38258995D01*
X188564659Y-38365341D01*
X188671004Y-38494922D01*
X188671005Y-38494924D01*
X188750024Y-38642758D01*
X188798687Y-38803177D01*
X188811000Y-38928196D01*
X188811000Y-39811803D01*
X188798687Y-39936822D01*
X188750024Y-40097242D01*
X188717549Y-40157998D01*
X188671004Y-40245078D01*
X188564659Y-40374659D01*
X188435078Y-40481004D01*
X188435076Y-40481005D01*
X188287242Y-40560024D01*
X188126823Y-40608687D01*
X187960000Y-40625117D01*
X187793178Y-40608687D01*
X187632759Y-40560024D01*
X187484925Y-40481005D01*
X187484923Y-40481004D01*
X187355342Y-40374659D01*
X187248997Y-40245078D01*
X187202452Y-40157998D01*
X187169977Y-40097242D01*
X187121314Y-39936823D01*
X187109000Y-39811803D01*
X187109000Y-38928197D01*
X187121313Y-38803178D01*
X187169976Y-38642759D01*
X187248995Y-38494923D01*
X187355341Y-38365341D01*
X187484922Y-38258996D01*
X187500094Y-38250886D01*
X187632758Y-38179976D01*
X187793177Y-38131313D01*
X187960000Y-38114883D01*
X188126822Y-38131313D01*
X188126822Y-38131313D01*
G37*
G36*
X185586822Y-38131313D02*
G01*
X185747241Y-38179976D01*
X185895077Y-38258995D01*
X186024659Y-38365341D01*
X186131004Y-38494922D01*
X186131005Y-38494924D01*
X186210024Y-38642758D01*
X186258687Y-38803177D01*
X186271000Y-38928196D01*
X186271000Y-39811803D01*
X186258687Y-39936822D01*
X186210024Y-40097242D01*
X186177549Y-40157998D01*
X186131004Y-40245078D01*
X186024659Y-40374659D01*
X185895078Y-40481004D01*
X185895076Y-40481005D01*
X185747242Y-40560024D01*
X185586823Y-40608687D01*
X185420000Y-40625117D01*
X185253178Y-40608687D01*
X185092759Y-40560024D01*
X184944925Y-40481005D01*
X184944923Y-40481004D01*
X184815342Y-40374659D01*
X184708997Y-40245078D01*
X184662452Y-40157998D01*
X184629977Y-40097242D01*
X184581314Y-39936823D01*
X184569000Y-39811803D01*
X184569000Y-38928197D01*
X184581313Y-38803178D01*
X184629976Y-38642759D01*
X184708995Y-38494923D01*
X184815341Y-38365341D01*
X184944922Y-38258996D01*
X184960094Y-38250886D01*
X185092758Y-38179976D01*
X185253177Y-38131313D01*
X185420000Y-38114883D01*
X185586822Y-38131313D01*
X185586822Y-38131313D01*
G37*
G36*
X183046822Y-38131313D02*
G01*
X183207241Y-38179976D01*
X183355077Y-38258995D01*
X183484659Y-38365341D01*
X183591004Y-38494922D01*
X183591005Y-38494924D01*
X183670024Y-38642758D01*
X183718687Y-38803177D01*
X183731000Y-38928196D01*
X183731000Y-39811803D01*
X183718687Y-39936822D01*
X183670024Y-40097242D01*
X183637549Y-40157998D01*
X183591004Y-40245078D01*
X183484659Y-40374659D01*
X183355078Y-40481004D01*
X183355076Y-40481005D01*
X183207242Y-40560024D01*
X183046823Y-40608687D01*
X182880000Y-40625117D01*
X182713178Y-40608687D01*
X182552759Y-40560024D01*
X182404925Y-40481005D01*
X182404923Y-40481004D01*
X182275342Y-40374659D01*
X182168997Y-40245078D01*
X182122452Y-40157998D01*
X182089977Y-40097242D01*
X182041314Y-39936823D01*
X182029000Y-39811803D01*
X182029000Y-38928197D01*
X182041313Y-38803178D01*
X182089976Y-38642759D01*
X182168995Y-38494923D01*
X182275341Y-38365341D01*
X182404922Y-38258996D01*
X182420094Y-38250886D01*
X182552758Y-38179976D01*
X182713177Y-38131313D01*
X182880000Y-38114883D01*
X183046822Y-38131313D01*
X183046822Y-38131313D01*
G37*
G36*
X180506822Y-38131313D02*
G01*
X180667241Y-38179976D01*
X180815077Y-38258995D01*
X180944659Y-38365341D01*
X181051004Y-38494922D01*
X181051005Y-38494924D01*
X181130024Y-38642758D01*
X181178687Y-38803177D01*
X181191000Y-38928196D01*
X181191000Y-39811803D01*
X181178687Y-39936822D01*
X181130024Y-40097242D01*
X181097549Y-40157998D01*
X181051004Y-40245078D01*
X180944659Y-40374659D01*
X180815078Y-40481004D01*
X180815076Y-40481005D01*
X180667242Y-40560024D01*
X180506823Y-40608687D01*
X180340000Y-40625117D01*
X180173178Y-40608687D01*
X180012759Y-40560024D01*
X179864925Y-40481005D01*
X179864923Y-40481004D01*
X179735342Y-40374659D01*
X179628997Y-40245078D01*
X179582452Y-40157998D01*
X179549977Y-40097242D01*
X179501314Y-39936823D01*
X179489000Y-39811803D01*
X179489000Y-38928197D01*
X179501313Y-38803178D01*
X179549976Y-38642759D01*
X179628995Y-38494923D01*
X179735341Y-38365341D01*
X179864922Y-38258996D01*
X179880094Y-38250886D01*
X180012758Y-38179976D01*
X180173177Y-38131313D01*
X180340000Y-38114883D01*
X180506822Y-38131313D01*
X180506822Y-38131313D01*
G37*
G36*
X177966822Y-38131313D02*
G01*
X178127241Y-38179976D01*
X178275077Y-38258995D01*
X178404659Y-38365341D01*
X178511004Y-38494922D01*
X178511005Y-38494924D01*
X178590024Y-38642758D01*
X178638687Y-38803177D01*
X178651000Y-38928196D01*
X178651000Y-39811803D01*
X178638687Y-39936822D01*
X178590024Y-40097242D01*
X178557549Y-40157998D01*
X178511004Y-40245078D01*
X178404659Y-40374659D01*
X178275078Y-40481004D01*
X178275076Y-40481005D01*
X178127242Y-40560024D01*
X177966823Y-40608687D01*
X177800000Y-40625117D01*
X177633178Y-40608687D01*
X177472759Y-40560024D01*
X177324925Y-40481005D01*
X177324923Y-40481004D01*
X177195342Y-40374659D01*
X177088997Y-40245078D01*
X177042452Y-40157998D01*
X177009977Y-40097242D01*
X176961314Y-39936823D01*
X176949000Y-39811803D01*
X176949000Y-38928197D01*
X176961313Y-38803178D01*
X177009976Y-38642759D01*
X177088995Y-38494923D01*
X177195341Y-38365341D01*
X177324922Y-38258996D01*
X177340094Y-38250886D01*
X177472758Y-38179976D01*
X177633177Y-38131313D01*
X177800000Y-38114883D01*
X177966822Y-38131313D01*
X177966822Y-38131313D01*
G37*
G36*
X193206822Y-38131313D02*
G01*
X193367241Y-38179976D01*
X193515077Y-38258995D01*
X193644659Y-38365341D01*
X193751004Y-38494922D01*
X193751005Y-38494924D01*
X193830024Y-38642758D01*
X193878687Y-38803177D01*
X193891000Y-38928196D01*
X193891000Y-39811803D01*
X193878687Y-39936822D01*
X193830024Y-40097242D01*
X193797549Y-40157998D01*
X193751004Y-40245078D01*
X193644659Y-40374659D01*
X193515078Y-40481004D01*
X193515076Y-40481005D01*
X193367242Y-40560024D01*
X193206823Y-40608687D01*
X193040000Y-40625117D01*
X192873178Y-40608687D01*
X192712759Y-40560024D01*
X192564925Y-40481005D01*
X192564923Y-40481004D01*
X192435342Y-40374659D01*
X192328997Y-40245078D01*
X192282452Y-40157998D01*
X192249977Y-40097242D01*
X192201314Y-39936823D01*
X192189000Y-39811803D01*
X192189000Y-38928197D01*
X192201313Y-38803178D01*
X192249976Y-38642759D01*
X192328995Y-38494923D01*
X192435341Y-38365341D01*
X192564922Y-38258996D01*
X192580094Y-38250886D01*
X192712758Y-38179976D01*
X192873177Y-38131313D01*
X193040000Y-38114883D01*
X193206822Y-38131313D01*
X193206822Y-38131313D01*
G37*
G36*
X216159369Y-38514971D02*
G01*
X216321195Y-38582002D01*
X216466829Y-38679311D01*
X216590689Y-38803171D01*
X216687998Y-38948805D01*
X216755029Y-39110631D01*
X216789200Y-39282420D01*
X216789200Y-39457580D01*
X216755029Y-39629369D01*
X216687998Y-39791195D01*
X216590689Y-39936829D01*
X216466829Y-40060689D01*
X216321195Y-40157998D01*
X216159369Y-40225029D01*
X215987580Y-40259200D01*
X215812420Y-40259200D01*
X215640631Y-40225029D01*
X215478805Y-40157998D01*
X215333171Y-40060689D01*
X215209311Y-39936829D01*
X215112002Y-39791195D01*
X215044971Y-39629369D01*
X215010800Y-39457580D01*
X215010800Y-39282420D01*
X215044971Y-39110631D01*
X215112002Y-38948805D01*
X215209311Y-38803171D01*
X215333171Y-38679311D01*
X215478805Y-38582002D01*
X215640631Y-38514971D01*
X215812420Y-38480800D01*
X215987580Y-38480800D01*
X216159369Y-38514971D01*
X216159369Y-38514971D01*
G37*
G36*
X213619369Y-38514971D02*
G01*
X213781195Y-38582002D01*
X213926829Y-38679311D01*
X214050689Y-38803171D01*
X214147998Y-38948805D01*
X214215029Y-39110631D01*
X214249200Y-39282420D01*
X214249200Y-39457580D01*
X214215029Y-39629369D01*
X214147998Y-39791195D01*
X214050689Y-39936829D01*
X213926829Y-40060689D01*
X213781195Y-40157998D01*
X213619369Y-40225029D01*
X213447580Y-40259200D01*
X213272420Y-40259200D01*
X213100631Y-40225029D01*
X212938805Y-40157998D01*
X212793171Y-40060689D01*
X212669311Y-39936829D01*
X212572002Y-39791195D01*
X212504971Y-39629369D01*
X212470800Y-39457580D01*
X212470800Y-39282420D01*
X212504971Y-39110631D01*
X212572002Y-38948805D01*
X212669311Y-38803171D01*
X212793171Y-38679311D01*
X212938805Y-38582002D01*
X213100631Y-38514971D01*
X213272420Y-38480800D01*
X213447580Y-38480800D01*
X213619369Y-38514971D01*
X213619369Y-38514971D01*
G37*
G36*
X211079369Y-38514971D02*
G01*
X211241195Y-38582002D01*
X211386829Y-38679311D01*
X211510689Y-38803171D01*
X211607998Y-38948805D01*
X211675029Y-39110631D01*
X211709200Y-39282420D01*
X211709200Y-39457580D01*
X211675029Y-39629369D01*
X211607998Y-39791195D01*
X211510689Y-39936829D01*
X211386829Y-40060689D01*
X211241195Y-40157998D01*
X211079369Y-40225029D01*
X210907580Y-40259200D01*
X210732420Y-40259200D01*
X210560631Y-40225029D01*
X210398805Y-40157998D01*
X210253171Y-40060689D01*
X210129311Y-39936829D01*
X210032002Y-39791195D01*
X209964971Y-39629369D01*
X209930800Y-39457580D01*
X209930800Y-39282420D01*
X209964971Y-39110631D01*
X210032002Y-38948805D01*
X210129311Y-38803171D01*
X210253171Y-38679311D01*
X210398805Y-38582002D01*
X210560631Y-38514971D01*
X210732420Y-38480800D01*
X210907580Y-38480800D01*
X211079369Y-38514971D01*
X211079369Y-38514971D01*
G37*
G36*
X208539369Y-38514971D02*
G01*
X208701195Y-38582002D01*
X208846829Y-38679311D01*
X208970689Y-38803171D01*
X209067998Y-38948805D01*
X209135029Y-39110631D01*
X209169200Y-39282420D01*
X209169200Y-39457580D01*
X209135029Y-39629369D01*
X209067998Y-39791195D01*
X208970689Y-39936829D01*
X208846829Y-40060689D01*
X208701195Y-40157998D01*
X208539369Y-40225029D01*
X208367580Y-40259200D01*
X208192420Y-40259200D01*
X208020631Y-40225029D01*
X207858805Y-40157998D01*
X207713171Y-40060689D01*
X207589311Y-39936829D01*
X207492002Y-39791195D01*
X207424971Y-39629369D01*
X207390800Y-39457580D01*
X207390800Y-39282420D01*
X207424971Y-39110631D01*
X207492002Y-38948805D01*
X207589311Y-38803171D01*
X207713171Y-38679311D01*
X207858805Y-38582002D01*
X208020631Y-38514971D01*
X208192420Y-38480800D01*
X208367580Y-38480800D01*
X208539369Y-38514971D01*
X208539369Y-38514971D01*
G37*
G36*
X205999369Y-38514971D02*
G01*
X206161195Y-38582002D01*
X206306829Y-38679311D01*
X206430689Y-38803171D01*
X206527998Y-38948805D01*
X206595029Y-39110631D01*
X206629200Y-39282420D01*
X206629200Y-39457580D01*
X206595029Y-39629369D01*
X206527998Y-39791195D01*
X206430689Y-39936829D01*
X206306829Y-40060689D01*
X206161195Y-40157998D01*
X205999369Y-40225029D01*
X205827580Y-40259200D01*
X205652420Y-40259200D01*
X205480631Y-40225029D01*
X205318805Y-40157998D01*
X205173171Y-40060689D01*
X205049311Y-39936829D01*
X204952002Y-39791195D01*
X204884971Y-39629369D01*
X204850800Y-39457580D01*
X204850800Y-39282420D01*
X204884971Y-39110631D01*
X204952002Y-38948805D01*
X205049311Y-38803171D01*
X205173171Y-38679311D01*
X205318805Y-38582002D01*
X205480631Y-38514971D01*
X205652420Y-38480800D01*
X205827580Y-38480800D01*
X205999369Y-38514971D01*
X205999369Y-38514971D01*
G37*
G36*
X203459369Y-38514971D02*
G01*
X203621195Y-38582002D01*
X203766829Y-38679311D01*
X203890689Y-38803171D01*
X203987998Y-38948805D01*
X204055029Y-39110631D01*
X204089200Y-39282420D01*
X204089200Y-39457580D01*
X204055029Y-39629369D01*
X203987998Y-39791195D01*
X203890689Y-39936829D01*
X203766829Y-40060689D01*
X203621195Y-40157998D01*
X203459369Y-40225029D01*
X203287580Y-40259200D01*
X203112420Y-40259200D01*
X202940631Y-40225029D01*
X202778805Y-40157998D01*
X202633171Y-40060689D01*
X202509311Y-39936829D01*
X202412002Y-39791195D01*
X202344971Y-39629369D01*
X202310800Y-39457580D01*
X202310800Y-39282420D01*
X202344971Y-39110631D01*
X202412002Y-38948805D01*
X202509311Y-38803171D01*
X202633171Y-38679311D01*
X202778805Y-38582002D01*
X202940631Y-38514971D01*
X203112420Y-38480800D01*
X203287580Y-38480800D01*
X203459369Y-38514971D01*
X203459369Y-38514971D01*
G37*
G36*
X200919369Y-38514971D02*
G01*
X201081195Y-38582002D01*
X201226829Y-38679311D01*
X201350689Y-38803171D01*
X201447998Y-38948805D01*
X201515029Y-39110631D01*
X201549200Y-39282420D01*
X201549200Y-39457580D01*
X201515029Y-39629369D01*
X201447998Y-39791195D01*
X201350689Y-39936829D01*
X201226829Y-40060689D01*
X201081195Y-40157998D01*
X200919369Y-40225029D01*
X200747580Y-40259200D01*
X200572420Y-40259200D01*
X200400631Y-40225029D01*
X200238805Y-40157998D01*
X200093171Y-40060689D01*
X199969311Y-39936829D01*
X199872002Y-39791195D01*
X199804971Y-39629369D01*
X199770800Y-39457580D01*
X199770800Y-39282420D01*
X199804971Y-39110631D01*
X199872002Y-38948805D01*
X199969311Y-38803171D01*
X200093171Y-38679311D01*
X200238805Y-38582002D01*
X200400631Y-38514971D01*
X200572420Y-38480800D01*
X200747580Y-38480800D01*
X200919369Y-38514971D01*
X200919369Y-38514971D01*
G37*
G36*
X219329200Y-40259200D02*
G01*
X217550800Y-40259200D01*
X217550800Y-38480800D01*
X219329200Y-38480800D01*
X219329200Y-40259200D01*
X219329200Y-40259200D01*
G37*
G36*
X226911000Y-36411000D02*
G01*
X225209000Y-36411000D01*
X225209000Y-34709000D01*
X226911000Y-34709000D01*
X226911000Y-36411000D01*
X226911000Y-36411000D01*
G37*
G36*
X233846823Y-34721313D02*
G01*
X234007242Y-34769976D01*
X234139906Y-34840886D01*
X234155078Y-34848996D01*
X234284659Y-34955341D01*
X234391004Y-35084922D01*
X234391005Y-35084924D01*
X234470024Y-35232758D01*
X234518687Y-35393177D01*
X234535117Y-35560000D01*
X234518687Y-35726823D01*
X234470024Y-35887242D01*
X234399114Y-36019906D01*
X234391004Y-36035078D01*
X234284659Y-36164659D01*
X234155078Y-36271004D01*
X234155076Y-36271005D01*
X234007242Y-36350024D01*
X233846823Y-36398687D01*
X233721804Y-36411000D01*
X233638196Y-36411000D01*
X233513177Y-36398687D01*
X233352758Y-36350024D01*
X233204924Y-36271005D01*
X233204922Y-36271004D01*
X233075341Y-36164659D01*
X232968996Y-36035078D01*
X232960886Y-36019906D01*
X232889976Y-35887242D01*
X232841313Y-35726823D01*
X232824883Y-35560000D01*
X232841313Y-35393177D01*
X232889976Y-35232758D01*
X232968995Y-35084924D01*
X232968996Y-35084922D01*
X233075341Y-34955341D01*
X233204922Y-34848996D01*
X233220094Y-34840886D01*
X233352758Y-34769976D01*
X233513177Y-34721313D01*
X233638196Y-34709000D01*
X233721804Y-34709000D01*
X233846823Y-34721313D01*
X233846823Y-34721313D01*
G37*
M02*
