M48
; DRILL file {KiCad (5.1.5)-3} date 04/02/20 00:33:31
; FORMAT={-:-/ absolute / inch / decimal}
; #@! TF.CreationDate,2020-04-02T00:33:31+02:00
; #@! TF.GenerationSoftware,Kicad,Pcbnew,(5.1.5)-3
; #@! TF.FileFunction,Plated,1,2,PTH
FMAT,2
INCH
T1C0.0394
T2C0.0400
T3C0.0598
%
G90
G05
T1
X6.775Y-4.45
X6.8734Y-4.45
T2
X6.15Y-2.15
X6.15Y-2.25
X6.15Y-2.35
X6.15Y-2.45
X6.15Y-2.55
X6.15Y-2.65
X6.25Y-2.15
X6.25Y-2.25
X6.25Y-2.35
X6.25Y-2.45
X6.25Y-2.55
X6.25Y-2.65
X6.15Y-3.15
X6.15Y-3.25
X6.15Y-3.35
X6.15Y-3.45
X6.15Y-3.55
X6.15Y-3.65
X6.25Y-3.15
X6.25Y-3.25
X6.25Y-3.35
X6.25Y-3.45
X6.25Y-3.55
X6.25Y-3.65
T3
X7.525Y-3.9
X7.525Y-4.1
X7.525Y-4.3
X7.525Y-4.5
X7.525Y-1.35
X7.525Y-1.55
X7.525Y-1.75
X7.525Y-1.95
X7.525Y-2.2
X7.525Y-2.4
X7.525Y-2.6
X7.525Y-2.8
X7.525Y-3.05
X7.525Y-3.25
X7.525Y-3.45
X7.525Y-3.65
T0
M30
