M48
; DRILL file {KiCad (5.1.0)-1} date 01/23/20 16:35:33
; FORMAT={-:-/ absolute / inch / decimal}
; #@! TF.CreationDate,2020-01-23T16:35:33+01:00
; #@! TF.GenerationSoftware,Kicad,Pcbnew,(5.1.0)-1
; #@! TF.FileFunction,Plated,1,2,PTH
FMAT,2
INCH
T1C0.0157
T2C0.0315
T3C0.0394
T4C0.0440
%
G90
G05
T1
X6.45Y-3.3
X6.45Y-3.3
X6.5Y-2.35
X6.5Y-2.35
X6.5Y-2.35
X6.65Y-1.85
X6.65Y-2.1
X6.7Y-2.15
X6.7Y-2.15
X6.7Y-2.75
X6.7Y-3.5
X6.7Y-3.6
X6.7Y-3.65
X6.75Y-1.45
X6.75Y-2.8
X6.8Y-1.75
X6.8Y-3.55
X6.85Y-2.0
X6.9Y-1.95
X7.1Y-1.75
X7.15Y-3.3
X7.2Y-3.65
X7.6Y-2.8
X7.65Y-2.8
X7.7Y-2.9
X7.75Y-2.7
X7.8Y-2.05
X7.8Y-3.35
X7.8Y-4.05
X8.55Y-3.05
X8.55Y-3.05
X8.65Y-2.05
X8.65Y-2.8
X8.7Y-3.7
X8.8Y-1.5
X8.8Y-1.7
X8.8Y-2.5
X8.8Y-3.3
X8.8Y-4.1
X8.85Y-3.1
X9.0Y-2.95
X9.05Y-2.9
X9.3Y-2.1
X9.3Y-3.65
T2
X8.9Y-2.6
X8.9Y-2.8
X9.2Y-2.6
X9.2Y-2.8
X8.9Y-2.2
X8.9Y-2.4
X9.2Y-2.2
X9.2Y-2.4
X8.9Y-1.8
X8.9Y-2.0
X9.2Y-1.8
X9.2Y-2.0
X6.9Y-3.15
X6.9Y-3.45
X7.0Y-3.15
X7.0Y-3.45
X7.1Y-3.15
X7.1Y-3.45
X7.2Y-3.15
X7.2Y-3.45
X7.3Y-3.15
X7.3Y-3.45
X7.4Y-3.15
X7.4Y-3.45
X7.5Y-3.15
X7.5Y-3.45
X7.6Y-3.15
X7.6Y-3.45
X6.9Y-3.95
X6.9Y-4.25
X7.0Y-3.95
X7.0Y-4.25
X7.1Y-3.95
X7.1Y-4.25
X7.2Y-3.95
X7.2Y-4.25
X7.3Y-3.95
X7.3Y-4.25
X7.4Y-3.95
X7.4Y-4.25
X7.5Y-3.95
X7.5Y-4.25
X7.6Y-3.95
X7.6Y-4.25
X8.9Y-3.8
X8.9Y-4.0
X9.2Y-3.8
X9.2Y-4.0
X6.9Y-1.55
X6.9Y-1.85
X7.0Y-1.55
X7.0Y-1.85
X7.1Y-1.55
X7.1Y-1.85
X7.2Y-1.55
X7.2Y-1.85
X7.3Y-1.55
X7.3Y-1.85
X7.4Y-1.55
X7.4Y-1.85
X7.5Y-1.55
X7.5Y-1.85
X7.6Y-1.55
X7.6Y-1.85
X8.9Y-4.2
X8.9Y-4.4
X9.2Y-4.2
X9.2Y-4.4
X6.9Y-2.35
X6.9Y-2.65
X7.0Y-2.35
X7.0Y-2.65
X7.1Y-2.35
X7.1Y-2.65
X7.2Y-2.35
X7.2Y-2.65
X7.3Y-2.35
X7.3Y-2.65
X7.4Y-2.35
X7.4Y-2.65
X7.5Y-2.35
X7.5Y-2.65
X7.6Y-2.35
X7.6Y-2.65
X8.9Y-3.4
X8.9Y-3.6
X9.2Y-3.4
X9.2Y-3.6
X8.9Y-3.0
X8.9Y-3.2
X9.2Y-3.0
X9.2Y-3.2
X8.9Y-1.4
X8.9Y-1.6
X9.2Y-1.4
X9.2Y-1.6
T3
X6.35Y-1.85
X6.35Y-1.95
X9.7Y-2.15
X9.7Y-2.25
X9.7Y-2.35
X9.7Y-2.45
X9.7Y-2.55
X9.7Y-2.65
X9.7Y-2.75
X9.7Y-2.85
X9.7Y-2.95
X9.7Y-3.05
X9.7Y-3.15
X9.7Y-3.25
X9.7Y-3.35
X9.7Y-3.45
X9.7Y-3.55
X9.7Y-3.65
X6.353Y-2.55
X6.353Y-2.65
X6.353Y-2.75
X6.353Y-2.85
X6.353Y-2.95
X6.353Y-3.05
X6.353Y-3.15
X6.353Y-3.25
T4
X7.9Y-3.95
X7.9Y-4.25
X8.0Y-3.95
X8.0Y-4.25
X8.1Y-3.95
X8.1Y-4.25
X8.2Y-3.95
X8.2Y-4.25
X8.3Y-3.95
X8.3Y-4.25
X8.4Y-3.95
X8.4Y-4.25
X8.5Y-3.95
X8.5Y-4.25
X8.6Y-3.95
X8.6Y-4.25
X7.9Y-1.55
X7.9Y-1.85
X8.0Y-1.55
X8.0Y-1.85
X8.1Y-1.55
X8.1Y-1.85
X8.2Y-1.55
X8.2Y-1.85
X8.3Y-1.55
X8.3Y-1.85
X8.4Y-1.55
X8.4Y-1.85
X8.5Y-1.55
X8.5Y-1.85
X8.6Y-1.55
X8.6Y-1.85
X7.9Y-2.35
X7.9Y-2.65
X8.0Y-2.35
X8.0Y-2.65
X8.1Y-2.35
X8.1Y-2.65
X8.2Y-2.35
X8.2Y-2.65
X8.3Y-2.35
X8.3Y-2.65
X8.4Y-2.35
X8.4Y-2.65
X8.5Y-2.35
X8.5Y-2.65
X8.6Y-2.35
X8.6Y-2.65
X7.9Y-3.15
X7.9Y-3.45
X8.0Y-3.15
X8.0Y-3.45
X8.1Y-3.15
X8.1Y-3.45
X8.2Y-3.15
X8.2Y-3.45
X8.3Y-3.15
X8.3Y-3.45
X8.4Y-3.15
X8.4Y-3.45
X8.5Y-3.15
X8.5Y-3.45
X8.6Y-3.15
X8.6Y-3.45
T0
M30
