G04 #@! TF.GenerationSoftware,KiCad,Pcbnew,(5.1.0)-1*
G04 #@! TF.CreationDate,2020-01-23T16:35:24+01:00*
G04 #@! TF.ProjectId,splitflap,73706c69-7466-46c6-9170-2e6b69636164,rev?*
G04 #@! TF.SameCoordinates,Original*
G04 #@! TF.FileFunction,Legend,Top*
G04 #@! TF.FilePolarity,Positive*
%FSLAX46Y46*%
G04 Gerber Fmt 4.6, Leading zero omitted, Abs format (unit mm)*
G04 Created by KiCad (PCBNEW (5.1.0)-1) date 2020-01-23 16:35:24*
%MOMM*%
%LPD*%
G04 APERTURE LIST*
%ADD10C,0.150000*%
%ADD11C,0.120000*%
%ADD12C,0.100000*%
%ADD13C,0.152400*%
%ADD14C,0.050000*%
G04 APERTURE END LIST*
D10*
X199152380Y-135072379D02*
X198580952Y-135072379D01*
X198866666Y-135072379D02*
X198866666Y-134072379D01*
X198771428Y-134215237D01*
X198676190Y-134310475D01*
X198580952Y-134358094D01*
X200104761Y-135072379D02*
X199533333Y-135072379D01*
X199819047Y-135072379D02*
X199819047Y-134072379D01*
X199723809Y-134215237D01*
X199628571Y-134310475D01*
X199533333Y-134358094D01*
X201057142Y-135072379D02*
X200485714Y-135072379D01*
X200771428Y-135072379D02*
X200771428Y-134072379D01*
X200676190Y-134215237D01*
X200580952Y-134310475D01*
X200485714Y-134358094D01*
X201485714Y-134977141D02*
X201533333Y-135024760D01*
X201485714Y-135072379D01*
X201438095Y-135024760D01*
X201485714Y-134977141D01*
X201485714Y-135072379D01*
X201866666Y-134072379D02*
X202533333Y-134072379D01*
X202104761Y-135072379D01*
X203342857Y-134072379D02*
X203152380Y-134072379D01*
X203057142Y-134119999D01*
X203009523Y-134167618D01*
X202914285Y-134310475D01*
X202866666Y-134500951D01*
X202866666Y-134881903D01*
X202914285Y-134977141D01*
X202961904Y-135024760D01*
X203057142Y-135072379D01*
X203247619Y-135072379D01*
X203342857Y-135024760D01*
X203390476Y-134977141D01*
X203438095Y-134881903D01*
X203438095Y-134643808D01*
X203390476Y-134548570D01*
X203342857Y-134500951D01*
X203247619Y-134453332D01*
X203057142Y-134453332D01*
X202961904Y-134500951D01*
X202914285Y-134548570D01*
X202866666Y-134643808D01*
X204057142Y-134072379D02*
X204152380Y-134072379D01*
X204247619Y-134119999D01*
X204295238Y-134167618D01*
X204342857Y-134262856D01*
X204390476Y-134453332D01*
X204390476Y-134691427D01*
X204342857Y-134881903D01*
X204295238Y-134977141D01*
X204247619Y-135024760D01*
X204152380Y-135072379D01*
X204057142Y-135072379D01*
X203961904Y-135024760D01*
X203914285Y-134977141D01*
X203866666Y-134881903D01*
X203819047Y-134691427D01*
X203819047Y-134453332D01*
X203866666Y-134262856D01*
X203914285Y-134167618D01*
X203961904Y-134119999D01*
X204057142Y-134072379D01*
X205580952Y-135072379D02*
X205580952Y-134405713D01*
X205580952Y-134500951D02*
X205628571Y-134453332D01*
X205723809Y-134405713D01*
X205866666Y-134405713D01*
X205961904Y-134453332D01*
X206009523Y-134548570D01*
X206009523Y-135072379D01*
X206009523Y-134548570D02*
X206057142Y-134453332D01*
X206152380Y-134405713D01*
X206295238Y-134405713D01*
X206390476Y-134453332D01*
X206438095Y-134548570D01*
X206438095Y-135072379D01*
X206914285Y-135072379D02*
X206914285Y-134405713D01*
X206914285Y-134500951D02*
X206961904Y-134453332D01*
X207057142Y-134405713D01*
X207200000Y-134405713D01*
X207295238Y-134453332D01*
X207342857Y-134548570D01*
X207342857Y-135072379D01*
X207342857Y-134548570D02*
X207390476Y-134453332D01*
X207485714Y-134405713D01*
X207628571Y-134405713D01*
X207723809Y-134453332D01*
X207771428Y-134548570D01*
X207771428Y-135072379D01*
D11*
X147320000Y-133349999D02*
X259080000Y-133349999D01*
X147320000Y-111760000D02*
X147320000Y-133936420D01*
X259080000Y-111760000D02*
X259080000Y-133936420D01*
X259080000Y-133349999D02*
X257953496Y-133936420D01*
X259080000Y-133349999D02*
X257953496Y-132763578D01*
X147320000Y-133349999D02*
X148446504Y-133936420D01*
X147320000Y-133349999D02*
X148446504Y-132763578D01*
D10*
X277677619Y-68977380D02*
X277677619Y-69167857D01*
X277725238Y-69263095D01*
X277772857Y-69310714D01*
X277915714Y-69405952D01*
X278106190Y-69453571D01*
X278487142Y-69453571D01*
X278582380Y-69405952D01*
X278630000Y-69358333D01*
X278677619Y-69263095D01*
X278677619Y-69072619D01*
X278630000Y-68977380D01*
X278582380Y-68929761D01*
X278487142Y-68882142D01*
X278249047Y-68882142D01*
X278153809Y-68929761D01*
X278106190Y-68977380D01*
X278058571Y-69072619D01*
X278058571Y-69263095D01*
X278106190Y-69358333D01*
X278153809Y-69405952D01*
X278249047Y-69453571D01*
X278677619Y-70358333D02*
X278677619Y-69882142D01*
X278201428Y-69834523D01*
X278249047Y-69882142D01*
X278296666Y-69977380D01*
X278296666Y-70215476D01*
X278249047Y-70310714D01*
X278201428Y-70358333D01*
X278106190Y-70405952D01*
X277868095Y-70405952D01*
X277772857Y-70358333D01*
X277725238Y-70310714D01*
X277677619Y-70215476D01*
X277677619Y-69977380D01*
X277725238Y-69882142D01*
X277772857Y-69834523D01*
X277772857Y-70834523D02*
X277725238Y-70882142D01*
X277677619Y-70834523D01*
X277725238Y-70786904D01*
X277772857Y-70834523D01*
X277677619Y-70834523D01*
X278582380Y-71263095D02*
X278630000Y-71310714D01*
X278677619Y-71405952D01*
X278677619Y-71644047D01*
X278630000Y-71739285D01*
X278582380Y-71786904D01*
X278487142Y-71834523D01*
X278391904Y-71834523D01*
X278249047Y-71786904D01*
X277677619Y-71215476D01*
X277677619Y-71834523D01*
X278677619Y-72739285D02*
X278677619Y-72263095D01*
X278201428Y-72215476D01*
X278249047Y-72263095D01*
X278296666Y-72358333D01*
X278296666Y-72596428D01*
X278249047Y-72691666D01*
X278201428Y-72739285D01*
X278106190Y-72786904D01*
X277868095Y-72786904D01*
X277772857Y-72739285D01*
X277725238Y-72691666D01*
X277677619Y-72596428D01*
X277677619Y-72358333D01*
X277725238Y-72263095D01*
X277772857Y-72215476D01*
X278677619Y-73405952D02*
X278677619Y-73501190D01*
X278630000Y-73596428D01*
X278582380Y-73644047D01*
X278487142Y-73691666D01*
X278296666Y-73739285D01*
X278058571Y-73739285D01*
X277868095Y-73691666D01*
X277772857Y-73644047D01*
X277725238Y-73596428D01*
X277677619Y-73501190D01*
X277677619Y-73405952D01*
X277725238Y-73310714D01*
X277772857Y-73263095D01*
X277868095Y-73215476D01*
X278058571Y-73167857D01*
X278296666Y-73167857D01*
X278487142Y-73215476D01*
X278582380Y-73263095D01*
X278630000Y-73310714D01*
X278677619Y-73405952D01*
X277677619Y-74929761D02*
X278344285Y-74929761D01*
X278249047Y-74929761D02*
X278296666Y-74977380D01*
X278344285Y-75072619D01*
X278344285Y-75215476D01*
X278296666Y-75310714D01*
X278201428Y-75358333D01*
X277677619Y-75358333D01*
X278201428Y-75358333D02*
X278296666Y-75405952D01*
X278344285Y-75501190D01*
X278344285Y-75644047D01*
X278296666Y-75739285D01*
X278201428Y-75786904D01*
X277677619Y-75786904D01*
X277677619Y-76263095D02*
X278344285Y-76263095D01*
X278249047Y-76263095D02*
X278296666Y-76310714D01*
X278344285Y-76405952D01*
X278344285Y-76548809D01*
X278296666Y-76644047D01*
X278201428Y-76691666D01*
X277677619Y-76691666D01*
X278201428Y-76691666D02*
X278296666Y-76739285D01*
X278344285Y-76834523D01*
X278344285Y-76977380D01*
X278296666Y-77072619D01*
X278201428Y-77120238D01*
X277677619Y-77120238D01*
D11*
X276860000Y-25400000D02*
X276860000Y-120650000D01*
X254000000Y-25400000D02*
X277446421Y-25400000D01*
X254000000Y-120650000D02*
X277446421Y-120650000D01*
X276860000Y-120650000D02*
X276273579Y-119523496D01*
X276860000Y-120650000D02*
X277446421Y-119523496D01*
X276860000Y-25400000D02*
X276273579Y-26526504D01*
X276860000Y-25400000D02*
X277446421Y-26526504D01*
X230870000Y-104780000D02*
G75*
G02X228870000Y-104780000I-1000000J0D01*
G01*
X228870000Y-104780000D02*
X227100000Y-104780000D01*
X227100000Y-104780000D02*
X227100000Y-113380000D01*
X227100000Y-113380000D02*
X232640000Y-113380000D01*
X232640000Y-113380000D02*
X232640000Y-104780000D01*
X232640000Y-104780000D02*
X230870000Y-104780000D01*
X173930000Y-81570000D02*
X173930000Y-82820000D01*
X194370000Y-81570000D02*
X173930000Y-81570000D01*
X194370000Y-86070000D02*
X194370000Y-81570000D01*
X173930000Y-86070000D02*
X194370000Y-86070000D01*
X173930000Y-84820000D02*
X173930000Y-86070000D01*
X173930000Y-82820000D02*
G75*
G02X173930000Y-84820000I0J-1000000D01*
G01*
X173930000Y-61250000D02*
X173930000Y-62500000D01*
X194370000Y-61250000D02*
X173930000Y-61250000D01*
X194370000Y-65750000D02*
X194370000Y-61250000D01*
X173930000Y-65750000D02*
X194370000Y-65750000D01*
X173930000Y-64500000D02*
X173930000Y-65750000D01*
X173930000Y-62500000D02*
G75*
G02X173930000Y-64500000I0J-1000000D01*
G01*
X246380000Y-53280000D02*
X247710000Y-53280000D01*
X247710000Y-53280000D02*
X247710000Y-54610000D01*
X247710000Y-55880000D02*
X247710000Y-94040000D01*
X245050000Y-94040000D02*
X247710000Y-94040000D01*
X245050000Y-55880000D02*
X245050000Y-94040000D01*
X245050000Y-55880000D02*
X247710000Y-55880000D01*
X161365001Y-63440000D02*
X162695001Y-63440000D01*
X162695001Y-63440000D02*
X162695001Y-64770000D01*
X162695001Y-66040000D02*
X162695001Y-83880000D01*
X160035001Y-83880000D02*
X162695001Y-83880000D01*
X160035001Y-66040000D02*
X160035001Y-83880000D01*
X160035001Y-66040000D02*
X162695001Y-66040000D01*
X161290000Y-45660000D02*
X162620000Y-45660000D01*
X162620000Y-45660000D02*
X162620000Y-46990000D01*
X162620000Y-48260000D02*
X162620000Y-50860000D01*
X159960000Y-50860000D02*
X162620000Y-50860000D01*
X159960000Y-48260000D02*
X159960000Y-50860000D01*
X159960000Y-48260000D02*
X162620000Y-48260000D01*
X173930000Y-101890000D02*
X173930000Y-103140000D01*
X194370000Y-101890000D02*
X173930000Y-101890000D01*
X194370000Y-106390000D02*
X194370000Y-101890000D01*
X173930000Y-106390000D02*
X194370000Y-106390000D01*
X173930000Y-105140000D02*
X173930000Y-106390000D01*
X173930000Y-103140000D02*
G75*
G02X173930000Y-105140000I0J-1000000D01*
G01*
X173930000Y-40930000D02*
X173930000Y-42180000D01*
X194370000Y-40930000D02*
X173930000Y-40930000D01*
X194370000Y-45430000D02*
X194370000Y-40930000D01*
X173930000Y-45430000D02*
X194370000Y-45430000D01*
X173930000Y-44180000D02*
X173930000Y-45430000D01*
X173930000Y-42180000D02*
G75*
G02X173930000Y-44180000I0J-1000000D01*
G01*
X230870000Y-94620000D02*
G75*
G02X228870000Y-94620000I-1000000J0D01*
G01*
X228870000Y-94620000D02*
X227100000Y-94620000D01*
X227100000Y-94620000D02*
X227100000Y-103220000D01*
X227100000Y-103220000D02*
X232640000Y-103220000D01*
X232640000Y-103220000D02*
X232640000Y-94620000D01*
X232640000Y-94620000D02*
X230870000Y-94620000D01*
X230870000Y-84460000D02*
G75*
G02X228870000Y-84460000I-1000000J0D01*
G01*
X228870000Y-84460000D02*
X227100000Y-84460000D01*
X227100000Y-84460000D02*
X227100000Y-93060000D01*
X227100000Y-93060000D02*
X232640000Y-93060000D01*
X232640000Y-93060000D02*
X232640000Y-84460000D01*
X232640000Y-84460000D02*
X230870000Y-84460000D01*
X230870000Y-74300000D02*
G75*
G02X228870000Y-74300000I-1000000J0D01*
G01*
X228870000Y-74300000D02*
X227100000Y-74300000D01*
X227100000Y-74300000D02*
X227100000Y-82900000D01*
X227100000Y-82900000D02*
X232640000Y-82900000D01*
X232640000Y-82900000D02*
X232640000Y-74300000D01*
X232640000Y-74300000D02*
X230870000Y-74300000D01*
X230870000Y-64140000D02*
G75*
G02X228870000Y-64140000I-1000000J0D01*
G01*
X228870000Y-64140000D02*
X227100000Y-64140000D01*
X227100000Y-64140000D02*
X227100000Y-72740000D01*
X227100000Y-72740000D02*
X232640000Y-72740000D01*
X232640000Y-72740000D02*
X232640000Y-64140000D01*
X232640000Y-64140000D02*
X230870000Y-64140000D01*
X230870000Y-53980000D02*
G75*
G02X228870000Y-53980000I-1000000J0D01*
G01*
X228870000Y-53980000D02*
X227100000Y-53980000D01*
X227100000Y-53980000D02*
X227100000Y-62580000D01*
X227100000Y-62580000D02*
X232640000Y-62580000D01*
X232640000Y-62580000D02*
X232640000Y-53980000D01*
X232640000Y-53980000D02*
X230870000Y-53980000D01*
X230870000Y-43820000D02*
G75*
G02X228870000Y-43820000I-1000000J0D01*
G01*
X228870000Y-43820000D02*
X227100000Y-43820000D01*
X227100000Y-43820000D02*
X227100000Y-52420000D01*
X227100000Y-52420000D02*
X232640000Y-52420000D01*
X232640000Y-52420000D02*
X232640000Y-43820000D01*
X232640000Y-43820000D02*
X230870000Y-43820000D01*
X230870000Y-33660000D02*
G75*
G02X228870000Y-33660000I-1000000J0D01*
G01*
X228870000Y-33660000D02*
X227100000Y-33660000D01*
X227100000Y-33660000D02*
X227100000Y-42260000D01*
X227100000Y-42260000D02*
X232640000Y-42260000D01*
X232640000Y-42260000D02*
X232640000Y-33660000D01*
X232640000Y-33660000D02*
X230870000Y-33660000D01*
D12*
X219405200Y-104444800D02*
G75*
G02X219405200Y-103835200I0J304800D01*
G01*
D13*
X219405200Y-103835200D02*
X219405200Y-101650800D01*
X219405200Y-104444800D02*
X219405200Y-103835200D01*
X219405200Y-107061000D02*
X219405200Y-104444800D01*
X199694800Y-101219000D02*
X199694800Y-107061000D01*
D12*
X219405200Y-63804800D02*
G75*
G02X219405200Y-63195200I0J304800D01*
G01*
D13*
X219405200Y-63195200D02*
X219405200Y-61010800D01*
X219405200Y-63804800D02*
X219405200Y-63195200D01*
X219405200Y-66421000D02*
X219405200Y-63804800D01*
X199694800Y-60579000D02*
X199694800Y-66421000D01*
D12*
X219405200Y-84124800D02*
G75*
G02X219405200Y-83515200I0J304800D01*
G01*
D13*
X219405200Y-83515200D02*
X219405200Y-81330800D01*
X219405200Y-84124800D02*
X219405200Y-83515200D01*
X219405200Y-86741000D02*
X219405200Y-84124800D01*
X199694800Y-80899000D02*
X199694800Y-86741000D01*
D12*
X219405200Y-43484800D02*
G75*
G02X219405200Y-42875200I0J304800D01*
G01*
D13*
X219405200Y-42875200D02*
X219405200Y-40690800D01*
X219405200Y-43484800D02*
X219405200Y-42875200D01*
X219405200Y-46101000D02*
X219405200Y-43484800D01*
X199694800Y-40259000D02*
X199694800Y-46101000D01*
D10*
X229121904Y-104432380D02*
X229121904Y-103432380D01*
X229360000Y-103432380D01*
X229502857Y-103480000D01*
X229598095Y-103575238D01*
X229645714Y-103670476D01*
X229693333Y-103860952D01*
X229693333Y-104003809D01*
X229645714Y-104194285D01*
X229598095Y-104289523D01*
X229502857Y-104384761D01*
X229360000Y-104432380D01*
X229121904Y-104432380D01*
X230264761Y-103860952D02*
X230169523Y-103813333D01*
X230121904Y-103765714D01*
X230074285Y-103670476D01*
X230074285Y-103622857D01*
X230121904Y-103527619D01*
X230169523Y-103480000D01*
X230264761Y-103432380D01*
X230455238Y-103432380D01*
X230550476Y-103480000D01*
X230598095Y-103527619D01*
X230645714Y-103622857D01*
X230645714Y-103670476D01*
X230598095Y-103765714D01*
X230550476Y-103813333D01*
X230455238Y-103860952D01*
X230264761Y-103860952D01*
X230169523Y-103908571D01*
X230121904Y-103956190D01*
X230074285Y-104051428D01*
X230074285Y-104241904D01*
X230121904Y-104337142D01*
X230169523Y-104384761D01*
X230264761Y-104432380D01*
X230455238Y-104432380D01*
X230550476Y-104384761D01*
X230598095Y-104337142D01*
X230645714Y-104241904D01*
X230645714Y-104051428D01*
X230598095Y-103956190D01*
X230550476Y-103908571D01*
X230455238Y-103860952D01*
X172382380Y-84581904D02*
X173191904Y-84581904D01*
X173287142Y-84534285D01*
X173334761Y-84486666D01*
X173382380Y-84391428D01*
X173382380Y-84200952D01*
X173334761Y-84105714D01*
X173287142Y-84058095D01*
X173191904Y-84010476D01*
X172382380Y-84010476D01*
X172477619Y-83581904D02*
X172430000Y-83534285D01*
X172382380Y-83439047D01*
X172382380Y-83200952D01*
X172430000Y-83105714D01*
X172477619Y-83058095D01*
X172572857Y-83010476D01*
X172668095Y-83010476D01*
X172810952Y-83058095D01*
X173382380Y-83629523D01*
X173382380Y-83010476D01*
X172382380Y-64261904D02*
X173191904Y-64261904D01*
X173287142Y-64214285D01*
X173334761Y-64166666D01*
X173382380Y-64071428D01*
X173382380Y-63880952D01*
X173334761Y-63785714D01*
X173287142Y-63738095D01*
X173191904Y-63690476D01*
X172382380Y-63690476D01*
X173382380Y-62690476D02*
X173382380Y-63261904D01*
X173382380Y-62976190D02*
X172382380Y-62976190D01*
X172525238Y-63071428D01*
X172620476Y-63166666D01*
X172668095Y-63261904D01*
X246046666Y-51292380D02*
X246046666Y-52006666D01*
X245999047Y-52149523D01*
X245903809Y-52244761D01*
X245760952Y-52292380D01*
X245665714Y-52292380D01*
X246427619Y-51292380D02*
X247046666Y-51292380D01*
X246713333Y-51673333D01*
X246856190Y-51673333D01*
X246951428Y-51720952D01*
X246999047Y-51768571D01*
X247046666Y-51863809D01*
X247046666Y-52101904D01*
X246999047Y-52197142D01*
X246951428Y-52244761D01*
X246856190Y-52292380D01*
X246570476Y-52292380D01*
X246475238Y-52244761D01*
X246427619Y-52197142D01*
X161031667Y-61452380D02*
X161031667Y-62166666D01*
X160984048Y-62309523D01*
X160888810Y-62404761D01*
X160745953Y-62452380D01*
X160650715Y-62452380D01*
X161460239Y-61547619D02*
X161507858Y-61500000D01*
X161603096Y-61452380D01*
X161841191Y-61452380D01*
X161936429Y-61500000D01*
X161984048Y-61547619D01*
X162031667Y-61642857D01*
X162031667Y-61738095D01*
X161984048Y-61880952D01*
X161412620Y-62452380D01*
X162031667Y-62452380D01*
X160956666Y-43672380D02*
X160956666Y-44386666D01*
X160909047Y-44529523D01*
X160813809Y-44624761D01*
X160670952Y-44672380D01*
X160575714Y-44672380D01*
X161956666Y-44672380D02*
X161385238Y-44672380D01*
X161670952Y-44672380D02*
X161670952Y-43672380D01*
X161575714Y-43815238D01*
X161480476Y-43910476D01*
X161385238Y-43958095D01*
X173382380Y-105116190D02*
X172382380Y-105116190D01*
X173287142Y-104068571D02*
X173334761Y-104116190D01*
X173382380Y-104259047D01*
X173382380Y-104354285D01*
X173334761Y-104497142D01*
X173239523Y-104592380D01*
X173144285Y-104640000D01*
X172953809Y-104687619D01*
X172810952Y-104687619D01*
X172620476Y-104640000D01*
X172525238Y-104592380D01*
X172430000Y-104497142D01*
X172382380Y-104354285D01*
X172382380Y-104259047D01*
X172430000Y-104116190D01*
X172477619Y-104068571D01*
X172477619Y-103687619D02*
X172430000Y-103640000D01*
X172382380Y-103544761D01*
X172382380Y-103306666D01*
X172430000Y-103211428D01*
X172477619Y-103163809D01*
X172572857Y-103116190D01*
X172668095Y-103116190D01*
X172810952Y-103163809D01*
X173382380Y-103735238D01*
X173382380Y-103116190D01*
X173382380Y-44156190D02*
X172382380Y-44156190D01*
X173287142Y-43108571D02*
X173334761Y-43156190D01*
X173382380Y-43299047D01*
X173382380Y-43394285D01*
X173334761Y-43537142D01*
X173239523Y-43632380D01*
X173144285Y-43680000D01*
X172953809Y-43727619D01*
X172810952Y-43727619D01*
X172620476Y-43680000D01*
X172525238Y-43632380D01*
X172430000Y-43537142D01*
X172382380Y-43394285D01*
X172382380Y-43299047D01*
X172430000Y-43156190D01*
X172477619Y-43108571D01*
X173382380Y-42156190D02*
X173382380Y-42727619D01*
X173382380Y-42441904D02*
X172382380Y-42441904D01*
X172525238Y-42537142D01*
X172620476Y-42632380D01*
X172668095Y-42727619D01*
X229121904Y-94272380D02*
X229121904Y-93272380D01*
X229360000Y-93272380D01*
X229502857Y-93320000D01*
X229598095Y-93415238D01*
X229645714Y-93510476D01*
X229693333Y-93700952D01*
X229693333Y-93843809D01*
X229645714Y-94034285D01*
X229598095Y-94129523D01*
X229502857Y-94224761D01*
X229360000Y-94272380D01*
X229121904Y-94272380D01*
X230026666Y-93272380D02*
X230693333Y-93272380D01*
X230264761Y-94272380D01*
X229121904Y-84112380D02*
X229121904Y-83112380D01*
X229360000Y-83112380D01*
X229502857Y-83160000D01*
X229598095Y-83255238D01*
X229645714Y-83350476D01*
X229693333Y-83540952D01*
X229693333Y-83683809D01*
X229645714Y-83874285D01*
X229598095Y-83969523D01*
X229502857Y-84064761D01*
X229360000Y-84112380D01*
X229121904Y-84112380D01*
X230550476Y-83112380D02*
X230360000Y-83112380D01*
X230264761Y-83160000D01*
X230217142Y-83207619D01*
X230121904Y-83350476D01*
X230074285Y-83540952D01*
X230074285Y-83921904D01*
X230121904Y-84017142D01*
X230169523Y-84064761D01*
X230264761Y-84112380D01*
X230455238Y-84112380D01*
X230550476Y-84064761D01*
X230598095Y-84017142D01*
X230645714Y-83921904D01*
X230645714Y-83683809D01*
X230598095Y-83588571D01*
X230550476Y-83540952D01*
X230455238Y-83493333D01*
X230264761Y-83493333D01*
X230169523Y-83540952D01*
X230121904Y-83588571D01*
X230074285Y-83683809D01*
X229121904Y-73952380D02*
X229121904Y-72952380D01*
X229360000Y-72952380D01*
X229502857Y-73000000D01*
X229598095Y-73095238D01*
X229645714Y-73190476D01*
X229693333Y-73380952D01*
X229693333Y-73523809D01*
X229645714Y-73714285D01*
X229598095Y-73809523D01*
X229502857Y-73904761D01*
X229360000Y-73952380D01*
X229121904Y-73952380D01*
X230598095Y-72952380D02*
X230121904Y-72952380D01*
X230074285Y-73428571D01*
X230121904Y-73380952D01*
X230217142Y-73333333D01*
X230455238Y-73333333D01*
X230550476Y-73380952D01*
X230598095Y-73428571D01*
X230645714Y-73523809D01*
X230645714Y-73761904D01*
X230598095Y-73857142D01*
X230550476Y-73904761D01*
X230455238Y-73952380D01*
X230217142Y-73952380D01*
X230121904Y-73904761D01*
X230074285Y-73857142D01*
X229121904Y-63792380D02*
X229121904Y-62792380D01*
X229360000Y-62792380D01*
X229502857Y-62840000D01*
X229598095Y-62935238D01*
X229645714Y-63030476D01*
X229693333Y-63220952D01*
X229693333Y-63363809D01*
X229645714Y-63554285D01*
X229598095Y-63649523D01*
X229502857Y-63744761D01*
X229360000Y-63792380D01*
X229121904Y-63792380D01*
X230550476Y-63125714D02*
X230550476Y-63792380D01*
X230312380Y-62744761D02*
X230074285Y-63459047D01*
X230693333Y-63459047D01*
X229121904Y-53632380D02*
X229121904Y-52632380D01*
X229360000Y-52632380D01*
X229502857Y-52680000D01*
X229598095Y-52775238D01*
X229645714Y-52870476D01*
X229693333Y-53060952D01*
X229693333Y-53203809D01*
X229645714Y-53394285D01*
X229598095Y-53489523D01*
X229502857Y-53584761D01*
X229360000Y-53632380D01*
X229121904Y-53632380D01*
X230026666Y-52632380D02*
X230645714Y-52632380D01*
X230312380Y-53013333D01*
X230455238Y-53013333D01*
X230550476Y-53060952D01*
X230598095Y-53108571D01*
X230645714Y-53203809D01*
X230645714Y-53441904D01*
X230598095Y-53537142D01*
X230550476Y-53584761D01*
X230455238Y-53632380D01*
X230169523Y-53632380D01*
X230074285Y-53584761D01*
X230026666Y-53537142D01*
X229121904Y-43472380D02*
X229121904Y-42472380D01*
X229360000Y-42472380D01*
X229502857Y-42520000D01*
X229598095Y-42615238D01*
X229645714Y-42710476D01*
X229693333Y-42900952D01*
X229693333Y-43043809D01*
X229645714Y-43234285D01*
X229598095Y-43329523D01*
X229502857Y-43424761D01*
X229360000Y-43472380D01*
X229121904Y-43472380D01*
X230074285Y-42567619D02*
X230121904Y-42520000D01*
X230217142Y-42472380D01*
X230455238Y-42472380D01*
X230550476Y-42520000D01*
X230598095Y-42567619D01*
X230645714Y-42662857D01*
X230645714Y-42758095D01*
X230598095Y-42900952D01*
X230026666Y-43472380D01*
X230645714Y-43472380D01*
X229121904Y-33312380D02*
X229121904Y-32312380D01*
X229360000Y-32312380D01*
X229502857Y-32360000D01*
X229598095Y-32455238D01*
X229645714Y-32550476D01*
X229693333Y-32740952D01*
X229693333Y-32883809D01*
X229645714Y-33074285D01*
X229598095Y-33169523D01*
X229502857Y-33264761D01*
X229360000Y-33312380D01*
X229121904Y-33312380D01*
X230645714Y-33312380D02*
X230074285Y-33312380D01*
X230360000Y-33312380D02*
X230360000Y-32312380D01*
X230264761Y-32455238D01*
X230169523Y-32550476D01*
X230074285Y-32598095D01*
D14*
X220086897Y-104622321D02*
X221416596Y-104622321D01*
X221573032Y-104544104D01*
X221651249Y-104465886D01*
X221729467Y-104309451D01*
X221729467Y-103996580D01*
X221651249Y-103840145D01*
X221573032Y-103761928D01*
X221416596Y-103683710D01*
X220086897Y-103683710D01*
X220086897Y-102197575D02*
X220086897Y-102510446D01*
X220165115Y-102666881D01*
X220243332Y-102745099D01*
X220477985Y-102901534D01*
X220790855Y-102979751D01*
X221416596Y-102979751D01*
X221573032Y-102901534D01*
X221651249Y-102823316D01*
X221729467Y-102666881D01*
X221729467Y-102354010D01*
X221651249Y-102197575D01*
X221573032Y-102119358D01*
X221416596Y-102041140D01*
X221025508Y-102041140D01*
X220869073Y-102119358D01*
X220790855Y-102197575D01*
X220712638Y-102354010D01*
X220712638Y-102666881D01*
X220790855Y-102823316D01*
X220869073Y-102901534D01*
X221025508Y-102979751D01*
X198604142Y-111249273D02*
X198682308Y-111014775D01*
X198682308Y-110623944D01*
X198604142Y-110467611D01*
X198525976Y-110389445D01*
X198369644Y-110311279D01*
X198213311Y-110311279D01*
X198056979Y-110389445D01*
X197978813Y-110467611D01*
X197900646Y-110623944D01*
X197822480Y-110936608D01*
X197744314Y-111092941D01*
X197666148Y-111171107D01*
X197509815Y-111249273D01*
X197353483Y-111249273D01*
X197197151Y-111171107D01*
X197118985Y-111092941D01*
X197040818Y-110936608D01*
X197040818Y-110545777D01*
X197118985Y-110311279D01*
X198682308Y-109607783D02*
X197040818Y-109607783D01*
X198682308Y-108669789D01*
X197040818Y-108669789D01*
X197040818Y-108044459D02*
X197040818Y-106950133D01*
X198682308Y-107653628D01*
X197040818Y-105543141D02*
X197040818Y-106324803D01*
X197822480Y-106402969D01*
X197744314Y-106324803D01*
X197666148Y-106168471D01*
X197666148Y-105777640D01*
X197744314Y-105621307D01*
X197822480Y-105543141D01*
X197978813Y-105464975D01*
X198369644Y-105464975D01*
X198525976Y-105543141D01*
X198604142Y-105621307D01*
X198682308Y-105777640D01*
X198682308Y-106168471D01*
X198604142Y-106324803D01*
X198525976Y-106402969D01*
X197587982Y-104057984D02*
X198682308Y-104057984D01*
X196962652Y-104448815D02*
X198135145Y-104839645D01*
X198135145Y-103823485D01*
X197587982Y-102494660D02*
X198682308Y-102494660D01*
X196962652Y-102885491D02*
X198135145Y-103276322D01*
X198135145Y-102260161D01*
X198682308Y-100775004D02*
X198682308Y-101712998D01*
X198682308Y-101244001D02*
X197040818Y-101244001D01*
X197275317Y-101400333D01*
X197431649Y-101556665D01*
X197509815Y-101712998D01*
X197040818Y-99758843D02*
X197040818Y-99602511D01*
X197118985Y-99446178D01*
X197197151Y-99368012D01*
X197353483Y-99289846D01*
X197666148Y-99211680D01*
X198056979Y-99211680D01*
X198369644Y-99289846D01*
X198525976Y-99368012D01*
X198604142Y-99446178D01*
X198682308Y-99602511D01*
X198682308Y-99758843D01*
X198604142Y-99915175D01*
X198525976Y-99993342D01*
X198369644Y-100071508D01*
X198056979Y-100149674D01*
X197666148Y-100149674D01*
X197353483Y-100071508D01*
X197197151Y-99993342D01*
X197118985Y-99915175D01*
X197040818Y-99758843D01*
X198682308Y-98508184D02*
X197040818Y-98508184D01*
X198682308Y-97570190D01*
X197040818Y-97570190D01*
X197822480Y-96788528D02*
X197822480Y-96241365D01*
X198682308Y-96006866D02*
X198682308Y-96788528D01*
X197040818Y-96788528D01*
X197040818Y-96006866D01*
X220086897Y-63982321D02*
X221416596Y-63982321D01*
X221573032Y-63904104D01*
X221651249Y-63825886D01*
X221729467Y-63669451D01*
X221729467Y-63356580D01*
X221651249Y-63200145D01*
X221573032Y-63121928D01*
X221416596Y-63043710D01*
X220086897Y-63043710D01*
X220086897Y-61479358D02*
X220086897Y-62261534D01*
X220869073Y-62339751D01*
X220790855Y-62261534D01*
X220712638Y-62105099D01*
X220712638Y-61714010D01*
X220790855Y-61557575D01*
X220869073Y-61479358D01*
X221025508Y-61401140D01*
X221416596Y-61401140D01*
X221573032Y-61479358D01*
X221651249Y-61557575D01*
X221729467Y-61714010D01*
X221729467Y-62105099D01*
X221651249Y-62261534D01*
X221573032Y-62339751D01*
X198604142Y-70609273D02*
X198682308Y-70374775D01*
X198682308Y-69983944D01*
X198604142Y-69827611D01*
X198525976Y-69749445D01*
X198369644Y-69671279D01*
X198213311Y-69671279D01*
X198056979Y-69749445D01*
X197978813Y-69827611D01*
X197900646Y-69983944D01*
X197822480Y-70296608D01*
X197744314Y-70452941D01*
X197666148Y-70531107D01*
X197509815Y-70609273D01*
X197353483Y-70609273D01*
X197197151Y-70531107D01*
X197118985Y-70452941D01*
X197040818Y-70296608D01*
X197040818Y-69905777D01*
X197118985Y-69671279D01*
X198682308Y-68967783D02*
X197040818Y-68967783D01*
X198682308Y-68029789D01*
X197040818Y-68029789D01*
X197040818Y-67404459D02*
X197040818Y-66310133D01*
X198682308Y-67013628D01*
X197040818Y-64903141D02*
X197040818Y-65684803D01*
X197822480Y-65762969D01*
X197744314Y-65684803D01*
X197666148Y-65528471D01*
X197666148Y-65137640D01*
X197744314Y-64981307D01*
X197822480Y-64903141D01*
X197978813Y-64824975D01*
X198369644Y-64824975D01*
X198525976Y-64903141D01*
X198604142Y-64981307D01*
X198682308Y-65137640D01*
X198682308Y-65528471D01*
X198604142Y-65684803D01*
X198525976Y-65762969D01*
X197587982Y-63417984D02*
X198682308Y-63417984D01*
X196962652Y-63808815D02*
X198135145Y-64199645D01*
X198135145Y-63183485D01*
X197587982Y-61854660D02*
X198682308Y-61854660D01*
X196962652Y-62245491D02*
X198135145Y-62636322D01*
X198135145Y-61620161D01*
X198682308Y-60135004D02*
X198682308Y-61072998D01*
X198682308Y-60604001D02*
X197040818Y-60604001D01*
X197275317Y-60760333D01*
X197431649Y-60916665D01*
X197509815Y-61072998D01*
X197040818Y-59118843D02*
X197040818Y-58962511D01*
X197118985Y-58806178D01*
X197197151Y-58728012D01*
X197353483Y-58649846D01*
X197666148Y-58571680D01*
X198056979Y-58571680D01*
X198369644Y-58649846D01*
X198525976Y-58728012D01*
X198604142Y-58806178D01*
X198682308Y-58962511D01*
X198682308Y-59118843D01*
X198604142Y-59275175D01*
X198525976Y-59353342D01*
X198369644Y-59431508D01*
X198056979Y-59509674D01*
X197666148Y-59509674D01*
X197353483Y-59431508D01*
X197197151Y-59353342D01*
X197118985Y-59275175D01*
X197040818Y-59118843D01*
X198682308Y-57868184D02*
X197040818Y-57868184D01*
X198682308Y-56930190D01*
X197040818Y-56930190D01*
X197822480Y-56148528D02*
X197822480Y-55601365D01*
X198682308Y-55366866D02*
X198682308Y-56148528D01*
X197040818Y-56148528D01*
X197040818Y-55366866D01*
X220086897Y-84302321D02*
X221416596Y-84302321D01*
X221573032Y-84224104D01*
X221651249Y-84145886D01*
X221729467Y-83989451D01*
X221729467Y-83676580D01*
X221651249Y-83520145D01*
X221573032Y-83441928D01*
X221416596Y-83363710D01*
X220086897Y-83363710D01*
X220634420Y-81877575D02*
X221729467Y-81877575D01*
X220008679Y-82268663D02*
X221181944Y-82659751D01*
X221181944Y-81642922D01*
X198604142Y-90929273D02*
X198682308Y-90694775D01*
X198682308Y-90303944D01*
X198604142Y-90147611D01*
X198525976Y-90069445D01*
X198369644Y-89991279D01*
X198213311Y-89991279D01*
X198056979Y-90069445D01*
X197978813Y-90147611D01*
X197900646Y-90303944D01*
X197822480Y-90616608D01*
X197744314Y-90772941D01*
X197666148Y-90851107D01*
X197509815Y-90929273D01*
X197353483Y-90929273D01*
X197197151Y-90851107D01*
X197118985Y-90772941D01*
X197040818Y-90616608D01*
X197040818Y-90225777D01*
X197118985Y-89991279D01*
X198682308Y-89287783D02*
X197040818Y-89287783D01*
X198682308Y-88349789D01*
X197040818Y-88349789D01*
X197040818Y-87724459D02*
X197040818Y-86630133D01*
X198682308Y-87333628D01*
X197040818Y-85223141D02*
X197040818Y-86004803D01*
X197822480Y-86082969D01*
X197744314Y-86004803D01*
X197666148Y-85848471D01*
X197666148Y-85457640D01*
X197744314Y-85301307D01*
X197822480Y-85223141D01*
X197978813Y-85144975D01*
X198369644Y-85144975D01*
X198525976Y-85223141D01*
X198604142Y-85301307D01*
X198682308Y-85457640D01*
X198682308Y-85848471D01*
X198604142Y-86004803D01*
X198525976Y-86082969D01*
X197587982Y-83737984D02*
X198682308Y-83737984D01*
X196962652Y-84128815D02*
X198135145Y-84519645D01*
X198135145Y-83503485D01*
X197587982Y-82174660D02*
X198682308Y-82174660D01*
X196962652Y-82565491D02*
X198135145Y-82956322D01*
X198135145Y-81940161D01*
X198682308Y-80455004D02*
X198682308Y-81392998D01*
X198682308Y-80924001D02*
X197040818Y-80924001D01*
X197275317Y-81080333D01*
X197431649Y-81236665D01*
X197509815Y-81392998D01*
X197040818Y-79438843D02*
X197040818Y-79282511D01*
X197118985Y-79126178D01*
X197197151Y-79048012D01*
X197353483Y-78969846D01*
X197666148Y-78891680D01*
X198056979Y-78891680D01*
X198369644Y-78969846D01*
X198525976Y-79048012D01*
X198604142Y-79126178D01*
X198682308Y-79282511D01*
X198682308Y-79438843D01*
X198604142Y-79595175D01*
X198525976Y-79673342D01*
X198369644Y-79751508D01*
X198056979Y-79829674D01*
X197666148Y-79829674D01*
X197353483Y-79751508D01*
X197197151Y-79673342D01*
X197118985Y-79595175D01*
X197040818Y-79438843D01*
X198682308Y-78188184D02*
X197040818Y-78188184D01*
X198682308Y-77250190D01*
X197040818Y-77250190D01*
X197822480Y-76468528D02*
X197822480Y-75921365D01*
X198682308Y-75686866D02*
X198682308Y-76468528D01*
X197040818Y-76468528D01*
X197040818Y-75686866D01*
X220086897Y-43662321D02*
X221416596Y-43662321D01*
X221573032Y-43584104D01*
X221651249Y-43505886D01*
X221729467Y-43349451D01*
X221729467Y-43036580D01*
X221651249Y-42880145D01*
X221573032Y-42801928D01*
X221416596Y-42723710D01*
X220086897Y-42723710D01*
X220086897Y-42097969D02*
X220086897Y-41081140D01*
X220712638Y-41628663D01*
X220712638Y-41394010D01*
X220790855Y-41237575D01*
X220869073Y-41159358D01*
X221025508Y-41081140D01*
X221416596Y-41081140D01*
X221573032Y-41159358D01*
X221651249Y-41237575D01*
X221729467Y-41394010D01*
X221729467Y-41863316D01*
X221651249Y-42019751D01*
X221573032Y-42097969D01*
X198604142Y-50289273D02*
X198682308Y-50054775D01*
X198682308Y-49663944D01*
X198604142Y-49507611D01*
X198525976Y-49429445D01*
X198369644Y-49351279D01*
X198213311Y-49351279D01*
X198056979Y-49429445D01*
X197978813Y-49507611D01*
X197900646Y-49663944D01*
X197822480Y-49976608D01*
X197744314Y-50132941D01*
X197666148Y-50211107D01*
X197509815Y-50289273D01*
X197353483Y-50289273D01*
X197197151Y-50211107D01*
X197118985Y-50132941D01*
X197040818Y-49976608D01*
X197040818Y-49585777D01*
X197118985Y-49351279D01*
X198682308Y-48647783D02*
X197040818Y-48647783D01*
X198682308Y-47709789D01*
X197040818Y-47709789D01*
X197040818Y-47084459D02*
X197040818Y-45990133D01*
X198682308Y-46693628D01*
X197040818Y-44583141D02*
X197040818Y-45364803D01*
X197822480Y-45442969D01*
X197744314Y-45364803D01*
X197666148Y-45208471D01*
X197666148Y-44817640D01*
X197744314Y-44661307D01*
X197822480Y-44583141D01*
X197978813Y-44504975D01*
X198369644Y-44504975D01*
X198525976Y-44583141D01*
X198604142Y-44661307D01*
X198682308Y-44817640D01*
X198682308Y-45208471D01*
X198604142Y-45364803D01*
X198525976Y-45442969D01*
X197587982Y-43097984D02*
X198682308Y-43097984D01*
X196962652Y-43488815D02*
X198135145Y-43879645D01*
X198135145Y-42863485D01*
X197587982Y-41534660D02*
X198682308Y-41534660D01*
X196962652Y-41925491D02*
X198135145Y-42316322D01*
X198135145Y-41300161D01*
X198682308Y-39815004D02*
X198682308Y-40752998D01*
X198682308Y-40284001D02*
X197040818Y-40284001D01*
X197275317Y-40440333D01*
X197431649Y-40596665D01*
X197509815Y-40752998D01*
X197040818Y-38798843D02*
X197040818Y-38642511D01*
X197118985Y-38486178D01*
X197197151Y-38408012D01*
X197353483Y-38329846D01*
X197666148Y-38251680D01*
X198056979Y-38251680D01*
X198369644Y-38329846D01*
X198525976Y-38408012D01*
X198604142Y-38486178D01*
X198682308Y-38642511D01*
X198682308Y-38798843D01*
X198604142Y-38955175D01*
X198525976Y-39033342D01*
X198369644Y-39111508D01*
X198056979Y-39189674D01*
X197666148Y-39189674D01*
X197353483Y-39111508D01*
X197197151Y-39033342D01*
X197118985Y-38955175D01*
X197040818Y-38798843D01*
X198682308Y-37548184D02*
X197040818Y-37548184D01*
X198682308Y-36610190D01*
X197040818Y-36610190D01*
X197822480Y-35828528D02*
X197822480Y-35281365D01*
X198682308Y-35046866D02*
X198682308Y-35828528D01*
X197040818Y-35828528D01*
X197040818Y-35046866D01*
M02*
