G04 #@! TF.GenerationSoftware,KiCad,Pcbnew,(5.1.5)-3*
G04 #@! TF.CreationDate,2020-04-02T00:33:27+02:00*
G04 #@! TF.ProjectId,splitflap,73706c69-7466-46c6-9170-2e6b69636164,rev?*
G04 #@! TF.SameCoordinates,Original*
G04 #@! TF.FileFunction,Copper,L1,Top*
G04 #@! TF.FilePolarity,Positive*
%FSLAX46Y46*%
G04 Gerber Fmt 4.6, Leading zero omitted, Abs format (unit mm)*
G04 Created by KiCad (PCBNEW (5.1.5)-3) date 2020-04-02 00:33:27*
%MOMM*%
%LPD*%
G04 APERTURE LIST*
%ADD10O,1.700000X2.000000*%
%ADD11C,0.100000*%
%ADD12C,3.000000*%
%ADD13R,3.000000X3.000000*%
%ADD14R,1.727200X1.727200*%
%ADD15O,1.727200X1.727200*%
%ADD16C,0.250000*%
%ADD17C,0.254000*%
G04 APERTURE END LIST*
D10*
X174585000Y-113030000D03*
G04 #@! TA.AperFunction,ComponentPad*
D11*
G36*
X172709504Y-112031204D02*
G01*
X172733773Y-112034804D01*
X172757571Y-112040765D01*
X172780671Y-112049030D01*
X172802849Y-112059520D01*
X172823893Y-112072133D01*
X172843598Y-112086747D01*
X172861777Y-112103223D01*
X172878253Y-112121402D01*
X172892867Y-112141107D01*
X172905480Y-112162151D01*
X172915970Y-112184329D01*
X172924235Y-112207429D01*
X172930196Y-112231227D01*
X172933796Y-112255496D01*
X172935000Y-112280000D01*
X172935000Y-113780000D01*
X172933796Y-113804504D01*
X172930196Y-113828773D01*
X172924235Y-113852571D01*
X172915970Y-113875671D01*
X172905480Y-113897849D01*
X172892867Y-113918893D01*
X172878253Y-113938598D01*
X172861777Y-113956777D01*
X172843598Y-113973253D01*
X172823893Y-113987867D01*
X172802849Y-114000480D01*
X172780671Y-114010970D01*
X172757571Y-114019235D01*
X172733773Y-114025196D01*
X172709504Y-114028796D01*
X172685000Y-114030000D01*
X171485000Y-114030000D01*
X171460496Y-114028796D01*
X171436227Y-114025196D01*
X171412429Y-114019235D01*
X171389329Y-114010970D01*
X171367151Y-114000480D01*
X171346107Y-113987867D01*
X171326402Y-113973253D01*
X171308223Y-113956777D01*
X171291747Y-113938598D01*
X171277133Y-113918893D01*
X171264520Y-113897849D01*
X171254030Y-113875671D01*
X171245765Y-113852571D01*
X171239804Y-113828773D01*
X171236204Y-113804504D01*
X171235000Y-113780000D01*
X171235000Y-112280000D01*
X171236204Y-112255496D01*
X171239804Y-112231227D01*
X171245765Y-112207429D01*
X171254030Y-112184329D01*
X171264520Y-112162151D01*
X171277133Y-112141107D01*
X171291747Y-112121402D01*
X171308223Y-112103223D01*
X171326402Y-112086747D01*
X171346107Y-112072133D01*
X171367151Y-112059520D01*
X171389329Y-112049030D01*
X171412429Y-112040765D01*
X171436227Y-112034804D01*
X171460496Y-112031204D01*
X171485000Y-112030000D01*
X172685000Y-112030000D01*
X172709504Y-112031204D01*
G37*
G04 #@! TD.AperFunction*
D12*
X191135000Y-49530000D03*
D13*
X191135000Y-34290000D03*
D12*
X191135000Y-44450000D03*
X191135000Y-39370000D03*
D14*
X156210000Y-80010000D03*
D15*
X158750000Y-80010000D03*
X156210000Y-82550000D03*
X158750000Y-82550000D03*
X156210000Y-85090000D03*
X158750000Y-85090000D03*
X156210000Y-87630000D03*
X158750000Y-87630000D03*
X156210000Y-90170000D03*
X158750000Y-90170000D03*
X156210000Y-92710000D03*
X158750000Y-92710000D03*
X158750000Y-67310000D03*
X156210000Y-67310000D03*
X158750000Y-64770000D03*
X156210000Y-64770000D03*
X158750000Y-62230000D03*
X156210000Y-62230000D03*
X158750000Y-59690000D03*
X156210000Y-59690000D03*
X158750000Y-57150000D03*
X156210000Y-57150000D03*
X158750000Y-54610000D03*
D14*
X156210000Y-54610000D03*
D12*
X191135000Y-114300000D03*
D13*
X191135000Y-99060000D03*
D12*
X191135000Y-109220000D03*
X191135000Y-104140000D03*
X191135000Y-92710000D03*
D13*
X191135000Y-77470000D03*
D12*
X191135000Y-87630000D03*
X191135000Y-82550000D03*
X191135000Y-71120000D03*
D13*
X191135000Y-55880000D03*
D12*
X191135000Y-66040000D03*
X191135000Y-60960000D03*
D16*
X173355000Y-64770000D02*
X191135000Y-82550000D01*
X158750000Y-64770000D02*
X173355000Y-64770000D01*
X191135000Y-75720000D02*
X191135000Y-77470000D01*
X178946399Y-63531399D02*
X191135000Y-75720000D01*
X157448601Y-63531399D02*
X178946399Y-63531399D01*
X156210000Y-64770000D02*
X157448601Y-63531399D01*
X182245000Y-62230000D02*
X191135000Y-71120000D01*
X158750000Y-62230000D02*
X182245000Y-62230000D01*
X189635001Y-64540001D02*
X191135000Y-66040000D01*
X186086399Y-60991399D02*
X189635001Y-64540001D01*
X158155471Y-60991399D02*
X186086399Y-60991399D01*
X156916870Y-62230000D02*
X158155471Y-60991399D01*
X156210000Y-62230000D02*
X156916870Y-62230000D01*
X189865000Y-59690000D02*
X191135000Y-60960000D01*
X158750000Y-59690000D02*
X189865000Y-59690000D01*
X191135000Y-57630000D02*
X191135000Y-55880000D01*
X190313601Y-58451399D02*
X191135000Y-57630000D01*
X157448601Y-58451399D02*
X190313601Y-58451399D01*
X156210000Y-59690000D02*
X157448601Y-58451399D01*
X165735000Y-67310000D02*
X191135000Y-92710000D01*
X158750000Y-67310000D02*
X165735000Y-67310000D01*
X169576399Y-66071399D02*
X189635001Y-86130001D01*
X157448601Y-66071399D02*
X169576399Y-66071399D01*
X189635001Y-86130001D02*
X191135000Y-87630000D01*
X156210000Y-67310000D02*
X157448601Y-66071399D01*
X183515000Y-57150000D02*
X191135000Y-49530000D01*
X158750000Y-57150000D02*
X183515000Y-57150000D01*
X189635001Y-45949999D02*
X191135000Y-44450000D01*
X157448601Y-55911399D02*
X179673601Y-55911399D01*
X179673601Y-55911399D02*
X189635001Y-45949999D01*
X156210000Y-57150000D02*
X157448601Y-55911399D01*
X175895000Y-54610000D02*
X191135000Y-39370000D01*
X158750000Y-54610000D02*
X175895000Y-54610000D01*
X191135000Y-36040000D02*
X191135000Y-34290000D01*
X157480000Y-53340000D02*
X173835000Y-53340000D01*
X173835000Y-53340000D02*
X191135000Y-36040000D01*
X156210000Y-54610000D02*
X157480000Y-53340000D01*
X156210000Y-78896400D02*
X156210000Y-80010000D01*
X156335001Y-78771399D02*
X156210000Y-78896400D01*
X169096399Y-78771399D02*
X156335001Y-78771399D01*
X189385000Y-99060000D02*
X169096399Y-78771399D01*
X191135000Y-99060000D02*
X189385000Y-99060000D01*
X167005000Y-80010000D02*
X158750000Y-80010000D01*
X191135000Y-104140000D02*
X167005000Y-80010000D01*
X157073599Y-81686401D02*
X156210000Y-82550000D01*
X163226399Y-81311399D02*
X157448601Y-81311399D01*
X157448601Y-81311399D02*
X157073599Y-81686401D01*
X191135000Y-109220000D02*
X163226399Y-81311399D01*
X159385000Y-82550000D02*
X158750000Y-82550000D01*
X191135000Y-114300000D02*
X159385000Y-82550000D01*
X158710000Y-92750000D02*
X158750000Y-92710000D01*
X156210000Y-92710000D02*
X158750000Y-92710000D01*
X174585000Y-107323686D02*
X174585000Y-111780000D01*
X174585000Y-111780000D02*
X174585000Y-113030000D01*
X159971314Y-92710000D02*
X174585000Y-107323686D01*
X158750000Y-92710000D02*
X159971314Y-92710000D01*
D17*
G36*
X258420001Y-39337572D02*
G01*
X258420000Y-39337582D01*
X258420001Y-119990000D01*
X147980000Y-119990000D01*
X147980000Y-112799872D01*
X152705000Y-112799872D01*
X152705000Y-113240128D01*
X152790890Y-113671925D01*
X152959369Y-114078669D01*
X153203962Y-114444729D01*
X153515271Y-114756038D01*
X153881331Y-115000631D01*
X154288075Y-115169110D01*
X154719872Y-115255000D01*
X155160128Y-115255000D01*
X155591925Y-115169110D01*
X155998669Y-115000631D01*
X156364729Y-114756038D01*
X156676038Y-114444729D01*
X156920631Y-114078669D01*
X157089110Y-113671925D01*
X157175000Y-113240128D01*
X157175000Y-112799872D01*
X157089110Y-112368075D01*
X156920631Y-111961331D01*
X156676038Y-111595271D01*
X156364729Y-111283962D01*
X155998669Y-111039369D01*
X155591925Y-110870890D01*
X155160128Y-110785000D01*
X154719872Y-110785000D01*
X154288075Y-110870890D01*
X153881331Y-111039369D01*
X153515271Y-111283962D01*
X153203962Y-111595271D01*
X152959369Y-111961331D01*
X152790890Y-112368075D01*
X152705000Y-112799872D01*
X147980000Y-112799872D01*
X147980000Y-92562401D01*
X154711400Y-92562401D01*
X154711400Y-92857599D01*
X154768990Y-93147125D01*
X154881958Y-93419853D01*
X155045961Y-93665302D01*
X155254698Y-93874039D01*
X155500147Y-94038042D01*
X155772875Y-94151010D01*
X156062401Y-94208600D01*
X156357599Y-94208600D01*
X156647125Y-94151010D01*
X156919853Y-94038042D01*
X157165302Y-93874039D01*
X157374039Y-93665302D01*
X157480000Y-93506719D01*
X157585961Y-93665302D01*
X157794698Y-93874039D01*
X158040147Y-94038042D01*
X158312875Y-94151010D01*
X158602401Y-94208600D01*
X158897599Y-94208600D01*
X159187125Y-94151010D01*
X159459853Y-94038042D01*
X159705302Y-93874039D01*
X159882927Y-93696414D01*
X173825000Y-107638488D01*
X173825001Y-111602405D01*
X173755986Y-111639294D01*
X173529866Y-111824866D01*
X173344294Y-112050987D01*
X173206401Y-112308967D01*
X173121487Y-112588890D01*
X173100000Y-112807051D01*
X173100000Y-113252950D01*
X173121487Y-113471111D01*
X173206401Y-113751034D01*
X173344294Y-114009014D01*
X173529866Y-114235134D01*
X173755987Y-114420706D01*
X174013967Y-114558599D01*
X174293890Y-114643513D01*
X174585000Y-114672185D01*
X174876111Y-114643513D01*
X175156034Y-114558599D01*
X175414014Y-114420706D01*
X175640134Y-114235134D01*
X175825706Y-114009014D01*
X175963599Y-113751033D01*
X176048513Y-113471110D01*
X176070000Y-113252949D01*
X176070000Y-112807050D01*
X176048513Y-112588889D01*
X175963599Y-112308966D01*
X175825706Y-112050986D01*
X175640134Y-111824866D01*
X175414013Y-111639294D01*
X175345000Y-111602406D01*
X175345000Y-107361009D01*
X175348676Y-107323686D01*
X175345000Y-107286363D01*
X175345000Y-107286353D01*
X175334003Y-107174700D01*
X175290546Y-107031439D01*
X175219975Y-106899411D01*
X175219974Y-106899409D01*
X175148799Y-106812683D01*
X175125001Y-106783685D01*
X175096004Y-106759888D01*
X160535118Y-92199003D01*
X160511315Y-92169999D01*
X160395590Y-92075026D01*
X160263561Y-92004454D01*
X160120300Y-91960997D01*
X160047063Y-91953784D01*
X159914039Y-91754698D01*
X159705302Y-91545961D01*
X159459853Y-91381958D01*
X159187125Y-91268990D01*
X158897599Y-91211400D01*
X158602401Y-91211400D01*
X158312875Y-91268990D01*
X158040147Y-91381958D01*
X157794698Y-91545961D01*
X157585961Y-91754698D01*
X157480000Y-91913281D01*
X157374039Y-91754698D01*
X157165302Y-91545961D01*
X156919853Y-91381958D01*
X156647125Y-91268990D01*
X156357599Y-91211400D01*
X156062401Y-91211400D01*
X155772875Y-91268990D01*
X155500147Y-91381958D01*
X155254698Y-91545961D01*
X155045961Y-91754698D01*
X154881958Y-92000147D01*
X154768990Y-92272875D01*
X154711400Y-92562401D01*
X147980000Y-92562401D01*
X147980000Y-79146400D01*
X154708328Y-79146400D01*
X154708328Y-80873600D01*
X154720588Y-80998082D01*
X154756898Y-81117780D01*
X154815863Y-81228094D01*
X154895215Y-81324785D01*
X154991906Y-81404137D01*
X155102220Y-81463102D01*
X155160023Y-81480636D01*
X155045961Y-81594698D01*
X154881958Y-81840147D01*
X154768990Y-82112875D01*
X154711400Y-82402401D01*
X154711400Y-82697599D01*
X154768990Y-82987125D01*
X154881958Y-83259853D01*
X155045961Y-83505302D01*
X155254698Y-83714039D01*
X155500147Y-83878042D01*
X155772875Y-83991010D01*
X156062401Y-84048600D01*
X156357599Y-84048600D01*
X156647125Y-83991010D01*
X156919853Y-83878042D01*
X157165302Y-83714039D01*
X157374039Y-83505302D01*
X157480000Y-83346719D01*
X157585961Y-83505302D01*
X157794698Y-83714039D01*
X158040147Y-83878042D01*
X158312875Y-83991010D01*
X158602401Y-84048600D01*
X158897599Y-84048600D01*
X159187125Y-83991010D01*
X159459853Y-83878042D01*
X159566789Y-83806590D01*
X189186140Y-113425942D01*
X189082047Y-113677244D01*
X189000000Y-114089721D01*
X189000000Y-114510279D01*
X189082047Y-114922756D01*
X189242988Y-115311302D01*
X189476637Y-115660983D01*
X189774017Y-115958363D01*
X190123698Y-116192012D01*
X190512244Y-116352953D01*
X190924721Y-116435000D01*
X191345279Y-116435000D01*
X191757756Y-116352953D01*
X192146302Y-116192012D01*
X192495983Y-115958363D01*
X192793363Y-115660983D01*
X193027012Y-115311302D01*
X193187953Y-114922756D01*
X193270000Y-114510279D01*
X193270000Y-114089721D01*
X193187953Y-113677244D01*
X193027012Y-113288698D01*
X192793363Y-112939017D01*
X192654218Y-112799872D01*
X242705000Y-112799872D01*
X242705000Y-113240128D01*
X242790890Y-113671925D01*
X242959369Y-114078669D01*
X243203962Y-114444729D01*
X243515271Y-114756038D01*
X243881331Y-115000631D01*
X244288075Y-115169110D01*
X244719872Y-115255000D01*
X245160128Y-115255000D01*
X245591925Y-115169110D01*
X245998669Y-115000631D01*
X246364729Y-114756038D01*
X246676038Y-114444729D01*
X246920631Y-114078669D01*
X247089110Y-113671925D01*
X247175000Y-113240128D01*
X247175000Y-112799872D01*
X247089110Y-112368075D01*
X246920631Y-111961331D01*
X246676038Y-111595271D01*
X246364729Y-111283962D01*
X245998669Y-111039369D01*
X245591925Y-110870890D01*
X245160128Y-110785000D01*
X244719872Y-110785000D01*
X244288075Y-110870890D01*
X243881331Y-111039369D01*
X243515271Y-111283962D01*
X243203962Y-111595271D01*
X242959369Y-111961331D01*
X242790890Y-112368075D01*
X242705000Y-112799872D01*
X192654218Y-112799872D01*
X192495983Y-112641637D01*
X192146302Y-112407988D01*
X191757756Y-112247047D01*
X191345279Y-112165000D01*
X190924721Y-112165000D01*
X190512244Y-112247047D01*
X190260942Y-112351140D01*
X160232808Y-82323007D01*
X160191010Y-82112875D01*
X160173830Y-82071399D01*
X162911598Y-82071399D01*
X189186140Y-108345942D01*
X189082047Y-108597244D01*
X189000000Y-109009721D01*
X189000000Y-109430279D01*
X189082047Y-109842756D01*
X189242988Y-110231302D01*
X189476637Y-110580983D01*
X189774017Y-110878363D01*
X190123698Y-111112012D01*
X190512244Y-111272953D01*
X190924721Y-111355000D01*
X191345279Y-111355000D01*
X191757756Y-111272953D01*
X192146302Y-111112012D01*
X192495983Y-110878363D01*
X192793363Y-110580983D01*
X193027012Y-110231302D01*
X193187953Y-109842756D01*
X193270000Y-109430279D01*
X193270000Y-109009721D01*
X193187953Y-108597244D01*
X193027012Y-108208698D01*
X192793363Y-107859017D01*
X192495983Y-107561637D01*
X192146302Y-107327988D01*
X191757756Y-107167047D01*
X191345279Y-107085000D01*
X190924721Y-107085000D01*
X190512244Y-107167047D01*
X190260942Y-107271140D01*
X163790203Y-80800402D01*
X163766400Y-80771398D01*
X163764697Y-80770000D01*
X166690199Y-80770000D01*
X189186140Y-103265942D01*
X189082047Y-103517244D01*
X189000000Y-103929721D01*
X189000000Y-104350279D01*
X189082047Y-104762756D01*
X189242988Y-105151302D01*
X189476637Y-105500983D01*
X189774017Y-105798363D01*
X190123698Y-106032012D01*
X190512244Y-106192953D01*
X190924721Y-106275000D01*
X191345279Y-106275000D01*
X191757756Y-106192953D01*
X192146302Y-106032012D01*
X192495983Y-105798363D01*
X192793363Y-105500983D01*
X193027012Y-105151302D01*
X193187953Y-104762756D01*
X193270000Y-104350279D01*
X193270000Y-103929721D01*
X193187953Y-103517244D01*
X193027012Y-103128698D01*
X192793363Y-102779017D01*
X192495983Y-102481637D01*
X192146302Y-102247988D01*
X191757756Y-102087047D01*
X191345279Y-102005000D01*
X190924721Y-102005000D01*
X190512244Y-102087047D01*
X190260942Y-102191140D01*
X167601200Y-79531399D01*
X168781598Y-79531399D01*
X188821201Y-99571003D01*
X188844999Y-99600001D01*
X188960724Y-99694974D01*
X188996928Y-99714326D01*
X188996928Y-100560000D01*
X189009188Y-100684482D01*
X189045498Y-100804180D01*
X189104463Y-100914494D01*
X189183815Y-101011185D01*
X189280506Y-101090537D01*
X189390820Y-101149502D01*
X189510518Y-101185812D01*
X189635000Y-101198072D01*
X192635000Y-101198072D01*
X192759482Y-101185812D01*
X192879180Y-101149502D01*
X192989494Y-101090537D01*
X193086185Y-101011185D01*
X193165537Y-100914494D01*
X193224502Y-100804180D01*
X193260812Y-100684482D01*
X193273072Y-100560000D01*
X193273072Y-97560000D01*
X193260812Y-97435518D01*
X193224502Y-97315820D01*
X193165537Y-97205506D01*
X193086185Y-97108815D01*
X192989494Y-97029463D01*
X192879180Y-96970498D01*
X192759482Y-96934188D01*
X192635000Y-96921928D01*
X189635000Y-96921928D01*
X189510518Y-96934188D01*
X189390820Y-96970498D01*
X189280506Y-97029463D01*
X189183815Y-97108815D01*
X189104463Y-97205506D01*
X189045498Y-97315820D01*
X189009188Y-97435518D01*
X188996928Y-97560000D01*
X188996928Y-97597126D01*
X169660203Y-78260402D01*
X169636400Y-78231398D01*
X169520675Y-78136425D01*
X169388646Y-78065853D01*
X169245385Y-78022396D01*
X169133732Y-78011399D01*
X169133721Y-78011399D01*
X169096399Y-78007723D01*
X169059077Y-78011399D01*
X156372323Y-78011399D01*
X156335000Y-78007723D01*
X156297678Y-78011399D01*
X156297668Y-78011399D01*
X156186015Y-78022396D01*
X156042754Y-78065853D01*
X155910725Y-78136425D01*
X155795000Y-78231398D01*
X155771197Y-78260402D01*
X155699003Y-78332596D01*
X155669999Y-78356399D01*
X155614871Y-78423574D01*
X155575026Y-78472124D01*
X155555674Y-78508328D01*
X155346400Y-78508328D01*
X155221918Y-78520588D01*
X155102220Y-78556898D01*
X154991906Y-78615863D01*
X154895215Y-78695215D01*
X154815863Y-78791906D01*
X154756898Y-78902220D01*
X154720588Y-79021918D01*
X154708328Y-79146400D01*
X147980000Y-79146400D01*
X147980000Y-53746400D01*
X154708328Y-53746400D01*
X154708328Y-55473600D01*
X154720588Y-55598082D01*
X154756898Y-55717780D01*
X154815863Y-55828094D01*
X154895215Y-55924785D01*
X154991906Y-56004137D01*
X155102220Y-56063102D01*
X155160023Y-56080636D01*
X155045961Y-56194698D01*
X154881958Y-56440147D01*
X154768990Y-56712875D01*
X154711400Y-57002401D01*
X154711400Y-57297599D01*
X154768990Y-57587125D01*
X154881958Y-57859853D01*
X155045961Y-58105302D01*
X155254698Y-58314039D01*
X155413281Y-58420000D01*
X155254698Y-58525961D01*
X155045961Y-58734698D01*
X154881958Y-58980147D01*
X154768990Y-59252875D01*
X154711400Y-59542401D01*
X154711400Y-59837599D01*
X154768990Y-60127125D01*
X154881958Y-60399853D01*
X155045961Y-60645302D01*
X155254698Y-60854039D01*
X155413281Y-60960000D01*
X155254698Y-61065961D01*
X155045961Y-61274698D01*
X154881958Y-61520147D01*
X154768990Y-61792875D01*
X154711400Y-62082401D01*
X154711400Y-62377599D01*
X154768990Y-62667125D01*
X154881958Y-62939853D01*
X155045961Y-63185302D01*
X155254698Y-63394039D01*
X155413281Y-63500000D01*
X155254698Y-63605961D01*
X155045961Y-63814698D01*
X154881958Y-64060147D01*
X154768990Y-64332875D01*
X154711400Y-64622401D01*
X154711400Y-64917599D01*
X154768990Y-65207125D01*
X154881958Y-65479853D01*
X155045961Y-65725302D01*
X155254698Y-65934039D01*
X155413281Y-66040000D01*
X155254698Y-66145961D01*
X155045961Y-66354698D01*
X154881958Y-66600147D01*
X154768990Y-66872875D01*
X154711400Y-67162401D01*
X154711400Y-67457599D01*
X154768990Y-67747125D01*
X154881958Y-68019853D01*
X155045961Y-68265302D01*
X155254698Y-68474039D01*
X155500147Y-68638042D01*
X155772875Y-68751010D01*
X156062401Y-68808600D01*
X156357599Y-68808600D01*
X156647125Y-68751010D01*
X156919853Y-68638042D01*
X157165302Y-68474039D01*
X157374039Y-68265302D01*
X157480000Y-68106719D01*
X157585961Y-68265302D01*
X157794698Y-68474039D01*
X158040147Y-68638042D01*
X158312875Y-68751010D01*
X158602401Y-68808600D01*
X158897599Y-68808600D01*
X159187125Y-68751010D01*
X159459853Y-68638042D01*
X159705302Y-68474039D01*
X159914039Y-68265302D01*
X160044535Y-68070000D01*
X165420199Y-68070000D01*
X189186140Y-91835942D01*
X189082047Y-92087244D01*
X189000000Y-92499721D01*
X189000000Y-92920279D01*
X189082047Y-93332756D01*
X189242988Y-93721302D01*
X189476637Y-94070983D01*
X189774017Y-94368363D01*
X190123698Y-94602012D01*
X190512244Y-94762953D01*
X190924721Y-94845000D01*
X191345279Y-94845000D01*
X191757756Y-94762953D01*
X192146302Y-94602012D01*
X192495983Y-94368363D01*
X192793363Y-94070983D01*
X193027012Y-93721302D01*
X193187953Y-93332756D01*
X193270000Y-92920279D01*
X193270000Y-92499721D01*
X193187953Y-92087244D01*
X193027012Y-91698698D01*
X192793363Y-91349017D01*
X192495983Y-91051637D01*
X192146302Y-90817988D01*
X191757756Y-90657047D01*
X191345279Y-90575000D01*
X190924721Y-90575000D01*
X190512244Y-90657047D01*
X190260942Y-90761140D01*
X166331200Y-66831399D01*
X169261598Y-66831399D01*
X189123998Y-86693800D01*
X189124003Y-86693804D01*
X189186140Y-86755941D01*
X189082047Y-87007244D01*
X189000000Y-87419721D01*
X189000000Y-87840279D01*
X189082047Y-88252756D01*
X189242988Y-88641302D01*
X189476637Y-88990983D01*
X189774017Y-89288363D01*
X190123698Y-89522012D01*
X190512244Y-89682953D01*
X190924721Y-89765000D01*
X191345279Y-89765000D01*
X191757756Y-89682953D01*
X192146302Y-89522012D01*
X192495983Y-89288363D01*
X192793363Y-88990983D01*
X193027012Y-88641302D01*
X193187953Y-88252756D01*
X193270000Y-87840279D01*
X193270000Y-87419721D01*
X193187953Y-87007244D01*
X193027012Y-86618698D01*
X192793363Y-86269017D01*
X192495983Y-85971637D01*
X192146302Y-85737988D01*
X191757756Y-85577047D01*
X191345279Y-85495000D01*
X190924721Y-85495000D01*
X190512244Y-85577047D01*
X190260941Y-85681140D01*
X190198804Y-85619003D01*
X190198800Y-85618998D01*
X170140203Y-65560402D01*
X170116400Y-65531398D01*
X170114697Y-65530000D01*
X173040199Y-65530000D01*
X189186140Y-81675942D01*
X189082047Y-81927244D01*
X189000000Y-82339721D01*
X189000000Y-82760279D01*
X189082047Y-83172756D01*
X189242988Y-83561302D01*
X189476637Y-83910983D01*
X189774017Y-84208363D01*
X190123698Y-84442012D01*
X190512244Y-84602953D01*
X190924721Y-84685000D01*
X191345279Y-84685000D01*
X191757756Y-84602953D01*
X192146302Y-84442012D01*
X192495983Y-84208363D01*
X192793363Y-83910983D01*
X193027012Y-83561302D01*
X193187953Y-83172756D01*
X193270000Y-82760279D01*
X193270000Y-82339721D01*
X193187953Y-81927244D01*
X193027012Y-81538698D01*
X192793363Y-81189017D01*
X192495983Y-80891637D01*
X192146302Y-80657988D01*
X191757756Y-80497047D01*
X191345279Y-80415000D01*
X190924721Y-80415000D01*
X190512244Y-80497047D01*
X190260942Y-80601140D01*
X173951200Y-64291399D01*
X178631598Y-64291399D01*
X189672126Y-75331928D01*
X189635000Y-75331928D01*
X189510518Y-75344188D01*
X189390820Y-75380498D01*
X189280506Y-75439463D01*
X189183815Y-75518815D01*
X189104463Y-75615506D01*
X189045498Y-75725820D01*
X189009188Y-75845518D01*
X188996928Y-75970000D01*
X188996928Y-78970000D01*
X189009188Y-79094482D01*
X189045498Y-79214180D01*
X189104463Y-79324494D01*
X189183815Y-79421185D01*
X189280506Y-79500537D01*
X189390820Y-79559502D01*
X189510518Y-79595812D01*
X189635000Y-79608072D01*
X192635000Y-79608072D01*
X192759482Y-79595812D01*
X192879180Y-79559502D01*
X192989494Y-79500537D01*
X193086185Y-79421185D01*
X193165537Y-79324494D01*
X193224502Y-79214180D01*
X193260812Y-79094482D01*
X193273072Y-78970000D01*
X193273072Y-75970000D01*
X193260812Y-75845518D01*
X193224502Y-75725820D01*
X193165537Y-75615506D01*
X193086185Y-75518815D01*
X192989494Y-75439463D01*
X192879180Y-75380498D01*
X192759482Y-75344188D01*
X192635000Y-75331928D01*
X191789326Y-75331928D01*
X191769974Y-75295724D01*
X191675001Y-75179999D01*
X191646004Y-75156202D01*
X179510203Y-63020402D01*
X179486400Y-62991398D01*
X179484697Y-62990000D01*
X181930199Y-62990000D01*
X189186140Y-70245942D01*
X189082047Y-70497244D01*
X189000000Y-70909721D01*
X189000000Y-71330279D01*
X189082047Y-71742756D01*
X189242988Y-72131302D01*
X189476637Y-72480983D01*
X189774017Y-72778363D01*
X190123698Y-73012012D01*
X190512244Y-73172953D01*
X190924721Y-73255000D01*
X191345279Y-73255000D01*
X191757756Y-73172953D01*
X192146302Y-73012012D01*
X192495983Y-72778363D01*
X192793363Y-72480983D01*
X193027012Y-72131302D01*
X193187953Y-71742756D01*
X193270000Y-71330279D01*
X193270000Y-70909721D01*
X193187953Y-70497244D01*
X193027012Y-70108698D01*
X192793363Y-69759017D01*
X192495983Y-69461637D01*
X192146302Y-69227988D01*
X191757756Y-69067047D01*
X191345279Y-68985000D01*
X190924721Y-68985000D01*
X190512244Y-69067047D01*
X190260942Y-69171140D01*
X182841200Y-61751399D01*
X185771598Y-61751399D01*
X189123998Y-65103800D01*
X189124003Y-65103804D01*
X189186140Y-65165941D01*
X189082047Y-65417244D01*
X189000000Y-65829721D01*
X189000000Y-66250279D01*
X189082047Y-66662756D01*
X189242988Y-67051302D01*
X189476637Y-67400983D01*
X189774017Y-67698363D01*
X190123698Y-67932012D01*
X190512244Y-68092953D01*
X190924721Y-68175000D01*
X191345279Y-68175000D01*
X191757756Y-68092953D01*
X192146302Y-67932012D01*
X192495983Y-67698363D01*
X192793363Y-67400983D01*
X193027012Y-67051302D01*
X193187953Y-66662756D01*
X193270000Y-66250279D01*
X193270000Y-65829721D01*
X193187953Y-65417244D01*
X193027012Y-65028698D01*
X192793363Y-64679017D01*
X192495983Y-64381637D01*
X192146302Y-64147988D01*
X191757756Y-63987047D01*
X191345279Y-63905000D01*
X190924721Y-63905000D01*
X190512244Y-63987047D01*
X190260941Y-64091140D01*
X190198804Y-64029003D01*
X190198800Y-64028998D01*
X186650203Y-60480402D01*
X186626400Y-60451398D01*
X186624697Y-60450000D01*
X189059618Y-60450000D01*
X189000000Y-60749721D01*
X189000000Y-61170279D01*
X189082047Y-61582756D01*
X189242988Y-61971302D01*
X189476637Y-62320983D01*
X189774017Y-62618363D01*
X190123698Y-62852012D01*
X190512244Y-63012953D01*
X190924721Y-63095000D01*
X191345279Y-63095000D01*
X191757756Y-63012953D01*
X192146302Y-62852012D01*
X192495983Y-62618363D01*
X192793363Y-62320983D01*
X193027012Y-61971302D01*
X193187953Y-61582756D01*
X193270000Y-61170279D01*
X193270000Y-60749721D01*
X193187953Y-60337244D01*
X193027012Y-59948698D01*
X192793363Y-59599017D01*
X192495983Y-59301637D01*
X192146302Y-59067988D01*
X191757756Y-58907047D01*
X191345279Y-58825000D01*
X191014801Y-58825000D01*
X191646004Y-58193798D01*
X191675001Y-58170001D01*
X191769974Y-58054276D01*
X191789326Y-58018072D01*
X192635000Y-58018072D01*
X192759482Y-58005812D01*
X192879180Y-57969502D01*
X192989494Y-57910537D01*
X193086185Y-57831185D01*
X193165537Y-57734494D01*
X193224502Y-57624180D01*
X193260812Y-57504482D01*
X193273072Y-57380000D01*
X193273072Y-54380000D01*
X193260812Y-54255518D01*
X193224502Y-54135820D01*
X193165537Y-54025506D01*
X193086185Y-53928815D01*
X192989494Y-53849463D01*
X192879180Y-53790498D01*
X192759482Y-53754188D01*
X192635000Y-53741928D01*
X189635000Y-53741928D01*
X189510518Y-53754188D01*
X189390820Y-53790498D01*
X189280506Y-53849463D01*
X189183815Y-53928815D01*
X189104463Y-54025506D01*
X189045498Y-54135820D01*
X189009188Y-54255518D01*
X188996928Y-54380000D01*
X188996928Y-57380000D01*
X189009188Y-57504482D01*
X189045498Y-57624180D01*
X189081428Y-57691399D01*
X184053298Y-57691399D01*
X184055001Y-57690001D01*
X184078804Y-57660997D01*
X190260942Y-51478860D01*
X190512244Y-51582953D01*
X190924721Y-51665000D01*
X191345279Y-51665000D01*
X191757756Y-51582953D01*
X192146302Y-51422012D01*
X192495983Y-51188363D01*
X192793363Y-50890983D01*
X193027012Y-50541302D01*
X193187953Y-50152756D01*
X193270000Y-49740279D01*
X193270000Y-49319721D01*
X193187953Y-48907244D01*
X193027012Y-48518698D01*
X192793363Y-48169017D01*
X192495983Y-47871637D01*
X192146302Y-47637988D01*
X191757756Y-47477047D01*
X191345279Y-47395000D01*
X190924721Y-47395000D01*
X190512244Y-47477047D01*
X190123698Y-47637988D01*
X189774017Y-47871637D01*
X189476637Y-48169017D01*
X189242988Y-48518698D01*
X189082047Y-48907244D01*
X189000000Y-49319721D01*
X189000000Y-49740279D01*
X189082047Y-50152756D01*
X189186140Y-50404058D01*
X183200199Y-56390000D01*
X180269801Y-56390000D01*
X190198800Y-46461002D01*
X190198804Y-46460997D01*
X190260941Y-46398860D01*
X190512244Y-46502953D01*
X190924721Y-46585000D01*
X191345279Y-46585000D01*
X191757756Y-46502953D01*
X192146302Y-46342012D01*
X192495983Y-46108363D01*
X192793363Y-45810983D01*
X193027012Y-45461302D01*
X193187953Y-45072756D01*
X193270000Y-44660279D01*
X193270000Y-44239721D01*
X193187953Y-43827244D01*
X193027012Y-43438698D01*
X192793363Y-43089017D01*
X192495983Y-42791637D01*
X192146302Y-42557988D01*
X191757756Y-42397047D01*
X191345279Y-42315000D01*
X190924721Y-42315000D01*
X190512244Y-42397047D01*
X190123698Y-42557988D01*
X189774017Y-42791637D01*
X189476637Y-43089017D01*
X189242988Y-43438698D01*
X189082047Y-43827244D01*
X189000000Y-44239721D01*
X189000000Y-44660279D01*
X189082047Y-45072756D01*
X189186140Y-45324059D01*
X189124003Y-45386196D01*
X189123998Y-45386200D01*
X179358800Y-55151399D01*
X176433298Y-55151399D01*
X176435001Y-55150001D01*
X176458804Y-55120997D01*
X190260942Y-41318860D01*
X190512244Y-41422953D01*
X190924721Y-41505000D01*
X191345279Y-41505000D01*
X191757756Y-41422953D01*
X192146302Y-41262012D01*
X192495983Y-41028363D01*
X192793363Y-40730983D01*
X193027012Y-40381302D01*
X193187953Y-39992756D01*
X193270000Y-39580279D01*
X193270000Y-39159721D01*
X193187953Y-38747244D01*
X193027012Y-38358698D01*
X192793363Y-38009017D01*
X192495983Y-37711637D01*
X192146302Y-37477988D01*
X191757756Y-37317047D01*
X191345279Y-37235000D01*
X191014802Y-37235000D01*
X191646004Y-36603798D01*
X191675001Y-36580001D01*
X191769974Y-36464276D01*
X191789326Y-36428072D01*
X192635000Y-36428072D01*
X192759482Y-36415812D01*
X192879180Y-36379502D01*
X192989494Y-36320537D01*
X193086185Y-36241185D01*
X193165537Y-36144494D01*
X193224502Y-36034180D01*
X193260812Y-35914482D01*
X193273072Y-35790000D01*
X193273072Y-32799872D01*
X242705000Y-32799872D01*
X242705000Y-33240128D01*
X242790890Y-33671925D01*
X242959369Y-34078669D01*
X243203962Y-34444729D01*
X243515271Y-34756038D01*
X243881331Y-35000631D01*
X244288075Y-35169110D01*
X244719872Y-35255000D01*
X245160128Y-35255000D01*
X245591925Y-35169110D01*
X245998669Y-35000631D01*
X246364729Y-34756038D01*
X246676038Y-34444729D01*
X246920631Y-34078669D01*
X247089110Y-33671925D01*
X247175000Y-33240128D01*
X247175000Y-32799872D01*
X247089110Y-32368075D01*
X246920631Y-31961331D01*
X246676038Y-31595271D01*
X246364729Y-31283962D01*
X245998669Y-31039369D01*
X245591925Y-30870890D01*
X245160128Y-30785000D01*
X244719872Y-30785000D01*
X244288075Y-30870890D01*
X243881331Y-31039369D01*
X243515271Y-31283962D01*
X243203962Y-31595271D01*
X242959369Y-31961331D01*
X242790890Y-32368075D01*
X242705000Y-32799872D01*
X193273072Y-32799872D01*
X193273072Y-32790000D01*
X193260812Y-32665518D01*
X193224502Y-32545820D01*
X193165537Y-32435506D01*
X193086185Y-32338815D01*
X192989494Y-32259463D01*
X192879180Y-32200498D01*
X192759482Y-32164188D01*
X192635000Y-32151928D01*
X189635000Y-32151928D01*
X189510518Y-32164188D01*
X189390820Y-32200498D01*
X189280506Y-32259463D01*
X189183815Y-32338815D01*
X189104463Y-32435506D01*
X189045498Y-32545820D01*
X189009188Y-32665518D01*
X188996928Y-32790000D01*
X188996928Y-35790000D01*
X189009188Y-35914482D01*
X189045498Y-36034180D01*
X189104463Y-36144494D01*
X189183815Y-36241185D01*
X189280506Y-36320537D01*
X189390820Y-36379502D01*
X189510518Y-36415812D01*
X189635000Y-36428072D01*
X189672126Y-36428072D01*
X173520199Y-52580000D01*
X157517322Y-52580000D01*
X157479999Y-52576324D01*
X157442676Y-52580000D01*
X157442667Y-52580000D01*
X157331014Y-52590997D01*
X157187753Y-52634454D01*
X157055724Y-52705026D01*
X156939999Y-52799999D01*
X156916201Y-52828997D01*
X156636870Y-53108328D01*
X155346400Y-53108328D01*
X155221918Y-53120588D01*
X155102220Y-53156898D01*
X154991906Y-53215863D01*
X154895215Y-53295215D01*
X154815863Y-53391906D01*
X154756898Y-53502220D01*
X154720588Y-53621918D01*
X154708328Y-53746400D01*
X147980000Y-53746400D01*
X147980000Y-32799872D01*
X152705000Y-32799872D01*
X152705000Y-33240128D01*
X152790890Y-33671925D01*
X152959369Y-34078669D01*
X153203962Y-34444729D01*
X153515271Y-34756038D01*
X153881331Y-35000631D01*
X154288075Y-35169110D01*
X154719872Y-35255000D01*
X155160128Y-35255000D01*
X155591925Y-35169110D01*
X155998669Y-35000631D01*
X156364729Y-34756038D01*
X156676038Y-34444729D01*
X156920631Y-34078669D01*
X157089110Y-33671925D01*
X157175000Y-33240128D01*
X157175000Y-32799872D01*
X157089110Y-32368075D01*
X156920631Y-31961331D01*
X156676038Y-31595271D01*
X156364729Y-31283962D01*
X155998669Y-31039369D01*
X155591925Y-30870890D01*
X155160128Y-30785000D01*
X154719872Y-30785000D01*
X154288075Y-30870890D01*
X153881331Y-31039369D01*
X153515271Y-31283962D01*
X153203962Y-31595271D01*
X152959369Y-31961331D01*
X152790890Y-32368075D01*
X152705000Y-32799872D01*
X147980000Y-32799872D01*
X147980000Y-26060000D01*
X258420000Y-26060000D01*
X258420001Y-39337572D01*
G37*
X258420001Y-39337572D02*
X258420000Y-39337582D01*
X258420001Y-119990000D01*
X147980000Y-119990000D01*
X147980000Y-112799872D01*
X152705000Y-112799872D01*
X152705000Y-113240128D01*
X152790890Y-113671925D01*
X152959369Y-114078669D01*
X153203962Y-114444729D01*
X153515271Y-114756038D01*
X153881331Y-115000631D01*
X154288075Y-115169110D01*
X154719872Y-115255000D01*
X155160128Y-115255000D01*
X155591925Y-115169110D01*
X155998669Y-115000631D01*
X156364729Y-114756038D01*
X156676038Y-114444729D01*
X156920631Y-114078669D01*
X157089110Y-113671925D01*
X157175000Y-113240128D01*
X157175000Y-112799872D01*
X157089110Y-112368075D01*
X156920631Y-111961331D01*
X156676038Y-111595271D01*
X156364729Y-111283962D01*
X155998669Y-111039369D01*
X155591925Y-110870890D01*
X155160128Y-110785000D01*
X154719872Y-110785000D01*
X154288075Y-110870890D01*
X153881331Y-111039369D01*
X153515271Y-111283962D01*
X153203962Y-111595271D01*
X152959369Y-111961331D01*
X152790890Y-112368075D01*
X152705000Y-112799872D01*
X147980000Y-112799872D01*
X147980000Y-92562401D01*
X154711400Y-92562401D01*
X154711400Y-92857599D01*
X154768990Y-93147125D01*
X154881958Y-93419853D01*
X155045961Y-93665302D01*
X155254698Y-93874039D01*
X155500147Y-94038042D01*
X155772875Y-94151010D01*
X156062401Y-94208600D01*
X156357599Y-94208600D01*
X156647125Y-94151010D01*
X156919853Y-94038042D01*
X157165302Y-93874039D01*
X157374039Y-93665302D01*
X157480000Y-93506719D01*
X157585961Y-93665302D01*
X157794698Y-93874039D01*
X158040147Y-94038042D01*
X158312875Y-94151010D01*
X158602401Y-94208600D01*
X158897599Y-94208600D01*
X159187125Y-94151010D01*
X159459853Y-94038042D01*
X159705302Y-93874039D01*
X159882927Y-93696414D01*
X173825000Y-107638488D01*
X173825001Y-111602405D01*
X173755986Y-111639294D01*
X173529866Y-111824866D01*
X173344294Y-112050987D01*
X173206401Y-112308967D01*
X173121487Y-112588890D01*
X173100000Y-112807051D01*
X173100000Y-113252950D01*
X173121487Y-113471111D01*
X173206401Y-113751034D01*
X173344294Y-114009014D01*
X173529866Y-114235134D01*
X173755987Y-114420706D01*
X174013967Y-114558599D01*
X174293890Y-114643513D01*
X174585000Y-114672185D01*
X174876111Y-114643513D01*
X175156034Y-114558599D01*
X175414014Y-114420706D01*
X175640134Y-114235134D01*
X175825706Y-114009014D01*
X175963599Y-113751033D01*
X176048513Y-113471110D01*
X176070000Y-113252949D01*
X176070000Y-112807050D01*
X176048513Y-112588889D01*
X175963599Y-112308966D01*
X175825706Y-112050986D01*
X175640134Y-111824866D01*
X175414013Y-111639294D01*
X175345000Y-111602406D01*
X175345000Y-107361009D01*
X175348676Y-107323686D01*
X175345000Y-107286363D01*
X175345000Y-107286353D01*
X175334003Y-107174700D01*
X175290546Y-107031439D01*
X175219975Y-106899411D01*
X175219974Y-106899409D01*
X175148799Y-106812683D01*
X175125001Y-106783685D01*
X175096004Y-106759888D01*
X160535118Y-92199003D01*
X160511315Y-92169999D01*
X160395590Y-92075026D01*
X160263561Y-92004454D01*
X160120300Y-91960997D01*
X160047063Y-91953784D01*
X159914039Y-91754698D01*
X159705302Y-91545961D01*
X159459853Y-91381958D01*
X159187125Y-91268990D01*
X158897599Y-91211400D01*
X158602401Y-91211400D01*
X158312875Y-91268990D01*
X158040147Y-91381958D01*
X157794698Y-91545961D01*
X157585961Y-91754698D01*
X157480000Y-91913281D01*
X157374039Y-91754698D01*
X157165302Y-91545961D01*
X156919853Y-91381958D01*
X156647125Y-91268990D01*
X156357599Y-91211400D01*
X156062401Y-91211400D01*
X155772875Y-91268990D01*
X155500147Y-91381958D01*
X155254698Y-91545961D01*
X155045961Y-91754698D01*
X154881958Y-92000147D01*
X154768990Y-92272875D01*
X154711400Y-92562401D01*
X147980000Y-92562401D01*
X147980000Y-79146400D01*
X154708328Y-79146400D01*
X154708328Y-80873600D01*
X154720588Y-80998082D01*
X154756898Y-81117780D01*
X154815863Y-81228094D01*
X154895215Y-81324785D01*
X154991906Y-81404137D01*
X155102220Y-81463102D01*
X155160023Y-81480636D01*
X155045961Y-81594698D01*
X154881958Y-81840147D01*
X154768990Y-82112875D01*
X154711400Y-82402401D01*
X154711400Y-82697599D01*
X154768990Y-82987125D01*
X154881958Y-83259853D01*
X155045961Y-83505302D01*
X155254698Y-83714039D01*
X155500147Y-83878042D01*
X155772875Y-83991010D01*
X156062401Y-84048600D01*
X156357599Y-84048600D01*
X156647125Y-83991010D01*
X156919853Y-83878042D01*
X157165302Y-83714039D01*
X157374039Y-83505302D01*
X157480000Y-83346719D01*
X157585961Y-83505302D01*
X157794698Y-83714039D01*
X158040147Y-83878042D01*
X158312875Y-83991010D01*
X158602401Y-84048600D01*
X158897599Y-84048600D01*
X159187125Y-83991010D01*
X159459853Y-83878042D01*
X159566789Y-83806590D01*
X189186140Y-113425942D01*
X189082047Y-113677244D01*
X189000000Y-114089721D01*
X189000000Y-114510279D01*
X189082047Y-114922756D01*
X189242988Y-115311302D01*
X189476637Y-115660983D01*
X189774017Y-115958363D01*
X190123698Y-116192012D01*
X190512244Y-116352953D01*
X190924721Y-116435000D01*
X191345279Y-116435000D01*
X191757756Y-116352953D01*
X192146302Y-116192012D01*
X192495983Y-115958363D01*
X192793363Y-115660983D01*
X193027012Y-115311302D01*
X193187953Y-114922756D01*
X193270000Y-114510279D01*
X193270000Y-114089721D01*
X193187953Y-113677244D01*
X193027012Y-113288698D01*
X192793363Y-112939017D01*
X192654218Y-112799872D01*
X242705000Y-112799872D01*
X242705000Y-113240128D01*
X242790890Y-113671925D01*
X242959369Y-114078669D01*
X243203962Y-114444729D01*
X243515271Y-114756038D01*
X243881331Y-115000631D01*
X244288075Y-115169110D01*
X244719872Y-115255000D01*
X245160128Y-115255000D01*
X245591925Y-115169110D01*
X245998669Y-115000631D01*
X246364729Y-114756038D01*
X246676038Y-114444729D01*
X246920631Y-114078669D01*
X247089110Y-113671925D01*
X247175000Y-113240128D01*
X247175000Y-112799872D01*
X247089110Y-112368075D01*
X246920631Y-111961331D01*
X246676038Y-111595271D01*
X246364729Y-111283962D01*
X245998669Y-111039369D01*
X245591925Y-110870890D01*
X245160128Y-110785000D01*
X244719872Y-110785000D01*
X244288075Y-110870890D01*
X243881331Y-111039369D01*
X243515271Y-111283962D01*
X243203962Y-111595271D01*
X242959369Y-111961331D01*
X242790890Y-112368075D01*
X242705000Y-112799872D01*
X192654218Y-112799872D01*
X192495983Y-112641637D01*
X192146302Y-112407988D01*
X191757756Y-112247047D01*
X191345279Y-112165000D01*
X190924721Y-112165000D01*
X190512244Y-112247047D01*
X190260942Y-112351140D01*
X160232808Y-82323007D01*
X160191010Y-82112875D01*
X160173830Y-82071399D01*
X162911598Y-82071399D01*
X189186140Y-108345942D01*
X189082047Y-108597244D01*
X189000000Y-109009721D01*
X189000000Y-109430279D01*
X189082047Y-109842756D01*
X189242988Y-110231302D01*
X189476637Y-110580983D01*
X189774017Y-110878363D01*
X190123698Y-111112012D01*
X190512244Y-111272953D01*
X190924721Y-111355000D01*
X191345279Y-111355000D01*
X191757756Y-111272953D01*
X192146302Y-111112012D01*
X192495983Y-110878363D01*
X192793363Y-110580983D01*
X193027012Y-110231302D01*
X193187953Y-109842756D01*
X193270000Y-109430279D01*
X193270000Y-109009721D01*
X193187953Y-108597244D01*
X193027012Y-108208698D01*
X192793363Y-107859017D01*
X192495983Y-107561637D01*
X192146302Y-107327988D01*
X191757756Y-107167047D01*
X191345279Y-107085000D01*
X190924721Y-107085000D01*
X190512244Y-107167047D01*
X190260942Y-107271140D01*
X163790203Y-80800402D01*
X163766400Y-80771398D01*
X163764697Y-80770000D01*
X166690199Y-80770000D01*
X189186140Y-103265942D01*
X189082047Y-103517244D01*
X189000000Y-103929721D01*
X189000000Y-104350279D01*
X189082047Y-104762756D01*
X189242988Y-105151302D01*
X189476637Y-105500983D01*
X189774017Y-105798363D01*
X190123698Y-106032012D01*
X190512244Y-106192953D01*
X190924721Y-106275000D01*
X191345279Y-106275000D01*
X191757756Y-106192953D01*
X192146302Y-106032012D01*
X192495983Y-105798363D01*
X192793363Y-105500983D01*
X193027012Y-105151302D01*
X193187953Y-104762756D01*
X193270000Y-104350279D01*
X193270000Y-103929721D01*
X193187953Y-103517244D01*
X193027012Y-103128698D01*
X192793363Y-102779017D01*
X192495983Y-102481637D01*
X192146302Y-102247988D01*
X191757756Y-102087047D01*
X191345279Y-102005000D01*
X190924721Y-102005000D01*
X190512244Y-102087047D01*
X190260942Y-102191140D01*
X167601200Y-79531399D01*
X168781598Y-79531399D01*
X188821201Y-99571003D01*
X188844999Y-99600001D01*
X188960724Y-99694974D01*
X188996928Y-99714326D01*
X188996928Y-100560000D01*
X189009188Y-100684482D01*
X189045498Y-100804180D01*
X189104463Y-100914494D01*
X189183815Y-101011185D01*
X189280506Y-101090537D01*
X189390820Y-101149502D01*
X189510518Y-101185812D01*
X189635000Y-101198072D01*
X192635000Y-101198072D01*
X192759482Y-101185812D01*
X192879180Y-101149502D01*
X192989494Y-101090537D01*
X193086185Y-101011185D01*
X193165537Y-100914494D01*
X193224502Y-100804180D01*
X193260812Y-100684482D01*
X193273072Y-100560000D01*
X193273072Y-97560000D01*
X193260812Y-97435518D01*
X193224502Y-97315820D01*
X193165537Y-97205506D01*
X193086185Y-97108815D01*
X192989494Y-97029463D01*
X192879180Y-96970498D01*
X192759482Y-96934188D01*
X192635000Y-96921928D01*
X189635000Y-96921928D01*
X189510518Y-96934188D01*
X189390820Y-96970498D01*
X189280506Y-97029463D01*
X189183815Y-97108815D01*
X189104463Y-97205506D01*
X189045498Y-97315820D01*
X189009188Y-97435518D01*
X188996928Y-97560000D01*
X188996928Y-97597126D01*
X169660203Y-78260402D01*
X169636400Y-78231398D01*
X169520675Y-78136425D01*
X169388646Y-78065853D01*
X169245385Y-78022396D01*
X169133732Y-78011399D01*
X169133721Y-78011399D01*
X169096399Y-78007723D01*
X169059077Y-78011399D01*
X156372323Y-78011399D01*
X156335000Y-78007723D01*
X156297678Y-78011399D01*
X156297668Y-78011399D01*
X156186015Y-78022396D01*
X156042754Y-78065853D01*
X155910725Y-78136425D01*
X155795000Y-78231398D01*
X155771197Y-78260402D01*
X155699003Y-78332596D01*
X155669999Y-78356399D01*
X155614871Y-78423574D01*
X155575026Y-78472124D01*
X155555674Y-78508328D01*
X155346400Y-78508328D01*
X155221918Y-78520588D01*
X155102220Y-78556898D01*
X154991906Y-78615863D01*
X154895215Y-78695215D01*
X154815863Y-78791906D01*
X154756898Y-78902220D01*
X154720588Y-79021918D01*
X154708328Y-79146400D01*
X147980000Y-79146400D01*
X147980000Y-53746400D01*
X154708328Y-53746400D01*
X154708328Y-55473600D01*
X154720588Y-55598082D01*
X154756898Y-55717780D01*
X154815863Y-55828094D01*
X154895215Y-55924785D01*
X154991906Y-56004137D01*
X155102220Y-56063102D01*
X155160023Y-56080636D01*
X155045961Y-56194698D01*
X154881958Y-56440147D01*
X154768990Y-56712875D01*
X154711400Y-57002401D01*
X154711400Y-57297599D01*
X154768990Y-57587125D01*
X154881958Y-57859853D01*
X155045961Y-58105302D01*
X155254698Y-58314039D01*
X155413281Y-58420000D01*
X155254698Y-58525961D01*
X155045961Y-58734698D01*
X154881958Y-58980147D01*
X154768990Y-59252875D01*
X154711400Y-59542401D01*
X154711400Y-59837599D01*
X154768990Y-60127125D01*
X154881958Y-60399853D01*
X155045961Y-60645302D01*
X155254698Y-60854039D01*
X155413281Y-60960000D01*
X155254698Y-61065961D01*
X155045961Y-61274698D01*
X154881958Y-61520147D01*
X154768990Y-61792875D01*
X154711400Y-62082401D01*
X154711400Y-62377599D01*
X154768990Y-62667125D01*
X154881958Y-62939853D01*
X155045961Y-63185302D01*
X155254698Y-63394039D01*
X155413281Y-63500000D01*
X155254698Y-63605961D01*
X155045961Y-63814698D01*
X154881958Y-64060147D01*
X154768990Y-64332875D01*
X154711400Y-64622401D01*
X154711400Y-64917599D01*
X154768990Y-65207125D01*
X154881958Y-65479853D01*
X155045961Y-65725302D01*
X155254698Y-65934039D01*
X155413281Y-66040000D01*
X155254698Y-66145961D01*
X155045961Y-66354698D01*
X154881958Y-66600147D01*
X154768990Y-66872875D01*
X154711400Y-67162401D01*
X154711400Y-67457599D01*
X154768990Y-67747125D01*
X154881958Y-68019853D01*
X155045961Y-68265302D01*
X155254698Y-68474039D01*
X155500147Y-68638042D01*
X155772875Y-68751010D01*
X156062401Y-68808600D01*
X156357599Y-68808600D01*
X156647125Y-68751010D01*
X156919853Y-68638042D01*
X157165302Y-68474039D01*
X157374039Y-68265302D01*
X157480000Y-68106719D01*
X157585961Y-68265302D01*
X157794698Y-68474039D01*
X158040147Y-68638042D01*
X158312875Y-68751010D01*
X158602401Y-68808600D01*
X158897599Y-68808600D01*
X159187125Y-68751010D01*
X159459853Y-68638042D01*
X159705302Y-68474039D01*
X159914039Y-68265302D01*
X160044535Y-68070000D01*
X165420199Y-68070000D01*
X189186140Y-91835942D01*
X189082047Y-92087244D01*
X189000000Y-92499721D01*
X189000000Y-92920279D01*
X189082047Y-93332756D01*
X189242988Y-93721302D01*
X189476637Y-94070983D01*
X189774017Y-94368363D01*
X190123698Y-94602012D01*
X190512244Y-94762953D01*
X190924721Y-94845000D01*
X191345279Y-94845000D01*
X191757756Y-94762953D01*
X192146302Y-94602012D01*
X192495983Y-94368363D01*
X192793363Y-94070983D01*
X193027012Y-93721302D01*
X193187953Y-93332756D01*
X193270000Y-92920279D01*
X193270000Y-92499721D01*
X193187953Y-92087244D01*
X193027012Y-91698698D01*
X192793363Y-91349017D01*
X192495983Y-91051637D01*
X192146302Y-90817988D01*
X191757756Y-90657047D01*
X191345279Y-90575000D01*
X190924721Y-90575000D01*
X190512244Y-90657047D01*
X190260942Y-90761140D01*
X166331200Y-66831399D01*
X169261598Y-66831399D01*
X189123998Y-86693800D01*
X189124003Y-86693804D01*
X189186140Y-86755941D01*
X189082047Y-87007244D01*
X189000000Y-87419721D01*
X189000000Y-87840279D01*
X189082047Y-88252756D01*
X189242988Y-88641302D01*
X189476637Y-88990983D01*
X189774017Y-89288363D01*
X190123698Y-89522012D01*
X190512244Y-89682953D01*
X190924721Y-89765000D01*
X191345279Y-89765000D01*
X191757756Y-89682953D01*
X192146302Y-89522012D01*
X192495983Y-89288363D01*
X192793363Y-88990983D01*
X193027012Y-88641302D01*
X193187953Y-88252756D01*
X193270000Y-87840279D01*
X193270000Y-87419721D01*
X193187953Y-87007244D01*
X193027012Y-86618698D01*
X192793363Y-86269017D01*
X192495983Y-85971637D01*
X192146302Y-85737988D01*
X191757756Y-85577047D01*
X191345279Y-85495000D01*
X190924721Y-85495000D01*
X190512244Y-85577047D01*
X190260941Y-85681140D01*
X190198804Y-85619003D01*
X190198800Y-85618998D01*
X170140203Y-65560402D01*
X170116400Y-65531398D01*
X170114697Y-65530000D01*
X173040199Y-65530000D01*
X189186140Y-81675942D01*
X189082047Y-81927244D01*
X189000000Y-82339721D01*
X189000000Y-82760279D01*
X189082047Y-83172756D01*
X189242988Y-83561302D01*
X189476637Y-83910983D01*
X189774017Y-84208363D01*
X190123698Y-84442012D01*
X190512244Y-84602953D01*
X190924721Y-84685000D01*
X191345279Y-84685000D01*
X191757756Y-84602953D01*
X192146302Y-84442012D01*
X192495983Y-84208363D01*
X192793363Y-83910983D01*
X193027012Y-83561302D01*
X193187953Y-83172756D01*
X193270000Y-82760279D01*
X193270000Y-82339721D01*
X193187953Y-81927244D01*
X193027012Y-81538698D01*
X192793363Y-81189017D01*
X192495983Y-80891637D01*
X192146302Y-80657988D01*
X191757756Y-80497047D01*
X191345279Y-80415000D01*
X190924721Y-80415000D01*
X190512244Y-80497047D01*
X190260942Y-80601140D01*
X173951200Y-64291399D01*
X178631598Y-64291399D01*
X189672126Y-75331928D01*
X189635000Y-75331928D01*
X189510518Y-75344188D01*
X189390820Y-75380498D01*
X189280506Y-75439463D01*
X189183815Y-75518815D01*
X189104463Y-75615506D01*
X189045498Y-75725820D01*
X189009188Y-75845518D01*
X188996928Y-75970000D01*
X188996928Y-78970000D01*
X189009188Y-79094482D01*
X189045498Y-79214180D01*
X189104463Y-79324494D01*
X189183815Y-79421185D01*
X189280506Y-79500537D01*
X189390820Y-79559502D01*
X189510518Y-79595812D01*
X189635000Y-79608072D01*
X192635000Y-79608072D01*
X192759482Y-79595812D01*
X192879180Y-79559502D01*
X192989494Y-79500537D01*
X193086185Y-79421185D01*
X193165537Y-79324494D01*
X193224502Y-79214180D01*
X193260812Y-79094482D01*
X193273072Y-78970000D01*
X193273072Y-75970000D01*
X193260812Y-75845518D01*
X193224502Y-75725820D01*
X193165537Y-75615506D01*
X193086185Y-75518815D01*
X192989494Y-75439463D01*
X192879180Y-75380498D01*
X192759482Y-75344188D01*
X192635000Y-75331928D01*
X191789326Y-75331928D01*
X191769974Y-75295724D01*
X191675001Y-75179999D01*
X191646004Y-75156202D01*
X179510203Y-63020402D01*
X179486400Y-62991398D01*
X179484697Y-62990000D01*
X181930199Y-62990000D01*
X189186140Y-70245942D01*
X189082047Y-70497244D01*
X189000000Y-70909721D01*
X189000000Y-71330279D01*
X189082047Y-71742756D01*
X189242988Y-72131302D01*
X189476637Y-72480983D01*
X189774017Y-72778363D01*
X190123698Y-73012012D01*
X190512244Y-73172953D01*
X190924721Y-73255000D01*
X191345279Y-73255000D01*
X191757756Y-73172953D01*
X192146302Y-73012012D01*
X192495983Y-72778363D01*
X192793363Y-72480983D01*
X193027012Y-72131302D01*
X193187953Y-71742756D01*
X193270000Y-71330279D01*
X193270000Y-70909721D01*
X193187953Y-70497244D01*
X193027012Y-70108698D01*
X192793363Y-69759017D01*
X192495983Y-69461637D01*
X192146302Y-69227988D01*
X191757756Y-69067047D01*
X191345279Y-68985000D01*
X190924721Y-68985000D01*
X190512244Y-69067047D01*
X190260942Y-69171140D01*
X182841200Y-61751399D01*
X185771598Y-61751399D01*
X189123998Y-65103800D01*
X189124003Y-65103804D01*
X189186140Y-65165941D01*
X189082047Y-65417244D01*
X189000000Y-65829721D01*
X189000000Y-66250279D01*
X189082047Y-66662756D01*
X189242988Y-67051302D01*
X189476637Y-67400983D01*
X189774017Y-67698363D01*
X190123698Y-67932012D01*
X190512244Y-68092953D01*
X190924721Y-68175000D01*
X191345279Y-68175000D01*
X191757756Y-68092953D01*
X192146302Y-67932012D01*
X192495983Y-67698363D01*
X192793363Y-67400983D01*
X193027012Y-67051302D01*
X193187953Y-66662756D01*
X193270000Y-66250279D01*
X193270000Y-65829721D01*
X193187953Y-65417244D01*
X193027012Y-65028698D01*
X192793363Y-64679017D01*
X192495983Y-64381637D01*
X192146302Y-64147988D01*
X191757756Y-63987047D01*
X191345279Y-63905000D01*
X190924721Y-63905000D01*
X190512244Y-63987047D01*
X190260941Y-64091140D01*
X190198804Y-64029003D01*
X190198800Y-64028998D01*
X186650203Y-60480402D01*
X186626400Y-60451398D01*
X186624697Y-60450000D01*
X189059618Y-60450000D01*
X189000000Y-60749721D01*
X189000000Y-61170279D01*
X189082047Y-61582756D01*
X189242988Y-61971302D01*
X189476637Y-62320983D01*
X189774017Y-62618363D01*
X190123698Y-62852012D01*
X190512244Y-63012953D01*
X190924721Y-63095000D01*
X191345279Y-63095000D01*
X191757756Y-63012953D01*
X192146302Y-62852012D01*
X192495983Y-62618363D01*
X192793363Y-62320983D01*
X193027012Y-61971302D01*
X193187953Y-61582756D01*
X193270000Y-61170279D01*
X193270000Y-60749721D01*
X193187953Y-60337244D01*
X193027012Y-59948698D01*
X192793363Y-59599017D01*
X192495983Y-59301637D01*
X192146302Y-59067988D01*
X191757756Y-58907047D01*
X191345279Y-58825000D01*
X191014801Y-58825000D01*
X191646004Y-58193798D01*
X191675001Y-58170001D01*
X191769974Y-58054276D01*
X191789326Y-58018072D01*
X192635000Y-58018072D01*
X192759482Y-58005812D01*
X192879180Y-57969502D01*
X192989494Y-57910537D01*
X193086185Y-57831185D01*
X193165537Y-57734494D01*
X193224502Y-57624180D01*
X193260812Y-57504482D01*
X193273072Y-57380000D01*
X193273072Y-54380000D01*
X193260812Y-54255518D01*
X193224502Y-54135820D01*
X193165537Y-54025506D01*
X193086185Y-53928815D01*
X192989494Y-53849463D01*
X192879180Y-53790498D01*
X192759482Y-53754188D01*
X192635000Y-53741928D01*
X189635000Y-53741928D01*
X189510518Y-53754188D01*
X189390820Y-53790498D01*
X189280506Y-53849463D01*
X189183815Y-53928815D01*
X189104463Y-54025506D01*
X189045498Y-54135820D01*
X189009188Y-54255518D01*
X188996928Y-54380000D01*
X188996928Y-57380000D01*
X189009188Y-57504482D01*
X189045498Y-57624180D01*
X189081428Y-57691399D01*
X184053298Y-57691399D01*
X184055001Y-57690001D01*
X184078804Y-57660997D01*
X190260942Y-51478860D01*
X190512244Y-51582953D01*
X190924721Y-51665000D01*
X191345279Y-51665000D01*
X191757756Y-51582953D01*
X192146302Y-51422012D01*
X192495983Y-51188363D01*
X192793363Y-50890983D01*
X193027012Y-50541302D01*
X193187953Y-50152756D01*
X193270000Y-49740279D01*
X193270000Y-49319721D01*
X193187953Y-48907244D01*
X193027012Y-48518698D01*
X192793363Y-48169017D01*
X192495983Y-47871637D01*
X192146302Y-47637988D01*
X191757756Y-47477047D01*
X191345279Y-47395000D01*
X190924721Y-47395000D01*
X190512244Y-47477047D01*
X190123698Y-47637988D01*
X189774017Y-47871637D01*
X189476637Y-48169017D01*
X189242988Y-48518698D01*
X189082047Y-48907244D01*
X189000000Y-49319721D01*
X189000000Y-49740279D01*
X189082047Y-50152756D01*
X189186140Y-50404058D01*
X183200199Y-56390000D01*
X180269801Y-56390000D01*
X190198800Y-46461002D01*
X190198804Y-46460997D01*
X190260941Y-46398860D01*
X190512244Y-46502953D01*
X190924721Y-46585000D01*
X191345279Y-46585000D01*
X191757756Y-46502953D01*
X192146302Y-46342012D01*
X192495983Y-46108363D01*
X192793363Y-45810983D01*
X193027012Y-45461302D01*
X193187953Y-45072756D01*
X193270000Y-44660279D01*
X193270000Y-44239721D01*
X193187953Y-43827244D01*
X193027012Y-43438698D01*
X192793363Y-43089017D01*
X192495983Y-42791637D01*
X192146302Y-42557988D01*
X191757756Y-42397047D01*
X191345279Y-42315000D01*
X190924721Y-42315000D01*
X190512244Y-42397047D01*
X190123698Y-42557988D01*
X189774017Y-42791637D01*
X189476637Y-43089017D01*
X189242988Y-43438698D01*
X189082047Y-43827244D01*
X189000000Y-44239721D01*
X189000000Y-44660279D01*
X189082047Y-45072756D01*
X189186140Y-45324059D01*
X189124003Y-45386196D01*
X189123998Y-45386200D01*
X179358800Y-55151399D01*
X176433298Y-55151399D01*
X176435001Y-55150001D01*
X176458804Y-55120997D01*
X190260942Y-41318860D01*
X190512244Y-41422953D01*
X190924721Y-41505000D01*
X191345279Y-41505000D01*
X191757756Y-41422953D01*
X192146302Y-41262012D01*
X192495983Y-41028363D01*
X192793363Y-40730983D01*
X193027012Y-40381302D01*
X193187953Y-39992756D01*
X193270000Y-39580279D01*
X193270000Y-39159721D01*
X193187953Y-38747244D01*
X193027012Y-38358698D01*
X192793363Y-38009017D01*
X192495983Y-37711637D01*
X192146302Y-37477988D01*
X191757756Y-37317047D01*
X191345279Y-37235000D01*
X191014802Y-37235000D01*
X191646004Y-36603798D01*
X191675001Y-36580001D01*
X191769974Y-36464276D01*
X191789326Y-36428072D01*
X192635000Y-36428072D01*
X192759482Y-36415812D01*
X192879180Y-36379502D01*
X192989494Y-36320537D01*
X193086185Y-36241185D01*
X193165537Y-36144494D01*
X193224502Y-36034180D01*
X193260812Y-35914482D01*
X193273072Y-35790000D01*
X193273072Y-32799872D01*
X242705000Y-32799872D01*
X242705000Y-33240128D01*
X242790890Y-33671925D01*
X242959369Y-34078669D01*
X243203962Y-34444729D01*
X243515271Y-34756038D01*
X243881331Y-35000631D01*
X244288075Y-35169110D01*
X244719872Y-35255000D01*
X245160128Y-35255000D01*
X245591925Y-35169110D01*
X245998669Y-35000631D01*
X246364729Y-34756038D01*
X246676038Y-34444729D01*
X246920631Y-34078669D01*
X247089110Y-33671925D01*
X247175000Y-33240128D01*
X247175000Y-32799872D01*
X247089110Y-32368075D01*
X246920631Y-31961331D01*
X246676038Y-31595271D01*
X246364729Y-31283962D01*
X245998669Y-31039369D01*
X245591925Y-30870890D01*
X245160128Y-30785000D01*
X244719872Y-30785000D01*
X244288075Y-30870890D01*
X243881331Y-31039369D01*
X243515271Y-31283962D01*
X243203962Y-31595271D01*
X242959369Y-31961331D01*
X242790890Y-32368075D01*
X242705000Y-32799872D01*
X193273072Y-32799872D01*
X193273072Y-32790000D01*
X193260812Y-32665518D01*
X193224502Y-32545820D01*
X193165537Y-32435506D01*
X193086185Y-32338815D01*
X192989494Y-32259463D01*
X192879180Y-32200498D01*
X192759482Y-32164188D01*
X192635000Y-32151928D01*
X189635000Y-32151928D01*
X189510518Y-32164188D01*
X189390820Y-32200498D01*
X189280506Y-32259463D01*
X189183815Y-32338815D01*
X189104463Y-32435506D01*
X189045498Y-32545820D01*
X189009188Y-32665518D01*
X188996928Y-32790000D01*
X188996928Y-35790000D01*
X189009188Y-35914482D01*
X189045498Y-36034180D01*
X189104463Y-36144494D01*
X189183815Y-36241185D01*
X189280506Y-36320537D01*
X189390820Y-36379502D01*
X189510518Y-36415812D01*
X189635000Y-36428072D01*
X189672126Y-36428072D01*
X173520199Y-52580000D01*
X157517322Y-52580000D01*
X157479999Y-52576324D01*
X157442676Y-52580000D01*
X157442667Y-52580000D01*
X157331014Y-52590997D01*
X157187753Y-52634454D01*
X157055724Y-52705026D01*
X156939999Y-52799999D01*
X156916201Y-52828997D01*
X156636870Y-53108328D01*
X155346400Y-53108328D01*
X155221918Y-53120588D01*
X155102220Y-53156898D01*
X154991906Y-53215863D01*
X154895215Y-53295215D01*
X154815863Y-53391906D01*
X154756898Y-53502220D01*
X154720588Y-53621918D01*
X154708328Y-53746400D01*
X147980000Y-53746400D01*
X147980000Y-32799872D01*
X152705000Y-32799872D01*
X152705000Y-33240128D01*
X152790890Y-33671925D01*
X152959369Y-34078669D01*
X153203962Y-34444729D01*
X153515271Y-34756038D01*
X153881331Y-35000631D01*
X154288075Y-35169110D01*
X154719872Y-35255000D01*
X155160128Y-35255000D01*
X155591925Y-35169110D01*
X155998669Y-35000631D01*
X156364729Y-34756038D01*
X156676038Y-34444729D01*
X156920631Y-34078669D01*
X157089110Y-33671925D01*
X157175000Y-33240128D01*
X157175000Y-32799872D01*
X157089110Y-32368075D01*
X156920631Y-31961331D01*
X156676038Y-31595271D01*
X156364729Y-31283962D01*
X155998669Y-31039369D01*
X155591925Y-30870890D01*
X155160128Y-30785000D01*
X154719872Y-30785000D01*
X154288075Y-30870890D01*
X153881331Y-31039369D01*
X153515271Y-31283962D01*
X153203962Y-31595271D01*
X152959369Y-31961331D01*
X152790890Y-32368075D01*
X152705000Y-32799872D01*
X147980000Y-32799872D01*
X147980000Y-26060000D01*
X258420000Y-26060000D01*
X258420001Y-39337572D01*
G36*
X258420001Y-39337572D02*
G01*
X258420000Y-39337582D01*
X258420001Y-119990000D01*
X147980000Y-119990000D01*
X147980000Y-112799872D01*
X152705000Y-112799872D01*
X152705000Y-113240128D01*
X152790890Y-113671925D01*
X152959369Y-114078669D01*
X153203962Y-114444729D01*
X153515271Y-114756038D01*
X153881331Y-115000631D01*
X154288075Y-115169110D01*
X154719872Y-115255000D01*
X155160128Y-115255000D01*
X155591925Y-115169110D01*
X155998669Y-115000631D01*
X156364729Y-114756038D01*
X156676038Y-114444729D01*
X156920631Y-114078669D01*
X156940790Y-114030000D01*
X170596928Y-114030000D01*
X170609188Y-114154482D01*
X170645498Y-114274180D01*
X170704463Y-114384494D01*
X170783815Y-114481185D01*
X170880506Y-114560537D01*
X170990820Y-114619502D01*
X171110518Y-114655812D01*
X171235000Y-114668072D01*
X171799250Y-114665000D01*
X171958000Y-114506250D01*
X171958000Y-113157000D01*
X170758750Y-113157000D01*
X170600000Y-113315750D01*
X170596928Y-114030000D01*
X156940790Y-114030000D01*
X157089110Y-113671925D01*
X157175000Y-113240128D01*
X157175000Y-112799872D01*
X157089110Y-112368075D01*
X156949075Y-112030000D01*
X170596928Y-112030000D01*
X170600000Y-112744250D01*
X170758750Y-112903000D01*
X171958000Y-112903000D01*
X171958000Y-111553750D01*
X171799250Y-111395000D01*
X171235000Y-111391928D01*
X171110518Y-111404188D01*
X170990820Y-111440498D01*
X170880506Y-111499463D01*
X170783815Y-111578815D01*
X170704463Y-111675506D01*
X170645498Y-111785820D01*
X170609188Y-111905518D01*
X170596928Y-112030000D01*
X156949075Y-112030000D01*
X156920631Y-111961331D01*
X156676038Y-111595271D01*
X156364729Y-111283962D01*
X155998669Y-111039369D01*
X155591925Y-110870890D01*
X155160128Y-110785000D01*
X154719872Y-110785000D01*
X154288075Y-110870890D01*
X153881331Y-111039369D01*
X153515271Y-111283962D01*
X153203962Y-111595271D01*
X152959369Y-111961331D01*
X152790890Y-112368075D01*
X152705000Y-112799872D01*
X147980000Y-112799872D01*
X147980000Y-92562401D01*
X154711400Y-92562401D01*
X154711400Y-92857599D01*
X154768990Y-93147125D01*
X154881958Y-93419853D01*
X155045961Y-93665302D01*
X155254698Y-93874039D01*
X155500147Y-94038042D01*
X155772875Y-94151010D01*
X156062401Y-94208600D01*
X156357599Y-94208600D01*
X156647125Y-94151010D01*
X156919853Y-94038042D01*
X157165302Y-93874039D01*
X157374039Y-93665302D01*
X157480000Y-93506719D01*
X157585961Y-93665302D01*
X157794698Y-93874039D01*
X158040147Y-94038042D01*
X158312875Y-94151010D01*
X158602401Y-94208600D01*
X158897599Y-94208600D01*
X159187125Y-94151010D01*
X159459853Y-94038042D01*
X159705302Y-93874039D01*
X159882927Y-93696414D01*
X173825000Y-107638488D01*
X173825001Y-111602405D01*
X173755986Y-111639294D01*
X173535055Y-111820608D01*
X173524502Y-111785820D01*
X173465537Y-111675506D01*
X173386185Y-111578815D01*
X173289494Y-111499463D01*
X173179180Y-111440498D01*
X173059482Y-111404188D01*
X172935000Y-111391928D01*
X172370750Y-111395000D01*
X172212000Y-111553750D01*
X172212000Y-112903000D01*
X172232000Y-112903000D01*
X172232000Y-113157000D01*
X172212000Y-113157000D01*
X172212000Y-114506250D01*
X172370750Y-114665000D01*
X172935000Y-114668072D01*
X173059482Y-114655812D01*
X173179180Y-114619502D01*
X173289494Y-114560537D01*
X173386185Y-114481185D01*
X173465537Y-114384494D01*
X173524502Y-114274180D01*
X173535055Y-114239392D01*
X173755987Y-114420706D01*
X174013967Y-114558599D01*
X174293890Y-114643513D01*
X174585000Y-114672185D01*
X174876111Y-114643513D01*
X175156034Y-114558599D01*
X175414014Y-114420706D01*
X175640134Y-114235134D01*
X175825706Y-114009014D01*
X175963599Y-113751033D01*
X176048513Y-113471110D01*
X176070000Y-113252949D01*
X176070000Y-112807050D01*
X176048513Y-112588889D01*
X175963599Y-112308966D01*
X175825706Y-112050986D01*
X175640134Y-111824866D01*
X175414013Y-111639294D01*
X175345000Y-111602406D01*
X175345000Y-107361009D01*
X175348676Y-107323686D01*
X175345000Y-107286363D01*
X175345000Y-107286353D01*
X175334003Y-107174700D01*
X175290546Y-107031439D01*
X175219975Y-106899411D01*
X175219974Y-106899409D01*
X175148799Y-106812683D01*
X175125001Y-106783685D01*
X175096004Y-106759888D01*
X160535118Y-92199003D01*
X160511315Y-92169999D01*
X160395590Y-92075026D01*
X160263561Y-92004454D01*
X160120300Y-91960997D01*
X160047063Y-91953784D01*
X159914039Y-91754698D01*
X159705302Y-91545961D01*
X159539897Y-91435441D01*
X159638488Y-91376817D01*
X159856854Y-91180293D01*
X160032684Y-90944944D01*
X160159222Y-90679814D01*
X160204958Y-90529026D01*
X160083817Y-90297000D01*
X158877000Y-90297000D01*
X158877000Y-90317000D01*
X158623000Y-90317000D01*
X158623000Y-90297000D01*
X156337000Y-90297000D01*
X156337000Y-90317000D01*
X156083000Y-90317000D01*
X156083000Y-90297000D01*
X154876183Y-90297000D01*
X154755042Y-90529026D01*
X154800778Y-90679814D01*
X154927316Y-90944944D01*
X155103146Y-91180293D01*
X155321512Y-91376817D01*
X155420103Y-91435441D01*
X155254698Y-91545961D01*
X155045961Y-91754698D01*
X154881958Y-92000147D01*
X154768990Y-92272875D01*
X154711400Y-92562401D01*
X147980000Y-92562401D01*
X147980000Y-87989026D01*
X154755042Y-87989026D01*
X154800778Y-88139814D01*
X154927316Y-88404944D01*
X155103146Y-88640293D01*
X155321512Y-88836817D01*
X155427770Y-88900000D01*
X155321512Y-88963183D01*
X155103146Y-89159707D01*
X154927316Y-89395056D01*
X154800778Y-89660186D01*
X154755042Y-89810974D01*
X154876183Y-90043000D01*
X156083000Y-90043000D01*
X156083000Y-87757000D01*
X156337000Y-87757000D01*
X156337000Y-90043000D01*
X158623000Y-90043000D01*
X158623000Y-87757000D01*
X158877000Y-87757000D01*
X158877000Y-90043000D01*
X160083817Y-90043000D01*
X160204958Y-89810974D01*
X160159222Y-89660186D01*
X160032684Y-89395056D01*
X159856854Y-89159707D01*
X159638488Y-88963183D01*
X159532230Y-88900000D01*
X159638488Y-88836817D01*
X159856854Y-88640293D01*
X160032684Y-88404944D01*
X160159222Y-88139814D01*
X160204958Y-87989026D01*
X160083817Y-87757000D01*
X158877000Y-87757000D01*
X158623000Y-87757000D01*
X156337000Y-87757000D01*
X156083000Y-87757000D01*
X154876183Y-87757000D01*
X154755042Y-87989026D01*
X147980000Y-87989026D01*
X147980000Y-85449026D01*
X154755042Y-85449026D01*
X154800778Y-85599814D01*
X154927316Y-85864944D01*
X155103146Y-86100293D01*
X155321512Y-86296817D01*
X155427770Y-86360000D01*
X155321512Y-86423183D01*
X155103146Y-86619707D01*
X154927316Y-86855056D01*
X154800778Y-87120186D01*
X154755042Y-87270974D01*
X154876183Y-87503000D01*
X156083000Y-87503000D01*
X156083000Y-85217000D01*
X156337000Y-85217000D01*
X156337000Y-87503000D01*
X158623000Y-87503000D01*
X158623000Y-85217000D01*
X158877000Y-85217000D01*
X158877000Y-87503000D01*
X160083817Y-87503000D01*
X160204958Y-87270974D01*
X160159222Y-87120186D01*
X160032684Y-86855056D01*
X159856854Y-86619707D01*
X159638488Y-86423183D01*
X159532230Y-86360000D01*
X159638488Y-86296817D01*
X159856854Y-86100293D01*
X160032684Y-85864944D01*
X160159222Y-85599814D01*
X160204958Y-85449026D01*
X160083817Y-85217000D01*
X158877000Y-85217000D01*
X158623000Y-85217000D01*
X156337000Y-85217000D01*
X156083000Y-85217000D01*
X154876183Y-85217000D01*
X154755042Y-85449026D01*
X147980000Y-85449026D01*
X147980000Y-79146400D01*
X154708328Y-79146400D01*
X154708328Y-80873600D01*
X154720588Y-80998082D01*
X154756898Y-81117780D01*
X154815863Y-81228094D01*
X154895215Y-81324785D01*
X154991906Y-81404137D01*
X155102220Y-81463102D01*
X155160023Y-81480636D01*
X155045961Y-81594698D01*
X154881958Y-81840147D01*
X154768990Y-82112875D01*
X154711400Y-82402401D01*
X154711400Y-82697599D01*
X154768990Y-82987125D01*
X154881958Y-83259853D01*
X155045961Y-83505302D01*
X155254698Y-83714039D01*
X155420103Y-83824559D01*
X155321512Y-83883183D01*
X155103146Y-84079707D01*
X154927316Y-84315056D01*
X154800778Y-84580186D01*
X154755042Y-84730974D01*
X154876183Y-84963000D01*
X156083000Y-84963000D01*
X156083000Y-84943000D01*
X156337000Y-84943000D01*
X156337000Y-84963000D01*
X158623000Y-84963000D01*
X158623000Y-84943000D01*
X158877000Y-84943000D01*
X158877000Y-84963000D01*
X160083817Y-84963000D01*
X160204958Y-84730974D01*
X160159222Y-84580186D01*
X160032684Y-84315056D01*
X159906922Y-84146723D01*
X189186140Y-113425942D01*
X189082047Y-113677244D01*
X189000000Y-114089721D01*
X189000000Y-114510279D01*
X189082047Y-114922756D01*
X189242988Y-115311302D01*
X189476637Y-115660983D01*
X189774017Y-115958363D01*
X190123698Y-116192012D01*
X190512244Y-116352953D01*
X190924721Y-116435000D01*
X191345279Y-116435000D01*
X191757756Y-116352953D01*
X192146302Y-116192012D01*
X192495983Y-115958363D01*
X192793363Y-115660983D01*
X193027012Y-115311302D01*
X193187953Y-114922756D01*
X193270000Y-114510279D01*
X193270000Y-114089721D01*
X193187953Y-113677244D01*
X193027012Y-113288698D01*
X192793363Y-112939017D01*
X192654218Y-112799872D01*
X242705000Y-112799872D01*
X242705000Y-113240128D01*
X242790890Y-113671925D01*
X242959369Y-114078669D01*
X243203962Y-114444729D01*
X243515271Y-114756038D01*
X243881331Y-115000631D01*
X244288075Y-115169110D01*
X244719872Y-115255000D01*
X245160128Y-115255000D01*
X245591925Y-115169110D01*
X245998669Y-115000631D01*
X246364729Y-114756038D01*
X246676038Y-114444729D01*
X246920631Y-114078669D01*
X247089110Y-113671925D01*
X247175000Y-113240128D01*
X247175000Y-112799872D01*
X247089110Y-112368075D01*
X246920631Y-111961331D01*
X246676038Y-111595271D01*
X246364729Y-111283962D01*
X245998669Y-111039369D01*
X245591925Y-110870890D01*
X245160128Y-110785000D01*
X244719872Y-110785000D01*
X244288075Y-110870890D01*
X243881331Y-111039369D01*
X243515271Y-111283962D01*
X243203962Y-111595271D01*
X242959369Y-111961331D01*
X242790890Y-112368075D01*
X242705000Y-112799872D01*
X192654218Y-112799872D01*
X192495983Y-112641637D01*
X192146302Y-112407988D01*
X191757756Y-112247047D01*
X191345279Y-112165000D01*
X190924721Y-112165000D01*
X190512244Y-112247047D01*
X190260942Y-112351140D01*
X160232808Y-82323007D01*
X160191010Y-82112875D01*
X160173830Y-82071399D01*
X162911598Y-82071399D01*
X189186140Y-108345942D01*
X189082047Y-108597244D01*
X189000000Y-109009721D01*
X189000000Y-109430279D01*
X189082047Y-109842756D01*
X189242988Y-110231302D01*
X189476637Y-110580983D01*
X189774017Y-110878363D01*
X190123698Y-111112012D01*
X190512244Y-111272953D01*
X190924721Y-111355000D01*
X191345279Y-111355000D01*
X191757756Y-111272953D01*
X192146302Y-111112012D01*
X192495983Y-110878363D01*
X192793363Y-110580983D01*
X193027012Y-110231302D01*
X193187953Y-109842756D01*
X193270000Y-109430279D01*
X193270000Y-109009721D01*
X193187953Y-108597244D01*
X193027012Y-108208698D01*
X192793363Y-107859017D01*
X192495983Y-107561637D01*
X192146302Y-107327988D01*
X191757756Y-107167047D01*
X191345279Y-107085000D01*
X190924721Y-107085000D01*
X190512244Y-107167047D01*
X190260942Y-107271140D01*
X163790203Y-80800402D01*
X163766400Y-80771398D01*
X163764697Y-80770000D01*
X166690199Y-80770000D01*
X189186140Y-103265942D01*
X189082047Y-103517244D01*
X189000000Y-103929721D01*
X189000000Y-104350279D01*
X189082047Y-104762756D01*
X189242988Y-105151302D01*
X189476637Y-105500983D01*
X189774017Y-105798363D01*
X190123698Y-106032012D01*
X190512244Y-106192953D01*
X190924721Y-106275000D01*
X191345279Y-106275000D01*
X191757756Y-106192953D01*
X192146302Y-106032012D01*
X192495983Y-105798363D01*
X192793363Y-105500983D01*
X193027012Y-105151302D01*
X193187953Y-104762756D01*
X193270000Y-104350279D01*
X193270000Y-103929721D01*
X193187953Y-103517244D01*
X193027012Y-103128698D01*
X192793363Y-102779017D01*
X192495983Y-102481637D01*
X192146302Y-102247988D01*
X191757756Y-102087047D01*
X191345279Y-102005000D01*
X190924721Y-102005000D01*
X190512244Y-102087047D01*
X190260942Y-102191140D01*
X167601200Y-79531399D01*
X168781598Y-79531399D01*
X188821201Y-99571003D01*
X188844999Y-99600001D01*
X188960724Y-99694974D01*
X188996928Y-99714326D01*
X188996928Y-100560000D01*
X189009188Y-100684482D01*
X189045498Y-100804180D01*
X189104463Y-100914494D01*
X189183815Y-101011185D01*
X189280506Y-101090537D01*
X189390820Y-101149502D01*
X189510518Y-101185812D01*
X189635000Y-101198072D01*
X192635000Y-101198072D01*
X192759482Y-101185812D01*
X192879180Y-101149502D01*
X192989494Y-101090537D01*
X193086185Y-101011185D01*
X193165537Y-100914494D01*
X193224502Y-100804180D01*
X193260812Y-100684482D01*
X193273072Y-100560000D01*
X193273072Y-97560000D01*
X193260812Y-97435518D01*
X193224502Y-97315820D01*
X193165537Y-97205506D01*
X193086185Y-97108815D01*
X192989494Y-97029463D01*
X192879180Y-96970498D01*
X192759482Y-96934188D01*
X192635000Y-96921928D01*
X189635000Y-96921928D01*
X189510518Y-96934188D01*
X189390820Y-96970498D01*
X189280506Y-97029463D01*
X189183815Y-97108815D01*
X189104463Y-97205506D01*
X189045498Y-97315820D01*
X189009188Y-97435518D01*
X188996928Y-97560000D01*
X188996928Y-97597126D01*
X169660203Y-78260402D01*
X169636400Y-78231398D01*
X169520675Y-78136425D01*
X169388646Y-78065853D01*
X169245385Y-78022396D01*
X169133732Y-78011399D01*
X169133721Y-78011399D01*
X169096399Y-78007723D01*
X169059077Y-78011399D01*
X156372323Y-78011399D01*
X156335000Y-78007723D01*
X156297678Y-78011399D01*
X156297668Y-78011399D01*
X156186015Y-78022396D01*
X156042754Y-78065853D01*
X155910725Y-78136425D01*
X155795000Y-78231398D01*
X155771197Y-78260402D01*
X155699003Y-78332596D01*
X155669999Y-78356399D01*
X155614871Y-78423574D01*
X155575026Y-78472124D01*
X155555674Y-78508328D01*
X155346400Y-78508328D01*
X155221918Y-78520588D01*
X155102220Y-78556898D01*
X154991906Y-78615863D01*
X154895215Y-78695215D01*
X154815863Y-78791906D01*
X154756898Y-78902220D01*
X154720588Y-79021918D01*
X154708328Y-79146400D01*
X147980000Y-79146400D01*
X147980000Y-53746400D01*
X154708328Y-53746400D01*
X154708328Y-55473600D01*
X154720588Y-55598082D01*
X154756898Y-55717780D01*
X154815863Y-55828094D01*
X154895215Y-55924785D01*
X154991906Y-56004137D01*
X155102220Y-56063102D01*
X155160023Y-56080636D01*
X155045961Y-56194698D01*
X154881958Y-56440147D01*
X154768990Y-56712875D01*
X154711400Y-57002401D01*
X154711400Y-57297599D01*
X154768990Y-57587125D01*
X154881958Y-57859853D01*
X155045961Y-58105302D01*
X155254698Y-58314039D01*
X155413281Y-58420000D01*
X155254698Y-58525961D01*
X155045961Y-58734698D01*
X154881958Y-58980147D01*
X154768990Y-59252875D01*
X154711400Y-59542401D01*
X154711400Y-59837599D01*
X154768990Y-60127125D01*
X154881958Y-60399853D01*
X155045961Y-60645302D01*
X155254698Y-60854039D01*
X155413281Y-60960000D01*
X155254698Y-61065961D01*
X155045961Y-61274698D01*
X154881958Y-61520147D01*
X154768990Y-61792875D01*
X154711400Y-62082401D01*
X154711400Y-62377599D01*
X154768990Y-62667125D01*
X154881958Y-62939853D01*
X155045961Y-63185302D01*
X155254698Y-63394039D01*
X155413281Y-63500000D01*
X155254698Y-63605961D01*
X155045961Y-63814698D01*
X154881958Y-64060147D01*
X154768990Y-64332875D01*
X154711400Y-64622401D01*
X154711400Y-64917599D01*
X154768990Y-65207125D01*
X154881958Y-65479853D01*
X155045961Y-65725302D01*
X155254698Y-65934039D01*
X155413281Y-66040000D01*
X155254698Y-66145961D01*
X155045961Y-66354698D01*
X154881958Y-66600147D01*
X154768990Y-66872875D01*
X154711400Y-67162401D01*
X154711400Y-67457599D01*
X154768990Y-67747125D01*
X154881958Y-68019853D01*
X155045961Y-68265302D01*
X155254698Y-68474039D01*
X155500147Y-68638042D01*
X155772875Y-68751010D01*
X156062401Y-68808600D01*
X156357599Y-68808600D01*
X156647125Y-68751010D01*
X156919853Y-68638042D01*
X157165302Y-68474039D01*
X157374039Y-68265302D01*
X157480000Y-68106719D01*
X157585961Y-68265302D01*
X157794698Y-68474039D01*
X158040147Y-68638042D01*
X158312875Y-68751010D01*
X158602401Y-68808600D01*
X158897599Y-68808600D01*
X159187125Y-68751010D01*
X159459853Y-68638042D01*
X159705302Y-68474039D01*
X159914039Y-68265302D01*
X160044535Y-68070000D01*
X165420199Y-68070000D01*
X189186140Y-91835942D01*
X189082047Y-92087244D01*
X189000000Y-92499721D01*
X189000000Y-92920279D01*
X189082047Y-93332756D01*
X189242988Y-93721302D01*
X189476637Y-94070983D01*
X189774017Y-94368363D01*
X190123698Y-94602012D01*
X190512244Y-94762953D01*
X190924721Y-94845000D01*
X191345279Y-94845000D01*
X191757756Y-94762953D01*
X192146302Y-94602012D01*
X192495983Y-94368363D01*
X192793363Y-94070983D01*
X193027012Y-93721302D01*
X193187953Y-93332756D01*
X193270000Y-92920279D01*
X193270000Y-92499721D01*
X193187953Y-92087244D01*
X193027012Y-91698698D01*
X192793363Y-91349017D01*
X192495983Y-91051637D01*
X192146302Y-90817988D01*
X191757756Y-90657047D01*
X191345279Y-90575000D01*
X190924721Y-90575000D01*
X190512244Y-90657047D01*
X190260942Y-90761140D01*
X166331200Y-66831399D01*
X169261598Y-66831399D01*
X189123998Y-86693800D01*
X189124003Y-86693804D01*
X189186140Y-86755941D01*
X189082047Y-87007244D01*
X189000000Y-87419721D01*
X189000000Y-87840279D01*
X189082047Y-88252756D01*
X189242988Y-88641302D01*
X189476637Y-88990983D01*
X189774017Y-89288363D01*
X190123698Y-89522012D01*
X190512244Y-89682953D01*
X190924721Y-89765000D01*
X191345279Y-89765000D01*
X191757756Y-89682953D01*
X192146302Y-89522012D01*
X192495983Y-89288363D01*
X192793363Y-88990983D01*
X193027012Y-88641302D01*
X193187953Y-88252756D01*
X193270000Y-87840279D01*
X193270000Y-87419721D01*
X193187953Y-87007244D01*
X193027012Y-86618698D01*
X192793363Y-86269017D01*
X192495983Y-85971637D01*
X192146302Y-85737988D01*
X191757756Y-85577047D01*
X191345279Y-85495000D01*
X190924721Y-85495000D01*
X190512244Y-85577047D01*
X190260941Y-85681140D01*
X190198804Y-85619003D01*
X190198800Y-85618998D01*
X170140203Y-65560402D01*
X170116400Y-65531398D01*
X170114697Y-65530000D01*
X173040199Y-65530000D01*
X189186140Y-81675942D01*
X189082047Y-81927244D01*
X189000000Y-82339721D01*
X189000000Y-82760279D01*
X189082047Y-83172756D01*
X189242988Y-83561302D01*
X189476637Y-83910983D01*
X189774017Y-84208363D01*
X190123698Y-84442012D01*
X190512244Y-84602953D01*
X190924721Y-84685000D01*
X191345279Y-84685000D01*
X191757756Y-84602953D01*
X192146302Y-84442012D01*
X192495983Y-84208363D01*
X192793363Y-83910983D01*
X193027012Y-83561302D01*
X193187953Y-83172756D01*
X193270000Y-82760279D01*
X193270000Y-82339721D01*
X193187953Y-81927244D01*
X193027012Y-81538698D01*
X192793363Y-81189017D01*
X192495983Y-80891637D01*
X192146302Y-80657988D01*
X191757756Y-80497047D01*
X191345279Y-80415000D01*
X190924721Y-80415000D01*
X190512244Y-80497047D01*
X190260942Y-80601140D01*
X173951200Y-64291399D01*
X178631598Y-64291399D01*
X189672126Y-75331928D01*
X189635000Y-75331928D01*
X189510518Y-75344188D01*
X189390820Y-75380498D01*
X189280506Y-75439463D01*
X189183815Y-75518815D01*
X189104463Y-75615506D01*
X189045498Y-75725820D01*
X189009188Y-75845518D01*
X188996928Y-75970000D01*
X188996928Y-78970000D01*
X189009188Y-79094482D01*
X189045498Y-79214180D01*
X189104463Y-79324494D01*
X189183815Y-79421185D01*
X189280506Y-79500537D01*
X189390820Y-79559502D01*
X189510518Y-79595812D01*
X189635000Y-79608072D01*
X192635000Y-79608072D01*
X192759482Y-79595812D01*
X192879180Y-79559502D01*
X192989494Y-79500537D01*
X193086185Y-79421185D01*
X193165537Y-79324494D01*
X193224502Y-79214180D01*
X193260812Y-79094482D01*
X193273072Y-78970000D01*
X193273072Y-75970000D01*
X193260812Y-75845518D01*
X193224502Y-75725820D01*
X193165537Y-75615506D01*
X193086185Y-75518815D01*
X192989494Y-75439463D01*
X192879180Y-75380498D01*
X192759482Y-75344188D01*
X192635000Y-75331928D01*
X191789326Y-75331928D01*
X191769974Y-75295724D01*
X191675001Y-75179999D01*
X191646004Y-75156202D01*
X179510203Y-63020402D01*
X179486400Y-62991398D01*
X179484697Y-62990000D01*
X181930199Y-62990000D01*
X189186140Y-70245942D01*
X189082047Y-70497244D01*
X189000000Y-70909721D01*
X189000000Y-71330279D01*
X189082047Y-71742756D01*
X189242988Y-72131302D01*
X189476637Y-72480983D01*
X189774017Y-72778363D01*
X190123698Y-73012012D01*
X190512244Y-73172953D01*
X190924721Y-73255000D01*
X191345279Y-73255000D01*
X191757756Y-73172953D01*
X192146302Y-73012012D01*
X192495983Y-72778363D01*
X192793363Y-72480983D01*
X193027012Y-72131302D01*
X193187953Y-71742756D01*
X193270000Y-71330279D01*
X193270000Y-70909721D01*
X193187953Y-70497244D01*
X193027012Y-70108698D01*
X192793363Y-69759017D01*
X192495983Y-69461637D01*
X192146302Y-69227988D01*
X191757756Y-69067047D01*
X191345279Y-68985000D01*
X190924721Y-68985000D01*
X190512244Y-69067047D01*
X190260942Y-69171140D01*
X182841200Y-61751399D01*
X185771598Y-61751399D01*
X189123998Y-65103800D01*
X189124003Y-65103804D01*
X189186140Y-65165941D01*
X189082047Y-65417244D01*
X189000000Y-65829721D01*
X189000000Y-66250279D01*
X189082047Y-66662756D01*
X189242988Y-67051302D01*
X189476637Y-67400983D01*
X189774017Y-67698363D01*
X190123698Y-67932012D01*
X190512244Y-68092953D01*
X190924721Y-68175000D01*
X191345279Y-68175000D01*
X191757756Y-68092953D01*
X192146302Y-67932012D01*
X192495983Y-67698363D01*
X192793363Y-67400983D01*
X193027012Y-67051302D01*
X193187953Y-66662756D01*
X193270000Y-66250279D01*
X193270000Y-65829721D01*
X193187953Y-65417244D01*
X193027012Y-65028698D01*
X192793363Y-64679017D01*
X192495983Y-64381637D01*
X192146302Y-64147988D01*
X191757756Y-63987047D01*
X191345279Y-63905000D01*
X190924721Y-63905000D01*
X190512244Y-63987047D01*
X190260941Y-64091140D01*
X190198804Y-64029003D01*
X190198800Y-64028998D01*
X186650203Y-60480402D01*
X186626400Y-60451398D01*
X186624697Y-60450000D01*
X189059618Y-60450000D01*
X189000000Y-60749721D01*
X189000000Y-61170279D01*
X189082047Y-61582756D01*
X189242988Y-61971302D01*
X189476637Y-62320983D01*
X189774017Y-62618363D01*
X190123698Y-62852012D01*
X190512244Y-63012953D01*
X190924721Y-63095000D01*
X191345279Y-63095000D01*
X191757756Y-63012953D01*
X192146302Y-62852012D01*
X192495983Y-62618363D01*
X192793363Y-62320983D01*
X193027012Y-61971302D01*
X193187953Y-61582756D01*
X193270000Y-61170279D01*
X193270000Y-60749721D01*
X193187953Y-60337244D01*
X193027012Y-59948698D01*
X192793363Y-59599017D01*
X192495983Y-59301637D01*
X192146302Y-59067988D01*
X191757756Y-58907047D01*
X191345279Y-58825000D01*
X191014801Y-58825000D01*
X191646004Y-58193798D01*
X191675001Y-58170001D01*
X191769974Y-58054276D01*
X191789326Y-58018072D01*
X192635000Y-58018072D01*
X192759482Y-58005812D01*
X192879180Y-57969502D01*
X192989494Y-57910537D01*
X193086185Y-57831185D01*
X193165537Y-57734494D01*
X193224502Y-57624180D01*
X193260812Y-57504482D01*
X193273072Y-57380000D01*
X193273072Y-54380000D01*
X193260812Y-54255518D01*
X193224502Y-54135820D01*
X193165537Y-54025506D01*
X193086185Y-53928815D01*
X192989494Y-53849463D01*
X192879180Y-53790498D01*
X192759482Y-53754188D01*
X192635000Y-53741928D01*
X189635000Y-53741928D01*
X189510518Y-53754188D01*
X189390820Y-53790498D01*
X189280506Y-53849463D01*
X189183815Y-53928815D01*
X189104463Y-54025506D01*
X189045498Y-54135820D01*
X189009188Y-54255518D01*
X188996928Y-54380000D01*
X188996928Y-57380000D01*
X189009188Y-57504482D01*
X189045498Y-57624180D01*
X189081428Y-57691399D01*
X184053298Y-57691399D01*
X184055001Y-57690001D01*
X184078804Y-57660997D01*
X190260942Y-51478860D01*
X190512244Y-51582953D01*
X190924721Y-51665000D01*
X191345279Y-51665000D01*
X191757756Y-51582953D01*
X192146302Y-51422012D01*
X192495983Y-51188363D01*
X192793363Y-50890983D01*
X193027012Y-50541302D01*
X193187953Y-50152756D01*
X193270000Y-49740279D01*
X193270000Y-49319721D01*
X193187953Y-48907244D01*
X193027012Y-48518698D01*
X192793363Y-48169017D01*
X192495983Y-47871637D01*
X192146302Y-47637988D01*
X191757756Y-47477047D01*
X191345279Y-47395000D01*
X190924721Y-47395000D01*
X190512244Y-47477047D01*
X190123698Y-47637988D01*
X189774017Y-47871637D01*
X189476637Y-48169017D01*
X189242988Y-48518698D01*
X189082047Y-48907244D01*
X189000000Y-49319721D01*
X189000000Y-49740279D01*
X189082047Y-50152756D01*
X189186140Y-50404058D01*
X183200199Y-56390000D01*
X180269801Y-56390000D01*
X190198800Y-46461002D01*
X190198804Y-46460997D01*
X190260941Y-46398860D01*
X190512244Y-46502953D01*
X190924721Y-46585000D01*
X191345279Y-46585000D01*
X191757756Y-46502953D01*
X192146302Y-46342012D01*
X192495983Y-46108363D01*
X192793363Y-45810983D01*
X193027012Y-45461302D01*
X193187953Y-45072756D01*
X193270000Y-44660279D01*
X193270000Y-44239721D01*
X193187953Y-43827244D01*
X193027012Y-43438698D01*
X192793363Y-43089017D01*
X192495983Y-42791637D01*
X192146302Y-42557988D01*
X191757756Y-42397047D01*
X191345279Y-42315000D01*
X190924721Y-42315000D01*
X190512244Y-42397047D01*
X190123698Y-42557988D01*
X189774017Y-42791637D01*
X189476637Y-43089017D01*
X189242988Y-43438698D01*
X189082047Y-43827244D01*
X189000000Y-44239721D01*
X189000000Y-44660279D01*
X189082047Y-45072756D01*
X189186140Y-45324059D01*
X189124003Y-45386196D01*
X189123998Y-45386200D01*
X179358800Y-55151399D01*
X176433298Y-55151399D01*
X176435001Y-55150001D01*
X176458804Y-55120997D01*
X190260942Y-41318860D01*
X190512244Y-41422953D01*
X190924721Y-41505000D01*
X191345279Y-41505000D01*
X191757756Y-41422953D01*
X192146302Y-41262012D01*
X192495983Y-41028363D01*
X192793363Y-40730983D01*
X193027012Y-40381302D01*
X193187953Y-39992756D01*
X193270000Y-39580279D01*
X193270000Y-39159721D01*
X193187953Y-38747244D01*
X193027012Y-38358698D01*
X192793363Y-38009017D01*
X192495983Y-37711637D01*
X192146302Y-37477988D01*
X191757756Y-37317047D01*
X191345279Y-37235000D01*
X191014802Y-37235000D01*
X191646004Y-36603798D01*
X191675001Y-36580001D01*
X191769974Y-36464276D01*
X191789326Y-36428072D01*
X192635000Y-36428072D01*
X192759482Y-36415812D01*
X192879180Y-36379502D01*
X192989494Y-36320537D01*
X193086185Y-36241185D01*
X193165537Y-36144494D01*
X193224502Y-36034180D01*
X193260812Y-35914482D01*
X193273072Y-35790000D01*
X193273072Y-32799872D01*
X242705000Y-32799872D01*
X242705000Y-33240128D01*
X242790890Y-33671925D01*
X242959369Y-34078669D01*
X243203962Y-34444729D01*
X243515271Y-34756038D01*
X243881331Y-35000631D01*
X244288075Y-35169110D01*
X244719872Y-35255000D01*
X245160128Y-35255000D01*
X245591925Y-35169110D01*
X245998669Y-35000631D01*
X246364729Y-34756038D01*
X246676038Y-34444729D01*
X246920631Y-34078669D01*
X247089110Y-33671925D01*
X247175000Y-33240128D01*
X247175000Y-32799872D01*
X247089110Y-32368075D01*
X246920631Y-31961331D01*
X246676038Y-31595271D01*
X246364729Y-31283962D01*
X245998669Y-31039369D01*
X245591925Y-30870890D01*
X245160128Y-30785000D01*
X244719872Y-30785000D01*
X244288075Y-30870890D01*
X243881331Y-31039369D01*
X243515271Y-31283962D01*
X243203962Y-31595271D01*
X242959369Y-31961331D01*
X242790890Y-32368075D01*
X242705000Y-32799872D01*
X193273072Y-32799872D01*
X193273072Y-32790000D01*
X193260812Y-32665518D01*
X193224502Y-32545820D01*
X193165537Y-32435506D01*
X193086185Y-32338815D01*
X192989494Y-32259463D01*
X192879180Y-32200498D01*
X192759482Y-32164188D01*
X192635000Y-32151928D01*
X189635000Y-32151928D01*
X189510518Y-32164188D01*
X189390820Y-32200498D01*
X189280506Y-32259463D01*
X189183815Y-32338815D01*
X189104463Y-32435506D01*
X189045498Y-32545820D01*
X189009188Y-32665518D01*
X188996928Y-32790000D01*
X188996928Y-35790000D01*
X189009188Y-35914482D01*
X189045498Y-36034180D01*
X189104463Y-36144494D01*
X189183815Y-36241185D01*
X189280506Y-36320537D01*
X189390820Y-36379502D01*
X189510518Y-36415812D01*
X189635000Y-36428072D01*
X189672126Y-36428072D01*
X173520199Y-52580000D01*
X157517322Y-52580000D01*
X157479999Y-52576324D01*
X157442676Y-52580000D01*
X157442667Y-52580000D01*
X157331014Y-52590997D01*
X157187753Y-52634454D01*
X157055724Y-52705026D01*
X156939999Y-52799999D01*
X156916201Y-52828997D01*
X156636870Y-53108328D01*
X155346400Y-53108328D01*
X155221918Y-53120588D01*
X155102220Y-53156898D01*
X154991906Y-53215863D01*
X154895215Y-53295215D01*
X154815863Y-53391906D01*
X154756898Y-53502220D01*
X154720588Y-53621918D01*
X154708328Y-53746400D01*
X147980000Y-53746400D01*
X147980000Y-32799872D01*
X152705000Y-32799872D01*
X152705000Y-33240128D01*
X152790890Y-33671925D01*
X152959369Y-34078669D01*
X153203962Y-34444729D01*
X153515271Y-34756038D01*
X153881331Y-35000631D01*
X154288075Y-35169110D01*
X154719872Y-35255000D01*
X155160128Y-35255000D01*
X155591925Y-35169110D01*
X155998669Y-35000631D01*
X156364729Y-34756038D01*
X156676038Y-34444729D01*
X156920631Y-34078669D01*
X157089110Y-33671925D01*
X157175000Y-33240128D01*
X157175000Y-32799872D01*
X157089110Y-32368075D01*
X156920631Y-31961331D01*
X156676038Y-31595271D01*
X156364729Y-31283962D01*
X155998669Y-31039369D01*
X155591925Y-30870890D01*
X155160128Y-30785000D01*
X154719872Y-30785000D01*
X154288075Y-30870890D01*
X153881331Y-31039369D01*
X153515271Y-31283962D01*
X153203962Y-31595271D01*
X152959369Y-31961331D01*
X152790890Y-32368075D01*
X152705000Y-32799872D01*
X147980000Y-32799872D01*
X147980000Y-26060000D01*
X258420000Y-26060000D01*
X258420001Y-39337572D01*
G37*
X258420001Y-39337572D02*
X258420000Y-39337582D01*
X258420001Y-119990000D01*
X147980000Y-119990000D01*
X147980000Y-112799872D01*
X152705000Y-112799872D01*
X152705000Y-113240128D01*
X152790890Y-113671925D01*
X152959369Y-114078669D01*
X153203962Y-114444729D01*
X153515271Y-114756038D01*
X153881331Y-115000631D01*
X154288075Y-115169110D01*
X154719872Y-115255000D01*
X155160128Y-115255000D01*
X155591925Y-115169110D01*
X155998669Y-115000631D01*
X156364729Y-114756038D01*
X156676038Y-114444729D01*
X156920631Y-114078669D01*
X156940790Y-114030000D01*
X170596928Y-114030000D01*
X170609188Y-114154482D01*
X170645498Y-114274180D01*
X170704463Y-114384494D01*
X170783815Y-114481185D01*
X170880506Y-114560537D01*
X170990820Y-114619502D01*
X171110518Y-114655812D01*
X171235000Y-114668072D01*
X171799250Y-114665000D01*
X171958000Y-114506250D01*
X171958000Y-113157000D01*
X170758750Y-113157000D01*
X170600000Y-113315750D01*
X170596928Y-114030000D01*
X156940790Y-114030000D01*
X157089110Y-113671925D01*
X157175000Y-113240128D01*
X157175000Y-112799872D01*
X157089110Y-112368075D01*
X156949075Y-112030000D01*
X170596928Y-112030000D01*
X170600000Y-112744250D01*
X170758750Y-112903000D01*
X171958000Y-112903000D01*
X171958000Y-111553750D01*
X171799250Y-111395000D01*
X171235000Y-111391928D01*
X171110518Y-111404188D01*
X170990820Y-111440498D01*
X170880506Y-111499463D01*
X170783815Y-111578815D01*
X170704463Y-111675506D01*
X170645498Y-111785820D01*
X170609188Y-111905518D01*
X170596928Y-112030000D01*
X156949075Y-112030000D01*
X156920631Y-111961331D01*
X156676038Y-111595271D01*
X156364729Y-111283962D01*
X155998669Y-111039369D01*
X155591925Y-110870890D01*
X155160128Y-110785000D01*
X154719872Y-110785000D01*
X154288075Y-110870890D01*
X153881331Y-111039369D01*
X153515271Y-111283962D01*
X153203962Y-111595271D01*
X152959369Y-111961331D01*
X152790890Y-112368075D01*
X152705000Y-112799872D01*
X147980000Y-112799872D01*
X147980000Y-92562401D01*
X154711400Y-92562401D01*
X154711400Y-92857599D01*
X154768990Y-93147125D01*
X154881958Y-93419853D01*
X155045961Y-93665302D01*
X155254698Y-93874039D01*
X155500147Y-94038042D01*
X155772875Y-94151010D01*
X156062401Y-94208600D01*
X156357599Y-94208600D01*
X156647125Y-94151010D01*
X156919853Y-94038042D01*
X157165302Y-93874039D01*
X157374039Y-93665302D01*
X157480000Y-93506719D01*
X157585961Y-93665302D01*
X157794698Y-93874039D01*
X158040147Y-94038042D01*
X158312875Y-94151010D01*
X158602401Y-94208600D01*
X158897599Y-94208600D01*
X159187125Y-94151010D01*
X159459853Y-94038042D01*
X159705302Y-93874039D01*
X159882927Y-93696414D01*
X173825000Y-107638488D01*
X173825001Y-111602405D01*
X173755986Y-111639294D01*
X173535055Y-111820608D01*
X173524502Y-111785820D01*
X173465537Y-111675506D01*
X173386185Y-111578815D01*
X173289494Y-111499463D01*
X173179180Y-111440498D01*
X173059482Y-111404188D01*
X172935000Y-111391928D01*
X172370750Y-111395000D01*
X172212000Y-111553750D01*
X172212000Y-112903000D01*
X172232000Y-112903000D01*
X172232000Y-113157000D01*
X172212000Y-113157000D01*
X172212000Y-114506250D01*
X172370750Y-114665000D01*
X172935000Y-114668072D01*
X173059482Y-114655812D01*
X173179180Y-114619502D01*
X173289494Y-114560537D01*
X173386185Y-114481185D01*
X173465537Y-114384494D01*
X173524502Y-114274180D01*
X173535055Y-114239392D01*
X173755987Y-114420706D01*
X174013967Y-114558599D01*
X174293890Y-114643513D01*
X174585000Y-114672185D01*
X174876111Y-114643513D01*
X175156034Y-114558599D01*
X175414014Y-114420706D01*
X175640134Y-114235134D01*
X175825706Y-114009014D01*
X175963599Y-113751033D01*
X176048513Y-113471110D01*
X176070000Y-113252949D01*
X176070000Y-112807050D01*
X176048513Y-112588889D01*
X175963599Y-112308966D01*
X175825706Y-112050986D01*
X175640134Y-111824866D01*
X175414013Y-111639294D01*
X175345000Y-111602406D01*
X175345000Y-107361009D01*
X175348676Y-107323686D01*
X175345000Y-107286363D01*
X175345000Y-107286353D01*
X175334003Y-107174700D01*
X175290546Y-107031439D01*
X175219975Y-106899411D01*
X175219974Y-106899409D01*
X175148799Y-106812683D01*
X175125001Y-106783685D01*
X175096004Y-106759888D01*
X160535118Y-92199003D01*
X160511315Y-92169999D01*
X160395590Y-92075026D01*
X160263561Y-92004454D01*
X160120300Y-91960997D01*
X160047063Y-91953784D01*
X159914039Y-91754698D01*
X159705302Y-91545961D01*
X159539897Y-91435441D01*
X159638488Y-91376817D01*
X159856854Y-91180293D01*
X160032684Y-90944944D01*
X160159222Y-90679814D01*
X160204958Y-90529026D01*
X160083817Y-90297000D01*
X158877000Y-90297000D01*
X158877000Y-90317000D01*
X158623000Y-90317000D01*
X158623000Y-90297000D01*
X156337000Y-90297000D01*
X156337000Y-90317000D01*
X156083000Y-90317000D01*
X156083000Y-90297000D01*
X154876183Y-90297000D01*
X154755042Y-90529026D01*
X154800778Y-90679814D01*
X154927316Y-90944944D01*
X155103146Y-91180293D01*
X155321512Y-91376817D01*
X155420103Y-91435441D01*
X155254698Y-91545961D01*
X155045961Y-91754698D01*
X154881958Y-92000147D01*
X154768990Y-92272875D01*
X154711400Y-92562401D01*
X147980000Y-92562401D01*
X147980000Y-87989026D01*
X154755042Y-87989026D01*
X154800778Y-88139814D01*
X154927316Y-88404944D01*
X155103146Y-88640293D01*
X155321512Y-88836817D01*
X155427770Y-88900000D01*
X155321512Y-88963183D01*
X155103146Y-89159707D01*
X154927316Y-89395056D01*
X154800778Y-89660186D01*
X154755042Y-89810974D01*
X154876183Y-90043000D01*
X156083000Y-90043000D01*
X156083000Y-87757000D01*
X156337000Y-87757000D01*
X156337000Y-90043000D01*
X158623000Y-90043000D01*
X158623000Y-87757000D01*
X158877000Y-87757000D01*
X158877000Y-90043000D01*
X160083817Y-90043000D01*
X160204958Y-89810974D01*
X160159222Y-89660186D01*
X160032684Y-89395056D01*
X159856854Y-89159707D01*
X159638488Y-88963183D01*
X159532230Y-88900000D01*
X159638488Y-88836817D01*
X159856854Y-88640293D01*
X160032684Y-88404944D01*
X160159222Y-88139814D01*
X160204958Y-87989026D01*
X160083817Y-87757000D01*
X158877000Y-87757000D01*
X158623000Y-87757000D01*
X156337000Y-87757000D01*
X156083000Y-87757000D01*
X154876183Y-87757000D01*
X154755042Y-87989026D01*
X147980000Y-87989026D01*
X147980000Y-85449026D01*
X154755042Y-85449026D01*
X154800778Y-85599814D01*
X154927316Y-85864944D01*
X155103146Y-86100293D01*
X155321512Y-86296817D01*
X155427770Y-86360000D01*
X155321512Y-86423183D01*
X155103146Y-86619707D01*
X154927316Y-86855056D01*
X154800778Y-87120186D01*
X154755042Y-87270974D01*
X154876183Y-87503000D01*
X156083000Y-87503000D01*
X156083000Y-85217000D01*
X156337000Y-85217000D01*
X156337000Y-87503000D01*
X158623000Y-87503000D01*
X158623000Y-85217000D01*
X158877000Y-85217000D01*
X158877000Y-87503000D01*
X160083817Y-87503000D01*
X160204958Y-87270974D01*
X160159222Y-87120186D01*
X160032684Y-86855056D01*
X159856854Y-86619707D01*
X159638488Y-86423183D01*
X159532230Y-86360000D01*
X159638488Y-86296817D01*
X159856854Y-86100293D01*
X160032684Y-85864944D01*
X160159222Y-85599814D01*
X160204958Y-85449026D01*
X160083817Y-85217000D01*
X158877000Y-85217000D01*
X158623000Y-85217000D01*
X156337000Y-85217000D01*
X156083000Y-85217000D01*
X154876183Y-85217000D01*
X154755042Y-85449026D01*
X147980000Y-85449026D01*
X147980000Y-79146400D01*
X154708328Y-79146400D01*
X154708328Y-80873600D01*
X154720588Y-80998082D01*
X154756898Y-81117780D01*
X154815863Y-81228094D01*
X154895215Y-81324785D01*
X154991906Y-81404137D01*
X155102220Y-81463102D01*
X155160023Y-81480636D01*
X155045961Y-81594698D01*
X154881958Y-81840147D01*
X154768990Y-82112875D01*
X154711400Y-82402401D01*
X154711400Y-82697599D01*
X154768990Y-82987125D01*
X154881958Y-83259853D01*
X155045961Y-83505302D01*
X155254698Y-83714039D01*
X155420103Y-83824559D01*
X155321512Y-83883183D01*
X155103146Y-84079707D01*
X154927316Y-84315056D01*
X154800778Y-84580186D01*
X154755042Y-84730974D01*
X154876183Y-84963000D01*
X156083000Y-84963000D01*
X156083000Y-84943000D01*
X156337000Y-84943000D01*
X156337000Y-84963000D01*
X158623000Y-84963000D01*
X158623000Y-84943000D01*
X158877000Y-84943000D01*
X158877000Y-84963000D01*
X160083817Y-84963000D01*
X160204958Y-84730974D01*
X160159222Y-84580186D01*
X160032684Y-84315056D01*
X159906922Y-84146723D01*
X189186140Y-113425942D01*
X189082047Y-113677244D01*
X189000000Y-114089721D01*
X189000000Y-114510279D01*
X189082047Y-114922756D01*
X189242988Y-115311302D01*
X189476637Y-115660983D01*
X189774017Y-115958363D01*
X190123698Y-116192012D01*
X190512244Y-116352953D01*
X190924721Y-116435000D01*
X191345279Y-116435000D01*
X191757756Y-116352953D01*
X192146302Y-116192012D01*
X192495983Y-115958363D01*
X192793363Y-115660983D01*
X193027012Y-115311302D01*
X193187953Y-114922756D01*
X193270000Y-114510279D01*
X193270000Y-114089721D01*
X193187953Y-113677244D01*
X193027012Y-113288698D01*
X192793363Y-112939017D01*
X192654218Y-112799872D01*
X242705000Y-112799872D01*
X242705000Y-113240128D01*
X242790890Y-113671925D01*
X242959369Y-114078669D01*
X243203962Y-114444729D01*
X243515271Y-114756038D01*
X243881331Y-115000631D01*
X244288075Y-115169110D01*
X244719872Y-115255000D01*
X245160128Y-115255000D01*
X245591925Y-115169110D01*
X245998669Y-115000631D01*
X246364729Y-114756038D01*
X246676038Y-114444729D01*
X246920631Y-114078669D01*
X247089110Y-113671925D01*
X247175000Y-113240128D01*
X247175000Y-112799872D01*
X247089110Y-112368075D01*
X246920631Y-111961331D01*
X246676038Y-111595271D01*
X246364729Y-111283962D01*
X245998669Y-111039369D01*
X245591925Y-110870890D01*
X245160128Y-110785000D01*
X244719872Y-110785000D01*
X244288075Y-110870890D01*
X243881331Y-111039369D01*
X243515271Y-111283962D01*
X243203962Y-111595271D01*
X242959369Y-111961331D01*
X242790890Y-112368075D01*
X242705000Y-112799872D01*
X192654218Y-112799872D01*
X192495983Y-112641637D01*
X192146302Y-112407988D01*
X191757756Y-112247047D01*
X191345279Y-112165000D01*
X190924721Y-112165000D01*
X190512244Y-112247047D01*
X190260942Y-112351140D01*
X160232808Y-82323007D01*
X160191010Y-82112875D01*
X160173830Y-82071399D01*
X162911598Y-82071399D01*
X189186140Y-108345942D01*
X189082047Y-108597244D01*
X189000000Y-109009721D01*
X189000000Y-109430279D01*
X189082047Y-109842756D01*
X189242988Y-110231302D01*
X189476637Y-110580983D01*
X189774017Y-110878363D01*
X190123698Y-111112012D01*
X190512244Y-111272953D01*
X190924721Y-111355000D01*
X191345279Y-111355000D01*
X191757756Y-111272953D01*
X192146302Y-111112012D01*
X192495983Y-110878363D01*
X192793363Y-110580983D01*
X193027012Y-110231302D01*
X193187953Y-109842756D01*
X193270000Y-109430279D01*
X193270000Y-109009721D01*
X193187953Y-108597244D01*
X193027012Y-108208698D01*
X192793363Y-107859017D01*
X192495983Y-107561637D01*
X192146302Y-107327988D01*
X191757756Y-107167047D01*
X191345279Y-107085000D01*
X190924721Y-107085000D01*
X190512244Y-107167047D01*
X190260942Y-107271140D01*
X163790203Y-80800402D01*
X163766400Y-80771398D01*
X163764697Y-80770000D01*
X166690199Y-80770000D01*
X189186140Y-103265942D01*
X189082047Y-103517244D01*
X189000000Y-103929721D01*
X189000000Y-104350279D01*
X189082047Y-104762756D01*
X189242988Y-105151302D01*
X189476637Y-105500983D01*
X189774017Y-105798363D01*
X190123698Y-106032012D01*
X190512244Y-106192953D01*
X190924721Y-106275000D01*
X191345279Y-106275000D01*
X191757756Y-106192953D01*
X192146302Y-106032012D01*
X192495983Y-105798363D01*
X192793363Y-105500983D01*
X193027012Y-105151302D01*
X193187953Y-104762756D01*
X193270000Y-104350279D01*
X193270000Y-103929721D01*
X193187953Y-103517244D01*
X193027012Y-103128698D01*
X192793363Y-102779017D01*
X192495983Y-102481637D01*
X192146302Y-102247988D01*
X191757756Y-102087047D01*
X191345279Y-102005000D01*
X190924721Y-102005000D01*
X190512244Y-102087047D01*
X190260942Y-102191140D01*
X167601200Y-79531399D01*
X168781598Y-79531399D01*
X188821201Y-99571003D01*
X188844999Y-99600001D01*
X188960724Y-99694974D01*
X188996928Y-99714326D01*
X188996928Y-100560000D01*
X189009188Y-100684482D01*
X189045498Y-100804180D01*
X189104463Y-100914494D01*
X189183815Y-101011185D01*
X189280506Y-101090537D01*
X189390820Y-101149502D01*
X189510518Y-101185812D01*
X189635000Y-101198072D01*
X192635000Y-101198072D01*
X192759482Y-101185812D01*
X192879180Y-101149502D01*
X192989494Y-101090537D01*
X193086185Y-101011185D01*
X193165537Y-100914494D01*
X193224502Y-100804180D01*
X193260812Y-100684482D01*
X193273072Y-100560000D01*
X193273072Y-97560000D01*
X193260812Y-97435518D01*
X193224502Y-97315820D01*
X193165537Y-97205506D01*
X193086185Y-97108815D01*
X192989494Y-97029463D01*
X192879180Y-96970498D01*
X192759482Y-96934188D01*
X192635000Y-96921928D01*
X189635000Y-96921928D01*
X189510518Y-96934188D01*
X189390820Y-96970498D01*
X189280506Y-97029463D01*
X189183815Y-97108815D01*
X189104463Y-97205506D01*
X189045498Y-97315820D01*
X189009188Y-97435518D01*
X188996928Y-97560000D01*
X188996928Y-97597126D01*
X169660203Y-78260402D01*
X169636400Y-78231398D01*
X169520675Y-78136425D01*
X169388646Y-78065853D01*
X169245385Y-78022396D01*
X169133732Y-78011399D01*
X169133721Y-78011399D01*
X169096399Y-78007723D01*
X169059077Y-78011399D01*
X156372323Y-78011399D01*
X156335000Y-78007723D01*
X156297678Y-78011399D01*
X156297668Y-78011399D01*
X156186015Y-78022396D01*
X156042754Y-78065853D01*
X155910725Y-78136425D01*
X155795000Y-78231398D01*
X155771197Y-78260402D01*
X155699003Y-78332596D01*
X155669999Y-78356399D01*
X155614871Y-78423574D01*
X155575026Y-78472124D01*
X155555674Y-78508328D01*
X155346400Y-78508328D01*
X155221918Y-78520588D01*
X155102220Y-78556898D01*
X154991906Y-78615863D01*
X154895215Y-78695215D01*
X154815863Y-78791906D01*
X154756898Y-78902220D01*
X154720588Y-79021918D01*
X154708328Y-79146400D01*
X147980000Y-79146400D01*
X147980000Y-53746400D01*
X154708328Y-53746400D01*
X154708328Y-55473600D01*
X154720588Y-55598082D01*
X154756898Y-55717780D01*
X154815863Y-55828094D01*
X154895215Y-55924785D01*
X154991906Y-56004137D01*
X155102220Y-56063102D01*
X155160023Y-56080636D01*
X155045961Y-56194698D01*
X154881958Y-56440147D01*
X154768990Y-56712875D01*
X154711400Y-57002401D01*
X154711400Y-57297599D01*
X154768990Y-57587125D01*
X154881958Y-57859853D01*
X155045961Y-58105302D01*
X155254698Y-58314039D01*
X155413281Y-58420000D01*
X155254698Y-58525961D01*
X155045961Y-58734698D01*
X154881958Y-58980147D01*
X154768990Y-59252875D01*
X154711400Y-59542401D01*
X154711400Y-59837599D01*
X154768990Y-60127125D01*
X154881958Y-60399853D01*
X155045961Y-60645302D01*
X155254698Y-60854039D01*
X155413281Y-60960000D01*
X155254698Y-61065961D01*
X155045961Y-61274698D01*
X154881958Y-61520147D01*
X154768990Y-61792875D01*
X154711400Y-62082401D01*
X154711400Y-62377599D01*
X154768990Y-62667125D01*
X154881958Y-62939853D01*
X155045961Y-63185302D01*
X155254698Y-63394039D01*
X155413281Y-63500000D01*
X155254698Y-63605961D01*
X155045961Y-63814698D01*
X154881958Y-64060147D01*
X154768990Y-64332875D01*
X154711400Y-64622401D01*
X154711400Y-64917599D01*
X154768990Y-65207125D01*
X154881958Y-65479853D01*
X155045961Y-65725302D01*
X155254698Y-65934039D01*
X155413281Y-66040000D01*
X155254698Y-66145961D01*
X155045961Y-66354698D01*
X154881958Y-66600147D01*
X154768990Y-66872875D01*
X154711400Y-67162401D01*
X154711400Y-67457599D01*
X154768990Y-67747125D01*
X154881958Y-68019853D01*
X155045961Y-68265302D01*
X155254698Y-68474039D01*
X155500147Y-68638042D01*
X155772875Y-68751010D01*
X156062401Y-68808600D01*
X156357599Y-68808600D01*
X156647125Y-68751010D01*
X156919853Y-68638042D01*
X157165302Y-68474039D01*
X157374039Y-68265302D01*
X157480000Y-68106719D01*
X157585961Y-68265302D01*
X157794698Y-68474039D01*
X158040147Y-68638042D01*
X158312875Y-68751010D01*
X158602401Y-68808600D01*
X158897599Y-68808600D01*
X159187125Y-68751010D01*
X159459853Y-68638042D01*
X159705302Y-68474039D01*
X159914039Y-68265302D01*
X160044535Y-68070000D01*
X165420199Y-68070000D01*
X189186140Y-91835942D01*
X189082047Y-92087244D01*
X189000000Y-92499721D01*
X189000000Y-92920279D01*
X189082047Y-93332756D01*
X189242988Y-93721302D01*
X189476637Y-94070983D01*
X189774017Y-94368363D01*
X190123698Y-94602012D01*
X190512244Y-94762953D01*
X190924721Y-94845000D01*
X191345279Y-94845000D01*
X191757756Y-94762953D01*
X192146302Y-94602012D01*
X192495983Y-94368363D01*
X192793363Y-94070983D01*
X193027012Y-93721302D01*
X193187953Y-93332756D01*
X193270000Y-92920279D01*
X193270000Y-92499721D01*
X193187953Y-92087244D01*
X193027012Y-91698698D01*
X192793363Y-91349017D01*
X192495983Y-91051637D01*
X192146302Y-90817988D01*
X191757756Y-90657047D01*
X191345279Y-90575000D01*
X190924721Y-90575000D01*
X190512244Y-90657047D01*
X190260942Y-90761140D01*
X166331200Y-66831399D01*
X169261598Y-66831399D01*
X189123998Y-86693800D01*
X189124003Y-86693804D01*
X189186140Y-86755941D01*
X189082047Y-87007244D01*
X189000000Y-87419721D01*
X189000000Y-87840279D01*
X189082047Y-88252756D01*
X189242988Y-88641302D01*
X189476637Y-88990983D01*
X189774017Y-89288363D01*
X190123698Y-89522012D01*
X190512244Y-89682953D01*
X190924721Y-89765000D01*
X191345279Y-89765000D01*
X191757756Y-89682953D01*
X192146302Y-89522012D01*
X192495983Y-89288363D01*
X192793363Y-88990983D01*
X193027012Y-88641302D01*
X193187953Y-88252756D01*
X193270000Y-87840279D01*
X193270000Y-87419721D01*
X193187953Y-87007244D01*
X193027012Y-86618698D01*
X192793363Y-86269017D01*
X192495983Y-85971637D01*
X192146302Y-85737988D01*
X191757756Y-85577047D01*
X191345279Y-85495000D01*
X190924721Y-85495000D01*
X190512244Y-85577047D01*
X190260941Y-85681140D01*
X190198804Y-85619003D01*
X190198800Y-85618998D01*
X170140203Y-65560402D01*
X170116400Y-65531398D01*
X170114697Y-65530000D01*
X173040199Y-65530000D01*
X189186140Y-81675942D01*
X189082047Y-81927244D01*
X189000000Y-82339721D01*
X189000000Y-82760279D01*
X189082047Y-83172756D01*
X189242988Y-83561302D01*
X189476637Y-83910983D01*
X189774017Y-84208363D01*
X190123698Y-84442012D01*
X190512244Y-84602953D01*
X190924721Y-84685000D01*
X191345279Y-84685000D01*
X191757756Y-84602953D01*
X192146302Y-84442012D01*
X192495983Y-84208363D01*
X192793363Y-83910983D01*
X193027012Y-83561302D01*
X193187953Y-83172756D01*
X193270000Y-82760279D01*
X193270000Y-82339721D01*
X193187953Y-81927244D01*
X193027012Y-81538698D01*
X192793363Y-81189017D01*
X192495983Y-80891637D01*
X192146302Y-80657988D01*
X191757756Y-80497047D01*
X191345279Y-80415000D01*
X190924721Y-80415000D01*
X190512244Y-80497047D01*
X190260942Y-80601140D01*
X173951200Y-64291399D01*
X178631598Y-64291399D01*
X189672126Y-75331928D01*
X189635000Y-75331928D01*
X189510518Y-75344188D01*
X189390820Y-75380498D01*
X189280506Y-75439463D01*
X189183815Y-75518815D01*
X189104463Y-75615506D01*
X189045498Y-75725820D01*
X189009188Y-75845518D01*
X188996928Y-75970000D01*
X188996928Y-78970000D01*
X189009188Y-79094482D01*
X189045498Y-79214180D01*
X189104463Y-79324494D01*
X189183815Y-79421185D01*
X189280506Y-79500537D01*
X189390820Y-79559502D01*
X189510518Y-79595812D01*
X189635000Y-79608072D01*
X192635000Y-79608072D01*
X192759482Y-79595812D01*
X192879180Y-79559502D01*
X192989494Y-79500537D01*
X193086185Y-79421185D01*
X193165537Y-79324494D01*
X193224502Y-79214180D01*
X193260812Y-79094482D01*
X193273072Y-78970000D01*
X193273072Y-75970000D01*
X193260812Y-75845518D01*
X193224502Y-75725820D01*
X193165537Y-75615506D01*
X193086185Y-75518815D01*
X192989494Y-75439463D01*
X192879180Y-75380498D01*
X192759482Y-75344188D01*
X192635000Y-75331928D01*
X191789326Y-75331928D01*
X191769974Y-75295724D01*
X191675001Y-75179999D01*
X191646004Y-75156202D01*
X179510203Y-63020402D01*
X179486400Y-62991398D01*
X179484697Y-62990000D01*
X181930199Y-62990000D01*
X189186140Y-70245942D01*
X189082047Y-70497244D01*
X189000000Y-70909721D01*
X189000000Y-71330279D01*
X189082047Y-71742756D01*
X189242988Y-72131302D01*
X189476637Y-72480983D01*
X189774017Y-72778363D01*
X190123698Y-73012012D01*
X190512244Y-73172953D01*
X190924721Y-73255000D01*
X191345279Y-73255000D01*
X191757756Y-73172953D01*
X192146302Y-73012012D01*
X192495983Y-72778363D01*
X192793363Y-72480983D01*
X193027012Y-72131302D01*
X193187953Y-71742756D01*
X193270000Y-71330279D01*
X193270000Y-70909721D01*
X193187953Y-70497244D01*
X193027012Y-70108698D01*
X192793363Y-69759017D01*
X192495983Y-69461637D01*
X192146302Y-69227988D01*
X191757756Y-69067047D01*
X191345279Y-68985000D01*
X190924721Y-68985000D01*
X190512244Y-69067047D01*
X190260942Y-69171140D01*
X182841200Y-61751399D01*
X185771598Y-61751399D01*
X189123998Y-65103800D01*
X189124003Y-65103804D01*
X189186140Y-65165941D01*
X189082047Y-65417244D01*
X189000000Y-65829721D01*
X189000000Y-66250279D01*
X189082047Y-66662756D01*
X189242988Y-67051302D01*
X189476637Y-67400983D01*
X189774017Y-67698363D01*
X190123698Y-67932012D01*
X190512244Y-68092953D01*
X190924721Y-68175000D01*
X191345279Y-68175000D01*
X191757756Y-68092953D01*
X192146302Y-67932012D01*
X192495983Y-67698363D01*
X192793363Y-67400983D01*
X193027012Y-67051302D01*
X193187953Y-66662756D01*
X193270000Y-66250279D01*
X193270000Y-65829721D01*
X193187953Y-65417244D01*
X193027012Y-65028698D01*
X192793363Y-64679017D01*
X192495983Y-64381637D01*
X192146302Y-64147988D01*
X191757756Y-63987047D01*
X191345279Y-63905000D01*
X190924721Y-63905000D01*
X190512244Y-63987047D01*
X190260941Y-64091140D01*
X190198804Y-64029003D01*
X190198800Y-64028998D01*
X186650203Y-60480402D01*
X186626400Y-60451398D01*
X186624697Y-60450000D01*
X189059618Y-60450000D01*
X189000000Y-60749721D01*
X189000000Y-61170279D01*
X189082047Y-61582756D01*
X189242988Y-61971302D01*
X189476637Y-62320983D01*
X189774017Y-62618363D01*
X190123698Y-62852012D01*
X190512244Y-63012953D01*
X190924721Y-63095000D01*
X191345279Y-63095000D01*
X191757756Y-63012953D01*
X192146302Y-62852012D01*
X192495983Y-62618363D01*
X192793363Y-62320983D01*
X193027012Y-61971302D01*
X193187953Y-61582756D01*
X193270000Y-61170279D01*
X193270000Y-60749721D01*
X193187953Y-60337244D01*
X193027012Y-59948698D01*
X192793363Y-59599017D01*
X192495983Y-59301637D01*
X192146302Y-59067988D01*
X191757756Y-58907047D01*
X191345279Y-58825000D01*
X191014801Y-58825000D01*
X191646004Y-58193798D01*
X191675001Y-58170001D01*
X191769974Y-58054276D01*
X191789326Y-58018072D01*
X192635000Y-58018072D01*
X192759482Y-58005812D01*
X192879180Y-57969502D01*
X192989494Y-57910537D01*
X193086185Y-57831185D01*
X193165537Y-57734494D01*
X193224502Y-57624180D01*
X193260812Y-57504482D01*
X193273072Y-57380000D01*
X193273072Y-54380000D01*
X193260812Y-54255518D01*
X193224502Y-54135820D01*
X193165537Y-54025506D01*
X193086185Y-53928815D01*
X192989494Y-53849463D01*
X192879180Y-53790498D01*
X192759482Y-53754188D01*
X192635000Y-53741928D01*
X189635000Y-53741928D01*
X189510518Y-53754188D01*
X189390820Y-53790498D01*
X189280506Y-53849463D01*
X189183815Y-53928815D01*
X189104463Y-54025506D01*
X189045498Y-54135820D01*
X189009188Y-54255518D01*
X188996928Y-54380000D01*
X188996928Y-57380000D01*
X189009188Y-57504482D01*
X189045498Y-57624180D01*
X189081428Y-57691399D01*
X184053298Y-57691399D01*
X184055001Y-57690001D01*
X184078804Y-57660997D01*
X190260942Y-51478860D01*
X190512244Y-51582953D01*
X190924721Y-51665000D01*
X191345279Y-51665000D01*
X191757756Y-51582953D01*
X192146302Y-51422012D01*
X192495983Y-51188363D01*
X192793363Y-50890983D01*
X193027012Y-50541302D01*
X193187953Y-50152756D01*
X193270000Y-49740279D01*
X193270000Y-49319721D01*
X193187953Y-48907244D01*
X193027012Y-48518698D01*
X192793363Y-48169017D01*
X192495983Y-47871637D01*
X192146302Y-47637988D01*
X191757756Y-47477047D01*
X191345279Y-47395000D01*
X190924721Y-47395000D01*
X190512244Y-47477047D01*
X190123698Y-47637988D01*
X189774017Y-47871637D01*
X189476637Y-48169017D01*
X189242988Y-48518698D01*
X189082047Y-48907244D01*
X189000000Y-49319721D01*
X189000000Y-49740279D01*
X189082047Y-50152756D01*
X189186140Y-50404058D01*
X183200199Y-56390000D01*
X180269801Y-56390000D01*
X190198800Y-46461002D01*
X190198804Y-46460997D01*
X190260941Y-46398860D01*
X190512244Y-46502953D01*
X190924721Y-46585000D01*
X191345279Y-46585000D01*
X191757756Y-46502953D01*
X192146302Y-46342012D01*
X192495983Y-46108363D01*
X192793363Y-45810983D01*
X193027012Y-45461302D01*
X193187953Y-45072756D01*
X193270000Y-44660279D01*
X193270000Y-44239721D01*
X193187953Y-43827244D01*
X193027012Y-43438698D01*
X192793363Y-43089017D01*
X192495983Y-42791637D01*
X192146302Y-42557988D01*
X191757756Y-42397047D01*
X191345279Y-42315000D01*
X190924721Y-42315000D01*
X190512244Y-42397047D01*
X190123698Y-42557988D01*
X189774017Y-42791637D01*
X189476637Y-43089017D01*
X189242988Y-43438698D01*
X189082047Y-43827244D01*
X189000000Y-44239721D01*
X189000000Y-44660279D01*
X189082047Y-45072756D01*
X189186140Y-45324059D01*
X189124003Y-45386196D01*
X189123998Y-45386200D01*
X179358800Y-55151399D01*
X176433298Y-55151399D01*
X176435001Y-55150001D01*
X176458804Y-55120997D01*
X190260942Y-41318860D01*
X190512244Y-41422953D01*
X190924721Y-41505000D01*
X191345279Y-41505000D01*
X191757756Y-41422953D01*
X192146302Y-41262012D01*
X192495983Y-41028363D01*
X192793363Y-40730983D01*
X193027012Y-40381302D01*
X193187953Y-39992756D01*
X193270000Y-39580279D01*
X193270000Y-39159721D01*
X193187953Y-38747244D01*
X193027012Y-38358698D01*
X192793363Y-38009017D01*
X192495983Y-37711637D01*
X192146302Y-37477988D01*
X191757756Y-37317047D01*
X191345279Y-37235000D01*
X191014802Y-37235000D01*
X191646004Y-36603798D01*
X191675001Y-36580001D01*
X191769974Y-36464276D01*
X191789326Y-36428072D01*
X192635000Y-36428072D01*
X192759482Y-36415812D01*
X192879180Y-36379502D01*
X192989494Y-36320537D01*
X193086185Y-36241185D01*
X193165537Y-36144494D01*
X193224502Y-36034180D01*
X193260812Y-35914482D01*
X193273072Y-35790000D01*
X193273072Y-32799872D01*
X242705000Y-32799872D01*
X242705000Y-33240128D01*
X242790890Y-33671925D01*
X242959369Y-34078669D01*
X243203962Y-34444729D01*
X243515271Y-34756038D01*
X243881331Y-35000631D01*
X244288075Y-35169110D01*
X244719872Y-35255000D01*
X245160128Y-35255000D01*
X245591925Y-35169110D01*
X245998669Y-35000631D01*
X246364729Y-34756038D01*
X246676038Y-34444729D01*
X246920631Y-34078669D01*
X247089110Y-33671925D01*
X247175000Y-33240128D01*
X247175000Y-32799872D01*
X247089110Y-32368075D01*
X246920631Y-31961331D01*
X246676038Y-31595271D01*
X246364729Y-31283962D01*
X245998669Y-31039369D01*
X245591925Y-30870890D01*
X245160128Y-30785000D01*
X244719872Y-30785000D01*
X244288075Y-30870890D01*
X243881331Y-31039369D01*
X243515271Y-31283962D01*
X243203962Y-31595271D01*
X242959369Y-31961331D01*
X242790890Y-32368075D01*
X242705000Y-32799872D01*
X193273072Y-32799872D01*
X193273072Y-32790000D01*
X193260812Y-32665518D01*
X193224502Y-32545820D01*
X193165537Y-32435506D01*
X193086185Y-32338815D01*
X192989494Y-32259463D01*
X192879180Y-32200498D01*
X192759482Y-32164188D01*
X192635000Y-32151928D01*
X189635000Y-32151928D01*
X189510518Y-32164188D01*
X189390820Y-32200498D01*
X189280506Y-32259463D01*
X189183815Y-32338815D01*
X189104463Y-32435506D01*
X189045498Y-32545820D01*
X189009188Y-32665518D01*
X188996928Y-32790000D01*
X188996928Y-35790000D01*
X189009188Y-35914482D01*
X189045498Y-36034180D01*
X189104463Y-36144494D01*
X189183815Y-36241185D01*
X189280506Y-36320537D01*
X189390820Y-36379502D01*
X189510518Y-36415812D01*
X189635000Y-36428072D01*
X189672126Y-36428072D01*
X173520199Y-52580000D01*
X157517322Y-52580000D01*
X157479999Y-52576324D01*
X157442676Y-52580000D01*
X157442667Y-52580000D01*
X157331014Y-52590997D01*
X157187753Y-52634454D01*
X157055724Y-52705026D01*
X156939999Y-52799999D01*
X156916201Y-52828997D01*
X156636870Y-53108328D01*
X155346400Y-53108328D01*
X155221918Y-53120588D01*
X155102220Y-53156898D01*
X154991906Y-53215863D01*
X154895215Y-53295215D01*
X154815863Y-53391906D01*
X154756898Y-53502220D01*
X154720588Y-53621918D01*
X154708328Y-53746400D01*
X147980000Y-53746400D01*
X147980000Y-32799872D01*
X152705000Y-32799872D01*
X152705000Y-33240128D01*
X152790890Y-33671925D01*
X152959369Y-34078669D01*
X153203962Y-34444729D01*
X153515271Y-34756038D01*
X153881331Y-35000631D01*
X154288075Y-35169110D01*
X154719872Y-35255000D01*
X155160128Y-35255000D01*
X155591925Y-35169110D01*
X155998669Y-35000631D01*
X156364729Y-34756038D01*
X156676038Y-34444729D01*
X156920631Y-34078669D01*
X157089110Y-33671925D01*
X157175000Y-33240128D01*
X157175000Y-32799872D01*
X157089110Y-32368075D01*
X156920631Y-31961331D01*
X156676038Y-31595271D01*
X156364729Y-31283962D01*
X155998669Y-31039369D01*
X155591925Y-30870890D01*
X155160128Y-30785000D01*
X154719872Y-30785000D01*
X154288075Y-30870890D01*
X153881331Y-31039369D01*
X153515271Y-31283962D01*
X153203962Y-31595271D01*
X152959369Y-31961331D01*
X152790890Y-32368075D01*
X152705000Y-32799872D01*
X147980000Y-32799872D01*
X147980000Y-26060000D01*
X258420000Y-26060000D01*
X258420001Y-39337572D01*
G36*
X157585961Y-83505302D02*
G01*
X157794698Y-83714039D01*
X157960103Y-83824559D01*
X157861512Y-83883183D01*
X157643146Y-84079707D01*
X157480000Y-84298078D01*
X157316854Y-84079707D01*
X157098488Y-83883183D01*
X156999897Y-83824559D01*
X157165302Y-83714039D01*
X157374039Y-83505302D01*
X157480000Y-83346719D01*
X157585961Y-83505302D01*
G37*
X157585961Y-83505302D02*
X157794698Y-83714039D01*
X157960103Y-83824559D01*
X157861512Y-83883183D01*
X157643146Y-84079707D01*
X157480000Y-84298078D01*
X157316854Y-84079707D01*
X157098488Y-83883183D01*
X156999897Y-83824559D01*
X157165302Y-83714039D01*
X157374039Y-83505302D01*
X157480000Y-83346719D01*
X157585961Y-83505302D01*
G36*
X159687416Y-83927217D02*
G01*
X159638488Y-83883183D01*
X159539897Y-83824559D01*
X159566789Y-83806590D01*
X159687416Y-83927217D01*
G37*
X159687416Y-83927217D02*
X159638488Y-83883183D01*
X159539897Y-83824559D01*
X159566789Y-83806590D01*
X159687416Y-83927217D01*
G36*
X157643146Y-91180293D02*
G01*
X157861512Y-91376817D01*
X157960103Y-91435441D01*
X157794698Y-91545961D01*
X157585961Y-91754698D01*
X157480000Y-91913281D01*
X157374039Y-91754698D01*
X157165302Y-91545961D01*
X156999897Y-91435441D01*
X157098488Y-91376817D01*
X157316854Y-91180293D01*
X157480000Y-90961922D01*
X157643146Y-91180293D01*
G37*
X157643146Y-91180293D02*
X157861512Y-91376817D01*
X157960103Y-91435441D01*
X157794698Y-91545961D01*
X157585961Y-91754698D01*
X157480000Y-91913281D01*
X157374039Y-91754698D01*
X157165302Y-91545961D01*
X156999897Y-91435441D01*
X157098488Y-91376817D01*
X157316854Y-91180293D01*
X157480000Y-90961922D01*
X157643146Y-91180293D01*
G36*
X157643146Y-88640293D02*
G01*
X157861512Y-88836817D01*
X157967770Y-88900000D01*
X157861512Y-88963183D01*
X157643146Y-89159707D01*
X157480000Y-89378078D01*
X157316854Y-89159707D01*
X157098488Y-88963183D01*
X156992230Y-88900000D01*
X157098488Y-88836817D01*
X157316854Y-88640293D01*
X157480000Y-88421922D01*
X157643146Y-88640293D01*
G37*
X157643146Y-88640293D02*
X157861512Y-88836817D01*
X157967770Y-88900000D01*
X157861512Y-88963183D01*
X157643146Y-89159707D01*
X157480000Y-89378078D01*
X157316854Y-89159707D01*
X157098488Y-88963183D01*
X156992230Y-88900000D01*
X157098488Y-88836817D01*
X157316854Y-88640293D01*
X157480000Y-88421922D01*
X157643146Y-88640293D01*
G36*
X157643146Y-86100293D02*
G01*
X157861512Y-86296817D01*
X157967770Y-86360000D01*
X157861512Y-86423183D01*
X157643146Y-86619707D01*
X157480000Y-86838078D01*
X157316854Y-86619707D01*
X157098488Y-86423183D01*
X156992230Y-86360000D01*
X157098488Y-86296817D01*
X157316854Y-86100293D01*
X157480000Y-85881922D01*
X157643146Y-86100293D01*
G37*
X157643146Y-86100293D02*
X157861512Y-86296817D01*
X157967770Y-86360000D01*
X157861512Y-86423183D01*
X157643146Y-86619707D01*
X157480000Y-86838078D01*
X157316854Y-86619707D01*
X157098488Y-86423183D01*
X156992230Y-86360000D01*
X157098488Y-86296817D01*
X157316854Y-86100293D01*
X157480000Y-85881922D01*
X157643146Y-86100293D01*
M02*
