G04 Layer: Inner1*
G04 EasyEDA v6.4.7, 2020-11-03T11:21:11+01:00*
G04 e0ef41b2cc3c4505ab9108ec2d5a37c9,9bd7e35f881f4a88a1d5770e7942d247,10*
G04 Gerber Generator version 0.2*
G04 Scale: 100 percent, Rotated: No, Reflected: No *
G04 Dimensions in millimeters *
G04 leading zeros omitted , absolute positions ,3 integer and 3 decimal *
%FSLAX33Y33*%
%MOMM*%
G90*
D02*

%ADD10C,0.254000*%
%ADD13C,0.599999*%
%ADD14C,0.750011*%
%ADD17C,1.599997*%
%ADD18C,2.499995*%
%ADD19C,1.799996*%
%ADD20R,1.799996X1.799996*%
%ADD21C,2.999994*%

%LPD*%
G54D10*
G01X52451Y61746D02*
G01X37211Y76986D01*
G01X55118Y44982D02*
G01X47879Y52221D01*
G01X47879Y56031D01*
G01X32131Y71779D01*
G01X32131Y79018D01*
G01X46863Y48411D02*
G01X46863Y56031D01*
G01X40259Y62635D01*
G01X52705Y52602D02*
G01X43561Y61746D01*
G01X43561Y63270D01*
G01X44450Y45363D02*
G01X44450Y50189D01*
G01X65405Y21868D02*
G01X50038Y21868D01*
G01X40386Y31520D01*
G01X49403Y27329D02*
G01X43434Y33298D01*
G01X43434Y48919D01*
G01X65405Y43585D02*
G01X62611Y43585D01*
G01X49022Y57174D01*
G01X49022Y60349D01*
G01X32893Y76478D01*
G01X33782Y82955D02*
G01X33782Y76478D01*
G01X48768Y61492D01*
G01X50292Y61492D01*
G01X55372Y56412D01*
G01X65405Y56412D01*
G01X37719Y85241D02*
G01X37719Y77621D01*
G01X56515Y58825D01*
G01X56515Y57428D01*
G01X34290Y49300D02*
G01X29210Y44220D01*
G01X29210Y33806D01*
G54D17*
G01X47879Y59143D03*
G01X50419Y59143D03*
G01X47879Y81030D03*
G01X50419Y81030D03*
G01X47879Y15371D03*
G01X50419Y15371D03*
G01X47879Y37257D03*
G01X50419Y37257D03*
G54D18*
G01X91186Y86624D03*
G01X91186Y81624D03*
G01X91186Y76624D03*
G01X91186Y71624D03*
G01X91186Y23378D03*
G01X91186Y18378D03*
G01X91186Y13378D03*
G01X91186Y8378D03*
G01X91186Y44460D03*
G01X91186Y39460D03*
G01X91186Y34460D03*
G01X91186Y29460D03*
G01X91186Y65542D03*
G01X91186Y60542D03*
G01X91186Y55542D03*
G01X91186Y50542D03*
G54D19*
G01X24765Y33150D03*
G01X27305Y33152D03*
G01X24764Y30610D03*
G01X27305Y30612D03*
G01X24764Y28070D03*
G01X27304Y28070D03*
G01X24764Y25530D03*
G01X27305Y25532D03*
G01X24764Y22990D03*
G01X27305Y22992D03*
G01X24764Y20450D03*
G54D20*
G01X27303Y20451D03*
G54D19*
G01X24765Y75568D03*
G01X27305Y75570D03*
G01X24764Y73028D03*
G01X27305Y73030D03*
G01X24764Y70488D03*
G01X27304Y70488D03*
G01X24764Y67948D03*
G01X27305Y67950D03*
G01X24764Y65408D03*
G01X27305Y65410D03*
G01X24764Y62868D03*
G54D20*
G01X27303Y62869D03*
G54D21*
G01X35433Y16895D03*
G01X35433Y11815D03*
G54D14*
G01X71120Y88015D03*
G01X55245Y89920D03*
G01X43053Y13466D03*
G01X43053Y10164D03*
G01X20320Y29087D03*
G01X20320Y33659D03*
G01X67691Y4576D03*
G01X67691Y9148D03*
G01X73279Y90174D03*
G01X79502Y90174D03*
G01X57785Y78871D03*
G01X80137Y76585D03*
G01X69088Y80014D03*
G01X80010Y71632D03*
G01X67945Y66298D03*
G01X79883Y65536D03*
G01X57785Y66044D03*
G01X77597Y67822D03*
G01X57785Y51312D03*
G01X78740Y55503D03*
G01X64135Y52836D03*
G01X77724Y52348D03*
G01X68072Y46994D03*
G01X78740Y45597D03*
G01X57785Y43946D03*
G01X78613Y40136D03*
G01X57785Y29595D03*
G01X78613Y33024D03*
G01X64135Y30738D03*
G01X77216Y29976D03*
G01X68072Y23499D03*
G01X79375Y23499D03*
G01X57785Y22864D03*
G01X77597Y25404D03*
G01X70231Y8132D03*
G01X80264Y8259D03*
G54D13*
G01X33655Y32155D03*
G01X19685Y68985D03*
G01X32766Y30885D03*
G01X32893Y28345D03*
G01X33655Y30885D03*
G01X22860Y26821D03*
G01X22733Y58952D03*
G01X34036Y45109D03*
G01X29464Y58698D03*
G01X34036Y47649D03*
G01X30353Y57936D03*
G01X31369Y60476D03*
G01X33020Y50570D03*
G01X34290Y49300D03*
G01X29210Y33806D03*
G01X29845Y47522D03*
G01X33782Y51459D03*
G01X34290Y27075D03*
G01X65405Y83336D03*
G01X43180Y78891D03*
G01X53340Y79907D03*
G01X56515Y82574D03*
G01X50927Y79145D03*
G01X56515Y79272D03*
G01X44323Y57682D03*
G01X45212Y25805D03*
G01X50927Y78256D03*
G01X63500Y74065D03*
G01X43942Y82574D03*
G01X46482Y70763D03*
G01X51181Y66064D03*
G01X65405Y60603D03*
G01X43053Y82193D03*
G01X46482Y66699D03*
G01X56515Y65937D03*
G01X37719Y85241D03*
G01X56515Y57428D03*
G01X46228Y37235D03*
G01X46228Y28345D03*
G01X33782Y82955D03*
G01X65405Y56412D03*
G01X65278Y81812D03*
G01X42799Y53237D03*
G01X37465Y43966D03*
G01X49530Y70636D03*
G01X49022Y42696D03*
G01X32893Y76478D03*
G01X65405Y43585D03*
G01X65532Y35838D03*
G01X49403Y29615D03*
G01X43815Y27075D03*
G01X64135Y59333D03*
G01X50165Y43839D03*
G01X66675Y37489D03*
G01X52070Y45490D03*
G01X64897Y16534D03*
G01X49403Y27329D03*
G01X43434Y48919D03*
G01X65405Y21868D03*
G01X40386Y31520D03*
G01X53340Y13486D03*
G01X49403Y24789D03*
G01X44450Y45363D03*
G01X44450Y50189D03*
G01X64389Y14883D03*
G01X52705Y52602D03*
G01X43561Y63270D03*
G01X43561Y63270D03*
G01X51943Y10438D03*
G01X44577Y13486D03*
G01X43180Y24408D03*
G01X40259Y32790D03*
G01X43434Y57682D03*
G01X39497Y61365D03*
G01X44577Y33298D03*
G01X44450Y36219D03*
G01X45974Y41426D03*
G01X46355Y47649D03*
G01X51816Y29488D03*
G01X46863Y48411D03*
G01X40259Y62635D03*
G01X39497Y30885D03*
G01X35560Y57555D03*
G01X35560Y57555D03*
G01X34417Y78891D03*
G01X55118Y44982D03*
G01X32131Y79018D03*
G01X34417Y80796D03*
G01X64516Y34949D03*
G01X52451Y61746D03*
G01X37211Y76986D03*
M00*
M02*
