G04 Layer: BottomSolderMaskLayer*
G04 EasyEDA v6.4.7, 2020-11-03T11:21:11+01:00*
G04 e0ef41b2cc3c4505ab9108ec2d5a37c9,9bd7e35f881f4a88a1d5770e7942d247,10*
G04 Gerber Generator version 0.2*
G04 Scale: 100 percent, Rotated: No, Reflected: No *
G04 Dimensions in millimeters *
G04 leading zeros omitted , absolute positions ,3 integer and 3 decimal *
%FSLAX33Y33*%
%MOMM*%
G90*
D02*

%ADD28C,1.803197*%
%ADD30C,2.703195*%
%ADD31C,2.003196*%
%ADD34C,3.203194*%

%LPD*%
G54D28*
G01X47879Y59143D03*
G01X50419Y59143D03*
G01X47879Y81030D03*
G01X50419Y81030D03*
G01X47879Y15371D03*
G01X50419Y15371D03*
G01X47879Y37257D03*
G01X50419Y37257D03*
G54D30*
G01X91186Y86624D03*
G01X91186Y81624D03*
G01X91186Y76624D03*
G01X91186Y71624D03*
G01X91186Y23378D03*
G01X91186Y18378D03*
G01X91186Y13378D03*
G01X91186Y8378D03*
G01X91186Y44460D03*
G01X91186Y39460D03*
G01X91186Y34460D03*
G01X91186Y29460D03*
G01X91186Y65542D03*
G01X91186Y60542D03*
G01X91186Y55542D03*
G01X91186Y50542D03*
G54D31*
G01X24765Y33150D03*
G01X27305Y33152D03*
G01X24764Y30610D03*
G01X27305Y30612D03*
G01X24764Y28070D03*
G01X27304Y28070D03*
G01X24764Y25530D03*
G01X27305Y25532D03*
G01X24764Y22990D03*
G01X27305Y22992D03*
G01X24764Y20450D03*
G36*
G01X26301Y19450D02*
G01X26301Y21451D01*
G01X28305Y21451D01*
G01X28305Y19450D01*
G01X26301Y19450D01*
G37*
G01X24765Y75568D03*
G01X27305Y75570D03*
G01X24764Y73028D03*
G01X27305Y73030D03*
G01X24764Y70488D03*
G01X27304Y70488D03*
G01X24764Y67948D03*
G01X27305Y67950D03*
G01X24764Y65408D03*
G01X27305Y65410D03*
G01X24764Y62868D03*
G36*
G01X26301Y61868D02*
G01X26301Y63869D01*
G01X28305Y63869D01*
G01X28305Y61868D01*
G01X26301Y61868D01*
G37*
G54D34*
G01X35433Y16895D03*
G01X35433Y11815D03*
M00*
M02*
