;Layer: Drill PTH
;EasyEDA v6.4.7, 2020-11-03T11:21:11+01:00
;e0ef41b2cc3c4505ab9108ec2d5a37c9,9bd7e35f881f4a88a1d5770e7942d247,10
;Gerber Generator version 0.2
M48
METRIC,LZ,000.000
;Holesize 1 = 0.351 METRIC
T01C0.351
;Holesize 2 = 0.501 METRIC
T02C0.501
;Holesize 3 = 1.000 METRIC
T03C1.000
;Holesize 4 = 1.101 METRIC
T04C1.101
;Holesize 5 = 1.200 METRIC
T05C1.200
;Holesize 6 = 1.800 METRIC
T06C1.800
%
G05
G90
T01
X+033655Y+032155
X+019685Y+068985
X+032766Y+030885
X+032893Y+028345
X+033655Y+030885
X+022860Y+026821
X+022733Y+058952
X+034036Y+045109
X+029464Y+058698
X+034036Y+047649
X+030353Y+057936
X+031369Y+060476
X+033020Y+050570
X+034290Y+049300
X+029210Y+033806
X+029845Y+047522
X+033782Y+051459
X+034290Y+027075
X+065405Y+083336
X+043180Y+078891
X+053340Y+079907
X+056515Y+082574
X+050927Y+079145
X+056515Y+079272
X+044323Y+057682
X+045212Y+025805
X+050927Y+078256
X+063500Y+074065
X+043942Y+082574
X+046482Y+070763
X+051181Y+066064
X+065405Y+060603
X+043053Y+082193
X+046482Y+066699
X+056515Y+065937
X+037719Y+085241
X+056515Y+057428
X+046228Y+037235
X+046228Y+028345
X+033782Y+082955
X+065405Y+056412
X+065278Y+081812
X+042799Y+053237
X+037465Y+043966
X+049530Y+070636
X+049022Y+042696
X+032893Y+076478
X+065405Y+043585
X+065532Y+035838
X+049403Y+029615
X+043815Y+027075
X+064135Y+059333
X+050165Y+043839
X+066675Y+037489
X+052070Y+045490
X+064897Y+016534
X+049403Y+027329
X+043434Y+048919
X+065405Y+021868
X+040386Y+031520
X+053340Y+013486
X+049403Y+024789
X+044450Y+045363
X+044450Y+050189
X+064389Y+014883
X+052705Y+052602
X+043561Y+063270
X+043561Y+063270
X+051943Y+010438
X+044577Y+013486
X+043180Y+024408
X+040259Y+032790
X+043434Y+057682
X+039497Y+061365
X+044577Y+033298
X+044450Y+036219
X+045974Y+041426
X+046355Y+047649
X+051816Y+029488
X+046863Y+048411
X+040259Y+062635
X+039497Y+030885
X+035560Y+057555
X+035560Y+057555
X+034417Y+078891
X+055118Y+044982
X+032131Y+079018
X+034417Y+080796
X+064516Y+034949
X+052451Y+061746
X+037211Y+076986
T02
X+071120Y+088015
X+055245Y+089920
X+043053Y+013466
X+043053Y+010164
X+020320Y+029087
X+020320Y+033659
X+067691Y+004576
X+067691Y+009148
X+073279Y+090174
X+079502Y+090174
X+057785Y+078871
X+080137Y+076585
X+069088Y+080014
X+080010Y+071632
X+067945Y+066298
X+079883Y+065536
X+057785Y+066044
X+077597Y+067822
X+057785Y+051312
X+078740Y+055503
X+064135Y+052836
X+077724Y+052348
X+068072Y+046994
X+078740Y+045597
X+057785Y+043946
X+078613Y+040136
X+057785Y+029595
X+078613Y+033024
X+064135Y+030738
X+077216Y+029976
X+068072Y+023499
X+079375Y+023499
X+057785Y+022864
X+077597Y+025404
X+070231Y+008132
X+080264Y+008259
T03
X+047879Y+059143
X+050419Y+059143
X+047879Y+081030
X+050419Y+081030
X+047879Y+015371
X+050419Y+015371
X+047879Y+037257
X+050419Y+037257
T04
X+024765Y+033150
X+027305Y+033152
X+024764Y+030610
X+027305Y+030612
X+024764Y+028070
X+027304Y+028070
X+024764Y+025530
X+027305Y+025532
X+024764Y+022990
X+027305Y+022992
X+024764Y+020450
X+027304Y+020451
X+024765Y+075568
X+027305Y+075570
X+024764Y+073028
X+027305Y+073030
X+024764Y+070488
X+027304Y+070488
X+024764Y+067948
X+027305Y+067950
X+024764Y+065408
X+027305Y+065410
X+024764Y+062868
X+027304Y+062869
T05
X+091186Y+086625
X+091186Y+081625
X+091186Y+076625
X+091186Y+071625
X+091186Y+023379
X+091186Y+018379
X+091186Y+013379
X+091186Y+008379
X+091186Y+044461
X+091186Y+039461
X+091186Y+034461
X+091186Y+029461
X+091186Y+065543
X+091186Y+060543
X+091186Y+055543
X+091186Y+050543
T06
X+035433Y+016895
X+035433Y+011815
M30
