G04 Layer: TopLayer*
G04 EasyEDA v6.4.7, 2020-11-03T11:21:11+01:00*
G04 e0ef41b2cc3c4505ab9108ec2d5a37c9,9bd7e35f881f4a88a1d5770e7942d247,10*
G04 Gerber Generator version 0.2*
G04 Scale: 100 percent, Rotated: No, Reflected: No *
G04 Dimensions in millimeters *
G04 leading zeros omitted , absolute positions ,3 integer and 3 decimal *
%FSLAX33Y33*%
%MOMM*%
G90*
D02*

%ADD10C,0.254000*%
%ADD11C,0.499999*%
%ADD12C,0.999998*%
%ADD13C,0.599999*%
%ADD14C,0.750011*%
%ADD15R,0.999998X1.550010*%
%ADD16R,1.799996X1.199998*%
%ADD17C,1.599997*%
%ADD18C,2.499995*%
%ADD19C,1.799996*%
%ADD20R,1.799996X1.799996*%
%ADD21C,2.999994*%

%LPD*%
G36*
G01X63398Y87380D02*
G01X58521Y87380D01*
G01X58507Y87378D01*
G01X58492Y87375D01*
G01X58479Y87370D01*
G01X58466Y87363D01*
G01X58455Y87355D01*
G01X58444Y87344D01*
G01X58436Y87333D01*
G01X58429Y87320D01*
G01X58424Y87307D01*
G01X58421Y87292D01*
G01X58420Y87278D01*
G01X58420Y86814D01*
G01X58421Y86799D01*
G01X58424Y86785D01*
G01X58429Y86772D01*
G01X58436Y86759D01*
G01X58444Y86747D01*
G01X58455Y86737D01*
G01X58466Y86728D01*
G01X58492Y86716D01*
G01X58507Y86713D01*
G01X58521Y86712D01*
G01X58537Y86714D01*
G01X58553Y86717D01*
G01X58567Y86723D01*
G01X58581Y86732D01*
G01X58593Y86742D01*
G01X58603Y86754D01*
G01X58624Y86781D01*
G01X58647Y86807D01*
G01X58671Y86831D01*
G01X58696Y86854D01*
G01X58723Y86875D01*
G01X58751Y86895D01*
G01X58780Y86912D01*
G01X58810Y86928D01*
G01X58841Y86942D01*
G01X58841Y86217D01*
G01X58521Y86217D01*
G01X58507Y86216D01*
G01X58492Y86213D01*
G01X58479Y86208D01*
G01X58466Y86201D01*
G01X58455Y86193D01*
G01X58444Y86182D01*
G01X58436Y86171D01*
G01X58429Y86158D01*
G01X58424Y86144D01*
G01X58421Y86130D01*
G01X58420Y86116D01*
G01X58420Y85043D01*
G01X58421Y85029D01*
G01X58424Y85014D01*
G01X58429Y85001D01*
G01X58436Y84988D01*
G01X58444Y84976D01*
G01X58455Y84966D01*
G01X58466Y84958D01*
G01X58479Y84951D01*
G01X58492Y84946D01*
G01X58507Y84942D01*
G01X58521Y84941D01*
G01X58841Y84941D01*
G01X58841Y84217D01*
G01X58810Y84231D01*
G01X58780Y84246D01*
G01X58751Y84264D01*
G01X58723Y84284D01*
G01X58696Y84305D01*
G01X58671Y84328D01*
G01X58647Y84352D01*
G01X58624Y84377D01*
G01X58603Y84404D01*
G01X58593Y84417D01*
G01X58581Y84427D01*
G01X58567Y84435D01*
G01X58553Y84442D01*
G01X58537Y84445D01*
G01X58521Y84447D01*
G01X58507Y84445D01*
G01X58492Y84442D01*
G01X58479Y84437D01*
G01X58466Y84430D01*
G01X58455Y84422D01*
G01X58444Y84411D01*
G01X58436Y84400D01*
G01X58429Y84387D01*
G01X58424Y84374D01*
G01X58421Y84359D01*
G01X58420Y84345D01*
G01X58420Y77714D01*
G01X58421Y77700D01*
G01X58424Y77686D01*
G01X58429Y77672D01*
G01X58436Y77659D01*
G01X58444Y77648D01*
G01X58455Y77637D01*
G01X58466Y77629D01*
G01X58479Y77622D01*
G01X58492Y77617D01*
G01X58507Y77614D01*
G01X58521Y77613D01*
G01X58537Y77614D01*
G01X58553Y77618D01*
G01X58567Y77624D01*
G01X58581Y77632D01*
G01X58593Y77642D01*
G01X58603Y77655D01*
G01X58624Y77682D01*
G01X58647Y77707D01*
G01X58671Y77732D01*
G01X58696Y77754D01*
G01X58723Y77775D01*
G01X58751Y77795D01*
G01X58780Y77813D01*
G01X58810Y77829D01*
G01X58841Y77843D01*
G01X58841Y77118D01*
G01X58521Y77118D01*
G01X58507Y77117D01*
G01X58492Y77113D01*
G01X58479Y77108D01*
G01X58466Y77101D01*
G01X58455Y77093D01*
G01X58444Y77083D01*
G01X58436Y77071D01*
G01X58429Y77058D01*
G01X58424Y77045D01*
G01X58421Y77030D01*
G01X58420Y77016D01*
G01X58420Y75943D01*
G01X58421Y75929D01*
G01X58424Y75915D01*
G01X58429Y75901D01*
G01X58436Y75888D01*
G01X58444Y75877D01*
G01X58455Y75866D01*
G01X58466Y75858D01*
G01X58479Y75851D01*
G01X58492Y75846D01*
G01X58507Y75843D01*
G01X58521Y75842D01*
G01X58841Y75842D01*
G01X58841Y75117D01*
G01X58810Y75131D01*
G01X58780Y75147D01*
G01X58751Y75164D01*
G01X58723Y75184D01*
G01X58696Y75205D01*
G01X58671Y75228D01*
G01X58647Y75252D01*
G01X58624Y75278D01*
G01X58603Y75305D01*
G01X58593Y75317D01*
G01X58581Y75327D01*
G01X58567Y75336D01*
G01X58553Y75342D01*
G01X58537Y75345D01*
G01X58521Y75347D01*
G01X58507Y75346D01*
G01X58492Y75343D01*
G01X58479Y75338D01*
G01X58466Y75331D01*
G01X58455Y75322D01*
G01X58444Y75312D01*
G01X58436Y75300D01*
G01X58429Y75287D01*
G01X58424Y75274D01*
G01X58421Y75260D01*
G01X58420Y75245D01*
G01X58420Y74781D01*
G01X58421Y74767D01*
G01X58424Y74753D01*
G01X58429Y74739D01*
G01X58436Y74726D01*
G01X58444Y74715D01*
G01X58455Y74704D01*
G01X58466Y74696D01*
G01X58479Y74689D01*
G01X58492Y74684D01*
G01X58507Y74681D01*
G01X58521Y74680D01*
G01X63398Y74680D01*
G01X63412Y74681D01*
G01X63427Y74684D01*
G01X63440Y74689D01*
G01X63453Y74696D01*
G01X63464Y74704D01*
G01X63475Y74715D01*
G01X63483Y74726D01*
G01X63490Y74739D01*
G01X63495Y74753D01*
G01X63498Y74767D01*
G01X63500Y74781D01*
G01X63500Y75245D01*
G01X63498Y75260D01*
G01X63495Y75274D01*
G01X63490Y75287D01*
G01X63483Y75300D01*
G01X63475Y75312D01*
G01X63464Y75322D01*
G01X63453Y75331D01*
G01X63440Y75338D01*
G01X63427Y75343D01*
G01X63412Y75346D01*
G01X63398Y75347D01*
G01X63382Y75345D01*
G01X63366Y75342D01*
G01X63352Y75336D01*
G01X63338Y75327D01*
G01X63326Y75317D01*
G01X63316Y75305D01*
G01X63295Y75278D01*
G01X63272Y75252D01*
G01X63248Y75228D01*
G01X63223Y75205D01*
G01X63196Y75184D01*
G01X63168Y75164D01*
G01X63139Y75147D01*
G01X63109Y75131D01*
G01X63078Y75117D01*
G01X63078Y75842D01*
G01X63398Y75842D01*
G01X63412Y75843D01*
G01X63427Y75846D01*
G01X63440Y75851D01*
G01X63453Y75858D01*
G01X63464Y75866D01*
G01X63475Y75877D01*
G01X63483Y75888D01*
G01X63490Y75901D01*
G01X63495Y75915D01*
G01X63498Y75929D01*
G01X63500Y75943D01*
G01X63500Y77016D01*
G01X63498Y77030D01*
G01X63495Y77045D01*
G01X63490Y77058D01*
G01X63483Y77071D01*
G01X63475Y77083D01*
G01X63464Y77093D01*
G01X63453Y77101D01*
G01X63440Y77108D01*
G01X63427Y77113D01*
G01X63412Y77117D01*
G01X63398Y77118D01*
G01X63078Y77118D01*
G01X63078Y77843D01*
G01X63109Y77829D01*
G01X63139Y77813D01*
G01X63168Y77795D01*
G01X63196Y77775D01*
G01X63223Y77754D01*
G01X63248Y77732D01*
G01X63272Y77707D01*
G01X63295Y77682D01*
G01X63316Y77655D01*
G01X63326Y77642D01*
G01X63338Y77632D01*
G01X63352Y77624D01*
G01X63366Y77618D01*
G01X63382Y77614D01*
G01X63398Y77613D01*
G01X63412Y77614D01*
G01X63427Y77617D01*
G01X63440Y77622D01*
G01X63453Y77629D01*
G01X63464Y77637D01*
G01X63475Y77648D01*
G01X63483Y77659D01*
G01X63490Y77672D01*
G01X63495Y77686D01*
G01X63498Y77700D01*
G01X63500Y77714D01*
G01X63500Y84345D01*
G01X63498Y84359D01*
G01X63495Y84374D01*
G01X63490Y84387D01*
G01X63483Y84400D01*
G01X63475Y84411D01*
G01X63464Y84422D01*
G01X63453Y84430D01*
G01X63440Y84437D01*
G01X63427Y84442D01*
G01X63412Y84445D01*
G01X63398Y84447D01*
G01X63382Y84445D01*
G01X63366Y84442D01*
G01X63352Y84435D01*
G01X63338Y84427D01*
G01X63326Y84417D01*
G01X63316Y84404D01*
G01X63295Y84377D01*
G01X63272Y84352D01*
G01X63248Y84328D01*
G01X63223Y84305D01*
G01X63196Y84284D01*
G01X63168Y84264D01*
G01X63139Y84246D01*
G01X63109Y84231D01*
G01X63078Y84217D01*
G01X63078Y84941D01*
G01X63398Y84941D01*
G01X63412Y84942D01*
G01X63427Y84946D01*
G01X63440Y84951D01*
G01X63453Y84958D01*
G01X63464Y84966D01*
G01X63475Y84976D01*
G01X63483Y84988D01*
G01X63490Y85001D01*
G01X63495Y85014D01*
G01X63498Y85029D01*
G01X63500Y85043D01*
G01X63500Y86116D01*
G01X63498Y86130D01*
G01X63495Y86144D01*
G01X63490Y86158D01*
G01X63483Y86171D01*
G01X63475Y86182D01*
G01X63464Y86193D01*
G01X63453Y86201D01*
G01X63440Y86208D01*
G01X63427Y86213D01*
G01X63412Y86216D01*
G01X63398Y86217D01*
G01X63078Y86217D01*
G01X63078Y86942D01*
G01X63109Y86928D01*
G01X63139Y86912D01*
G01X63168Y86895D01*
G01X63196Y86875D01*
G01X63223Y86854D01*
G01X63248Y86831D01*
G01X63272Y86807D01*
G01X63295Y86781D01*
G01X63316Y86754D01*
G01X63326Y86742D01*
G01X63338Y86732D01*
G01X63352Y86723D01*
G01X63366Y86717D01*
G01X63382Y86714D01*
G01X63398Y86712D01*
G01X63412Y86713D01*
G01X63427Y86716D01*
G01X63453Y86728D01*
G01X63464Y86737D01*
G01X63475Y86747D01*
G01X63483Y86759D01*
G01X63490Y86772D01*
G01X63495Y86785D01*
G01X63498Y86799D01*
G01X63500Y86814D01*
G01X63500Y87278D01*
G01X63498Y87292D01*
G01X63495Y87307D01*
G01X63490Y87320D01*
G01X63483Y87333D01*
G01X63475Y87344D01*
G01X63464Y87355D01*
G01X63453Y87363D01*
G01X63440Y87370D01*
G01X63427Y87375D01*
G01X63412Y87378D01*
G01X63398Y87380D01*
G37*

%LPC*%
G36*
G01X62651Y75842D02*
G01X61808Y75842D01*
G01X61808Y75117D01*
G01X61839Y75131D01*
G01X61869Y75146D01*
G01X61898Y75164D01*
G01X61925Y75183D01*
G01X61952Y75204D01*
G01X61977Y75227D01*
G01X62001Y75251D01*
G01X62023Y75276D01*
G01X62044Y75303D01*
G01X62063Y75330D01*
G01X62081Y75359D01*
G01X62096Y75389D01*
G01X62110Y75420D01*
G01X62122Y75452D01*
G01X62131Y75484D01*
G01X62136Y75498D01*
G01X62143Y75511D01*
G01X62152Y75523D01*
G01X62162Y75534D01*
G01X62174Y75543D01*
G01X62187Y75550D01*
G01X62200Y75555D01*
G01X62215Y75558D01*
G01X62230Y75559D01*
G01X62244Y75558D01*
G01X62259Y75555D01*
G01X62272Y75550D01*
G01X62285Y75543D01*
G01X62297Y75534D01*
G01X62307Y75523D01*
G01X62316Y75511D01*
G01X62323Y75498D01*
G01X62328Y75484D01*
G01X62337Y75452D01*
G01X62349Y75420D01*
G01X62363Y75389D01*
G01X62378Y75359D01*
G01X62396Y75330D01*
G01X62415Y75303D01*
G01X62436Y75276D01*
G01X62458Y75251D01*
G01X62482Y75227D01*
G01X62507Y75204D01*
G01X62534Y75183D01*
G01X62561Y75164D01*
G01X62590Y75146D01*
G01X62620Y75131D01*
G01X62651Y75117D01*
G01X62651Y75842D01*
G37*
G36*
G01X60111Y75842D02*
G01X59268Y75842D01*
G01X59268Y75117D01*
G01X59299Y75131D01*
G01X59329Y75146D01*
G01X59358Y75164D01*
G01X59385Y75183D01*
G01X59412Y75204D01*
G01X59437Y75227D01*
G01X59461Y75251D01*
G01X59483Y75276D01*
G01X59504Y75303D01*
G01X59523Y75330D01*
G01X59541Y75359D01*
G01X59556Y75389D01*
G01X59570Y75420D01*
G01X59582Y75452D01*
G01X59591Y75484D01*
G01X59596Y75498D01*
G01X59603Y75511D01*
G01X59612Y75523D01*
G01X59622Y75534D01*
G01X59634Y75543D01*
G01X59647Y75550D01*
G01X59660Y75555D01*
G01X59675Y75558D01*
G01X59690Y75559D01*
G01X59704Y75558D01*
G01X59719Y75555D01*
G01X59732Y75550D01*
G01X59745Y75543D01*
G01X59757Y75534D01*
G01X59767Y75523D01*
G01X59776Y75511D01*
G01X59783Y75498D01*
G01X59788Y75484D01*
G01X59797Y75452D01*
G01X59809Y75420D01*
G01X59823Y75389D01*
G01X59838Y75359D01*
G01X59856Y75330D01*
G01X59875Y75303D01*
G01X59896Y75276D01*
G01X59918Y75251D01*
G01X59942Y75227D01*
G01X59967Y75204D01*
G01X59994Y75183D01*
G01X60021Y75164D01*
G01X60050Y75146D01*
G01X60080Y75131D01*
G01X60111Y75117D01*
G01X60111Y75842D01*
G37*
G36*
G01X61839Y77829D02*
G01X61808Y77843D01*
G01X61808Y77118D01*
G01X62651Y77118D01*
G01X62651Y77843D01*
G01X62620Y77829D01*
G01X62590Y77813D01*
G01X62561Y77795D01*
G01X62534Y77776D01*
G01X62507Y77755D01*
G01X62482Y77733D01*
G01X62458Y77709D01*
G01X62436Y77683D01*
G01X62415Y77657D01*
G01X62396Y77629D01*
G01X62378Y77600D01*
G01X62363Y77570D01*
G01X62349Y77539D01*
G01X62337Y77507D01*
G01X62328Y77475D01*
G01X62323Y77461D01*
G01X62316Y77448D01*
G01X62307Y77436D01*
G01X62297Y77426D01*
G01X62285Y77417D01*
G01X62272Y77409D01*
G01X62259Y77404D01*
G01X62244Y77401D01*
G01X62230Y77400D01*
G01X62215Y77401D01*
G01X62200Y77404D01*
G01X62187Y77409D01*
G01X62174Y77417D01*
G01X62162Y77426D01*
G01X62152Y77436D01*
G01X62143Y77448D01*
G01X62136Y77461D01*
G01X62131Y77475D01*
G01X62122Y77507D01*
G01X62110Y77539D01*
G01X62096Y77570D01*
G01X62081Y77600D01*
G01X62063Y77629D01*
G01X62044Y77657D01*
G01X62023Y77683D01*
G01X62001Y77709D01*
G01X61977Y77733D01*
G01X61952Y77755D01*
G01X61925Y77776D01*
G01X61898Y77795D01*
G01X61869Y77813D01*
G01X61839Y77829D01*
G37*
G36*
G01X59299Y77829D02*
G01X59268Y77843D01*
G01X59268Y77118D01*
G01X60111Y77118D01*
G01X60111Y77843D01*
G01X60080Y77829D01*
G01X60050Y77813D01*
G01X60021Y77795D01*
G01X59994Y77776D01*
G01X59967Y77755D01*
G01X59942Y77733D01*
G01X59918Y77709D01*
G01X59896Y77683D01*
G01X59875Y77657D01*
G01X59856Y77629D01*
G01X59838Y77600D01*
G01X59823Y77570D01*
G01X59809Y77539D01*
G01X59797Y77507D01*
G01X59788Y77475D01*
G01X59783Y77461D01*
G01X59776Y77448D01*
G01X59767Y77436D01*
G01X59757Y77426D01*
G01X59745Y77417D01*
G01X59732Y77409D01*
G01X59719Y77404D01*
G01X59704Y77401D01*
G01X59690Y77400D01*
G01X59675Y77401D01*
G01X59660Y77404D01*
G01X59647Y77409D01*
G01X59634Y77417D01*
G01X59622Y77426D01*
G01X59612Y77436D01*
G01X59603Y77448D01*
G01X59596Y77461D01*
G01X59591Y77475D01*
G01X59582Y77507D01*
G01X59570Y77539D01*
G01X59556Y77570D01*
G01X59541Y77600D01*
G01X59523Y77629D01*
G01X59504Y77657D01*
G01X59483Y77683D01*
G01X59461Y77709D01*
G01X59437Y77733D01*
G01X59412Y77755D01*
G01X59385Y77776D01*
G01X59358Y77795D01*
G01X59329Y77813D01*
G01X59299Y77829D01*
G37*
G36*
G01X60111Y84941D02*
G01X59268Y84941D01*
G01X59268Y84217D01*
G01X59299Y84230D01*
G01X59329Y84246D01*
G01X59358Y84264D01*
G01X59385Y84283D01*
G01X59412Y84304D01*
G01X59437Y84326D01*
G01X59461Y84350D01*
G01X59483Y84376D01*
G01X59504Y84402D01*
G01X59523Y84430D01*
G01X59541Y84459D01*
G01X59556Y84489D01*
G01X59570Y84520D01*
G01X59582Y84552D01*
G01X59591Y84584D01*
G01X59596Y84598D01*
G01X59603Y84611D01*
G01X59612Y84623D01*
G01X59622Y84634D01*
G01X59634Y84642D01*
G01X59647Y84650D01*
G01X59660Y84655D01*
G01X59675Y84658D01*
G01X59690Y84659D01*
G01X59704Y84658D01*
G01X59719Y84655D01*
G01X59732Y84650D01*
G01X59745Y84642D01*
G01X59757Y84634D01*
G01X59767Y84623D01*
G01X59776Y84611D01*
G01X59783Y84598D01*
G01X59788Y84584D01*
G01X59797Y84552D01*
G01X59809Y84520D01*
G01X59823Y84489D01*
G01X59838Y84459D01*
G01X59856Y84430D01*
G01X59875Y84402D01*
G01X59896Y84376D01*
G01X59918Y84350D01*
G01X59942Y84326D01*
G01X59967Y84304D01*
G01X59994Y84283D01*
G01X60021Y84264D01*
G01X60050Y84246D01*
G01X60080Y84230D01*
G01X60111Y84217D01*
G01X60111Y84941D01*
G37*
G36*
G01X62651Y84941D02*
G01X61808Y84941D01*
G01X61808Y84217D01*
G01X61839Y84230D01*
G01X61869Y84246D01*
G01X61898Y84264D01*
G01X61925Y84283D01*
G01X61952Y84304D01*
G01X61977Y84326D01*
G01X62001Y84350D01*
G01X62023Y84376D01*
G01X62044Y84402D01*
G01X62063Y84430D01*
G01X62081Y84459D01*
G01X62096Y84489D01*
G01X62110Y84520D01*
G01X62122Y84552D01*
G01X62131Y84584D01*
G01X62136Y84598D01*
G01X62143Y84611D01*
G01X62152Y84623D01*
G01X62162Y84634D01*
G01X62174Y84642D01*
G01X62187Y84650D01*
G01X62200Y84655D01*
G01X62215Y84658D01*
G01X62230Y84659D01*
G01X62244Y84658D01*
G01X62259Y84655D01*
G01X62272Y84650D01*
G01X62285Y84642D01*
G01X62297Y84634D01*
G01X62307Y84623D01*
G01X62316Y84611D01*
G01X62323Y84598D01*
G01X62328Y84584D01*
G01X62337Y84552D01*
G01X62349Y84520D01*
G01X62363Y84489D01*
G01X62378Y84459D01*
G01X62396Y84430D01*
G01X62415Y84402D01*
G01X62436Y84376D01*
G01X62458Y84350D01*
G01X62482Y84326D01*
G01X62507Y84304D01*
G01X62534Y84283D01*
G01X62561Y84264D01*
G01X62590Y84246D01*
G01X62620Y84230D01*
G01X62651Y84217D01*
G01X62651Y84941D01*
G37*
G36*
G01X61839Y86928D02*
G01X61808Y86942D01*
G01X61808Y86217D01*
G01X62651Y86217D01*
G01X62651Y86942D01*
G01X62620Y86928D01*
G01X62590Y86913D01*
G01X62561Y86895D01*
G01X62534Y86876D01*
G01X62507Y86855D01*
G01X62482Y86832D01*
G01X62458Y86809D01*
G01X62436Y86783D01*
G01X62415Y86756D01*
G01X62396Y86729D01*
G01X62378Y86700D01*
G01X62363Y86670D01*
G01X62349Y86639D01*
G01X62337Y86607D01*
G01X62328Y86575D01*
G01X62323Y86561D01*
G01X62316Y86548D01*
G01X62307Y86536D01*
G01X62297Y86525D01*
G01X62285Y86516D01*
G01X62272Y86509D01*
G01X62259Y86504D01*
G01X62244Y86501D01*
G01X62230Y86500D01*
G01X62215Y86501D01*
G01X62200Y86504D01*
G01X62187Y86509D01*
G01X62174Y86516D01*
G01X62162Y86525D01*
G01X62152Y86536D01*
G01X62143Y86548D01*
G01X62136Y86561D01*
G01X62131Y86575D01*
G01X62122Y86607D01*
G01X62110Y86639D01*
G01X62096Y86670D01*
G01X62081Y86700D01*
G01X62063Y86729D01*
G01X62044Y86756D01*
G01X62023Y86783D01*
G01X62001Y86809D01*
G01X61977Y86832D01*
G01X61952Y86855D01*
G01X61925Y86876D01*
G01X61898Y86895D01*
G01X61869Y86913D01*
G01X61839Y86928D01*
G37*
G36*
G01X59299Y86928D02*
G01X59268Y86942D01*
G01X59268Y86217D01*
G01X60111Y86217D01*
G01X60111Y86942D01*
G01X60080Y86928D01*
G01X60050Y86913D01*
G01X60021Y86895D01*
G01X59994Y86876D01*
G01X59967Y86855D01*
G01X59942Y86832D01*
G01X59918Y86809D01*
G01X59896Y86783D01*
G01X59875Y86756D01*
G01X59856Y86729D01*
G01X59838Y86700D01*
G01X59823Y86670D01*
G01X59809Y86639D01*
G01X59797Y86607D01*
G01X59788Y86575D01*
G01X59783Y86561D01*
G01X59776Y86548D01*
G01X59767Y86536D01*
G01X59757Y86525D01*
G01X59745Y86516D01*
G01X59732Y86509D01*
G01X59719Y86504D01*
G01X59704Y86501D01*
G01X59690Y86500D01*
G01X59675Y86501D01*
G01X59660Y86504D01*
G01X59647Y86509D01*
G01X59634Y86516D01*
G01X59622Y86525D01*
G01X59612Y86536D01*
G01X59603Y86548D01*
G01X59596Y86561D01*
G01X59591Y86575D01*
G01X59582Y86607D01*
G01X59570Y86639D01*
G01X59556Y86670D01*
G01X59541Y86700D01*
G01X59523Y86729D01*
G01X59504Y86756D01*
G01X59483Y86783D01*
G01X59461Y86809D01*
G01X59437Y86832D01*
G01X59412Y86855D01*
G01X59385Y86876D01*
G01X59358Y86895D01*
G01X59329Y86913D01*
G01X59299Y86928D01*
G37*
G36*
G01X61381Y75842D02*
G01X60538Y75842D01*
G01X60538Y75117D01*
G01X60569Y75131D01*
G01X60599Y75146D01*
G01X60628Y75164D01*
G01X60655Y75183D01*
G01X60682Y75204D01*
G01X60707Y75227D01*
G01X60731Y75251D01*
G01X60753Y75276D01*
G01X60774Y75303D01*
G01X60793Y75330D01*
G01X60811Y75359D01*
G01X60826Y75389D01*
G01X60840Y75420D01*
G01X60852Y75452D01*
G01X60861Y75484D01*
G01X60866Y75498D01*
G01X60873Y75511D01*
G01X60882Y75523D01*
G01X60892Y75534D01*
G01X60904Y75543D01*
G01X60917Y75550D01*
G01X60930Y75555D01*
G01X60945Y75558D01*
G01X60960Y75559D01*
G01X60974Y75558D01*
G01X60989Y75555D01*
G01X61002Y75550D01*
G01X61015Y75543D01*
G01X61027Y75534D01*
G01X61037Y75523D01*
G01X61046Y75511D01*
G01X61053Y75498D01*
G01X61058Y75484D01*
G01X61067Y75452D01*
G01X61079Y75420D01*
G01X61093Y75389D01*
G01X61108Y75359D01*
G01X61126Y75330D01*
G01X61145Y75303D01*
G01X61166Y75276D01*
G01X61188Y75251D01*
G01X61212Y75227D01*
G01X61237Y75204D01*
G01X61264Y75183D01*
G01X61291Y75164D01*
G01X61320Y75146D01*
G01X61350Y75131D01*
G01X61381Y75117D01*
G01X61381Y75842D01*
G37*
G36*
G01X60569Y77829D02*
G01X60538Y77843D01*
G01X60538Y77118D01*
G01X61381Y77118D01*
G01X61381Y77843D01*
G01X61350Y77829D01*
G01X61320Y77813D01*
G01X61291Y77795D01*
G01X61264Y77776D01*
G01X61237Y77755D01*
G01X61212Y77733D01*
G01X61188Y77709D01*
G01X61166Y77683D01*
G01X61145Y77657D01*
G01X61126Y77629D01*
G01X61108Y77600D01*
G01X61093Y77570D01*
G01X61079Y77539D01*
G01X61067Y77507D01*
G01X61058Y77475D01*
G01X61053Y77461D01*
G01X61046Y77448D01*
G01X61037Y77436D01*
G01X61027Y77426D01*
G01X61015Y77417D01*
G01X61002Y77409D01*
G01X60989Y77404D01*
G01X60974Y77401D01*
G01X60960Y77400D01*
G01X60945Y77401D01*
G01X60930Y77404D01*
G01X60917Y77409D01*
G01X60904Y77417D01*
G01X60892Y77426D01*
G01X60882Y77436D01*
G01X60873Y77448D01*
G01X60866Y77461D01*
G01X60861Y77475D01*
G01X60852Y77507D01*
G01X60840Y77539D01*
G01X60826Y77570D01*
G01X60811Y77600D01*
G01X60793Y77629D01*
G01X60774Y77657D01*
G01X60753Y77683D01*
G01X60731Y77709D01*
G01X60707Y77733D01*
G01X60682Y77755D01*
G01X60655Y77776D01*
G01X60628Y77795D01*
G01X60599Y77813D01*
G01X60569Y77829D01*
G37*
G36*
G01X61381Y84941D02*
G01X60538Y84941D01*
G01X60538Y84217D01*
G01X60569Y84230D01*
G01X60599Y84246D01*
G01X60628Y84264D01*
G01X60655Y84283D01*
G01X60682Y84304D01*
G01X60707Y84326D01*
G01X60731Y84350D01*
G01X60753Y84376D01*
G01X60774Y84402D01*
G01X60793Y84430D01*
G01X60811Y84459D01*
G01X60826Y84489D01*
G01X60840Y84520D01*
G01X60852Y84552D01*
G01X60861Y84584D01*
G01X60866Y84598D01*
G01X60873Y84611D01*
G01X60882Y84623D01*
G01X60892Y84634D01*
G01X60904Y84642D01*
G01X60917Y84650D01*
G01X60930Y84655D01*
G01X60945Y84658D01*
G01X60960Y84659D01*
G01X60974Y84658D01*
G01X60989Y84655D01*
G01X61002Y84650D01*
G01X61015Y84642D01*
G01X61027Y84634D01*
G01X61037Y84623D01*
G01X61046Y84611D01*
G01X61053Y84598D01*
G01X61058Y84584D01*
G01X61067Y84552D01*
G01X61079Y84520D01*
G01X61093Y84489D01*
G01X61108Y84459D01*
G01X61126Y84430D01*
G01X61145Y84402D01*
G01X61166Y84376D01*
G01X61188Y84350D01*
G01X61212Y84326D01*
G01X61237Y84304D01*
G01X61264Y84283D01*
G01X61291Y84264D01*
G01X61320Y84246D01*
G01X61350Y84230D01*
G01X61381Y84217D01*
G01X61381Y84941D01*
G37*
G36*
G01X60569Y86928D02*
G01X60538Y86942D01*
G01X60538Y86217D01*
G01X61381Y86217D01*
G01X61381Y86942D01*
G01X61350Y86928D01*
G01X61320Y86913D01*
G01X61291Y86895D01*
G01X61264Y86876D01*
G01X61237Y86855D01*
G01X61212Y86832D01*
G01X61188Y86809D01*
G01X61166Y86783D01*
G01X61145Y86756D01*
G01X61126Y86729D01*
G01X61108Y86700D01*
G01X61093Y86670D01*
G01X61079Y86639D01*
G01X61067Y86607D01*
G01X61058Y86575D01*
G01X61053Y86561D01*
G01X61046Y86548D01*
G01X61037Y86536D01*
G01X61027Y86525D01*
G01X61015Y86516D01*
G01X61002Y86509D01*
G01X60989Y86504D01*
G01X60974Y86501D01*
G01X60960Y86500D01*
G01X60945Y86501D01*
G01X60930Y86504D01*
G01X60917Y86509D01*
G01X60904Y86516D01*
G01X60892Y86525D01*
G01X60882Y86536D01*
G01X60873Y86548D01*
G01X60866Y86561D01*
G01X60861Y86575D01*
G01X60852Y86607D01*
G01X60840Y86639D01*
G01X60826Y86670D01*
G01X60811Y86700D01*
G01X60793Y86729D01*
G01X60774Y86756D01*
G01X60753Y86783D01*
G01X60731Y86809D01*
G01X60707Y86832D01*
G01X60682Y86855D01*
G01X60655Y86876D01*
G01X60628Y86895D01*
G01X60599Y86913D01*
G01X60569Y86928D01*
G37*

%LPD*%
G36*
G01X63398Y65536D02*
G01X58521Y65536D01*
G01X58507Y65534D01*
G01X58492Y65531D01*
G01X58479Y65526D01*
G01X58466Y65519D01*
G01X58455Y65511D01*
G01X58444Y65500D01*
G01X58436Y65489D01*
G01X58429Y65476D01*
G01X58424Y65463D01*
G01X58421Y65448D01*
G01X58420Y65434D01*
G01X58420Y64928D01*
G01X58421Y64913D01*
G01X58424Y64899D01*
G01X58429Y64885D01*
G01X58436Y64873D01*
G01X58444Y64861D01*
G01X58455Y64851D01*
G01X58466Y64842D01*
G01X58479Y64835D01*
G01X58492Y64830D01*
G01X58507Y64827D01*
G01X58521Y64826D01*
G01X58537Y64827D01*
G01X58553Y64831D01*
G01X58567Y64837D01*
G01X58581Y64845D01*
G01X58593Y64856D01*
G01X58603Y64868D01*
G01X58624Y64895D01*
G01X58647Y64921D01*
G01X58671Y64945D01*
G01X58696Y64968D01*
G01X58723Y64989D01*
G01X58751Y65008D01*
G01X58780Y65026D01*
G01X58810Y65042D01*
G01X58841Y65056D01*
G01X58841Y64331D01*
G01X58521Y64331D01*
G01X58507Y64330D01*
G01X58492Y64327D01*
G01X58479Y64322D01*
G01X58466Y64315D01*
G01X58455Y64306D01*
G01X58444Y64296D01*
G01X58436Y64284D01*
G01X58429Y64272D01*
G01X58424Y64258D01*
G01X58421Y64244D01*
G01X58420Y64229D01*
G01X58420Y63157D01*
G01X58421Y63142D01*
G01X58424Y63128D01*
G01X58429Y63114D01*
G01X58436Y63102D01*
G01X58444Y63090D01*
G01X58455Y63080D01*
G01X58466Y63071D01*
G01X58479Y63064D01*
G01X58492Y63059D01*
G01X58507Y63056D01*
G01X58521Y63055D01*
G01X58841Y63055D01*
G01X58841Y62330D01*
G01X58810Y62344D01*
G01X58780Y62360D01*
G01X58751Y62378D01*
G01X58723Y62397D01*
G01X58696Y62418D01*
G01X58671Y62441D01*
G01X58647Y62465D01*
G01X58624Y62491D01*
G01X58603Y62518D01*
G01X58593Y62530D01*
G01X58581Y62541D01*
G01X58567Y62549D01*
G01X58553Y62555D01*
G01X58537Y62559D01*
G01X58521Y62560D01*
G01X58507Y62559D01*
G01X58492Y62556D01*
G01X58479Y62551D01*
G01X58466Y62544D01*
G01X58455Y62535D01*
G01X58444Y62525D01*
G01X58436Y62514D01*
G01X58429Y62501D01*
G01X58424Y62487D01*
G01X58421Y62473D01*
G01X58420Y62459D01*
G01X58420Y55828D01*
G01X58421Y55813D01*
G01X58424Y55799D01*
G01X58429Y55786D01*
G01X58436Y55773D01*
G01X58444Y55761D01*
G01X58455Y55751D01*
G01X58466Y55742D01*
G01X58479Y55735D01*
G01X58492Y55730D01*
G01X58507Y55727D01*
G01X58521Y55726D01*
G01X58537Y55727D01*
G01X58553Y55731D01*
G01X58567Y55737D01*
G01X58581Y55746D01*
G01X58593Y55756D01*
G01X58603Y55768D01*
G01X58624Y55795D01*
G01X58647Y55821D01*
G01X58671Y55845D01*
G01X58696Y55868D01*
G01X58723Y55889D01*
G01X58751Y55909D01*
G01X58780Y55926D01*
G01X58810Y55942D01*
G01X58841Y55956D01*
G01X58841Y55231D01*
G01X58521Y55231D01*
G01X58507Y55230D01*
G01X58492Y55227D01*
G01X58479Y55222D01*
G01X58466Y55215D01*
G01X58455Y55206D01*
G01X58444Y55196D01*
G01X58436Y55185D01*
G01X58429Y55172D01*
G01X58424Y55158D01*
G01X58421Y55144D01*
G01X58420Y55130D01*
G01X58420Y54057D01*
G01X58421Y54042D01*
G01X58424Y54028D01*
G01X58429Y54015D01*
G01X58436Y54002D01*
G01X58444Y53990D01*
G01X58455Y53980D01*
G01X58466Y53971D01*
G01X58479Y53964D01*
G01X58492Y53959D01*
G01X58507Y53956D01*
G01X58521Y53955D01*
G01X58841Y53955D01*
G01X58841Y53230D01*
G01X58810Y53244D01*
G01X58780Y53260D01*
G01X58751Y53278D01*
G01X58723Y53297D01*
G01X58696Y53319D01*
G01X58671Y53341D01*
G01X58647Y53366D01*
G01X58624Y53391D01*
G01X58603Y53418D01*
G01X58593Y53430D01*
G01X58581Y53441D01*
G01X58567Y53449D01*
G01X58553Y53455D01*
G01X58537Y53459D01*
G01X58521Y53460D01*
G01X58507Y53459D01*
G01X58492Y53456D01*
G01X58479Y53451D01*
G01X58466Y53444D01*
G01X58455Y53436D01*
G01X58444Y53425D01*
G01X58436Y53414D01*
G01X58429Y53401D01*
G01X58424Y53387D01*
G01X58421Y53373D01*
G01X58420Y53359D01*
G01X58420Y53064D01*
G01X58421Y53050D01*
G01X58424Y53036D01*
G01X58429Y53022D01*
G01X58436Y53009D01*
G01X58444Y52998D01*
G01X58455Y52987D01*
G01X58466Y52979D01*
G01X58479Y52972D01*
G01X58492Y52967D01*
G01X58507Y52964D01*
G01X58521Y52963D01*
G01X63398Y52963D01*
G01X63412Y52964D01*
G01X63427Y52967D01*
G01X63440Y52972D01*
G01X63453Y52979D01*
G01X63464Y52987D01*
G01X63475Y52998D01*
G01X63483Y53009D01*
G01X63490Y53022D01*
G01X63495Y53036D01*
G01X63498Y53050D01*
G01X63500Y53064D01*
G01X63500Y53359D01*
G01X63498Y53373D01*
G01X63495Y53387D01*
G01X63490Y53401D01*
G01X63483Y53414D01*
G01X63475Y53425D01*
G01X63464Y53436D01*
G01X63453Y53444D01*
G01X63440Y53451D01*
G01X63427Y53456D01*
G01X63412Y53459D01*
G01X63398Y53460D01*
G01X63382Y53459D01*
G01X63366Y53455D01*
G01X63352Y53449D01*
G01X63338Y53441D01*
G01X63326Y53430D01*
G01X63316Y53418D01*
G01X63295Y53391D01*
G01X63272Y53366D01*
G01X63248Y53341D01*
G01X63223Y53319D01*
G01X63196Y53297D01*
G01X63168Y53278D01*
G01X63139Y53260D01*
G01X63109Y53244D01*
G01X63078Y53230D01*
G01X63078Y53955D01*
G01X63398Y53955D01*
G01X63412Y53956D01*
G01X63427Y53959D01*
G01X63440Y53964D01*
G01X63453Y53971D01*
G01X63464Y53980D01*
G01X63475Y53990D01*
G01X63483Y54002D01*
G01X63490Y54015D01*
G01X63495Y54028D01*
G01X63498Y54042D01*
G01X63500Y54057D01*
G01X63500Y55130D01*
G01X63498Y55144D01*
G01X63495Y55158D01*
G01X63490Y55172D01*
G01X63483Y55185D01*
G01X63475Y55196D01*
G01X63464Y55206D01*
G01X63453Y55215D01*
G01X63440Y55222D01*
G01X63427Y55227D01*
G01X63412Y55230D01*
G01X63398Y55231D01*
G01X63078Y55231D01*
G01X63078Y55956D01*
G01X63109Y55942D01*
G01X63139Y55926D01*
G01X63168Y55909D01*
G01X63196Y55889D01*
G01X63223Y55868D01*
G01X63248Y55845D01*
G01X63272Y55821D01*
G01X63295Y55795D01*
G01X63316Y55768D01*
G01X63326Y55756D01*
G01X63338Y55746D01*
G01X63352Y55737D01*
G01X63366Y55731D01*
G01X63382Y55727D01*
G01X63398Y55726D01*
G01X63412Y55727D01*
G01X63427Y55730D01*
G01X63440Y55735D01*
G01X63453Y55742D01*
G01X63464Y55751D01*
G01X63475Y55761D01*
G01X63483Y55773D01*
G01X63490Y55786D01*
G01X63495Y55799D01*
G01X63498Y55813D01*
G01X63500Y55828D01*
G01X63500Y62459D01*
G01X63498Y62473D01*
G01X63495Y62487D01*
G01X63490Y62501D01*
G01X63483Y62514D01*
G01X63475Y62525D01*
G01X63464Y62535D01*
G01X63453Y62544D01*
G01X63440Y62551D01*
G01X63427Y62556D01*
G01X63412Y62559D01*
G01X63398Y62560D01*
G01X63382Y62559D01*
G01X63366Y62555D01*
G01X63352Y62549D01*
G01X63338Y62541D01*
G01X63326Y62530D01*
G01X63316Y62518D01*
G01X63295Y62491D01*
G01X63272Y62465D01*
G01X63248Y62441D01*
G01X63223Y62418D01*
G01X63196Y62397D01*
G01X63168Y62378D01*
G01X63139Y62360D01*
G01X63109Y62344D01*
G01X63078Y62330D01*
G01X63078Y63055D01*
G01X63398Y63055D01*
G01X63412Y63056D01*
G01X63427Y63059D01*
G01X63440Y63064D01*
G01X63453Y63071D01*
G01X63464Y63080D01*
G01X63475Y63090D01*
G01X63483Y63102D01*
G01X63490Y63114D01*
G01X63495Y63128D01*
G01X63498Y63142D01*
G01X63500Y63157D01*
G01X63500Y64229D01*
G01X63498Y64244D01*
G01X63495Y64258D01*
G01X63490Y64272D01*
G01X63483Y64284D01*
G01X63475Y64296D01*
G01X63464Y64306D01*
G01X63453Y64315D01*
G01X63440Y64322D01*
G01X63427Y64327D01*
G01X63412Y64330D01*
G01X63398Y64331D01*
G01X63078Y64331D01*
G01X63078Y65056D01*
G01X63109Y65042D01*
G01X63139Y65026D01*
G01X63168Y65008D01*
G01X63196Y64989D01*
G01X63223Y64968D01*
G01X63248Y64945D01*
G01X63272Y64921D01*
G01X63295Y64895D01*
G01X63316Y64868D01*
G01X63326Y64856D01*
G01X63338Y64845D01*
G01X63352Y64837D01*
G01X63366Y64831D01*
G01X63382Y64827D01*
G01X63398Y64826D01*
G01X63412Y64827D01*
G01X63427Y64830D01*
G01X63440Y64835D01*
G01X63453Y64842D01*
G01X63464Y64851D01*
G01X63475Y64861D01*
G01X63483Y64873D01*
G01X63490Y64885D01*
G01X63495Y64899D01*
G01X63498Y64913D01*
G01X63500Y64928D01*
G01X63500Y65434D01*
G01X63498Y65448D01*
G01X63495Y65463D01*
G01X63490Y65476D01*
G01X63483Y65489D01*
G01X63475Y65500D01*
G01X63464Y65511D01*
G01X63453Y65519D01*
G01X63440Y65526D01*
G01X63427Y65531D01*
G01X63412Y65534D01*
G01X63398Y65536D01*
G37*

%LPC*%
G36*
G01X62651Y53955D02*
G01X61808Y53955D01*
G01X61808Y53230D01*
G01X61839Y53244D01*
G01X61869Y53260D01*
G01X61898Y53278D01*
G01X61925Y53297D01*
G01X61952Y53318D01*
G01X61977Y53340D01*
G01X62001Y53364D01*
G01X62023Y53390D01*
G01X62044Y53416D01*
G01X62063Y53444D01*
G01X62081Y53473D01*
G01X62096Y53503D01*
G01X62110Y53534D01*
G01X62122Y53566D01*
G01X62131Y53598D01*
G01X62136Y53612D01*
G01X62143Y53625D01*
G01X62152Y53637D01*
G01X62162Y53647D01*
G01X62174Y53656D01*
G01X62187Y53663D01*
G01X62200Y53669D01*
G01X62215Y53672D01*
G01X62230Y53673D01*
G01X62244Y53672D01*
G01X62259Y53669D01*
G01X62272Y53663D01*
G01X62285Y53656D01*
G01X62297Y53647D01*
G01X62307Y53637D01*
G01X62316Y53625D01*
G01X62323Y53612D01*
G01X62328Y53598D01*
G01X62337Y53566D01*
G01X62349Y53534D01*
G01X62363Y53503D01*
G01X62378Y53473D01*
G01X62396Y53444D01*
G01X62415Y53416D01*
G01X62436Y53390D01*
G01X62458Y53364D01*
G01X62482Y53340D01*
G01X62507Y53318D01*
G01X62534Y53297D01*
G01X62561Y53278D01*
G01X62590Y53260D01*
G01X62620Y53244D01*
G01X62651Y53230D01*
G01X62651Y53955D01*
G37*
G36*
G01X60111Y53955D02*
G01X59268Y53955D01*
G01X59268Y53230D01*
G01X59299Y53244D01*
G01X59329Y53260D01*
G01X59358Y53278D01*
G01X59385Y53297D01*
G01X59412Y53318D01*
G01X59437Y53340D01*
G01X59461Y53364D01*
G01X59483Y53390D01*
G01X59504Y53416D01*
G01X59523Y53444D01*
G01X59541Y53473D01*
G01X59556Y53503D01*
G01X59570Y53534D01*
G01X59582Y53566D01*
G01X59591Y53598D01*
G01X59596Y53612D01*
G01X59603Y53625D01*
G01X59612Y53637D01*
G01X59622Y53647D01*
G01X59634Y53656D01*
G01X59647Y53663D01*
G01X59660Y53669D01*
G01X59675Y53672D01*
G01X59690Y53673D01*
G01X59704Y53672D01*
G01X59719Y53669D01*
G01X59732Y53663D01*
G01X59745Y53656D01*
G01X59757Y53647D01*
G01X59767Y53637D01*
G01X59776Y53625D01*
G01X59783Y53612D01*
G01X59788Y53598D01*
G01X59797Y53566D01*
G01X59809Y53534D01*
G01X59823Y53503D01*
G01X59838Y53473D01*
G01X59856Y53444D01*
G01X59875Y53416D01*
G01X59896Y53390D01*
G01X59918Y53364D01*
G01X59942Y53340D01*
G01X59967Y53318D01*
G01X59994Y53297D01*
G01X60021Y53278D01*
G01X60050Y53260D01*
G01X60080Y53244D01*
G01X60111Y53230D01*
G01X60111Y53955D01*
G37*
G36*
G01X61839Y55942D02*
G01X61808Y55956D01*
G01X61808Y55231D01*
G01X62651Y55231D01*
G01X62651Y55956D01*
G01X62620Y55942D01*
G01X62590Y55927D01*
G01X62561Y55909D01*
G01X62534Y55890D01*
G01X62507Y55869D01*
G01X62482Y55846D01*
G01X62458Y55822D01*
G01X62436Y55797D01*
G01X62415Y55770D01*
G01X62396Y55742D01*
G01X62378Y55713D01*
G01X62363Y55683D01*
G01X62349Y55653D01*
G01X62337Y55621D01*
G01X62328Y55589D01*
G01X62323Y55575D01*
G01X62316Y55562D01*
G01X62307Y55550D01*
G01X62297Y55539D01*
G01X62285Y55530D01*
G01X62272Y55523D01*
G01X62259Y55518D01*
G01X62244Y55515D01*
G01X62230Y55514D01*
G01X62215Y55515D01*
G01X62200Y55518D01*
G01X62187Y55523D01*
G01X62174Y55530D01*
G01X62162Y55539D01*
G01X62152Y55550D01*
G01X62143Y55562D01*
G01X62136Y55575D01*
G01X62131Y55589D01*
G01X62122Y55621D01*
G01X62110Y55653D01*
G01X62096Y55683D01*
G01X62081Y55713D01*
G01X62063Y55742D01*
G01X62044Y55770D01*
G01X62023Y55797D01*
G01X62001Y55822D01*
G01X61977Y55846D01*
G01X61952Y55869D01*
G01X61925Y55890D01*
G01X61898Y55909D01*
G01X61869Y55927D01*
G01X61839Y55942D01*
G37*
G36*
G01X59299Y55942D02*
G01X59268Y55956D01*
G01X59268Y55231D01*
G01X60111Y55231D01*
G01X60111Y55956D01*
G01X60080Y55942D01*
G01X60050Y55927D01*
G01X60021Y55909D01*
G01X59994Y55890D01*
G01X59967Y55869D01*
G01X59942Y55846D01*
G01X59918Y55822D01*
G01X59896Y55797D01*
G01X59875Y55770D01*
G01X59856Y55742D01*
G01X59838Y55713D01*
G01X59823Y55683D01*
G01X59809Y55653D01*
G01X59797Y55621D01*
G01X59788Y55589D01*
G01X59783Y55575D01*
G01X59776Y55562D01*
G01X59767Y55550D01*
G01X59757Y55539D01*
G01X59745Y55530D01*
G01X59732Y55523D01*
G01X59719Y55518D01*
G01X59704Y55515D01*
G01X59690Y55514D01*
G01X59675Y55515D01*
G01X59660Y55518D01*
G01X59647Y55523D01*
G01X59634Y55530D01*
G01X59622Y55539D01*
G01X59612Y55550D01*
G01X59603Y55562D01*
G01X59596Y55575D01*
G01X59591Y55589D01*
G01X59582Y55621D01*
G01X59570Y55653D01*
G01X59556Y55683D01*
G01X59541Y55713D01*
G01X59523Y55742D01*
G01X59504Y55770D01*
G01X59483Y55797D01*
G01X59461Y55822D01*
G01X59437Y55846D01*
G01X59412Y55869D01*
G01X59385Y55890D01*
G01X59358Y55909D01*
G01X59329Y55927D01*
G01X59299Y55942D01*
G37*
G36*
G01X60111Y63055D02*
G01X59268Y63055D01*
G01X59268Y62330D01*
G01X59299Y62344D01*
G01X59329Y62360D01*
G01X59358Y62377D01*
G01X59385Y62397D01*
G01X59412Y62418D01*
G01X59437Y62440D01*
G01X59461Y62464D01*
G01X59483Y62489D01*
G01X59504Y62516D01*
G01X59523Y62544D01*
G01X59541Y62573D01*
G01X59556Y62603D01*
G01X59570Y62634D01*
G01X59582Y62666D01*
G01X59591Y62698D01*
G01X59596Y62712D01*
G01X59603Y62725D01*
G01X59612Y62737D01*
G01X59622Y62747D01*
G01X59634Y62756D01*
G01X59647Y62763D01*
G01X59660Y62768D01*
G01X59675Y62772D01*
G01X59690Y62773D01*
G01X59704Y62772D01*
G01X59719Y62768D01*
G01X59732Y62763D01*
G01X59745Y62756D01*
G01X59757Y62747D01*
G01X59767Y62737D01*
G01X59776Y62725D01*
G01X59783Y62712D01*
G01X59788Y62698D01*
G01X59797Y62666D01*
G01X59809Y62634D01*
G01X59823Y62603D01*
G01X59838Y62573D01*
G01X59856Y62544D01*
G01X59875Y62516D01*
G01X59896Y62489D01*
G01X59918Y62464D01*
G01X59942Y62440D01*
G01X59967Y62418D01*
G01X59994Y62397D01*
G01X60021Y62377D01*
G01X60050Y62360D01*
G01X60080Y62344D01*
G01X60111Y62330D01*
G01X60111Y63055D01*
G37*
G36*
G01X62651Y63055D02*
G01X61808Y63055D01*
G01X61808Y62330D01*
G01X61839Y62344D01*
G01X61869Y62360D01*
G01X61898Y62377D01*
G01X61925Y62397D01*
G01X61952Y62418D01*
G01X61977Y62440D01*
G01X62001Y62464D01*
G01X62023Y62489D01*
G01X62044Y62516D01*
G01X62063Y62544D01*
G01X62081Y62573D01*
G01X62096Y62603D01*
G01X62110Y62634D01*
G01X62122Y62666D01*
G01X62131Y62698D01*
G01X62136Y62712D01*
G01X62143Y62725D01*
G01X62152Y62737D01*
G01X62162Y62747D01*
G01X62174Y62756D01*
G01X62187Y62763D01*
G01X62200Y62768D01*
G01X62215Y62772D01*
G01X62230Y62773D01*
G01X62244Y62772D01*
G01X62259Y62768D01*
G01X62272Y62763D01*
G01X62285Y62756D01*
G01X62297Y62747D01*
G01X62307Y62737D01*
G01X62316Y62725D01*
G01X62323Y62712D01*
G01X62328Y62698D01*
G01X62337Y62666D01*
G01X62349Y62634D01*
G01X62363Y62603D01*
G01X62378Y62573D01*
G01X62396Y62544D01*
G01X62415Y62516D01*
G01X62436Y62489D01*
G01X62458Y62464D01*
G01X62482Y62440D01*
G01X62507Y62418D01*
G01X62534Y62397D01*
G01X62561Y62377D01*
G01X62590Y62360D01*
G01X62620Y62344D01*
G01X62651Y62330D01*
G01X62651Y63055D01*
G37*
G36*
G01X61839Y65042D02*
G01X61808Y65056D01*
G01X61808Y64331D01*
G01X62651Y64331D01*
G01X62651Y65056D01*
G01X62620Y65042D01*
G01X62590Y65026D01*
G01X62561Y65009D01*
G01X62534Y64990D01*
G01X62507Y64969D01*
G01X62482Y64946D01*
G01X62458Y64922D01*
G01X62436Y64897D01*
G01X62415Y64870D01*
G01X62396Y64842D01*
G01X62378Y64813D01*
G01X62363Y64783D01*
G01X62349Y64752D01*
G01X62337Y64721D01*
G01X62328Y64688D01*
G01X62323Y64674D01*
G01X62316Y64661D01*
G01X62307Y64650D01*
G01X62297Y64639D01*
G01X62285Y64630D01*
G01X62272Y64623D01*
G01X62259Y64618D01*
G01X62244Y64615D01*
G01X62230Y64613D01*
G01X62215Y64615D01*
G01X62200Y64618D01*
G01X62187Y64623D01*
G01X62174Y64630D01*
G01X62162Y64639D01*
G01X62152Y64650D01*
G01X62143Y64661D01*
G01X62136Y64674D01*
G01X62131Y64688D01*
G01X62122Y64721D01*
G01X62110Y64752D01*
G01X62096Y64783D01*
G01X62081Y64813D01*
G01X62063Y64842D01*
G01X62044Y64870D01*
G01X62023Y64897D01*
G01X62001Y64922D01*
G01X61977Y64946D01*
G01X61952Y64969D01*
G01X61925Y64990D01*
G01X61898Y65009D01*
G01X61869Y65026D01*
G01X61839Y65042D01*
G37*
G36*
G01X59299Y65042D02*
G01X59268Y65056D01*
G01X59268Y64331D01*
G01X60111Y64331D01*
G01X60111Y65056D01*
G01X60080Y65042D01*
G01X60050Y65026D01*
G01X60021Y65009D01*
G01X59994Y64990D01*
G01X59967Y64969D01*
G01X59942Y64946D01*
G01X59918Y64922D01*
G01X59896Y64897D01*
G01X59875Y64870D01*
G01X59856Y64842D01*
G01X59838Y64813D01*
G01X59823Y64783D01*
G01X59809Y64752D01*
G01X59797Y64721D01*
G01X59788Y64688D01*
G01X59783Y64674D01*
G01X59776Y64661D01*
G01X59767Y64650D01*
G01X59757Y64639D01*
G01X59745Y64630D01*
G01X59732Y64623D01*
G01X59719Y64618D01*
G01X59704Y64615D01*
G01X59690Y64613D01*
G01X59675Y64615D01*
G01X59660Y64618D01*
G01X59647Y64623D01*
G01X59634Y64630D01*
G01X59622Y64639D01*
G01X59612Y64650D01*
G01X59603Y64661D01*
G01X59596Y64674D01*
G01X59591Y64688D01*
G01X59582Y64721D01*
G01X59570Y64752D01*
G01X59556Y64783D01*
G01X59541Y64813D01*
G01X59523Y64842D01*
G01X59504Y64870D01*
G01X59483Y64897D01*
G01X59461Y64922D01*
G01X59437Y64946D01*
G01X59412Y64969D01*
G01X59385Y64990D01*
G01X59358Y65009D01*
G01X59329Y65026D01*
G01X59299Y65042D01*
G37*
G36*
G01X61381Y53955D02*
G01X60538Y53955D01*
G01X60538Y53230D01*
G01X60569Y53244D01*
G01X60599Y53260D01*
G01X60628Y53278D01*
G01X60655Y53297D01*
G01X60682Y53318D01*
G01X60707Y53340D01*
G01X60731Y53364D01*
G01X60753Y53390D01*
G01X60774Y53416D01*
G01X60793Y53444D01*
G01X60811Y53473D01*
G01X60826Y53503D01*
G01X60840Y53534D01*
G01X60852Y53566D01*
G01X60861Y53598D01*
G01X60866Y53612D01*
G01X60873Y53625D01*
G01X60882Y53637D01*
G01X60892Y53647D01*
G01X60904Y53656D01*
G01X60917Y53663D01*
G01X60930Y53669D01*
G01X60945Y53672D01*
G01X60960Y53673D01*
G01X60974Y53672D01*
G01X60989Y53669D01*
G01X61002Y53663D01*
G01X61015Y53656D01*
G01X61027Y53647D01*
G01X61037Y53637D01*
G01X61046Y53625D01*
G01X61053Y53612D01*
G01X61058Y53598D01*
G01X61067Y53566D01*
G01X61079Y53534D01*
G01X61093Y53503D01*
G01X61108Y53473D01*
G01X61126Y53444D01*
G01X61145Y53416D01*
G01X61166Y53390D01*
G01X61188Y53364D01*
G01X61212Y53340D01*
G01X61237Y53318D01*
G01X61264Y53297D01*
G01X61291Y53278D01*
G01X61320Y53260D01*
G01X61350Y53244D01*
G01X61381Y53230D01*
G01X61381Y53955D01*
G37*
G36*
G01X60569Y55942D02*
G01X60538Y55956D01*
G01X60538Y55231D01*
G01X61381Y55231D01*
G01X61381Y55956D01*
G01X61350Y55942D01*
G01X61320Y55927D01*
G01X61291Y55909D01*
G01X61264Y55890D01*
G01X61237Y55869D01*
G01X61212Y55846D01*
G01X61188Y55822D01*
G01X61166Y55797D01*
G01X61145Y55770D01*
G01X61126Y55742D01*
G01X61108Y55713D01*
G01X61093Y55683D01*
G01X61079Y55653D01*
G01X61067Y55621D01*
G01X61058Y55589D01*
G01X61053Y55575D01*
G01X61046Y55562D01*
G01X61037Y55550D01*
G01X61027Y55539D01*
G01X61015Y55530D01*
G01X61002Y55523D01*
G01X60989Y55518D01*
G01X60974Y55515D01*
G01X60960Y55514D01*
G01X60945Y55515D01*
G01X60930Y55518D01*
G01X60917Y55523D01*
G01X60904Y55530D01*
G01X60892Y55539D01*
G01X60882Y55550D01*
G01X60873Y55562D01*
G01X60866Y55575D01*
G01X60861Y55589D01*
G01X60852Y55621D01*
G01X60840Y55653D01*
G01X60826Y55683D01*
G01X60811Y55713D01*
G01X60793Y55742D01*
G01X60774Y55770D01*
G01X60753Y55797D01*
G01X60731Y55822D01*
G01X60707Y55846D01*
G01X60682Y55869D01*
G01X60655Y55890D01*
G01X60628Y55909D01*
G01X60599Y55927D01*
G01X60569Y55942D01*
G37*
G36*
G01X61381Y63055D02*
G01X60538Y63055D01*
G01X60538Y62330D01*
G01X60569Y62344D01*
G01X60599Y62360D01*
G01X60628Y62377D01*
G01X60655Y62397D01*
G01X60682Y62418D01*
G01X60707Y62440D01*
G01X60731Y62464D01*
G01X60753Y62489D01*
G01X60774Y62516D01*
G01X60793Y62544D01*
G01X60811Y62573D01*
G01X60826Y62603D01*
G01X60840Y62634D01*
G01X60852Y62666D01*
G01X60861Y62698D01*
G01X60866Y62712D01*
G01X60873Y62725D01*
G01X60882Y62737D01*
G01X60892Y62747D01*
G01X60904Y62756D01*
G01X60917Y62763D01*
G01X60930Y62768D01*
G01X60945Y62772D01*
G01X60960Y62773D01*
G01X60974Y62772D01*
G01X60989Y62768D01*
G01X61002Y62763D01*
G01X61015Y62756D01*
G01X61027Y62747D01*
G01X61037Y62737D01*
G01X61046Y62725D01*
G01X61053Y62712D01*
G01X61058Y62698D01*
G01X61067Y62666D01*
G01X61079Y62634D01*
G01X61093Y62603D01*
G01X61108Y62573D01*
G01X61126Y62544D01*
G01X61145Y62516D01*
G01X61166Y62489D01*
G01X61188Y62464D01*
G01X61212Y62440D01*
G01X61237Y62418D01*
G01X61264Y62397D01*
G01X61291Y62377D01*
G01X61320Y62360D01*
G01X61350Y62344D01*
G01X61381Y62330D01*
G01X61381Y63055D01*
G37*
G36*
G01X60569Y65042D02*
G01X60538Y65056D01*
G01X60538Y64331D01*
G01X61381Y64331D01*
G01X61381Y65056D01*
G01X61350Y65042D01*
G01X61320Y65026D01*
G01X61291Y65009D01*
G01X61264Y64990D01*
G01X61237Y64969D01*
G01X61212Y64946D01*
G01X61188Y64922D01*
G01X61166Y64897D01*
G01X61145Y64870D01*
G01X61126Y64842D01*
G01X61108Y64813D01*
G01X61093Y64783D01*
G01X61079Y64752D01*
G01X61067Y64721D01*
G01X61058Y64688D01*
G01X61053Y64674D01*
G01X61046Y64661D01*
G01X61037Y64650D01*
G01X61027Y64639D01*
G01X61015Y64630D01*
G01X61002Y64623D01*
G01X60989Y64618D01*
G01X60974Y64615D01*
G01X60960Y64613D01*
G01X60945Y64615D01*
G01X60930Y64618D01*
G01X60917Y64623D01*
G01X60904Y64630D01*
G01X60892Y64639D01*
G01X60882Y64650D01*
G01X60873Y64661D01*
G01X60866Y64674D01*
G01X60861Y64688D01*
G01X60852Y64721D01*
G01X60840Y64752D01*
G01X60826Y64783D01*
G01X60811Y64813D01*
G01X60793Y64842D01*
G01X60774Y64870D01*
G01X60753Y64897D01*
G01X60731Y64922D01*
G01X60707Y64946D01*
G01X60682Y64969D01*
G01X60655Y64990D01*
G01X60628Y65009D01*
G01X60599Y65026D01*
G01X60569Y65042D01*
G37*

%LPD*%
G36*
G01X63398Y43819D02*
G01X58521Y43819D01*
G01X58507Y43817D01*
G01X58492Y43814D01*
G01X58479Y43809D01*
G01X58466Y43802D01*
G01X58455Y43794D01*
G01X58444Y43783D01*
G01X58436Y43772D01*
G01X58429Y43759D01*
G01X58424Y43746D01*
G01X58421Y43731D01*
G01X58420Y43717D01*
G01X58420Y43041D01*
G01X58421Y43027D01*
G01X58424Y43013D01*
G01X58429Y42999D01*
G01X58436Y42986D01*
G01X58444Y42975D01*
G01X58455Y42964D01*
G01X58466Y42956D01*
G01X58479Y42949D01*
G01X58492Y42944D01*
G01X58507Y42941D01*
G01X58521Y42940D01*
G01X58537Y42941D01*
G01X58553Y42945D01*
G01X58567Y42951D01*
G01X58581Y42959D01*
G01X58593Y42970D01*
G01X58603Y42982D01*
G01X58624Y43009D01*
G01X58647Y43034D01*
G01X58671Y43059D01*
G01X58696Y43081D01*
G01X58723Y43103D01*
G01X58751Y43122D01*
G01X58780Y43140D01*
G01X58810Y43156D01*
G01X58841Y43170D01*
G01X58841Y42445D01*
G01X58521Y42445D01*
G01X58507Y42444D01*
G01X58492Y42441D01*
G01X58479Y42436D01*
G01X58466Y42429D01*
G01X58455Y42420D01*
G01X58444Y42410D01*
G01X58436Y42398D01*
G01X58429Y42385D01*
G01X58424Y42372D01*
G01X58421Y42358D01*
G01X58420Y42343D01*
G01X58420Y41270D01*
G01X58421Y41256D01*
G01X58424Y41242D01*
G01X58429Y41228D01*
G01X58436Y41215D01*
G01X58444Y41204D01*
G01X58455Y41194D01*
G01X58466Y41185D01*
G01X58479Y41178D01*
G01X58492Y41173D01*
G01X58507Y41170D01*
G01X58521Y41169D01*
G01X58841Y41169D01*
G01X58841Y40444D01*
G01X58810Y40458D01*
G01X58780Y40474D01*
G01X58751Y40491D01*
G01X58723Y40511D01*
G01X58696Y40532D01*
G01X58671Y40555D01*
G01X58647Y40579D01*
G01X58624Y40605D01*
G01X58603Y40632D01*
G01X58593Y40644D01*
G01X58581Y40654D01*
G01X58567Y40663D01*
G01X58553Y40669D01*
G01X58537Y40673D01*
G01X58521Y40674D01*
G01X58507Y40673D01*
G01X58492Y40670D01*
G01X58479Y40665D01*
G01X58466Y40658D01*
G01X58455Y40649D01*
G01X58444Y40639D01*
G01X58436Y40627D01*
G01X58429Y40614D01*
G01X58424Y40601D01*
G01X58421Y40587D01*
G01X58420Y40572D01*
G01X58420Y33941D01*
G01X58421Y33927D01*
G01X58424Y33913D01*
G01X58429Y33899D01*
G01X58436Y33887D01*
G01X58444Y33875D01*
G01X58455Y33865D01*
G01X58466Y33856D01*
G01X58479Y33849D01*
G01X58492Y33844D01*
G01X58507Y33841D01*
G01X58521Y33840D01*
G01X58537Y33841D01*
G01X58553Y33845D01*
G01X58567Y33851D01*
G01X58581Y33859D01*
G01X58593Y33870D01*
G01X58603Y33882D01*
G01X58624Y33909D01*
G01X58647Y33935D01*
G01X58671Y33959D01*
G01X58696Y33982D01*
G01X58723Y34003D01*
G01X58751Y34022D01*
G01X58780Y34040D01*
G01X58810Y34056D01*
G01X58841Y34070D01*
G01X58841Y33345D01*
G01X58521Y33345D01*
G01X58507Y33344D01*
G01X58492Y33341D01*
G01X58479Y33336D01*
G01X58466Y33329D01*
G01X58455Y33320D01*
G01X58444Y33310D01*
G01X58436Y33298D01*
G01X58429Y33286D01*
G01X58424Y33272D01*
G01X58421Y33258D01*
G01X58420Y33243D01*
G01X58420Y32171D01*
G01X58421Y32156D01*
G01X58424Y32142D01*
G01X58429Y32128D01*
G01X58436Y32116D01*
G01X58444Y32104D01*
G01X58455Y32094D01*
G01X58466Y32085D01*
G01X58479Y32078D01*
G01X58492Y32073D01*
G01X58507Y32070D01*
G01X58521Y32069D01*
G01X58841Y32069D01*
G01X58841Y31344D01*
G01X58810Y31358D01*
G01X58780Y31374D01*
G01X58751Y31392D01*
G01X58723Y31411D01*
G01X58696Y31432D01*
G01X58671Y31455D01*
G01X58647Y31479D01*
G01X58624Y31505D01*
G01X58603Y31532D01*
G01X58593Y31544D01*
G01X58581Y31555D01*
G01X58567Y31563D01*
G01X58553Y31569D01*
G01X58537Y31573D01*
G01X58521Y31574D01*
G01X58507Y31573D01*
G01X58492Y31570D01*
G01X58479Y31565D01*
G01X58466Y31558D01*
G01X58455Y31549D01*
G01X58444Y31539D01*
G01X58436Y31527D01*
G01X58429Y31515D01*
G01X58424Y31501D01*
G01X58421Y31487D01*
G01X58420Y31472D01*
G01X58420Y30585D01*
G01X58421Y30571D01*
G01X58424Y30557D01*
G01X58429Y30543D01*
G01X58436Y30530D01*
G01X58444Y30519D01*
G01X58455Y30508D01*
G01X58466Y30500D01*
G01X58479Y30493D01*
G01X58492Y30488D01*
G01X58507Y30485D01*
G01X58521Y30484D01*
G01X63398Y30484D01*
G01X63412Y30485D01*
G01X63427Y30488D01*
G01X63440Y30493D01*
G01X63453Y30500D01*
G01X63464Y30508D01*
G01X63475Y30519D01*
G01X63483Y30530D01*
G01X63490Y30543D01*
G01X63495Y30557D01*
G01X63498Y30571D01*
G01X63500Y30585D01*
G01X63500Y31472D01*
G01X63498Y31487D01*
G01X63495Y31501D01*
G01X63490Y31515D01*
G01X63483Y31527D01*
G01X63475Y31539D01*
G01X63464Y31549D01*
G01X63453Y31558D01*
G01X63440Y31565D01*
G01X63427Y31570D01*
G01X63412Y31573D01*
G01X63398Y31574D01*
G01X63382Y31573D01*
G01X63366Y31569D01*
G01X63352Y31563D01*
G01X63338Y31555D01*
G01X63326Y31544D01*
G01X63316Y31532D01*
G01X63295Y31505D01*
G01X63272Y31479D01*
G01X63248Y31455D01*
G01X63223Y31432D01*
G01X63196Y31411D01*
G01X63168Y31392D01*
G01X63139Y31374D01*
G01X63109Y31358D01*
G01X63078Y31344D01*
G01X63078Y32069D01*
G01X63398Y32069D01*
G01X63412Y32070D01*
G01X63427Y32073D01*
G01X63440Y32078D01*
G01X63453Y32085D01*
G01X63464Y32094D01*
G01X63475Y32104D01*
G01X63483Y32116D01*
G01X63490Y32128D01*
G01X63495Y32142D01*
G01X63498Y32156D01*
G01X63500Y32171D01*
G01X63500Y33243D01*
G01X63498Y33258D01*
G01X63495Y33272D01*
G01X63490Y33286D01*
G01X63483Y33298D01*
G01X63475Y33310D01*
G01X63464Y33320D01*
G01X63453Y33329D01*
G01X63440Y33336D01*
G01X63427Y33341D01*
G01X63412Y33344D01*
G01X63398Y33345D01*
G01X63078Y33345D01*
G01X63078Y34070D01*
G01X63109Y34056D01*
G01X63139Y34040D01*
G01X63168Y34022D01*
G01X63196Y34003D01*
G01X63223Y33982D01*
G01X63248Y33959D01*
G01X63272Y33935D01*
G01X63295Y33909D01*
G01X63316Y33882D01*
G01X63326Y33870D01*
G01X63338Y33859D01*
G01X63352Y33851D01*
G01X63366Y33845D01*
G01X63382Y33841D01*
G01X63398Y33840D01*
G01X63412Y33841D01*
G01X63427Y33844D01*
G01X63440Y33849D01*
G01X63453Y33856D01*
G01X63464Y33865D01*
G01X63475Y33875D01*
G01X63483Y33887D01*
G01X63490Y33899D01*
G01X63495Y33913D01*
G01X63498Y33927D01*
G01X63500Y33941D01*
G01X63500Y40572D01*
G01X63498Y40587D01*
G01X63495Y40601D01*
G01X63490Y40614D01*
G01X63483Y40627D01*
G01X63475Y40639D01*
G01X63464Y40649D01*
G01X63453Y40658D01*
G01X63440Y40665D01*
G01X63427Y40670D01*
G01X63412Y40673D01*
G01X63398Y40674D01*
G01X63382Y40673D01*
G01X63366Y40669D01*
G01X63352Y40663D01*
G01X63338Y40654D01*
G01X63326Y40644D01*
G01X63316Y40632D01*
G01X63295Y40605D01*
G01X63272Y40579D01*
G01X63248Y40555D01*
G01X63223Y40532D01*
G01X63196Y40511D01*
G01X63168Y40491D01*
G01X63139Y40474D01*
G01X63109Y40458D01*
G01X63078Y40444D01*
G01X63078Y41169D01*
G01X63398Y41169D01*
G01X63412Y41170D01*
G01X63427Y41173D01*
G01X63440Y41178D01*
G01X63453Y41185D01*
G01X63464Y41194D01*
G01X63475Y41204D01*
G01X63483Y41215D01*
G01X63490Y41228D01*
G01X63495Y41242D01*
G01X63498Y41256D01*
G01X63500Y41270D01*
G01X63500Y42343D01*
G01X63498Y42358D01*
G01X63495Y42372D01*
G01X63490Y42385D01*
G01X63483Y42398D01*
G01X63475Y42410D01*
G01X63464Y42420D01*
G01X63453Y42429D01*
G01X63440Y42436D01*
G01X63427Y42441D01*
G01X63412Y42444D01*
G01X63398Y42445D01*
G01X63078Y42445D01*
G01X63078Y43170D01*
G01X63109Y43156D01*
G01X63139Y43140D01*
G01X63168Y43122D01*
G01X63196Y43103D01*
G01X63223Y43081D01*
G01X63248Y43059D01*
G01X63272Y43034D01*
G01X63295Y43009D01*
G01X63316Y42982D01*
G01X63326Y42970D01*
G01X63338Y42959D01*
G01X63352Y42951D01*
G01X63366Y42945D01*
G01X63382Y42941D01*
G01X63398Y42940D01*
G01X63412Y42941D01*
G01X63427Y42944D01*
G01X63440Y42949D01*
G01X63453Y42956D01*
G01X63464Y42964D01*
G01X63475Y42975D01*
G01X63483Y42986D01*
G01X63490Y42999D01*
G01X63495Y43013D01*
G01X63498Y43027D01*
G01X63500Y43041D01*
G01X63500Y43717D01*
G01X63498Y43731D01*
G01X63495Y43746D01*
G01X63490Y43759D01*
G01X63483Y43772D01*
G01X63475Y43783D01*
G01X63464Y43794D01*
G01X63453Y43802D01*
G01X63440Y43809D01*
G01X63427Y43814D01*
G01X63412Y43817D01*
G01X63398Y43819D01*
G37*

%LPC*%
G36*
G01X62651Y32069D02*
G01X61808Y32069D01*
G01X61808Y31344D01*
G01X61839Y31358D01*
G01X61869Y31374D01*
G01X61898Y31391D01*
G01X61925Y31410D01*
G01X61952Y31431D01*
G01X61977Y31454D01*
G01X62001Y31478D01*
G01X62023Y31503D01*
G01X62044Y31530D01*
G01X62063Y31558D01*
G01X62081Y31587D01*
G01X62096Y31617D01*
G01X62110Y31648D01*
G01X62122Y31679D01*
G01X62131Y31712D01*
G01X62136Y31726D01*
G01X62143Y31739D01*
G01X62152Y31751D01*
G01X62162Y31761D01*
G01X62174Y31770D01*
G01X62187Y31777D01*
G01X62200Y31782D01*
G01X62215Y31786D01*
G01X62230Y31787D01*
G01X62244Y31786D01*
G01X62259Y31782D01*
G01X62272Y31777D01*
G01X62285Y31770D01*
G01X62297Y31761D01*
G01X62307Y31751D01*
G01X62316Y31739D01*
G01X62323Y31726D01*
G01X62328Y31712D01*
G01X62337Y31679D01*
G01X62349Y31648D01*
G01X62363Y31617D01*
G01X62378Y31587D01*
G01X62396Y31558D01*
G01X62415Y31530D01*
G01X62436Y31503D01*
G01X62458Y31478D01*
G01X62482Y31454D01*
G01X62507Y31431D01*
G01X62534Y31410D01*
G01X62561Y31391D01*
G01X62590Y31374D01*
G01X62620Y31358D01*
G01X62651Y31344D01*
G01X62651Y32069D01*
G37*
G36*
G01X60111Y32069D02*
G01X59268Y32069D01*
G01X59268Y31344D01*
G01X59299Y31358D01*
G01X59329Y31374D01*
G01X59358Y31391D01*
G01X59385Y31410D01*
G01X59412Y31431D01*
G01X59437Y31454D01*
G01X59461Y31478D01*
G01X59483Y31503D01*
G01X59504Y31530D01*
G01X59523Y31558D01*
G01X59541Y31587D01*
G01X59556Y31617D01*
G01X59570Y31648D01*
G01X59582Y31679D01*
G01X59591Y31712D01*
G01X59596Y31726D01*
G01X59603Y31739D01*
G01X59612Y31751D01*
G01X59622Y31761D01*
G01X59634Y31770D01*
G01X59647Y31777D01*
G01X59660Y31782D01*
G01X59675Y31786D01*
G01X59690Y31787D01*
G01X59704Y31786D01*
G01X59719Y31782D01*
G01X59732Y31777D01*
G01X59745Y31770D01*
G01X59757Y31761D01*
G01X59767Y31751D01*
G01X59776Y31739D01*
G01X59783Y31726D01*
G01X59788Y31712D01*
G01X59797Y31679D01*
G01X59809Y31648D01*
G01X59823Y31617D01*
G01X59838Y31587D01*
G01X59856Y31558D01*
G01X59875Y31530D01*
G01X59896Y31503D01*
G01X59918Y31478D01*
G01X59942Y31454D01*
G01X59967Y31431D01*
G01X59994Y31410D01*
G01X60021Y31391D01*
G01X60050Y31374D01*
G01X60080Y31358D01*
G01X60111Y31344D01*
G01X60111Y32069D01*
G37*
G36*
G01X61839Y34056D02*
G01X61808Y34070D01*
G01X61808Y33345D01*
G01X62651Y33345D01*
G01X62651Y34070D01*
G01X62620Y34056D01*
G01X62590Y34040D01*
G01X62561Y34023D01*
G01X62507Y33983D01*
G01X62482Y33960D01*
G01X62458Y33936D01*
G01X62436Y33911D01*
G01X62415Y33884D01*
G01X62396Y33856D01*
G01X62378Y33827D01*
G01X62363Y33797D01*
G01X62349Y33766D01*
G01X62337Y33735D01*
G01X62328Y33702D01*
G01X62323Y33688D01*
G01X62316Y33675D01*
G01X62307Y33663D01*
G01X62297Y33653D01*
G01X62285Y33644D01*
G01X62272Y33637D01*
G01X62259Y33632D01*
G01X62244Y33628D01*
G01X62230Y33627D01*
G01X62215Y33628D01*
G01X62200Y33632D01*
G01X62187Y33637D01*
G01X62174Y33644D01*
G01X62162Y33653D01*
G01X62152Y33663D01*
G01X62143Y33675D01*
G01X62136Y33688D01*
G01X62131Y33702D01*
G01X62122Y33735D01*
G01X62110Y33766D01*
G01X62096Y33797D01*
G01X62081Y33827D01*
G01X62063Y33856D01*
G01X62044Y33884D01*
G01X62023Y33911D01*
G01X62001Y33936D01*
G01X61977Y33960D01*
G01X61952Y33983D01*
G01X61898Y34023D01*
G01X61869Y34040D01*
G01X61839Y34056D01*
G37*
G36*
G01X59299Y34056D02*
G01X59268Y34070D01*
G01X59268Y33345D01*
G01X60111Y33345D01*
G01X60111Y34070D01*
G01X60080Y34056D01*
G01X60050Y34040D01*
G01X60021Y34023D01*
G01X59967Y33983D01*
G01X59942Y33960D01*
G01X59918Y33936D01*
G01X59896Y33911D01*
G01X59875Y33884D01*
G01X59856Y33856D01*
G01X59838Y33827D01*
G01X59823Y33797D01*
G01X59809Y33766D01*
G01X59797Y33735D01*
G01X59788Y33702D01*
G01X59783Y33688D01*
G01X59776Y33675D01*
G01X59767Y33663D01*
G01X59757Y33653D01*
G01X59745Y33644D01*
G01X59732Y33637D01*
G01X59719Y33632D01*
G01X59704Y33628D01*
G01X59690Y33627D01*
G01X59675Y33628D01*
G01X59660Y33632D01*
G01X59647Y33637D01*
G01X59634Y33644D01*
G01X59622Y33653D01*
G01X59612Y33663D01*
G01X59603Y33675D01*
G01X59596Y33688D01*
G01X59591Y33702D01*
G01X59582Y33735D01*
G01X59570Y33766D01*
G01X59556Y33797D01*
G01X59541Y33827D01*
G01X59523Y33856D01*
G01X59504Y33884D01*
G01X59483Y33911D01*
G01X59461Y33936D01*
G01X59437Y33960D01*
G01X59412Y33983D01*
G01X59358Y34023D01*
G01X59329Y34040D01*
G01X59299Y34056D01*
G37*
G36*
G01X60111Y41169D02*
G01X59268Y41169D01*
G01X59268Y40444D01*
G01X59299Y40458D01*
G01X59329Y40473D01*
G01X59358Y40491D01*
G01X59385Y40510D01*
G01X59412Y40531D01*
G01X59437Y40554D01*
G01X59461Y40578D01*
G01X59483Y40603D01*
G01X59504Y40630D01*
G01X59523Y40658D01*
G01X59541Y40687D01*
G01X59556Y40717D01*
G01X59570Y40748D01*
G01X59582Y40779D01*
G01X59591Y40812D01*
G01X59596Y40825D01*
G01X59603Y40838D01*
G01X59612Y40850D01*
G01X59622Y40861D01*
G01X59634Y40870D01*
G01X59647Y40877D01*
G01X59660Y40882D01*
G01X59675Y40885D01*
G01X59690Y40886D01*
G01X59704Y40885D01*
G01X59719Y40882D01*
G01X59732Y40877D01*
G01X59745Y40870D01*
G01X59757Y40861D01*
G01X59767Y40850D01*
G01X59776Y40838D01*
G01X59783Y40825D01*
G01X59788Y40812D01*
G01X59797Y40779D01*
G01X59809Y40748D01*
G01X59823Y40717D01*
G01X59838Y40687D01*
G01X59856Y40658D01*
G01X59875Y40630D01*
G01X59896Y40603D01*
G01X59918Y40578D01*
G01X59942Y40554D01*
G01X59967Y40531D01*
G01X59994Y40510D01*
G01X60021Y40491D01*
G01X60050Y40473D01*
G01X60080Y40458D01*
G01X60111Y40444D01*
G01X60111Y41169D01*
G37*
G36*
G01X62651Y41169D02*
G01X61808Y41169D01*
G01X61808Y40444D01*
G01X61839Y40458D01*
G01X61869Y40473D01*
G01X61898Y40491D01*
G01X61925Y40510D01*
G01X61952Y40531D01*
G01X61977Y40554D01*
G01X62001Y40578D01*
G01X62023Y40603D01*
G01X62044Y40630D01*
G01X62063Y40658D01*
G01X62081Y40687D01*
G01X62096Y40717D01*
G01X62110Y40748D01*
G01X62122Y40779D01*
G01X62131Y40812D01*
G01X62136Y40825D01*
G01X62143Y40838D01*
G01X62152Y40850D01*
G01X62162Y40861D01*
G01X62174Y40870D01*
G01X62187Y40877D01*
G01X62200Y40882D01*
G01X62215Y40885D01*
G01X62230Y40886D01*
G01X62244Y40885D01*
G01X62259Y40882D01*
G01X62272Y40877D01*
G01X62285Y40870D01*
G01X62297Y40861D01*
G01X62307Y40850D01*
G01X62316Y40838D01*
G01X62323Y40825D01*
G01X62328Y40812D01*
G01X62337Y40779D01*
G01X62349Y40748D01*
G01X62363Y40717D01*
G01X62378Y40687D01*
G01X62396Y40658D01*
G01X62415Y40630D01*
G01X62436Y40603D01*
G01X62458Y40578D01*
G01X62482Y40554D01*
G01X62507Y40531D01*
G01X62534Y40510D01*
G01X62561Y40491D01*
G01X62590Y40473D01*
G01X62620Y40458D01*
G01X62651Y40444D01*
G01X62651Y41169D01*
G37*
G36*
G01X61839Y43156D02*
G01X61808Y43170D01*
G01X61808Y42445D01*
G01X62651Y42445D01*
G01X62651Y43170D01*
G01X62620Y43156D01*
G01X62590Y43140D01*
G01X62561Y43123D01*
G01X62534Y43103D01*
G01X62507Y43082D01*
G01X62482Y43060D01*
G01X62458Y43036D01*
G01X62436Y43010D01*
G01X62415Y42984D01*
G01X62396Y42956D01*
G01X62378Y42927D01*
G01X62363Y42897D01*
G01X62349Y42866D01*
G01X62337Y42834D01*
G01X62328Y42802D01*
G01X62323Y42788D01*
G01X62316Y42775D01*
G01X62307Y42763D01*
G01X62297Y42753D01*
G01X62285Y42744D01*
G01X62272Y42737D01*
G01X62259Y42731D01*
G01X62244Y42728D01*
G01X62230Y42727D01*
G01X62215Y42728D01*
G01X62200Y42731D01*
G01X62187Y42737D01*
G01X62174Y42744D01*
G01X62162Y42753D01*
G01X62152Y42763D01*
G01X62143Y42775D01*
G01X62136Y42788D01*
G01X62131Y42802D01*
G01X62122Y42834D01*
G01X62110Y42866D01*
G01X62096Y42897D01*
G01X62081Y42927D01*
G01X62063Y42956D01*
G01X62044Y42984D01*
G01X62023Y43010D01*
G01X62001Y43036D01*
G01X61977Y43060D01*
G01X61952Y43082D01*
G01X61925Y43103D01*
G01X61898Y43123D01*
G01X61869Y43140D01*
G01X61839Y43156D01*
G37*
G36*
G01X59299Y43156D02*
G01X59268Y43170D01*
G01X59268Y42445D01*
G01X60111Y42445D01*
G01X60111Y43170D01*
G01X60080Y43156D01*
G01X60050Y43140D01*
G01X60021Y43123D01*
G01X59994Y43103D01*
G01X59967Y43082D01*
G01X59942Y43060D01*
G01X59918Y43036D01*
G01X59896Y43010D01*
G01X59875Y42984D01*
G01X59856Y42956D01*
G01X59838Y42927D01*
G01X59823Y42897D01*
G01X59809Y42866D01*
G01X59797Y42834D01*
G01X59788Y42802D01*
G01X59783Y42788D01*
G01X59776Y42775D01*
G01X59767Y42763D01*
G01X59757Y42753D01*
G01X59745Y42744D01*
G01X59732Y42737D01*
G01X59719Y42731D01*
G01X59704Y42728D01*
G01X59690Y42727D01*
G01X59675Y42728D01*
G01X59660Y42731D01*
G01X59647Y42737D01*
G01X59634Y42744D01*
G01X59622Y42753D01*
G01X59612Y42763D01*
G01X59603Y42775D01*
G01X59596Y42788D01*
G01X59591Y42802D01*
G01X59582Y42834D01*
G01X59570Y42866D01*
G01X59556Y42897D01*
G01X59541Y42927D01*
G01X59523Y42956D01*
G01X59504Y42984D01*
G01X59483Y43010D01*
G01X59461Y43036D01*
G01X59437Y43060D01*
G01X59412Y43082D01*
G01X59385Y43103D01*
G01X59358Y43123D01*
G01X59329Y43140D01*
G01X59299Y43156D01*
G37*
G36*
G01X61381Y32069D02*
G01X60538Y32069D01*
G01X60538Y31344D01*
G01X60569Y31358D01*
G01X60599Y31374D01*
G01X60628Y31391D01*
G01X60655Y31410D01*
G01X60682Y31431D01*
G01X60707Y31454D01*
G01X60731Y31478D01*
G01X60753Y31503D01*
G01X60774Y31530D01*
G01X60793Y31558D01*
G01X60811Y31587D01*
G01X60826Y31617D01*
G01X60840Y31648D01*
G01X60852Y31679D01*
G01X60861Y31712D01*
G01X60866Y31726D01*
G01X60873Y31739D01*
G01X60882Y31751D01*
G01X60892Y31761D01*
G01X60904Y31770D01*
G01X60917Y31777D01*
G01X60930Y31782D01*
G01X60945Y31786D01*
G01X60960Y31787D01*
G01X60974Y31786D01*
G01X60989Y31782D01*
G01X61002Y31777D01*
G01X61015Y31770D01*
G01X61027Y31761D01*
G01X61037Y31751D01*
G01X61046Y31739D01*
G01X61053Y31726D01*
G01X61058Y31712D01*
G01X61067Y31679D01*
G01X61079Y31648D01*
G01X61093Y31617D01*
G01X61108Y31587D01*
G01X61126Y31558D01*
G01X61145Y31530D01*
G01X61166Y31503D01*
G01X61188Y31478D01*
G01X61212Y31454D01*
G01X61237Y31431D01*
G01X61264Y31410D01*
G01X61291Y31391D01*
G01X61320Y31374D01*
G01X61350Y31358D01*
G01X61381Y31344D01*
G01X61381Y32069D01*
G37*
G36*
G01X60569Y34056D02*
G01X60538Y34070D01*
G01X60538Y33345D01*
G01X61381Y33345D01*
G01X61381Y34070D01*
G01X61350Y34056D01*
G01X61320Y34040D01*
G01X61291Y34023D01*
G01X61237Y33983D01*
G01X61212Y33960D01*
G01X61188Y33936D01*
G01X61166Y33911D01*
G01X61145Y33884D01*
G01X61126Y33856D01*
G01X61108Y33827D01*
G01X61093Y33797D01*
G01X61079Y33766D01*
G01X61067Y33735D01*
G01X61058Y33702D01*
G01X61053Y33688D01*
G01X61046Y33675D01*
G01X61037Y33663D01*
G01X61027Y33653D01*
G01X61015Y33644D01*
G01X61002Y33637D01*
G01X60989Y33632D01*
G01X60974Y33628D01*
G01X60960Y33627D01*
G01X60945Y33628D01*
G01X60930Y33632D01*
G01X60917Y33637D01*
G01X60904Y33644D01*
G01X60892Y33653D01*
G01X60882Y33663D01*
G01X60873Y33675D01*
G01X60866Y33688D01*
G01X60861Y33702D01*
G01X60852Y33735D01*
G01X60840Y33766D01*
G01X60826Y33797D01*
G01X60811Y33827D01*
G01X60793Y33856D01*
G01X60774Y33884D01*
G01X60753Y33911D01*
G01X60731Y33936D01*
G01X60707Y33960D01*
G01X60682Y33983D01*
G01X60628Y34023D01*
G01X60599Y34040D01*
G01X60569Y34056D01*
G37*
G36*
G01X61381Y41169D02*
G01X60538Y41169D01*
G01X60538Y40444D01*
G01X60569Y40458D01*
G01X60599Y40473D01*
G01X60628Y40491D01*
G01X60655Y40510D01*
G01X60682Y40531D01*
G01X60707Y40554D01*
G01X60731Y40578D01*
G01X60753Y40603D01*
G01X60774Y40630D01*
G01X60793Y40658D01*
G01X60811Y40687D01*
G01X60826Y40717D01*
G01X60840Y40748D01*
G01X60852Y40779D01*
G01X60861Y40812D01*
G01X60866Y40825D01*
G01X60873Y40838D01*
G01X60882Y40850D01*
G01X60892Y40861D01*
G01X60904Y40870D01*
G01X60917Y40877D01*
G01X60930Y40882D01*
G01X60945Y40885D01*
G01X60960Y40886D01*
G01X60974Y40885D01*
G01X60989Y40882D01*
G01X61002Y40877D01*
G01X61015Y40870D01*
G01X61027Y40861D01*
G01X61037Y40850D01*
G01X61046Y40838D01*
G01X61053Y40825D01*
G01X61058Y40812D01*
G01X61067Y40779D01*
G01X61079Y40748D01*
G01X61093Y40717D01*
G01X61108Y40687D01*
G01X61126Y40658D01*
G01X61145Y40630D01*
G01X61166Y40603D01*
G01X61188Y40578D01*
G01X61212Y40554D01*
G01X61237Y40531D01*
G01X61264Y40510D01*
G01X61291Y40491D01*
G01X61320Y40473D01*
G01X61350Y40458D01*
G01X61381Y40444D01*
G01X61381Y41169D01*
G37*
G36*
G01X60569Y43156D02*
G01X60538Y43170D01*
G01X60538Y42445D01*
G01X61381Y42445D01*
G01X61381Y43170D01*
G01X61350Y43156D01*
G01X61320Y43140D01*
G01X61291Y43123D01*
G01X61264Y43103D01*
G01X61237Y43082D01*
G01X61212Y43060D01*
G01X61188Y43036D01*
G01X61166Y43010D01*
G01X61145Y42984D01*
G01X61126Y42956D01*
G01X61108Y42927D01*
G01X61093Y42897D01*
G01X61079Y42866D01*
G01X61067Y42834D01*
G01X61058Y42802D01*
G01X61053Y42788D01*
G01X61046Y42775D01*
G01X61037Y42763D01*
G01X61027Y42753D01*
G01X61015Y42744D01*
G01X61002Y42737D01*
G01X60989Y42731D01*
G01X60974Y42728D01*
G01X60960Y42727D01*
G01X60945Y42728D01*
G01X60930Y42731D01*
G01X60917Y42737D01*
G01X60904Y42744D01*
G01X60892Y42753D01*
G01X60882Y42763D01*
G01X60873Y42775D01*
G01X60866Y42788D01*
G01X60861Y42802D01*
G01X60852Y42834D01*
G01X60840Y42866D01*
G01X60826Y42897D01*
G01X60811Y42927D01*
G01X60793Y42956D01*
G01X60774Y42984D01*
G01X60753Y43010D01*
G01X60731Y43036D01*
G01X60707Y43060D01*
G01X60682Y43082D01*
G01X60655Y43103D01*
G01X60628Y43123D01*
G01X60599Y43140D01*
G01X60569Y43156D01*
G37*

%LPD*%
G36*
G01X63398Y22102D02*
G01X58521Y22102D01*
G01X58507Y22100D01*
G01X58492Y22097D01*
G01X58479Y22092D01*
G01X58466Y22085D01*
G01X58455Y22077D01*
G01X58444Y22066D01*
G01X58436Y22055D01*
G01X58429Y22042D01*
G01X58424Y22029D01*
G01X58421Y22014D01*
G01X58420Y22000D01*
G01X58420Y21155D01*
G01X58421Y21140D01*
G01X58424Y21126D01*
G01X58429Y21113D01*
G01X58436Y21100D01*
G01X58444Y21088D01*
G01X58455Y21078D01*
G01X58466Y21069D01*
G01X58492Y21057D01*
G01X58507Y21054D01*
G01X58521Y21053D01*
G01X58537Y21055D01*
G01X58553Y21058D01*
G01X58567Y21064D01*
G01X58581Y21073D01*
G01X58593Y21083D01*
G01X58603Y21095D01*
G01X58624Y21122D01*
G01X58647Y21148D01*
G01X58671Y21172D01*
G01X58696Y21195D01*
G01X58723Y21216D01*
G01X58751Y21236D01*
G01X58780Y21253D01*
G01X58810Y21269D01*
G01X58841Y21283D01*
G01X58841Y20558D01*
G01X58521Y20558D01*
G01X58507Y20557D01*
G01X58492Y20554D01*
G01X58479Y20549D01*
G01X58466Y20542D01*
G01X58455Y20534D01*
G01X58444Y20523D01*
G01X58436Y20512D01*
G01X58429Y20499D01*
G01X58424Y20485D01*
G01X58421Y20471D01*
G01X58420Y20457D01*
G01X58420Y19384D01*
G01X58421Y19370D01*
G01X58424Y19355D01*
G01X58429Y19342D01*
G01X58436Y19329D01*
G01X58444Y19317D01*
G01X58455Y19307D01*
G01X58466Y19299D01*
G01X58479Y19292D01*
G01X58492Y19287D01*
G01X58507Y19283D01*
G01X58521Y19282D01*
G01X58841Y19282D01*
G01X58841Y18558D01*
G01X58810Y18572D01*
G01X58780Y18587D01*
G01X58751Y18605D01*
G01X58723Y18625D01*
G01X58696Y18646D01*
G01X58671Y18669D01*
G01X58647Y18693D01*
G01X58624Y18718D01*
G01X58603Y18745D01*
G01X58593Y18758D01*
G01X58581Y18768D01*
G01X58567Y18776D01*
G01X58553Y18783D01*
G01X58537Y18786D01*
G01X58521Y18788D01*
G01X58507Y18786D01*
G01X58492Y18783D01*
G01X58479Y18778D01*
G01X58466Y18771D01*
G01X58455Y18763D01*
G01X58444Y18752D01*
G01X58436Y18741D01*
G01X58429Y18728D01*
G01X58424Y18715D01*
G01X58421Y18700D01*
G01X58420Y18686D01*
G01X58420Y12055D01*
G01X58421Y12041D01*
G01X58424Y12027D01*
G01X58429Y12013D01*
G01X58436Y12000D01*
G01X58444Y11989D01*
G01X58455Y11978D01*
G01X58466Y11970D01*
G01X58479Y11963D01*
G01X58492Y11958D01*
G01X58507Y11955D01*
G01X58521Y11954D01*
G01X58537Y11955D01*
G01X58553Y11959D01*
G01X58567Y11965D01*
G01X58581Y11973D01*
G01X58593Y11983D01*
G01X58603Y11996D01*
G01X58624Y12023D01*
G01X58647Y12048D01*
G01X58671Y12073D01*
G01X58696Y12095D01*
G01X58723Y12116D01*
G01X58751Y12136D01*
G01X58780Y12154D01*
G01X58810Y12170D01*
G01X58841Y12184D01*
G01X58841Y11459D01*
G01X58521Y11459D01*
G01X58507Y11458D01*
G01X58492Y11454D01*
G01X58479Y11449D01*
G01X58466Y11442D01*
G01X58455Y11434D01*
G01X58444Y11424D01*
G01X58436Y11412D01*
G01X58429Y11399D01*
G01X58424Y11386D01*
G01X58421Y11371D01*
G01X58420Y11357D01*
G01X58420Y10284D01*
G01X58421Y10270D01*
G01X58424Y10256D01*
G01X58429Y10242D01*
G01X58436Y10229D01*
G01X58444Y10218D01*
G01X58455Y10207D01*
G01X58466Y10199D01*
G01X58479Y10192D01*
G01X58492Y10187D01*
G01X58507Y10184D01*
G01X58521Y10183D01*
G01X58841Y10183D01*
G01X58841Y9458D01*
G01X58810Y9472D01*
G01X58780Y9488D01*
G01X58751Y9505D01*
G01X58723Y9525D01*
G01X58696Y9546D01*
G01X58671Y9569D01*
G01X58647Y9593D01*
G01X58624Y9619D01*
G01X58603Y9646D01*
G01X58593Y9658D01*
G01X58581Y9668D01*
G01X58567Y9677D01*
G01X58553Y9683D01*
G01X58537Y9686D01*
G01X58521Y9688D01*
G01X58507Y9687D01*
G01X58492Y9684D01*
G01X58479Y9679D01*
G01X58466Y9672D01*
G01X58455Y9663D01*
G01X58444Y9653D01*
G01X58436Y9641D01*
G01X58429Y9628D01*
G01X58424Y9615D01*
G01X58421Y9601D01*
G01X58420Y9586D01*
G01X58420Y8741D01*
G01X58421Y8727D01*
G01X58424Y8713D01*
G01X58429Y8699D01*
G01X58436Y8686D01*
G01X58444Y8675D01*
G01X58455Y8664D01*
G01X58466Y8656D01*
G01X58479Y8649D01*
G01X58492Y8644D01*
G01X58507Y8641D01*
G01X58521Y8640D01*
G01X63398Y8640D01*
G01X63412Y8641D01*
G01X63427Y8644D01*
G01X63440Y8649D01*
G01X63453Y8656D01*
G01X63464Y8664D01*
G01X63475Y8675D01*
G01X63483Y8686D01*
G01X63490Y8699D01*
G01X63495Y8713D01*
G01X63498Y8727D01*
G01X63500Y8741D01*
G01X63500Y9586D01*
G01X63498Y9601D01*
G01X63495Y9615D01*
G01X63490Y9628D01*
G01X63483Y9641D01*
G01X63475Y9653D01*
G01X63464Y9663D01*
G01X63453Y9672D01*
G01X63440Y9679D01*
G01X63427Y9684D01*
G01X63412Y9687D01*
G01X63398Y9688D01*
G01X63382Y9686D01*
G01X63366Y9683D01*
G01X63352Y9677D01*
G01X63338Y9668D01*
G01X63326Y9658D01*
G01X63316Y9646D01*
G01X63295Y9619D01*
G01X63272Y9593D01*
G01X63248Y9569D01*
G01X63223Y9546D01*
G01X63196Y9525D01*
G01X63168Y9505D01*
G01X63139Y9488D01*
G01X63109Y9472D01*
G01X63078Y9458D01*
G01X63078Y10183D01*
G01X63398Y10183D01*
G01X63412Y10184D01*
G01X63427Y10187D01*
G01X63440Y10192D01*
G01X63453Y10199D01*
G01X63464Y10207D01*
G01X63475Y10218D01*
G01X63483Y10229D01*
G01X63490Y10242D01*
G01X63495Y10256D01*
G01X63498Y10270D01*
G01X63500Y10284D01*
G01X63500Y11357D01*
G01X63498Y11371D01*
G01X63495Y11386D01*
G01X63490Y11399D01*
G01X63483Y11412D01*
G01X63475Y11424D01*
G01X63464Y11434D01*
G01X63453Y11442D01*
G01X63440Y11449D01*
G01X63427Y11454D01*
G01X63412Y11458D01*
G01X63398Y11459D01*
G01X63078Y11459D01*
G01X63078Y12184D01*
G01X63109Y12170D01*
G01X63139Y12154D01*
G01X63168Y12136D01*
G01X63196Y12116D01*
G01X63223Y12095D01*
G01X63248Y12073D01*
G01X63272Y12048D01*
G01X63295Y12023D01*
G01X63316Y11996D01*
G01X63326Y11983D01*
G01X63338Y11973D01*
G01X63352Y11965D01*
G01X63366Y11959D01*
G01X63382Y11955D01*
G01X63398Y11954D01*
G01X63412Y11955D01*
G01X63427Y11958D01*
G01X63440Y11963D01*
G01X63453Y11970D01*
G01X63464Y11978D01*
G01X63475Y11989D01*
G01X63483Y12000D01*
G01X63490Y12013D01*
G01X63495Y12027D01*
G01X63498Y12041D01*
G01X63500Y12055D01*
G01X63500Y18686D01*
G01X63498Y18700D01*
G01X63495Y18715D01*
G01X63490Y18728D01*
G01X63483Y18741D01*
G01X63475Y18752D01*
G01X63464Y18763D01*
G01X63453Y18771D01*
G01X63440Y18778D01*
G01X63427Y18783D01*
G01X63412Y18786D01*
G01X63398Y18788D01*
G01X63382Y18786D01*
G01X63366Y18783D01*
G01X63352Y18776D01*
G01X63338Y18768D01*
G01X63326Y18758D01*
G01X63316Y18745D01*
G01X63295Y18718D01*
G01X63272Y18693D01*
G01X63248Y18669D01*
G01X63223Y18646D01*
G01X63196Y18625D01*
G01X63168Y18605D01*
G01X63139Y18587D01*
G01X63109Y18572D01*
G01X63078Y18558D01*
G01X63078Y19282D01*
G01X63398Y19282D01*
G01X63412Y19283D01*
G01X63427Y19287D01*
G01X63440Y19292D01*
G01X63453Y19299D01*
G01X63464Y19307D01*
G01X63475Y19317D01*
G01X63483Y19329D01*
G01X63490Y19342D01*
G01X63495Y19355D01*
G01X63498Y19370D01*
G01X63500Y19384D01*
G01X63500Y20457D01*
G01X63498Y20471D01*
G01X63495Y20485D01*
G01X63490Y20499D01*
G01X63483Y20512D01*
G01X63475Y20523D01*
G01X63464Y20534D01*
G01X63453Y20542D01*
G01X63440Y20549D01*
G01X63427Y20554D01*
G01X63412Y20557D01*
G01X63398Y20558D01*
G01X63078Y20558D01*
G01X63078Y21283D01*
G01X63109Y21269D01*
G01X63139Y21253D01*
G01X63168Y21236D01*
G01X63196Y21216D01*
G01X63223Y21195D01*
G01X63248Y21172D01*
G01X63272Y21148D01*
G01X63295Y21122D01*
G01X63316Y21095D01*
G01X63326Y21083D01*
G01X63338Y21073D01*
G01X63352Y21064D01*
G01X63366Y21058D01*
G01X63382Y21055D01*
G01X63398Y21053D01*
G01X63412Y21054D01*
G01X63427Y21057D01*
G01X63453Y21069D01*
G01X63464Y21078D01*
G01X63475Y21088D01*
G01X63483Y21100D01*
G01X63490Y21113D01*
G01X63495Y21126D01*
G01X63498Y21140D01*
G01X63500Y21155D01*
G01X63500Y22000D01*
G01X63498Y22014D01*
G01X63495Y22029D01*
G01X63490Y22042D01*
G01X63483Y22055D01*
G01X63475Y22066D01*
G01X63464Y22077D01*
G01X63453Y22085D01*
G01X63440Y22092D01*
G01X63427Y22097D01*
G01X63412Y22100D01*
G01X63398Y22102D01*
G37*

%LPC*%
G36*
G01X62651Y10183D02*
G01X61808Y10183D01*
G01X61808Y9458D01*
G01X61839Y9472D01*
G01X61869Y9487D01*
G01X61898Y9505D01*
G01X61925Y9524D01*
G01X61952Y9545D01*
G01X61977Y9568D01*
G01X62001Y9592D01*
G01X62023Y9617D01*
G01X62044Y9644D01*
G01X62063Y9671D01*
G01X62081Y9700D01*
G01X62096Y9730D01*
G01X62110Y9761D01*
G01X62122Y9793D01*
G01X62131Y9825D01*
G01X62136Y9839D01*
G01X62143Y9852D01*
G01X62152Y9864D01*
G01X62162Y9875D01*
G01X62174Y9884D01*
G01X62187Y9891D01*
G01X62200Y9896D01*
G01X62215Y9899D01*
G01X62230Y9900D01*
G01X62244Y9899D01*
G01X62259Y9896D01*
G01X62272Y9891D01*
G01X62285Y9884D01*
G01X62297Y9875D01*
G01X62307Y9864D01*
G01X62316Y9852D01*
G01X62323Y9839D01*
G01X62328Y9825D01*
G01X62337Y9793D01*
G01X62349Y9761D01*
G01X62363Y9730D01*
G01X62378Y9700D01*
G01X62396Y9671D01*
G01X62415Y9644D01*
G01X62436Y9617D01*
G01X62458Y9592D01*
G01X62482Y9568D01*
G01X62507Y9545D01*
G01X62534Y9524D01*
G01X62561Y9505D01*
G01X62590Y9487D01*
G01X62620Y9472D01*
G01X62651Y9458D01*
G01X62651Y10183D01*
G37*
G36*
G01X60111Y10183D02*
G01X59268Y10183D01*
G01X59268Y9458D01*
G01X59299Y9472D01*
G01X59329Y9487D01*
G01X59358Y9505D01*
G01X59385Y9524D01*
G01X59412Y9545D01*
G01X59437Y9568D01*
G01X59461Y9592D01*
G01X59483Y9617D01*
G01X59504Y9644D01*
G01X59523Y9671D01*
G01X59541Y9700D01*
G01X59556Y9730D01*
G01X59570Y9761D01*
G01X59582Y9793D01*
G01X59591Y9825D01*
G01X59596Y9839D01*
G01X59603Y9852D01*
G01X59612Y9864D01*
G01X59622Y9875D01*
G01X59634Y9884D01*
G01X59647Y9891D01*
G01X59660Y9896D01*
G01X59675Y9899D01*
G01X59690Y9900D01*
G01X59704Y9899D01*
G01X59719Y9896D01*
G01X59732Y9891D01*
G01X59745Y9884D01*
G01X59757Y9875D01*
G01X59767Y9864D01*
G01X59776Y9852D01*
G01X59783Y9839D01*
G01X59788Y9825D01*
G01X59797Y9793D01*
G01X59809Y9761D01*
G01X59823Y9730D01*
G01X59838Y9700D01*
G01X59856Y9671D01*
G01X59875Y9644D01*
G01X59896Y9617D01*
G01X59918Y9592D01*
G01X59942Y9568D01*
G01X59967Y9545D01*
G01X59994Y9524D01*
G01X60021Y9505D01*
G01X60050Y9487D01*
G01X60080Y9472D01*
G01X60111Y9458D01*
G01X60111Y10183D01*
G37*
G36*
G01X61839Y12170D02*
G01X61808Y12184D01*
G01X61808Y11459D01*
G01X62651Y11459D01*
G01X62651Y12184D01*
G01X62620Y12170D01*
G01X62590Y12154D01*
G01X62561Y12136D01*
G01X62534Y12117D01*
G01X62507Y12096D01*
G01X62482Y12074D01*
G01X62458Y12050D01*
G01X62436Y12024D01*
G01X62415Y11998D01*
G01X62396Y11970D01*
G01X62378Y11941D01*
G01X62363Y11911D01*
G01X62349Y11880D01*
G01X62337Y11848D01*
G01X62328Y11816D01*
G01X62323Y11802D01*
G01X62316Y11789D01*
G01X62307Y11777D01*
G01X62297Y11767D01*
G01X62285Y11758D01*
G01X62272Y11750D01*
G01X62259Y11745D01*
G01X62244Y11742D01*
G01X62230Y11741D01*
G01X62215Y11742D01*
G01X62200Y11745D01*
G01X62187Y11750D01*
G01X62174Y11758D01*
G01X62162Y11767D01*
G01X62152Y11777D01*
G01X62143Y11789D01*
G01X62136Y11802D01*
G01X62131Y11816D01*
G01X62122Y11848D01*
G01X62110Y11880D01*
G01X62096Y11911D01*
G01X62081Y11941D01*
G01X62063Y11970D01*
G01X62044Y11998D01*
G01X62023Y12024D01*
G01X62001Y12050D01*
G01X61977Y12074D01*
G01X61952Y12096D01*
G01X61925Y12117D01*
G01X61898Y12136D01*
G01X61869Y12154D01*
G01X61839Y12170D01*
G37*
G36*
G01X59299Y12170D02*
G01X59268Y12184D01*
G01X59268Y11459D01*
G01X60111Y11459D01*
G01X60111Y12184D01*
G01X60080Y12170D01*
G01X60050Y12154D01*
G01X60021Y12136D01*
G01X59994Y12117D01*
G01X59967Y12096D01*
G01X59942Y12074D01*
G01X59918Y12050D01*
G01X59896Y12024D01*
G01X59875Y11998D01*
G01X59856Y11970D01*
G01X59838Y11941D01*
G01X59823Y11911D01*
G01X59809Y11880D01*
G01X59797Y11848D01*
G01X59788Y11816D01*
G01X59783Y11802D01*
G01X59776Y11789D01*
G01X59767Y11777D01*
G01X59757Y11767D01*
G01X59745Y11758D01*
G01X59732Y11750D01*
G01X59719Y11745D01*
G01X59704Y11742D01*
G01X59690Y11741D01*
G01X59675Y11742D01*
G01X59660Y11745D01*
G01X59647Y11750D01*
G01X59634Y11758D01*
G01X59622Y11767D01*
G01X59612Y11777D01*
G01X59603Y11789D01*
G01X59596Y11802D01*
G01X59591Y11816D01*
G01X59582Y11848D01*
G01X59570Y11880D01*
G01X59556Y11911D01*
G01X59541Y11941D01*
G01X59523Y11970D01*
G01X59504Y11998D01*
G01X59483Y12024D01*
G01X59461Y12050D01*
G01X59437Y12074D01*
G01X59412Y12096D01*
G01X59385Y12117D01*
G01X59358Y12136D01*
G01X59329Y12154D01*
G01X59299Y12170D01*
G37*
G36*
G01X60111Y19282D02*
G01X59268Y19282D01*
G01X59268Y18558D01*
G01X59299Y18571D01*
G01X59329Y18587D01*
G01X59358Y18605D01*
G01X59385Y18624D01*
G01X59412Y18645D01*
G01X59437Y18667D01*
G01X59461Y18691D01*
G01X59483Y18717D01*
G01X59504Y18743D01*
G01X59523Y18771D01*
G01X59541Y18800D01*
G01X59556Y18830D01*
G01X59570Y18861D01*
G01X59582Y18893D01*
G01X59591Y18925D01*
G01X59596Y18939D01*
G01X59603Y18952D01*
G01X59612Y18964D01*
G01X59622Y18975D01*
G01X59634Y18983D01*
G01X59647Y18991D01*
G01X59660Y18996D01*
G01X59675Y18999D01*
G01X59690Y19000D01*
G01X59704Y18999D01*
G01X59719Y18996D01*
G01X59732Y18991D01*
G01X59745Y18983D01*
G01X59757Y18975D01*
G01X59767Y18964D01*
G01X59776Y18952D01*
G01X59783Y18939D01*
G01X59788Y18925D01*
G01X59797Y18893D01*
G01X59809Y18861D01*
G01X59823Y18830D01*
G01X59838Y18800D01*
G01X59856Y18771D01*
G01X59875Y18743D01*
G01X59896Y18717D01*
G01X59918Y18691D01*
G01X59942Y18667D01*
G01X59967Y18645D01*
G01X59994Y18624D01*
G01X60021Y18605D01*
G01X60050Y18587D01*
G01X60080Y18571D01*
G01X60111Y18558D01*
G01X60111Y19282D01*
G37*
G36*
G01X62651Y19282D02*
G01X61808Y19282D01*
G01X61808Y18558D01*
G01X61839Y18571D01*
G01X61869Y18587D01*
G01X61898Y18605D01*
G01X61925Y18624D01*
G01X61952Y18645D01*
G01X61977Y18667D01*
G01X62001Y18691D01*
G01X62023Y18717D01*
G01X62044Y18743D01*
G01X62063Y18771D01*
G01X62081Y18800D01*
G01X62096Y18830D01*
G01X62110Y18861D01*
G01X62122Y18893D01*
G01X62131Y18925D01*
G01X62136Y18939D01*
G01X62143Y18952D01*
G01X62152Y18964D01*
G01X62162Y18975D01*
G01X62174Y18983D01*
G01X62187Y18991D01*
G01X62200Y18996D01*
G01X62215Y18999D01*
G01X62230Y19000D01*
G01X62244Y18999D01*
G01X62259Y18996D01*
G01X62272Y18991D01*
G01X62285Y18983D01*
G01X62297Y18975D01*
G01X62307Y18964D01*
G01X62316Y18952D01*
G01X62323Y18939D01*
G01X62328Y18925D01*
G01X62337Y18893D01*
G01X62349Y18861D01*
G01X62363Y18830D01*
G01X62378Y18800D01*
G01X62396Y18771D01*
G01X62415Y18743D01*
G01X62436Y18717D01*
G01X62458Y18691D01*
G01X62482Y18667D01*
G01X62507Y18645D01*
G01X62534Y18624D01*
G01X62561Y18605D01*
G01X62590Y18587D01*
G01X62620Y18571D01*
G01X62651Y18558D01*
G01X62651Y19282D01*
G37*
G36*
G01X61839Y21269D02*
G01X61808Y21283D01*
G01X61808Y20558D01*
G01X62651Y20558D01*
G01X62651Y21283D01*
G01X62620Y21269D01*
G01X62590Y21254D01*
G01X62561Y21236D01*
G01X62534Y21217D01*
G01X62507Y21196D01*
G01X62482Y21173D01*
G01X62458Y21150D01*
G01X62436Y21124D01*
G01X62415Y21097D01*
G01X62396Y21070D01*
G01X62378Y21041D01*
G01X62363Y21011D01*
G01X62349Y20980D01*
G01X62337Y20948D01*
G01X62328Y20916D01*
G01X62323Y20902D01*
G01X62316Y20889D01*
G01X62307Y20877D01*
G01X62297Y20866D01*
G01X62285Y20857D01*
G01X62272Y20850D01*
G01X62259Y20845D01*
G01X62244Y20842D01*
G01X62230Y20841D01*
G01X62215Y20842D01*
G01X62200Y20845D01*
G01X62187Y20850D01*
G01X62174Y20857D01*
G01X62162Y20866D01*
G01X62152Y20877D01*
G01X62143Y20889D01*
G01X62136Y20902D01*
G01X62131Y20916D01*
G01X62122Y20948D01*
G01X62110Y20980D01*
G01X62096Y21011D01*
G01X62081Y21041D01*
G01X62063Y21070D01*
G01X62044Y21097D01*
G01X62023Y21124D01*
G01X62001Y21150D01*
G01X61977Y21173D01*
G01X61952Y21196D01*
G01X61925Y21217D01*
G01X61898Y21236D01*
G01X61869Y21254D01*
G01X61839Y21269D01*
G37*
G36*
G01X59299Y21269D02*
G01X59268Y21283D01*
G01X59268Y20558D01*
G01X60111Y20558D01*
G01X60111Y21283D01*
G01X60080Y21269D01*
G01X60050Y21254D01*
G01X60021Y21236D01*
G01X59994Y21217D01*
G01X59967Y21196D01*
G01X59942Y21173D01*
G01X59918Y21150D01*
G01X59896Y21124D01*
G01X59875Y21097D01*
G01X59856Y21070D01*
G01X59838Y21041D01*
G01X59823Y21011D01*
G01X59809Y20980D01*
G01X59797Y20948D01*
G01X59788Y20916D01*
G01X59783Y20902D01*
G01X59776Y20889D01*
G01X59767Y20877D01*
G01X59757Y20866D01*
G01X59745Y20857D01*
G01X59732Y20850D01*
G01X59719Y20845D01*
G01X59704Y20842D01*
G01X59690Y20841D01*
G01X59675Y20842D01*
G01X59660Y20845D01*
G01X59647Y20850D01*
G01X59634Y20857D01*
G01X59622Y20866D01*
G01X59612Y20877D01*
G01X59603Y20889D01*
G01X59596Y20902D01*
G01X59591Y20916D01*
G01X59582Y20948D01*
G01X59570Y20980D01*
G01X59556Y21011D01*
G01X59541Y21041D01*
G01X59523Y21070D01*
G01X59504Y21097D01*
G01X59483Y21124D01*
G01X59461Y21150D01*
G01X59437Y21173D01*
G01X59412Y21196D01*
G01X59385Y21217D01*
G01X59358Y21236D01*
G01X59329Y21254D01*
G01X59299Y21269D01*
G37*
G36*
G01X61381Y10183D02*
G01X60538Y10183D01*
G01X60538Y9458D01*
G01X60569Y9472D01*
G01X60599Y9487D01*
G01X60628Y9505D01*
G01X60655Y9524D01*
G01X60682Y9545D01*
G01X60707Y9568D01*
G01X60731Y9592D01*
G01X60753Y9617D01*
G01X60774Y9644D01*
G01X60793Y9671D01*
G01X60811Y9700D01*
G01X60826Y9730D01*
G01X60840Y9761D01*
G01X60852Y9793D01*
G01X60861Y9825D01*
G01X60866Y9839D01*
G01X60873Y9852D01*
G01X60882Y9864D01*
G01X60892Y9875D01*
G01X60904Y9884D01*
G01X60917Y9891D01*
G01X60930Y9896D01*
G01X60945Y9899D01*
G01X60960Y9900D01*
G01X60974Y9899D01*
G01X60989Y9896D01*
G01X61002Y9891D01*
G01X61015Y9884D01*
G01X61027Y9875D01*
G01X61037Y9864D01*
G01X61046Y9852D01*
G01X61053Y9839D01*
G01X61058Y9825D01*
G01X61067Y9793D01*
G01X61079Y9761D01*
G01X61093Y9730D01*
G01X61108Y9700D01*
G01X61126Y9671D01*
G01X61145Y9644D01*
G01X61166Y9617D01*
G01X61188Y9592D01*
G01X61212Y9568D01*
G01X61237Y9545D01*
G01X61264Y9524D01*
G01X61291Y9505D01*
G01X61320Y9487D01*
G01X61350Y9472D01*
G01X61381Y9458D01*
G01X61381Y10183D01*
G37*
G36*
G01X60569Y12170D02*
G01X60538Y12184D01*
G01X60538Y11459D01*
G01X61381Y11459D01*
G01X61381Y12184D01*
G01X61350Y12170D01*
G01X61320Y12154D01*
G01X61291Y12136D01*
G01X61264Y12117D01*
G01X61237Y12096D01*
G01X61212Y12074D01*
G01X61188Y12050D01*
G01X61166Y12024D01*
G01X61145Y11998D01*
G01X61126Y11970D01*
G01X61108Y11941D01*
G01X61093Y11911D01*
G01X61079Y11880D01*
G01X61067Y11848D01*
G01X61058Y11816D01*
G01X61053Y11802D01*
G01X61046Y11789D01*
G01X61037Y11777D01*
G01X61027Y11767D01*
G01X61015Y11758D01*
G01X61002Y11750D01*
G01X60989Y11745D01*
G01X60974Y11742D01*
G01X60960Y11741D01*
G01X60945Y11742D01*
G01X60930Y11745D01*
G01X60917Y11750D01*
G01X60904Y11758D01*
G01X60892Y11767D01*
G01X60882Y11777D01*
G01X60873Y11789D01*
G01X60866Y11802D01*
G01X60861Y11816D01*
G01X60852Y11848D01*
G01X60840Y11880D01*
G01X60826Y11911D01*
G01X60811Y11941D01*
G01X60793Y11970D01*
G01X60774Y11998D01*
G01X60753Y12024D01*
G01X60731Y12050D01*
G01X60707Y12074D01*
G01X60682Y12096D01*
G01X60655Y12117D01*
G01X60628Y12136D01*
G01X60599Y12154D01*
G01X60569Y12170D01*
G37*
G36*
G01X61381Y19282D02*
G01X60538Y19282D01*
G01X60538Y18558D01*
G01X60569Y18571D01*
G01X60599Y18587D01*
G01X60628Y18605D01*
G01X60655Y18624D01*
G01X60682Y18645D01*
G01X60707Y18667D01*
G01X60731Y18691D01*
G01X60753Y18717D01*
G01X60774Y18743D01*
G01X60793Y18771D01*
G01X60811Y18800D01*
G01X60826Y18830D01*
G01X60840Y18861D01*
G01X60852Y18893D01*
G01X60861Y18925D01*
G01X60866Y18939D01*
G01X60873Y18952D01*
G01X60882Y18964D01*
G01X60892Y18975D01*
G01X60904Y18983D01*
G01X60917Y18991D01*
G01X60930Y18996D01*
G01X60945Y18999D01*
G01X60960Y19000D01*
G01X60974Y18999D01*
G01X60989Y18996D01*
G01X61002Y18991D01*
G01X61015Y18983D01*
G01X61027Y18975D01*
G01X61037Y18964D01*
G01X61046Y18952D01*
G01X61053Y18939D01*
G01X61058Y18925D01*
G01X61067Y18893D01*
G01X61079Y18861D01*
G01X61093Y18830D01*
G01X61108Y18800D01*
G01X61126Y18771D01*
G01X61145Y18743D01*
G01X61166Y18717D01*
G01X61188Y18691D01*
G01X61212Y18667D01*
G01X61237Y18645D01*
G01X61264Y18624D01*
G01X61291Y18605D01*
G01X61320Y18587D01*
G01X61350Y18571D01*
G01X61381Y18558D01*
G01X61381Y19282D01*
G37*
G36*
G01X60569Y21269D02*
G01X60538Y21283D01*
G01X60538Y20558D01*
G01X61381Y20558D01*
G01X61381Y21283D01*
G01X61350Y21269D01*
G01X61320Y21254D01*
G01X61291Y21236D01*
G01X61264Y21217D01*
G01X61237Y21196D01*
G01X61212Y21173D01*
G01X61188Y21150D01*
G01X61166Y21124D01*
G01X61145Y21097D01*
G01X61126Y21070D01*
G01X61108Y21041D01*
G01X61093Y21011D01*
G01X61079Y20980D01*
G01X61067Y20948D01*
G01X61058Y20916D01*
G01X61053Y20902D01*
G01X61046Y20889D01*
G01X61037Y20877D01*
G01X61027Y20866D01*
G01X61015Y20857D01*
G01X61002Y20850D01*
G01X60989Y20845D01*
G01X60974Y20842D01*
G01X60960Y20841D01*
G01X60945Y20842D01*
G01X60930Y20845D01*
G01X60917Y20850D01*
G01X60904Y20857D01*
G01X60892Y20866D01*
G01X60882Y20877D01*
G01X60873Y20889D01*
G01X60866Y20902D01*
G01X60861Y20916D01*
G01X60852Y20948D01*
G01X60840Y20980D01*
G01X60826Y21011D01*
G01X60811Y21041D01*
G01X60793Y21070D01*
G01X60774Y21097D01*
G01X60753Y21124D01*
G01X60731Y21150D01*
G01X60707Y21173D01*
G01X60682Y21196D01*
G01X60655Y21217D01*
G01X60628Y21236D01*
G01X60599Y21254D01*
G01X60569Y21269D01*
G37*

%LPD*%
G54D10*
G01X37211Y76986D02*
G01X36596Y77601D01*
G01X35763Y77601D01*
G01X65405Y32707D02*
G01X65405Y34060D01*
G01X64516Y34949D01*
G01X34417Y80796D02*
G01X35031Y81411D01*
G01X35763Y81411D01*
G01X56515Y41807D02*
G01X56515Y43585D01*
G01X55118Y44982D01*
G01X41706Y45173D02*
G01X42152Y44728D01*
G01X52578Y44728D01*
G01X55245Y47395D01*
G01X55245Y54593D01*
G01X34417Y78891D02*
G01X35742Y78891D01*
G01X35763Y78871D01*
G01X41706Y30865D02*
G01X41686Y30885D01*
G01X39497Y30885D01*
G01X40259Y62635D02*
G01X40132Y62508D01*
G01X40132Y61492D01*
G01X40871Y60752D01*
G01X41706Y60752D01*
G01X56515Y19920D02*
G01X56515Y24789D01*
G01X51816Y29488D01*
G01X46355Y47649D02*
G01X46290Y47713D01*
G01X41706Y47713D01*
G01X44450Y36219D02*
G01X44450Y39902D01*
G01X45974Y41426D01*
G01X55245Y32707D02*
G01X54654Y33298D01*
G01X44577Y33298D01*
G01X41706Y30865D02*
G01X56007Y30885D01*
G01X56515Y31393D01*
G01X56515Y32706D01*
G01X41706Y64562D02*
G01X40662Y64562D01*
G01X39497Y63397D01*
G01X39497Y61365D01*
G01X43434Y57682D02*
G01X43434Y61492D01*
G01X42903Y62023D01*
G01X41706Y62023D01*
G01X40259Y32790D02*
G01X40873Y33405D01*
G01X41706Y33405D01*
G01X44577Y13486D02*
G01X44577Y23011D01*
G01X43180Y24408D01*
G01X56515Y10821D02*
G01X56388Y10694D01*
G01X56388Y7771D01*
G01X56007Y7390D01*
G01X52578Y7390D01*
G01X51943Y8025D01*
G01X51943Y10438D01*
G01X43561Y63270D02*
G01X41529Y63270D01*
G01X65405Y10821D02*
G01X65405Y13867D01*
G01X64389Y14883D01*
G01X44450Y50189D02*
G01X44385Y50253D01*
G01X41706Y50253D01*
G01X55245Y10821D02*
G01X53340Y12726D01*
G01X53340Y13486D01*
G01X40386Y31520D02*
G01X41000Y32135D01*
G01X41706Y32135D01*
G01X65405Y19920D02*
G01X65405Y21868D01*
G01X43434Y48919D02*
G01X43369Y48983D01*
G01X41706Y48983D01*
G01X66675Y19920D02*
G01X66675Y18312D01*
G01X64897Y16534D01*
G01X52070Y45490D02*
G01X51116Y46443D01*
G01X41706Y46443D01*
G01X66675Y41807D02*
G01X66675Y37489D01*
G01X50165Y43839D02*
G01X50100Y43903D01*
G01X41706Y43903D01*
G01X66675Y63693D02*
G01X66675Y60349D01*
G01X65786Y59460D01*
G01X65659Y59333D01*
G01X64135Y59333D01*
G01X43815Y27075D02*
G01X41706Y27055D01*
G01X49403Y29615D02*
G01X41706Y29595D01*
G01X65405Y41807D02*
G01X65532Y41680D01*
G01X65532Y35838D01*
G01X65405Y43585D02*
G01X65405Y41807D01*
G01X35763Y82681D02*
G01X34523Y82681D01*
G01X33655Y81812D01*
G01X32893Y81050D01*
G01X32893Y76478D01*
G01X49022Y42696D02*
G01X48959Y42633D01*
G01X41706Y42633D01*
G01X55245Y76480D02*
G01X49530Y70765D01*
G01X49530Y70636D01*
G01X37465Y43966D02*
G01X37402Y43903D01*
G01X35763Y43903D01*
G01X66675Y85579D02*
G01X66675Y82320D01*
G01X66167Y81812D01*
G01X65278Y81812D01*
G01X65405Y56412D02*
G01X65405Y54593D01*
G01X35763Y83951D02*
G01X34777Y83951D01*
G01X33782Y82955D01*
G01X46228Y28345D02*
G01X46207Y28325D01*
G01X41706Y28325D01*
G01X56515Y54593D02*
G01X56515Y47903D01*
G01X46228Y37235D01*
G01X56515Y57428D02*
G01X56515Y54593D01*
G01X35763Y85221D02*
G01X35783Y85241D01*
G01X37719Y85241D01*
G01X56515Y65937D02*
G01X56515Y63693D01*
G01X41706Y82681D02*
G01X42194Y82193D01*
G01X43053Y82193D01*
G01X65405Y60603D02*
G01X65405Y63693D01*
G01X46482Y70763D02*
G01X51181Y66064D01*
G01X41706Y83951D02*
G01X42565Y83951D01*
G01X43942Y82574D01*
G01X41706Y77601D02*
G01X51287Y77601D01*
G01X53340Y79653D01*
G01X53340Y79907D01*
G01X63500Y74065D02*
G01X65405Y75970D01*
G01X65405Y76480D01*
G01X41706Y80141D02*
G01X45740Y80141D01*
G01X47244Y78637D01*
G01X47625Y78256D01*
G01X50927Y78256D01*
G01X45212Y25805D02*
G01X41727Y25805D01*
G01X41706Y25785D01*
G01X56515Y76480D02*
G01X56515Y69874D01*
G01X44323Y57682D01*
G01X56515Y79272D02*
G01X56515Y76480D01*
G01X41706Y81411D02*
G01X45232Y81411D01*
G01X47498Y79145D01*
G01X50927Y79145D01*
G01X56515Y82574D02*
G01X56515Y85579D01*
G01X43180Y78891D02*
G01X43159Y78871D01*
G01X41706Y78871D01*
G01X65405Y83336D02*
G01X65405Y85579D01*
G01X35763Y27055D02*
G01X35742Y27075D01*
G01X34290Y27075D01*
G01X33782Y51459D02*
G01X33846Y51523D01*
G01X35763Y51523D01*
G01X34290Y49300D02*
G01X34606Y48983D01*
G01X35763Y48983D01*
G01X31369Y60476D02*
G01X31242Y60349D01*
G01X31242Y52348D01*
G01X33020Y50570D01*
G01X34036Y47649D02*
G01X34100Y47713D01*
G01X35763Y47713D01*
G01X35763Y45173D02*
G01X35698Y45109D01*
G01X34036Y45109D01*
G01X35763Y28325D02*
G01X35742Y28345D01*
G01X34290Y28345D01*
G01X32765Y26821D01*
G01X22860Y26821D01*
G01X33655Y30885D02*
G01X35763Y30865D01*
G01X24764Y30610D02*
G01X26013Y29361D01*
G01X28829Y29361D01*
G01X29845Y28345D01*
G01X32893Y28345D01*
G01X32766Y30885D02*
G01X32766Y32790D01*
G01X34650Y34675D01*
G01X35763Y34675D01*
G01X19685Y68985D02*
G01X23727Y73028D01*
G01X24764Y73028D01*
G01X33655Y32155D02*
G01X35742Y32155D01*
G01X35763Y32135D01*
G54D11*
G01X27305Y65409D02*
G01X28808Y63905D01*
G01X32639Y63905D01*
G01X33782Y62762D01*
G01X33782Y56666D01*
G01X34945Y55503D01*
G01X37735Y55503D01*
G01X27827Y65410D02*
G01X27305Y65410D01*
G01X35814Y50189D02*
G01X37345Y50189D01*
G01X37785Y50628D01*
G01X37785Y55439D01*
G54D12*
G01X55245Y41807D02*
G01X52428Y41807D01*
G01X47879Y37257D01*
G01X35763Y29595D02*
G01X38608Y29361D01*
G01X39734Y27325D01*
G01X39734Y22483D01*
G01X27305Y33152D02*
G01X30862Y29595D01*
G01X35763Y29595D01*
G54D11*
G01X64135Y63694D02*
G01X64135Y65409D01*
G01X65024Y66298D01*
G01X67945Y66298D01*
G01X70231Y8132D02*
G01X65151Y8132D01*
G01X64135Y9148D01*
G01X64135Y10821D01*
G01X80264Y8259D02*
G01X80381Y8376D01*
G01X82477Y8376D01*
G01X57785Y10821D02*
G01X57785Y7243D01*
G01X59563Y5465D01*
G01X73533Y5465D01*
G01X81544Y13476D01*
G01X82478Y13476D01*
G01X77597Y25404D02*
G01X77597Y21086D01*
G01X80527Y18155D01*
G01X82477Y18155D01*
G01X57785Y19920D02*
G01X57785Y22864D01*
G01X79375Y23499D02*
G01X79619Y23254D01*
G01X82477Y23254D01*
G01X64135Y19920D02*
G01X64135Y22356D01*
G01X65278Y23499D01*
G01X68072Y23499D01*
G01X57785Y85579D02*
G01X57785Y88142D01*
G01X63246Y92841D01*
G01X76454Y92841D01*
G01X77216Y92079D01*
G01X77216Y84459D01*
G01X80019Y81655D01*
G01X82477Y81655D01*
G01X77216Y29976D02*
G01X77860Y29331D01*
G01X82477Y29331D01*
G01X64135Y32707D02*
G01X64135Y30738D01*
G01X78613Y33024D02*
G01X80019Y34430D01*
G01X82477Y34430D01*
G01X57785Y32707D02*
G01X57785Y29595D01*
G01X78613Y40136D02*
G01X79384Y39364D01*
G01X82477Y39364D01*
G01X57785Y41807D02*
G01X57785Y43946D01*
G01X78740Y45597D02*
G01X79873Y44463D01*
G01X82477Y44463D01*
G01X64135Y41807D02*
G01X64135Y44581D01*
G01X66548Y46994D01*
G01X68072Y46994D01*
G01X77724Y52348D02*
G01X79659Y50413D01*
G01X82477Y50413D01*
G01X64135Y54593D02*
G01X64135Y52836D01*
G01X78740Y55503D02*
G01X82478Y55513D01*
G01X57785Y54593D02*
G01X57785Y51312D01*
G01X77597Y67822D02*
G01X77597Y62996D01*
G01X80146Y60446D01*
G01X82477Y60446D01*
G01X57785Y63693D02*
G01X57785Y66044D01*
G01X79883Y65536D02*
G01X79892Y65545D01*
G01X82477Y65545D01*
G01X80010Y71632D02*
G01X80146Y71495D01*
G01X82477Y71495D01*
G01X64135Y76480D02*
G01X64135Y79252D01*
G01X64897Y80014D01*
G01X69088Y80014D01*
G01X80137Y76585D02*
G01X80147Y76595D01*
G01X82478Y76595D01*
G01X57785Y76480D02*
G01X57785Y78871D01*
G01X79502Y90174D02*
G01X82477Y87198D01*
G01X82477Y86754D01*
G01X64135Y85579D02*
G01X64135Y87380D01*
G01X66802Y90047D01*
G01X66929Y90174D01*
G01X73279Y90174D01*
G01X67691Y9148D02*
G01X69342Y10799D01*
G01X69342Y11688D01*
G01X48542Y8640D02*
G01X54003Y3179D01*
G01X63881Y3179D01*
G01X66675Y3179D01*
G01X67691Y4195D01*
G01X67691Y4576D01*
G01X66675Y54593D02*
G01X69342Y51926D01*
G01X69342Y51680D01*
G01X61797Y70870D02*
G01X66675Y75747D01*
G01X66675Y76480D01*
G01X61797Y48581D02*
G01X66675Y53458D01*
G01X66675Y54593D01*
G01X66675Y31170D02*
G01X69342Y28503D01*
G01X69342Y28058D01*
G01X61797Y26293D02*
G01X66675Y31170D01*
G01X66675Y32707D01*
G01X66675Y76480D02*
G01X69342Y73813D01*
G01X69342Y11688D01*
G01X68475Y10821D01*
G01X66675Y10821D01*
G01X44958Y74807D02*
G01X43434Y76331D01*
G01X41706Y76331D01*
G01X41706Y67103D02*
G01X43604Y67103D01*
G01X44958Y68457D01*
G01X44958Y74807D01*
G01X20320Y33659D02*
G01X20320Y42041D01*
G01X20912Y42633D01*
G01X34078Y42633D01*
G01X24764Y22990D02*
G01X20320Y27434D01*
G01X20320Y29087D01*
G01X43053Y10164D02*
G01X44577Y8640D01*
G01X48542Y8640D01*
G01X43053Y17022D02*
G01X43053Y13466D01*
G01X37735Y22483D02*
G01X43053Y17165D01*
G01X43053Y17022D01*
G01X35763Y25785D02*
G01X37735Y23813D01*
G01X37735Y22483D01*
G01X27305Y22991D02*
G01X33274Y22991D01*
G01X35763Y25480D01*
G01X35763Y25785D01*
G01X24765Y22991D02*
G01X27305Y22991D01*
G01X35763Y33405D02*
G01X36703Y33405D01*
G01X37735Y34437D01*
G01X37735Y38485D01*
G01X35763Y42633D02*
G01X37735Y40661D01*
G01X37735Y38485D01*
G01X35763Y50253D02*
G01X33993Y50253D01*
G01X32893Y49153D01*
G01X32893Y43819D01*
G01X34078Y42633D01*
G01X35763Y42633D01*
G01X35763Y65832D02*
G01X37126Y65832D01*
G01X38481Y67187D01*
G01X27305Y65410D02*
G01X27727Y65832D01*
G01X35763Y65832D01*
G01X24765Y65409D02*
G01X27305Y65409D01*
G01X36056Y68372D02*
G01X37735Y70050D01*
G01X37735Y72140D01*
G01X38481Y67187D02*
G01X38565Y67102D01*
G01X41706Y67102D01*
G01X37761Y62022D02*
G01X40301Y59482D01*
G01X41706Y59482D01*
G01X35763Y68372D02*
G01X37295Y68372D01*
G01X38481Y67187D01*
G01X38481Y62742D01*
G01X37761Y62022D01*
G01X35763Y62022D01*
G01X82478Y8375D02*
G01X91186Y8378D01*
G01X82477Y13475D02*
G01X82574Y13378D01*
G01X91186Y13378D01*
G01X82477Y18155D02*
G01X82701Y18378D01*
G01X91186Y18378D01*
G01X82477Y23254D02*
G01X82601Y23378D01*
G01X91186Y23378D01*
G01X82477Y29331D02*
G01X82607Y29460D01*
G01X91186Y29460D01*
G01X82477Y34430D02*
G01X82507Y34460D01*
G01X91186Y34460D01*
G01X82477Y39364D02*
G01X82574Y39460D01*
G01X91186Y39460D01*
G01X82478Y44464D02*
G01X91186Y44461D01*
G01X82477Y50413D02*
G01X82607Y50542D01*
G01X91186Y50542D01*
G01X82477Y55512D02*
G01X82507Y55542D01*
G01X91186Y55542D01*
G01X82477Y60446D02*
G01X82574Y60542D01*
G01X91186Y60542D01*
G01X82478Y65546D02*
G01X91186Y65543D01*
G01X82477Y71495D02*
G01X82607Y71624D01*
G01X91186Y71624D01*
G01X82477Y76594D02*
G01X82507Y76624D01*
G01X91186Y76624D01*
G01X82477Y81655D02*
G01X82508Y81624D01*
G01X91186Y81624D01*
G01X82477Y86754D02*
G01X82607Y86624D01*
G01X91186Y86624D01*
G54D12*
G01X47879Y59143D02*
G01X52429Y63693D01*
G01X55245Y63693D01*
G01X47879Y15371D02*
G01X52428Y19920D01*
G01X55245Y19920D01*
G01X55244Y89920D02*
G01X55245Y85579D01*
G01X71120Y88015D02*
G01X72380Y86754D01*
G01X73477Y86754D01*
G01X73477Y76594D02*
G01X71288Y78784D01*
G01X70866Y78784D01*
G01X73477Y65545D02*
G01X70866Y68157D01*
G01X70866Y68286D01*
G01X73477Y55512D02*
G01X70866Y58124D01*
G01X70866Y58227D01*
G01X73477Y44463D02*
G01X70866Y47075D01*
G01X70866Y47254D01*
G01X73477Y34430D02*
G01X70866Y37042D01*
G01X70866Y37196D01*
G01X73477Y23254D02*
G01X70866Y25866D01*
G01X70866Y26156D01*
G01X73477Y86754D02*
G01X70866Y84143D01*
G01X70866Y16260D01*
G01X73477Y13648D01*
G01X73477Y13475D01*
G01X73477Y60445D02*
G01X76073Y57852D01*
G01X73477Y71495D02*
G01X76073Y68900D01*
G01X76073Y68725D01*
G01X73477Y81655D02*
G01X75790Y79342D01*
G01X76073Y79342D01*
G01X61595Y85579D02*
G01X61595Y88904D01*
G01X64516Y91825D01*
G01X74930Y91825D01*
G01X76073Y90682D01*
G01X76073Y10971D01*
G01X73477Y8376D01*
G01X73477Y8376D02*
G01X71836Y6735D01*
G01X62865Y6735D01*
G01X60325Y9275D01*
G01X60325Y10821D01*
G01X35433Y11815D02*
G01X20574Y11815D01*
G01X18288Y14101D01*
G01X18288Y29595D01*
G01X21843Y33150D01*
G01X24765Y33150D01*
G01X62865Y76480D02*
G01X62865Y85579D01*
G01X61595Y76480D02*
G01X61595Y85234D01*
G01X60325Y76480D02*
G01X60325Y85579D01*
G01X59055Y85579D02*
G01X59055Y76480D01*
G01X35763Y46443D02*
G01X36711Y46443D01*
G01X39624Y49356D01*
G01X59797Y26293D02*
G01X59055Y25550D01*
G01X59055Y19920D01*
G01X59797Y26293D02*
G01X59055Y27035D01*
G01X59055Y32707D01*
G01X50419Y15371D02*
G01X50546Y15244D01*
G01X58674Y15244D01*
G01X60325Y13593D01*
G01X60325Y10821D01*
G01X50542Y8640D02*
G01X50419Y8763D01*
G01X50419Y15371D01*
G01X35433Y11815D02*
G01X35560Y11942D01*
G01X48387Y11942D01*
G01X50419Y13974D01*
G01X50419Y15371D01*
G01X41706Y34675D02*
G01X40386Y34675D01*
G01X37465Y31754D01*
G01X37465Y29595D01*
G01X24765Y33151D02*
G01X27305Y33151D01*
G01X59797Y48581D02*
G01X59055Y49324D01*
G01X59055Y54593D01*
G01X59797Y48581D02*
G01X59055Y47838D01*
G01X59055Y41807D01*
G01X50419Y37257D02*
G01X50715Y36961D01*
G01X58801Y36961D01*
G01X60325Y35437D01*
G01X60325Y32707D01*
G01X41706Y34675D02*
G01X49530Y34675D01*
G01X50419Y35564D01*
G01X50419Y37257D01*
G01X39624Y38596D02*
G01X41706Y36513D01*
G01X41706Y34675D01*
G01X39734Y38485D02*
G01X39624Y38596D01*
G01X39624Y52582D01*
G01X39734Y55503D02*
G01X39624Y55392D01*
G01X39624Y52582D01*
G01X40682Y51523D01*
G01X41706Y51523D01*
G01X50419Y59143D02*
G01X50461Y59186D01*
G01X59182Y59186D01*
G01X61595Y56773D01*
G01X61595Y54593D01*
G01X59797Y70870D02*
G01X59055Y70127D01*
G01X59055Y63693D01*
G01X39734Y55503D02*
G01X48768Y55503D01*
G01X50419Y57154D01*
G01X50419Y59143D01*
G01X41706Y68372D02*
G01X39734Y70344D01*
G01X39734Y72140D01*
G01X38100Y74934D02*
G01X39116Y75950D01*
G01X39116Y83443D01*
G01X40894Y85221D01*
G01X41706Y85221D01*
G01X27305Y75570D02*
G01X27941Y74934D01*
G01X38100Y74934D01*
G01X39734Y73299D01*
G01X39734Y72140D01*
G01X24765Y75569D02*
G01X27305Y75569D01*
G01X41706Y85221D02*
G01X42722Y86237D01*
G01X48006Y86237D01*
G01X50419Y83824D01*
G01X50419Y81030D01*
G01X50419Y81030D02*
G01X59182Y81030D01*
G01X61595Y83443D01*
G01X61595Y85579D01*
G01X73477Y50413D02*
G01X75867Y48024D01*
G01X76073Y48024D01*
G01X73477Y39364D02*
G01X75968Y36873D01*
G01X76073Y36873D01*
G01X73477Y29330D02*
G01X76073Y26737D01*
G01X73477Y18155D02*
G01X76019Y15613D01*
G01X76073Y15613D01*
G01X59797Y70870D02*
G01X59055Y71612D01*
G01X59055Y76480D01*
G54D13*
G01X36363Y85221D02*
G01X35163Y85221D01*
G01X36363Y83951D02*
G01X35163Y83951D01*
G01X36363Y82681D02*
G01X35163Y82681D01*
G01X36363Y81411D02*
G01X35163Y81411D01*
G01X36363Y80141D02*
G01X35163Y80141D01*
G01X36363Y78871D02*
G01X35163Y78871D01*
G01X36363Y77601D02*
G01X35163Y77601D01*
G01X36363Y76331D02*
G01X35163Y76331D01*
G01X42306Y85221D02*
G01X41106Y85221D01*
G01X42306Y83951D02*
G01X41106Y83951D01*
G01X42306Y82681D02*
G01X41106Y82681D01*
G01X42306Y81411D02*
G01X41106Y81411D01*
G01X42306Y80141D02*
G01X41106Y80141D01*
G01X42306Y78871D02*
G01X41106Y78871D01*
G01X42306Y77601D02*
G01X41106Y77601D01*
G01X42306Y76331D02*
G01X41106Y76331D01*
G01X36363Y68372D02*
G01X35163Y68372D01*
G01X36363Y67102D02*
G01X35163Y67102D01*
G01X36363Y65832D02*
G01X35163Y65832D01*
G01X36363Y64562D02*
G01X35163Y64562D01*
G01X36363Y63292D02*
G01X35163Y63292D01*
G01X36363Y62022D02*
G01X35163Y62022D01*
G01X36363Y60752D02*
G01X35163Y60752D01*
G01X36363Y59482D02*
G01X35163Y59482D01*
G01X42306Y68372D02*
G01X41106Y68372D01*
G01X42306Y67102D02*
G01X41106Y67102D01*
G01X42306Y65832D02*
G01X41106Y65832D01*
G01X42306Y64562D02*
G01X41106Y64562D01*
G01X42306Y63292D02*
G01X41106Y63292D01*
G01X42306Y62022D02*
G01X41106Y62022D01*
G01X42306Y60752D02*
G01X41106Y60752D01*
G01X42306Y59482D02*
G01X41106Y59482D01*
G01X36363Y51523D02*
G01X35163Y51523D01*
G01X36363Y50253D02*
G01X35163Y50253D01*
G01X36363Y48983D02*
G01X35163Y48983D01*
G01X36363Y47713D02*
G01X35163Y47713D01*
G01X36363Y46443D02*
G01X35163Y46443D01*
G01X36363Y45173D02*
G01X35163Y45173D01*
G01X36363Y43903D02*
G01X35163Y43903D01*
G01X36363Y42633D02*
G01X35163Y42633D01*
G01X42306Y51523D02*
G01X41106Y51523D01*
G01X42306Y50253D02*
G01X41106Y50253D01*
G01X42306Y48983D02*
G01X41106Y48983D01*
G01X42306Y47713D02*
G01X41106Y47713D01*
G01X42306Y46443D02*
G01X41106Y46443D01*
G01X42306Y45173D02*
G01X41106Y45173D01*
G01X42306Y43903D02*
G01X41106Y43903D01*
G01X42306Y42633D02*
G01X41106Y42633D01*
G01X36363Y34675D02*
G01X35163Y34675D01*
G01X36363Y33405D02*
G01X35163Y33405D01*
G01X36363Y32135D02*
G01X35163Y32135D01*
G01X36363Y30865D02*
G01X35163Y30865D01*
G01X36363Y29595D02*
G01X35163Y29595D01*
G01X36363Y28325D02*
G01X35163Y28325D01*
G01X36363Y27055D02*
G01X35163Y27055D01*
G01X36363Y25785D02*
G01X35163Y25785D01*
G01X42306Y34675D02*
G01X41106Y34675D01*
G01X42306Y33405D02*
G01X41106Y33405D01*
G01X42306Y32135D02*
G01X41106Y32135D01*
G01X42306Y30865D02*
G01X41106Y30865D01*
G01X42306Y29595D02*
G01X41106Y29595D01*
G01X42306Y28325D02*
G01X41106Y28325D01*
G01X42306Y27055D02*
G01X41106Y27055D01*
G01X42306Y25785D02*
G01X41106Y25785D01*
G01X66675Y42657D02*
G01X66675Y40957D01*
G01X65405Y42657D02*
G01X65405Y40957D01*
G01X64135Y42657D02*
G01X64135Y40957D01*
G01X62865Y42657D02*
G01X62865Y40957D01*
G01X61595Y42657D02*
G01X61595Y40957D01*
G01X60325Y42657D02*
G01X60325Y40957D01*
G01X59055Y42657D02*
G01X59055Y40957D01*
G01X57785Y42657D02*
G01X57785Y40957D01*
G01X56515Y42657D02*
G01X56515Y40957D01*
G01X55245Y42657D02*
G01X55245Y40957D01*
G01X66675Y33557D02*
G01X66675Y31857D01*
G01X65405Y33557D02*
G01X65405Y31857D01*
G01X64135Y33557D02*
G01X64135Y31857D01*
G01X62865Y33557D02*
G01X62865Y31857D01*
G01X61595Y33557D02*
G01X61595Y31857D01*
G01X60325Y33557D02*
G01X60325Y31857D01*
G01X59055Y33557D02*
G01X59055Y31857D01*
G01X57785Y33557D02*
G01X57785Y31857D01*
G01X56515Y33557D02*
G01X56515Y31857D01*
G01X55245Y33557D02*
G01X55245Y31857D01*
G01X66675Y20770D02*
G01X66675Y19070D01*
G01X65405Y20770D02*
G01X65405Y19070D01*
G01X64135Y20770D02*
G01X64135Y19070D01*
G01X62865Y20770D02*
G01X62865Y19070D01*
G01X61595Y20770D02*
G01X61595Y19070D01*
G01X60325Y20770D02*
G01X60325Y19070D01*
G01X59055Y20770D02*
G01X59055Y19070D01*
G01X57785Y20770D02*
G01X57785Y19070D01*
G01X56515Y20770D02*
G01X56515Y19070D01*
G01X55245Y20770D02*
G01X55245Y19070D01*
G01X66675Y11671D02*
G01X66675Y9971D01*
G01X65405Y11671D02*
G01X65405Y9971D01*
G01X64135Y11671D02*
G01X64135Y9971D01*
G01X62865Y11671D02*
G01X62865Y9971D01*
G01X61595Y11671D02*
G01X61595Y9971D01*
G01X60325Y11671D02*
G01X60325Y9971D01*
G01X59055Y11671D02*
G01X59055Y9971D01*
G01X57785Y11671D02*
G01X57785Y9971D01*
G01X56515Y11671D02*
G01X56515Y9971D01*
G01X55245Y11671D02*
G01X55245Y9971D01*
G01X66675Y64543D02*
G01X66675Y62843D01*
G01X65405Y64543D02*
G01X65405Y62843D01*
G01X64135Y64543D02*
G01X64135Y62843D01*
G01X62865Y64543D02*
G01X62865Y62843D01*
G01X61595Y64543D02*
G01X61595Y62843D01*
G01X60325Y64543D02*
G01X60325Y62843D01*
G01X59055Y64543D02*
G01X59055Y62843D01*
G01X57785Y64543D02*
G01X57785Y62843D01*
G01X56515Y64543D02*
G01X56515Y62843D01*
G01X55245Y64543D02*
G01X55245Y62843D01*
G01X66675Y55443D02*
G01X66675Y53743D01*
G01X65405Y55443D02*
G01X65405Y53743D01*
G01X64135Y55443D02*
G01X64135Y53743D01*
G01X62865Y55443D02*
G01X62865Y53743D01*
G01X61595Y55443D02*
G01X61595Y53743D01*
G01X60325Y55443D02*
G01X60325Y53743D01*
G01X59055Y55443D02*
G01X59055Y53743D01*
G01X57785Y55443D02*
G01X57785Y53743D01*
G01X56515Y55443D02*
G01X56515Y53743D01*
G01X55245Y55443D02*
G01X55245Y53743D01*
G01X66675Y86429D02*
G01X66675Y84729D01*
G01X65405Y86429D02*
G01X65405Y84729D01*
G01X64135Y86429D02*
G01X64135Y84729D01*
G01X62865Y86429D02*
G01X62865Y84729D01*
G01X61595Y86429D02*
G01X61595Y84729D01*
G01X60325Y86429D02*
G01X60325Y84729D01*
G01X59055Y86429D02*
G01X59055Y84729D01*
G01X57785Y86429D02*
G01X57785Y84729D01*
G01X56515Y86429D02*
G01X56515Y84729D01*
G01X55245Y86429D02*
G01X55245Y84729D01*
G01X66675Y77330D02*
G01X66675Y75630D01*
G01X65405Y77330D02*
G01X65405Y75630D01*
G01X64135Y77330D02*
G01X64135Y75630D01*
G01X62865Y77330D02*
G01X62865Y75630D01*
G01X61595Y77330D02*
G01X61595Y75630D01*
G01X60325Y77330D02*
G01X60325Y75630D01*
G01X59055Y77330D02*
G01X59055Y75630D01*
G01X57785Y77330D02*
G01X57785Y75630D01*
G01X56515Y77330D02*
G01X56515Y75630D01*
G01X55245Y77330D02*
G01X55245Y75630D01*
G54D15*
G01X39734Y72140D03*
G01X37735Y72140D03*
G36*
G01X59297Y49356D02*
G01X60297Y49356D01*
G01X60297Y47806D01*
G01X59297Y47806D01*
G01X59297Y49356D01*
G37*
G36*
G01X61297Y49356D02*
G01X62297Y49356D01*
G01X62297Y47806D01*
G01X61297Y47806D01*
G01X61297Y49356D01*
G37*
G36*
G01X59297Y27068D02*
G01X60297Y27068D01*
G01X60297Y25518D01*
G01X59297Y25518D01*
G01X59297Y27068D01*
G37*
G36*
G01X61297Y27068D02*
G01X62297Y27068D01*
G01X62297Y25518D01*
G01X61297Y25518D01*
G01X61297Y27068D01*
G37*
G01X50542Y8640D03*
G01X48542Y8640D03*
G01X39734Y22483D03*
G01X37735Y22483D03*
G01X39734Y55503D03*
G01X37735Y55503D03*
G01X39734Y38485D03*
G01X37735Y38485D03*
G36*
G01X59297Y71645D02*
G01X60297Y71645D01*
G01X60297Y70095D01*
G01X59297Y70095D01*
G01X59297Y71645D01*
G37*
G36*
G01X61297Y71645D02*
G01X62297Y71645D01*
G01X62297Y70095D01*
G01X61297Y70095D01*
G01X61297Y71645D01*
G37*
G54D16*
G01X82477Y18155D03*
G01X82477Y23254D03*
G01X73477Y23254D03*
G01X73477Y18155D03*
G01X82477Y39364D03*
G01X82477Y44463D03*
G01X73477Y44463D03*
G01X73477Y39364D03*
G01X82477Y71495D03*
G01X82477Y76594D03*
G01X73477Y76594D03*
G01X73477Y71495D03*
G01X82477Y8376D03*
G01X82477Y13475D03*
G01X73477Y13475D03*
G01X73477Y8376D03*
G01X82477Y60446D03*
G01X82477Y65545D03*
G01X73477Y65545D03*
G01X73477Y60446D03*
G01X82477Y29331D03*
G01X82477Y34430D03*
G01X73477Y34430D03*
G01X73477Y29331D03*
G01X82477Y50413D03*
G01X82477Y55512D03*
G01X73477Y55512D03*
G01X73477Y50413D03*
G01X82477Y81655D03*
G01X82477Y86754D03*
G01X73477Y86754D03*
G01X73477Y81655D03*
G54D17*
G01X47879Y59143D03*
G01X50419Y59143D03*
G01X47879Y81030D03*
G01X50419Y81030D03*
G01X47879Y15371D03*
G01X50419Y15371D03*
G01X47879Y37257D03*
G01X50419Y37257D03*
G54D18*
G01X91186Y86624D03*
G01X91186Y81624D03*
G01X91186Y76624D03*
G01X91186Y71624D03*
G01X91186Y23378D03*
G01X91186Y18378D03*
G01X91186Y13378D03*
G01X91186Y8378D03*
G01X91186Y44460D03*
G01X91186Y39460D03*
G01X91186Y34460D03*
G01X91186Y29460D03*
G01X91186Y65542D03*
G01X91186Y60542D03*
G01X91186Y55542D03*
G01X91186Y50542D03*
G54D19*
G01X24765Y33150D03*
G01X27305Y33152D03*
G01X24764Y30610D03*
G01X27305Y30612D03*
G01X24764Y28070D03*
G01X27304Y28070D03*
G01X24764Y25530D03*
G01X27305Y25532D03*
G01X24764Y22990D03*
G01X27305Y22992D03*
G01X24764Y20450D03*
G54D20*
G01X27303Y20451D03*
G54D19*
G01X24765Y75568D03*
G01X27305Y75570D03*
G01X24764Y73028D03*
G01X27305Y73030D03*
G01X24764Y70488D03*
G01X27304Y70488D03*
G01X24764Y67948D03*
G01X27305Y67950D03*
G01X24764Y65408D03*
G01X27305Y65410D03*
G01X24764Y62868D03*
G54D20*
G01X27303Y62869D03*
G54D21*
G01X35433Y16895D03*
G01X35433Y11815D03*
G54D14*
G01X71120Y88015D03*
G01X55245Y89920D03*
G01X43053Y13466D03*
G01X43053Y10164D03*
G01X20320Y29087D03*
G01X20320Y33659D03*
G01X67691Y4576D03*
G01X67691Y9148D03*
G01X73279Y90174D03*
G01X79502Y90174D03*
G01X57785Y78871D03*
G01X80137Y76585D03*
G01X69088Y80014D03*
G01X80010Y71632D03*
G01X67945Y66298D03*
G01X79883Y65536D03*
G01X57785Y66044D03*
G01X77597Y67822D03*
G01X57785Y51312D03*
G01X78740Y55503D03*
G01X64135Y52836D03*
G01X77724Y52348D03*
G01X68072Y46994D03*
G01X78740Y45597D03*
G01X57785Y43946D03*
G01X78613Y40136D03*
G01X57785Y29595D03*
G01X78613Y33024D03*
G01X64135Y30738D03*
G01X77216Y29976D03*
G01X68072Y23499D03*
G01X79375Y23499D03*
G01X57785Y22864D03*
G01X77597Y25404D03*
G01X70231Y8132D03*
G01X80264Y8259D03*
G54D13*
G01X33655Y32155D03*
G01X19685Y68985D03*
G01X32766Y30885D03*
G01X32893Y28345D03*
G01X33655Y30885D03*
G01X22860Y26821D03*
G01X22733Y58952D03*
G01X34036Y45109D03*
G01X29464Y58698D03*
G01X34036Y47649D03*
G01X30353Y57936D03*
G01X31369Y60476D03*
G01X33020Y50570D03*
G01X34290Y49300D03*
G01X29210Y33806D03*
G01X29845Y47522D03*
G01X33782Y51459D03*
G01X34290Y27075D03*
G01X65405Y83336D03*
G01X43180Y78891D03*
G01X53340Y79907D03*
G01X56515Y82574D03*
G01X50927Y79145D03*
G01X56515Y79272D03*
G01X44323Y57682D03*
G01X45212Y25805D03*
G01X50927Y78256D03*
G01X63500Y74065D03*
G01X43942Y82574D03*
G01X46482Y70763D03*
G01X51181Y66064D03*
G01X65405Y60603D03*
G01X43053Y82193D03*
G01X46482Y66699D03*
G01X56515Y65937D03*
G01X37719Y85241D03*
G01X56515Y57428D03*
G01X46228Y37235D03*
G01X46228Y28345D03*
G01X33782Y82955D03*
G01X65405Y56412D03*
G01X65278Y81812D03*
G01X42799Y53237D03*
G01X37465Y43966D03*
G01X49530Y70636D03*
G01X49022Y42696D03*
G01X32893Y76478D03*
G01X65405Y43585D03*
G01X65532Y35838D03*
G01X49403Y29615D03*
G01X43815Y27075D03*
G01X64135Y59333D03*
G01X50165Y43839D03*
G01X66675Y37489D03*
G01X52070Y45490D03*
G01X64897Y16534D03*
G01X49403Y27329D03*
G01X43434Y48919D03*
G01X65405Y21868D03*
G01X40386Y31520D03*
G01X53340Y13486D03*
G01X49403Y24789D03*
G01X44450Y45363D03*
G01X44450Y50189D03*
G01X64389Y14883D03*
G01X52705Y52602D03*
G01X43561Y63270D03*
G01X43561Y63270D03*
G01X51943Y10438D03*
G01X44577Y13486D03*
G01X43180Y24408D03*
G01X40259Y32790D03*
G01X43434Y57682D03*
G01X39497Y61365D03*
G01X44577Y33298D03*
G01X44450Y36219D03*
G01X45974Y41426D03*
G01X46355Y47649D03*
G01X51816Y29488D03*
G01X46863Y48411D03*
G01X40259Y62635D03*
G01X39497Y30885D03*
G01X35560Y57555D03*
G01X35560Y57555D03*
G01X34417Y78891D03*
G01X55118Y44982D03*
G01X32131Y79018D03*
G01X34417Y80796D03*
G01X64516Y34949D03*
G01X52451Y61746D03*
G01X37211Y76986D03*
M00*
M02*
