G04 Layer: BottomSilkLayer*
G04 EasyEDA v6.4.7, 2020-11-03T11:19:35+01:00*
G04 ee31f35cb8c4481c9aeb6db220abaf82,9bd7e35f881f4a88a1d5770e7942d247,10*
G04 Gerber Generator version 0.2*
G04 Scale: 100 percent, Rotated: No, Reflected: No *
G04 Dimensions in millimeters *
G04 leading zeros omitted , absolute positions ,3 integer and 3 decimal *
%FSLAX33Y33*%
%MOMM*%
G90*
D02*

%ADD26C,0.203200*%
%ADD30C,0.124993*%

%LPD*%

%LPD*%
G36*
G01X104856Y50595D02*
G01X104801Y50595D01*
G01X104746Y50594D01*
G01X104692Y50593D01*
G01X104582Y50589D01*
G01X104528Y50586D01*
G01X104420Y50578D01*
G01X104367Y50574D01*
G01X104260Y50563D01*
G01X104208Y50557D01*
G01X104102Y50543D01*
G01X103998Y50527D01*
G01X103946Y50518D01*
G01X103793Y50488D01*
G01X103742Y50477D01*
G01X103641Y50454D01*
G01X103591Y50441D01*
G01X103541Y50429D01*
G01X103491Y50415D01*
G01X103393Y50387D01*
G01X103295Y50356D01*
G01X103247Y50341D01*
G01X103199Y50324D01*
G01X103151Y50308D01*
G01X103104Y50290D01*
G01X103056Y50273D01*
G01X102962Y50236D01*
G01X102916Y50217D01*
G01X102778Y50157D01*
G01X102732Y50136D01*
G01X102687Y50115D01*
G01X102598Y50071D01*
G01X102509Y50025D01*
G01X102466Y50002D01*
G01X102422Y49978D01*
G01X102379Y49954D01*
G01X102337Y49929D01*
G01X102294Y49904D01*
G01X102252Y49878D01*
G01X102210Y49853D01*
G01X102168Y49826D01*
G01X102127Y49800D01*
G01X102086Y49773D01*
G01X102004Y49717D01*
G01X101964Y49689D01*
G01X101925Y49661D01*
G01X101885Y49632D01*
G01X101807Y49573D01*
G01X101768Y49543D01*
G01X101654Y49450D01*
G01X101617Y49419D01*
G01X101580Y49387D01*
G01X101544Y49355D01*
G01X101508Y49322D01*
G01X101471Y49289D01*
G01X101401Y49223D01*
G01X101331Y49155D01*
G01X101263Y49085D01*
G01X101230Y49050D01*
G01X101196Y49015D01*
G01X101099Y48907D01*
G01X101067Y48870D01*
G01X101005Y48796D01*
G01X100974Y48758D01*
G01X100944Y48721D01*
G01X100914Y48683D01*
G01X100884Y48644D01*
G01X100826Y48567D01*
G01X100797Y48528D01*
G01X100741Y48448D01*
G01X100687Y48368D01*
G01X100661Y48328D01*
G01X100634Y48287D01*
G01X100608Y48246D01*
G01X100558Y48164D01*
G01X100534Y48122D01*
G01X100509Y48080D01*
G01X100485Y48038D01*
G01X100462Y47996D01*
G01X100439Y47953D01*
G01X100394Y47868D01*
G01X100372Y47825D01*
G01X100351Y47781D01*
G01X100330Y47738D01*
G01X100309Y47694D01*
G01X100269Y47606D01*
G01X100250Y47561D01*
G01X100230Y47517D01*
G01X100194Y47427D01*
G01X100177Y47382D01*
G01X100159Y47337D01*
G01X100142Y47291D01*
G01X100126Y47246D01*
G01X100094Y47154D01*
G01X100064Y47062D01*
G01X100050Y47015D01*
G01X100036Y46969D01*
G01X100023Y46922D01*
G01X99998Y46828D01*
G01X99986Y46781D01*
G01X99963Y46687D01*
G01X99953Y46639D01*
G01X99942Y46592D01*
G01X99923Y46496D01*
G01X99914Y46448D01*
G01X99898Y46352D01*
G01X99884Y46256D01*
G01X99877Y46207D01*
G01X99871Y46159D01*
G01X99861Y46061D01*
G01X99856Y46013D01*
G01X99848Y45915D01*
G01X99845Y45866D01*
G01X99843Y45817D01*
G01X99840Y45768D01*
G01X99839Y45719D01*
G01X99837Y45620D01*
G01X99837Y45522D01*
G01X99838Y45472D01*
G01X99841Y45374D01*
G01X99843Y45324D01*
G01X99846Y45274D01*
G01X99849Y45225D01*
G01X99854Y45175D01*
G01X99858Y45126D01*
G01X99868Y45026D01*
G01X99874Y44977D01*
G01X99880Y44927D01*
G01X99887Y44877D01*
G01X99895Y44828D01*
G01X99911Y44728D01*
G01X99920Y44679D01*
G01X99930Y44629D01*
G01X99940Y44580D01*
G01X99962Y44480D01*
G01X99973Y44431D01*
G01X99986Y44381D01*
G01X99998Y44332D01*
G01X100011Y44282D01*
G01X100040Y44184D01*
G01X100070Y44085D01*
G01X100087Y44036D01*
G01X100103Y43987D01*
G01X100121Y43938D01*
G01X100138Y43889D01*
G01X100195Y43742D01*
G01X100215Y43694D01*
G01X100236Y43645D01*
G01X100257Y43597D01*
G01X100278Y43548D01*
G01X100301Y43500D01*
G01X100323Y43451D01*
G01X100371Y43355D01*
G01X100421Y43259D01*
G01X100473Y43164D01*
G01X100500Y43116D01*
G01X100528Y43069D01*
G01X100556Y43021D01*
G01X100585Y42974D01*
G01X100613Y42928D01*
G01X100643Y42880D01*
G01X100674Y42834D01*
G01X100705Y42787D01*
G01X100737Y42741D01*
G01X100769Y42694D01*
G01X100802Y42648D01*
G01X100870Y42556D01*
G01X100905Y42510D01*
G01X100940Y42465D01*
G01X100976Y42420D01*
G01X101013Y42374D01*
G01X101050Y42330D01*
G01X101125Y42242D01*
G01X101164Y42200D01*
G01X101202Y42157D01*
G01X101280Y42075D01*
G01X101320Y42034D01*
G01X101360Y41994D01*
G01X101441Y41916D01*
G01X101482Y41877D01*
G01X101523Y41840D01*
G01X101607Y41766D01*
G01X101649Y41730D01*
G01X101735Y41660D01*
G01X101821Y41592D01*
G01X101909Y41526D01*
G01X101954Y41494D01*
G01X101999Y41463D01*
G01X102043Y41432D01*
G01X102134Y41372D01*
G01X102180Y41343D01*
G01X102272Y41286D01*
G01X102318Y41259D01*
G01X102365Y41232D01*
G01X102412Y41206D01*
G01X102460Y41180D01*
G01X102507Y41155D01*
G01X102555Y41130D01*
G01X102650Y41082D01*
G01X102698Y41060D01*
G01X102747Y41037D01*
G01X102795Y41015D01*
G01X102844Y40994D01*
G01X102943Y40953D01*
G01X103041Y40915D01*
G01X103091Y40896D01*
G01X103141Y40878D01*
G01X103241Y40844D01*
G01X103291Y40828D01*
G01X103342Y40812D01*
G01X103392Y40797D01*
G01X103443Y40782D01*
G01X103545Y40755D01*
G01X103647Y40729D01*
G01X103699Y40718D01*
G01X103801Y40695D01*
G01X103853Y40685D01*
G01X103904Y40676D01*
G01X103956Y40666D01*
G01X104060Y40650D01*
G01X104112Y40643D01*
G01X104164Y40635D01*
G01X104268Y40623D01*
G01X104320Y40618D01*
G01X104425Y40609D01*
G01X104477Y40605D01*
G01X104530Y40602D01*
G01X104634Y40598D01*
G01X104687Y40596D01*
G01X104739Y40595D01*
G01X104896Y40595D01*
G01X105001Y40598D01*
G01X105106Y40603D01*
G01X105210Y40611D01*
G01X105263Y40615D01*
G01X105367Y40625D01*
G01X105419Y40631D01*
G01X105523Y40645D01*
G01X105626Y40660D01*
G01X105678Y40669D01*
G01X105730Y40679D01*
G01X105781Y40688D01*
G01X105833Y40698D01*
G01X105884Y40709D01*
G01X105936Y40720D01*
G01X105987Y40732D01*
G01X106089Y40757D01*
G01X106139Y40771D01*
G01X106190Y40784D01*
G01X106241Y40799D01*
G01X106291Y40814D01*
G01X106342Y40829D01*
G01X106391Y40845D01*
G01X106442Y40862D01*
G01X106492Y40879D01*
G01X106541Y40897D01*
G01X106591Y40914D01*
G01X106689Y40952D01*
G01X106738Y40972D01*
G01X106835Y41012D01*
G01X106884Y41034D01*
G01X107028Y41100D01*
G01X107075Y41124D01*
G01X107123Y41147D01*
G01X107170Y41172D01*
G01X107217Y41196D01*
G01X107264Y41222D01*
G01X107402Y41300D01*
G01X107448Y41328D01*
G01X107493Y41356D01*
G01X107539Y41384D01*
G01X107628Y41442D01*
G01X107672Y41472D01*
G01X107760Y41534D01*
G01X107846Y41597D01*
G01X107890Y41629D01*
G01X107932Y41662D01*
G01X107974Y41696D01*
G01X108016Y41729D01*
G01X108058Y41764D01*
G01X108099Y41799D01*
G01X108181Y41870D01*
G01X108221Y41906D01*
G01X108301Y41981D01*
G01X108379Y42057D01*
G01X108417Y42096D01*
G01X108455Y42136D01*
G01X108493Y42175D01*
G01X108531Y42216D01*
G01X108568Y42256D01*
G01X108640Y42340D01*
G01X108712Y42425D01*
G01X108747Y42469D01*
G01X108781Y42512D01*
G01X108815Y42557D01*
G01X108849Y42601D01*
G01X108948Y42739D01*
G01X108980Y42786D01*
G01X109011Y42833D01*
G01X109073Y42929D01*
G01X109133Y43027D01*
G01X109191Y43127D01*
G01X109220Y43178D01*
G01X109274Y43281D01*
G01X109301Y43333D01*
G01X109328Y43386D01*
G01X109354Y43439D01*
G01X109379Y43493D01*
G01X109403Y43546D01*
G01X109450Y43654D01*
G01X109472Y43708D01*
G01X109515Y43815D01*
G01X109555Y43924D01*
G01X109574Y43979D01*
G01X109592Y44033D01*
G01X109610Y44088D01*
G01X109626Y44142D01*
G01X109643Y44197D01*
G01X109673Y44307D01*
G01X109687Y44362D01*
G01X109714Y44471D01*
G01X109726Y44527D01*
G01X109738Y44582D01*
G01X109768Y44747D01*
G01X109777Y44802D01*
G01X109794Y44913D01*
G01X109801Y44968D01*
G01X109813Y45078D01*
G01X109818Y45133D01*
G01X109822Y45189D01*
G01X109826Y45243D01*
G01X109830Y45299D01*
G01X109836Y45464D01*
G01X109837Y45519D01*
G01X109837Y45574D01*
G01X109835Y45684D01*
G01X109834Y45738D01*
G01X109832Y45793D01*
G01X109829Y45848D01*
G01X109826Y45902D01*
G01X109821Y45957D01*
G01X109817Y46011D01*
G01X109812Y46065D01*
G01X109800Y46174D01*
G01X109793Y46228D01*
G01X109777Y46336D01*
G01X109768Y46390D01*
G01X109759Y46443D01*
G01X109749Y46496D01*
G01X109739Y46550D01*
G01X109717Y46656D01*
G01X109705Y46709D01*
G01X109692Y46761D01*
G01X109679Y46814D01*
G01X109651Y46918D01*
G01X109636Y46971D01*
G01X109621Y47022D01*
G01X109605Y47074D01*
G01X109572Y47177D01*
G01X109518Y47330D01*
G01X109479Y47430D01*
G01X109459Y47481D01*
G01X109417Y47580D01*
G01X109395Y47630D01*
G01X109351Y47728D01*
G01X109327Y47776D01*
G01X109279Y47873D01*
G01X109255Y47921D01*
G01X109230Y47968D01*
G01X109204Y48016D01*
G01X109177Y48063D01*
G01X109151Y48110D01*
G01X109124Y48156D01*
G01X109068Y48249D01*
G01X109039Y48295D01*
G01X108981Y48385D01*
G01X108951Y48430D01*
G01X108858Y48562D01*
G01X108826Y48605D01*
G01X108794Y48649D01*
G01X108728Y48733D01*
G01X108694Y48776D01*
G01X108660Y48817D01*
G01X108625Y48859D01*
G01X108590Y48900D01*
G01X108555Y48940D01*
G01X108518Y48981D01*
G01X108482Y49020D01*
G01X108445Y49060D01*
G01X108371Y49138D01*
G01X108333Y49176D01*
G01X108255Y49252D01*
G01X108216Y49289D01*
G01X108135Y49362D01*
G01X108095Y49397D01*
G01X108054Y49433D01*
G01X108012Y49468D01*
G01X107971Y49503D01*
G01X107928Y49537D01*
G01X107885Y49570D01*
G01X107843Y49603D01*
G01X107799Y49636D01*
G01X107711Y49700D01*
G01X107622Y49762D01*
G01X107576Y49793D01*
G01X107530Y49823D01*
G01X107438Y49881D01*
G01X107391Y49909D01*
G01X107343Y49937D01*
G01X107296Y49964D01*
G01X107200Y50018D01*
G01X107102Y50068D01*
G01X107052Y50093D01*
G01X106953Y50141D01*
G01X106851Y50187D01*
G01X106800Y50209D01*
G01X106749Y50230D01*
G01X106697Y50251D01*
G01X106644Y50271D01*
G01X106592Y50291D01*
G01X106539Y50310D01*
G01X106433Y50347D01*
G01X106379Y50364D01*
G01X106324Y50381D01*
G01X106270Y50397D01*
G01X106105Y50442D01*
G01X106049Y50456D01*
G01X105993Y50468D01*
G01X105937Y50481D01*
G01X105880Y50493D01*
G01X105823Y50504D01*
G01X105708Y50524D01*
G01X105592Y50542D01*
G01X105534Y50550D01*
G01X105477Y50557D01*
G01X105419Y50563D01*
G01X105305Y50574D01*
G01X105248Y50579D01*
G01X105192Y50583D01*
G01X105079Y50589D01*
G01X104968Y50593D01*
G01X104856Y50595D01*
G37*

%LPC*%
G36*
G01X105192Y50481D02*
G01X105122Y50481D01*
G01X105050Y50480D01*
G01X104975Y50479D01*
G01X104897Y50477D01*
G01X104818Y50475D01*
G01X104656Y50469D01*
G01X104574Y50465D01*
G01X104493Y50461D01*
G01X104413Y50457D01*
G01X104334Y50452D01*
G01X104258Y50447D01*
G01X104184Y50441D01*
G01X104113Y50435D01*
G01X104046Y50430D01*
G01X103983Y50423D01*
G01X103925Y50417D01*
G01X103872Y50410D01*
G01X103826Y50403D01*
G01X103785Y50396D01*
G01X103751Y50389D01*
G01X103698Y50376D01*
G01X103592Y50348D01*
G01X103489Y50319D01*
G01X103437Y50304D01*
G01X103386Y50288D01*
G01X103286Y50256D01*
G01X103186Y50222D01*
G01X103088Y50186D01*
G01X103040Y50168D01*
G01X102992Y50149D01*
G01X102898Y50111D01*
G01X102851Y50091D01*
G01X102805Y50070D01*
G01X102759Y50050D01*
G01X102714Y50029D01*
G01X102668Y50008D01*
G01X102624Y49986D01*
G01X102579Y49964D01*
G01X102492Y49919D01*
G01X102448Y49896D01*
G01X102363Y49849D01*
G01X102321Y49825D01*
G01X102279Y49800D01*
G01X102238Y49776D01*
G01X102197Y49751D01*
G01X102157Y49726D01*
G01X102077Y49674D01*
G01X102037Y49647D01*
G01X101999Y49621D01*
G01X101960Y49594D01*
G01X101884Y49539D01*
G01X101846Y49511D01*
G01X101809Y49483D01*
G01X101773Y49455D01*
G01X101665Y49368D01*
G01X101595Y49308D01*
G01X101527Y49248D01*
G01X101460Y49186D01*
G01X101427Y49155D01*
G01X101362Y49092D01*
G01X101331Y49060D01*
G01X101299Y49028D01*
G01X101268Y48995D01*
G01X101238Y48963D01*
G01X101207Y48930D01*
G01X101178Y48897D01*
G01X101148Y48863D01*
G01X101090Y48795D01*
G01X101034Y48727D01*
G01X101006Y48692D01*
G01X100952Y48622D01*
G01X100926Y48587D01*
G01X100899Y48552D01*
G01X100874Y48516D01*
G01X100823Y48444D01*
G01X100799Y48408D01*
G01X100775Y48371D01*
G01X100751Y48335D01*
G01X100704Y48260D01*
G01X100681Y48223D01*
G01X100659Y48186D01*
G01X100615Y48111D01*
G01X100594Y48073D01*
G01X100552Y47996D01*
G01X100532Y47958D01*
G01X100512Y47919D01*
G01X100473Y47841D01*
G01X100454Y47802D01*
G01X100418Y47724D01*
G01X100401Y47684D01*
G01X100383Y47644D01*
G01X100367Y47605D01*
G01X100350Y47565D01*
G01X100334Y47525D01*
G01X100318Y47484D01*
G01X100303Y47444D01*
G01X100287Y47403D01*
G01X100258Y47322D01*
G01X100244Y47282D01*
G01X100230Y47240D01*
G01X100191Y47117D01*
G01X100179Y47076D01*
G01X100156Y46993D01*
G01X100134Y46909D01*
G01X100124Y46868D01*
G01X100114Y46825D01*
G01X100104Y46784D01*
G01X100094Y46742D01*
G01X100085Y46699D01*
G01X100077Y46657D01*
G01X100068Y46615D01*
G01X100061Y46572D01*
G01X100053Y46530D01*
G01X100046Y46488D01*
G01X100039Y46445D01*
G01X100032Y46403D01*
G01X100020Y46317D01*
G01X100015Y46275D01*
G01X100005Y46189D01*
G01X99993Y46060D01*
G01X99987Y45974D01*
G01X99982Y45888D01*
G01X99979Y45845D01*
G01X99975Y45673D01*
G01X99975Y45587D01*
G01X99976Y45544D01*
G01X99978Y45457D01*
G01X99979Y45415D01*
G01X99984Y45328D01*
G01X99986Y45286D01*
G01X99989Y45242D01*
G01X99992Y45200D01*
G01X100004Y45071D01*
G01X100009Y45028D01*
G01X100019Y44943D01*
G01X100031Y44857D01*
G01X100044Y44772D01*
G01X100051Y44730D01*
G01X100059Y44687D01*
G01X100066Y44645D01*
G01X100083Y44561D01*
G01X100092Y44519D01*
G01X100100Y44476D01*
G01X100110Y44434D01*
G01X100120Y44393D01*
G01X100130Y44351D01*
G01X100151Y44268D01*
G01X100174Y44184D01*
G01X100210Y44061D01*
G01X100236Y43979D01*
G01X100250Y43938D01*
G01X100263Y43897D01*
G01X100278Y43857D01*
G01X100292Y43817D01*
G01X100307Y43776D01*
G01X100322Y43736D01*
G01X100338Y43696D01*
G01X100353Y43656D01*
G01X100386Y43577D01*
G01X100420Y43497D01*
G01X100437Y43458D01*
G01X100455Y43419D01*
G01X100473Y43381D01*
G01X100511Y43303D01*
G01X100549Y43227D01*
G01X100609Y43113D01*
G01X100630Y43075D01*
G01X100652Y43038D01*
G01X100673Y43001D01*
G01X100739Y42890D01*
G01X100762Y42854D01*
G01X100832Y42746D01*
G01X100881Y42675D01*
G01X100905Y42639D01*
G01X100930Y42604D01*
G01X100955Y42570D01*
G01X101007Y42501D01*
G01X101034Y42467D01*
G01X101060Y42433D01*
G01X101087Y42400D01*
G01X101114Y42366D01*
G01X101198Y42267D01*
G01X101314Y42139D01*
G01X101404Y42046D01*
G01X101435Y42015D01*
G01X101466Y41985D01*
G01X101498Y41955D01*
G01X101594Y41866D01*
G01X101627Y41837D01*
G01X101693Y41780D01*
G01X101727Y41753D01*
G01X101795Y41697D01*
G01X101864Y41643D01*
G01X101935Y41590D01*
G01X101971Y41565D01*
G01X102007Y41539D01*
G01X102043Y41514D01*
G01X102118Y41464D01*
G01X102192Y41416D01*
G01X102230Y41392D01*
G01X102308Y41346D01*
G01X102346Y41324D01*
G01X102386Y41301D01*
G01X102425Y41280D01*
G01X102505Y41236D01*
G01X102546Y41216D01*
G01X102587Y41195D01*
G01X102669Y41156D01*
G01X102710Y41136D01*
G01X102753Y41117D01*
G01X102795Y41098D01*
G01X102837Y41080D01*
G01X102881Y41062D01*
G01X102924Y41045D01*
G01X102968Y41028D01*
G01X103011Y41011D01*
G01X103055Y40995D01*
G01X103145Y40963D01*
G01X103190Y40948D01*
G01X103235Y40934D01*
G01X103327Y40905D01*
G01X103373Y40892D01*
G01X103420Y40879D01*
G01X103466Y40866D01*
G01X103514Y40854D01*
G01X103561Y40842D01*
G01X103705Y40809D01*
G01X103803Y40790D01*
G01X103852Y40781D01*
G01X103952Y40763D01*
G01X104052Y40748D01*
G01X104103Y40741D01*
G01X104206Y40729D01*
G01X104257Y40723D01*
G01X104309Y40718D01*
G01X104361Y40714D01*
G01X104467Y40706D01*
G01X104519Y40703D01*
G01X104573Y40700D01*
G01X104681Y40696D01*
G01X104735Y40695D01*
G01X104845Y40694D01*
G01X104954Y40695D01*
G01X105009Y40696D01*
G01X105064Y40698D01*
G01X105117Y40700D01*
G01X105171Y40703D01*
G01X105224Y40706D01*
G01X105383Y40718D01*
G01X105486Y40728D01*
G01X105538Y40734D01*
G01X105589Y40741D01*
G01X105640Y40747D01*
G01X105741Y40762D01*
G01X105791Y40770D01*
G01X105840Y40779D01*
G01X105939Y40797D01*
G01X105988Y40807D01*
G01X106084Y40827D01*
G01X106132Y40839D01*
G01X106180Y40850D01*
G01X106226Y40862D01*
G01X106274Y40874D01*
G01X106320Y40887D01*
G01X106367Y40900D01*
G01X106412Y40913D01*
G01X106458Y40928D01*
G01X106548Y40956D01*
G01X106593Y40971D01*
G01X106682Y41003D01*
G01X106769Y41035D01*
G01X106812Y41052D01*
G01X106855Y41070D01*
G01X106897Y41088D01*
G01X106940Y41105D01*
G01X106982Y41124D01*
G01X107023Y41142D01*
G01X107106Y41181D01*
G01X107186Y41221D01*
G01X107227Y41242D01*
G01X107266Y41263D01*
G01X107306Y41284D01*
G01X107345Y41305D01*
G01X107384Y41327D01*
G01X107422Y41350D01*
G01X107498Y41395D01*
G01X107536Y41418D01*
G01X107647Y41490D01*
G01X107719Y41540D01*
G01X107754Y41565D01*
G01X107790Y41590D01*
G01X107860Y41642D01*
G01X107894Y41668D01*
G01X107962Y41722D01*
G01X107995Y41749D01*
G01X108029Y41776D01*
G01X108094Y41832D01*
G01X108158Y41889D01*
G01X108221Y41947D01*
G01X108252Y41977D01*
G01X108282Y42007D01*
G01X108342Y42066D01*
G01X108372Y42097D01*
G01X108459Y42190D01*
G01X108487Y42221D01*
G01X108515Y42253D01*
G01X108570Y42317D01*
G01X108598Y42350D01*
G01X108624Y42382D01*
G01X108677Y42448D01*
G01X108703Y42482D01*
G01X108728Y42516D01*
G01X108753Y42549D01*
G01X108778Y42583D01*
G01X108802Y42618D01*
G01X108827Y42652D01*
G01X108851Y42687D01*
G01X108874Y42721D01*
G01X108920Y42791D01*
G01X108965Y42862D01*
G01X109009Y42935D01*
G01X109051Y43007D01*
G01X109071Y43043D01*
G01X109091Y43080D01*
G01X109112Y43117D01*
G01X109131Y43154D01*
G01X109150Y43192D01*
G01X109170Y43229D01*
G01X109189Y43266D01*
G01X109207Y43304D01*
G01X109242Y43380D01*
G01X109260Y43418D01*
G01X109277Y43457D01*
G01X109294Y43495D01*
G01X109326Y43573D01*
G01X109341Y43611D01*
G01X109357Y43650D01*
G01X109372Y43690D01*
G01X109387Y43729D01*
G01X109401Y43768D01*
G01X109415Y43808D01*
G01X109429Y43847D01*
G01X109443Y43888D01*
G01X109456Y43927D01*
G01X109468Y43967D01*
G01X109493Y44048D01*
G01X109504Y44088D01*
G01X109516Y44128D01*
G01X109527Y44169D01*
G01X109549Y44250D01*
G01X109559Y44291D01*
G01X109568Y44332D01*
G01X109578Y44373D01*
G01X109587Y44414D01*
G01X109605Y44497D01*
G01X109613Y44538D01*
G01X109620Y44580D01*
G01X109628Y44621D01*
G01X109635Y44663D01*
G01X109648Y44746D01*
G01X109660Y44829D01*
G01X109666Y44871D01*
G01X109676Y44955D01*
G01X109688Y45081D01*
G01X109691Y45123D01*
G01X109698Y45207D01*
G01X109700Y45250D01*
G01X109704Y45334D01*
G01X109705Y45376D01*
G01X109707Y45419D01*
G01X109708Y45503D01*
G01X109708Y45588D01*
G01X109706Y45672D01*
G01X109705Y45715D01*
G01X109704Y45757D01*
G01X109702Y45799D01*
G01X109699Y45841D01*
G01X109697Y45884D01*
G01X109694Y45926D01*
G01X109687Y46011D01*
G01X109679Y46095D01*
G01X109664Y46221D01*
G01X109646Y46347D01*
G01X109633Y46431D01*
G01X109625Y46473D01*
G01X109617Y46514D01*
G01X109601Y46598D01*
G01X109592Y46639D01*
G01X109583Y46681D01*
G01X109574Y46722D01*
G01X109564Y46763D01*
G01X109554Y46805D01*
G01X109544Y46846D01*
G01X109522Y46928D01*
G01X109474Y47092D01*
G01X109448Y47172D01*
G01X109434Y47213D01*
G01X109421Y47253D01*
G01X109406Y47293D01*
G01X109377Y47374D01*
G01X109362Y47413D01*
G01X109330Y47492D01*
G01X109314Y47532D01*
G01X109297Y47572D01*
G01X109263Y47650D01*
G01X109245Y47688D01*
G01X109228Y47728D01*
G01X109209Y47766D01*
G01X109191Y47805D01*
G01X109171Y47843D01*
G01X109152Y47882D01*
G01X109132Y47920D01*
G01X109112Y47957D01*
G01X109091Y47995D01*
G01X109071Y48033D01*
G01X109050Y48070D01*
G01X109028Y48108D01*
G01X109007Y48145D01*
G01X108984Y48182D01*
G01X108962Y48218D01*
G01X108939Y48255D01*
G01X108916Y48291D01*
G01X108892Y48328D01*
G01X108844Y48400D01*
G01X108794Y48471D01*
G01X108744Y48541D01*
G01X108717Y48576D01*
G01X108691Y48611D01*
G01X108664Y48646D01*
G01X108637Y48680D01*
G01X108609Y48714D01*
G01X108582Y48748D01*
G01X108525Y48815D01*
G01X108497Y48848D01*
G01X108467Y48881D01*
G01X108438Y48913D01*
G01X108408Y48946D01*
G01X108377Y48978D01*
G01X108347Y49010D01*
G01X108285Y49074D01*
G01X108221Y49136D01*
G01X108156Y49197D01*
G01X108123Y49228D01*
G01X108055Y49288D01*
G01X108021Y49317D01*
G01X107987Y49347D01*
G01X107952Y49376D01*
G01X107916Y49404D01*
G01X107881Y49432D01*
G01X107845Y49461D01*
G01X107809Y49489D01*
G01X107772Y49516D01*
G01X107735Y49544D01*
G01X107698Y49571D01*
G01X107622Y49623D01*
G01X107583Y49650D01*
G01X107545Y49676D01*
G01X107506Y49701D01*
G01X107466Y49727D01*
G01X107426Y49751D01*
G01X107386Y49776D01*
G01X107263Y49848D01*
G01X107137Y49917D01*
G01X107051Y49961D01*
G01X107007Y49983D01*
G01X106875Y50046D01*
G01X106785Y50086D01*
G01X106739Y50106D01*
G01X106693Y50125D01*
G01X106646Y50144D01*
G01X106600Y50163D01*
G01X106505Y50199D01*
G01X106458Y50216D01*
G01X106360Y50250D01*
G01X106312Y50266D01*
G01X106262Y50282D01*
G01X106163Y50313D01*
G01X106112Y50328D01*
G01X106062Y50342D01*
G01X105959Y50370D01*
G01X105855Y50396D01*
G01X105696Y50432D01*
G01X105643Y50443D01*
G01X105534Y50464D01*
G01X105504Y50469D01*
G01X105467Y50472D01*
G01X105423Y50475D01*
G01X105373Y50478D01*
G01X105318Y50479D01*
G01X105257Y50480D01*
G01X105192Y50481D01*
G37*

%LPD*%
G36*
G01X104898Y50415D02*
G01X104786Y50417D01*
G01X104729Y50416D01*
G01X104673Y50415D01*
G01X104616Y50413D01*
G01X104560Y50410D01*
G01X104446Y50402D01*
G01X104390Y50396D01*
G01X104333Y50390D01*
G01X104277Y50383D01*
G01X104220Y50375D01*
G01X104163Y50366D01*
G01X104106Y50356D01*
G01X103994Y50336D01*
G01X103881Y50311D01*
G01X103768Y50284D01*
G01X103712Y50269D01*
G01X103656Y50253D01*
G01X103544Y50220D01*
G01X103488Y50202D01*
G01X103378Y50164D01*
G01X103322Y50144D01*
G01X103267Y50124D01*
G01X103212Y50102D01*
G01X103103Y50058D01*
G01X103048Y50034D01*
G01X102941Y49986D01*
G01X102887Y49960D01*
G01X102780Y49907D01*
G01X102727Y49880D01*
G01X102674Y49852D01*
G01X102622Y49824D01*
G01X102466Y49734D01*
G01X102415Y49703D01*
G01X102313Y49639D01*
G01X102263Y49606D01*
G01X102163Y49538D01*
G01X102114Y49504D01*
G01X102065Y49469D01*
G01X102017Y49433D01*
G01X101873Y49322D01*
G01X101827Y49284D01*
G01X101780Y49246D01*
G01X101734Y49206D01*
G01X101688Y49167D01*
G01X101643Y49127D01*
G01X101598Y49086D01*
G01X101554Y49045D01*
G01X101511Y49004D01*
G01X101467Y48962D01*
G01X101424Y48919D01*
G01X101382Y48876D01*
G01X101340Y48832D01*
G01X101299Y48788D01*
G01X101259Y48744D01*
G01X101218Y48699D01*
G01X101178Y48654D01*
G01X101140Y48608D01*
G01X101101Y48562D01*
G01X101025Y48468D01*
G01X100917Y48324D01*
G01X100882Y48275D01*
G01X100848Y48226D01*
G01X100814Y48176D01*
G01X100781Y48126D01*
G01X100749Y48076D01*
G01X100717Y48025D01*
G01X100686Y47974D01*
G01X100626Y47870D01*
G01X100597Y47818D01*
G01X100569Y47766D01*
G01X100541Y47713D01*
G01X100515Y47660D01*
G01X100463Y47552D01*
G01X100439Y47498D01*
G01X100415Y47443D01*
G01X100392Y47388D01*
G01X100348Y47278D01*
G01X100327Y47222D01*
G01X100289Y47110D01*
G01X100271Y47053D01*
G01X100254Y46999D01*
G01X100238Y46945D01*
G01X100222Y46890D01*
G01X100208Y46837D01*
G01X100193Y46783D01*
G01X100167Y46675D01*
G01X100155Y46622D01*
G01X100143Y46568D01*
G01X100132Y46514D01*
G01X100112Y46408D01*
G01X100103Y46355D01*
G01X100087Y46249D01*
G01X100073Y46143D01*
G01X100067Y46091D01*
G01X100061Y46038D01*
G01X100056Y45986D01*
G01X100052Y45933D01*
G01X100048Y45882D01*
G01X100045Y45830D01*
G01X100042Y45777D01*
G01X100040Y45726D01*
G01X100039Y45674D01*
G01X100038Y45623D01*
G01X100038Y45520D01*
G01X100039Y45469D01*
G01X100042Y45367D01*
G01X100045Y45317D01*
G01X100048Y45266D01*
G01X100051Y45216D01*
G01X100055Y45166D01*
G01X100065Y45066D01*
G01X100071Y45016D01*
G01X100077Y44967D01*
G01X100091Y44869D01*
G01X100107Y44771D01*
G01X100125Y44674D01*
G01X100135Y44625D01*
G01X100156Y44530D01*
G01X100167Y44482D01*
G01X100179Y44434D01*
G01X100231Y44246D01*
G01X100246Y44200D01*
G01X100260Y44153D01*
G01X100276Y44108D01*
G01X100291Y44061D01*
G01X100307Y44016D01*
G01X100323Y43970D01*
G01X100358Y43880D01*
G01X100432Y43702D01*
G01X100452Y43659D01*
G01X100472Y43615D01*
G01X100493Y43572D01*
G01X100513Y43528D01*
G01X100535Y43485D01*
G01X100557Y43443D01*
G01X100579Y43400D01*
G01X100648Y43274D01*
G01X100672Y43233D01*
G01X100721Y43151D01*
G01X100746Y43110D01*
G01X100771Y43070D01*
G01X100823Y42990D01*
G01X100850Y42951D01*
G01X100877Y42911D01*
G01X100904Y42873D01*
G01X100960Y42795D01*
G01X100988Y42757D01*
G01X101017Y42719D01*
G01X101046Y42682D01*
G01X101076Y42645D01*
G01X101106Y42607D01*
G01X101167Y42534D01*
G01X101198Y42498D01*
G01X101261Y42427D01*
G01X101357Y42322D01*
G01X101390Y42288D01*
G01X101457Y42221D01*
G01X101559Y42122D01*
G01X101629Y42058D01*
G01X101665Y42026D01*
G01X101737Y41964D01*
G01X101773Y41934D01*
G01X101809Y41903D01*
G01X101921Y41815D01*
G01X101959Y41786D01*
G01X101996Y41758D01*
G01X102034Y41730D01*
G01X102073Y41702D01*
G01X102112Y41675D01*
G01X102151Y41647D01*
G01X102229Y41595D01*
G01X102309Y41543D01*
G01X102349Y41518D01*
G01X102390Y41493D01*
G01X102431Y41469D01*
G01X102471Y41445D01*
G01X102512Y41421D01*
G01X102596Y41376D01*
G01X102637Y41353D01*
G01X102680Y41331D01*
G01X102722Y41310D01*
G01X102764Y41288D01*
G01X102807Y41267D01*
G01X102893Y41227D01*
G01X102979Y41188D01*
G01X103023Y41169D01*
G01X103155Y41115D01*
G01X103199Y41099D01*
G01X103244Y41082D01*
G01X103289Y41066D01*
G01X103333Y41050D01*
G01X103379Y41035D01*
G01X103469Y41005D01*
G01X103560Y40978D01*
G01X103652Y40952D01*
G01X103744Y40928D01*
G01X103791Y40917D01*
G01X103837Y40906D01*
G01X103883Y40896D01*
G01X103977Y40876D01*
G01X104024Y40867D01*
G01X104119Y40851D01*
G01X104166Y40843D01*
G01X104213Y40836D01*
G01X104261Y40829D01*
G01X104309Y40823D01*
G01X104356Y40818D01*
G01X104404Y40813D01*
G01X104500Y40804D01*
G01X104548Y40800D01*
G01X104644Y40794D01*
G01X104741Y40790D01*
G01X104790Y40789D01*
G01X104935Y40789D01*
G01X105033Y40791D01*
G01X105081Y40793D01*
G01X105228Y40802D01*
G01X105277Y40806D01*
G01X105375Y40816D01*
G01X105473Y40828D01*
G01X105571Y40842D01*
G01X105669Y40858D01*
G01X105718Y40867D01*
G01X105768Y40877D01*
G01X105816Y40887D01*
G01X105866Y40898D01*
G01X105964Y40920D01*
G01X106111Y40959D01*
G01X106209Y40987D01*
G01X106258Y41003D01*
G01X106307Y41018D01*
G01X106405Y41052D01*
G01X106453Y41069D01*
G01X106502Y41088D01*
G01X106551Y41106D01*
G01X106600Y41126D01*
G01X106649Y41145D01*
G01X106697Y41166D01*
G01X106746Y41187D01*
G01X106842Y41231D01*
G01X106890Y41254D01*
G01X106939Y41278D01*
G01X106987Y41302D01*
G01X107083Y41352D01*
G01X107131Y41378D01*
G01X107179Y41405D01*
G01X107226Y41432D01*
G01X107322Y41488D01*
G01X107416Y41547D01*
G01X107463Y41578D01*
G01X107511Y41609D01*
G01X107604Y41673D01*
G01X107650Y41706D01*
G01X107696Y41738D01*
G01X107741Y41772D01*
G01X107785Y41805D01*
G01X107829Y41840D01*
G01X107872Y41874D01*
G01X107915Y41909D01*
G01X107957Y41944D01*
G01X107999Y41980D01*
G01X108040Y42015D01*
G01X108080Y42051D01*
G01X108120Y42088D01*
G01X108160Y42124D01*
G01X108198Y42161D01*
G01X108237Y42199D01*
G01X108275Y42237D01*
G01X108349Y42313D01*
G01X108385Y42351D01*
G01X108420Y42391D01*
G01X108490Y42469D01*
G01X108524Y42509D01*
G01X108590Y42589D01*
G01X108623Y42630D01*
G01X108654Y42670D01*
G01X108686Y42712D01*
G01X108716Y42753D01*
G01X108747Y42794D01*
G01X108776Y42837D01*
G01X108805Y42878D01*
G01X108834Y42921D01*
G01X108862Y42963D01*
G01X108890Y43006D01*
G01X108917Y43049D01*
G01X108943Y43092D01*
G01X108969Y43136D01*
G01X108994Y43179D01*
G01X109044Y43267D01*
G01X109068Y43312D01*
G01X109114Y43400D01*
G01X109158Y43490D01*
G01X109179Y43536D01*
G01X109220Y43626D01*
G01X109240Y43672D01*
G01X109259Y43717D01*
G01X109278Y43764D01*
G01X109313Y43856D01*
G01X109331Y43902D01*
G01X109348Y43949D01*
G01X109379Y44043D01*
G01X109394Y44090D01*
G01X109408Y44137D01*
G01X109423Y44184D01*
G01X109436Y44231D01*
G01X109450Y44279D01*
G01X109462Y44326D01*
G01X109486Y44422D01*
G01X109497Y44469D01*
G01X109508Y44517D01*
G01X109517Y44565D01*
G01X109527Y44613D01*
G01X109536Y44661D01*
G01X109545Y44710D01*
G01X109553Y44758D01*
G01X109567Y44854D01*
G01X109574Y44903D01*
G01X109580Y44951D01*
G01X109586Y45000D01*
G01X109591Y45048D01*
G01X109600Y45146D01*
G01X109604Y45195D01*
G01X109607Y45243D01*
G01X109609Y45292D01*
G01X109612Y45341D01*
G01X109615Y45438D01*
G01X109616Y45536D01*
G01X109615Y45633D01*
G01X109614Y45682D01*
G01X109612Y45731D01*
G01X109607Y45828D01*
G01X109604Y45877D01*
G01X109601Y45925D01*
G01X109597Y45974D01*
G01X109592Y46022D01*
G01X109587Y46071D01*
G01X109582Y46119D01*
G01X109576Y46168D01*
G01X109563Y46264D01*
G01X109556Y46312D01*
G01X109548Y46361D01*
G01X109531Y46456D01*
G01X109513Y46552D01*
G01X109502Y46599D01*
G01X109492Y46647D01*
G01X109481Y46694D01*
G01X109469Y46742D01*
G01X109458Y46789D01*
G01X109419Y46930D01*
G01X109391Y47024D01*
G01X109377Y47070D01*
G01X109362Y47116D01*
G01X109346Y47163D01*
G01X109330Y47208D01*
G01X109314Y47254D01*
G01X109280Y47346D01*
G01X109262Y47391D01*
G01X109244Y47437D01*
G01X109206Y47526D01*
G01X109167Y47615D01*
G01X109146Y47660D01*
G01X109126Y47704D01*
G01X109083Y47791D01*
G01X109060Y47835D01*
G01X109038Y47878D01*
G01X109015Y47921D01*
G01X108991Y47964D01*
G01X108968Y48006D01*
G01X108943Y48049D01*
G01X108919Y48091D01*
G01X108868Y48175D01*
G01X108816Y48257D01*
G01X108789Y48298D01*
G01X108761Y48339D01*
G01X108734Y48379D01*
G01X108677Y48459D01*
G01X108648Y48499D01*
G01X108589Y48577D01*
G01X108528Y48654D01*
G01X108466Y48730D01*
G01X108434Y48767D01*
G01X108401Y48805D01*
G01X108369Y48841D01*
G01X108336Y48878D01*
G01X108268Y48950D01*
G01X108199Y49021D01*
G01X108164Y49056D01*
G01X108128Y49090D01*
G01X108092Y49125D01*
G01X108019Y49192D01*
G01X107944Y49258D01*
G01X107906Y49290D01*
G01X107829Y49354D01*
G01X107790Y49385D01*
G01X107750Y49416D01*
G01X107670Y49476D01*
G01X107629Y49506D01*
G01X107588Y49535D01*
G01X107546Y49564D01*
G01X107462Y49620D01*
G01X107419Y49648D01*
G01X107333Y49702D01*
G01X107289Y49728D01*
G01X107244Y49754D01*
G01X107200Y49779D01*
G01X107155Y49804D01*
G01X107109Y49829D01*
G01X107064Y49853D01*
G01X107017Y49876D01*
G01X106924Y49922D01*
G01X106877Y49945D01*
G01X106781Y49987D01*
G01X106732Y50008D01*
G01X106684Y50028D01*
G01X106634Y50048D01*
G01X106585Y50067D01*
G01X106535Y50086D01*
G01X106484Y50105D01*
G01X106434Y50122D01*
G01X106382Y50139D01*
G01X106331Y50156D01*
G01X106227Y50188D01*
G01X106175Y50203D01*
G01X106122Y50217D01*
G01X106068Y50232D01*
G01X106015Y50245D01*
G01X105961Y50258D01*
G01X105851Y50282D01*
G01X105797Y50294D01*
G01X105601Y50329D01*
G01X105518Y50344D01*
G01X105448Y50356D01*
G01X105399Y50365D01*
G01X105344Y50374D01*
G01X105234Y50390D01*
G01X105122Y50402D01*
G01X105067Y50406D01*
G01X105011Y50410D01*
G01X104954Y50413D01*
G01X104898Y50415D01*
G37*

%LPC*%
G36*
G01X104919Y50223D02*
G01X104862Y50224D01*
G01X104807Y50223D01*
G01X104693Y50221D01*
G01X104637Y50218D01*
G01X104580Y50215D01*
G01X104466Y50207D01*
G01X104409Y50202D01*
G01X104352Y50195D01*
G01X104294Y50189D01*
G01X104237Y50181D01*
G01X104179Y50173D01*
G01X104122Y50164D01*
G01X104064Y50154D01*
G01X104007Y50144D01*
G01X103894Y50122D01*
G01X103838Y50110D01*
G01X103728Y50084D01*
G01X103673Y50069D01*
G01X103618Y50055D01*
G01X103564Y50040D01*
G01X103511Y50024D01*
G01X103457Y50008D01*
G01X103404Y49991D01*
G01X103352Y49974D01*
G01X103299Y49956D01*
G01X103247Y49938D01*
G01X103145Y49899D01*
G01X103094Y49879D01*
G01X102994Y49837D01*
G01X102944Y49815D01*
G01X102847Y49771D01*
G01X102798Y49747D01*
G01X102750Y49724D01*
G01X102702Y49699D01*
G01X102655Y49675D01*
G01X102608Y49649D01*
G01X102516Y49598D01*
G01X102426Y49544D01*
G01X102380Y49516D01*
G01X102336Y49488D01*
G01X102292Y49459D01*
G01X102206Y49401D01*
G01X102163Y49371D01*
G01X102121Y49340D01*
G01X102079Y49310D01*
G01X102037Y49279D01*
G01X101996Y49247D01*
G01X101956Y49215D01*
G01X101875Y49149D01*
G01X101797Y49082D01*
G01X101721Y49014D01*
G01X101683Y48979D01*
G01X101609Y48908D01*
G01X101573Y48872D01*
G01X101501Y48798D01*
G01X101467Y48761D01*
G01X101432Y48724D01*
G01X101364Y48648D01*
G01X101331Y48609D01*
G01X101266Y48531D01*
G01X101234Y48492D01*
G01X101203Y48452D01*
G01X101172Y48411D01*
G01X101142Y48371D01*
G01X101082Y48289D01*
G01X101024Y48206D01*
G01X100969Y48122D01*
G01X100915Y48036D01*
G01X100863Y47950D01*
G01X100788Y47818D01*
G01X100765Y47774D01*
G01X100718Y47684D01*
G01X100674Y47594D01*
G01X100653Y47548D01*
G01X100632Y47503D01*
G01X100611Y47456D01*
G01X100572Y47364D01*
G01X100553Y47317D01*
G01X100516Y47224D01*
G01X100499Y47176D01*
G01X100482Y47129D01*
G01X100466Y47081D01*
G01X100450Y47034D01*
G01X100435Y46986D01*
G01X100419Y46938D01*
G01X100405Y46889D01*
G01X100391Y46841D01*
G01X100378Y46792D01*
G01X100365Y46744D01*
G01X100341Y46646D01*
G01X100330Y46597D01*
G01X100309Y46499D01*
G01X100299Y46449D01*
G01X100290Y46400D01*
G01X100281Y46350D01*
G01X100265Y46250D01*
G01X100259Y46201D01*
G01X100252Y46150D01*
G01X100246Y46100D01*
G01X100231Y45950D01*
G01X100228Y45899D01*
G01X100224Y45849D01*
G01X100222Y45798D01*
G01X100220Y45748D01*
G01X100218Y45697D01*
G01X100217Y45646D01*
G01X100217Y45494D01*
G01X100218Y45444D01*
G01X100222Y45342D01*
G01X100225Y45291D01*
G01X100232Y45190D01*
G01X100237Y45139D01*
G01X100248Y45037D01*
G01X100254Y44986D01*
G01X100261Y44936D01*
G01X100269Y44885D01*
G01X100277Y44835D01*
G01X100285Y44784D01*
G01X100294Y44733D01*
G01X100304Y44683D01*
G01X100325Y44582D01*
G01X100337Y44532D01*
G01X100349Y44481D01*
G01X100375Y44381D01*
G01X100389Y44331D01*
G01X100418Y44232D01*
G01X100450Y44132D01*
G01X100467Y44082D01*
G01X100503Y43984D01*
G01X100522Y43934D01*
G01X100541Y43885D01*
G01X100561Y43836D01*
G01X100602Y43739D01*
G01X100624Y43691D01*
G01X100646Y43642D01*
G01X100669Y43593D01*
G01X100693Y43546D01*
G01X100718Y43497D01*
G01X100742Y43450D01*
G01X100768Y43402D01*
G01X100794Y43355D01*
G01X100821Y43307D01*
G01X100848Y43261D01*
G01X100905Y43167D01*
G01X100934Y43121D01*
G01X100963Y43074D01*
G01X100994Y43029D01*
G01X101057Y42937D01*
G01X101089Y42892D01*
G01X101122Y42847D01*
G01X101157Y42802D01*
G01X101191Y42757D01*
G01X101226Y42713D01*
G01X101262Y42668D01*
G01X101298Y42624D01*
G01X101335Y42581D01*
G01X101372Y42537D01*
G01X101411Y42494D01*
G01X101450Y42452D01*
G01X101489Y42409D01*
G01X101529Y42367D01*
G01X101570Y42326D01*
G01X101610Y42285D01*
G01X101651Y42245D01*
G01X101692Y42206D01*
G01X101734Y42167D01*
G01X101818Y42091D01*
G01X101861Y42054D01*
G01X101903Y42018D01*
G01X101946Y41983D01*
G01X101990Y41948D01*
G01X102033Y41914D01*
G01X102077Y41880D01*
G01X102121Y41847D01*
G01X102211Y41783D01*
G01X102255Y41752D01*
G01X102301Y41722D01*
G01X102346Y41692D01*
G01X102391Y41663D01*
G01X102437Y41634D01*
G01X102483Y41606D01*
G01X102530Y41579D01*
G01X102623Y41526D01*
G01X102717Y41476D01*
G01X102765Y41452D01*
G01X102812Y41428D01*
G01X102860Y41405D01*
G01X103004Y41339D01*
G01X103053Y41319D01*
G01X103101Y41299D01*
G01X103248Y41242D01*
G01X103297Y41225D01*
G01X103396Y41192D01*
G01X103446Y41176D01*
G01X103495Y41161D01*
G01X103595Y41132D01*
G01X103695Y41106D01*
G01X103745Y41094D01*
G01X103846Y41071D01*
G01X103897Y41061D01*
G01X103947Y41051D01*
G01X103998Y41041D01*
G01X104049Y41033D01*
G01X104099Y41025D01*
G01X104150Y41017D01*
G01X104252Y41004D01*
G01X104303Y40998D01*
G01X104405Y40988D01*
G01X104455Y40984D01*
G01X104507Y40980D01*
G01X104558Y40977D01*
G01X104660Y40973D01*
G01X104762Y40971D01*
G01X104864Y40971D01*
G01X104966Y40973D01*
G01X105017Y40975D01*
G01X105119Y40981D01*
G01X105221Y40989D01*
G01X105271Y40994D01*
G01X105322Y40999D01*
G01X105372Y41005D01*
G01X105423Y41011D01*
G01X105524Y41026D01*
G01X105624Y41042D01*
G01X105674Y41051D01*
G01X105774Y41071D01*
G01X105874Y41093D01*
G01X105923Y41105D01*
G01X106022Y41130D01*
G01X106071Y41143D01*
G01X106120Y41157D01*
G01X106169Y41172D01*
G01X106217Y41187D01*
G01X106266Y41202D01*
G01X106314Y41218D01*
G01X106363Y41234D01*
G01X106411Y41252D01*
G01X106459Y41269D01*
G01X106506Y41287D01*
G01X106554Y41305D01*
G01X106648Y41344D01*
G01X106741Y41385D01*
G01X106834Y41427D01*
G01X106880Y41450D01*
G01X106926Y41472D01*
G01X106972Y41495D01*
G01X107062Y41543D01*
G01X107107Y41568D01*
G01X107151Y41592D01*
G01X107239Y41644D01*
G01X107327Y41698D01*
G01X107370Y41725D01*
G01X107413Y41753D01*
G01X107455Y41781D01*
G01X107498Y41810D01*
G01X107540Y41840D01*
G01X107581Y41870D01*
G01X107623Y41900D01*
G01X107664Y41931D01*
G01X107705Y41963D01*
G01X107785Y42027D01*
G01X107865Y42093D01*
G01X107904Y42127D01*
G01X107942Y42161D01*
G01X107981Y42195D01*
G01X108019Y42231D01*
G01X108057Y42266D01*
G01X108094Y42302D01*
G01X108131Y42339D01*
G01X108167Y42376D01*
G01X108204Y42413D01*
G01X108275Y42490D01*
G01X108310Y42529D01*
G01X108378Y42607D01*
G01X108412Y42648D01*
G01X108445Y42688D01*
G01X108478Y42729D01*
G01X108542Y42813D01*
G01X108605Y42898D01*
G01X108636Y42941D01*
G01X108666Y42985D01*
G01X108725Y43074D01*
G01X108754Y43119D01*
G01X108782Y43165D01*
G01X108810Y43210D01*
G01X108837Y43257D01*
G01X108864Y43303D01*
G01X108891Y43351D01*
G01X108917Y43398D01*
G01X108942Y43447D01*
G01X108967Y43495D01*
G01X109015Y43593D01*
G01X109038Y43643D01*
G01X109061Y43694D01*
G01X109083Y43744D01*
G01X109105Y43795D01*
G01X109126Y43846D01*
G01X109146Y43898D01*
G01X109166Y43951D01*
G01X109186Y44003D01*
G01X109205Y44056D01*
G01X109241Y44164D01*
G01X109274Y44273D01*
G01X109306Y44383D01*
G01X109321Y44439D01*
G01X109334Y44496D01*
G01X109348Y44553D01*
G01X109361Y44609D01*
G01X109373Y44666D01*
G01X109395Y44780D01*
G01X109405Y44837D01*
G01X109414Y44893D01*
G01X109430Y45007D01*
G01X109437Y45063D01*
G01X109443Y45120D01*
G01X109449Y45176D01*
G01X109454Y45232D01*
G01X109458Y45288D01*
G01X109464Y45400D01*
G01X109466Y45456D01*
G01X109467Y45511D01*
G01X109468Y45567D01*
G01X109468Y45622D01*
G01X109467Y45678D01*
G01X109466Y45733D01*
G01X109464Y45788D01*
G01X109461Y45843D01*
G01X109458Y45897D01*
G01X109454Y45952D01*
G01X109450Y46006D01*
G01X109444Y46061D01*
G01X109432Y46169D01*
G01X109424Y46223D01*
G01X109417Y46276D01*
G01X109408Y46330D01*
G01X109399Y46383D01*
G01X109379Y46489D01*
G01X109368Y46542D01*
G01X109357Y46594D01*
G01X109344Y46647D01*
G01X109332Y46699D01*
G01X109304Y46803D01*
G01X109275Y46905D01*
G01X109243Y47007D01*
G01X109226Y47058D01*
G01X109208Y47108D01*
G01X109191Y47158D01*
G01X109153Y47257D01*
G01X109133Y47306D01*
G01X109113Y47356D01*
G01X109092Y47405D01*
G01X109071Y47453D01*
G01X109049Y47501D01*
G01X109026Y47549D01*
G01X109004Y47597D01*
G01X108956Y47691D01*
G01X108931Y47738D01*
G01X108907Y47784D01*
G01X108881Y47831D01*
G01X108855Y47876D01*
G01X108829Y47922D01*
G01X108774Y48013D01*
G01X108718Y48101D01*
G01X108689Y48146D01*
G01X108659Y48189D01*
G01X108629Y48233D01*
G01X108599Y48275D01*
G01X108568Y48318D01*
G01X108505Y48402D01*
G01X108472Y48444D01*
G01X108440Y48485D01*
G01X108407Y48526D01*
G01X108339Y48606D01*
G01X108304Y48646D01*
G01X108270Y48685D01*
G01X108234Y48724D01*
G01X108162Y48800D01*
G01X108088Y48876D01*
G01X108013Y48949D01*
G01X107974Y48985D01*
G01X107936Y49020D01*
G01X107897Y49056D01*
G01X107858Y49091D01*
G01X107817Y49125D01*
G01X107777Y49159D01*
G01X107737Y49192D01*
G01X107696Y49225D01*
G01X107654Y49258D01*
G01X107613Y49290D01*
G01X107571Y49321D01*
G01X107528Y49353D01*
G01X107442Y49413D01*
G01X107398Y49443D01*
G01X107355Y49472D01*
G01X107310Y49501D01*
G01X107266Y49529D01*
G01X107221Y49557D01*
G01X107176Y49584D01*
G01X107084Y49637D01*
G01X107038Y49663D01*
G01X106945Y49713D01*
G01X106850Y49761D01*
G01X106755Y49806D01*
G01X106706Y49828D01*
G01X106609Y49871D01*
G01X106560Y49891D01*
G01X106510Y49911D01*
G01X106411Y49949D01*
G01X106360Y49967D01*
G01X106259Y50001D01*
G01X106208Y50018D01*
G01X106157Y50033D01*
G01X106105Y50049D01*
G01X106002Y50077D01*
G01X105950Y50090D01*
G01X105897Y50103D01*
G01X105844Y50115D01*
G01X105792Y50127D01*
G01X105685Y50148D01*
G01X105631Y50158D01*
G01X105524Y50175D01*
G01X105470Y50183D01*
G01X105416Y50190D01*
G01X105306Y50202D01*
G01X105252Y50207D01*
G01X105196Y50212D01*
G01X105086Y50218D01*
G01X105030Y50221D01*
G01X104975Y50222D01*
G01X104919Y50223D01*
G37*

%LPD*%
G36*
G01X104425Y49948D02*
G01X104377Y49950D01*
G01X104323Y49945D01*
G01X104267Y49933D01*
G01X104209Y49914D01*
G01X104158Y49879D01*
G01X104141Y49834D01*
G01X104157Y49795D01*
G01X104206Y49778D01*
G01X104241Y49765D01*
G01X104268Y49725D01*
G01X104284Y49661D01*
G01X104290Y49574D01*
G01X104293Y49525D01*
G01X104305Y49495D01*
G01X104327Y49480D01*
G01X104366Y49476D01*
G01X104406Y49480D01*
G01X104428Y49502D01*
G01X104434Y49552D01*
G01X104430Y49644D01*
G01X104426Y49728D01*
G01X104431Y49779D01*
G01X104445Y49805D01*
G01X104471Y49812D01*
G01X104493Y49817D01*
G01X104510Y49831D01*
G01X104521Y49853D01*
G01X104525Y49879D01*
G01X104518Y49905D01*
G01X104498Y49925D01*
G01X104466Y49939D01*
G01X104425Y49948D01*
G37*

%LPD*%
G36*
G01X104827Y49966D02*
G01X104792Y49977D01*
G01X104764Y49974D01*
G01X104742Y49957D01*
G01X104726Y49926D01*
G01X104714Y49879D01*
G01X104705Y49816D01*
G01X104700Y49736D01*
G01X104701Y49656D01*
G01X104709Y49589D01*
G01X104724Y49538D01*
G01X104744Y49503D01*
G01X104766Y49486D01*
G01X104792Y49490D01*
G01X104817Y49516D01*
G01X104842Y49565D01*
G01X104855Y49593D01*
G01X104867Y49602D01*
G01X104883Y49591D01*
G01X104908Y49560D01*
G01X104947Y49526D01*
G01X104987Y49524D01*
G01X105018Y49551D01*
G01X105033Y49604D01*
G01X105036Y49620D01*
G01X105042Y49621D01*
G01X105050Y49606D01*
G01X105059Y49577D01*
G01X105081Y49518D01*
G01X105106Y49484D01*
G01X105132Y49473D01*
G01X105158Y49484D01*
G01X105181Y49515D01*
G01X105202Y49566D01*
G01X105216Y49635D01*
G01X105225Y49719D01*
G01X105234Y49947D01*
G01X105134Y49947D01*
G01X105087Y49943D01*
G01X105053Y49931D01*
G01X105028Y49910D01*
G01X105013Y49879D01*
G01X104989Y49834D01*
G01X104961Y49814D01*
G01X104938Y49823D01*
G01X104928Y49861D01*
G01X104924Y49883D01*
G01X104911Y49906D01*
G01X104893Y49927D01*
G01X104870Y49945D01*
G01X104827Y49966D01*
G37*

%LPD*%
G36*
G01X105676Y49895D02*
G01X105628Y49908D01*
G01X105583Y49901D01*
G01X105520Y49874D01*
G01X105477Y49849D01*
G01X105443Y49817D01*
G01X105417Y49780D01*
G01X105400Y49739D01*
G01X105391Y49695D01*
G01X105391Y49650D01*
G01X105398Y49606D01*
G01X105414Y49564D01*
G01X105438Y49524D01*
G01X105469Y49490D01*
G01X105508Y49461D01*
G01X105555Y49441D01*
G01X105605Y49429D01*
G01X105652Y49427D01*
G01X105697Y49434D01*
G01X105736Y49449D01*
G01X105772Y49470D01*
G01X105803Y49497D01*
G01X105828Y49529D01*
G01X105848Y49565D01*
G01X105862Y49603D01*
G01X105868Y49643D01*
G01X105868Y49683D01*
G01X105860Y49724D01*
G01X105844Y49763D01*
G01X105820Y49799D01*
G01X105786Y49832D01*
G01X105744Y49861D01*
G01X105676Y49895D01*
G37*

%LPC*%
G36*
G01X105662Y49767D02*
G01X105635Y49776D01*
G01X105608Y49767D01*
G01X105575Y49738D01*
G01X105547Y49700D01*
G01X105537Y49661D01*
G01X105541Y49623D01*
G01X105556Y49590D01*
G01X105582Y49567D01*
G01X105614Y49555D01*
G01X105651Y49558D01*
G01X105689Y49580D01*
G01X105722Y49617D01*
G01X105734Y49657D01*
G01X105725Y49698D01*
G01X105696Y49738D01*
G01X105662Y49767D01*
G37*

%LPD*%
G36*
G01X103940Y49845D02*
G01X103908Y49865D01*
G01X103857Y49857D01*
G01X103770Y49833D01*
G01X103701Y49806D01*
G01X103649Y49775D01*
G01X103613Y49740D01*
G01X103593Y49702D01*
G01X103590Y49659D01*
G01X103603Y49612D01*
G01X103631Y49559D01*
G01X103652Y49522D01*
G01X103669Y49482D01*
G01X103680Y49443D01*
G01X103684Y49410D01*
G01X103701Y49354D01*
G01X103740Y49344D01*
G01X103789Y49377D01*
G01X103833Y49448D01*
G01X103859Y49505D01*
G01X103875Y49527D01*
G01X103887Y49519D01*
G01X103901Y49481D01*
G01X103915Y49452D01*
G01X103936Y49429D01*
G01X103962Y49414D01*
G01X103989Y49409D01*
G01X104033Y49411D01*
G01X104049Y49435D01*
G01X104037Y49510D01*
G01X104000Y49662D01*
G01X103967Y49783D01*
G01X103940Y49845D01*
G37*

%LPC*%
G36*
G01X103821Y49709D02*
G01X103802Y49711D01*
G01X103782Y49709D01*
G01X103766Y49701D01*
G01X103755Y49691D01*
G01X103751Y49678D01*
G01X103755Y49665D01*
G01X103766Y49654D01*
G01X103782Y49647D01*
G01X103802Y49644D01*
G01X103821Y49647D01*
G01X103838Y49654D01*
G01X103848Y49665D01*
G01X103852Y49678D01*
G01X103848Y49691D01*
G01X103838Y49701D01*
G01X103821Y49709D01*
G37*

%LPD*%
G36*
G01X106270Y49739D02*
G01X106240Y49745D01*
G01X106198Y49739D01*
G01X106156Y49723D01*
G01X106116Y49697D01*
G01X106080Y49664D01*
G01X106050Y49625D01*
G01X106026Y49583D01*
G01X106010Y49538D01*
G01X106005Y49492D01*
G01X106010Y49447D01*
G01X106026Y49402D01*
G01X106050Y49359D01*
G01X106080Y49321D01*
G01X106116Y49288D01*
G01X106156Y49263D01*
G01X106198Y49246D01*
G01X106240Y49240D01*
G01X106291Y49246D01*
G01X106337Y49263D01*
G01X106377Y49290D01*
G01X106410Y49324D01*
G01X106437Y49364D01*
G01X106456Y49408D01*
G01X106468Y49455D01*
G01X106471Y49504D01*
G01X106465Y49551D01*
G01X106449Y49597D01*
G01X106423Y49639D01*
G01X106387Y49675D01*
G01X106348Y49702D01*
G01X106308Y49725D01*
G01X106270Y49739D01*
G37*

%LPC*%
G36*
G01X106292Y49562D02*
G01X106232Y49571D01*
G01X106199Y49561D01*
G01X106174Y49544D01*
G01X106155Y49519D01*
G01X106146Y49488D01*
G01X106155Y49430D01*
G01X106193Y49395D01*
G01X106247Y49391D01*
G01X106302Y49421D01*
G01X106333Y49476D01*
G01X106327Y49527D01*
G01X106292Y49562D01*
G37*

%LPD*%
G36*
G01X103342Y49691D02*
G01X103309Y49693D01*
G01X103266Y49682D01*
G01X103210Y49658D01*
G01X103139Y49622D01*
G01X103089Y49582D01*
G01X103066Y49534D01*
G01X103073Y49493D01*
G01X103112Y49476D01*
G01X103122Y49471D01*
G01X103130Y49458D01*
G01X103134Y49440D01*
G01X103134Y49417D01*
G01X103137Y49388D01*
G01X103154Y49371D01*
G01X103190Y49363D01*
G01X103247Y49363D01*
G01X103365Y49369D01*
G01X103272Y49321D01*
G01X103217Y49285D01*
G01X103186Y49253D01*
G01X103177Y49225D01*
G01X103189Y49204D01*
G01X103218Y49192D01*
G01X103264Y49190D01*
G01X103322Y49199D01*
G01X103392Y49223D01*
G01X103439Y49243D01*
G01X103475Y49261D01*
G01X103497Y49281D01*
G01X103508Y49305D01*
G01X103507Y49337D01*
G01X103495Y49383D01*
G01X103475Y49444D01*
G01X103444Y49524D01*
G01X103417Y49591D01*
G01X103394Y49641D01*
G01X103370Y49674D01*
G01X103342Y49691D01*
G37*

%LPC*%
G36*
G01X103277Y49534D02*
G01X103265Y49534D01*
G01X103237Y49524D01*
G01X103215Y49514D01*
G01X103200Y49502D01*
G01X103193Y49491D01*
G01X103196Y49482D01*
G01X103206Y49478D01*
G01X103221Y49481D01*
G01X103238Y49490D01*
G01X103256Y49505D01*
G01X103274Y49525D01*
G01X103277Y49534D01*
G37*

%LPD*%
G36*
G01X102870Y49459D02*
G01X102816Y49479D01*
G01X102766Y49455D01*
G01X102767Y49430D01*
G01X102783Y49380D01*
G01X102811Y49312D01*
G01X102846Y49237D01*
G01X102883Y49164D01*
G01X102919Y49100D01*
G01X102950Y49056D01*
G01X102970Y49039D01*
G01X103030Y49052D01*
G01X103053Y49094D01*
G01X103040Y49170D01*
G01X102990Y49286D01*
G01X102928Y49394D01*
G01X102870Y49459D01*
G37*

%LPD*%
G36*
G01X106746Y49518D02*
G01X106699Y49527D01*
G01X106665Y49526D01*
G01X106645Y49515D01*
G01X106640Y49494D01*
G01X106651Y49463D01*
G01X106680Y49423D01*
G01X106697Y49393D01*
G01X106701Y49357D01*
G01X106689Y49309D01*
G01X106662Y49242D01*
G01X106641Y49190D01*
G01X106629Y49143D01*
G01X106624Y49105D01*
G01X106627Y49075D01*
G01X106635Y49053D01*
G01X106649Y49040D01*
G01X106667Y49036D01*
G01X106688Y49042D01*
G01X106712Y49058D01*
G01X106738Y49084D01*
G01X106765Y49123D01*
G01X106792Y49172D01*
G01X106825Y49234D01*
G01X106857Y49273D01*
G01X106889Y49294D01*
G01X106925Y49298D01*
G01X106967Y49298D01*
G01X106993Y49308D01*
G01X107006Y49325D01*
G01X107004Y49349D01*
G01X106989Y49376D01*
G01X106962Y49406D01*
G01X106923Y49437D01*
G01X106872Y49466D01*
G01X106803Y49497D01*
G01X106746Y49518D01*
G37*

%LPD*%
G36*
G01X102586Y49291D02*
G01X102569Y49305D01*
G01X102513Y49299D01*
G01X102473Y49269D01*
G01X102448Y49217D01*
G01X102439Y49144D01*
G01X102438Y49021D01*
G01X102379Y49098D01*
G01X102346Y49137D01*
G01X102317Y49162D01*
G01X102292Y49174D01*
G01X102273Y49175D01*
G01X102257Y49166D01*
G01X102248Y49148D01*
G01X102245Y49122D01*
G01X102247Y49089D01*
G01X102256Y49050D01*
G01X102271Y49007D01*
G01X102294Y48959D01*
G01X102324Y48910D01*
G01X102377Y48837D01*
G01X102422Y48785D01*
G01X102463Y48753D01*
G01X102496Y48742D01*
G01X102524Y48751D01*
G01X102546Y48781D01*
G01X102563Y48831D01*
G01X102574Y48902D01*
G01X102591Y49050D01*
G01X102639Y48960D01*
G01X102675Y48901D01*
G01X102705Y48875D01*
G01X102736Y48881D01*
G01X102772Y48916D01*
G01X102786Y48946D01*
G01X102780Y48988D01*
G01X102752Y49048D01*
G01X102701Y49133D01*
G01X102657Y49199D01*
G01X102617Y49254D01*
G01X102586Y49291D01*
G37*

%LPD*%
G36*
G01X107269Y49224D02*
G01X107207Y49238D01*
G01X107164Y49221D01*
G01X107148Y49173D01*
G01X107152Y49147D01*
G01X107163Y49125D01*
G01X107178Y49111D01*
G01X107197Y49106D01*
G01X107217Y49103D01*
G01X107237Y49096D01*
G01X107254Y49086D01*
G01X107265Y49073D01*
G01X107266Y49063D01*
G01X107251Y49060D01*
G01X107223Y49065D01*
G01X107182Y49077D01*
G01X107099Y49092D01*
G01X107035Y49075D01*
G01X106994Y49028D01*
G01X106980Y48952D01*
G01X107004Y48882D01*
G01X107064Y48811D01*
G01X107142Y48757D01*
G01X107220Y48735D01*
G01X107272Y48754D01*
G01X107282Y48798D01*
G01X107254Y48850D01*
G01X107191Y48891D01*
G01X107144Y48910D01*
G01X107136Y48919D01*
G01X107169Y48923D01*
G01X107249Y48923D01*
G01X107313Y48929D01*
G01X107363Y48946D01*
G01X107400Y48973D01*
G01X107422Y49007D01*
G01X107428Y49047D01*
G01X107417Y49091D01*
G01X107390Y49135D01*
G01X107344Y49178D01*
G01X107269Y49224D01*
G37*

%LPD*%
G36*
G01X101595Y43314D02*
G01X101550Y43315D01*
G01X101504Y43307D01*
G01X101459Y43294D01*
G01X101416Y43273D01*
G01X101378Y43247D01*
G01X101344Y43216D01*
G01X101319Y43180D01*
G01X101302Y43141D01*
G01X101296Y43098D01*
G01X101302Y43051D01*
G01X101318Y43005D01*
G01X101342Y42963D01*
G01X101375Y42925D01*
G01X101413Y42893D01*
G01X101456Y42869D01*
G01X101501Y42853D01*
G01X101549Y42847D01*
G01X101601Y42852D01*
G01X101647Y42866D01*
G01X101687Y42888D01*
G01X101721Y42916D01*
G01X101748Y42951D01*
G01X101768Y42990D01*
G01X101779Y43032D01*
G01X101783Y43077D01*
G01X101779Y43124D01*
G01X101765Y43170D01*
G01X101742Y43216D01*
G01X101709Y43259D01*
G01X101676Y43287D01*
G01X101638Y43305D01*
G01X101595Y43314D01*
G37*

%LPC*%
G36*
G01X101593Y43169D02*
G01X101554Y43182D01*
G01X101510Y43171D01*
G01X101468Y43137D01*
G01X101446Y43087D01*
G01X101453Y43036D01*
G01X101485Y42997D01*
G01X101537Y42981D01*
G01X101584Y42995D01*
G01X101617Y43029D01*
G01X101630Y43077D01*
G01X101620Y43133D01*
G01X101593Y43169D01*
G37*

%LPD*%
G36*
G01X108100Y43358D02*
G01X108065Y43360D01*
G01X108035Y43353D01*
G01X108013Y43338D01*
G01X107998Y43317D01*
G01X107993Y43288D01*
G01X107997Y43253D01*
G01X108011Y43211D01*
G01X108038Y43164D01*
G01X108070Y43111D01*
G01X108074Y43088D01*
G01X108045Y43090D01*
G01X107978Y43114D01*
G01X107924Y43127D01*
G01X107878Y43125D01*
G01X107842Y43108D01*
G01X107818Y43082D01*
G01X107808Y43047D01*
G01X107812Y43008D01*
G01X107833Y42967D01*
G01X107872Y42926D01*
G01X107956Y42858D01*
G01X108021Y42806D01*
G01X108071Y42770D01*
G01X108109Y42747D01*
G01X108137Y42738D01*
G01X108159Y42738D01*
G01X108177Y42748D01*
G01X108194Y42766D01*
G01X108214Y42796D01*
G01X108216Y42820D01*
G01X108199Y42846D01*
G01X108162Y42877D01*
G01X108120Y42910D01*
G01X108110Y42926D01*
G01X108137Y42928D01*
G01X108206Y42921D01*
G01X108284Y42915D01*
G01X108318Y42928D01*
G01X108311Y42967D01*
G01X108268Y43042D01*
G01X108211Y43133D01*
G01X108283Y43071D01*
G01X108337Y43037D01*
G01X108383Y43031D01*
G01X108414Y43052D01*
G01X108427Y43099D01*
G01X108415Y43126D01*
G01X108384Y43166D01*
G01X108339Y43214D01*
G01X108283Y43264D01*
G01X108233Y43302D01*
G01X108186Y43330D01*
G01X108141Y43349D01*
G01X108100Y43358D01*
G37*

%LPD*%
G36*
G01X102099Y42804D02*
G01X102061Y42808D01*
G01X102005Y42778D01*
G01X101926Y42714D01*
G01X101862Y42661D01*
G01X101821Y42638D01*
G01X101790Y42642D01*
G01X101756Y42670D01*
G01X101721Y42699D01*
G01X101693Y42711D01*
G01X101671Y42708D01*
G01X101658Y42693D01*
G01X101653Y42667D01*
G01X101659Y42632D01*
G01X101675Y42592D01*
G01X101703Y42548D01*
G01X101736Y42517D01*
G01X101778Y42499D01*
G01X101826Y42493D01*
G01X101877Y42498D01*
G01X101929Y42512D01*
G01X101981Y42534D01*
G01X102028Y42564D01*
G01X102069Y42598D01*
G01X102102Y42637D01*
G01X102123Y42680D01*
G01X102131Y42723D01*
G01X102123Y42767D01*
G01X102099Y42804D01*
G37*

%LPD*%
G36*
G01X107618Y42779D02*
G01X107574Y42786D01*
G01X107540Y42783D01*
G01X107516Y42769D01*
G01X107501Y42744D01*
G01X107497Y42708D01*
G01X107502Y42661D01*
G01X107517Y42603D01*
G01X107541Y42533D01*
G01X107574Y42451D01*
G01X107609Y42385D01*
G01X107649Y42334D01*
G01X107690Y42297D01*
G01X107728Y42278D01*
G01X107759Y42276D01*
G01X107779Y42294D01*
G01X107782Y42332D01*
G01X107766Y42392D01*
G01X107771Y42422D01*
G01X107799Y42452D01*
G01X107835Y42470D01*
G01X107868Y42467D01*
G01X107879Y42470D01*
G01X107899Y42481D01*
G01X107925Y42501D01*
G01X107954Y42526D01*
G01X108027Y42592D01*
G01X107816Y42698D01*
G01X107739Y42735D01*
G01X107673Y42762D01*
G01X107618Y42779D01*
G37*

%LPD*%
G36*
G01X102314Y42607D02*
G01X102283Y42621D01*
G01X102263Y42612D01*
G01X102252Y42576D01*
G01X102245Y42508D01*
G01X102237Y42452D01*
G01X102225Y42410D01*
G01X102209Y42384D01*
G01X102188Y42376D01*
G01X102163Y42373D01*
G01X102129Y42366D01*
G01X102090Y42355D01*
G01X102052Y42342D01*
G01X102014Y42321D01*
G01X101993Y42299D01*
G01X101989Y42275D01*
G01X101998Y42253D01*
G01X102020Y42234D01*
G01X102053Y42221D01*
G01X102094Y42216D01*
G01X102144Y42221D01*
G01X102203Y42227D01*
G01X102233Y42217D01*
G01X102232Y42191D01*
G01X102201Y42150D01*
G01X102187Y42131D01*
G01X102187Y42114D01*
G01X102200Y42096D01*
G01X102228Y42078D01*
G01X102255Y42074D01*
G01X102287Y42084D01*
G01X102324Y42106D01*
G01X102363Y42137D01*
G01X102402Y42175D01*
G01X102440Y42218D01*
G01X102474Y42264D01*
G01X102502Y42309D01*
G01X102524Y42352D01*
G01X102535Y42391D01*
G01X102536Y42422D01*
G01X102523Y42444D01*
G01X102497Y42462D01*
G01X102473Y42468D01*
G01X102450Y42462D01*
G01X102423Y42443D01*
G01X102397Y42425D01*
G01X102382Y42425D01*
G01X102375Y42445D01*
G01X102373Y42488D01*
G01X102368Y42524D01*
G01X102355Y42559D01*
G01X102337Y42588D01*
G01X102314Y42607D01*
G37*

%LPD*%
G36*
G01X107263Y42497D02*
G01X107228Y42502D01*
G01X107190Y42471D01*
G01X107177Y42446D01*
G01X107182Y42413D01*
G01X107207Y42367D01*
G01X107254Y42303D01*
G01X107357Y42173D01*
G01X107286Y42115D01*
G01X107248Y42077D01*
G01X107229Y42044D01*
G01X107227Y42018D01*
G01X107239Y42001D01*
G01X107265Y41993D01*
G01X107301Y41996D01*
G01X107346Y42012D01*
G01X107398Y42042D01*
G01X107446Y42075D01*
G01X107481Y42103D01*
G01X107501Y42127D01*
G01X107508Y42154D01*
G01X107501Y42185D01*
G01X107479Y42224D01*
G01X107444Y42276D01*
G01X107393Y42343D01*
G01X107313Y42448D01*
G01X107263Y42497D01*
G37*

%LPD*%
G36*
G01X105143Y49266D02*
G01X105005Y49266D01*
G01X104929Y49265D01*
G01X104850Y49263D01*
G01X104768Y49260D01*
G01X104602Y49252D01*
G01X104519Y49247D01*
G01X104439Y49241D01*
G01X104362Y49235D01*
G01X104289Y49229D01*
G01X104221Y49222D01*
G01X104159Y49215D01*
G01X104104Y49207D01*
G01X104058Y49199D01*
G01X104021Y49191D01*
G01X103967Y49177D01*
G01X103914Y49162D01*
G01X103862Y49147D01*
G01X103810Y49131D01*
G01X103759Y49114D01*
G01X103708Y49098D01*
G01X103658Y49080D01*
G01X103608Y49063D01*
G01X103559Y49044D01*
G01X103462Y49006D01*
G01X103415Y48986D01*
G01X103367Y48966D01*
G01X103321Y48945D01*
G01X103275Y48923D01*
G01X103230Y48902D01*
G01X103140Y48857D01*
G01X103096Y48834D01*
G01X103052Y48810D01*
G01X103010Y48786D01*
G01X102967Y48761D01*
G01X102925Y48736D01*
G01X102884Y48711D01*
G01X102843Y48685D01*
G01X102763Y48632D01*
G01X102685Y48578D01*
G01X102646Y48550D01*
G01X102609Y48522D01*
G01X102535Y48464D01*
G01X102499Y48435D01*
G01X102428Y48375D01*
G01X102393Y48344D01*
G01X102359Y48313D01*
G01X102292Y48250D01*
G01X102259Y48218D01*
G01X102195Y48154D01*
G01X102164Y48121D01*
G01X102134Y48088D01*
G01X102103Y48054D01*
G01X102016Y47952D01*
G01X101960Y47882D01*
G01X101933Y47846D01*
G01X101907Y47810D01*
G01X101880Y47775D01*
G01X101855Y47739D01*
G01X101830Y47702D01*
G01X101805Y47666D01*
G01X101781Y47629D01*
G01X101757Y47591D01*
G01X101734Y47554D01*
G01X101712Y47516D01*
G01X101689Y47478D01*
G01X101668Y47440D01*
G01X101626Y47363D01*
G01X101586Y47285D01*
G01X101567Y47246D01*
G01X101548Y47206D01*
G01X101530Y47167D01*
G01X101512Y47127D01*
G01X101478Y47047D01*
G01X101462Y47007D01*
G01X101446Y46966D01*
G01X101416Y46884D01*
G01X101402Y46844D01*
G01X101388Y46803D01*
G01X101374Y46761D01*
G01X101362Y46720D01*
G01X101349Y46678D01*
G01X101326Y46595D01*
G01X101304Y46511D01*
G01X101285Y46427D01*
G01X101276Y46384D01*
G01X101267Y46342D01*
G01X101259Y46299D01*
G01X101238Y46171D01*
G01X101232Y46128D01*
G01X101226Y46086D01*
G01X101216Y46000D01*
G01X101212Y45957D01*
G01X101205Y45870D01*
G01X101202Y45828D01*
G01X101200Y45784D01*
G01X101196Y45698D01*
G01X101195Y45655D01*
G01X101195Y45525D01*
G01X101196Y45482D01*
G01X101199Y45396D01*
G01X101202Y45353D01*
G01X101204Y45310D01*
G01X101208Y45267D01*
G01X101211Y45224D01*
G01X101215Y45181D01*
G01X101225Y45095D01*
G01X101231Y45052D01*
G01X101243Y44968D01*
G01X101250Y44925D01*
G01X101258Y44882D01*
G01X101265Y44840D01*
G01X101273Y44798D01*
G01X101292Y44714D01*
G01X101301Y44672D01*
G01X101311Y44630D01*
G01X101322Y44588D01*
G01X101333Y44547D01*
G01X101344Y44505D01*
G01X101368Y44423D01*
G01X101382Y44382D01*
G01X101408Y44300D01*
G01X101423Y44259D01*
G01X101452Y44179D01*
G01X101500Y44059D01*
G01X101534Y43981D01*
G01X101552Y43942D01*
G01X101571Y43903D01*
G01X101589Y43864D01*
G01X101627Y43788D01*
G01X101648Y43750D01*
G01X101668Y43712D01*
G01X101689Y43674D01*
G01X101710Y43637D01*
G01X101732Y43600D01*
G01X101754Y43564D01*
G01X101777Y43527D01*
G01X101800Y43491D01*
G01X101824Y43455D01*
G01X101847Y43419D01*
G01X101872Y43384D01*
G01X101896Y43349D01*
G01X101922Y43314D01*
G01X101947Y43280D01*
G01X101973Y43245D01*
G01X102027Y43177D01*
G01X102054Y43144D01*
G01X102082Y43111D01*
G01X102139Y43046D01*
G01X102168Y43014D01*
G01X102198Y42983D01*
G01X102228Y42951D01*
G01X102258Y42920D01*
G01X102289Y42890D01*
G01X102352Y42830D01*
G01X102384Y42801D01*
G01X102417Y42772D01*
G01X102449Y42743D01*
G01X102483Y42714D01*
G01X102517Y42686D01*
G01X102551Y42659D01*
G01X102621Y42605D01*
G01X102656Y42579D01*
G01X102692Y42553D01*
G01X102765Y42502D01*
G01X102802Y42478D01*
G01X102878Y42430D01*
G01X102917Y42407D01*
G01X102955Y42384D01*
G01X103075Y42318D01*
G01X103197Y42257D01*
G01X103281Y42219D01*
G01X103324Y42200D01*
G01X103367Y42182D01*
G01X103410Y42165D01*
G01X103498Y42131D01*
G01X103543Y42116D01*
G01X103588Y42100D01*
G01X103634Y42085D01*
G01X103679Y42071D01*
G01X103725Y42057D01*
G01X103772Y42044D01*
G01X103819Y42032D01*
G01X103867Y42020D01*
G01X103914Y42008D01*
G01X103963Y41997D01*
G01X104011Y41987D01*
G01X104061Y41977D01*
G01X104110Y41968D01*
G01X104210Y41952D01*
G01X104312Y41937D01*
G01X104364Y41931D01*
G01X104415Y41926D01*
G01X104468Y41921D01*
G01X104520Y41917D01*
G01X104573Y41913D01*
G01X104627Y41910D01*
G01X104735Y41906D01*
G01X104790Y41905D01*
G01X104899Y41905D01*
G01X104954Y41906D01*
G01X105062Y41910D01*
G01X105114Y41913D01*
G01X105167Y41916D01*
G01X105220Y41920D01*
G01X105272Y41925D01*
G01X105323Y41930D01*
G01X105425Y41942D01*
G01X105476Y41949D01*
G01X105526Y41957D01*
G01X105624Y41973D01*
G01X105673Y41983D01*
G01X105721Y41992D01*
G01X105817Y42014D01*
G01X105864Y42025D01*
G01X105911Y42037D01*
G01X106049Y42076D01*
G01X106093Y42090D01*
G01X106138Y42105D01*
G01X106226Y42136D01*
G01X106270Y42152D01*
G01X106313Y42169D01*
G01X106355Y42186D01*
G01X106398Y42203D01*
G01X106481Y42240D01*
G01X106562Y42278D01*
G01X106642Y42318D01*
G01X106682Y42340D01*
G01X106720Y42361D01*
G01X106759Y42382D01*
G01X106797Y42405D01*
G01X106834Y42427D01*
G01X106909Y42474D01*
G01X106981Y42522D01*
G01X107052Y42572D01*
G01X107086Y42597D01*
G01X107121Y42623D01*
G01X107154Y42650D01*
G01X107188Y42677D01*
G01X107221Y42703D01*
G01X107254Y42731D01*
G01X107350Y42815D01*
G01X107381Y42844D01*
G01X107411Y42874D01*
G01X107441Y42903D01*
G01X107471Y42933D01*
G01X107529Y42994D01*
G01X107585Y43056D01*
G01X107613Y43088D01*
G01X107667Y43152D01*
G01X107693Y43185D01*
G01X107719Y43217D01*
G01X107745Y43251D01*
G01X107770Y43284D01*
G01X107795Y43318D01*
G01X107842Y43386D01*
G01X107866Y43420D01*
G01X107889Y43455D01*
G01X107911Y43490D01*
G01X107955Y43561D01*
G01X107997Y43633D01*
G01X108037Y43705D01*
G01X108057Y43742D01*
G01X108076Y43779D01*
G01X108094Y43817D01*
G01X108113Y43854D01*
G01X108130Y43891D01*
G01X108148Y43929D01*
G01X108165Y43967D01*
G01X108181Y44005D01*
G01X108197Y44044D01*
G01X108213Y44082D01*
G01X108243Y44160D01*
G01X108272Y44238D01*
G01X108298Y44317D01*
G01X108311Y44357D01*
G01X108335Y44437D01*
G01X108346Y44477D01*
G01X108356Y44518D01*
G01X108367Y44558D01*
G01X108377Y44598D01*
G01X108387Y44639D01*
G01X108405Y44721D01*
G01X108413Y44761D01*
G01X108428Y44844D01*
G01X108435Y44885D01*
G01X108441Y44926D01*
G01X108447Y44968D01*
G01X108453Y45009D01*
G01X108459Y45051D01*
G01X108468Y45134D01*
G01X108471Y45176D01*
G01X108475Y45218D01*
G01X108478Y45260D01*
G01X108484Y45386D01*
G01X108485Y45427D01*
G01X108486Y45512D01*
G01X108486Y45596D01*
G01X108485Y45638D01*
G01X108479Y45764D01*
G01X108470Y45890D01*
G01X108466Y45932D01*
G01X108461Y45973D01*
G01X108456Y46016D01*
G01X108451Y46057D01*
G01X108445Y46099D01*
G01X108438Y46141D01*
G01X108432Y46183D01*
G01X108424Y46224D01*
G01X108417Y46266D01*
G01X108409Y46307D01*
G01X108400Y46348D01*
G01X108391Y46390D01*
G01X108382Y46431D01*
G01X108372Y46472D01*
G01X108339Y46595D01*
G01X108327Y46635D01*
G01X108303Y46717D01*
G01X108290Y46757D01*
G01X108248Y46877D01*
G01X108233Y46917D01*
G01X108218Y46956D01*
G01X108202Y46996D01*
G01X108186Y47035D01*
G01X108169Y47075D01*
G01X108152Y47113D01*
G01X108134Y47153D01*
G01X108116Y47191D01*
G01X108097Y47230D01*
G01X108079Y47268D01*
G01X108019Y47382D01*
G01X107977Y47456D01*
G01X107955Y47493D01*
G01X107910Y47567D01*
G01X107864Y47639D01*
G01X107840Y47675D01*
G01X107815Y47711D01*
G01X107765Y47781D01*
G01X107713Y47851D01*
G01X107686Y47885D01*
G01X107658Y47919D01*
G01X107631Y47953D01*
G01X107574Y48020D01*
G01X107545Y48053D01*
G01X107516Y48085D01*
G01X107424Y48181D01*
G01X107393Y48213D01*
G01X107361Y48244D01*
G01X107296Y48305D01*
G01X107229Y48365D01*
G01X107194Y48394D01*
G01X107160Y48423D01*
G01X107125Y48451D01*
G01X107089Y48480D01*
G01X107053Y48508D01*
G01X107016Y48536D01*
G01X106942Y48590D01*
G01X106904Y48616D01*
G01X106826Y48668D01*
G01X106748Y48718D01*
G01X106707Y48743D01*
G01X106666Y48766D01*
G01X106625Y48790D01*
G01X106541Y48836D01*
G01X106499Y48858D01*
G01X106455Y48880D01*
G01X106412Y48902D01*
G01X106368Y48923D01*
G01X106323Y48943D01*
G01X106278Y48964D01*
G01X106232Y48983D01*
G01X106187Y49003D01*
G01X106046Y49057D01*
G01X105998Y49074D01*
G01X105901Y49108D01*
G01X105851Y49124D01*
G01X105802Y49139D01*
G01X105751Y49154D01*
G01X105701Y49168D01*
G01X105650Y49181D01*
G01X105598Y49195D01*
G01X105546Y49207D01*
G01X105493Y49220D01*
G01X105440Y49231D01*
G01X105332Y49253D01*
G01X105298Y49258D01*
G01X105255Y49262D01*
G01X105203Y49264D01*
G01X105143Y49266D01*
G37*

%LPC*%
G36*
G01X105077Y47823D02*
G01X105030Y47837D01*
G01X104956Y47825D01*
G01X104902Y47814D01*
G01X104837Y47808D01*
G01X104769Y47807D01*
G01X104707Y47812D01*
G01X104628Y47823D01*
G01X104589Y47818D01*
G01X104578Y47791D01*
G01X104584Y47735D01*
G01X104598Y47637D01*
G01X104839Y47642D01*
G01X104961Y47647D01*
G01X105037Y47657D01*
G01X105076Y47675D01*
G01X105091Y47705D01*
G01X105097Y47779D01*
G01X105077Y47823D01*
G37*
G36*
G01X106018Y42630D02*
G01X105930Y42746D01*
G01X104832Y42745D01*
G01X103735Y42745D01*
G01X103545Y42477D01*
G01X103803Y42477D01*
G01X103889Y42475D01*
G01X103957Y42471D01*
G01X104008Y42464D01*
G01X104041Y42456D01*
G01X104058Y42445D01*
G01X104058Y42435D01*
G01X104042Y42424D01*
G01X104011Y42412D01*
G01X103964Y42401D01*
G01X103901Y42391D01*
G01X103824Y42382D01*
G01X103732Y42376D01*
G01X103432Y42359D01*
G01X103751Y42253D01*
G01X103814Y42234D01*
G01X103876Y42215D01*
G01X103939Y42198D01*
G01X104003Y42181D01*
G01X104067Y42166D01*
G01X104131Y42152D01*
G01X104195Y42140D01*
G01X104260Y42128D01*
G01X104325Y42117D01*
G01X104390Y42108D01*
G01X104455Y42100D01*
G01X104521Y42093D01*
G01X104587Y42088D01*
G01X104652Y42083D01*
G01X104718Y42080D01*
G01X104783Y42078D01*
G01X104848Y42077D01*
G01X104914Y42077D01*
G01X104979Y42078D01*
G01X105044Y42081D01*
G01X105108Y42084D01*
G01X105172Y42089D01*
G01X105236Y42095D01*
G01X105300Y42103D01*
G01X105363Y42111D01*
G01X105426Y42120D01*
G01X105489Y42131D01*
G01X105550Y42143D01*
G01X105612Y42156D01*
G01X105672Y42170D01*
G01X105792Y42202D01*
G01X105850Y42220D01*
G01X105908Y42239D01*
G01X105965Y42259D01*
G01X106022Y42280D01*
G01X106223Y42359D01*
G01X105265Y42377D01*
G01X105084Y42381D01*
G01X104926Y42383D01*
G01X104790Y42386D01*
G01X104675Y42389D01*
G01X104579Y42391D01*
G01X104500Y42394D01*
G01X104436Y42396D01*
G01X104387Y42399D01*
G01X104350Y42402D01*
G01X104324Y42406D01*
G01X104307Y42410D01*
G01X104298Y42415D01*
G01X104295Y42421D01*
G01X104296Y42427D01*
G01X104301Y42435D01*
G01X104307Y42443D01*
G01X104313Y42447D01*
G01X104326Y42450D01*
G01X104348Y42454D01*
G01X104376Y42457D01*
G01X104411Y42460D01*
G01X104453Y42463D01*
G01X104502Y42466D01*
G01X104558Y42468D01*
G01X104620Y42470D01*
G01X104688Y42472D01*
G01X104761Y42473D01*
G01X104842Y42474D01*
G01X104927Y42475D01*
G01X105018Y42476D01*
G01X105115Y42477D01*
G01X105395Y42477D01*
G01X105480Y42478D01*
G01X105562Y42478D01*
G01X105640Y42479D01*
G01X105713Y42480D01*
G01X105781Y42481D01*
G01X105844Y42482D01*
G01X105902Y42484D01*
G01X105954Y42485D01*
G01X105998Y42487D01*
G01X106035Y42489D01*
G01X106066Y42490D01*
G01X106088Y42492D01*
G01X106101Y42494D01*
G01X106106Y42496D01*
G01X106099Y42512D01*
G01X106080Y42543D01*
G01X106052Y42584D01*
G01X106018Y42630D01*
G37*
G36*
G01X104889Y47488D02*
G01X104827Y47490D01*
G01X104766Y47485D01*
G01X104705Y47470D01*
G01X104646Y47447D01*
G01X104589Y47414D01*
G01X104547Y47383D01*
G01X104511Y47348D01*
G01X104481Y47312D01*
G01X104455Y47272D01*
G01X104435Y47231D01*
G01X104419Y47189D01*
G01X104408Y47145D01*
G01X104402Y47102D01*
G01X104400Y47057D01*
G01X104403Y47013D01*
G01X104410Y46969D01*
G01X104421Y46926D01*
G01X104436Y46884D01*
G01X104455Y46844D01*
G01X104478Y46806D01*
G01X104505Y46770D01*
G01X104535Y46737D01*
G01X104569Y46707D01*
G01X104606Y46681D01*
G01X104646Y46658D01*
G01X104690Y46640D01*
G01X104736Y46627D01*
G01X104785Y46619D01*
G01X104837Y46616D01*
G01X104898Y46620D01*
G01X104956Y46631D01*
G01X105011Y46650D01*
G01X105062Y46674D01*
G01X105108Y46704D01*
G01X105150Y46740D01*
G01X105188Y46780D01*
G01X105219Y46824D01*
G01X105245Y46872D01*
G01X105265Y46922D01*
G01X105279Y46975D01*
G01X105286Y47029D01*
G01X105285Y47083D01*
G01X105277Y47139D01*
G01X105261Y47194D01*
G01X105237Y47248D01*
G01X105201Y47304D01*
G01X105160Y47354D01*
G01X105113Y47396D01*
G01X105062Y47431D01*
G01X105007Y47458D01*
G01X104949Y47477D01*
G01X104889Y47488D01*
G37*
G36*
G01X104078Y43464D02*
G01X104076Y43469D01*
G01X104068Y43467D01*
G01X104054Y43459D01*
G01X104033Y43445D01*
G01X104007Y43424D01*
G01X103975Y43397D01*
G01X103937Y43365D01*
G01X103894Y43328D01*
G01X103845Y43285D01*
G01X103791Y43236D01*
G01X103733Y43183D01*
G01X103669Y43124D01*
G01X103602Y43061D01*
G01X103529Y42993D01*
G01X103453Y42920D01*
G01X103070Y42556D01*
G01X103191Y42485D01*
G01X103311Y42413D01*
G01X103677Y42908D01*
G01X103726Y42975D01*
G01X103775Y43041D01*
G01X103821Y43104D01*
G01X103865Y43164D01*
G01X103906Y43220D01*
G01X103944Y43272D01*
G01X103977Y43319D01*
G01X104007Y43359D01*
G01X104032Y43394D01*
G01X104051Y43422D01*
G01X104065Y43441D01*
G01X104072Y43453D01*
G01X104078Y43464D01*
G37*
G36*
G01X105603Y43481D02*
G01X105594Y43484D01*
G01X105590Y43481D01*
G01X105591Y43474D01*
G01X105596Y43462D01*
G01X105605Y43445D01*
G01X105618Y43423D01*
G01X105636Y43397D01*
G01X105657Y43367D01*
G01X105682Y43332D01*
G01X105711Y43293D01*
G01X105791Y43186D01*
G01X105864Y43087D01*
G01X105996Y42911D01*
G01X106055Y42834D01*
G01X106108Y42764D01*
G01X106156Y42702D01*
G01X106199Y42647D01*
G01X106238Y42598D01*
G01X106272Y42556D01*
G01X106301Y42521D01*
G01X106326Y42493D01*
G01X106346Y42471D01*
G01X106362Y42456D01*
G01X106373Y42446D01*
G01X106381Y42443D01*
G01X106400Y42447D01*
G01X106431Y42458D01*
G01X106469Y42474D01*
G01X106509Y42494D01*
G01X106606Y42543D01*
G01X106263Y42875D01*
G01X106179Y42955D01*
G01X106101Y43031D01*
G01X106029Y43100D01*
G01X105963Y43163D01*
G01X105903Y43220D01*
G01X105848Y43271D01*
G01X105799Y43316D01*
G01X105755Y43356D01*
G01X105717Y43390D01*
G01X105684Y43419D01*
G01X105656Y43443D01*
G01X105634Y43460D01*
G01X105616Y43473D01*
G01X105603Y43481D01*
G37*
G36*
G01X106009Y44385D02*
G01X105963Y44391D01*
G01X105915Y44389D01*
G01X105868Y44376D01*
G01X105823Y44354D01*
G01X105780Y44321D01*
G01X105748Y44283D01*
G01X105724Y44236D01*
G01X105709Y44184D01*
G01X105702Y44130D01*
G01X105703Y44078D01*
G01X105713Y44028D01*
G01X105733Y43984D01*
G01X105761Y43950D01*
G01X105808Y43915D01*
G01X105858Y43891D01*
G01X105907Y43877D01*
G01X105957Y43874D01*
G01X106005Y43879D01*
G01X106051Y43894D01*
G01X106093Y43917D01*
G01X106130Y43948D01*
G01X106161Y43986D01*
G01X106185Y44031D01*
G01X106200Y44083D01*
G01X106206Y44140D01*
G01X106201Y44193D01*
G01X106186Y44241D01*
G01X106163Y44283D01*
G01X106132Y44319D01*
G01X106096Y44348D01*
G01X106055Y44371D01*
G01X106009Y44385D01*
G37*
G36*
G01X106397Y48745D02*
G01X106373Y48747D01*
G01X106353Y48744D01*
G01X106339Y48735D01*
G01X106331Y48722D01*
G01X106338Y48692D01*
G01X106380Y48649D01*
G01X106458Y48593D01*
G01X106570Y48523D01*
G01X106621Y48493D01*
G01X106670Y48462D01*
G01X106718Y48431D01*
G01X106766Y48399D01*
G01X106813Y48366D01*
G01X106859Y48333D01*
G01X106905Y48299D01*
G01X106949Y48265D01*
G01X106993Y48229D01*
G01X107079Y48157D01*
G01X107120Y48120D01*
G01X107162Y48082D01*
G01X107202Y48044D01*
G01X107241Y48005D01*
G01X107280Y47965D01*
G01X107318Y47926D01*
G01X107355Y47885D01*
G01X107427Y47803D01*
G01X107462Y47761D01*
G01X107496Y47718D01*
G01X107529Y47676D01*
G01X107562Y47632D01*
G01X107594Y47588D01*
G01X107625Y47544D01*
G01X107655Y47500D01*
G01X107685Y47454D01*
G01X107742Y47363D01*
G01X107769Y47317D01*
G01X107796Y47270D01*
G01X107847Y47175D01*
G01X107895Y47080D01*
G01X107939Y46982D01*
G01X107960Y46934D01*
G01X107980Y46884D01*
G01X108000Y46835D01*
G01X108019Y46785D01*
G01X108055Y46685D01*
G01X108087Y46583D01*
G01X108102Y46532D01*
G01X108130Y46430D01*
G01X108142Y46378D01*
G01X108154Y46327D01*
G01X108176Y46223D01*
G01X108185Y46171D01*
G01X108194Y46118D01*
G01X108202Y46066D01*
G01X108209Y46014D01*
G01X108216Y45961D01*
G01X108221Y45908D01*
G01X108226Y45856D01*
G01X108230Y45803D01*
G01X108233Y45750D01*
G01X108236Y45698D01*
G01X108238Y45645D01*
G01X108239Y45592D01*
G01X108239Y45486D01*
G01X108237Y45433D01*
G01X108235Y45381D01*
G01X108232Y45328D01*
G01X108228Y45275D01*
G01X108224Y45223D01*
G01X108212Y45117D01*
G01X108206Y45065D01*
G01X108198Y45013D01*
G01X108180Y44909D01*
G01X108170Y44857D01*
G01X108159Y44806D01*
G01X108147Y44754D01*
G01X108135Y44703D01*
G01X108122Y44652D01*
G01X108107Y44601D01*
G01X108093Y44550D01*
G01X108077Y44500D01*
G01X108061Y44449D01*
G01X108025Y44349D01*
G01X107987Y44251D01*
G01X107945Y44153D01*
G01X107923Y44105D01*
G01X107900Y44057D01*
G01X107877Y44010D01*
G01X107827Y43915D01*
G01X107801Y43868D01*
G01X107774Y43822D01*
G01X107746Y43776D01*
G01X107718Y43731D01*
G01X107658Y43641D01*
G01X107627Y43598D01*
G01X107596Y43554D01*
G01X107563Y43510D01*
G01X107530Y43468D01*
G01X107496Y43425D01*
G01X107461Y43384D01*
G01X107425Y43342D01*
G01X107388Y43301D01*
G01X107351Y43261D01*
G01X107312Y43221D01*
G01X107274Y43182D01*
G01X107234Y43143D01*
G01X107193Y43105D01*
G01X107109Y43031D01*
G01X107066Y42995D01*
G01X106978Y42923D01*
G01X106886Y42855D01*
G01X106829Y42813D01*
G01X106783Y42774D01*
G01X106747Y42739D01*
G01X106721Y42708D01*
G01X106705Y42683D01*
G01X106699Y42664D01*
G01X106704Y42653D01*
G01X106719Y42649D01*
G01X106744Y42653D01*
G01X106779Y42667D01*
G01X106825Y42691D01*
G01X106881Y42726D01*
G01X106928Y42758D01*
G01X106975Y42791D01*
G01X107021Y42824D01*
G01X107066Y42859D01*
G01X107110Y42894D01*
G01X107154Y42930D01*
G01X107197Y42967D01*
G01X107239Y43004D01*
G01X107321Y43080D01*
G01X107361Y43120D01*
G01X107400Y43160D01*
G01X107476Y43242D01*
G01X107513Y43284D01*
G01X107549Y43326D01*
G01X107584Y43369D01*
G01X107619Y43413D01*
G01X107653Y43458D01*
G01X107685Y43503D01*
G01X107718Y43548D01*
G01X107749Y43594D01*
G01X107780Y43641D01*
G01X107810Y43687D01*
G01X107839Y43735D01*
G01X107867Y43783D01*
G01X107895Y43832D01*
G01X107947Y43930D01*
G01X107997Y44030D01*
G01X108020Y44081D01*
G01X108042Y44131D01*
G01X108086Y44235D01*
G01X108106Y44287D01*
G01X108125Y44339D01*
G01X108144Y44392D01*
G01X108162Y44445D01*
G01X108179Y44499D01*
G01X108195Y44553D01*
G01X108210Y44606D01*
G01X108224Y44661D01*
G01X108238Y44715D01*
G01X108251Y44770D01*
G01X108263Y44825D01*
G01X108274Y44880D01*
G01X108284Y44936D01*
G01X108294Y44991D01*
G01X108303Y45047D01*
G01X108317Y45159D01*
G01X108328Y45271D01*
G01X108333Y45328D01*
G01X108336Y45384D01*
G01X108339Y45441D01*
G01X108341Y45497D01*
G01X108341Y45668D01*
G01X108339Y45725D01*
G01X108336Y45781D01*
G01X108333Y45838D01*
G01X108323Y45952D01*
G01X108317Y46009D01*
G01X108310Y46065D01*
G01X108302Y46122D01*
G01X108293Y46178D01*
G01X108283Y46235D01*
G01X108273Y46291D01*
G01X108249Y46403D01*
G01X108236Y46459D01*
G01X108221Y46514D01*
G01X108206Y46570D01*
G01X108190Y46626D01*
G01X108174Y46681D01*
G01X108155Y46735D01*
G01X108117Y46845D01*
G01X108075Y46953D01*
G01X108052Y47007D01*
G01X108029Y47060D01*
G01X107979Y47166D01*
G01X107953Y47218D01*
G01X107926Y47270D01*
G01X107898Y47322D01*
G01X107869Y47373D01*
G01X107839Y47424D01*
G01X107808Y47475D01*
G01X107776Y47525D01*
G01X107743Y47575D01*
G01X107709Y47623D01*
G01X107671Y47674D01*
G01X107630Y47726D01*
G01X107586Y47779D01*
G01X107539Y47833D01*
G01X107490Y47887D01*
G01X107439Y47941D01*
G01X107386Y47996D01*
G01X107331Y48051D01*
G01X107276Y48105D01*
G01X107162Y48211D01*
G01X107104Y48263D01*
G01X107047Y48313D01*
G01X106989Y48361D01*
G01X106932Y48408D01*
G01X106877Y48453D01*
G01X106821Y48496D01*
G01X106768Y48536D01*
G01X106716Y48573D01*
G01X106666Y48607D01*
G01X106619Y48638D01*
G01X106573Y48666D01*
G01X106531Y48690D01*
G01X106492Y48710D01*
G01X106456Y48726D01*
G01X106424Y48738D01*
G01X106397Y48745D01*
G37*
G36*
G01X103140Y48658D02*
G01X103123Y48661D01*
G01X103100Y48655D01*
G01X103065Y48636D01*
G01X103015Y48604D01*
G01X102945Y48557D01*
G01X102850Y48492D01*
G01X102801Y48457D01*
G01X102753Y48422D01*
G01X102705Y48386D01*
G01X102659Y48350D01*
G01X102612Y48313D01*
G01X102567Y48275D01*
G01X102479Y48199D01*
G01X102395Y48119D01*
G01X102354Y48079D01*
G01X102313Y48038D01*
G01X102235Y47954D01*
G01X102197Y47912D01*
G01X102160Y47869D01*
G01X102088Y47781D01*
G01X102053Y47737D01*
G01X102019Y47692D01*
G01X101986Y47646D01*
G01X101954Y47601D01*
G01X101922Y47554D01*
G01X101892Y47508D01*
G01X101862Y47460D01*
G01X101833Y47413D01*
G01X101804Y47365D01*
G01X101777Y47317D01*
G01X101750Y47268D01*
G01X101724Y47219D01*
G01X101699Y47170D01*
G01X101675Y47121D01*
G01X101651Y47070D01*
G01X101607Y46970D01*
G01X101586Y46919D01*
G01X101566Y46868D01*
G01X101528Y46764D01*
G01X101511Y46713D01*
G01X101493Y46661D01*
G01X101478Y46608D01*
G01X101462Y46556D01*
G01X101434Y46450D01*
G01X101410Y46344D01*
G01X101398Y46290D01*
G01X101388Y46237D01*
G01X101370Y46129D01*
G01X101362Y46075D01*
G01X101356Y46021D01*
G01X101350Y45966D01*
G01X101344Y45913D01*
G01X101339Y45858D01*
G01X101336Y45803D01*
G01X101333Y45749D01*
G01X101331Y45695D01*
G01X101330Y45640D01*
G01X101330Y45531D01*
G01X101332Y45476D01*
G01X101334Y45422D01*
G01X101337Y45367D01*
G01X101341Y45313D01*
G01X101346Y45258D01*
G01X101351Y45204D01*
G01X101358Y45149D01*
G01X101365Y45095D01*
G01X101373Y45041D01*
G01X101382Y44987D01*
G01X101402Y44879D01*
G01X101414Y44825D01*
G01X101427Y44772D01*
G01X101440Y44718D01*
G01X101454Y44665D01*
G01X101469Y44612D01*
G01X101501Y44506D01*
G01X101519Y44454D01*
G01X101537Y44401D01*
G01X101556Y44349D01*
G01X101576Y44297D01*
G01X101597Y44246D01*
G01X101619Y44194D01*
G01X101665Y44092D01*
G01X101689Y44042D01*
G01X101714Y43992D01*
G01X101741Y43941D01*
G01X101795Y43843D01*
G01X101824Y43794D01*
G01X101854Y43745D01*
G01X101884Y43697D01*
G01X101915Y43649D01*
G01X101947Y43602D01*
G01X101980Y43554D01*
G01X102014Y43508D01*
G01X102084Y43416D01*
G01X102121Y43370D01*
G01X102158Y43326D01*
G01X102196Y43281D01*
G01X102236Y43237D01*
G01X102275Y43194D01*
G01X102316Y43151D01*
G01X102358Y43108D01*
G01X102401Y43066D01*
G01X102444Y43025D01*
G01X102507Y42967D01*
G01X102568Y42913D01*
G01X102628Y42863D01*
G01X102686Y42817D01*
G01X102740Y42777D01*
G01X102791Y42741D01*
G01X102837Y42712D01*
G01X102878Y42688D01*
G01X102914Y42672D01*
G01X102943Y42662D01*
G01X102965Y42660D01*
G01X102979Y42666D01*
G01X102983Y42689D01*
G01X102960Y42723D01*
G01X102910Y42767D01*
G01X102833Y42824D01*
G01X102786Y42857D01*
G01X102740Y42891D01*
G01X102695Y42925D01*
G01X102651Y42960D01*
G01X102607Y42996D01*
G01X102564Y43032D01*
G01X102522Y43068D01*
G01X102481Y43106D01*
G01X102441Y43144D01*
G01X102401Y43183D01*
G01X102325Y43261D01*
G01X102287Y43302D01*
G01X102251Y43343D01*
G01X102216Y43384D01*
G01X102181Y43426D01*
G01X102147Y43468D01*
G01X102114Y43511D01*
G01X102082Y43554D01*
G01X102051Y43599D01*
G01X102020Y43643D01*
G01X101990Y43687D01*
G01X101961Y43733D01*
G01X101933Y43778D01*
G01X101905Y43825D01*
G01X101878Y43871D01*
G01X101852Y43918D01*
G01X101828Y43965D01*
G01X101803Y44013D01*
G01X101780Y44060D01*
G01X101757Y44109D01*
G01X101735Y44157D01*
G01X101714Y44207D01*
G01X101694Y44256D01*
G01X101675Y44305D01*
G01X101656Y44355D01*
G01X101638Y44405D01*
G01X101621Y44456D01*
G01X101605Y44506D01*
G01X101589Y44557D01*
G01X101574Y44608D01*
G01X101560Y44660D01*
G01X101547Y44711D01*
G01X101523Y44815D01*
G01X101513Y44867D01*
G01X101502Y44919D01*
G01X101493Y44972D01*
G01X101485Y45024D01*
G01X101478Y45077D01*
G01X101470Y45130D01*
G01X101459Y45235D01*
G01X101455Y45289D01*
G01X101451Y45342D01*
G01X101447Y45448D01*
G01X101445Y45502D01*
G01X101445Y45608D01*
G01X101448Y45714D01*
G01X101450Y45768D01*
G01X101458Y45874D01*
G01X101468Y45980D01*
G01X101482Y46086D01*
G01X101490Y46139D01*
G01X101499Y46191D01*
G01X101509Y46244D01*
G01X101519Y46296D01*
G01X101530Y46348D01*
G01X101543Y46400D01*
G01X101555Y46452D01*
G01X101569Y46504D01*
G01X101598Y46606D01*
G01X101630Y46708D01*
G01X101648Y46759D01*
G01X101666Y46809D01*
G01X101685Y46859D01*
G01X101705Y46909D01*
G01X101725Y46958D01*
G01X101746Y47007D01*
G01X101791Y47105D01*
G01X101839Y47201D01*
G01X101864Y47248D01*
G01X101916Y47342D01*
G01X101972Y47434D01*
G01X102001Y47479D01*
G01X102061Y47569D01*
G01X102124Y47656D01*
G01X102157Y47700D01*
G01X102225Y47784D01*
G01X102260Y47826D01*
G01X102296Y47867D01*
G01X102333Y47908D01*
G01X102370Y47948D01*
G01X102408Y47988D01*
G01X102447Y48026D01*
G01X102486Y48065D01*
G01X102527Y48103D01*
G01X102568Y48140D01*
G01X102609Y48176D01*
G01X102652Y48212D01*
G01X102740Y48282D01*
G01X102785Y48316D01*
G01X102830Y48349D01*
G01X102877Y48382D01*
G01X102924Y48413D01*
G01X102972Y48445D01*
G01X103020Y48475D01*
G01X103070Y48505D01*
G01X103136Y48547D01*
G01X103174Y48580D01*
G01X103185Y48605D01*
G01X103172Y48628D01*
G01X103155Y48646D01*
G01X103140Y48658D01*
G37*
G36*
G01X104509Y46567D02*
G01X104385Y46651D01*
G01X104274Y46583D01*
G01X104226Y46552D01*
G01X104180Y46519D01*
G01X104137Y46485D01*
G01X104096Y46448D01*
G01X104057Y46412D01*
G01X104021Y46373D01*
G01X103987Y46334D01*
G01X103955Y46294D01*
G01X103926Y46252D01*
G01X103899Y46210D01*
G01X103874Y46166D01*
G01X103851Y46122D01*
G01X103830Y46077D01*
G01X103812Y46032D01*
G01X103796Y45986D01*
G01X103781Y45939D01*
G01X103770Y45892D01*
G01X103760Y45845D01*
G01X103752Y45797D01*
G01X103746Y45749D01*
G01X103742Y45702D01*
G01X103741Y45653D01*
G01X103741Y45606D01*
G01X103743Y45558D01*
G01X103748Y45510D01*
G01X103754Y45463D01*
G01X103762Y45416D01*
G01X103772Y45369D01*
G01X103784Y45323D01*
G01X103798Y45278D01*
G01X103814Y45233D01*
G01X103832Y45189D01*
G01X103851Y45145D01*
G01X103872Y45103D01*
G01X103896Y45061D01*
G01X103921Y45020D01*
G01X103947Y44981D01*
G01X103975Y44942D01*
G01X104005Y44905D01*
G01X104037Y44870D01*
G01X104071Y44835D01*
G01X104106Y44802D01*
G01X104143Y44771D01*
G01X104181Y44741D01*
G01X104221Y44713D01*
G01X104263Y44686D01*
G01X104306Y44662D01*
G01X104351Y44639D01*
G01X104397Y44619D01*
G01X104445Y44600D01*
G01X104495Y44584D01*
G01X104545Y44569D01*
G01X104598Y44558D01*
G01X104652Y44548D01*
G01X104707Y44541D01*
G01X104763Y44536D01*
G01X104820Y44534D01*
G01X104876Y44535D01*
G01X104930Y44537D01*
G01X104983Y44543D01*
G01X105035Y44550D01*
G01X105086Y44560D01*
G01X105136Y44572D01*
G01X105184Y44586D01*
G01X105231Y44602D01*
G01X105277Y44620D01*
G01X105322Y44640D01*
G01X105365Y44662D01*
G01X105406Y44685D01*
G01X105447Y44711D01*
G01X105486Y44738D01*
G01X105524Y44766D01*
G01X105560Y44796D01*
G01X105595Y44827D01*
G01X105628Y44860D01*
G01X105660Y44894D01*
G01X105690Y44929D01*
G01X105719Y44966D01*
G01X105746Y45003D01*
G01X105772Y45042D01*
G01X105796Y45081D01*
G01X105818Y45122D01*
G01X105838Y45163D01*
G01X105858Y45205D01*
G01X105890Y45291D01*
G01X105904Y45334D01*
G01X105926Y45424D01*
G01X105934Y45469D01*
G01X105941Y45514D01*
G01X105945Y45560D01*
G01X105948Y45606D01*
G01X105949Y45652D01*
G01X105947Y45698D01*
G01X105944Y45744D01*
G01X105940Y45790D01*
G01X105933Y45835D01*
G01X105924Y45881D01*
G01X105912Y45926D01*
G01X105899Y45970D01*
G01X105884Y46015D01*
G01X105867Y46059D01*
G01X105847Y46102D01*
G01X105826Y46145D01*
G01X105802Y46186D01*
G01X105776Y46227D01*
G01X105747Y46268D01*
G01X105717Y46307D01*
G01X105684Y46346D01*
G01X105649Y46383D01*
G01X105612Y46419D01*
G01X105572Y46455D01*
G01X105530Y46488D01*
G01X105486Y46521D01*
G01X105438Y46552D01*
G01X105292Y46646D01*
G01X105169Y46565D01*
G01X105114Y46532D01*
G01X105055Y46502D01*
G01X105000Y46477D01*
G01X104954Y46463D01*
G01X104902Y46454D01*
G01X104848Y46452D01*
G01X104792Y46456D01*
G01X104735Y46466D01*
G01X104677Y46482D01*
G01X104620Y46505D01*
G01X104564Y46533D01*
G01X104509Y46567D01*
G37*
G36*
G01X103336Y48478D02*
G01X103304Y48492D01*
G01X103260Y48489D01*
G01X103203Y48468D01*
G01X103129Y48429D01*
G01X103037Y48374D01*
G01X102991Y48344D01*
G01X102938Y48307D01*
G01X102881Y48265D01*
G01X102820Y48217D01*
G01X102758Y48168D01*
G01X102697Y48116D01*
G01X102639Y48065D01*
G01X102585Y48016D01*
G01X102337Y47784D01*
G01X102581Y47627D01*
G01X102618Y47604D01*
G01X102659Y47578D01*
G01X102704Y47549D01*
G01X102752Y47518D01*
G01X102803Y47486D01*
G01X102856Y47453D01*
G01X103018Y47351D01*
G01X103071Y47318D01*
G01X103122Y47286D01*
G01X103171Y47255D01*
G01X103282Y47185D01*
G01X103370Y47127D01*
G01X103436Y47080D01*
G01X103482Y47044D01*
G01X103507Y47017D01*
G01X103513Y46999D01*
G01X103502Y46989D01*
G01X103473Y46986D01*
G01X103462Y46989D01*
G01X103412Y47014D01*
G01X103374Y47034D01*
G01X103329Y47060D01*
G01X103277Y47090D01*
G01X103220Y47124D01*
G01X103157Y47161D01*
G01X103089Y47202D01*
G01X103018Y47246D01*
G01X102944Y47291D01*
G01X102867Y47339D01*
G01X102786Y47390D01*
G01X102713Y47437D01*
G01X102646Y47480D01*
G01X102586Y47517D01*
G01X102531Y47551D01*
G01X102482Y47579D01*
G01X102438Y47603D01*
G01X102399Y47621D01*
G01X102363Y47634D01*
G01X102329Y47642D01*
G01X102299Y47645D01*
G01X102271Y47643D01*
G01X102245Y47634D01*
G01X102219Y47620D01*
G01X102194Y47601D01*
G01X102169Y47575D01*
G01X102144Y47544D01*
G01X102117Y47507D01*
G01X102089Y47463D01*
G01X102058Y47413D01*
G01X102025Y47356D01*
G01X101989Y47293D01*
G01X101949Y47224D01*
G01X101904Y47148D01*
G01X101832Y47024D01*
G01X102088Y46946D01*
G01X102187Y46913D01*
G01X102266Y46881D01*
G01X102317Y46853D01*
G01X102333Y46835D01*
G01X102309Y46813D01*
G01X102253Y46811D01*
G01X102159Y46830D01*
G01X102024Y46870D01*
G01X101951Y46892D01*
G01X101894Y46904D01*
G01X101849Y46905D01*
G01X101813Y46892D01*
G01X101783Y46864D01*
G01X101756Y46818D01*
G01X101730Y46753D01*
G01X101700Y46666D01*
G01X101683Y46618D01*
G01X101669Y46576D01*
G01X101658Y46540D01*
G01X101650Y46509D01*
G01X101648Y46483D01*
G01X101651Y46461D01*
G01X101660Y46442D01*
G01X101678Y46426D01*
G01X101704Y46412D01*
G01X101739Y46400D01*
G01X101784Y46389D01*
G01X101841Y46378D01*
G01X101909Y46367D01*
G01X101991Y46354D01*
G01X102086Y46341D01*
G01X102196Y46325D01*
G01X102341Y46304D01*
G01X102472Y46284D01*
G01X102589Y46267D01*
G01X102692Y46251D01*
G01X102784Y46237D01*
G01X102864Y46224D01*
G01X102934Y46212D01*
G01X102992Y46202D01*
G01X103042Y46192D01*
G01X103083Y46183D01*
G01X103115Y46175D01*
G01X103140Y46168D01*
G01X103159Y46160D01*
G01X103171Y46154D01*
G01X103178Y46148D01*
G01X103180Y46142D01*
G01X103173Y46127D01*
G01X103151Y46118D01*
G01X103115Y46113D01*
G01X103061Y46113D01*
G01X102989Y46118D01*
G01X102899Y46128D01*
G01X102788Y46142D01*
G01X102656Y46162D01*
G01X102591Y46172D01*
G01X102519Y46182D01*
G01X102441Y46194D01*
G01X102359Y46206D01*
G01X102275Y46218D01*
G01X102103Y46244D01*
G01X102020Y46256D01*
G01X101940Y46267D01*
G01X101865Y46278D01*
G01X101797Y46287D01*
G01X101738Y46296D01*
G01X101687Y46303D01*
G01X101649Y46308D01*
G01X101623Y46312D01*
G01X101612Y46313D01*
G01X101603Y46304D01*
G01X101593Y46279D01*
G01X101585Y46240D01*
G01X101577Y46188D01*
G01X101569Y46125D01*
G01X101562Y46053D01*
G01X101555Y45973D01*
G01X101550Y45888D01*
G01X101545Y45799D01*
G01X101541Y45708D01*
G01X101539Y45616D01*
G01X101537Y45525D01*
G01X101536Y45438D01*
G01X101537Y45355D01*
G01X101538Y45278D01*
G01X101541Y45210D01*
G01X101545Y45152D01*
G01X101551Y45106D01*
G01X101558Y45073D01*
G01X101567Y45055D01*
G01X101593Y45053D01*
G01X101653Y45062D01*
G01X101737Y45078D01*
G01X101836Y45102D01*
G01X102010Y45147D01*
G01X102099Y45164D01*
G01X102132Y45155D01*
G01X102137Y45123D01*
G01X102120Y45099D01*
G01X102068Y45072D01*
G01X101984Y45044D01*
G01X101868Y45013D01*
G01X101776Y44991D01*
G01X101706Y44971D01*
G01X101656Y44951D01*
G01X101624Y44930D01*
G01X101607Y44904D01*
G01X101602Y44871D01*
G01X101607Y44829D01*
G01X101620Y44776D01*
G01X101625Y44759D01*
G01X101632Y44747D01*
G01X101643Y44738D01*
G01X101661Y44734D01*
G01X101688Y44736D01*
G01X101726Y44743D01*
G01X101777Y44756D01*
G01X101844Y44777D01*
G01X101929Y44804D01*
G01X102033Y44840D01*
G01X102160Y44883D01*
G01X102312Y44936D01*
G01X102446Y44982D01*
G01X102562Y45022D01*
G01X102660Y45057D01*
G01X102813Y45108D01*
G01X102869Y45127D01*
G01X102914Y45141D01*
G01X102948Y45151D01*
G01X102974Y45157D01*
G01X102991Y45160D01*
G01X103003Y45159D01*
G01X103010Y45156D01*
G01X103013Y45150D01*
G01X103013Y45142D01*
G01X103012Y45133D01*
G01X103012Y45122D01*
G01X103010Y45113D01*
G01X103005Y45104D01*
G01X102994Y45095D01*
G01X102979Y45084D01*
G01X102956Y45071D01*
G01X102925Y45057D01*
G01X102886Y45040D01*
G01X102837Y45021D01*
G01X102778Y44999D01*
G01X102706Y44973D01*
G01X102623Y44943D01*
G01X102525Y44909D01*
G01X102413Y44870D01*
G01X102285Y44827D01*
G01X102141Y44778D01*
G01X101978Y44723D01*
G01X101896Y44696D01*
G01X101829Y44672D01*
G01X101775Y44651D01*
G01X101735Y44629D01*
G01X101708Y44605D01*
G01X101692Y44577D01*
G01X101689Y44542D01*
G01X101697Y44499D01*
G01X101714Y44445D01*
G01X101741Y44378D01*
G01X101778Y44297D01*
G01X101823Y44198D01*
G01X101934Y43951D01*
G01X102356Y44173D01*
G01X102508Y44253D01*
G01X102622Y44312D01*
G01X102703Y44352D01*
G01X102756Y44377D01*
G01X102788Y44386D01*
G01X102804Y44384D01*
G01X102809Y44372D01*
G01X102810Y44353D01*
G01X102805Y44335D01*
G01X102790Y44314D01*
G01X102761Y44290D01*
G01X102715Y44259D01*
G01X102648Y44220D01*
G01X102559Y44171D01*
G01X102442Y44111D01*
G01X102297Y44035D01*
G01X102183Y43976D01*
G01X102089Y43922D01*
G01X102026Y43882D01*
G01X102003Y43859D01*
G01X102007Y43838D01*
G01X102020Y43810D01*
G01X102040Y43775D01*
G01X102068Y43734D01*
G01X102102Y43688D01*
G01X102141Y43638D01*
G01X102186Y43584D01*
G01X102234Y43527D01*
G01X102286Y43469D01*
G01X102342Y43409D01*
G01X102399Y43348D01*
G01X102458Y43287D01*
G01X102517Y43227D01*
G01X102577Y43168D01*
G01X102636Y43112D01*
G01X102694Y43059D01*
G01X102751Y43009D01*
G01X102804Y42965D01*
G01X102854Y42925D01*
G01X102900Y42891D01*
G01X103080Y42767D01*
G01X103189Y42870D01*
G01X103302Y42976D01*
G01X103401Y43069D01*
G01X103487Y43149D01*
G01X103559Y43218D01*
G01X103620Y43277D01*
G01X103671Y43325D01*
G01X103710Y43365D01*
G01X103740Y43397D01*
G01X103762Y43423D01*
G01X103776Y43443D01*
G01X103783Y43457D01*
G01X103785Y43468D01*
G01X103781Y43475D01*
G01X103773Y43480D01*
G01X103761Y43484D01*
G01X103746Y43487D01*
G01X103708Y43502D01*
G01X103682Y43525D01*
G01X103666Y43563D01*
G01X103657Y43616D01*
G01X103648Y43662D01*
G01X103634Y43701D01*
G01X103613Y43730D01*
G01X103589Y43745D01*
G01X103539Y43768D01*
G01X103495Y43798D01*
G01X103456Y43833D01*
G01X103423Y43875D01*
G01X103395Y43920D01*
G01X103372Y43969D01*
G01X103356Y44021D01*
G01X103345Y44075D01*
G01X103339Y44129D01*
G01X103338Y44184D01*
G01X103343Y44238D01*
G01X103354Y44289D01*
G01X103369Y44338D01*
G01X103390Y44383D01*
G01X103416Y44425D01*
G01X103448Y44460D01*
G01X103484Y44489D01*
G01X103525Y44511D01*
G01X103572Y44525D01*
G01X103623Y44529D01*
G01X103651Y44537D01*
G01X103675Y44560D01*
G01X103697Y44595D01*
G01X103714Y44640D01*
G01X103727Y44694D01*
G01X103736Y44754D01*
G01X103740Y44818D01*
G01X103740Y44885D01*
G01X103735Y44951D01*
G01X103725Y45016D01*
G01X103710Y45077D01*
G01X103688Y45132D01*
G01X103667Y45182D01*
G01X103648Y45233D01*
G01X103632Y45285D01*
G01X103618Y45338D01*
G01X103607Y45392D01*
G01X103598Y45447D01*
G01X103593Y45502D01*
G01X103590Y45557D01*
G01X103589Y45613D01*
G01X103591Y45669D01*
G01X103595Y45725D01*
G01X103602Y45780D01*
G01X103611Y45836D01*
G01X103622Y45892D01*
G01X103636Y45947D01*
G01X103651Y46001D01*
G01X103670Y46055D01*
G01X103690Y46108D01*
G01X103712Y46160D01*
G01X103737Y46211D01*
G01X103763Y46261D01*
G01X103792Y46309D01*
G01X103822Y46357D01*
G01X103854Y46402D01*
G01X103889Y46446D01*
G01X103925Y46489D01*
G01X103963Y46529D01*
G01X104002Y46568D01*
G01X104044Y46604D01*
G01X104087Y46638D01*
G01X104132Y46670D01*
G01X104179Y46699D01*
G01X104240Y46739D01*
G01X104269Y46782D01*
G01X104275Y46855D01*
G01X104266Y46985D01*
G01X104262Y47068D01*
G01X104263Y47142D01*
G01X104271Y47210D01*
G01X104285Y47270D01*
G01X104305Y47325D01*
G01X104332Y47374D01*
G01X104365Y47417D01*
G01X104405Y47455D01*
G01X104435Y47491D01*
G01X104453Y47537D01*
G01X104460Y47587D01*
G01X104456Y47637D01*
G01X104443Y47684D01*
G01X104420Y47724D01*
G01X104389Y47750D01*
G01X104352Y47760D01*
G01X104281Y47773D01*
G01X104197Y47807D01*
G01X104118Y47854D01*
G01X104060Y47904D01*
G01X104038Y47922D01*
G01X104009Y47934D01*
G01X103975Y47939D01*
G01X103942Y47937D01*
G01X103882Y47931D01*
G01X103823Y47933D01*
G01X103764Y47945D01*
G01X103706Y47964D01*
G01X103650Y47990D01*
G01X103597Y48023D01*
G01X103548Y48062D01*
G01X103505Y48106D01*
G01X103466Y48155D01*
G01X103434Y48208D01*
G01X103411Y48265D01*
G01X103395Y48324D01*
G01X103380Y48395D01*
G01X103361Y48445D01*
G01X103336Y48478D01*
G37*
G36*
G01X106310Y48508D02*
G01X106277Y48508D01*
G01X106246Y48504D01*
G01X106217Y48496D01*
G01X106190Y48485D01*
G01X106166Y48470D01*
G01X106145Y48450D01*
G01X106092Y48403D01*
G01X106031Y48358D01*
G01X105971Y48321D01*
G01X105918Y48297D01*
G01X105862Y48275D01*
G01X105827Y48249D01*
G01X105808Y48217D01*
G01X105803Y48173D01*
G01X105798Y48122D01*
G01X105784Y48072D01*
G01X105761Y48022D01*
G01X105730Y47975D01*
G01X105693Y47931D01*
G01X105649Y47890D01*
G01X105601Y47853D01*
G01X105549Y47822D01*
G01X105493Y47796D01*
G01X105435Y47776D01*
G01X105375Y47764D01*
G01X105315Y47760D01*
G01X105284Y47749D01*
G01X105258Y47722D01*
G01X105239Y47682D01*
G01X105227Y47635D01*
G01X105223Y47586D01*
G01X105227Y47539D01*
G01X105241Y47500D01*
G01X105265Y47473D01*
G01X105298Y47447D01*
G01X105327Y47409D01*
G01X105353Y47362D01*
G01X105375Y47307D01*
G01X105394Y47247D01*
G01X105408Y47183D01*
G01X105418Y47117D01*
G01X105423Y47050D01*
G01X105423Y46985D01*
G01X105418Y46923D01*
G01X105406Y46867D01*
G01X105388Y46817D01*
G01X105384Y46790D01*
G01X105398Y46763D01*
G01X105431Y46734D01*
G01X105484Y46702D01*
G01X105533Y46673D01*
G01X105581Y46643D01*
G01X105626Y46608D01*
G01X105670Y46572D01*
G01X105712Y46534D01*
G01X105752Y46493D01*
G01X105790Y46450D01*
G01X105826Y46405D01*
G01X105860Y46359D01*
G01X105891Y46310D01*
G01X105921Y46260D01*
G01X105948Y46209D01*
G01X105973Y46156D01*
G01X105996Y46103D01*
G01X106016Y46048D01*
G01X106034Y45992D01*
G01X106050Y45936D01*
G01X106063Y45879D01*
G01X106073Y45821D01*
G01X106082Y45764D01*
G01X106087Y45705D01*
G01X106090Y45647D01*
G01X106091Y45589D01*
G01X106088Y45531D01*
G01X106084Y45473D01*
G01X106075Y45416D01*
G01X106065Y45359D01*
G01X106052Y45303D01*
G01X106035Y45248D01*
G01X106016Y45194D01*
G01X105994Y45141D01*
G01X105969Y45089D01*
G01X105953Y45047D01*
G01X105941Y44996D01*
G01X105936Y44939D01*
G01X105935Y44878D01*
G01X105939Y44816D01*
G01X105947Y44754D01*
G01X105959Y44695D01*
G01X105974Y44641D01*
G01X105992Y44596D01*
G01X106012Y44561D01*
G01X106035Y44537D01*
G01X106059Y44529D01*
G01X106104Y44525D01*
G01X106146Y44513D01*
G01X106184Y44495D01*
G01X106218Y44469D01*
G01X106248Y44438D01*
G01X106274Y44403D01*
G01X106296Y44363D01*
G01X106314Y44319D01*
G01X106328Y44273D01*
G01X106338Y44225D01*
G01X106342Y44176D01*
G01X106343Y44125D01*
G01X106338Y44076D01*
G01X106329Y44027D01*
G01X106315Y43979D01*
G01X106295Y43934D01*
G01X106271Y43892D01*
G01X106242Y43854D01*
G01X106207Y43820D01*
G01X106166Y43791D01*
G01X106115Y43754D01*
G01X106077Y43713D01*
G01X106053Y43667D01*
G01X106038Y43613D01*
G01X106026Y43558D01*
G01X106007Y43523D01*
G01X105978Y43503D01*
G01X105934Y43493D01*
G01X105926Y43486D01*
G01X105929Y43471D01*
G01X105941Y43446D01*
G01X105962Y43415D01*
G01X105989Y43377D01*
G01X106023Y43334D01*
G01X106062Y43288D01*
G01X106105Y43237D01*
G01X106152Y43186D01*
G01X106201Y43133D01*
G01X106252Y43080D01*
G01X106303Y43028D01*
G01X106353Y42978D01*
G01X106402Y42932D01*
G01X106447Y42890D01*
G01X106490Y42853D01*
G01X106528Y42822D01*
G01X106560Y42799D01*
G01X106586Y42785D01*
G01X106604Y42780D01*
G01X106626Y42785D01*
G01X106655Y42798D01*
G01X106692Y42821D01*
G01X106734Y42850D01*
G01X106782Y42886D01*
G01X106834Y42926D01*
G01X106888Y42972D01*
G01X106945Y43020D01*
G01X107003Y43071D01*
G01X107061Y43124D01*
G01X107117Y43176D01*
G01X107171Y43229D01*
G01X107222Y43280D01*
G01X107269Y43329D01*
G01X107310Y43374D01*
G01X107345Y43415D01*
G01X107373Y43451D01*
G01X107393Y43481D01*
G01X107403Y43503D01*
G01X107402Y43517D01*
G01X107384Y43537D01*
G01X107349Y43563D01*
G01X107304Y43591D01*
G01X107253Y43619D01*
G01X107201Y43648D01*
G01X107151Y43680D01*
G01X107110Y43710D01*
G01X107083Y43736D01*
G01X107064Y43766D01*
G01X107063Y43784D01*
G01X107077Y43791D01*
G01X107107Y43789D01*
G01X107148Y43776D01*
G01X107199Y43754D01*
G01X107259Y43723D01*
G01X107324Y43683D01*
G01X107489Y43578D01*
G01X107546Y43657D01*
G01X107572Y43696D01*
G01X107603Y43741D01*
G01X107634Y43789D01*
G01X107661Y43831D01*
G01X107721Y43926D01*
G01X107443Y44054D01*
G01X107384Y44081D01*
G01X107258Y44139D01*
G01X107195Y44167D01*
G01X107135Y44194D01*
G01X107079Y44219D01*
G01X107030Y44242D01*
G01X106988Y44260D01*
G01X106886Y44309D01*
G01X106830Y44345D01*
G01X106815Y44374D01*
G01X106831Y44403D01*
G01X106839Y44406D01*
G01X106851Y44407D01*
G01X106869Y44403D01*
G01X106894Y44396D01*
G01X106928Y44384D01*
G01X106970Y44367D01*
G01X107022Y44345D01*
G01X107084Y44318D01*
G01X107159Y44285D01*
G01X107246Y44246D01*
G01X107347Y44200D01*
G01X107462Y44146D01*
G01X107566Y44099D01*
G01X107655Y44060D01*
G01X107720Y44034D01*
G01X107751Y44025D01*
G01X107764Y44030D01*
G01X107779Y44047D01*
G01X107797Y44074D01*
G01X107837Y44154D01*
G01X107859Y44206D01*
G01X107882Y44264D01*
G01X107906Y44326D01*
G01X107930Y44394D01*
G01X107955Y44464D01*
G01X107979Y44537D01*
G01X108003Y44611D01*
G01X108026Y44686D01*
G01X108048Y44760D01*
G01X108069Y44833D01*
G01X108088Y44903D01*
G01X108104Y44969D01*
G01X108119Y45032D01*
G01X108131Y45089D01*
G01X108140Y45140D01*
G01X108146Y45184D01*
G01X108149Y45219D01*
G01X108147Y45245D01*
G01X108142Y45261D01*
G01X108134Y45263D01*
G01X108115Y45267D01*
G01X108084Y45273D01*
G01X108042Y45282D01*
G01X107991Y45291D01*
G01X107930Y45302D01*
G01X107862Y45314D01*
G01X107787Y45327D01*
G01X107705Y45342D01*
G01X107618Y45357D01*
G01X107527Y45373D01*
G01X107432Y45389D01*
G01X107335Y45406D01*
G01X107241Y45422D01*
G01X107150Y45437D01*
G01X107062Y45452D01*
G01X106979Y45466D01*
G01X106902Y45480D01*
G01X106832Y45491D01*
G01X106769Y45502D01*
G01X106716Y45512D01*
G01X106672Y45519D01*
G01X106639Y45525D01*
G01X106618Y45528D01*
G01X106575Y45539D01*
G01X106543Y45553D01*
G01X106524Y45570D01*
G01X106520Y45585D01*
G01X106530Y45600D01*
G01X106548Y45609D01*
G01X106579Y45613D01*
G01X106625Y45612D01*
G01X106687Y45606D01*
G01X106768Y45595D01*
G01X106871Y45578D01*
G01X106997Y45555D01*
G01X107062Y45544D01*
G01X107129Y45532D01*
G01X107199Y45520D01*
G01X107270Y45507D01*
G01X107343Y45494D01*
G01X107489Y45470D01*
G01X107561Y45458D01*
G01X107632Y45446D01*
G01X107701Y45434D01*
G01X107766Y45424D01*
G01X107829Y45414D01*
G01X107887Y45405D01*
G01X107940Y45396D01*
G01X107989Y45389D01*
G01X108030Y45383D01*
G01X108066Y45378D01*
G01X108094Y45374D01*
G01X108114Y45371D01*
G01X108125Y45370D01*
G01X108136Y45375D01*
G01X108144Y45389D01*
G01X108150Y45413D01*
G01X108154Y45449D01*
G01X108155Y45497D01*
G01X108155Y45560D01*
G01X108153Y45638D01*
G01X108148Y45732D01*
G01X108142Y45838D01*
G01X108134Y45938D01*
G01X108125Y46030D01*
G01X108114Y46114D01*
G01X108102Y46189D01*
G01X108090Y46256D01*
G01X108076Y46313D01*
G01X108062Y46360D01*
G01X108047Y46395D01*
G01X108031Y46419D01*
G01X108015Y46432D01*
G01X107999Y46432D01*
G01X107947Y46416D01*
G01X107878Y46401D01*
G01X107798Y46385D01*
G01X107715Y46372D01*
G01X107636Y46362D01*
G01X107567Y46355D01*
G01X107518Y46354D01*
G01X107494Y46359D01*
G01X107486Y46374D01*
G01X107490Y46390D01*
G01X107508Y46405D01*
G01X107540Y46421D01*
G01X107584Y46437D01*
G01X107642Y46453D01*
G01X107712Y46469D01*
G01X107797Y46485D01*
G01X107889Y46504D01*
G01X107958Y46525D01*
G01X108001Y46544D01*
G01X108012Y46562D01*
G01X108002Y46591D01*
G01X107986Y46640D01*
G01X107964Y46704D01*
G01X107941Y46776D01*
G01X107917Y46844D01*
G01X107897Y46900D01*
G01X107881Y46938D01*
G01X107872Y46952D01*
G01X107862Y46949D01*
G01X107838Y46941D01*
G01X107802Y46927D01*
G01X107755Y46910D01*
G01X107700Y46888D01*
G01X107637Y46864D01*
G01X107569Y46838D01*
G01X107496Y46809D01*
G01X107422Y46780D01*
G01X107272Y46720D01*
G01X107200Y46692D01*
G01X107132Y46664D01*
G01X107070Y46639D01*
G01X107015Y46617D01*
G01X106970Y46597D01*
G01X106837Y46542D01*
G01X106770Y46521D01*
G01X106748Y46530D01*
G01X106745Y46566D01*
G01X106750Y46588D01*
G01X106762Y46609D01*
G01X106781Y46627D01*
G01X106803Y46639D01*
G01X106840Y46652D01*
G01X106891Y46671D01*
G01X106953Y46695D01*
G01X107025Y46723D01*
G01X107104Y46754D01*
G01X107189Y46786D01*
G01X107275Y46820D01*
G01X107363Y46855D01*
G01X107449Y46889D01*
G01X107531Y46921D01*
G01X107607Y46951D01*
G01X107674Y46978D01*
G01X107731Y47001D01*
G01X107775Y47019D01*
G01X107803Y47031D01*
G01X107814Y47036D01*
G01X107812Y47056D01*
G01X107794Y47098D01*
G01X107765Y47155D01*
G01X107729Y47219D01*
G01X107691Y47282D01*
G01X107656Y47336D01*
G01X107627Y47375D01*
G01X107610Y47389D01*
G01X107584Y47381D01*
G01X107532Y47360D01*
G01X107463Y47328D01*
G01X107384Y47289D01*
G01X107248Y47224D01*
G01X107166Y47194D01*
G01X107126Y47197D01*
G01X107115Y47231D01*
G01X107133Y47256D01*
G01X107183Y47291D01*
G01X107258Y47332D01*
G01X107349Y47375D01*
G01X107583Y47476D01*
G01X107373Y47727D01*
G01X107319Y47791D01*
G01X107264Y47852D01*
G01X107209Y47911D01*
G01X107155Y47968D01*
G01X107101Y48022D01*
G01X107047Y48074D01*
G01X106993Y48123D01*
G01X106940Y48170D01*
G01X106888Y48214D01*
G01X106836Y48255D01*
G01X106786Y48293D01*
G01X106736Y48328D01*
G01X106687Y48361D01*
G01X106639Y48390D01*
G01X106593Y48416D01*
G01X106547Y48439D01*
G01X106504Y48459D01*
G01X106462Y48475D01*
G01X106421Y48489D01*
G01X106382Y48499D01*
G01X106345Y48505D01*
G01X106310Y48508D01*
G37*
G36*
G01X105689Y43082D02*
G01X103995Y43082D01*
G01X103905Y42965D01*
G01X103815Y42847D01*
G01X105029Y42847D01*
G01X105126Y42848D01*
G01X105218Y42848D01*
G01X105307Y42849D01*
G01X105390Y42850D01*
G01X105468Y42851D01*
G01X105540Y42852D01*
G01X105605Y42854D01*
G01X105664Y42855D01*
G01X105714Y42856D01*
G01X105757Y42858D01*
G01X105791Y42860D01*
G01X105816Y42861D01*
G01X105832Y42863D01*
G01X105837Y42865D01*
G01X105831Y42880D01*
G01X105815Y42907D01*
G01X105792Y42943D01*
G01X105763Y42983D01*
G01X105689Y43082D01*
G37*
G36*
G01X104026Y44680D02*
G01X103889Y44804D01*
G01X103868Y44709D01*
G01X103859Y44669D01*
G01X103850Y44632D01*
G01X103843Y44601D01*
G01X103839Y44581D01*
G01X103844Y44563D01*
G01X103863Y44538D01*
G01X103895Y44509D01*
G01X103934Y44479D01*
G01X103978Y44444D01*
G01X104022Y44400D01*
G01X104060Y44350D01*
G01X104088Y44303D01*
G01X104138Y44195D01*
G01X105517Y44176D01*
G01X105585Y44307D01*
G01X105620Y44362D01*
G01X105663Y44415D01*
G01X105709Y44461D01*
G01X105753Y44492D01*
G01X105808Y44525D01*
G01X105834Y44557D01*
G01X105837Y44600D01*
G01X105823Y44670D01*
G01X105792Y44794D01*
G01X105657Y44679D01*
G01X105594Y44629D01*
G01X105521Y44577D01*
G01X105448Y44531D01*
G01X105383Y44496D01*
G01X105327Y44470D01*
G01X105270Y44448D01*
G01X105211Y44429D01*
G01X105153Y44412D01*
G01X105094Y44399D01*
G01X105034Y44388D01*
G01X104974Y44380D01*
G01X104913Y44375D01*
G01X104853Y44374D01*
G01X104792Y44375D01*
G01X104732Y44378D01*
G01X104672Y44385D01*
G01X104613Y44395D01*
G01X104554Y44407D01*
G01X104496Y44422D01*
G01X104439Y44440D01*
G01X104382Y44460D01*
G01X104327Y44484D01*
G01X104273Y44509D01*
G01X104221Y44538D01*
G01X104169Y44570D01*
G01X104120Y44604D01*
G01X104072Y44640D01*
G01X104026Y44680D01*
G37*
G36*
G01X103776Y44386D02*
G01X103730Y44393D01*
G01X103684Y44390D01*
G01X103639Y44378D01*
G01X103595Y44357D01*
G01X103556Y44326D01*
G01X103525Y44288D01*
G01X103502Y44242D01*
G01X103488Y44189D01*
G01X103482Y44134D01*
G01X103484Y44080D01*
G01X103494Y44029D01*
G01X103513Y43985D01*
G01X103542Y43951D01*
G01X103581Y43921D01*
G01X103622Y43900D01*
G01X103663Y43886D01*
G01X103703Y43878D01*
G01X103743Y43878D01*
G01X103782Y43883D01*
G01X103818Y43894D01*
G01X103853Y43910D01*
G01X103884Y43931D01*
G01X103913Y43955D01*
G01X103937Y43984D01*
G01X103958Y44015D01*
G01X103973Y44048D01*
G01X103983Y44084D01*
G01X103988Y44121D01*
G01X103986Y44159D01*
G01X103977Y44198D01*
G01X103961Y44237D01*
G01X103937Y44275D01*
G01X103904Y44312D01*
G01X103864Y44346D01*
G01X103821Y44370D01*
G01X103776Y44386D01*
G37*
G36*
G01X105074Y43491D02*
G01X104995Y43491D01*
G01X104914Y43490D01*
G01X104831Y43488D01*
G01X104749Y43486D01*
G01X104667Y43483D01*
G01X104589Y43479D01*
G01X104516Y43475D01*
G01X104448Y43470D01*
G01X104388Y43464D01*
G01X104338Y43458D01*
G01X104299Y43452D01*
G01X104271Y43445D01*
G01X104257Y43437D01*
G01X104248Y43422D01*
G01X104249Y43411D01*
G01X104262Y43401D01*
G01X104291Y43394D01*
G01X104338Y43389D01*
G01X104404Y43385D01*
G01X104493Y43381D01*
G01X104606Y43378D01*
G01X104683Y43376D01*
G01X104751Y43373D01*
G01X104810Y43369D01*
G01X104861Y43365D01*
G01X104904Y43361D01*
G01X104938Y43356D01*
G01X104964Y43351D01*
G01X104981Y43346D01*
G01X104990Y43340D01*
G01X104991Y43334D01*
G01X104984Y43328D01*
G01X104969Y43323D01*
G01X104945Y43317D01*
G01X104913Y43312D01*
G01X104873Y43306D01*
G01X104825Y43301D01*
G01X104769Y43296D01*
G01X104705Y43292D01*
G01X104633Y43288D01*
G01X104553Y43285D01*
G01X104480Y43282D01*
G01X104413Y43278D01*
G01X104352Y43275D01*
G01X104297Y43271D01*
G01X104247Y43267D01*
G01X104204Y43264D01*
G01X104165Y43260D01*
G01X104132Y43256D01*
G01X104104Y43252D01*
G01X104083Y43248D01*
G01X104066Y43243D01*
G01X104054Y43239D01*
G01X104048Y43235D01*
G01X104047Y43231D01*
G01X104051Y43227D01*
G01X104060Y43223D01*
G01X104074Y43219D01*
G01X104093Y43215D01*
G01X104117Y43211D01*
G01X104146Y43207D01*
G01X104180Y43204D01*
G01X104218Y43201D01*
G01X104261Y43198D01*
G01X104308Y43195D01*
G01X104360Y43192D01*
G01X104416Y43190D01*
G01X104477Y43188D01*
G01X104543Y43187D01*
G01X104612Y43185D01*
G01X104686Y43184D01*
G01X105132Y43184D01*
G01X105244Y43185D01*
G01X105336Y43187D01*
G01X105411Y43189D01*
G01X105469Y43192D01*
G01X105514Y43196D01*
G01X105545Y43201D01*
G01X105564Y43207D01*
G01X105574Y43214D01*
G01X105575Y43223D01*
G01X105569Y43232D01*
G01X105540Y43253D01*
G01X105491Y43270D01*
G01X105428Y43284D01*
G01X105357Y43291D01*
G01X105285Y43299D01*
G01X105229Y43311D01*
G01X105190Y43326D01*
G01X105170Y43343D01*
G01X105169Y43359D01*
G01X105189Y43373D01*
G01X105231Y43382D01*
G01X105296Y43385D01*
G01X105375Y43390D01*
G01X105421Y43405D01*
G01X105433Y43429D01*
G01X105411Y43464D01*
G01X105396Y43471D01*
G01X105367Y43477D01*
G01X105327Y43481D01*
G01X105276Y43485D01*
G01X105215Y43488D01*
G01X105148Y43490D01*
G01X105074Y43491D01*
G37*
G36*
G01X105532Y44018D02*
G01X105497Y44036D01*
G01X105465Y44034D01*
G01X105438Y44013D01*
G01X105418Y43973D01*
G01X105404Y43915D01*
G01X105399Y43839D01*
G01X105399Y43654D01*
G01X105635Y43654D01*
G01X105721Y43655D01*
G01X105786Y43660D01*
G01X105831Y43666D01*
G01X105856Y43676D01*
G01X105862Y43691D01*
G01X105848Y43709D01*
G01X105817Y43733D01*
G01X105768Y43763D01*
G01X105724Y43794D01*
G01X105679Y43834D01*
G01X105639Y43878D01*
G01X105609Y43923D01*
G01X105570Y43981D01*
G01X105532Y44018D01*
G37*
G36*
G01X105332Y44025D02*
G01X104357Y44025D01*
G01X104357Y43654D01*
G01X105332Y43654D01*
G01X105332Y44025D01*
G37*
G36*
G01X104202Y44029D02*
G01X104178Y44035D01*
G01X104150Y44022D01*
G01X104122Y43991D01*
G01X104094Y43939D01*
G01X104069Y43901D01*
G01X104031Y43859D01*
G01X103986Y43819D01*
G01X103937Y43785D01*
G01X103882Y43750D01*
G01X103846Y43722D01*
G01X103829Y43700D01*
G01X103831Y43682D01*
G01X103852Y43669D01*
G01X103894Y43661D01*
G01X103955Y43656D01*
G01X104037Y43654D01*
G01X104256Y43654D01*
G01X104256Y43839D01*
G01X104252Y43910D01*
G01X104241Y43966D01*
G01X104224Y44006D01*
G01X104202Y44029D01*
G37*
G36*
G01X105016Y49093D02*
G01X104881Y49093D01*
G01X104812Y49092D01*
G01X104672Y49088D01*
G01X104602Y49084D01*
G01X104534Y49081D01*
G01X104466Y49077D01*
G01X104401Y49072D01*
G01X104338Y49067D01*
G01X104278Y49061D01*
G01X104221Y49054D01*
G01X104168Y49048D01*
G01X104120Y49041D01*
G01X104076Y49033D01*
G01X104037Y49025D01*
G01X103970Y49007D01*
G01X103895Y48985D01*
G01X103814Y48959D01*
G01X103730Y48931D01*
G01X103646Y48902D01*
G01X103565Y48871D01*
G01X103489Y48842D01*
G01X103421Y48813D01*
G01X103364Y48787D01*
G01X103320Y48765D01*
G01X103291Y48747D01*
G01X103280Y48735D01*
G01X103306Y48679D01*
G01X103366Y48630D01*
G01X103433Y48604D01*
G01X103482Y48617D01*
G01X103517Y48651D01*
G01X103552Y48668D01*
G01X103584Y48670D01*
G01X103609Y48660D01*
G01X103626Y48638D01*
G01X103633Y48607D01*
G01X103625Y48569D01*
G01X103602Y48526D01*
G01X103576Y48479D01*
G01X103559Y48431D01*
G01X103553Y48382D01*
G01X103555Y48334D01*
G01X103565Y48287D01*
G01X103584Y48243D01*
G01X103610Y48203D01*
G01X103642Y48168D01*
G01X103681Y48138D01*
G01X103725Y48115D01*
G01X103774Y48101D01*
G01X103827Y48096D01*
G01X103888Y48100D01*
G01X103928Y48117D01*
G01X103956Y48152D01*
G01X103983Y48214D01*
G01X104008Y48272D01*
G01X104035Y48309D01*
G01X104061Y48326D01*
G01X104086Y48324D01*
G01X104106Y48304D01*
G01X104120Y48266D01*
G01X104128Y48212D01*
G01X104126Y48142D01*
G01X104128Y48093D01*
G01X104141Y48049D01*
G01X104162Y48011D01*
G01X104193Y47980D01*
G01X104230Y47956D01*
G01X104273Y47939D01*
G01X104320Y47930D01*
G01X104369Y47929D01*
G01X104419Y47937D01*
G01X104470Y47954D01*
G01X104517Y47980D01*
G01X104563Y48016D01*
G01X104627Y48065D01*
G01X104679Y48080D01*
G01X104714Y48062D01*
G01X104727Y48010D01*
G01X104733Y47989D01*
G01X104753Y47974D01*
G01X104785Y47965D01*
G01X104828Y47961D01*
G01X104882Y47964D01*
G01X104910Y47975D01*
G01X104917Y48000D01*
G01X104909Y48045D01*
G01X104913Y48110D01*
G01X104947Y48156D01*
G01X104990Y48167D01*
G01X105024Y48129D01*
G01X105047Y48079D01*
G01X105078Y48035D01*
G01X105116Y47999D01*
G01X105160Y47970D01*
G01X105209Y47948D01*
G01X105261Y47934D01*
G01X105315Y47928D01*
G01X105369Y47930D01*
G01X105424Y47941D01*
G01X105476Y47960D01*
G01X105525Y47989D01*
G01X105570Y48026D01*
G01X105609Y48069D01*
G01X105638Y48113D01*
G01X105656Y48156D01*
G01X105665Y48200D01*
G01X105662Y48243D01*
G01X105651Y48288D01*
G01X105629Y48333D01*
G01X105598Y48378D01*
G01X105561Y48434D01*
G01X105543Y48481D01*
G01X105541Y48519D01*
G01X105552Y48545D01*
G01X105576Y48556D01*
G01X105610Y48552D01*
G01X105651Y48529D01*
G01X105700Y48486D01*
G01X105736Y48462D01*
G01X105781Y48451D01*
G01X105834Y48455D01*
G01X105891Y48469D01*
G01X105950Y48493D01*
G01X106008Y48525D01*
G01X106063Y48564D01*
G01X106113Y48607D01*
G01X106153Y48655D01*
G01X106183Y48703D01*
G01X106199Y48752D01*
G01X106199Y48799D01*
G01X106186Y48822D01*
G01X106157Y48846D01*
G01X106114Y48871D01*
G01X106062Y48894D01*
G01X106002Y48917D01*
G01X105939Y48938D01*
G01X105876Y48955D01*
G01X105816Y48968D01*
G01X105761Y48976D01*
G01X105715Y48978D01*
G01X105682Y48973D01*
G01X105663Y48960D01*
G01X105631Y48918D01*
G01X105588Y48884D01*
G01X105537Y48858D01*
G01X105479Y48841D01*
G01X105419Y48830D01*
G01X105358Y48828D01*
G01X105299Y48834D01*
G01X105245Y48847D01*
G01X105199Y48869D01*
G01X105163Y48897D01*
G01X105139Y48933D01*
G01X105131Y48976D01*
G01X105145Y49000D01*
G01X105181Y49003D01*
G01X105225Y48987D01*
G01X105265Y48954D01*
G01X105319Y48916D01*
G01X105388Y48906D01*
G01X105463Y48923D01*
G01X105538Y48967D01*
G01X105616Y49031D01*
G01X105432Y49066D01*
G01X105396Y49072D01*
G01X105354Y49077D01*
G01X105307Y49082D01*
G01X105257Y49085D01*
G01X105201Y49089D01*
G01X105142Y49091D01*
G01X105080Y49092D01*
G01X105016Y49093D01*
G37*

%LPD*%
G36*
G01X104115Y48869D02*
G01X104077Y48890D01*
G01X104049Y48882D01*
G01X104046Y48841D01*
G01X104042Y48814D01*
G01X104017Y48805D01*
G01X103973Y48813D01*
G01X103914Y48839D01*
G01X103887Y48852D01*
G01X103861Y48859D01*
G01X103841Y48861D01*
G01X103828Y48857D01*
G01X103825Y48823D01*
G01X103859Y48783D01*
G01X103918Y48744D01*
G01X103992Y48718D01*
G01X104038Y48705D01*
G01X104089Y48688D01*
G01X104140Y48668D01*
G01X104183Y48649D01*
G01X104232Y48627D01*
G01X104285Y48614D01*
G01X104339Y48608D01*
G01X104392Y48609D01*
G01X104444Y48618D01*
G01X104494Y48632D01*
G01X104539Y48651D01*
G01X104579Y48676D01*
G01X104612Y48705D01*
G01X104638Y48740D01*
G01X104654Y48777D01*
G01X104660Y48818D01*
G01X104650Y48858D01*
G01X104625Y48868D01*
G01X104592Y48848D01*
G01X104558Y48801D01*
G01X104519Y48750D01*
G01X104469Y48714D01*
G01X104411Y48693D01*
G01X104350Y48689D01*
G01X104289Y48699D01*
G01X104233Y48724D01*
G01X104185Y48765D01*
G01X104149Y48820D01*
G01X104115Y48869D01*
G37*

%LPD*%
G36*
G01X105226Y48629D02*
G01X105207Y48629D01*
G01X105187Y48603D01*
G01X105164Y48550D01*
G01X105140Y48501D01*
G01X105109Y48463D01*
G01X105073Y48435D01*
G01X105032Y48417D01*
G01X104985Y48411D01*
G01X104935Y48416D01*
G01X104881Y48433D01*
G01X104824Y48460D01*
G01X104740Y48499D01*
G01X104697Y48499D01*
G01X104698Y48462D01*
G01X104749Y48393D01*
G01X104780Y48367D01*
G01X104817Y48348D01*
G01X104858Y48337D01*
G01X104904Y48333D01*
G01X104951Y48335D01*
G01X105000Y48342D01*
G01X105047Y48354D01*
G01X105094Y48371D01*
G01X105137Y48392D01*
G01X105176Y48416D01*
G01X105209Y48444D01*
G01X105235Y48473D01*
G01X105254Y48505D01*
G01X105262Y48537D01*
G01X105260Y48570D01*
G01X105246Y48604D01*
G01X105226Y48629D01*
G37*

%LPD*%
G36*
G01X104578Y46409D02*
G01X104552Y46411D01*
G01X104524Y46396D01*
G01X104493Y46365D01*
G01X104470Y46320D01*
G01X104475Y46282D01*
G01X104507Y46255D01*
G01X104561Y46245D01*
G01X104601Y46262D01*
G01X104625Y46300D01*
G01X104627Y46348D01*
G01X104603Y46391D01*
G01X104578Y46409D01*
G37*

%LPD*%
G36*
G01X105198Y46363D02*
G01X105156Y46392D01*
G01X105112Y46390D01*
G01X105077Y46361D01*
G01X105063Y46309D01*
G01X105068Y46282D01*
G01X105080Y46262D01*
G01X105101Y46250D01*
G01X105129Y46245D01*
G01X105182Y46255D01*
G01X105213Y46282D01*
G01X105220Y46319D01*
G01X105198Y46363D01*
G37*

%LPD*%
G36*
G01X104152Y45972D02*
G01X104125Y45977D01*
G01X104074Y45962D01*
G01X104045Y45928D01*
G01X104042Y45884D01*
G01X104071Y45841D01*
G01X104115Y45820D01*
G01X104153Y45826D01*
G01X104179Y45857D01*
G01X104189Y45911D01*
G01X104185Y45939D01*
G01X104172Y45959D01*
G01X104152Y45972D01*
G37*

%LPD*%
G36*
G01X105587Y45972D02*
G01X105561Y45973D01*
G01X105533Y45959D01*
G01X105501Y45927D01*
G01X105479Y45883D01*
G01X105484Y45844D01*
G01X105516Y45818D01*
G01X105570Y45808D01*
G01X105610Y45824D01*
G01X105634Y45862D01*
G01X105636Y45910D01*
G01X105613Y45954D01*
G01X105587Y45972D01*
G37*

%LPD*%
G36*
G01X104151Y45366D02*
G01X104123Y45370D01*
G01X104070Y45361D01*
G01X104038Y45334D01*
G01X104032Y45297D01*
G01X104054Y45253D01*
G01X104096Y45225D01*
G01X104141Y45227D01*
G01X104175Y45256D01*
G01X104189Y45307D01*
G01X104184Y45334D01*
G01X104172Y45354D01*
G01X104151Y45366D01*
G37*

%LPD*%
G36*
G01X105590Y45357D02*
G01X105543Y45363D01*
G01X105499Y45341D01*
G01X105473Y45294D01*
G01X105481Y45248D01*
G01X105516Y45217D01*
G01X105563Y45208D01*
G01X105608Y45229D01*
G01X105620Y45248D01*
G01X105627Y45271D01*
G01X105628Y45296D01*
G01X105623Y45320D01*
G01X105590Y45357D01*
G37*

%LPD*%
G36*
G01X104892Y46048D02*
G01X104833Y46051D01*
G01X104775Y46046D01*
G01X104719Y46033D01*
G01X104665Y46015D01*
G01X104614Y45990D01*
G01X104567Y45959D01*
G01X104524Y45923D01*
G01X104486Y45881D01*
G01X104453Y45835D01*
G01X104427Y45783D01*
G01X104407Y45728D01*
G01X104395Y45669D01*
G01X104390Y45607D01*
G01X104395Y45538D01*
G01X104405Y45474D01*
G01X104423Y45414D01*
G01X104448Y45359D01*
G01X104479Y45310D01*
G01X104516Y45265D01*
G01X104559Y45227D01*
G01X104607Y45195D01*
G01X104660Y45169D01*
G01X104718Y45151D01*
G01X104780Y45139D01*
G01X104846Y45135D01*
G01X104900Y45138D01*
G01X104952Y45148D01*
G01X105000Y45163D01*
G01X105045Y45184D01*
G01X105086Y45209D01*
G01X105125Y45239D01*
G01X105159Y45273D01*
G01X105190Y45310D01*
G01X105216Y45350D01*
G01X105239Y45393D01*
G01X105258Y45438D01*
G01X105272Y45484D01*
G01X105282Y45531D01*
G01X105287Y45579D01*
G01X105288Y45628D01*
G01X105285Y45675D01*
G01X105275Y45723D01*
G01X105262Y45769D01*
G01X105243Y45813D01*
G01X105219Y45855D01*
G01X105190Y45894D01*
G01X105155Y45931D01*
G01X105114Y45963D01*
G01X105069Y45992D01*
G01X105010Y46019D01*
G01X104951Y46037D01*
G01X104892Y46048D01*
G37*

%LPC*%
G36*
G01X104876Y45903D02*
G01X104824Y45908D01*
G01X104773Y45902D01*
G01X104722Y45884D01*
G01X104672Y45853D01*
G01X104624Y45810D01*
G01X104586Y45767D01*
G01X104558Y45722D01*
G01X104539Y45676D01*
G01X104528Y45630D01*
G01X104526Y45583D01*
G01X104530Y45538D01*
G01X104541Y45494D01*
G01X104559Y45453D01*
G01X104581Y45415D01*
G01X104609Y45380D01*
G01X104641Y45349D01*
G01X104677Y45323D01*
G01X104717Y45303D01*
G01X104758Y45288D01*
G01X104802Y45280D01*
G01X104848Y45280D01*
G01X104894Y45287D01*
G01X104940Y45303D01*
G01X104987Y45328D01*
G01X105032Y45363D01*
G01X105082Y45416D01*
G01X105117Y45472D01*
G01X105139Y45529D01*
G01X105146Y45588D01*
G01X105140Y45647D01*
G01X105119Y45705D01*
G01X105085Y45760D01*
G01X105036Y45812D01*
G01X104982Y45855D01*
G01X104929Y45885D01*
G01X104876Y45903D01*
G37*

%LPD*%
G36*
G01X104589Y44936D02*
G01X104543Y44955D01*
G01X104507Y44952D01*
G01X104483Y44926D01*
G01X104475Y44880D01*
G01X104479Y44855D01*
G01X104492Y44832D01*
G01X104511Y44814D01*
G01X104534Y44805D01*
G01X104582Y44814D01*
G01X104613Y44850D01*
G01X104618Y44897D01*
G01X104589Y44936D01*
G37*

%LPD*%
G36*
G01X105154Y44952D02*
G01X105117Y44954D01*
G01X105087Y44927D01*
G01X105069Y44872D01*
G01X105068Y44838D01*
G01X105076Y44815D01*
G01X105095Y44803D01*
G01X105126Y44798D01*
G01X105181Y44809D01*
G01X105213Y44835D01*
G01X105219Y44874D01*
G01X105196Y44919D01*
G01X105154Y44952D01*
G37*

%LPD*%
G36*
G01X102729Y42283D02*
G01X102683Y42290D01*
G01X102651Y42282D01*
G01X102636Y42262D01*
G01X102639Y42230D01*
G01X102665Y42188D01*
G01X102714Y42138D01*
G01X102793Y42069D01*
G01X102698Y42127D01*
G01X102648Y42155D01*
G01X102614Y42167D01*
G01X102591Y42160D01*
G01X102572Y42138D01*
G01X102548Y42094D01*
G01X102547Y42063D01*
G01X102573Y42039D01*
G01X102629Y42010D01*
G01X102662Y41993D01*
G01X102686Y41976D01*
G01X102699Y41962D01*
G01X102699Y41951D01*
G01X102686Y41949D01*
G01X102663Y41954D01*
G01X102633Y41967D01*
G01X102600Y41986D01*
G01X102545Y42015D01*
G01X102506Y42018D01*
G01X102482Y41997D01*
G01X102474Y41953D01*
G01X102505Y41906D01*
G01X102580Y41845D01*
G01X102666Y41793D01*
G01X102732Y41770D01*
G01X102749Y41779D01*
G01X102771Y41802D01*
G01X102796Y41837D01*
G01X102820Y41880D01*
G01X102846Y41928D01*
G01X102875Y41978D01*
G01X102904Y42025D01*
G01X102929Y42062D01*
G01X102956Y42105D01*
G01X102957Y42137D01*
G01X102925Y42172D01*
G01X102855Y42222D01*
G01X102787Y42261D01*
G01X102729Y42283D01*
G37*

%LPD*%
G36*
G01X106909Y42230D02*
G01X106877Y42237D01*
G01X106830Y42219D01*
G01X106752Y42174D01*
G01X106707Y42143D01*
G01X106670Y42109D01*
G01X106641Y42075D01*
G01X106620Y42040D01*
G01X106606Y42003D01*
G01X106599Y41968D01*
G01X106598Y41933D01*
G01X106603Y41900D01*
G01X106614Y41868D01*
G01X106631Y41838D01*
G01X106653Y41812D01*
G01X106679Y41789D01*
G01X106709Y41769D01*
G01X106745Y41755D01*
G01X106783Y41745D01*
G01X106824Y41740D01*
G01X106868Y41742D01*
G01X106915Y41750D01*
G01X106964Y41765D01*
G01X107015Y41788D01*
G01X107054Y41809D01*
G01X107085Y41829D01*
G01X107107Y41846D01*
G01X107115Y41857D01*
G01X107109Y41877D01*
G01X107093Y41915D01*
G01X107069Y41964D01*
G01X107041Y42020D01*
G01X107011Y42077D01*
G01X106982Y42129D01*
G01X106957Y42172D01*
G01X106939Y42199D01*
G01X106909Y42230D01*
G37*

%LPC*%
G36*
G01X106838Y42048D02*
G01X106793Y42050D01*
G01X106759Y42019D01*
G01X106752Y41959D01*
G01X106761Y41929D01*
G01X106779Y41904D01*
G01X106805Y41887D01*
G01X106837Y41877D01*
G01X106886Y41878D01*
G01X106909Y41900D01*
G01X106907Y41942D01*
G01X106879Y42007D01*
G01X106838Y42048D01*
G37*

%LPD*%
G36*
G01X103136Y42049D02*
G01X103087Y42050D01*
G01X103055Y42040D01*
G01X103041Y42021D01*
G01X103049Y41994D01*
G01X103081Y41961D01*
G01X103139Y41923D01*
G01X103172Y41904D01*
G01X103195Y41888D01*
G01X103206Y41877D01*
G01X103203Y41872D01*
G01X103187Y41875D01*
G01X103164Y41882D01*
G01X103137Y41893D01*
G01X103110Y41906D01*
G01X103047Y41919D01*
G01X103018Y41887D01*
G01X103029Y41829D01*
G01X103082Y41765D01*
G01X103163Y41702D01*
G01X103068Y41736D01*
G01X103007Y41754D01*
G01X102961Y41757D01*
G01X102932Y41747D01*
G01X102919Y41729D01*
G01X102924Y41703D01*
G01X102946Y41671D01*
G01X102986Y41637D01*
G01X103045Y41602D01*
G01X103151Y41552D01*
G01X103216Y41543D01*
G01X103259Y41577D01*
G01X103300Y41661D01*
G01X103341Y41758D01*
G01X103371Y41830D01*
G01X103388Y41882D01*
G01X103392Y41919D01*
G01X103383Y41945D01*
G01X103360Y41964D01*
G01X103323Y41984D01*
G01X103272Y42007D01*
G01X103199Y42034D01*
G01X103136Y42049D01*
G37*

%LPD*%
G36*
G01X103895Y41628D02*
G01X103833Y41635D01*
G01X103776Y41621D01*
G01X103751Y41589D01*
G01X103774Y41551D01*
G01X103826Y41524D01*
G01X103886Y41516D01*
G01X103931Y41533D01*
G01X103941Y41547D01*
G01X103945Y41565D01*
G01X103945Y41582D01*
G01X103938Y41599D01*
G01X103895Y41628D01*
G37*

%LPD*%
G36*
G01X106400Y41964D02*
G01X106366Y41982D01*
G01X106320Y41969D01*
G01X106282Y41955D01*
G01X106239Y41938D01*
G01X106195Y41921D01*
G01X106157Y41906D01*
G01X106118Y41886D01*
G01X106094Y41863D01*
G01X106085Y41840D01*
G01X106089Y41818D01*
G01X106106Y41800D01*
G01X106133Y41787D01*
G01X106172Y41781D01*
G01X106219Y41786D01*
G01X106275Y41795D01*
G01X106296Y41796D01*
G01X106284Y41788D01*
G01X106242Y41769D01*
G01X106180Y41741D01*
G01X106151Y41720D01*
G01X106146Y41697D01*
G01X106158Y41659D01*
G01X106172Y41635D01*
G01X106192Y41623D01*
G01X106222Y41625D01*
G01X106264Y41639D01*
G01X106300Y41650D01*
G01X106330Y41656D01*
G01X106354Y41659D01*
G01X106368Y41654D01*
G01X106367Y41645D01*
G01X106353Y41633D01*
G01X106328Y41618D01*
G01X106295Y41604D01*
G01X106240Y41581D01*
G01X106214Y41561D01*
G01X106211Y41534D01*
G01X106226Y41490D01*
G01X106242Y41466D01*
G01X106271Y41460D01*
G01X106322Y41474D01*
G01X106407Y41507D01*
G01X106568Y41574D01*
G01X106484Y41787D01*
G01X106435Y41904D01*
G01X106400Y41964D01*
G37*

%LPD*%
G36*
G01X105832Y41797D02*
G01X105795Y41804D01*
G01X105737Y41796D01*
G01X105681Y41773D01*
G01X105633Y41741D01*
G01X105595Y41705D01*
G01X105573Y41668D01*
G01X105567Y41635D01*
G01X105584Y41610D01*
G01X105626Y41598D01*
G01X105658Y41596D01*
G01X105669Y41592D01*
G01X105658Y41587D01*
G01X105626Y41579D01*
G01X105589Y41566D01*
G01X105572Y41545D01*
G01X105574Y41507D01*
G01X105589Y41440D01*
G01X105626Y41376D01*
G01X105688Y41334D01*
G01X105766Y41317D01*
G01X105848Y41331D01*
G01X105916Y41364D01*
G01X105969Y41404D01*
G01X106007Y41451D01*
G01X106029Y41502D01*
G01X106036Y41556D01*
G01X106026Y41612D01*
G01X106000Y41668D01*
G01X105956Y41722D01*
G01X105918Y41754D01*
G01X105875Y41779D01*
G01X105832Y41797D01*
G37*

%LPC*%
G36*
G01X105817Y41665D02*
G01X105780Y41668D01*
G01X105744Y41658D01*
G01X105719Y41636D01*
G01X105715Y41622D01*
G01X105720Y41612D01*
G01X105732Y41605D01*
G01X105751Y41602D01*
G01X105781Y41595D01*
G01X105801Y41574D01*
G01X105809Y41539D01*
G01X105807Y41492D01*
G01X105808Y41483D01*
G01X105814Y41475D01*
G01X105824Y41470D01*
G01X105837Y41468D01*
G01X105859Y41490D01*
G01X105870Y41544D01*
G01X105866Y41604D01*
G01X105848Y41647D01*
G01X105817Y41665D01*
G37*

%LPD*%
G36*
G01X105393Y41703D02*
G01X105228Y41703D01*
G01X105159Y41697D01*
G01X105104Y41682D01*
G01X105067Y41661D01*
G01X105047Y41636D01*
G01X105047Y41611D01*
G01X105067Y41589D01*
G01X105108Y41573D01*
G01X105172Y41565D01*
G01X105282Y41560D01*
G01X105181Y41539D01*
G01X105130Y41523D01*
G01X105093Y41503D01*
G01X105071Y41480D01*
G01X105065Y41457D01*
G01X105073Y41434D01*
G01X105096Y41416D01*
G01X105134Y41402D01*
G01X105187Y41396D01*
G01X105316Y41391D01*
G01X105205Y41370D01*
G01X105162Y41360D01*
G01X105127Y41348D01*
G01X105104Y41336D01*
G01X105096Y41324D01*
G01X105096Y41312D01*
G01X105097Y41297D01*
G01X105097Y41265D01*
G01X105109Y41251D01*
G01X105143Y41240D01*
G01X105191Y41234D01*
G01X105246Y41233D01*
G01X105304Y41235D01*
G01X105356Y41241D01*
G01X105396Y41253D01*
G01X105418Y41267D01*
G01X105424Y41297D01*
G01X105426Y41351D01*
G01X105423Y41422D01*
G01X105416Y41503D01*
G01X105393Y41703D01*
G37*

%LPD*%
G36*
G01X104535Y41705D02*
G01X104500Y41723D01*
G01X104466Y41718D01*
G01X104436Y41693D01*
G01X104412Y41647D01*
G01X104396Y41583D01*
G01X104390Y41501D01*
G01X104390Y41421D01*
G01X104388Y41351D01*
G01X104385Y41300D01*
G01X104382Y41274D01*
G01X104385Y41263D01*
G01X104399Y41253D01*
G01X104420Y41244D01*
G01X104449Y41238D01*
G01X104488Y41236D01*
G01X104511Y41247D01*
G01X104524Y41274D01*
G01X104528Y41322D01*
G01X104530Y41417D01*
G01X104564Y41324D01*
G01X104600Y41260D01*
G01X104641Y41235D01*
G01X104682Y41251D01*
G01X104714Y41307D01*
G01X104739Y41383D01*
G01X104759Y41299D01*
G01X104780Y41237D01*
G01X104802Y41200D01*
G01X104824Y41187D01*
G01X104846Y41196D01*
G01X104865Y41227D01*
G01X104881Y41277D01*
G01X104891Y41346D01*
G01X104895Y41431D01*
G01X104890Y41523D01*
G01X104875Y41596D01*
G01X104853Y41649D01*
G01X104825Y41683D01*
G01X104793Y41694D01*
G01X104758Y41682D01*
G01X104722Y41646D01*
G01X104687Y41584D01*
G01X104648Y41499D01*
G01X104605Y41601D01*
G01X104571Y41665D01*
G01X104535Y41705D01*
G37*

%LPD*%
G54D26*
G01X101466Y75993D02*
G01X104421Y76640D01*
G01X101466Y75439D02*
G01X104421Y76085D01*
G01X102666Y76640D02*
G01X102666Y75346D01*
G01X103220Y76732D02*
G01X103220Y75439D01*
G01X102297Y73351D02*
G01X102112Y73444D01*
G01X101927Y73628D01*
G01X101835Y73813D01*
G01X101835Y74183D01*
G01X101927Y74367D01*
G01X102112Y74552D01*
G01X102297Y74644D01*
G01X102574Y74737D01*
G01X103036Y74737D01*
G01X103313Y74644D01*
G01X103498Y74552D01*
G01X103682Y74367D01*
G01X103775Y74183D01*
G01X103775Y73813D01*
G01X103682Y73628D01*
G01X103498Y73444D01*
G01X103313Y73351D01*
G01X102482Y72280D02*
G01X102574Y72465D01*
G01X102759Y72649D01*
G01X103036Y72742D01*
G01X103220Y72742D01*
G01X103498Y72649D01*
G01X103682Y72465D01*
G01X103775Y72280D01*
G01X103775Y72003D01*
G01X103682Y71818D01*
G01X103498Y71633D01*
G01X103220Y71541D01*
G01X103036Y71541D01*
G01X102759Y71633D01*
G01X102574Y71818D01*
G01X102482Y72003D01*
G01X102482Y72280D01*
G01X102482Y70931D02*
G01X103775Y70931D01*
G01X103036Y70931D02*
G01X102759Y70839D01*
G01X102574Y70654D01*
G01X102482Y70470D01*
G01X102482Y70193D01*
G01X102482Y69121D02*
G01X102574Y69306D01*
G01X102759Y69491D01*
G01X103036Y69583D01*
G01X103220Y69583D01*
G01X103498Y69491D01*
G01X103682Y69306D01*
G01X103775Y69121D01*
G01X103775Y68844D01*
G01X103682Y68659D01*
G01X103498Y68475D01*
G01X103220Y68382D01*
G01X103036Y68382D01*
G01X102759Y68475D01*
G01X102574Y68659D01*
G01X102482Y68844D01*
G01X102482Y69121D01*
G01X102482Y67773D02*
G01X103775Y67773D01*
G01X102851Y67773D02*
G01X102574Y67496D01*
G01X102482Y67311D01*
G01X102482Y67034D01*
G01X102574Y66849D01*
G01X102851Y66757D01*
G01X103775Y66757D01*
G01X102482Y65039D02*
G01X103775Y65039D01*
G01X102759Y65039D02*
G01X102574Y65223D01*
G01X102482Y65408D01*
G01X102482Y65685D01*
G01X102574Y65870D01*
G01X102759Y66055D01*
G01X103036Y66147D01*
G01X103220Y66147D01*
G01X103498Y66055D01*
G01X103682Y65870D01*
G01X103775Y65685D01*
G01X103775Y65408D01*
G01X103682Y65223D01*
G01X103498Y65039D01*
G01X101835Y64429D02*
G01X103775Y64429D01*
G01X101835Y64429D02*
G01X101835Y63598D01*
G01X101927Y63321D01*
G01X102020Y63228D01*
G01X102204Y63136D01*
G01X102482Y63136D01*
G01X102666Y63228D01*
G01X102759Y63321D01*
G01X102851Y63598D01*
G01X102851Y64429D01*
G01X102482Y62526D02*
G01X103775Y62526D01*
G01X103036Y62526D02*
G01X102759Y62434D01*
G01X102574Y62249D01*
G01X102482Y62065D01*
G01X102482Y61787D01*
G01X102482Y60716D02*
G01X102574Y60901D01*
G01X102759Y61085D01*
G01X103036Y61178D01*
G01X103220Y61178D01*
G01X103498Y61085D01*
G01X103682Y60901D01*
G01X103775Y60716D01*
G01X103775Y60439D01*
G01X103682Y60254D01*
G01X103498Y60069D01*
G01X103220Y59977D01*
G01X103036Y59977D01*
G01X102759Y60069D01*
G01X102574Y60254D01*
G01X102482Y60439D01*
G01X102482Y60716D01*
G01X102482Y58906D02*
G01X102574Y59090D01*
G01X102759Y59275D01*
G01X103036Y59368D01*
G01X103220Y59368D01*
G01X103498Y59275D01*
G01X103682Y59090D01*
G01X103775Y58906D01*
G01X103775Y58629D01*
G01X103682Y58444D01*
G01X103498Y58259D01*
G01X103220Y58167D01*
G01X103036Y58167D01*
G01X102759Y58259D01*
G01X102574Y58444D01*
G01X102482Y58629D01*
G01X102482Y58906D01*
G01X101835Y56818D02*
G01X101835Y57003D01*
G01X101927Y57188D01*
G01X102204Y57280D01*
G01X103775Y57280D01*
G01X102482Y57557D02*
G01X102482Y56911D01*
G01X105364Y4586D02*
G01X106045Y3631D01*
G01X105021Y3631D01*
G01X105364Y4586D02*
G01X105364Y3153D01*
G01X103550Y4245D02*
G01X103616Y4380D01*
G01X103753Y4517D01*
G01X103891Y4586D01*
G01X104162Y4586D01*
G01X104300Y4517D01*
G01X104434Y4380D01*
G01X104503Y4245D01*
G01X104571Y4040D01*
G01X104571Y3699D01*
G01X104503Y3493D01*
G01X104434Y3359D01*
G01X104300Y3222D01*
G01X104162Y3153D01*
G01X103891Y3153D01*
G01X103753Y3222D01*
G01X103616Y3359D01*
G01X103550Y3493D01*
G01X103550Y3699D01*
G01X103891Y3699D02*
G01X103550Y3699D01*
G01X21543Y75609D02*
G01X21588Y75700D01*
G01X21679Y75790D01*
G01X21770Y75836D01*
G01X21952Y75836D01*
G01X22043Y75790D01*
G01X22134Y75700D01*
G01X22179Y75609D01*
G01X22225Y75472D01*
G01X22225Y75245D01*
G01X22179Y75109D01*
G01X22134Y75018D01*
G01X22043Y74927D01*
G01X21952Y74881D01*
G01X21770Y74881D01*
G01X21679Y74927D01*
G01X21588Y75018D01*
G01X21543Y75109D01*
G01X21543Y75245D01*
G01X21770Y75245D02*
G01X21543Y75245D01*
G01X21243Y75836D02*
G01X21243Y74881D01*
G01X21243Y75836D02*
G01X20606Y74881D01*
G01X20606Y75836D02*
G01X20606Y74881D01*
G01X20306Y75836D02*
G01X20306Y74881D01*
G01X20306Y75836D02*
G01X19988Y75836D01*
G01X19852Y75790D01*
G01X19761Y75700D01*
G01X19715Y75609D01*
G01X19670Y75472D01*
G01X19670Y75245D01*
G01X19715Y75109D01*
G01X19761Y75018D01*
G01X19852Y74927D01*
G01X19988Y74881D01*
G01X20306Y74881D01*
G01X22225Y73296D02*
G01X22225Y72341D01*
G01X22225Y72341D02*
G01X21679Y72341D01*
G01X21015Y73296D02*
G01X21379Y72341D01*
G01X21015Y73296D02*
G01X20652Y72341D01*
G01X21243Y72660D02*
G01X20788Y72660D01*
G01X20034Y73296D02*
G01X20034Y72341D01*
G01X20352Y73296D02*
G01X19715Y73296D01*
G01X21543Y70529D02*
G01X21588Y70620D01*
G01X21679Y70710D01*
G01X21770Y70756D01*
G01X21952Y70756D01*
G01X22043Y70710D01*
G01X22134Y70620D01*
G01X22179Y70529D01*
G01X22225Y70392D01*
G01X22225Y70165D01*
G01X22179Y70029D01*
G01X22134Y69938D01*
G01X22043Y69847D01*
G01X21952Y69801D01*
G01X21770Y69801D01*
G01X21679Y69847D01*
G01X21588Y69938D01*
G01X21543Y70029D01*
G01X21243Y70756D02*
G01X21243Y69801D01*
G01X21243Y69801D02*
G01X20697Y69801D01*
G01X20397Y70756D02*
G01X20397Y69801D01*
G01X19761Y70756D02*
G01X20397Y70120D01*
G01X20170Y70347D02*
G01X19761Y69801D01*
G01X22225Y68216D02*
G01X22225Y67261D01*
G01X22225Y68216D02*
G01X21906Y68216D01*
G01X21770Y68170D01*
G01X21679Y68080D01*
G01X21634Y67989D01*
G01X21588Y67852D01*
G01X21588Y67625D01*
G01X21634Y67489D01*
G01X21679Y67398D01*
G01X21770Y67307D01*
G01X21906Y67261D01*
G01X22225Y67261D01*
G01X20925Y68216D02*
G01X21288Y67261D01*
G01X20925Y68216D02*
G01X20561Y67261D01*
G01X21152Y67580D02*
G01X20697Y67580D01*
G01X19943Y68216D02*
G01X19943Y67261D01*
G01X20261Y68216D02*
G01X19625Y68216D01*
G01X18961Y68216D02*
G01X19325Y67261D01*
G01X18961Y68216D02*
G01X18597Y67261D01*
G01X19188Y67580D02*
G01X18734Y67580D01*
G01X21679Y65676D02*
G01X22134Y65676D01*
G01X22179Y65267D01*
G01X22134Y65312D01*
G01X21997Y65358D01*
G01X21861Y65358D01*
G01X21725Y65312D01*
G01X21634Y65221D01*
G01X21588Y65085D01*
G01X21588Y64994D01*
G01X21634Y64858D01*
G01X21725Y64767D01*
G01X21861Y64721D01*
G01X21997Y64721D01*
G01X22134Y64767D01*
G01X22179Y64812D01*
G01X22225Y64903D01*
G01X21288Y65676D02*
G01X20925Y64721D01*
G01X20561Y65676D02*
G01X20925Y64721D01*
G01X22179Y62909D02*
G01X22179Y62954D01*
G01X22134Y63045D01*
G01X22088Y63090D01*
G01X21997Y63136D01*
G01X21815Y63136D01*
G01X21725Y63090D01*
G01X21679Y63045D01*
G01X21634Y62954D01*
G01X21634Y62863D01*
G01X21679Y62772D01*
G01X21770Y62636D01*
G01X22225Y62181D01*
G01X21588Y62181D01*
G01X21015Y63136D02*
G01X21152Y63090D01*
G01X21243Y62954D01*
G01X21288Y62727D01*
G01X21288Y62590D01*
G01X21243Y62363D01*
G01X21152Y62227D01*
G01X21015Y62181D01*
G01X20925Y62181D01*
G01X20788Y62227D01*
G01X20697Y62363D01*
G01X20652Y62590D01*
G01X20652Y62727D01*
G01X20697Y62954D01*
G01X20788Y63090D01*
G01X20925Y63136D01*
G01X21015Y63136D01*
G01X20352Y63136D02*
G01X19988Y62181D01*
G01X19625Y63136D02*
G01X19988Y62181D01*
G01X31703Y75610D02*
G01X31748Y75701D01*
G01X31839Y75791D01*
G01X31930Y75837D01*
G01X32112Y75837D01*
G01X32203Y75791D01*
G01X32294Y75701D01*
G01X32339Y75610D01*
G01X32385Y75473D01*
G01X32385Y75246D01*
G01X32339Y75110D01*
G01X32294Y75019D01*
G01X32203Y74928D01*
G01X32112Y74882D01*
G01X31930Y74882D01*
G01X31839Y74928D01*
G01X31748Y75019D01*
G01X31703Y75110D01*
G01X31703Y75246D01*
G01X31930Y75246D02*
G01X31703Y75246D01*
G01X31403Y75837D02*
G01X31403Y74882D01*
G01X31403Y75837D02*
G01X30766Y74882D01*
G01X30766Y75837D02*
G01X30766Y74882D01*
G01X30466Y75837D02*
G01X30466Y74882D01*
G01X30466Y75837D02*
G01X30148Y75837D01*
G01X30012Y75791D01*
G01X29921Y75701D01*
G01X29875Y75610D01*
G01X29830Y75473D01*
G01X29830Y75246D01*
G01X29875Y75110D01*
G01X29921Y75019D01*
G01X30012Y74928D01*
G01X30148Y74882D01*
G01X30466Y74882D01*
G01X35560Y73296D02*
G01X35560Y72341D01*
G01X35560Y72341D02*
G01X35014Y72341D01*
G01X34350Y73296D02*
G01X34714Y72341D01*
G01X34350Y73296D02*
G01X33987Y72341D01*
G01X34578Y72660D02*
G01X34123Y72660D01*
G01X33369Y73296D02*
G01X33369Y72341D01*
G01X33687Y73296D02*
G01X33050Y73296D01*
G01X32750Y72750D02*
G01X31932Y72750D01*
G01X31632Y73296D02*
G01X31632Y72341D01*
G01X31632Y73296D02*
G01X31041Y73296D01*
G01X31632Y72841D02*
G01X31269Y72841D01*
G01X31632Y72341D02*
G01X31041Y72341D01*
G01X30741Y73296D02*
G01X30741Y72341D01*
G01X30741Y73296D02*
G01X30105Y72341D01*
G01X30105Y73296D02*
G01X30105Y72341D01*
G01X34878Y70529D02*
G01X34923Y70620D01*
G01X35014Y70710D01*
G01X35105Y70756D01*
G01X35287Y70756D01*
G01X35378Y70710D01*
G01X35469Y70620D01*
G01X35514Y70529D01*
G01X35560Y70392D01*
G01X35560Y70165D01*
G01X35514Y70029D01*
G01X35469Y69938D01*
G01X35378Y69847D01*
G01X35287Y69801D01*
G01X35105Y69801D01*
G01X35014Y69847D01*
G01X34923Y69938D01*
G01X34878Y70029D01*
G01X34578Y70756D02*
G01X34578Y69801D01*
G01X34578Y69801D02*
G01X34032Y69801D01*
G01X33732Y70756D02*
G01X33732Y69801D01*
G01X33096Y70756D02*
G01X33732Y70120D01*
G01X33505Y70347D02*
G01X33096Y69801D01*
G01X32796Y70210D02*
G01X31978Y70210D01*
G01X31678Y70756D02*
G01X31678Y69801D01*
G01X31678Y70756D02*
G01X31087Y70756D01*
G01X31678Y70301D02*
G01X31314Y70301D01*
G01X31678Y69801D02*
G01X31087Y69801D01*
G01X30787Y70756D02*
G01X30787Y69801D01*
G01X30787Y70756D02*
G01X30150Y69801D01*
G01X30150Y70756D02*
G01X30150Y69801D01*
G01X36830Y68216D02*
G01X36830Y67261D01*
G01X36830Y68216D02*
G01X36511Y68216D01*
G01X36375Y68170D01*
G01X36284Y68080D01*
G01X36239Y67989D01*
G01X36193Y67852D01*
G01X36193Y67625D01*
G01X36239Y67489D01*
G01X36284Y67398D01*
G01X36375Y67307D01*
G01X36511Y67261D01*
G01X36830Y67261D01*
G01X35530Y68216D02*
G01X35893Y67261D01*
G01X35530Y68216D02*
G01X35166Y67261D01*
G01X35757Y67580D02*
G01X35302Y67580D01*
G01X34548Y68216D02*
G01X34548Y67261D01*
G01X34866Y68216D02*
G01X34230Y68216D01*
G01X33566Y68216D02*
G01X33930Y67261D01*
G01X33566Y68216D02*
G01X33202Y67261D01*
G01X33793Y67580D02*
G01X33339Y67580D01*
G01X32902Y67670D02*
G01X32084Y67670D01*
G01X31784Y68216D02*
G01X31784Y67261D01*
G01X31784Y68216D02*
G01X31193Y68216D01*
G01X31784Y67761D02*
G01X31420Y67761D01*
G01X31784Y67261D02*
G01X31193Y67261D01*
G01X30893Y68216D02*
G01X30893Y67261D01*
G01X30893Y68216D02*
G01X30257Y67261D01*
G01X30257Y68216D02*
G01X30257Y67261D01*
G01X31204Y65676D02*
G01X31659Y65676D01*
G01X31704Y65267D01*
G01X31659Y65312D01*
G01X31522Y65358D01*
G01X31386Y65358D01*
G01X31250Y65312D01*
G01X31159Y65221D01*
G01X31113Y65085D01*
G01X31113Y64994D01*
G01X31159Y64858D01*
G01X31250Y64767D01*
G01X31386Y64721D01*
G01X31522Y64721D01*
G01X31659Y64767D01*
G01X31704Y64812D01*
G01X31750Y64903D01*
G01X30813Y65676D02*
G01X30450Y64721D01*
G01X30086Y65676D02*
G01X30450Y64721D01*
G01X32339Y62910D02*
G01X32339Y62955D01*
G01X32294Y63046D01*
G01X32248Y63091D01*
G01X32157Y63137D01*
G01X31975Y63137D01*
G01X31885Y63091D01*
G01X31839Y63046D01*
G01X31794Y62955D01*
G01X31794Y62864D01*
G01X31839Y62773D01*
G01X31930Y62637D01*
G01X32385Y62182D01*
G01X31748Y62182D01*
G01X31175Y63137D02*
G01X31312Y63091D01*
G01X31403Y62955D01*
G01X31448Y62728D01*
G01X31448Y62592D01*
G01X31403Y62364D01*
G01X31312Y62228D01*
G01X31175Y62182D01*
G01X31085Y62182D01*
G01X30948Y62228D01*
G01X30857Y62364D01*
G01X30812Y62592D01*
G01X30812Y62728D01*
G01X30857Y62955D01*
G01X30948Y63091D01*
G01X31085Y63137D01*
G01X31175Y63137D01*
G01X30512Y63137D02*
G01X30148Y62182D01*
G01X29785Y63137D02*
G01X30148Y62182D01*
G01X27940Y78376D02*
G01X27940Y77421D01*
G01X27640Y78376D02*
G01X27640Y77421D01*
G01X27640Y78376D02*
G01X27003Y77421D01*
G01X27003Y78376D02*
G01X27003Y77421D01*
G01X26703Y78376D02*
G01X26703Y77421D01*
G01X26703Y78376D02*
G01X26294Y78376D01*
G01X26158Y78330D01*
G01X26112Y78285D01*
G01X26067Y78194D01*
G01X26067Y78058D01*
G01X26112Y77967D01*
G01X26158Y77921D01*
G01X26294Y77876D01*
G01X26703Y77876D01*
G01X25767Y78376D02*
G01X25767Y77694D01*
G01X25721Y77558D01*
G01X25630Y77467D01*
G01X25494Y77421D01*
G01X25403Y77421D01*
G01X25267Y77467D01*
G01X25176Y77558D01*
G01X25130Y77694D01*
G01X25130Y78376D01*
G01X24512Y78376D02*
G01X24512Y77421D01*
G01X24830Y78376D02*
G01X24194Y78376D01*
G01X28302Y36467D02*
G01X28393Y36421D01*
G01X28484Y36330D01*
G01X28529Y36239D01*
G01X28575Y36103D01*
G01X28575Y35876D01*
G01X28529Y35739D01*
G01X28484Y35649D01*
G01X28393Y35558D01*
G01X28302Y35512D01*
G01X28120Y35512D01*
G01X28029Y35558D01*
G01X27938Y35649D01*
G01X27893Y35739D01*
G01X27847Y35876D01*
G01X27847Y36103D01*
G01X27893Y36239D01*
G01X27938Y36330D01*
G01X28029Y36421D01*
G01X28120Y36467D01*
G01X28302Y36467D01*
G01X27547Y36467D02*
G01X27547Y35785D01*
G01X27502Y35649D01*
G01X27411Y35558D01*
G01X27275Y35512D01*
G01X27184Y35512D01*
G01X27047Y35558D01*
G01X26956Y35649D01*
G01X26911Y35785D01*
G01X26911Y36467D01*
G01X26293Y36467D02*
G01X26293Y35512D01*
G01X26611Y36467D02*
G01X25975Y36467D01*
G01X25675Y36467D02*
G01X25675Y35512D01*
G01X25675Y36467D02*
G01X25265Y36467D01*
G01X25129Y36421D01*
G01X25084Y36376D01*
G01X25038Y36285D01*
G01X25038Y36149D01*
G01X25084Y36058D01*
G01X25129Y36012D01*
G01X25265Y35967D01*
G01X25675Y35967D01*
G01X24738Y36467D02*
G01X24738Y35785D01*
G01X24693Y35649D01*
G01X24602Y35558D01*
G01X24465Y35512D01*
G01X24375Y35512D01*
G01X24238Y35558D01*
G01X24147Y35649D01*
G01X24102Y35785D01*
G01X24102Y36467D01*
G01X23484Y36467D02*
G01X23484Y35512D01*
G01X23802Y36467D02*
G01X23165Y36467D01*
G01X21543Y33699D02*
G01X21588Y33790D01*
G01X21679Y33880D01*
G01X21770Y33926D01*
G01X21952Y33926D01*
G01X22043Y33880D01*
G01X22134Y33790D01*
G01X22179Y33699D01*
G01X22225Y33562D01*
G01X22225Y33335D01*
G01X22179Y33199D01*
G01X22134Y33108D01*
G01X22043Y33017D01*
G01X21952Y32971D01*
G01X21770Y32971D01*
G01X21679Y33017D01*
G01X21588Y33108D01*
G01X21543Y33199D01*
G01X21543Y33335D01*
G01X21770Y33335D02*
G01X21543Y33335D01*
G01X21243Y33926D02*
G01X21243Y32971D01*
G01X21243Y33926D02*
G01X20606Y32971D01*
G01X20606Y33926D02*
G01X20606Y32971D01*
G01X20306Y33926D02*
G01X20306Y32971D01*
G01X20306Y33926D02*
G01X19988Y33926D01*
G01X19852Y33880D01*
G01X19761Y33790D01*
G01X19715Y33699D01*
G01X19670Y33562D01*
G01X19670Y33335D01*
G01X19715Y33199D01*
G01X19761Y33108D01*
G01X19852Y33017D01*
G01X19988Y32971D01*
G01X20306Y32971D01*
G01X22225Y31386D02*
G01X22225Y30431D01*
G01X22225Y30431D02*
G01X21679Y30431D01*
G01X21015Y31386D02*
G01X21379Y30431D01*
G01X21015Y31386D02*
G01X20652Y30431D01*
G01X21243Y30750D02*
G01X20788Y30750D01*
G01X20034Y31386D02*
G01X20034Y30431D01*
G01X20352Y31386D02*
G01X19715Y31386D01*
G01X21543Y28619D02*
G01X21588Y28710D01*
G01X21679Y28800D01*
G01X21770Y28846D01*
G01X21952Y28846D01*
G01X22043Y28800D01*
G01X22134Y28710D01*
G01X22179Y28619D01*
G01X22225Y28482D01*
G01X22225Y28255D01*
G01X22179Y28119D01*
G01X22134Y28028D01*
G01X22043Y27937D01*
G01X21952Y27891D01*
G01X21770Y27891D01*
G01X21679Y27937D01*
G01X21588Y28028D01*
G01X21543Y28119D01*
G01X21243Y28846D02*
G01X21243Y27891D01*
G01X21243Y27891D02*
G01X20697Y27891D01*
G01X20397Y28846D02*
G01X20397Y27891D01*
G01X19761Y28846D02*
G01X20397Y28210D01*
G01X20170Y28437D02*
G01X19761Y27891D01*
G01X22225Y26306D02*
G01X22225Y25351D01*
G01X22225Y26306D02*
G01X21906Y26306D01*
G01X21770Y26260D01*
G01X21679Y26170D01*
G01X21634Y26079D01*
G01X21588Y25942D01*
G01X21588Y25715D01*
G01X21634Y25579D01*
G01X21679Y25488D01*
G01X21770Y25397D01*
G01X21906Y25351D01*
G01X22225Y25351D01*
G01X20925Y26306D02*
G01X21288Y25351D01*
G01X20925Y26306D02*
G01X20561Y25351D01*
G01X21152Y25670D02*
G01X20697Y25670D01*
G01X19943Y26306D02*
G01X19943Y25351D01*
G01X20261Y26306D02*
G01X19625Y26306D01*
G01X18961Y26306D02*
G01X19325Y25351D01*
G01X18961Y26306D02*
G01X18597Y25351D01*
G01X19188Y25670D02*
G01X18734Y25670D01*
G01X21679Y23766D02*
G01X22134Y23766D01*
G01X22179Y23357D01*
G01X22134Y23402D01*
G01X21997Y23448D01*
G01X21861Y23448D01*
G01X21725Y23402D01*
G01X21634Y23311D01*
G01X21588Y23175D01*
G01X21588Y23084D01*
G01X21634Y22948D01*
G01X21725Y22857D01*
G01X21861Y22811D01*
G01X21997Y22811D01*
G01X22134Y22857D01*
G01X22179Y22902D01*
G01X22225Y22993D01*
G01X21288Y23766D02*
G01X20925Y22811D01*
G01X20561Y23766D02*
G01X20925Y22811D01*
G01X22179Y20999D02*
G01X22179Y21044D01*
G01X22134Y21135D01*
G01X22088Y21180D01*
G01X21997Y21226D01*
G01X21815Y21226D01*
G01X21725Y21180D01*
G01X21679Y21135D01*
G01X21634Y21044D01*
G01X21634Y20953D01*
G01X21679Y20862D01*
G01X21770Y20726D01*
G01X22225Y20271D01*
G01X21588Y20271D01*
G01X21015Y21226D02*
G01X21152Y21180D01*
G01X21243Y21044D01*
G01X21288Y20817D01*
G01X21288Y20680D01*
G01X21243Y20453D01*
G01X21152Y20317D01*
G01X21015Y20271D01*
G01X20925Y20271D01*
G01X20788Y20317D01*
G01X20697Y20453D01*
G01X20652Y20680D01*
G01X20652Y20817D01*
G01X20697Y21044D01*
G01X20788Y21180D01*
G01X20925Y21226D01*
G01X21015Y21226D01*
G01X20352Y21226D02*
G01X19988Y20271D01*
G01X19625Y21226D02*
G01X19988Y20271D01*
G01X32339Y21000D02*
G01X32339Y21045D01*
G01X32294Y21136D01*
G01X32248Y21181D01*
G01X32157Y21227D01*
G01X31975Y21227D01*
G01X31885Y21181D01*
G01X31839Y21136D01*
G01X31794Y21045D01*
G01X31794Y20954D01*
G01X31839Y20863D01*
G01X31930Y20727D01*
G01X32385Y20272D01*
G01X31748Y20272D01*
G01X31175Y21227D02*
G01X31312Y21181D01*
G01X31403Y21045D01*
G01X31448Y20818D01*
G01X31448Y20682D01*
G01X31403Y20454D01*
G01X31312Y20318D01*
G01X31175Y20272D01*
G01X31085Y20272D01*
G01X30948Y20318D01*
G01X30857Y20454D01*
G01X30812Y20682D01*
G01X30812Y20818D01*
G01X30857Y21045D01*
G01X30948Y21181D01*
G01X31085Y21227D01*
G01X31175Y21227D01*
G01X30512Y21227D02*
G01X30148Y20272D01*
G01X29785Y21227D02*
G01X30148Y20272D01*
G01X31204Y23766D02*
G01X31659Y23766D01*
G01X31704Y23357D01*
G01X31659Y23402D01*
G01X31522Y23448D01*
G01X31386Y23448D01*
G01X31250Y23402D01*
G01X31159Y23311D01*
G01X31113Y23175D01*
G01X31113Y23084D01*
G01X31159Y22948D01*
G01X31250Y22857D01*
G01X31386Y22811D01*
G01X31522Y22811D01*
G01X31659Y22857D01*
G01X31704Y22902D01*
G01X31750Y22993D01*
G01X30813Y23766D02*
G01X30450Y22811D01*
G01X30086Y23766D02*
G01X30450Y22811D01*
G01X36830Y26306D02*
G01X36830Y25351D01*
G01X36830Y26306D02*
G01X36511Y26306D01*
G01X36375Y26260D01*
G01X36284Y26170D01*
G01X36239Y26079D01*
G01X36193Y25942D01*
G01X36193Y25715D01*
G01X36239Y25579D01*
G01X36284Y25488D01*
G01X36375Y25397D01*
G01X36511Y25351D01*
G01X36830Y25351D01*
G01X35530Y26306D02*
G01X35893Y25351D01*
G01X35530Y26306D02*
G01X35166Y25351D01*
G01X35757Y25670D02*
G01X35302Y25670D01*
G01X34548Y26306D02*
G01X34548Y25351D01*
G01X34866Y26306D02*
G01X34230Y26306D01*
G01X33566Y26306D02*
G01X33930Y25351D01*
G01X33566Y26306D02*
G01X33202Y25351D01*
G01X33793Y25670D02*
G01X33339Y25670D01*
G01X32902Y25760D02*
G01X32084Y25760D01*
G01X31784Y26306D02*
G01X31784Y25351D01*
G01X31784Y26306D02*
G01X31193Y26306D01*
G01X31784Y25851D02*
G01X31420Y25851D01*
G01X31784Y25351D02*
G01X31193Y25351D01*
G01X30893Y26306D02*
G01X30893Y25351D01*
G01X30893Y26306D02*
G01X30257Y25351D01*
G01X30257Y26306D02*
G01X30257Y25351D01*
G01X34878Y28619D02*
G01X34923Y28710D01*
G01X35014Y28800D01*
G01X35105Y28846D01*
G01X35287Y28846D01*
G01X35378Y28800D01*
G01X35469Y28710D01*
G01X35514Y28619D01*
G01X35560Y28482D01*
G01X35560Y28255D01*
G01X35514Y28119D01*
G01X35469Y28028D01*
G01X35378Y27937D01*
G01X35287Y27891D01*
G01X35105Y27891D01*
G01X35014Y27937D01*
G01X34923Y28028D01*
G01X34878Y28119D01*
G01X34578Y28846D02*
G01X34578Y27891D01*
G01X34578Y27891D02*
G01X34032Y27891D01*
G01X33732Y28846D02*
G01X33732Y27891D01*
G01X33096Y28846D02*
G01X33732Y28210D01*
G01X33505Y28437D02*
G01X33096Y27891D01*
G01X32796Y28300D02*
G01X31978Y28300D01*
G01X31678Y28846D02*
G01X31678Y27891D01*
G01X31678Y28846D02*
G01X31087Y28846D01*
G01X31678Y28391D02*
G01X31314Y28391D01*
G01X31678Y27891D02*
G01X31087Y27891D01*
G01X30787Y28846D02*
G01X30787Y27891D01*
G01X30787Y28846D02*
G01X30150Y27891D01*
G01X30150Y28846D02*
G01X30150Y27891D01*
G01X35560Y31386D02*
G01X35560Y30431D01*
G01X35560Y30431D02*
G01X35014Y30431D01*
G01X34350Y31386D02*
G01X34714Y30431D01*
G01X34350Y31386D02*
G01X33987Y30431D01*
G01X34578Y30750D02*
G01X34123Y30750D01*
G01X33369Y31386D02*
G01X33369Y30431D01*
G01X33687Y31386D02*
G01X33050Y31386D01*
G01X32750Y30840D02*
G01X31932Y30840D01*
G01X31632Y31386D02*
G01X31632Y30431D01*
G01X31632Y31386D02*
G01X31041Y31386D01*
G01X31632Y30931D02*
G01X31269Y30931D01*
G01X31632Y30431D02*
G01X31041Y30431D01*
G01X30741Y31386D02*
G01X30741Y30431D01*
G01X30741Y31386D02*
G01X30105Y30431D01*
G01X30105Y31386D02*
G01X30105Y30431D01*
G01X31703Y33700D02*
G01X31748Y33791D01*
G01X31839Y33881D01*
G01X31930Y33927D01*
G01X32112Y33927D01*
G01X32203Y33881D01*
G01X32294Y33791D01*
G01X32339Y33700D01*
G01X32385Y33563D01*
G01X32385Y33336D01*
G01X32339Y33200D01*
G01X32294Y33109D01*
G01X32203Y33018D01*
G01X32112Y32972D01*
G01X31930Y32972D01*
G01X31839Y33018D01*
G01X31748Y33109D01*
G01X31703Y33200D01*
G01X31703Y33336D01*
G01X31930Y33336D02*
G01X31703Y33336D01*
G01X31403Y33927D02*
G01X31403Y32972D01*
G01X31403Y33927D02*
G01X30766Y32972D01*
G01X30766Y33927D02*
G01X30766Y32972D01*
G01X30466Y33927D02*
G01X30466Y32972D01*
G01X30466Y33927D02*
G01X30148Y33927D01*
G01X30012Y33881D01*
G01X29921Y33791D01*
G01X29875Y33700D01*
G01X29830Y33563D01*
G01X29830Y33336D01*
G01X29875Y33200D01*
G01X29921Y33109D01*
G01X30012Y33018D01*
G01X30148Y32972D01*
G01X30466Y32972D01*
G54D30*
G01X74295Y5354D02*
G01X74295Y4399D01*
G01X74295Y5354D02*
G01X73658Y4399D01*
G01X73658Y5354D02*
G01X73658Y4399D01*
G01X73358Y4763D02*
G01X72813Y4763D01*
G01X72813Y4854D01*
G01X72858Y4945D01*
G01X72904Y4990D01*
G01X72995Y5036D01*
G01X73131Y5036D01*
G01X73222Y4990D01*
G01X73313Y4899D01*
G01X73358Y4763D01*
G01X73358Y4672D01*
G01X73313Y4536D01*
G01X73222Y4445D01*
G01X73131Y4399D01*
G01X72995Y4399D01*
G01X72904Y4445D01*
G01X72813Y4536D01*
G01X72513Y5036D02*
G01X72513Y4399D01*
G01X72513Y4763D02*
G01X72467Y4899D01*
G01X72376Y4990D01*
G01X72285Y5036D01*
G01X72149Y5036D01*
G01X71304Y5354D02*
G01X71304Y4399D01*
G01X71304Y4899D02*
G01X71395Y4990D01*
G01X71485Y5036D01*
G01X71622Y5036D01*
G01X71713Y4990D01*
G01X71804Y4899D01*
G01X71849Y4763D01*
G01X71849Y4672D01*
G01X71804Y4536D01*
G01X71713Y4445D01*
G01X71622Y4399D01*
G01X71485Y4399D01*
G01X71395Y4445D01*
G01X71304Y4536D01*
G01X70458Y5036D02*
G01X70458Y4309D01*
G01X70504Y4172D01*
G01X70549Y4127D01*
G01X70640Y4081D01*
G01X70776Y4081D01*
G01X70867Y4127D01*
G01X70458Y4899D02*
G01X70549Y4990D01*
G01X70640Y5036D01*
G01X70776Y5036D01*
G01X70867Y4990D01*
G01X70958Y4899D01*
G01X71004Y4763D01*
G01X71004Y4672D01*
G01X70958Y4536D01*
G01X70867Y4445D01*
G01X70776Y4399D01*
G01X70640Y4399D01*
G01X70549Y4445D01*
G01X70458Y4536D01*
G01X69613Y5036D02*
G01X69613Y4399D01*
G01X69613Y4899D02*
G01X69704Y4990D01*
G01X69795Y5036D01*
G01X69931Y5036D01*
G01X70022Y4990D01*
G01X70113Y4899D01*
G01X70158Y4763D01*
G01X70158Y4672D01*
G01X70113Y4536D01*
G01X70022Y4445D01*
G01X69931Y4399D01*
G01X69795Y4399D01*
G01X69704Y4445D01*
G01X69613Y4536D01*
G01X68813Y4899D02*
G01X68858Y4990D01*
G01X68995Y5036D01*
G01X69131Y5036D01*
G01X69267Y4990D01*
G01X69313Y4899D01*
G01X69267Y4809D01*
G01X69176Y4763D01*
G01X68949Y4718D01*
G01X68858Y4672D01*
G01X68813Y4581D01*
G01X68813Y4536D01*
G01X68858Y4445D01*
G01X68995Y4399D01*
G01X69131Y4399D01*
G01X69267Y4445D01*
G01X69313Y4536D01*
G01X68513Y5036D02*
G01X68513Y4399D01*
G01X68513Y4854D02*
G01X68376Y4990D01*
G01X68285Y5036D01*
G01X68149Y5036D01*
G01X68058Y4990D01*
G01X68013Y4854D01*
G01X68013Y4399D01*
G01X68013Y4854D02*
G01X67876Y4990D01*
G01X67785Y5036D01*
G01X67649Y5036D01*
G01X67558Y4990D01*
G01X67513Y4854D01*
G01X67513Y4399D01*
G01X66285Y5036D02*
G01X66376Y4990D01*
G01X66467Y4899D01*
G01X66513Y4763D01*
G01X66513Y4672D01*
G01X66467Y4536D01*
G01X66376Y4445D01*
G01X66285Y4399D01*
G01X66149Y4399D01*
G01X66058Y4445D01*
G01X65967Y4536D01*
G01X65922Y4672D01*
G01X65922Y4763D01*
G01X65967Y4899D01*
G01X66058Y4990D01*
G01X66149Y5036D01*
G01X66285Y5036D01*
G01X65258Y5354D02*
G01X65349Y5354D01*
G01X65440Y5309D01*
G01X65485Y5172D01*
G01X65485Y4399D01*
G01X65622Y5036D02*
G01X65304Y5036D01*
G01X64258Y5354D02*
G01X64258Y4399D01*
G01X64258Y5354D02*
G01X63940Y5354D01*
G01X63804Y5309D01*
G01X63713Y5218D01*
G01X63667Y5127D01*
G01X63622Y4990D01*
G01X63622Y4763D01*
G01X63667Y4627D01*
G01X63713Y4536D01*
G01X63804Y4445D01*
G01X63940Y4399D01*
G01X64258Y4399D01*
G01X63276Y5036D02*
G01X63004Y4399D01*
G01X62731Y5036D02*
G01X63004Y4399D01*
G01X63095Y4218D01*
G01X63185Y4127D01*
G01X63276Y4081D01*
G01X63322Y4081D01*
G01X62431Y5354D02*
G01X62431Y4399D01*
G01X61585Y5036D02*
G01X61585Y4399D01*
G01X61585Y4899D02*
G01X61676Y4990D01*
G01X61767Y5036D01*
G01X61904Y5036D01*
G01X61995Y4990D01*
G01X62085Y4899D01*
G01X62131Y4763D01*
G01X62131Y4672D01*
G01X62085Y4536D01*
G01X61995Y4445D01*
G01X61904Y4399D01*
G01X61767Y4399D01*
G01X61676Y4445D01*
G01X61585Y4536D01*
G01X61285Y5036D02*
G01X61285Y4399D01*
G01X61285Y4854D02*
G01X61149Y4990D01*
G01X61058Y5036D01*
G01X60922Y5036D01*
G01X60831Y4990D01*
G01X60785Y4854D01*
G01X60785Y4399D01*
G01X59785Y5354D02*
G01X59785Y4399D01*
G01X59785Y5354D02*
G01X59422Y4399D01*
G01X59058Y5354D02*
G01X59422Y4399D01*
G01X59058Y5354D02*
G01X59058Y4399D01*
G01X58758Y5354D02*
G01X58713Y5309D01*
G01X58667Y5354D01*
G01X58713Y5399D01*
G01X58758Y5354D01*
G01X58713Y5036D02*
G01X58713Y4399D01*
G01X57867Y4899D02*
G01X57913Y4990D01*
G01X58049Y5036D01*
G01X58185Y5036D01*
G01X58322Y4990D01*
G01X58367Y4899D01*
G01X58322Y4809D01*
G01X58231Y4763D01*
G01X58004Y4718D01*
G01X57913Y4672D01*
G01X57867Y4581D01*
G01X57867Y4536D01*
G01X57913Y4445D01*
G01X58049Y4399D01*
G01X58185Y4399D01*
G01X58322Y4445D01*
G01X58367Y4536D01*
G01X57067Y4899D02*
G01X57113Y4990D01*
G01X57249Y5036D01*
G01X57385Y5036D01*
G01X57522Y4990D01*
G01X57567Y4899D01*
G01X57522Y4809D01*
G01X57431Y4763D01*
G01X57204Y4718D01*
G01X57113Y4672D01*
G01X57067Y4581D01*
G01X57067Y4536D01*
G01X57113Y4445D01*
G01X57249Y4399D01*
G01X57385Y4399D01*
G01X57522Y4445D01*
G01X57567Y4536D01*
G01X56767Y5036D02*
G01X56767Y4581D01*
G01X56722Y4445D01*
G01X56631Y4399D01*
G01X56495Y4399D01*
G01X56404Y4445D01*
G01X56267Y4581D01*
G01X56267Y5036D02*
G01X56267Y4399D01*
G01X55967Y5036D02*
G01X55785Y4399D01*
G01X55604Y5036D02*
G01X55785Y4399D01*
G01X55604Y5036D02*
G01X55422Y4399D01*
G01X55240Y5036D02*
G01X55422Y4399D01*
G01X54940Y4763D02*
G01X54395Y4763D01*
G01X54395Y4854D01*
G01X54440Y4945D01*
G01X54485Y4990D01*
G01X54576Y5036D01*
G01X54713Y5036D01*
G01X54804Y4990D01*
G01X54895Y4899D01*
G01X54940Y4763D01*
G01X54940Y4672D01*
G01X54895Y4536D01*
G01X54804Y4445D01*
G01X54713Y4399D01*
G01X54576Y4399D01*
G01X54485Y4445D01*
G01X54395Y4536D01*
G01X52485Y4945D02*
G01X52485Y4990D01*
G01X52531Y5036D01*
G01X52576Y5036D01*
G01X52622Y4990D01*
G01X52667Y4899D01*
G01X52758Y4672D01*
G01X52849Y4536D01*
G01X52940Y4445D01*
G01X53031Y4399D01*
G01X53213Y4399D01*
G01X53304Y4445D01*
G01X53349Y4490D01*
G01X53395Y4581D01*
G01X53395Y4672D01*
G01X53349Y4763D01*
G01X53304Y4809D01*
G01X52985Y4990D01*
G01X52940Y5036D01*
G01X52895Y5127D01*
G01X52895Y5218D01*
G01X52940Y5309D01*
G01X53031Y5354D01*
G01X53122Y5309D01*
G01X53167Y5218D01*
G01X53167Y5127D01*
G01X53122Y4990D01*
G01X53031Y4854D01*
G01X52804Y4536D01*
G01X52713Y4445D01*
G01X52622Y4399D01*
G01X52531Y4399D01*
G01X52485Y4445D01*
G01X52485Y4490D01*
G01X51167Y5354D02*
G01X51167Y4399D01*
G01X51485Y5354D02*
G01X50849Y5354D01*
G01X50549Y5354D02*
G01X50504Y5309D01*
G01X50458Y5354D01*
G01X50504Y5399D01*
G01X50549Y5354D01*
G01X50504Y5036D02*
G01X50504Y4399D01*
G01X49976Y5354D02*
G01X49931Y5309D01*
G01X49885Y5354D01*
G01X49931Y5399D01*
G01X49976Y5354D01*
G01X49931Y5036D02*
G01X49931Y4263D01*
G01X49976Y4127D01*
G01X50067Y4081D01*
G01X50158Y4081D01*
G01X49585Y5354D02*
G01X49585Y4399D01*
G01X48585Y5354D02*
G01X48585Y4399D01*
G01X48585Y5354D02*
G01X48267Y5354D01*
G01X48131Y5309D01*
G01X48040Y5218D01*
G01X47995Y5127D01*
G01X47949Y4990D01*
G01X47949Y4763D01*
G01X47995Y4627D01*
G01X48040Y4536D01*
G01X48131Y4445D01*
G01X48267Y4399D01*
G01X48585Y4399D01*
G01X47649Y4763D02*
G01X47104Y4763D01*
G01X47104Y4854D01*
G01X47149Y4945D01*
G01X47195Y4990D01*
G01X47285Y5036D01*
G01X47422Y5036D01*
G01X47513Y4990D01*
G01X47604Y4899D01*
G01X47649Y4763D01*
G01X47649Y4672D01*
G01X47604Y4536D01*
G01X47513Y4445D01*
G01X47422Y4399D01*
G01X47285Y4399D01*
G01X47195Y4445D01*
G01X47104Y4536D01*
G01X46304Y4899D02*
G01X46349Y4990D01*
G01X46485Y5036D01*
G01X46622Y5036D01*
G01X46758Y4990D01*
G01X46804Y4899D01*
G01X46758Y4809D01*
G01X46667Y4763D01*
G01X46440Y4718D01*
G01X46349Y4672D01*
G01X46304Y4581D01*
G01X46304Y4536D01*
G01X46349Y4445D01*
G01X46485Y4399D01*
G01X46622Y4399D01*
G01X46758Y4445D01*
G01X46804Y4536D01*
G01X46004Y5036D02*
G01X46004Y4399D01*
G01X46004Y4854D02*
G01X45867Y4990D01*
G01X45776Y5036D01*
G01X45640Y5036D01*
G01X45549Y4990D01*
G01X45504Y4854D01*
G01X45504Y4399D01*
G01X45504Y4854D02*
G01X45367Y4990D01*
G01X45276Y5036D01*
G01X45140Y5036D01*
G01X45049Y4990D01*
G01X45004Y4854D01*
G01X45004Y4399D01*
G01X44704Y4763D02*
G01X44158Y4763D01*
G01X44158Y4854D01*
G01X44204Y4945D01*
G01X44249Y4990D01*
G01X44340Y5036D01*
G01X44476Y5036D01*
G01X44567Y4990D01*
G01X44658Y4899D01*
G01X44704Y4763D01*
G01X44704Y4672D01*
G01X44658Y4536D01*
G01X44567Y4445D01*
G01X44476Y4399D01*
G01X44340Y4399D01*
G01X44249Y4445D01*
G01X44158Y4536D01*
G01X43722Y5354D02*
G01X43722Y4581D01*
G01X43676Y4445D01*
G01X43585Y4399D01*
G01X43495Y4399D01*
G01X43858Y5036D02*
G01X43540Y5036D01*
M00*
M02*
