;Layer: Drill PTH
;EasyEDA v6.4.7, 2020-11-03T11:19:35+01:00
;ee31f35cb8c4481c9aeb6db220abaf82,9bd7e35f881f4a88a1d5770e7942d247,10
;Gerber Generator version 0.2
M48
METRIC,LZ,000.000
;Holesize 1 = 0.305 METRIC
T01C0.305
;Holesize 2 = 0.501 METRIC
T02C0.501
;Holesize 3 = 1.000 METRIC
T03C1.000
;Holesize 4 = 1.101 METRIC
T04C1.101
;Holesize 5 = 1.200 METRIC
T05C1.200
;Holesize 6 = 1.800 METRIC
T06C1.800
%
G05
G90
T01
X+070485Y+007517
X+071755Y+007517
X+070485Y+017296
X+071755Y+017296
X+070485Y+029107
X+071755Y+029107
X+070485Y+039140
X+071755Y+039140
X+070485Y+050697
X+071755Y+050697
X+070485Y+060730
X+071755Y+060730
X+070485Y+072287
X+071755Y+072287
X+070485Y+082447
X+071755Y+082447
X+061595Y+013232
X+062865Y+013232
X+063500Y+012597
X+062230Y+012597
X+060960Y+012597
X+063500Y+017677
X+062230Y+017677
X+060960Y+017677
X+061595Y+017042
X+062865Y+017042
X+063500Y+034187
X+062230Y+034187
X+060960Y+034187
X+061595Y+034822
X+062865Y+034822
X+063500Y+039267
X+062230Y+039267
X+060960Y+039267
X+062865Y+038632
X+061595Y+038632
X+063500Y+055777
X+062230Y+055777
X+060960Y+055777
X+061595Y+056412
X+062865Y+056412
X+063500Y+060857
X+062230Y+060857
X+060960Y+060857
X+061595Y+060222
X+062865Y+060222
X+063500Y+077367
X+062230Y+077367
X+060960Y+077367
X+061595Y+078002
X+062865Y+078002
X+063500Y+082447
X+062230Y+082447
X+060960Y+082447
X+061595Y+081812
X+062865Y+081812
X+067310Y+072287
X+055880Y+016407
X+055880Y+017605
X+055880Y+037997
X+055880Y+039101
X+055880Y+059587
X+055880Y+060738
X+055880Y+081177
X+055880Y+082328
X+022860Y+031012
X+022860Y+072922
X+022225Y+071652
X+021590Y+070382
X+020955Y+069112
X+022225Y+029742
X+021590Y+028472
X+020955Y+027202
X+037735Y+023960
X+037465Y+033552
X+037735Y+040470
X+037465Y+050062
X+038100Y+058317
X+037465Y+062127
X+037465Y+065937
X+040005Y+067207
X+038735Y+069747
X+041706Y+053531
X+040005Y+020852
X+037465Y+029742
X+041706Y+036513
X+037465Y+046252
X+040005Y+068477
X+040005Y+084987
X+067310Y+008787
X+067310Y+029107
X+067310Y+050697
X+037465Y+031012
X+033655Y+029742
X+033020Y+029107
X+037465Y+031012
X+029845Y+051332
X+029210Y+048792
X+028575Y+047522
X+037465Y+051332
X+037465Y+048792
X+037465Y+047522
X+034290Y+028472
X+030480Y+028472
X+031115Y+044982
X+037465Y+044982
X+057150Y+086257
X+038100Y+086257
X+066040Y+086892
X+038735Y+086892
X+044450Y+077367
X+045085Y+078002
X+066040Y+076732
X+057150Y+078002
X+034925Y+072287
X+036024Y+072287
X+031750Y+078637
X+040005Y+078637
X+032385Y+077367
X+067310Y+087527
X+034925Y+087527
X+040005Y+031012
X+032385Y+031012
X+033020Y+078002
X+037465Y+078002
X+055880Y+071017
X+034290Y+071017
X+066040Y+029742
X+043815Y+029742
X+037465Y+084987
X+037465Y+083717
X+037465Y+082447
X+037465Y+081177
X+066040Y+055142
X+051435Y+055142
X+040005Y+083717
X+066040Y+039902
X+048895Y+041172
X+044450Y+081177
X+057150Y+056412
X+048260Y+055777
X+045085Y+079272
X+057150Y+043077
X+047625Y+043077
X+043180Y+078637
X+042918Y+079907
X+066040Y+065937
X+046990Y+065937
X+046990Y+027202
X+040005Y+027202
X+067310Y+065302
X+046355Y+065302
X+046355Y+043712
X+040005Y+043712
X+055880Y+044982
X+040005Y+044982
X+048260Y+028472
X+040005Y+028472
X+048895Y+029107
X+040005Y+029742
X+054610Y+031012
X+040005Y+064667
X+044450Y+064667
X+044450Y+033552
X+040005Y+033552
X+040005Y+063397
X+045085Y+063397
X+045085Y+012597
X+066040Y+011962
X+040005Y+060857
X+045720Y+060857
X+045720Y+021487
X+057150Y+021487
X+040005Y+046252
X+067310Y+046252
X+040005Y+050062
X+040005Y+048792
X+040005Y+047522
X+049530Y+047522
X+049530Y+034187
X+055880Y+034187
X+050165Y+048792
X+050165Y+022122
X+067310Y+022122
X+039370Y+043077
X+046355Y+042442
X+046355Y+008787
X+055880Y+008787
X+044450Y+013232
X+057150Y+013232
X+043180Y+017042
X+066040Y+018312
X+045720Y+073557
X+045720Y+067842
X+040005Y+080542
X+059690Y+043077
X+060960Y+043077
X+062230Y+043077
X+063500Y+043077
X+063500Y+051967
X+062230Y+051967
X+060960Y+051967
X+059690Y+051997
X+063500Y+064667
X+062230Y+064667
X+060960Y+064667
X+059690Y+064667
X+063500Y+073557
X+062230Y+073557
X+060960Y+073557
X+059690Y+073568
X+063500Y+086257
X+062230Y+086257
X+060960Y+086257
X+059690Y+086257
X+063500Y+030377
X+062230Y+030377
X+060960Y+030377
X+059690Y+030377
X+059690Y+021487
X+060960Y+021487
X+062230Y+021487
X+063500Y+021487
X+059690Y+008787
X+060960Y+008787
X+062230Y+008787
X+063500Y+008787
T02
X+078105Y+012597
X+078105Y+022122
X+078105Y+034187
X+078105Y+044347
X+078105Y+055777
X+078105Y+065937
X+078105Y+077367
X+078105Y+087527
T03
X+051435Y+059587
X+051435Y+057047
X+052705Y+079907
X+050165Y+079907
X+052705Y+015137
X+050165Y+015137
X+051435Y+037997
X+051435Y+035457
T04
X+024765Y+033551
X+027305Y+033553
X+024764Y+031011
X+027305Y+031013
X+024764Y+028471
X+027304Y+028471
X+024764Y+025931
X+027305Y+025933
X+024764Y+023391
X+027305Y+023393
X+024764Y+020851
X+027304Y+020852
X+024765Y+075461
X+027305Y+075463
X+024764Y+072921
X+027305Y+072923
X+024764Y+070381
X+027304Y+070381
X+024764Y+067841
X+027305Y+067843
X+024764Y+065301
X+027305Y+065303
X+024764Y+062761
X+027304Y+062762
T05
X+090805Y+087407
X+090805Y+082407
X+090805Y+077407
X+090805Y+072407
X+090805Y+022637
X+090805Y+017637
X+090805Y+012637
X+090805Y+007637
X+090805Y+044227
X+090805Y+039227
X+090805Y+034227
X+090805Y+029227
X+090805Y+065817
X+090805Y+060817
X+090805Y+055817
X+090805Y+050817
T06
X+035433Y+016895
X+035433Y+011815
M30
