G04 Layer: BottomSolderMaskLayer*
G04 EasyEDA v6.4.7, 2020-11-03T11:19:35+01:00*
G04 ee31f35cb8c4481c9aeb6db220abaf82,9bd7e35f881f4a88a1d5770e7942d247,10*
G04 Gerber Generator version 0.2*
G04 Scale: 100 percent, Rotated: No, Reflected: No *
G04 Dimensions in millimeters *
G04 leading zeros omitted , absolute positions ,3 integer and 3 decimal *
%FSLAX33Y33*%
%MOMM*%
G90*
D02*

%ADD32C,1.803197*%
%ADD34C,2.703195*%
%ADD35C,2.003196*%
%ADD38C,3.203194*%

%LPD*%
G54D32*
G01X51435Y59587D03*
G01X51435Y57047D03*
G01X52705Y79907D03*
G01X50165Y79907D03*
G01X52705Y15137D03*
G01X50165Y15137D03*
G01X51435Y37997D03*
G01X51435Y35457D03*
G54D34*
G01X90805Y87407D03*
G01X90805Y82407D03*
G01X90805Y77407D03*
G01X90805Y72407D03*
G01X90805Y22637D03*
G01X90805Y17637D03*
G01X90805Y12637D03*
G01X90805Y7637D03*
G01X90805Y44227D03*
G01X90805Y39227D03*
G01X90805Y34227D03*
G01X90805Y29227D03*
G01X90805Y65817D03*
G01X90805Y60817D03*
G01X90805Y55817D03*
G01X90805Y50817D03*
G54D35*
G01X24765Y33551D03*
G01X27305Y33553D03*
G01X24764Y31011D03*
G01X27305Y31013D03*
G01X24764Y28471D03*
G01X27304Y28471D03*
G01X24764Y25931D03*
G01X27305Y25933D03*
G01X24764Y23391D03*
G01X27305Y23393D03*
G01X24764Y20851D03*
G36*
G01X26301Y19851D02*
G01X26301Y21853D01*
G01X28305Y21853D01*
G01X28305Y19851D01*
G01X26301Y19851D01*
G37*
G01X24765Y75461D03*
G01X27305Y75463D03*
G01X24764Y72921D03*
G01X27305Y72923D03*
G01X24764Y70381D03*
G01X27304Y70381D03*
G01X24764Y67841D03*
G01X27305Y67843D03*
G01X24764Y65301D03*
G01X27305Y65303D03*
G01X24764Y62761D03*
G36*
G01X26301Y61761D02*
G01X26301Y63763D01*
G01X28305Y63763D01*
G01X28305Y61761D01*
G01X26301Y61761D01*
G37*
G54D38*
G01X35433Y16895D03*
G01X35433Y11815D03*
M00*
M02*
