G04 Layer: TopSolderMaskLayer*
G04 EasyEDA v6.4.7, 2020-11-03T11:19:35+01:00*
G04 ee31f35cb8c4481c9aeb6db220abaf82,9bd7e35f881f4a88a1d5770e7942d247,10*
G04 Gerber Generator version 0.2*
G04 Scale: 100 percent, Rotated: No, Reflected: No *
G04 Dimensions in millimeters *
G04 leading zeros omitted , absolute positions ,3 integer and 3 decimal *
%FSLAX33Y33*%
%MOMM*%
G90*
D02*

%ADD31C,0.803199*%
%ADD32C,1.803197*%
%ADD34C,2.703195*%
%ADD35C,2.003196*%
%ADD38C,3.203194*%

%LPD*%
G54D31*
G01X36363Y84987D02*
G01X35163Y84987D01*
G01X36363Y83717D02*
G01X35163Y83717D01*
G01X36363Y82447D02*
G01X35163Y82447D01*
G01X36363Y81177D02*
G01X35163Y81177D01*
G01X36363Y79907D02*
G01X35163Y79907D01*
G01X36363Y78637D02*
G01X35163Y78637D01*
G01X36363Y77367D02*
G01X35163Y77367D01*
G01X36363Y76097D02*
G01X35163Y76097D01*
G01X42306Y84987D02*
G01X41106Y84987D01*
G01X42306Y83717D02*
G01X41106Y83717D01*
G01X42306Y82447D02*
G01X41106Y82447D01*
G01X42306Y81177D02*
G01X41106Y81177D01*
G01X42306Y79907D02*
G01X41106Y79907D01*
G01X42306Y78637D02*
G01X41106Y78637D01*
G01X42306Y77367D02*
G01X41106Y77367D01*
G01X42306Y76097D02*
G01X41106Y76097D01*
G01X36363Y68477D02*
G01X35163Y68477D01*
G01X36363Y67207D02*
G01X35163Y67207D01*
G01X36363Y65937D02*
G01X35163Y65937D01*
G01X36363Y64667D02*
G01X35163Y64667D01*
G01X36363Y63397D02*
G01X35163Y63397D01*
G01X36363Y62127D02*
G01X35163Y62127D01*
G01X36363Y60857D02*
G01X35163Y60857D01*
G01X36363Y59587D02*
G01X35163Y59587D01*
G01X42306Y68477D02*
G01X41106Y68477D01*
G01X42306Y67207D02*
G01X41106Y67207D01*
G01X42306Y65937D02*
G01X41106Y65937D01*
G01X42306Y64667D02*
G01X41106Y64667D01*
G01X42306Y63397D02*
G01X41106Y63397D01*
G01X42306Y62127D02*
G01X41106Y62127D01*
G01X42306Y60857D02*
G01X41106Y60857D01*
G01X42306Y59587D02*
G01X41106Y59587D01*
G01X36363Y51332D02*
G01X35163Y51332D01*
G01X36363Y50062D02*
G01X35163Y50062D01*
G01X36363Y48792D02*
G01X35163Y48792D01*
G01X36363Y47522D02*
G01X35163Y47522D01*
G01X36363Y46252D02*
G01X35163Y46252D01*
G01X36363Y44982D02*
G01X35163Y44982D01*
G01X36363Y43712D02*
G01X35163Y43712D01*
G01X36363Y42442D02*
G01X35163Y42442D01*
G01X42306Y51332D02*
G01X41106Y51332D01*
G01X42306Y50062D02*
G01X41106Y50062D01*
G01X42306Y48792D02*
G01X41106Y48792D01*
G01X42306Y47522D02*
G01X41106Y47522D01*
G01X42306Y46252D02*
G01X41106Y46252D01*
G01X42306Y44982D02*
G01X41106Y44982D01*
G01X42306Y43712D02*
G01X41106Y43712D01*
G01X42306Y42442D02*
G01X41106Y42442D01*
G01X36363Y34822D02*
G01X35163Y34822D01*
G01X36363Y33552D02*
G01X35163Y33552D01*
G01X36363Y32282D02*
G01X35163Y32282D01*
G01X36363Y31012D02*
G01X35163Y31012D01*
G01X36363Y29742D02*
G01X35163Y29742D01*
G01X36363Y28472D02*
G01X35163Y28472D01*
G01X36363Y27202D02*
G01X35163Y27202D01*
G01X36363Y25932D02*
G01X35163Y25932D01*
G01X42306Y34822D02*
G01X41106Y34822D01*
G01X42306Y33552D02*
G01X41106Y33552D01*
G01X42306Y32282D02*
G01X41106Y32282D01*
G01X42306Y31012D02*
G01X41106Y31012D01*
G01X42306Y29742D02*
G01X41106Y29742D01*
G01X42306Y28472D02*
G01X41106Y28472D01*
G01X42306Y27202D02*
G01X41106Y27202D01*
G01X42306Y25932D02*
G01X41106Y25932D01*
G01X67310Y42127D02*
G01X67310Y40427D01*
G01X66040Y42127D02*
G01X66040Y40427D01*
G01X64770Y42127D02*
G01X64770Y40427D01*
G01X63500Y42127D02*
G01X63500Y40427D01*
G01X62230Y42127D02*
G01X62230Y40427D01*
G01X60960Y42127D02*
G01X60960Y40427D01*
G01X59690Y42127D02*
G01X59690Y40427D01*
G01X58420Y42127D02*
G01X58420Y40427D01*
G01X57150Y42127D02*
G01X57150Y40427D01*
G01X55880Y42127D02*
G01X55880Y40427D01*
G01X67310Y33027D02*
G01X67310Y31327D01*
G01X66040Y33027D02*
G01X66040Y31327D01*
G01X64770Y33027D02*
G01X64770Y31327D01*
G01X63500Y33027D02*
G01X63500Y31327D01*
G01X62230Y33027D02*
G01X62230Y31327D01*
G01X60960Y33027D02*
G01X60960Y31327D01*
G01X59690Y33027D02*
G01X59690Y31327D01*
G01X58420Y33027D02*
G01X58420Y31327D01*
G01X57150Y33027D02*
G01X57150Y31327D01*
G01X55880Y33027D02*
G01X55880Y31327D01*
G01X67310Y20537D02*
G01X67310Y18837D01*
G01X66040Y20537D02*
G01X66040Y18837D01*
G01X64770Y20537D02*
G01X64770Y18837D01*
G01X63500Y20537D02*
G01X63500Y18837D01*
G01X62230Y20537D02*
G01X62230Y18837D01*
G01X60960Y20537D02*
G01X60960Y18837D01*
G01X59690Y20537D02*
G01X59690Y18837D01*
G01X58420Y20537D02*
G01X58420Y18837D01*
G01X57150Y20537D02*
G01X57150Y18837D01*
G01X55880Y20537D02*
G01X55880Y18837D01*
G01X67310Y11437D02*
G01X67310Y9737D01*
G01X66040Y11437D02*
G01X66040Y9737D01*
G01X64770Y11437D02*
G01X64770Y9737D01*
G01X63500Y11437D02*
G01X63500Y9737D01*
G01X62230Y11437D02*
G01X62230Y9737D01*
G01X60960Y11437D02*
G01X60960Y9737D01*
G01X59690Y11437D02*
G01X59690Y9737D01*
G01X58420Y11437D02*
G01X58420Y9737D01*
G01X57150Y11437D02*
G01X57150Y9737D01*
G01X55880Y11437D02*
G01X55880Y9737D01*
G01X67310Y63717D02*
G01X67310Y62017D01*
G01X66040Y63717D02*
G01X66040Y62017D01*
G01X64770Y63717D02*
G01X64770Y62017D01*
G01X63500Y63717D02*
G01X63500Y62017D01*
G01X62230Y63717D02*
G01X62230Y62017D01*
G01X60960Y63717D02*
G01X60960Y62017D01*
G01X59690Y63717D02*
G01X59690Y62017D01*
G01X58420Y63717D02*
G01X58420Y62017D01*
G01X57150Y63717D02*
G01X57150Y62017D01*
G01X55880Y63717D02*
G01X55880Y62017D01*
G01X67310Y54617D02*
G01X67310Y52917D01*
G01X66040Y54617D02*
G01X66040Y52917D01*
G01X64770Y54617D02*
G01X64770Y52917D01*
G01X63500Y54617D02*
G01X63500Y52917D01*
G01X62230Y54617D02*
G01X62230Y52917D01*
G01X60960Y54617D02*
G01X60960Y52917D01*
G01X59690Y54617D02*
G01X59690Y52917D01*
G01X58420Y54617D02*
G01X58420Y52917D01*
G01X57150Y54617D02*
G01X57150Y52917D01*
G01X55880Y54617D02*
G01X55880Y52917D01*
G01X67310Y85307D02*
G01X67310Y83607D01*
G01X66040Y85307D02*
G01X66040Y83607D01*
G01X64770Y85307D02*
G01X64770Y83607D01*
G01X63500Y85307D02*
G01X63500Y83607D01*
G01X62230Y85307D02*
G01X62230Y83607D01*
G01X60960Y85307D02*
G01X60960Y83607D01*
G01X59690Y85307D02*
G01X59690Y83607D01*
G01X58420Y85307D02*
G01X58420Y83607D01*
G01X57150Y85307D02*
G01X57150Y83607D01*
G01X55880Y85307D02*
G01X55880Y83607D01*
G01X67310Y76207D02*
G01X67310Y74507D01*
G01X66040Y76207D02*
G01X66040Y74507D01*
G01X64770Y76207D02*
G01X64770Y74507D01*
G01X63500Y76207D02*
G01X63500Y74507D01*
G01X62230Y76207D02*
G01X62230Y74507D01*
G01X60960Y76207D02*
G01X60960Y74507D01*
G01X59690Y76207D02*
G01X59690Y74507D01*
G01X58420Y76207D02*
G01X58420Y74507D01*
G01X57150Y76207D02*
G01X57150Y74507D01*
G01X55880Y76207D02*
G01X55880Y74507D01*
G54D32*
G01X51435Y59587D03*
G01X51435Y57047D03*
G01X52705Y79907D03*
G01X50165Y79907D03*
G01X52705Y15137D03*
G01X50165Y15137D03*
G01X51435Y37997D03*
G01X51435Y35457D03*
G36*
G01X37132Y71263D02*
G01X37132Y73016D01*
G01X38336Y73016D01*
G01X38336Y71263D01*
G01X37132Y71263D01*
G37*
G36*
G01X39133Y71263D02*
G01X39133Y73016D01*
G01X40337Y73016D01*
G01X40337Y71263D01*
G01X39133Y71263D01*
G37*
G36*
G01X59992Y47281D02*
G01X59992Y49033D01*
G01X61196Y49033D01*
G01X61196Y47281D01*
G01X59992Y47281D01*
G37*
G36*
G01X61993Y47281D02*
G01X61993Y49033D01*
G01X63197Y49033D01*
G01X63197Y47281D01*
G01X61993Y47281D01*
G37*
G36*
G01X59992Y25691D02*
G01X59992Y27443D01*
G01X61196Y27443D01*
G01X61196Y25691D01*
G01X59992Y25691D01*
G37*
G36*
G01X61993Y25691D02*
G01X61993Y27443D01*
G01X63197Y27443D01*
G01X63197Y25691D01*
G01X61993Y25691D01*
G37*
G36*
G01X49197Y6641D02*
G01X49197Y8393D01*
G01X50401Y8393D01*
G01X50401Y6641D01*
G01X49197Y6641D01*
G37*
G36*
G01X51198Y6641D02*
G01X51198Y8393D01*
G01X52402Y8393D01*
G01X52402Y6641D01*
G01X51198Y6641D01*
G37*
G36*
G01X39133Y21606D02*
G01X39133Y23359D01*
G01X40337Y23359D01*
G01X40337Y21606D01*
G01X39133Y21606D01*
G37*
G36*
G01X37132Y21606D02*
G01X37132Y23359D01*
G01X38336Y23359D01*
G01X38336Y21606D01*
G01X37132Y21606D01*
G37*
G36*
G01X39133Y54626D02*
G01X39133Y56379D01*
G01X40337Y56379D01*
G01X40337Y54626D01*
G01X39133Y54626D01*
G37*
G36*
G01X37132Y54626D02*
G01X37132Y56379D01*
G01X38336Y56379D01*
G01X38336Y54626D01*
G01X37132Y54626D01*
G37*
G36*
G01X39133Y37608D02*
G01X39133Y39361D01*
G01X40337Y39361D01*
G01X40337Y37608D01*
G01X39133Y37608D01*
G37*
G36*
G01X37132Y37608D02*
G01X37132Y39361D01*
G01X38336Y39361D01*
G01X38336Y37608D01*
G01X37132Y37608D01*
G37*
G36*
G01X59992Y68871D02*
G01X59992Y70623D01*
G01X61196Y70623D01*
G01X61196Y68871D01*
G01X59992Y68871D01*
G37*
G36*
G01X61993Y68871D02*
G01X61993Y70623D01*
G01X63197Y70623D01*
G01X63197Y68871D01*
G01X61993Y68871D01*
G37*
G54D34*
G01X90805Y87407D03*
G01X90805Y82407D03*
G01X90805Y77407D03*
G01X90805Y72407D03*
G01X90805Y22637D03*
G01X90805Y17637D03*
G01X90805Y12637D03*
G01X90805Y7637D03*
G01X90805Y44227D03*
G01X90805Y39227D03*
G01X90805Y34227D03*
G01X90805Y29227D03*
G01X90805Y65817D03*
G01X90805Y60817D03*
G01X90805Y55817D03*
G01X90805Y50817D03*
G54D35*
G01X24765Y33551D03*
G01X27305Y33553D03*
G01X24764Y31011D03*
G01X27305Y31013D03*
G01X24764Y28471D03*
G01X27304Y28471D03*
G01X24764Y25931D03*
G01X27305Y25933D03*
G01X24764Y23391D03*
G01X27305Y23393D03*
G01X24764Y20851D03*
G36*
G01X26301Y19851D02*
G01X26301Y21853D01*
G01X28305Y21853D01*
G01X28305Y19851D01*
G01X26301Y19851D01*
G37*
G01X24765Y75461D03*
G01X27305Y75463D03*
G01X24764Y72921D03*
G01X27305Y72923D03*
G01X24764Y70381D03*
G01X27304Y70381D03*
G01X24764Y67841D03*
G01X27305Y67843D03*
G01X24764Y65301D03*
G01X27305Y65303D03*
G01X24764Y62761D03*
G36*
G01X26301Y61761D02*
G01X26301Y63763D01*
G01X28305Y63763D01*
G01X28305Y61761D01*
G01X26301Y61761D01*
G37*
G36*
G01X81602Y16585D02*
G01X81602Y17987D01*
G01X83606Y17987D01*
G01X83606Y16585D01*
G01X81602Y16585D01*
G37*
G36*
G01X81602Y21685D02*
G01X81602Y23087D01*
G01X83606Y23087D01*
G01X83606Y21685D01*
G01X81602Y21685D01*
G37*
G36*
G01X72603Y21685D02*
G01X72603Y23087D01*
G01X74607Y23087D01*
G01X74607Y21685D01*
G01X72603Y21685D01*
G37*
G36*
G01X72603Y16585D02*
G01X72603Y17987D01*
G01X74607Y17987D01*
G01X74607Y16585D01*
G01X72603Y16585D01*
G37*
G36*
G01X81602Y38429D02*
G01X81602Y39831D01*
G01X83606Y39831D01*
G01X83606Y38429D01*
G01X81602Y38429D01*
G37*
G36*
G01X81602Y43529D02*
G01X81602Y44931D01*
G01X83606Y44931D01*
G01X83606Y43529D01*
G01X81602Y43529D01*
G37*
G36*
G01X72603Y43529D02*
G01X72603Y44931D01*
G01X74607Y44931D01*
G01X74607Y43529D01*
G01X72603Y43529D01*
G37*
G36*
G01X72603Y38429D02*
G01X72603Y39831D01*
G01X74607Y39831D01*
G01X74607Y38429D01*
G01X72603Y38429D01*
G37*
G36*
G01X81602Y71576D02*
G01X81602Y72978D01*
G01X83606Y72978D01*
G01X83606Y71576D01*
G01X81602Y71576D01*
G37*
G36*
G01X81602Y76676D02*
G01X81602Y78078D01*
G01X83606Y78078D01*
G01X83606Y76676D01*
G01X81602Y76676D01*
G37*
G36*
G01X72603Y76676D02*
G01X72603Y78078D01*
G01X74607Y78078D01*
G01X74607Y76676D01*
G01X72603Y76676D01*
G37*
G36*
G01X72603Y71576D02*
G01X72603Y72978D01*
G01X74607Y72978D01*
G01X74607Y71576D01*
G01X72603Y71576D01*
G37*
G36*
G01X81602Y6806D02*
G01X81602Y8208D01*
G01X83606Y8208D01*
G01X83606Y6806D01*
G01X81602Y6806D01*
G37*
G36*
G01X81602Y11906D02*
G01X81602Y13308D01*
G01X83606Y13308D01*
G01X83606Y11906D01*
G01X81602Y11906D01*
G37*
G36*
G01X72603Y11906D02*
G01X72603Y13308D01*
G01X74607Y13308D01*
G01X74607Y11906D01*
G01X72603Y11906D01*
G37*
G36*
G01X72603Y6806D02*
G01X72603Y8208D01*
G01X74607Y8208D01*
G01X74607Y6806D01*
G01X72603Y6806D01*
G37*
G36*
G01X81602Y60019D02*
G01X81602Y61421D01*
G01X83606Y61421D01*
G01X83606Y60019D01*
G01X81602Y60019D01*
G37*
G36*
G01X81602Y65119D02*
G01X81602Y66521D01*
G01X83606Y66521D01*
G01X83606Y65119D01*
G01X81602Y65119D01*
G37*
G36*
G01X72603Y65119D02*
G01X72603Y66521D01*
G01X74607Y66521D01*
G01X74607Y65119D01*
G01X72603Y65119D01*
G37*
G36*
G01X72603Y60019D02*
G01X72603Y61421D01*
G01X74607Y61421D01*
G01X74607Y60019D01*
G01X72603Y60019D01*
G37*
G36*
G01X81602Y28396D02*
G01X81602Y29798D01*
G01X83606Y29798D01*
G01X83606Y28396D01*
G01X81602Y28396D01*
G37*
G36*
G01X81602Y33496D02*
G01X81602Y34898D01*
G01X83606Y34898D01*
G01X83606Y33496D01*
G01X81602Y33496D01*
G37*
G36*
G01X72603Y33496D02*
G01X72603Y34898D01*
G01X74607Y34898D01*
G01X74607Y33496D01*
G01X72603Y33496D01*
G37*
G36*
G01X72603Y28396D02*
G01X72603Y29798D01*
G01X74607Y29798D01*
G01X74607Y28396D01*
G01X72603Y28396D01*
G37*
G36*
G01X81602Y49986D02*
G01X81602Y51388D01*
G01X83606Y51388D01*
G01X83606Y49986D01*
G01X81602Y49986D01*
G37*
G36*
G01X81602Y55086D02*
G01X81602Y56488D01*
G01X83606Y56488D01*
G01X83606Y55086D01*
G01X81602Y55086D01*
G37*
G36*
G01X72603Y55086D02*
G01X72603Y56488D01*
G01X74607Y56488D01*
G01X74607Y55086D01*
G01X72603Y55086D01*
G37*
G36*
G01X72603Y49986D02*
G01X72603Y51388D01*
G01X74607Y51388D01*
G01X74607Y49986D01*
G01X72603Y49986D01*
G37*
G36*
G01X81602Y81736D02*
G01X81602Y83138D01*
G01X83606Y83138D01*
G01X83606Y81736D01*
G01X81602Y81736D01*
G37*
G36*
G01X81602Y86836D02*
G01X81602Y88238D01*
G01X83606Y88238D01*
G01X83606Y86836D01*
G01X81602Y86836D01*
G37*
G36*
G01X72603Y86836D02*
G01X72603Y88238D01*
G01X74607Y88238D01*
G01X74607Y86836D01*
G01X72603Y86836D01*
G37*
G36*
G01X72603Y81736D02*
G01X72603Y83138D01*
G01X74607Y83138D01*
G01X74607Y81736D01*
G01X72603Y81736D01*
G37*
G54D38*
G01X35433Y16895D03*
G01X35433Y11815D03*
M00*
M02*
