G04 #@! TF.GenerationSoftware,KiCad,Pcbnew,(5.1.5)-3*
G04 #@! TF.CreationDate,2020-04-02T00:33:04+02:00*
G04 #@! TF.ProjectId,splitflap,73706c69-7466-46c6-9170-2e6b69636164,rev?*
G04 #@! TF.SameCoordinates,Original*
G04 #@! TF.FileFunction,Soldermask,Bot*
G04 #@! TF.FilePolarity,Negative*
%FSLAX46Y46*%
G04 Gerber Fmt 4.6, Leading zero omitted, Abs format (unit mm)*
G04 Created by KiCad (PCBNEW (5.1.5)-3) date 2020-04-02 00:33:04*
%MOMM*%
%LPD*%
G04 APERTURE LIST*
%ADD10C,0.100000*%
G04 APERTURE END LIST*
D10*
G36*
X191437585Y-112778802D02*
G01*
X191587410Y-112808604D01*
X191869674Y-112925521D01*
X192123705Y-113095259D01*
X192339741Y-113311295D01*
X192509479Y-113565326D01*
X192626396Y-113847590D01*
X192626396Y-113847591D01*
X192686000Y-114147239D01*
X192686000Y-114452761D01*
X192656198Y-114602585D01*
X192626396Y-114752410D01*
X192509479Y-115034674D01*
X192339741Y-115288705D01*
X192123705Y-115504741D01*
X191869674Y-115674479D01*
X191587410Y-115791396D01*
X191437585Y-115821198D01*
X191287761Y-115851000D01*
X190982239Y-115851000D01*
X190832415Y-115821198D01*
X190682590Y-115791396D01*
X190400326Y-115674479D01*
X190146295Y-115504741D01*
X189930259Y-115288705D01*
X189760521Y-115034674D01*
X189643604Y-114752410D01*
X189613802Y-114602585D01*
X189584000Y-114452761D01*
X189584000Y-114147239D01*
X189643604Y-113847591D01*
X189643604Y-113847590D01*
X189760521Y-113565326D01*
X189930259Y-113311295D01*
X190146295Y-113095259D01*
X190400326Y-112925521D01*
X190682590Y-112808604D01*
X190832415Y-112778802D01*
X190982239Y-112749000D01*
X191287761Y-112749000D01*
X191437585Y-112778802D01*
G37*
G36*
X245315256Y-111411298D02*
G01*
X245421579Y-111432447D01*
X245722042Y-111556903D01*
X245992451Y-111737585D01*
X246222415Y-111967549D01*
X246403097Y-112237958D01*
X246525529Y-112533534D01*
X246527553Y-112538422D01*
X246591000Y-112857389D01*
X246591000Y-113182611D01*
X246582715Y-113224260D01*
X246527553Y-113501579D01*
X246403097Y-113802042D01*
X246222415Y-114072451D01*
X245992451Y-114302415D01*
X245722042Y-114483097D01*
X245421579Y-114607553D01*
X245315256Y-114628702D01*
X245102611Y-114671000D01*
X244777389Y-114671000D01*
X244564744Y-114628702D01*
X244458421Y-114607553D01*
X244157958Y-114483097D01*
X243887549Y-114302415D01*
X243657585Y-114072451D01*
X243476903Y-113802042D01*
X243352447Y-113501579D01*
X243297285Y-113224260D01*
X243289000Y-113182611D01*
X243289000Y-112857389D01*
X243352447Y-112538422D01*
X243354472Y-112533534D01*
X243476903Y-112237958D01*
X243657585Y-111967549D01*
X243887549Y-111737585D01*
X244157958Y-111556903D01*
X244458421Y-111432447D01*
X244564744Y-111411298D01*
X244777389Y-111369000D01*
X245102611Y-111369000D01*
X245315256Y-111411298D01*
G37*
G36*
X155315256Y-111411298D02*
G01*
X155421579Y-111432447D01*
X155722042Y-111556903D01*
X155992451Y-111737585D01*
X156222415Y-111967549D01*
X156403097Y-112237958D01*
X156525529Y-112533534D01*
X156527553Y-112538422D01*
X156591000Y-112857389D01*
X156591000Y-113182611D01*
X156582715Y-113224260D01*
X156527553Y-113501579D01*
X156403097Y-113802042D01*
X156222415Y-114072451D01*
X155992451Y-114302415D01*
X155722042Y-114483097D01*
X155421579Y-114607553D01*
X155315256Y-114628702D01*
X155102611Y-114671000D01*
X154777389Y-114671000D01*
X154564744Y-114628702D01*
X154458421Y-114607553D01*
X154157958Y-114483097D01*
X153887549Y-114302415D01*
X153657585Y-114072451D01*
X153476903Y-113802042D01*
X153352447Y-113501579D01*
X153297285Y-113224260D01*
X153289000Y-113182611D01*
X153289000Y-112857389D01*
X153352447Y-112538422D01*
X153354472Y-112533534D01*
X153476903Y-112237958D01*
X153657585Y-111967549D01*
X153887549Y-111737585D01*
X154157958Y-111556903D01*
X154458421Y-111432447D01*
X154564744Y-111411298D01*
X154777389Y-111369000D01*
X155102611Y-111369000D01*
X155315256Y-111411298D01*
G37*
G36*
X174761626Y-111992037D02*
G01*
X174931465Y-112043557D01*
X174931467Y-112043558D01*
X175087989Y-112127221D01*
X175225186Y-112239814D01*
X175308448Y-112341271D01*
X175337778Y-112377009D01*
X175421443Y-112533534D01*
X175472963Y-112703373D01*
X175486000Y-112835742D01*
X175486000Y-113224257D01*
X175472963Y-113356626D01*
X175421443Y-113526466D01*
X175337778Y-113682991D01*
X175308448Y-113718729D01*
X175225186Y-113820186D01*
X175130250Y-113898097D01*
X175087991Y-113932778D01*
X174931466Y-114016443D01*
X174761627Y-114067963D01*
X174585000Y-114085359D01*
X174408374Y-114067963D01*
X174238535Y-114016443D01*
X174082010Y-113932778D01*
X173944815Y-113820185D01*
X173832222Y-113682991D01*
X173748557Y-113526466D01*
X173697037Y-113356627D01*
X173684000Y-113224258D01*
X173684000Y-112835743D01*
X173697037Y-112703374D01*
X173748557Y-112533535D01*
X173832222Y-112377010D01*
X173832223Y-112377009D01*
X173944814Y-112239814D01*
X174046271Y-112156552D01*
X174082009Y-112127222D01*
X174238534Y-112043557D01*
X174408373Y-111992037D01*
X174585000Y-111974641D01*
X174761626Y-111992037D01*
G37*
G36*
X172843600Y-111982989D02*
G01*
X172876652Y-111993015D01*
X172907103Y-112009292D01*
X172933799Y-112031201D01*
X172955708Y-112057897D01*
X172971985Y-112088348D01*
X172982011Y-112121400D01*
X172986000Y-112161903D01*
X172986000Y-113898097D01*
X172982011Y-113938600D01*
X172971985Y-113971652D01*
X172955708Y-114002103D01*
X172933799Y-114028799D01*
X172907103Y-114050708D01*
X172876652Y-114066985D01*
X172843600Y-114077011D01*
X172803097Y-114081000D01*
X171366903Y-114081000D01*
X171326400Y-114077011D01*
X171293348Y-114066985D01*
X171262897Y-114050708D01*
X171236201Y-114028799D01*
X171214292Y-114002103D01*
X171198015Y-113971652D01*
X171187989Y-113938600D01*
X171184000Y-113898097D01*
X171184000Y-112161903D01*
X171187989Y-112121400D01*
X171198015Y-112088348D01*
X171214292Y-112057897D01*
X171236201Y-112031201D01*
X171262897Y-112009292D01*
X171293348Y-111993015D01*
X171326400Y-111982989D01*
X171366903Y-111979000D01*
X172803097Y-111979000D01*
X172843600Y-111982989D01*
G37*
G36*
X191437585Y-107698802D02*
G01*
X191587410Y-107728604D01*
X191869674Y-107845521D01*
X192123705Y-108015259D01*
X192339741Y-108231295D01*
X192509479Y-108485326D01*
X192626396Y-108767590D01*
X192686000Y-109067240D01*
X192686000Y-109372760D01*
X192626396Y-109672410D01*
X192509479Y-109954674D01*
X192339741Y-110208705D01*
X192123705Y-110424741D01*
X191869674Y-110594479D01*
X191587410Y-110711396D01*
X191437585Y-110741198D01*
X191287761Y-110771000D01*
X190982239Y-110771000D01*
X190832415Y-110741198D01*
X190682590Y-110711396D01*
X190400326Y-110594479D01*
X190146295Y-110424741D01*
X189930259Y-110208705D01*
X189760521Y-109954674D01*
X189643604Y-109672410D01*
X189584000Y-109372760D01*
X189584000Y-109067240D01*
X189643604Y-108767590D01*
X189760521Y-108485326D01*
X189930259Y-108231295D01*
X190146295Y-108015259D01*
X190400326Y-107845521D01*
X190682590Y-107728604D01*
X190832415Y-107698802D01*
X190982239Y-107669000D01*
X191287761Y-107669000D01*
X191437585Y-107698802D01*
G37*
G36*
X191437585Y-102618802D02*
G01*
X191587410Y-102648604D01*
X191869674Y-102765521D01*
X192123705Y-102935259D01*
X192339741Y-103151295D01*
X192509479Y-103405326D01*
X192626396Y-103687590D01*
X192686000Y-103987240D01*
X192686000Y-104292760D01*
X192626396Y-104592410D01*
X192509479Y-104874674D01*
X192339741Y-105128705D01*
X192123705Y-105344741D01*
X191869674Y-105514479D01*
X191587410Y-105631396D01*
X191437585Y-105661198D01*
X191287761Y-105691000D01*
X190982239Y-105691000D01*
X190832415Y-105661198D01*
X190682590Y-105631396D01*
X190400326Y-105514479D01*
X190146295Y-105344741D01*
X189930259Y-105128705D01*
X189760521Y-104874674D01*
X189643604Y-104592410D01*
X189584000Y-104292760D01*
X189584000Y-103987240D01*
X189643604Y-103687590D01*
X189760521Y-103405326D01*
X189930259Y-103151295D01*
X190146295Y-102935259D01*
X190400326Y-102765521D01*
X190682590Y-102648604D01*
X190832415Y-102618802D01*
X190982239Y-102589000D01*
X191287761Y-102589000D01*
X191437585Y-102618802D01*
G37*
G36*
X192686000Y-100611000D02*
G01*
X189584000Y-100611000D01*
X189584000Y-97509000D01*
X192686000Y-97509000D01*
X192686000Y-100611000D01*
G37*
G36*
X191437585Y-91188802D02*
G01*
X191587410Y-91218604D01*
X191869674Y-91335521D01*
X192123705Y-91505259D01*
X192339741Y-91721295D01*
X192509479Y-91975326D01*
X192626396Y-92257590D01*
X192686000Y-92557240D01*
X192686000Y-92862760D01*
X192626396Y-93162410D01*
X192509479Y-93444674D01*
X192339741Y-93698705D01*
X192123705Y-93914741D01*
X191869674Y-94084479D01*
X191587410Y-94201396D01*
X191437585Y-94231198D01*
X191287761Y-94261000D01*
X190982239Y-94261000D01*
X190832415Y-94231198D01*
X190682590Y-94201396D01*
X190400326Y-94084479D01*
X190146295Y-93914741D01*
X189930259Y-93698705D01*
X189760521Y-93444674D01*
X189643604Y-93162410D01*
X189584000Y-92862760D01*
X189584000Y-92557240D01*
X189643604Y-92257590D01*
X189760521Y-91975326D01*
X189930259Y-91721295D01*
X190146295Y-91505259D01*
X190400326Y-91335521D01*
X190682590Y-91218604D01*
X190832415Y-91188802D01*
X190982239Y-91159000D01*
X191287761Y-91159000D01*
X191437585Y-91188802D01*
G37*
G36*
X159016778Y-91830547D02*
G01*
X159183224Y-91899491D01*
X159333022Y-91999583D01*
X159460417Y-92126978D01*
X159560509Y-92276776D01*
X159629453Y-92443222D01*
X159664600Y-92619918D01*
X159664600Y-92800082D01*
X159629453Y-92976778D01*
X159560509Y-93143224D01*
X159460417Y-93293022D01*
X159333022Y-93420417D01*
X159183224Y-93520509D01*
X159016778Y-93589453D01*
X158840082Y-93624600D01*
X158659918Y-93624600D01*
X158483222Y-93589453D01*
X158316776Y-93520509D01*
X158166978Y-93420417D01*
X158039583Y-93293022D01*
X157939491Y-93143224D01*
X157870547Y-92976778D01*
X157835400Y-92800082D01*
X157835400Y-92619918D01*
X157870547Y-92443222D01*
X157939491Y-92276776D01*
X158039583Y-92126978D01*
X158166978Y-91999583D01*
X158316776Y-91899491D01*
X158483222Y-91830547D01*
X158659918Y-91795400D01*
X158840082Y-91795400D01*
X159016778Y-91830547D01*
G37*
G36*
X156476778Y-91830547D02*
G01*
X156643224Y-91899491D01*
X156793022Y-91999583D01*
X156920417Y-92126978D01*
X157020509Y-92276776D01*
X157089453Y-92443222D01*
X157124600Y-92619918D01*
X157124600Y-92800082D01*
X157089453Y-92976778D01*
X157020509Y-93143224D01*
X156920417Y-93293022D01*
X156793022Y-93420417D01*
X156643224Y-93520509D01*
X156476778Y-93589453D01*
X156300082Y-93624600D01*
X156119918Y-93624600D01*
X155943222Y-93589453D01*
X155776776Y-93520509D01*
X155626978Y-93420417D01*
X155499583Y-93293022D01*
X155399491Y-93143224D01*
X155330547Y-92976778D01*
X155295400Y-92800082D01*
X155295400Y-92619918D01*
X155330547Y-92443222D01*
X155399491Y-92276776D01*
X155499583Y-92126978D01*
X155626978Y-91999583D01*
X155776776Y-91899491D01*
X155943222Y-91830547D01*
X156119918Y-91795400D01*
X156300082Y-91795400D01*
X156476778Y-91830547D01*
G37*
G36*
X159016778Y-89290547D02*
G01*
X159183224Y-89359491D01*
X159333022Y-89459583D01*
X159460417Y-89586978D01*
X159560509Y-89736776D01*
X159629453Y-89903222D01*
X159664600Y-90079918D01*
X159664600Y-90260082D01*
X159629453Y-90436778D01*
X159560509Y-90603224D01*
X159460417Y-90753022D01*
X159333022Y-90880417D01*
X159183224Y-90980509D01*
X159016778Y-91049453D01*
X158840082Y-91084600D01*
X158659918Y-91084600D01*
X158483222Y-91049453D01*
X158316776Y-90980509D01*
X158166978Y-90880417D01*
X158039583Y-90753022D01*
X157939491Y-90603224D01*
X157870547Y-90436778D01*
X157835400Y-90260082D01*
X157835400Y-90079918D01*
X157870547Y-89903222D01*
X157939491Y-89736776D01*
X158039583Y-89586978D01*
X158166978Y-89459583D01*
X158316776Y-89359491D01*
X158483222Y-89290547D01*
X158659918Y-89255400D01*
X158840082Y-89255400D01*
X159016778Y-89290547D01*
G37*
G36*
X156476778Y-89290547D02*
G01*
X156643224Y-89359491D01*
X156793022Y-89459583D01*
X156920417Y-89586978D01*
X157020509Y-89736776D01*
X157089453Y-89903222D01*
X157124600Y-90079918D01*
X157124600Y-90260082D01*
X157089453Y-90436778D01*
X157020509Y-90603224D01*
X156920417Y-90753022D01*
X156793022Y-90880417D01*
X156643224Y-90980509D01*
X156476778Y-91049453D01*
X156300082Y-91084600D01*
X156119918Y-91084600D01*
X155943222Y-91049453D01*
X155776776Y-90980509D01*
X155626978Y-90880417D01*
X155499583Y-90753022D01*
X155399491Y-90603224D01*
X155330547Y-90436778D01*
X155295400Y-90260082D01*
X155295400Y-90079918D01*
X155330547Y-89903222D01*
X155399491Y-89736776D01*
X155499583Y-89586978D01*
X155626978Y-89459583D01*
X155776776Y-89359491D01*
X155943222Y-89290547D01*
X156119918Y-89255400D01*
X156300082Y-89255400D01*
X156476778Y-89290547D01*
G37*
G36*
X191437585Y-86108802D02*
G01*
X191587410Y-86138604D01*
X191869674Y-86255521D01*
X192123705Y-86425259D01*
X192339741Y-86641295D01*
X192509479Y-86895326D01*
X192626396Y-87177590D01*
X192686000Y-87477240D01*
X192686000Y-87782760D01*
X192626396Y-88082410D01*
X192509479Y-88364674D01*
X192339741Y-88618705D01*
X192123705Y-88834741D01*
X191869674Y-89004479D01*
X191587410Y-89121396D01*
X191437585Y-89151198D01*
X191287761Y-89181000D01*
X190982239Y-89181000D01*
X190832415Y-89151198D01*
X190682590Y-89121396D01*
X190400326Y-89004479D01*
X190146295Y-88834741D01*
X189930259Y-88618705D01*
X189760521Y-88364674D01*
X189643604Y-88082410D01*
X189584000Y-87782760D01*
X189584000Y-87477240D01*
X189643604Y-87177590D01*
X189760521Y-86895326D01*
X189930259Y-86641295D01*
X190146295Y-86425259D01*
X190400326Y-86255521D01*
X190682590Y-86138604D01*
X190832415Y-86108802D01*
X190982239Y-86079000D01*
X191287761Y-86079000D01*
X191437585Y-86108802D01*
G37*
G36*
X156476778Y-86750547D02*
G01*
X156643224Y-86819491D01*
X156793022Y-86919583D01*
X156920417Y-87046978D01*
X157020509Y-87196776D01*
X157089453Y-87363222D01*
X157124600Y-87539918D01*
X157124600Y-87720082D01*
X157089453Y-87896778D01*
X157020509Y-88063224D01*
X156920417Y-88213022D01*
X156793022Y-88340417D01*
X156643224Y-88440509D01*
X156476778Y-88509453D01*
X156300082Y-88544600D01*
X156119918Y-88544600D01*
X155943222Y-88509453D01*
X155776776Y-88440509D01*
X155626978Y-88340417D01*
X155499583Y-88213022D01*
X155399491Y-88063224D01*
X155330547Y-87896778D01*
X155295400Y-87720082D01*
X155295400Y-87539918D01*
X155330547Y-87363222D01*
X155399491Y-87196776D01*
X155499583Y-87046978D01*
X155626978Y-86919583D01*
X155776776Y-86819491D01*
X155943222Y-86750547D01*
X156119918Y-86715400D01*
X156300082Y-86715400D01*
X156476778Y-86750547D01*
G37*
G36*
X159016778Y-86750547D02*
G01*
X159183224Y-86819491D01*
X159333022Y-86919583D01*
X159460417Y-87046978D01*
X159560509Y-87196776D01*
X159629453Y-87363222D01*
X159664600Y-87539918D01*
X159664600Y-87720082D01*
X159629453Y-87896778D01*
X159560509Y-88063224D01*
X159460417Y-88213022D01*
X159333022Y-88340417D01*
X159183224Y-88440509D01*
X159016778Y-88509453D01*
X158840082Y-88544600D01*
X158659918Y-88544600D01*
X158483222Y-88509453D01*
X158316776Y-88440509D01*
X158166978Y-88340417D01*
X158039583Y-88213022D01*
X157939491Y-88063224D01*
X157870547Y-87896778D01*
X157835400Y-87720082D01*
X157835400Y-87539918D01*
X157870547Y-87363222D01*
X157939491Y-87196776D01*
X158039583Y-87046978D01*
X158166978Y-86919583D01*
X158316776Y-86819491D01*
X158483222Y-86750547D01*
X158659918Y-86715400D01*
X158840082Y-86715400D01*
X159016778Y-86750547D01*
G37*
G36*
X156476778Y-84210547D02*
G01*
X156643224Y-84279491D01*
X156793022Y-84379583D01*
X156920417Y-84506978D01*
X157020509Y-84656776D01*
X157089453Y-84823222D01*
X157124600Y-84999918D01*
X157124600Y-85180082D01*
X157089453Y-85356778D01*
X157020509Y-85523224D01*
X156920417Y-85673022D01*
X156793022Y-85800417D01*
X156643224Y-85900509D01*
X156476778Y-85969453D01*
X156300082Y-86004600D01*
X156119918Y-86004600D01*
X155943222Y-85969453D01*
X155776776Y-85900509D01*
X155626978Y-85800417D01*
X155499583Y-85673022D01*
X155399491Y-85523224D01*
X155330547Y-85356778D01*
X155295400Y-85180082D01*
X155295400Y-84999918D01*
X155330547Y-84823222D01*
X155399491Y-84656776D01*
X155499583Y-84506978D01*
X155626978Y-84379583D01*
X155776776Y-84279491D01*
X155943222Y-84210547D01*
X156119918Y-84175400D01*
X156300082Y-84175400D01*
X156476778Y-84210547D01*
G37*
G36*
X159016778Y-84210547D02*
G01*
X159183224Y-84279491D01*
X159333022Y-84379583D01*
X159460417Y-84506978D01*
X159560509Y-84656776D01*
X159629453Y-84823222D01*
X159664600Y-84999918D01*
X159664600Y-85180082D01*
X159629453Y-85356778D01*
X159560509Y-85523224D01*
X159460417Y-85673022D01*
X159333022Y-85800417D01*
X159183224Y-85900509D01*
X159016778Y-85969453D01*
X158840082Y-86004600D01*
X158659918Y-86004600D01*
X158483222Y-85969453D01*
X158316776Y-85900509D01*
X158166978Y-85800417D01*
X158039583Y-85673022D01*
X157939491Y-85523224D01*
X157870547Y-85356778D01*
X157835400Y-85180082D01*
X157835400Y-84999918D01*
X157870547Y-84823222D01*
X157939491Y-84656776D01*
X158039583Y-84506978D01*
X158166978Y-84379583D01*
X158316776Y-84279491D01*
X158483222Y-84210547D01*
X158659918Y-84175400D01*
X158840082Y-84175400D01*
X159016778Y-84210547D01*
G37*
G36*
X191437585Y-81028802D02*
G01*
X191587410Y-81058604D01*
X191869674Y-81175521D01*
X192123705Y-81345259D01*
X192339741Y-81561295D01*
X192509479Y-81815326D01*
X192626396Y-82097590D01*
X192686000Y-82397240D01*
X192686000Y-82702760D01*
X192626396Y-83002410D01*
X192509479Y-83284674D01*
X192339741Y-83538705D01*
X192123705Y-83754741D01*
X191869674Y-83924479D01*
X191587410Y-84041396D01*
X191437585Y-84071198D01*
X191287761Y-84101000D01*
X190982239Y-84101000D01*
X190832415Y-84071198D01*
X190682590Y-84041396D01*
X190400326Y-83924479D01*
X190146295Y-83754741D01*
X189930259Y-83538705D01*
X189760521Y-83284674D01*
X189643604Y-83002410D01*
X189584000Y-82702760D01*
X189584000Y-82397240D01*
X189643604Y-82097590D01*
X189760521Y-81815326D01*
X189930259Y-81561295D01*
X190146295Y-81345259D01*
X190400326Y-81175521D01*
X190682590Y-81058604D01*
X190832415Y-81028802D01*
X190982239Y-80999000D01*
X191287761Y-80999000D01*
X191437585Y-81028802D01*
G37*
G36*
X159016778Y-81670547D02*
G01*
X159183224Y-81739491D01*
X159333022Y-81839583D01*
X159460417Y-81966978D01*
X159560509Y-82116776D01*
X159629453Y-82283222D01*
X159664600Y-82459918D01*
X159664600Y-82640082D01*
X159629453Y-82816778D01*
X159560509Y-82983224D01*
X159460417Y-83133022D01*
X159333022Y-83260417D01*
X159183224Y-83360509D01*
X159016778Y-83429453D01*
X158840082Y-83464600D01*
X158659918Y-83464600D01*
X158483222Y-83429453D01*
X158316776Y-83360509D01*
X158166978Y-83260417D01*
X158039583Y-83133022D01*
X157939491Y-82983224D01*
X157870547Y-82816778D01*
X157835400Y-82640082D01*
X157835400Y-82459918D01*
X157870547Y-82283222D01*
X157939491Y-82116776D01*
X158039583Y-81966978D01*
X158166978Y-81839583D01*
X158316776Y-81739491D01*
X158483222Y-81670547D01*
X158659918Y-81635400D01*
X158840082Y-81635400D01*
X159016778Y-81670547D01*
G37*
G36*
X156476778Y-81670547D02*
G01*
X156643224Y-81739491D01*
X156793022Y-81839583D01*
X156920417Y-81966978D01*
X157020509Y-82116776D01*
X157089453Y-82283222D01*
X157124600Y-82459918D01*
X157124600Y-82640082D01*
X157089453Y-82816778D01*
X157020509Y-82983224D01*
X156920417Y-83133022D01*
X156793022Y-83260417D01*
X156643224Y-83360509D01*
X156476778Y-83429453D01*
X156300082Y-83464600D01*
X156119918Y-83464600D01*
X155943222Y-83429453D01*
X155776776Y-83360509D01*
X155626978Y-83260417D01*
X155499583Y-83133022D01*
X155399491Y-82983224D01*
X155330547Y-82816778D01*
X155295400Y-82640082D01*
X155295400Y-82459918D01*
X155330547Y-82283222D01*
X155399491Y-82116776D01*
X155499583Y-81966978D01*
X155626978Y-81839583D01*
X155776776Y-81739491D01*
X155943222Y-81670547D01*
X156119918Y-81635400D01*
X156300082Y-81635400D01*
X156476778Y-81670547D01*
G37*
G36*
X159016778Y-79130547D02*
G01*
X159183224Y-79199491D01*
X159333022Y-79299583D01*
X159460417Y-79426978D01*
X159560509Y-79576776D01*
X159629453Y-79743222D01*
X159664600Y-79919918D01*
X159664600Y-80100082D01*
X159629453Y-80276778D01*
X159560509Y-80443224D01*
X159460417Y-80593022D01*
X159333022Y-80720417D01*
X159183224Y-80820509D01*
X159016778Y-80889453D01*
X158840082Y-80924600D01*
X158659918Y-80924600D01*
X158483222Y-80889453D01*
X158316776Y-80820509D01*
X158166978Y-80720417D01*
X158039583Y-80593022D01*
X157939491Y-80443224D01*
X157870547Y-80276778D01*
X157835400Y-80100082D01*
X157835400Y-79919918D01*
X157870547Y-79743222D01*
X157939491Y-79576776D01*
X158039583Y-79426978D01*
X158166978Y-79299583D01*
X158316776Y-79199491D01*
X158483222Y-79130547D01*
X158659918Y-79095400D01*
X158840082Y-79095400D01*
X159016778Y-79130547D01*
G37*
G36*
X157124600Y-80924600D02*
G01*
X155295400Y-80924600D01*
X155295400Y-79095400D01*
X157124600Y-79095400D01*
X157124600Y-80924600D01*
G37*
G36*
X192686000Y-79021000D02*
G01*
X189584000Y-79021000D01*
X189584000Y-75919000D01*
X192686000Y-75919000D01*
X192686000Y-79021000D01*
G37*
G36*
X191437585Y-69598802D02*
G01*
X191587410Y-69628604D01*
X191869674Y-69745521D01*
X192123705Y-69915259D01*
X192339741Y-70131295D01*
X192509479Y-70385326D01*
X192626396Y-70667590D01*
X192686000Y-70967240D01*
X192686000Y-71272760D01*
X192626396Y-71572410D01*
X192509479Y-71854674D01*
X192339741Y-72108705D01*
X192123705Y-72324741D01*
X191869674Y-72494479D01*
X191587410Y-72611396D01*
X191437585Y-72641198D01*
X191287761Y-72671000D01*
X190982239Y-72671000D01*
X190832415Y-72641198D01*
X190682590Y-72611396D01*
X190400326Y-72494479D01*
X190146295Y-72324741D01*
X189930259Y-72108705D01*
X189760521Y-71854674D01*
X189643604Y-71572410D01*
X189584000Y-71272760D01*
X189584000Y-70967240D01*
X189643604Y-70667590D01*
X189760521Y-70385326D01*
X189930259Y-70131295D01*
X190146295Y-69915259D01*
X190400326Y-69745521D01*
X190682590Y-69628604D01*
X190832415Y-69598802D01*
X190982239Y-69569000D01*
X191287761Y-69569000D01*
X191437585Y-69598802D01*
G37*
G36*
X159016778Y-66430547D02*
G01*
X159183224Y-66499491D01*
X159333022Y-66599583D01*
X159460417Y-66726978D01*
X159560509Y-66876776D01*
X159629453Y-67043222D01*
X159664600Y-67219918D01*
X159664600Y-67400082D01*
X159629453Y-67576778D01*
X159560509Y-67743224D01*
X159460417Y-67893022D01*
X159333022Y-68020417D01*
X159183224Y-68120509D01*
X159016778Y-68189453D01*
X158840082Y-68224600D01*
X158659918Y-68224600D01*
X158483222Y-68189453D01*
X158316776Y-68120509D01*
X158166978Y-68020417D01*
X158039583Y-67893022D01*
X157939491Y-67743224D01*
X157870547Y-67576778D01*
X157835400Y-67400082D01*
X157835400Y-67219918D01*
X157870547Y-67043222D01*
X157939491Y-66876776D01*
X158039583Y-66726978D01*
X158166978Y-66599583D01*
X158316776Y-66499491D01*
X158483222Y-66430547D01*
X158659918Y-66395400D01*
X158840082Y-66395400D01*
X159016778Y-66430547D01*
G37*
G36*
X156476778Y-66430547D02*
G01*
X156643224Y-66499491D01*
X156793022Y-66599583D01*
X156920417Y-66726978D01*
X157020509Y-66876776D01*
X157089453Y-67043222D01*
X157124600Y-67219918D01*
X157124600Y-67400082D01*
X157089453Y-67576778D01*
X157020509Y-67743224D01*
X156920417Y-67893022D01*
X156793022Y-68020417D01*
X156643224Y-68120509D01*
X156476778Y-68189453D01*
X156300082Y-68224600D01*
X156119918Y-68224600D01*
X155943222Y-68189453D01*
X155776776Y-68120509D01*
X155626978Y-68020417D01*
X155499583Y-67893022D01*
X155399491Y-67743224D01*
X155330547Y-67576778D01*
X155295400Y-67400082D01*
X155295400Y-67219918D01*
X155330547Y-67043222D01*
X155399491Y-66876776D01*
X155499583Y-66726978D01*
X155626978Y-66599583D01*
X155776776Y-66499491D01*
X155943222Y-66430547D01*
X156119918Y-66395400D01*
X156300082Y-66395400D01*
X156476778Y-66430547D01*
G37*
G36*
X191359254Y-64503221D02*
G01*
X191587410Y-64548604D01*
X191869674Y-64665521D01*
X192123705Y-64835259D01*
X192339741Y-65051295D01*
X192509479Y-65305326D01*
X192626396Y-65587590D01*
X192686000Y-65887240D01*
X192686000Y-66192760D01*
X192626396Y-66492410D01*
X192509479Y-66774674D01*
X192339741Y-67028705D01*
X192123705Y-67244741D01*
X191869674Y-67414479D01*
X191587410Y-67531396D01*
X191437585Y-67561198D01*
X191287761Y-67591000D01*
X190982239Y-67591000D01*
X190832415Y-67561198D01*
X190682590Y-67531396D01*
X190400326Y-67414479D01*
X190146295Y-67244741D01*
X189930259Y-67028705D01*
X189760521Y-66774674D01*
X189643604Y-66492410D01*
X189584000Y-66192760D01*
X189584000Y-65887240D01*
X189643604Y-65587590D01*
X189760521Y-65305326D01*
X189930259Y-65051295D01*
X190146295Y-64835259D01*
X190400326Y-64665521D01*
X190682590Y-64548604D01*
X190910746Y-64503221D01*
X190982239Y-64489000D01*
X191287761Y-64489000D01*
X191359254Y-64503221D01*
G37*
G36*
X156476778Y-63890547D02*
G01*
X156643224Y-63959491D01*
X156793022Y-64059583D01*
X156920417Y-64186978D01*
X157020509Y-64336776D01*
X157089453Y-64503222D01*
X157124600Y-64679918D01*
X157124600Y-64860082D01*
X157089453Y-65036778D01*
X157020509Y-65203224D01*
X156920417Y-65353022D01*
X156793022Y-65480417D01*
X156643224Y-65580509D01*
X156476778Y-65649453D01*
X156300082Y-65684600D01*
X156119918Y-65684600D01*
X155943222Y-65649453D01*
X155776776Y-65580509D01*
X155626978Y-65480417D01*
X155499583Y-65353022D01*
X155399491Y-65203224D01*
X155330547Y-65036778D01*
X155295400Y-64860082D01*
X155295400Y-64679918D01*
X155330547Y-64503222D01*
X155399491Y-64336776D01*
X155499583Y-64186978D01*
X155626978Y-64059583D01*
X155776776Y-63959491D01*
X155943222Y-63890547D01*
X156119918Y-63855400D01*
X156300082Y-63855400D01*
X156476778Y-63890547D01*
G37*
G36*
X159016778Y-63890547D02*
G01*
X159183224Y-63959491D01*
X159333022Y-64059583D01*
X159460417Y-64186978D01*
X159560509Y-64336776D01*
X159629453Y-64503222D01*
X159664600Y-64679918D01*
X159664600Y-64860082D01*
X159629453Y-65036778D01*
X159560509Y-65203224D01*
X159460417Y-65353022D01*
X159333022Y-65480417D01*
X159183224Y-65580509D01*
X159016778Y-65649453D01*
X158840082Y-65684600D01*
X158659918Y-65684600D01*
X158483222Y-65649453D01*
X158316776Y-65580509D01*
X158166978Y-65480417D01*
X158039583Y-65353022D01*
X157939491Y-65203224D01*
X157870547Y-65036778D01*
X157835400Y-64860082D01*
X157835400Y-64679918D01*
X157870547Y-64503222D01*
X157939491Y-64336776D01*
X158039583Y-64186978D01*
X158166978Y-64059583D01*
X158316776Y-63959491D01*
X158483222Y-63890547D01*
X158659918Y-63855400D01*
X158840082Y-63855400D01*
X159016778Y-63890547D01*
G37*
G36*
X156476778Y-61350547D02*
G01*
X156643224Y-61419491D01*
X156793022Y-61519583D01*
X156920417Y-61646978D01*
X157020509Y-61796776D01*
X157089453Y-61963222D01*
X157124600Y-62139918D01*
X157124600Y-62320082D01*
X157089453Y-62496778D01*
X157020509Y-62663224D01*
X156920417Y-62813022D01*
X156793022Y-62940417D01*
X156643224Y-63040509D01*
X156476778Y-63109453D01*
X156300082Y-63144600D01*
X156119918Y-63144600D01*
X155943222Y-63109453D01*
X155776776Y-63040509D01*
X155626978Y-62940417D01*
X155499583Y-62813022D01*
X155399491Y-62663224D01*
X155330547Y-62496778D01*
X155295400Y-62320082D01*
X155295400Y-62139918D01*
X155330547Y-61963222D01*
X155399491Y-61796776D01*
X155499583Y-61646978D01*
X155626978Y-61519583D01*
X155776776Y-61419491D01*
X155943222Y-61350547D01*
X156119918Y-61315400D01*
X156300082Y-61315400D01*
X156476778Y-61350547D01*
G37*
G36*
X159016778Y-61350547D02*
G01*
X159183224Y-61419491D01*
X159333022Y-61519583D01*
X159460417Y-61646978D01*
X159560509Y-61796776D01*
X159629453Y-61963222D01*
X159664600Y-62139918D01*
X159664600Y-62320082D01*
X159629453Y-62496778D01*
X159560509Y-62663224D01*
X159460417Y-62813022D01*
X159333022Y-62940417D01*
X159183224Y-63040509D01*
X159016778Y-63109453D01*
X158840082Y-63144600D01*
X158659918Y-63144600D01*
X158483222Y-63109453D01*
X158316776Y-63040509D01*
X158166978Y-62940417D01*
X158039583Y-62813022D01*
X157939491Y-62663224D01*
X157870547Y-62496778D01*
X157835400Y-62320082D01*
X157835400Y-62139918D01*
X157870547Y-61963222D01*
X157939491Y-61796776D01*
X158039583Y-61646978D01*
X158166978Y-61519583D01*
X158316776Y-61419491D01*
X158483222Y-61350547D01*
X158659918Y-61315400D01*
X158840082Y-61315400D01*
X159016778Y-61350547D01*
G37*
G36*
X191359254Y-59423221D02*
G01*
X191587410Y-59468604D01*
X191869674Y-59585521D01*
X192123705Y-59755259D01*
X192339741Y-59971295D01*
X192509479Y-60225326D01*
X192626396Y-60507590D01*
X192686000Y-60807240D01*
X192686000Y-61112760D01*
X192626396Y-61412410D01*
X192509479Y-61694674D01*
X192339741Y-61948705D01*
X192123705Y-62164741D01*
X191869674Y-62334479D01*
X191587410Y-62451396D01*
X191437585Y-62481198D01*
X191287761Y-62511000D01*
X190982239Y-62511000D01*
X190832415Y-62481198D01*
X190682590Y-62451396D01*
X190400326Y-62334479D01*
X190146295Y-62164741D01*
X189930259Y-61948705D01*
X189760521Y-61694674D01*
X189643604Y-61412410D01*
X189584000Y-61112760D01*
X189584000Y-60807240D01*
X189643604Y-60507590D01*
X189760521Y-60225326D01*
X189930259Y-59971295D01*
X190146295Y-59755259D01*
X190400326Y-59585521D01*
X190682590Y-59468604D01*
X190910746Y-59423221D01*
X190982239Y-59409000D01*
X191287761Y-59409000D01*
X191359254Y-59423221D01*
G37*
G36*
X159016778Y-58810547D02*
G01*
X159183224Y-58879491D01*
X159333022Y-58979583D01*
X159460417Y-59106978D01*
X159560509Y-59256776D01*
X159629453Y-59423222D01*
X159664600Y-59599918D01*
X159664600Y-59780082D01*
X159629453Y-59956778D01*
X159560509Y-60123224D01*
X159460417Y-60273022D01*
X159333022Y-60400417D01*
X159183224Y-60500509D01*
X159016778Y-60569453D01*
X158840082Y-60604600D01*
X158659918Y-60604600D01*
X158483222Y-60569453D01*
X158316776Y-60500509D01*
X158166978Y-60400417D01*
X158039583Y-60273022D01*
X157939491Y-60123224D01*
X157870547Y-59956778D01*
X157835400Y-59780082D01*
X157835400Y-59599918D01*
X157870547Y-59423222D01*
X157939491Y-59256776D01*
X158039583Y-59106978D01*
X158166978Y-58979583D01*
X158316776Y-58879491D01*
X158483222Y-58810547D01*
X158659918Y-58775400D01*
X158840082Y-58775400D01*
X159016778Y-58810547D01*
G37*
G36*
X156476778Y-58810547D02*
G01*
X156643224Y-58879491D01*
X156793022Y-58979583D01*
X156920417Y-59106978D01*
X157020509Y-59256776D01*
X157089453Y-59423222D01*
X157124600Y-59599918D01*
X157124600Y-59780082D01*
X157089453Y-59956778D01*
X157020509Y-60123224D01*
X156920417Y-60273022D01*
X156793022Y-60400417D01*
X156643224Y-60500509D01*
X156476778Y-60569453D01*
X156300082Y-60604600D01*
X156119918Y-60604600D01*
X155943222Y-60569453D01*
X155776776Y-60500509D01*
X155626978Y-60400417D01*
X155499583Y-60273022D01*
X155399491Y-60123224D01*
X155330547Y-59956778D01*
X155295400Y-59780082D01*
X155295400Y-59599918D01*
X155330547Y-59423222D01*
X155399491Y-59256776D01*
X155499583Y-59106978D01*
X155626978Y-58979583D01*
X155776776Y-58879491D01*
X155943222Y-58810547D01*
X156119918Y-58775400D01*
X156300082Y-58775400D01*
X156476778Y-58810547D01*
G37*
G36*
X156476778Y-56270547D02*
G01*
X156643224Y-56339491D01*
X156793022Y-56439583D01*
X156920417Y-56566978D01*
X157020509Y-56716776D01*
X157089453Y-56883222D01*
X157124600Y-57059918D01*
X157124600Y-57240082D01*
X157089453Y-57416778D01*
X157020509Y-57583224D01*
X156920417Y-57733022D01*
X156793022Y-57860417D01*
X156643224Y-57960509D01*
X156476778Y-58029453D01*
X156300082Y-58064600D01*
X156119918Y-58064600D01*
X155943222Y-58029453D01*
X155776776Y-57960509D01*
X155626978Y-57860417D01*
X155499583Y-57733022D01*
X155399491Y-57583224D01*
X155330547Y-57416778D01*
X155295400Y-57240082D01*
X155295400Y-57059918D01*
X155330547Y-56883222D01*
X155399491Y-56716776D01*
X155499583Y-56566978D01*
X155626978Y-56439583D01*
X155776776Y-56339491D01*
X155943222Y-56270547D01*
X156119918Y-56235400D01*
X156300082Y-56235400D01*
X156476778Y-56270547D01*
G37*
G36*
X159016778Y-56270547D02*
G01*
X159183224Y-56339491D01*
X159333022Y-56439583D01*
X159460417Y-56566978D01*
X159560509Y-56716776D01*
X159629453Y-56883222D01*
X159664600Y-57059918D01*
X159664600Y-57240082D01*
X159629453Y-57416778D01*
X159560509Y-57583224D01*
X159460417Y-57733022D01*
X159333022Y-57860417D01*
X159183224Y-57960509D01*
X159016778Y-58029453D01*
X158840082Y-58064600D01*
X158659918Y-58064600D01*
X158483222Y-58029453D01*
X158316776Y-57960509D01*
X158166978Y-57860417D01*
X158039583Y-57733022D01*
X157939491Y-57583224D01*
X157870547Y-57416778D01*
X157835400Y-57240082D01*
X157835400Y-57059918D01*
X157870547Y-56883222D01*
X157939491Y-56716776D01*
X158039583Y-56566978D01*
X158166978Y-56439583D01*
X158316776Y-56339491D01*
X158483222Y-56270547D01*
X158659918Y-56235400D01*
X158840082Y-56235400D01*
X159016778Y-56270547D01*
G37*
G36*
X192686000Y-57431000D02*
G01*
X189584000Y-57431000D01*
X189584000Y-54329000D01*
X192686000Y-54329000D01*
X192686000Y-57431000D01*
G37*
G36*
X159016778Y-53730547D02*
G01*
X159183224Y-53799491D01*
X159333022Y-53899583D01*
X159460417Y-54026978D01*
X159560509Y-54176776D01*
X159629453Y-54343222D01*
X159664600Y-54519918D01*
X159664600Y-54700082D01*
X159629453Y-54876778D01*
X159560509Y-55043224D01*
X159460417Y-55193022D01*
X159333022Y-55320417D01*
X159183224Y-55420509D01*
X159016778Y-55489453D01*
X158840082Y-55524600D01*
X158659918Y-55524600D01*
X158483222Y-55489453D01*
X158316776Y-55420509D01*
X158166978Y-55320417D01*
X158039583Y-55193022D01*
X157939491Y-55043224D01*
X157870547Y-54876778D01*
X157835400Y-54700082D01*
X157835400Y-54519918D01*
X157870547Y-54343222D01*
X157939491Y-54176776D01*
X158039583Y-54026978D01*
X158166978Y-53899583D01*
X158316776Y-53799491D01*
X158483222Y-53730547D01*
X158659918Y-53695400D01*
X158840082Y-53695400D01*
X159016778Y-53730547D01*
G37*
G36*
X157124600Y-55524600D02*
G01*
X155295400Y-55524600D01*
X155295400Y-53695400D01*
X157124600Y-53695400D01*
X157124600Y-55524600D01*
G37*
G36*
X191437585Y-48008802D02*
G01*
X191587410Y-48038604D01*
X191869674Y-48155521D01*
X192123705Y-48325259D01*
X192339741Y-48541295D01*
X192509479Y-48795326D01*
X192626396Y-49077590D01*
X192686000Y-49377240D01*
X192686000Y-49682760D01*
X192626396Y-49982410D01*
X192509479Y-50264674D01*
X192339741Y-50518705D01*
X192123705Y-50734741D01*
X191869674Y-50904479D01*
X191587410Y-51021396D01*
X191437585Y-51051198D01*
X191287761Y-51081000D01*
X190982239Y-51081000D01*
X190832415Y-51051198D01*
X190682590Y-51021396D01*
X190400326Y-50904479D01*
X190146295Y-50734741D01*
X189930259Y-50518705D01*
X189760521Y-50264674D01*
X189643604Y-49982410D01*
X189584000Y-49682760D01*
X189584000Y-49377240D01*
X189643604Y-49077590D01*
X189760521Y-48795326D01*
X189930259Y-48541295D01*
X190146295Y-48325259D01*
X190400326Y-48155521D01*
X190682590Y-48038604D01*
X190832415Y-48008802D01*
X190982239Y-47979000D01*
X191287761Y-47979000D01*
X191437585Y-48008802D01*
G37*
G36*
X191437585Y-42928802D02*
G01*
X191587410Y-42958604D01*
X191869674Y-43075521D01*
X192123705Y-43245259D01*
X192339741Y-43461295D01*
X192509479Y-43715326D01*
X192626396Y-43997590D01*
X192686000Y-44297240D01*
X192686000Y-44602760D01*
X192626396Y-44902410D01*
X192509479Y-45184674D01*
X192339741Y-45438705D01*
X192123705Y-45654741D01*
X191869674Y-45824479D01*
X191587410Y-45941396D01*
X191437585Y-45971198D01*
X191287761Y-46001000D01*
X190982239Y-46001000D01*
X190832415Y-45971198D01*
X190682590Y-45941396D01*
X190400326Y-45824479D01*
X190146295Y-45654741D01*
X189930259Y-45438705D01*
X189760521Y-45184674D01*
X189643604Y-44902410D01*
X189584000Y-44602760D01*
X189584000Y-44297240D01*
X189643604Y-43997590D01*
X189760521Y-43715326D01*
X189930259Y-43461295D01*
X190146295Y-43245259D01*
X190400326Y-43075521D01*
X190682590Y-42958604D01*
X190832415Y-42928802D01*
X190982239Y-42899000D01*
X191287761Y-42899000D01*
X191437585Y-42928802D01*
G37*
G36*
X191437585Y-37848802D02*
G01*
X191587410Y-37878604D01*
X191869674Y-37995521D01*
X192123705Y-38165259D01*
X192339741Y-38381295D01*
X192509479Y-38635326D01*
X192626396Y-38917590D01*
X192686000Y-39217240D01*
X192686000Y-39522760D01*
X192626396Y-39822410D01*
X192509479Y-40104674D01*
X192339741Y-40358705D01*
X192123705Y-40574741D01*
X191869674Y-40744479D01*
X191587410Y-40861396D01*
X191437585Y-40891198D01*
X191287761Y-40921000D01*
X190982239Y-40921000D01*
X190832415Y-40891198D01*
X190682590Y-40861396D01*
X190400326Y-40744479D01*
X190146295Y-40574741D01*
X189930259Y-40358705D01*
X189760521Y-40104674D01*
X189643604Y-39822410D01*
X189584000Y-39522760D01*
X189584000Y-39217240D01*
X189643604Y-38917590D01*
X189760521Y-38635326D01*
X189930259Y-38381295D01*
X190146295Y-38165259D01*
X190400326Y-37995521D01*
X190682590Y-37878604D01*
X190832415Y-37848802D01*
X190982239Y-37819000D01*
X191287761Y-37819000D01*
X191437585Y-37848802D01*
G37*
G36*
X192686000Y-35841000D02*
G01*
X189584000Y-35841000D01*
X189584000Y-32739000D01*
X192686000Y-32739000D01*
X192686000Y-35841000D01*
G37*
G36*
X155315256Y-31411298D02*
G01*
X155421579Y-31432447D01*
X155722042Y-31556903D01*
X155992451Y-31737585D01*
X156222415Y-31967549D01*
X156403097Y-32237958D01*
X156527553Y-32538421D01*
X156591000Y-32857391D01*
X156591000Y-33182609D01*
X156527553Y-33501579D01*
X156403097Y-33802042D01*
X156222415Y-34072451D01*
X155992451Y-34302415D01*
X155722042Y-34483097D01*
X155421579Y-34607553D01*
X155315256Y-34628702D01*
X155102611Y-34671000D01*
X154777389Y-34671000D01*
X154564744Y-34628702D01*
X154458421Y-34607553D01*
X154157958Y-34483097D01*
X153887549Y-34302415D01*
X153657585Y-34072451D01*
X153476903Y-33802042D01*
X153352447Y-33501579D01*
X153289000Y-33182609D01*
X153289000Y-32857391D01*
X153352447Y-32538421D01*
X153476903Y-32237958D01*
X153657585Y-31967549D01*
X153887549Y-31737585D01*
X154157958Y-31556903D01*
X154458421Y-31432447D01*
X154564744Y-31411298D01*
X154777389Y-31369000D01*
X155102611Y-31369000D01*
X155315256Y-31411298D01*
G37*
G36*
X245315256Y-31411298D02*
G01*
X245421579Y-31432447D01*
X245722042Y-31556903D01*
X245992451Y-31737585D01*
X246222415Y-31967549D01*
X246403097Y-32237958D01*
X246527553Y-32538421D01*
X246591000Y-32857391D01*
X246591000Y-33182609D01*
X246527553Y-33501579D01*
X246403097Y-33802042D01*
X246222415Y-34072451D01*
X245992451Y-34302415D01*
X245722042Y-34483097D01*
X245421579Y-34607553D01*
X245315256Y-34628702D01*
X245102611Y-34671000D01*
X244777389Y-34671000D01*
X244564744Y-34628702D01*
X244458421Y-34607553D01*
X244157958Y-34483097D01*
X243887549Y-34302415D01*
X243657585Y-34072451D01*
X243476903Y-33802042D01*
X243352447Y-33501579D01*
X243289000Y-33182609D01*
X243289000Y-32857391D01*
X243352447Y-32538421D01*
X243476903Y-32237958D01*
X243657585Y-31967549D01*
X243887549Y-31737585D01*
X244157958Y-31556903D01*
X244458421Y-31432447D01*
X244564744Y-31411298D01*
X244777389Y-31369000D01*
X245102611Y-31369000D01*
X245315256Y-31411298D01*
G37*
M02*
