M48
; DRILL file {KiCad (5.1.5)-3} date 04/01/20 22:36:17
; FORMAT={-:-/ absolute / inch / decimal}
; #@! TF.CreationDate,2020-04-01T22:36:17+02:00
; #@! TF.GenerationSoftware,Kicad,Pcbnew,(5.1.5)-3
; #@! TF.FileFunction,Plated,1,2,PTH
FMAT,2
INCH
T1C0.0157
T2C0.0236
T3C0.0315
T4C0.0400
T5C0.0598
%
G90
G05
T1
X6.05Y-3.4
X6.0805Y-3.215
X6.107Y-3.0358
X6.45Y-2.4
X6.45Y-3.15
X6.45Y-3.2
X6.45Y-3.25
X6.5Y-3.1
X6.5Y-3.15
X6.5Y-3.2
X6.5Y-3.25
X6.55Y-2.35
X6.55Y-3.25
X6.6Y-2.35
X6.6Y-3.1
X6.65Y-2.5
X6.7Y-2.8
X6.75Y-3.35
X6.8Y-1.65
X6.8Y-1.95
X6.8Y-2.0
X6.8Y-3.35
X6.825Y-2.2
X6.85Y-1.65
X6.85Y-3.35
X6.875Y-2.15
X6.875Y-2.2
X6.9Y-1.65
X6.95Y-2.45
X7.0Y-2.45
X7.0469Y-2.7469
X7.05Y-1.65
X7.05Y-2.25
X7.1Y-2.45
X7.2Y-1.95
X7.25Y-1.95
X7.25Y-2.2
X7.3Y-2.2
X7.35Y-1.65
X7.35Y-1.95
X7.3531Y-2.4531
X7.4Y-1.65
X7.4Y-1.95
X7.4Y-2.95
X7.4Y-3.0
X7.45Y-1.95
X7.5Y-2.75
X7.55Y-2.0
X7.55Y-2.3
X7.55Y-2.4
X7.55Y-2.45
X7.55Y-2.8
X7.644Y-1.644
X7.65Y-1.3
X7.65Y-1.35
X7.65Y-1.6
X7.65Y-2.45
X7.7Y-1.25
X7.7Y-1.3
X7.75Y-1.25
X7.8Y-2.25
X7.8Y-2.45
X7.8Y-3.3
X7.85Y-1.65
X7.85Y-2.45
X7.85Y-3.3
X7.9Y-2.45
X7.95Y-1.45
X7.95Y-1.95
X7.95Y-2.75
X7.95Y-3.05
X7.95Y-3.55
X7.95Y-3.85
X7.95Y-4.35
X8.0Y-1.4
X8.0Y-1.45
X8.0Y-1.95
X8.0Y-2.0
X8.0Y-2.75
X8.0Y-2.8
X8.0Y-3.05
X8.0Y-3.55
X8.0Y-3.6
X8.0Y-3.85
X8.0Y-4.35
X8.0Y-4.4
X8.05Y-1.4
X8.05Y-1.45
X8.05Y-1.6
X8.05Y-1.8
X8.05Y-1.95
X8.05Y-2.0
X8.05Y-2.3
X8.05Y-2.3
X8.05Y-2.4
X8.05Y-2.75
X8.05Y-2.8
X8.05Y-3.05
X8.05Y-3.2
X8.05Y-3.55
X8.05Y-3.6
X8.05Y-3.85
X8.05Y-4.35
X8.05Y-4.4
X8.1Y-1.4
X8.1Y-1.45
X8.1Y-1.6
X8.1Y-1.95
X8.1Y-2.0
X8.1Y-2.75
X8.1Y-2.8
X8.1Y-3.05
X8.1Y-3.2
X8.1Y-3.55
X8.1Y-3.6
X8.1Y-3.85
X8.1Y-4.35
X8.1Y-4.4
X8.15Y-1.45
X8.15Y-1.95
X8.15Y-2.75
X8.15Y-3.05
X8.15Y-3.55
X8.15Y-3.85
X8.15Y-4.35
X8.3451Y-2.2993
X8.5Y-2.25
X8.5Y-2.7
X8.5Y-3.1
X8.5Y-3.4
X8.5469Y-2.4146
X8.55Y-1.55
X8.55Y-1.8
X8.55Y-2.6
X8.55Y-2.75
X8.55Y-2.8
X8.55Y-3.1
X8.6Y-2.7
X8.75Y-1.25
X8.7591Y-3.1409
X8.8Y-1.3
X8.8Y-1.35
X8.8Y-1.4
X8.8Y-1.45
X8.8Y-1.85
X8.8Y-2.65
X8.8Y-3.45
X8.85Y-1.5
X8.85Y-3.1
X8.9Y-1.3
X8.9Y-1.35
X8.9Y-1.4
T2
X8.225Y-2.1
X8.3037Y-2.1
X6.9463Y-3.775
X7.025Y-3.775
X8.225Y-3.7
X8.3037Y-3.7
X6.9463Y-2.175
X7.025Y-2.175
X6.95Y-1.375
X7.0287Y-1.375
X8.225Y-2.9
X8.3037Y-2.9
X6.9463Y-2.975
X7.025Y-2.975
X8.225Y-1.35
X8.3037Y-1.35
T3
X8.7Y-1.8
X8.7Y-2.0
X9.0Y-1.8
X9.0Y-2.0
X7.7Y-3.95
X7.7Y-4.25
X7.8Y-3.95
X7.8Y-4.25
X7.9Y-3.95
X7.9Y-4.25
X8.0Y-3.95
X8.0Y-4.25
X8.1Y-3.95
X8.1Y-4.25
X8.2Y-3.95
X8.2Y-4.25
X8.3Y-3.95
X8.3Y-4.25
X8.4Y-3.95
X8.4Y-4.25
X7.875Y-3.725
X7.9734Y-3.725
X6.7Y-3.15
X6.7Y-3.45
X6.8Y-3.15
X6.8Y-3.45
X6.9Y-3.15
X6.9Y-3.45
X7.0Y-3.15
X7.0Y-3.45
X7.1Y-3.15
X7.1Y-3.45
X7.2Y-3.15
X7.2Y-3.45
X7.3Y-3.15
X7.3Y-3.45
X7.4Y-3.15
X7.4Y-3.45
X7.875Y-2.125
X7.9734Y-2.125
X8.7Y-1.4
X8.7Y-1.6
X9.0Y-1.4
X9.0Y-1.6
X8.7Y-4.2
X8.7Y-4.4
X9.0Y-4.2
X9.0Y-4.4
X7.875Y-2.925
X7.9734Y-2.925
X7.7Y-3.15
X7.7Y-3.45
X7.8Y-3.15
X7.8Y-3.45
X7.9Y-3.15
X7.9Y-3.45
X8.0Y-3.15
X8.0Y-3.45
X8.1Y-3.15
X8.1Y-3.45
X8.2Y-3.15
X8.2Y-3.45
X8.3Y-3.15
X8.3Y-3.45
X8.4Y-3.15
X8.4Y-3.45
X6.7Y-3.95
X6.7Y-4.25
X6.8Y-3.95
X6.8Y-4.25
X6.9Y-3.95
X6.9Y-4.25
X7.0Y-3.95
X7.0Y-4.25
X7.1Y-3.95
X7.1Y-4.25
X7.2Y-3.95
X7.2Y-4.25
X7.3Y-3.95
X7.3Y-4.25
X7.4Y-3.95
X7.4Y-4.25
X8.7Y-2.6
X8.7Y-2.8
X9.0Y-2.6
X9.0Y-2.8
X8.7Y-2.2
X8.7Y-2.4
X9.0Y-2.2
X9.0Y-2.4
X8.7Y-3.8
X8.7Y-4.0
X9.0Y-3.8
X9.0Y-4.0
X8.7Y-3.0
X8.7Y-3.2
X9.0Y-3.0
X9.0Y-3.2
X7.7Y-2.35
X7.7Y-2.65
X7.8Y-2.35
X7.8Y-2.65
X7.9Y-2.35
X7.9Y-2.65
X8.0Y-2.35
X8.0Y-2.65
X8.1Y-2.35
X8.1Y-2.65
X8.2Y-2.35
X8.2Y-2.65
X8.3Y-2.35
X8.3Y-2.65
X8.4Y-2.35
X8.4Y-2.65
X6.7Y-1.55
X6.7Y-1.85
X6.8Y-1.55
X6.8Y-1.85
X6.9Y-1.55
X6.9Y-1.85
X7.0Y-1.55
X7.0Y-1.85
X7.1Y-1.55
X7.1Y-1.85
X7.2Y-1.55
X7.2Y-1.85
X7.3Y-1.55
X7.3Y-1.85
X7.4Y-1.55
X7.4Y-1.85
X8.7Y-3.4
X8.7Y-3.6
X9.0Y-3.4
X9.0Y-3.6
X7.7Y-1.55
X7.7Y-1.85
X7.8Y-1.55
X7.8Y-1.85
X7.9Y-1.55
X7.9Y-1.85
X8.0Y-1.55
X8.0Y-1.85
X8.1Y-1.55
X8.1Y-1.85
X8.2Y-1.55
X8.2Y-1.85
X8.3Y-1.55
X8.3Y-1.85
X8.4Y-1.55
X8.4Y-1.85
X6.7Y-2.35
X6.7Y-2.65
X6.8Y-2.35
X6.8Y-2.65
X6.9Y-2.35
X6.9Y-2.65
X7.0Y-2.35
X7.0Y-2.65
X7.1Y-2.35
X7.1Y-2.65
X7.2Y-2.35
X7.2Y-2.65
X7.3Y-2.35
X7.3Y-2.65
X7.4Y-2.35
X7.4Y-2.65
X7.875Y-1.325
X7.9734Y-1.325
T4
X6.15Y-2.15
X6.15Y-2.25
X6.15Y-2.35
X6.15Y-2.45
X6.15Y-2.55
X6.15Y-2.65
X6.25Y-2.15
X6.25Y-2.25
X6.25Y-2.35
X6.25Y-2.45
X6.25Y-2.55
X6.25Y-2.65
X6.15Y-3.15
X6.15Y-3.25
X6.15Y-3.35
X6.15Y-3.45
X6.15Y-3.55
X6.15Y-3.65
X6.25Y-3.15
X6.25Y-3.25
X6.25Y-3.35
X6.25Y-3.45
X6.25Y-3.55
X6.25Y-3.65
T5
X9.3Y-3.875
X9.3Y-4.075
X9.3Y-4.275
X9.3Y-4.475
X9.3Y-1.325
X9.3Y-1.525
X9.3Y-1.725
X9.3Y-1.925
X9.3Y-2.175
X9.3Y-2.375
X9.3Y-2.575
X9.3Y-2.775
X9.3Y-3.025
X9.3Y-3.225
X9.3Y-3.425
X9.3Y-3.625
T0
M30
